<?xml version="1.0" encoding="UTF-8"?>
<svg xmlns="http://www.w3.org/2000/svg" xmlns:xlink="http://www.w3.org/1999/xlink" width="600pt" height="600pt" viewBox="0 0 600 600" version="1.1">
<g id="surface2">
<rect x="0" y="0" width="600" height="600" style="fill:rgb(100%,100%,100%);fill-opacity:1;stroke:none;"/>
<path style="fill:none;stroke-width:1;stroke-linecap:butt;stroke-linejoin:miter;stroke:rgb(26.666667%,26.666667%,26.666667%);stroke-opacity:1;stroke-miterlimit:10;" d="M 20 564.550781 L 211.476562 548.710938 "/>
<path style="fill:none;stroke-width:1;stroke-linecap:butt;stroke-linejoin:miter;stroke:rgb(26.666667%,26.666667%,26.666667%);stroke-opacity:1;stroke-miterlimit:10;" d="M 20 564.550781 L 87.40625 458.007812 "/>
<path style="fill:none;stroke-width:1;stroke-linecap:butt;stroke-linejoin:miter;stroke:rgb(26.666667%,26.666667%,26.666667%);stroke-opacity:1;stroke-miterlimit:10;" d="M 211.476562 548.710938 L 404.238281 529.300781 "/>
<path style="fill:none;stroke-width:1;stroke-linecap:butt;stroke-linejoin:miter;stroke:rgb(26.666667%,26.666667%,26.666667%);stroke-opacity:1;stroke-miterlimit:10;" d="M 211.476562 548.710938 L 87.40625 458.007812 "/>
<path style="fill:none;stroke-width:1;stroke-linecap:butt;stroke-linejoin:miter;stroke:rgb(26.666667%,26.666667%,26.666667%);stroke-opacity:1;stroke-miterlimit:10;" d="M 211.476562 548.710938 L 280.25 440.710938 "/>
<path style="fill:none;stroke-width:1;stroke-linecap:butt;stroke-linejoin:miter;stroke:rgb(26.666667%,26.666667%,26.666667%);stroke-opacity:1;stroke-miterlimit:10;" d="M 404.238281 529.300781 L 280.25 440.710938 "/>
<path style="fill:none;stroke-width:1;stroke-linecap:butt;stroke-linejoin:miter;stroke:rgb(26.666667%,26.666667%,26.666667%);stroke-opacity:1;stroke-miterlimit:10;" d="M 404.238281 529.300781 L 580 580 "/>
<path style="fill:none;stroke-width:1;stroke-linecap:butt;stroke-linejoin:miter;stroke:rgb(26.666667%,26.666667%,26.666667%);stroke-opacity:1;stroke-miterlimit:10;" d="M 87.40625 458.007812 L 280.25 440.710938 "/>
<path style="fill:none;stroke-width:1;stroke-linecap:butt;stroke-linejoin:miter;stroke:rgb(26.666667%,26.666667%,26.666667%);stroke-opacity:1;stroke-miterlimit:10;" d="M 87.40625 458.007812 L 158.382812 350.476562 "/>
<path style="fill:none;stroke-width:1;stroke-linecap:butt;stroke-linejoin:miter;stroke:rgb(26.666667%,26.666667%,26.666667%);stroke-opacity:1;stroke-miterlimit:10;" d="M 280.25 440.710938 L 158.382812 350.476562 "/>
<path style="fill:none;stroke-width:1;stroke-linecap:butt;stroke-linejoin:miter;stroke:rgb(26.666667%,26.666667%,26.666667%);stroke-opacity:1;stroke-miterlimit:10;" d="M 158.382812 350.476562 L 121.0625 237.828125 "/>
<path style="fill:none;stroke-width:1;stroke-linecap:butt;stroke-linejoin:miter;stroke:rgb(26.666667%,26.666667%,26.666667%);stroke-opacity:1;stroke-miterlimit:10;" d="M 121.0625 237.828125 L 78.53125 128.347656 "/>
<path style="fill:none;stroke-width:1;stroke-linecap:butt;stroke-linejoin:miter;stroke:rgb(26.666667%,26.666667%,26.666667%);stroke-opacity:1;stroke-miterlimit:10;" d="M 78.53125 128.347656 L 33.597656 20 "/>
<path style="fill-rule:nonzero;fill:rgb(100%,0%,0%);fill-opacity:1;stroke-width:1;stroke-linecap:butt;stroke-linejoin:miter;stroke:rgb(0%,0%,0%);stroke-opacity:1;stroke-miterlimit:10;" d="M 30 564.550781 C 30 570.074219 25.523438 574.550781 20 574.550781 C 14.476562 574.550781 10 570.074219 10 564.550781 C 10 559.027344 14.476562 554.550781 20 554.550781 C 25.523438 554.550781 30 559.027344 30 564.550781 "/>
<path style="fill-rule:nonzero;fill:rgb(100%,0%,0%);fill-opacity:1;stroke-width:1;stroke-linecap:butt;stroke-linejoin:miter;stroke:rgb(0%,0%,0%);stroke-opacity:1;stroke-miterlimit:10;" d="M 221.476562 548.710938 C 221.476562 554.234375 217 558.710938 211.476562 558.710938 C 205.953125 558.710938 201.476562 554.234375 201.476562 548.710938 C 201.476562 543.1875 205.953125 538.710938 211.476562 538.710938 C 217 538.710938 221.476562 543.1875 221.476562 548.710938 "/>
<path style="fill-rule:nonzero;fill:rgb(100%,0%,0%);fill-opacity:1;stroke-width:1;stroke-linecap:butt;stroke-linejoin:miter;stroke:rgb(0%,0%,0%);stroke-opacity:1;stroke-miterlimit:10;" d="M 414.238281 529.300781 C 414.238281 534.824219 409.761719 539.300781 404.238281 539.300781 C 398.71875 539.300781 394.238281 534.824219 394.238281 529.300781 C 394.238281 523.777344 398.71875 519.300781 404.238281 519.300781 C 409.761719 519.300781 414.238281 523.777344 414.238281 529.300781 "/>
<path style="fill-rule:nonzero;fill:rgb(100%,0%,0%);fill-opacity:1;stroke-width:1;stroke-linecap:butt;stroke-linejoin:miter;stroke:rgb(0%,0%,0%);stroke-opacity:1;stroke-miterlimit:10;" d="M 97.40625 458.007812 C 97.40625 463.53125 92.925781 468.007812 87.40625 468.007812 C 81.882812 468.007812 77.40625 463.53125 77.40625 458.007812 C 77.40625 452.484375 81.882812 448.007812 87.40625 448.007812 C 92.925781 448.007812 97.40625 452.484375 97.40625 458.007812 "/>
<path style="fill-rule:nonzero;fill:rgb(100%,0%,0%);fill-opacity:1;stroke-width:1;stroke-linecap:butt;stroke-linejoin:miter;stroke:rgb(0%,0%,0%);stroke-opacity:1;stroke-miterlimit:10;" d="M 290.25 440.710938 C 290.25 446.234375 285.769531 450.710938 280.25 450.710938 C 274.726562 450.710938 270.25 446.234375 270.25 440.710938 C 270.25 435.1875 274.726562 430.710938 280.25 430.710938 C 285.769531 430.710938 290.25 435.1875 290.25 440.710938 "/>
<path style="fill-rule:nonzero;fill:rgb(100%,0%,0%);fill-opacity:1;stroke-width:1;stroke-linecap:butt;stroke-linejoin:miter;stroke:rgb(0%,0%,0%);stroke-opacity:1;stroke-miterlimit:10;" d="M 168.382812 350.476562 C 168.382812 356 163.90625 360.476562 158.382812 360.476562 C 152.863281 360.476562 148.382812 356 148.382812 350.476562 C 148.382812 344.953125 152.863281 340.476562 158.382812 340.476562 C 163.90625 340.476562 168.382812 344.953125 168.382812 350.476562 "/>
<path style="fill-rule:nonzero;fill:rgb(100%,0%,0%);fill-opacity:1;stroke-width:1;stroke-linecap:butt;stroke-linejoin:miter;stroke:rgb(0%,0%,0%);stroke-opacity:1;stroke-miterlimit:10;" d="M 131.0625 237.828125 C 131.0625 243.351562 126.585938 247.828125 121.0625 247.828125 C 115.539062 247.828125 111.0625 243.351562 111.0625 237.828125 C 111.0625 232.308594 115.539062 227.828125 121.0625 227.828125 C 126.585938 227.828125 131.0625 232.308594 131.0625 237.828125 "/>
<path style="fill-rule:nonzero;fill:rgb(100%,0%,0%);fill-opacity:1;stroke-width:1;stroke-linecap:butt;stroke-linejoin:miter;stroke:rgb(0%,0%,0%);stroke-opacity:1;stroke-miterlimit:10;" d="M 590 580 C 590 585.523438 585.523438 590 580 590 C 574.476562 590 570 585.523438 570 580 C 570 574.476562 574.476562 570 580 570 C 585.523438 570 590 574.476562 590 580 "/>
<path style="fill-rule:nonzero;fill:rgb(100%,0%,0%);fill-opacity:1;stroke-width:1;stroke-linecap:butt;stroke-linejoin:miter;stroke:rgb(0%,0%,0%);stroke-opacity:1;stroke-miterlimit:10;" d="M 88.53125 128.347656 C 88.53125 133.871094 84.054688 138.347656 78.53125 138.347656 C 73.007812 138.347656 68.53125 133.871094 68.53125 128.347656 C 68.53125 122.824219 73.007812 118.347656 78.53125 118.347656 C 84.054688 118.347656 88.53125 122.824219 88.53125 128.347656 "/>
<path style="fill-rule:nonzero;fill:rgb(100%,0%,0%);fill-opacity:1;stroke-width:1;stroke-linecap:butt;stroke-linejoin:miter;stroke:rgb(0%,0%,0%);stroke-opacity:1;stroke-miterlimit:10;" d="M 43.597656 20 C 43.597656 25.523438 39.121094 30 33.597656 30 C 28.074219 30 23.597656 25.523438 23.597656 20 C 23.597656 14.476562 28.074219 10 33.597656 10 C 39.121094 10 43.597656 14.476562 43.597656 20 "/>
</g>
</svg>
