<?xml version="1.0" encoding="utf-8" standalone="no"?>
<!DOCTYPE svg PUBLIC "-//W3C//DTD SVG 1.1//EN"
  "http://www.w3.org/Graphics/SVG/1.1/DTD/svg11.dtd">
<svg xmlns:xlink="http://www.w3.org/1999/xlink" width="237.6pt" height="195.078281pt" viewBox="0 0 237.6 195.078281" xmlns="http://www.w3.org/2000/svg" version="1.1">
 <metadata>
  <rdf:RDF xmlns:dc="http://purl.org/dc/elements/1.1/" xmlns:cc="http://creativecommons.org/ns#" xmlns:rdf="http://www.w3.org/1999/02/22-rdf-syntax-ns#">
   <cc:Work>
    <dc:type rdf:resource="http://purl.org/dc/dcmitype/StillImage"/>
    <dc:date>2026-09-13T19:30:29.361870</dc:date>
    <dc:format>image/svg+xml</dc:format>
    <dc:creator>
     <cc:Agent>
      <dc:title>Matplotlib v3.11.2, https://matplotlib.org/</dc:title>
     </cc:Agent>
    </dc:creator>
   </cc:Work>
  </rdf:RDF>
 </metadata>
 <defs>
  <style type="text/css">*{stroke-linejoin: round; stroke-linecap: butt}</style>
 </defs>
 <g id="figure_1">
  <g id="patch_1">
   <path d="M 0 195.078281 
L 237.6 195.078281 
L 237.6 0 
L 0 0 
L 0 195.078281 
z
" style="fill: none"/>
  </g>
  <g id="axes_1">
   <g id="patch_2">
    <path d="M 7.2 187.878281 
L 230.4 187.878281 
L 230.4 21.558281 
L 7.2 21.558281 
L 7.2 187.878281 
z
" style="fill: none"/>
   </g>
   <g id="EdgeCollection_1">
    <path d="M 165.700059 163.339901 
L 169.009358 132.074129 
" clip-path="url(#p8ee0abdd20)" style="fill: #b8b8b8; stroke: #b8b8b8; stroke-width: 0.8"/>
    <path d="M 161.648762 163.900552 
L 152.749933 141.651831 
" clip-path="url(#p8ee0abdd20)" style="fill: #b8b8b8; stroke: #b8b8b8; stroke-width: 0.8"/>
    <path d="M 174.367894 104.701724 
L 182.005018 78.261058 
" clip-path="url(#p8ee0abdd20)" style="fill: #b8b8b8; stroke: #b8b8b8; stroke-width: 0.8"/>
    <path d="M 157.754053 123.980732 
L 160.279687 122.82419 
" clip-path="url(#p8ee0abdd20)" style="fill: #b8b8b8; stroke: #b8b8b8; stroke-width: 0.8"/>
    <path d="M 164.682933 105.409846 
L 160.551754 96.334053 
" clip-path="url(#p8ee0abdd20)" style="fill: #b8b8b8; stroke: #b8b8b8; stroke-width: 0.8"/>
    <path d="M 175.31657 72.803321 
L 167.149262 77.088039 
" clip-path="url(#p8ee0abdd20)" style="fill: #b8b8b8; stroke: #b8b8b8; stroke-width: 0.8"/>
    <path d="M 192.126522 59.265218 
L 206.813819 41.754747 
" clip-path="url(#p8ee0abdd20)" style="fill: #b8b8b8; stroke: #b8b8b8; stroke-width: 0.8"/>
    <path d="M 149.760025 114.828434 
L 152.542513 97.416592 
" clip-path="url(#p8ee0abdd20)" style="fill: #b8b8b8; stroke: #b8b8b8; stroke-width: 0.8"/>
    <path d="M 139.375375 117.288056 
L 128.569434 102.266299 
" clip-path="url(#p8ee0abdd20)" style="fill: #b8b8b8; stroke: #b8b8b8; stroke-width: 0.8"/>
    <path d="M 141.337984 87.600877 
L 132.685271 90.186851 
" clip-path="url(#p8ee0abdd20)" style="fill: #b8b8b8; stroke: #b8b8b8; stroke-width: 0.8"/>
    <path d="M 111.712017 89.853249 
L 93.4291 83.74935 
" clip-path="url(#p8ee0abdd20)" style="fill: #b8b8b8; stroke: #b8b8b8; stroke-width: 0.8"/>
    <path d="M 77.270025 78.469928 
L 61.141464 73.315188 
" clip-path="url(#p8ee0abdd20)" style="fill: #b8b8b8; stroke: #b8b8b8; stroke-width: 0.8"/>
    <path d="M 44.942215 68.159228 
L 32.6499 64.262988 
" clip-path="url(#p8ee0abdd20)" style="fill: #b8b8b8; stroke: #b8b8b8; stroke-width: 0.8"/>
   </g>
   <g id="VertexCollection_1">
    <path d="M 164.805381 180.292685 
C 167.059607 180.292685 169.22181 179.397071 170.815789 177.803093 
C 172.409767 176.209114 173.305381 174.046911 173.305381 171.792685 
C 173.305381 169.538459 172.409767 167.376256 170.815789 165.782277 
C 169.22181 164.188299 167.059607 163.292685 164.805381 163.292685 
C 162.551155 163.292685 160.388952 164.188299 158.794973 165.782277 
C 157.200995 167.376256 156.305381 169.538459 156.305381 171.792685 
C 156.305381 174.046911 157.200995 176.209114 158.794973 177.803093 
C 160.388952 179.397071 162.551155 180.292685 164.805381 180.292685 
z
" clip-path="url(#p8ee0abdd20)" style="fill: #bbaad4; stroke: #593196; stroke-width: 0.6"/>
    <path d="M 170.482944 132.151897 
C 174.195788 132.151897 177.757062 130.676769 180.382439 128.051392 
C 183.007816 125.426015 184.482944 121.864741 184.482944 118.151897 
C 184.482944 114.439054 183.007816 110.877779 180.382439 108.252402 
C 177.757062 105.627026 174.195788 104.151897 170.482944 104.151897 
C 166.770101 104.151897 163.208826 105.627026 160.583449 108.252402 
C 157.958073 110.877779 156.482944 114.439054 156.482944 118.151897 
C 156.482944 121.864741 157.958073 125.426015 160.583449 128.051392 
C 163.208826 130.676769 166.770101 132.151897 170.482944 132.151897 
z
" clip-path="url(#p8ee0abdd20)" style="fill: #593196; stroke: #593196; stroke-width: 0.6"/>
    <path d="M 185.057478 78.693065 
C 187.974712 78.693065 190.772856 77.534035 192.835652 75.471239 
C 194.898448 73.408443 196.057478 70.610299 196.057478 67.693065 
C 196.057478 64.775831 194.898448 61.977686 192.835652 59.91489 
C 190.772856 57.852094 187.974712 56.693065 185.057478 56.693065 
C 182.140244 56.693065 179.342099 57.852094 177.279303 59.91489 
C 175.216507 61.977686 174.057478 64.775831 174.057478 67.693065 
C 174.057478 70.610299 175.216507 73.408443 177.279303 75.471239 
C 179.342099 77.534035 182.140244 78.693065 185.057478 78.693065 
z
" clip-path="url(#p8ee0abdd20)" style="fill: #8a6eb5; stroke: #593196; stroke-width: 0.6"/>
    <path d="M 147.550795 142.653024 
C 151.263639 142.653024 154.824913 141.177896 157.45029 138.552519 
C 160.075667 135.927143 161.550795 132.365868 161.550795 128.653024 
C 161.550795 124.940181 160.075667 121.378906 157.45029 118.75353 
C 154.824913 116.128153 151.263639 114.653024 147.550795 114.653024 
C 143.837952 114.653024 140.276677 116.128153 137.6513 118.75353 
C 135.025923 121.378906 133.550795 124.940181 133.550795 128.653024 
C 133.550795 132.365868 135.025923 135.927143 137.6513 138.552519 
C 140.276677 141.177896 143.837952 142.653024 147.550795 142.653024 
z
" clip-path="url(#p8ee0abdd20)" style="fill: #593196; stroke: #593196; stroke-width: 0.6"/>
    <path d="M 154.751743 97.592002 
C 158.464586 97.592002 162.025861 96.116874 164.651238 93.491497 
C 167.276615 90.86612 168.751743 87.304845 168.751743 83.592002 
C 168.751743 79.879159 167.276615 76.317884 164.651238 73.692507 
C 162.025861 71.06713 158.464586 69.592002 154.751743 69.592002 
C 151.0389 69.592002 147.477625 71.06713 144.852248 73.692507 
C 142.226871 76.317884 140.751743 79.879159 140.751743 83.592002 
C 140.751743 87.304845 142.226871 90.86612 144.852248 93.491497 
C 147.477625 96.116874 151.0389 97.592002 154.751743 97.592002 
z
" clip-path="url(#p8ee0abdd20)" style="fill: #593196; stroke: #593196; stroke-width: 0.6"/>
    <path d="M 122.145889 104.336681 
C 125.063123 104.336681 127.861268 103.177652 129.924064 101.114856 
C 131.98686 99.05206 133.145889 96.253915 133.145889 93.336681 
C 133.145889 90.419447 131.98686 87.621303 129.924064 85.558507 
C 127.861268 83.495711 125.063123 82.336681 122.145889 82.336681 
C 119.228655 82.336681 116.430511 83.495711 114.367715 85.558507 
C 112.304919 87.621303 111.145889 90.419447 111.145889 93.336681 
C 111.145889 96.253915 112.304919 99.05206 114.367715 101.114856 
C 116.430511 103.177652 119.228655 104.336681 122.145889 104.336681 
z
" clip-path="url(#p8ee0abdd20)" style="fill: #8a6eb5; stroke: #593196; stroke-width: 0.6"/>
    <path d="M 85.366562 89.557607 
C 87.620788 89.557607 89.782991 88.661994 91.376969 87.068015 
C 92.970948 85.474036 93.866562 83.311834 93.866562 81.057607 
C 93.866562 78.803381 92.970948 76.641178 91.376969 75.0472 
C 89.782991 73.453221 87.620788 72.557607 85.366562 72.557607 
C 83.112335 72.557607 80.950133 73.453221 79.356154 75.0472 
C 77.762175 76.641178 76.866562 78.803381 76.866562 81.057607 
C 76.866562 83.311834 77.762175 85.474036 79.356154 87.068015 
C 80.950133 88.661994 83.112335 89.557607 85.366562 89.557607 
z
" clip-path="url(#p8ee0abdd20)" style="fill: #bbaad4; stroke: #593196; stroke-width: 0.6"/>
    <path d="M 210.669661 43.15774 
C 212.26088 43.15774 213.787141 42.525542 214.912302 41.40038 
C 216.037464 40.275219 216.669661 38.748958 216.669661 37.15774 
C 216.669661 35.566521 216.037464 34.04026 214.912302 32.915099 
C 213.787141 31.789937 212.26088 31.15774 210.669661 31.15774 
C 209.078443 31.15774 207.552182 31.789937 206.427021 32.915099 
C 205.301859 34.04026 204.669661 35.566521 204.669661 37.15774 
C 204.669661 38.748958 205.301859 40.275219 206.427021 41.40038 
C 207.552182 42.525542 209.078443 43.15774 210.669661 43.15774 
z
" clip-path="url(#p8ee0abdd20)" style="fill: #ece7f3; stroke: #593196; stroke-width: 0.6"/>
    <path d="M 53.044927 79.227508 
C 55.299153 79.227508 57.461356 78.331895 59.055334 76.737916 
C 60.649313 75.143937 61.544927 72.981735 61.544927 70.727508 
C 61.544927 68.473282 60.649313 66.31108 59.055334 64.717101 
C 57.461356 63.123122 55.299153 62.227508 53.044927 62.227508 
C 50.7907 62.227508 48.628498 63.123122 47.034519 64.717101 
C 45.44054 66.31108 44.544927 68.473282 44.544927 70.727508 
C 44.544927 72.981735 45.44054 75.143937 47.034519 76.737916 
C 48.628498 78.331895 50.7907 79.227508 53.044927 79.227508 
z
" clip-path="url(#p8ee0abdd20)" style="fill: #bbaad4; stroke: #593196; stroke-width: 0.6"/>
    <path d="M 26.930339 68.450084 
C 28.521557 68.450084 30.047818 67.817886 31.172979 66.692724 
C 32.298141 65.567563 32.930339 64.041302 32.930339 62.450084 
C 32.930339 60.858865 32.298141 59.332605 31.172979 58.207443 
C 30.047818 57.082282 28.521557 56.450084 26.930339 56.450084 
C 25.33912 56.450084 23.812859 57.082282 22.687698 58.207443 
C 21.562536 59.332605 20.930339 60.858865 20.930339 62.450084 
C 20.930339 64.041302 21.562536 65.567563 22.687698 66.692724 
C 23.812859 67.817886 25.33912 68.450084 26.930339 68.450084 
z
" clip-path="url(#p8ee0abdd20)" style="fill: #ece7f3; stroke: #593196; stroke-width: 0.6"/>
   </g>
   <g id="text_1">
    <g clip-path="url(#p8ee0abdd20)">
     <!-- 0 -->
     <g style="fill: #333333" transform="translate(161.942256 187.730576) scale(0.09 -0.09)">
      <defs>
       <path id="DejaVuSans-13" d="M 2034 4250 
Q 1547 4250 1301 3770 
Q 1056 3291 1056 2328 
Q 1056 1369 1301 889 
Q 1547 409 2034 409 
Q 2525 409 2770 889 
Q 3016 1369 3016 2328 
Q 3016 3291 2770 3770 
Q 2525 4250 2034 4250 
z
M 2034 4750 
Q 2819 4750 3233 4129 
Q 3647 3509 3647 2328 
Q 3647 1150 3233 529 
Q 2819 -91 2034 -91 
Q 1250 -91 836 529 
Q 422 1150 422 2328 
Q 422 3509 836 4129 
Q 1250 4750 2034 4750 
z
" transform="scale(0.015625)"/>
      </defs>
      <use xlink:href="#DejaVuSans-13"/>
     </g>
    </g>
   </g>
   <g id="text_2">
    <g clip-path="url(#p8ee0abdd20)">
     <!-- 1 -->
     <g style="fill: #333333" transform="translate(167.619819 142.889788) scale(0.09 -0.09)">
      <defs>
       <path id="DejaVuSans-14" d="M 794 531 
L 1825 531 
L 1825 4091 
L 703 3866 
L 703 4441 
L 1819 4666 
L 2450 4666 
L 2450 531 
L 3481 531 
L 3481 0 
L 794 0 
L 794 531 
z
" transform="scale(0.015625)"/>
      </defs>
      <use xlink:href="#DejaVuSans-14"/>
     </g>
    </g>
   </g>
   <g id="text_3">
    <g clip-path="url(#p8ee0abdd20)">
     <!-- 2 -->
     <g style="fill: #333333" transform="translate(182.194353 87.630955) scale(0.09 -0.09)">
      <defs>
       <path id="DejaVuSans-15" d="M 1228 531 
L 3431 531 
L 3431 0 
L 469 0 
L 469 531 
Q 828 903 1448 1529 
Q 2069 2156 2228 2338 
Q 2531 2678 2651 2914 
Q 2772 3150 2772 3378 
Q 2772 3750 2511 3984 
Q 2250 4219 1831 4219 
Q 1534 4219 1204 4116 
Q 875 4013 500 3803 
L 500 4441 
Q 881 4594 1212 4672 
Q 1544 4750 1819 4750 
Q 2544 4750 2975 4387 
Q 3406 4025 3406 3419 
Q 3406 3131 3298 2873 
Q 3191 2616 2906 2266 
Q 2828 2175 2409 1742 
Q 1991 1309 1228 531 
z
" transform="scale(0.015625)"/>
      </defs>
      <use xlink:href="#DejaVuSans-15"/>
     </g>
    </g>
   </g>
   <g id="text_4">
    <g clip-path="url(#p8ee0abdd20)">
     <!-- 3 -->
     <g style="fill: #333333" transform="translate(144.68767 153.390915) scale(0.09 -0.09)">
      <defs>
       <path id="DejaVuSans-16" d="M 2597 2516 
Q 3050 2419 3304 2112 
Q 3559 1806 3559 1356 
Q 3559 666 3084 287 
Q 2609 -91 1734 -91 
Q 1441 -91 1130 -33 
Q 819 25 488 141 
L 488 750 
Q 750 597 1062 519 
Q 1375 441 1716 441 
Q 2309 441 2620 675 
Q 2931 909 2931 1356 
Q 2931 1769 2642 2001 
Q 2353 2234 1838 2234 
L 1294 2234 
L 1294 2753 
L 1863 2753 
Q 2328 2753 2575 2939 
Q 2822 3125 2822 3475 
Q 2822 3834 2567 4026 
Q 2313 4219 1838 4219 
Q 1578 4219 1281 4162 
Q 984 4106 628 3988 
L 628 4550 
Q 988 4650 1302 4700 
Q 1616 4750 1894 4750 
Q 2613 4750 3031 4423 
Q 3450 4097 3450 3541 
Q 3450 3153 3228 2886 
Q 3006 2619 2597 2516 
z
" transform="scale(0.015625)"/>
      </defs>
      <use xlink:href="#DejaVuSans-16"/>
     </g>
    </g>
   </g>
   <g id="text_5">
    <g clip-path="url(#p8ee0abdd20)">
     <!-- 4 -->
     <g style="fill: #333333" transform="translate(151.888618 108.329893) scale(0.09 -0.09)">
      <defs>
       <path id="DejaVuSans-17" d="M 2419 4116 
L 825 1625 
L 2419 1625 
L 2419 4116 
z
M 2253 4666 
L 3047 4666 
L 3047 1625 
L 3713 1625 
L 3713 1100 
L 3047 1100 
L 3047 0 
L 2419 0 
L 2419 1100 
L 313 1100 
L 313 1709 
L 2253 4666 
z
" transform="scale(0.015625)"/>
      </defs>
      <use xlink:href="#DejaVuSans-17"/>
     </g>
    </g>
   </g>
   <g id="text_6">
    <g clip-path="url(#p8ee0abdd20)">
     <!-- 5 -->
     <g style="fill: #333333" transform="translate(119.282764 113.274572) scale(0.09 -0.09)">
      <defs>
       <path id="DejaVuSans-18" d="M 691 4666 
L 3169 4666 
L 3169 4134 
L 1269 4134 
L 1269 2991 
Q 1406 3038 1543 3061 
Q 1681 3084 1819 3084 
Q 2600 3084 3056 2656 
Q 3513 2228 3513 1497 
Q 3513 744 3044 326 
Q 2575 -91 1722 -91 
Q 1428 -91 1123 -41 
Q 819 9 494 109 
L 494 744 
Q 775 591 1075 516 
Q 1375 441 1709 441 
Q 2250 441 2565 725 
Q 2881 1009 2881 1497 
Q 2881 1984 2565 2268 
Q 2250 2553 1709 2553 
Q 1456 2553 1204 2497 
Q 953 2441 691 2322 
L 691 4666 
z
" transform="scale(0.015625)"/>
      </defs>
      <use xlink:href="#DejaVuSans-18"/>
     </g>
    </g>
   </g>
   <g id="text_7">
    <g clip-path="url(#p8ee0abdd20)">
     <!-- 6 -->
     <g style="fill: #333333" transform="translate(82.503437 96.995498) scale(0.09 -0.09)">
      <defs>
       <path id="DejaVuSans-19" d="M 2113 2584 
Q 1688 2584 1439 2293 
Q 1191 2003 1191 1497 
Q 1191 994 1439 701 
Q 1688 409 2113 409 
Q 2538 409 2786 701 
Q 3034 994 3034 1497 
Q 3034 2003 2786 2293 
Q 2538 2584 2113 2584 
z
M 3366 4563 
L 3366 3988 
Q 3128 4100 2886 4159 
Q 2644 4219 2406 4219 
Q 1781 4219 1451 3797 
Q 1122 3375 1075 2522 
Q 1259 2794 1537 2939 
Q 1816 3084 2150 3084 
Q 2853 3084 3261 2657 
Q 3669 2231 3669 1497 
Q 3669 778 3244 343 
Q 2819 -91 2113 -91 
Q 1303 -91 875 529 
Q 447 1150 447 2328 
Q 447 3434 972 4092 
Q 1497 4750 2381 4750 
Q 2619 4750 2861 4703 
Q 3103 4656 3366 4563 
z
" transform="scale(0.015625)"/>
      </defs>
      <use xlink:href="#DejaVuSans-19"/>
     </g>
    </g>
   </g>
   <g id="text_8">
    <g clip-path="url(#p8ee0abdd20)">
     <!-- 7 -->
     <g style="fill: #333333" transform="translate(207.806536 49.09563) scale(0.09 -0.09)">
      <defs>
       <path id="DejaVuSans-1a" d="M 525 4666 
L 3525 4666 
L 3525 4397 
L 1831 0 
L 1172 0 
L 2766 4134 
L 525 4134 
L 525 4666 
z
" transform="scale(0.015625)"/>
      </defs>
      <use xlink:href="#DejaVuSans-1a"/>
     </g>
    </g>
   </g>
   <g id="text_9">
    <g clip-path="url(#p8ee0abdd20)">
     <!-- 8 -->
     <g style="fill: #333333" transform="translate(50.181802 86.665399) scale(0.09 -0.09)">
      <defs>
       <path id="DejaVuSans-1b" d="M 2034 2216 
Q 1584 2216 1326 1975 
Q 1069 1734 1069 1313 
Q 1069 891 1326 650 
Q 1584 409 2034 409 
Q 2484 409 2743 651 
Q 3003 894 3003 1313 
Q 3003 1734 2745 1975 
Q 2488 2216 2034 2216 
z
M 1403 2484 
Q 997 2584 770 2862 
Q 544 3141 544 3541 
Q 544 4100 942 4425 
Q 1341 4750 2034 4750 
Q 2731 4750 3128 4425 
Q 3525 4100 3525 3541 
Q 3525 3141 3298 2862 
Q 3072 2584 2669 2484 
Q 3125 2378 3379 2068 
Q 3634 1759 3634 1313 
Q 3634 634 3220 271 
Q 2806 -91 2034 -91 
Q 1263 -91 848 271 
Q 434 634 434 1313 
Q 434 1759 690 2068 
Q 947 2378 1403 2484 
z
M 1172 3481 
Q 1172 3119 1398 2916 
Q 1625 2713 2034 2713 
Q 2441 2713 2670 2916 
Q 2900 3119 2900 3481 
Q 2900 3844 2670 4047 
Q 2441 4250 2034 4250 
Q 1625 4250 1398 4047 
Q 1172 3844 1172 3481 
z
" transform="scale(0.015625)"/>
      </defs>
      <use xlink:href="#DejaVuSans-1b"/>
     </g>
    </g>
   </g>
   <g id="text_10">
    <g clip-path="url(#p8ee0abdd20)">
     <!-- 9 -->
     <g style="fill: #333333" transform="translate(24.067214 74.387974) scale(0.09 -0.09)">
      <defs>
       <path id="DejaVuSans-1c" d="M 703 97 
L 703 672 
Q 941 559 1184 500 
Q 1428 441 1663 441 
Q 2288 441 2617 861 
Q 2947 1281 2994 2138 
Q 2813 1869 2534 1725 
Q 2256 1581 1919 1581 
Q 1219 1581 811 2004 
Q 403 2428 403 3163 
Q 403 3881 828 4315 
Q 1253 4750 1959 4750 
Q 2769 4750 3195 4129 
Q 3622 3509 3622 2328 
Q 3622 1225 3098 567 
Q 2575 -91 1691 -91 
Q 1453 -91 1209 -44 
Q 966 3 703 97 
z
M 1959 2075 
Q 2384 2075 2632 2365 
Q 2881 2656 2881 3163 
Q 2881 3666 2632 3958 
Q 2384 4250 1959 4250 
Q 1534 4250 1286 3958 
Q 1038 3666 1038 3163 
Q 1038 2656 1286 2365 
Q 1534 2075 1959 2075 
z
" transform="scale(0.015625)"/>
      </defs>
      <use xlink:href="#DejaVuSans-1c"/>
     </g>
    </g>
   </g>
   <g id="matplotlib.axis_1"/>
   <g id="matplotlib.axis_2"/>
   <g id="text_11">
    <!-- Degree Centrality -->
    <g style="fill: #333333" transform="translate(70.067422 15.558281) scale(0.11 -0.11)">
     <defs>
      <path id="DejaVuSans-27" d="M 1259 4147 
L 1259 519 
L 2022 519 
Q 2988 519 3436 956 
Q 3884 1394 3884 2338 
Q 3884 3275 3436 3711 
Q 2988 4147 2022 4147 
L 1259 4147 
z
M 628 4666 
L 1925 4666 
Q 3281 4666 3915 4102 
Q 4550 3538 4550 2338 
Q 4550 1131 3912 565 
Q 3275 0 1925 0 
L 628 0 
L 628 4666 
z
" transform="scale(0.015625)"/>
      <path id="DejaVuSans-48" d="M 3597 1894 
L 3597 1613 
L 953 1613 
Q 991 1019 1311 708 
Q 1631 397 2203 397 
Q 2534 397 2845 478 
Q 3156 559 3463 722 
L 3463 178 
Q 3153 47 2828 -22 
Q 2503 -91 2169 -91 
Q 1331 -91 842 396 
Q 353 884 353 1716 
Q 353 2575 817 3079 
Q 1281 3584 2069 3584 
Q 2775 3584 3186 3129 
Q 3597 2675 3597 1894 
z
M 3022 2063 
Q 3016 2534 2758 2815 
Q 2500 3097 2075 3097 
Q 1594 3097 1305 2825 
Q 1016 2553 972 2059 
L 3022 2063 
z
" transform="scale(0.015625)"/>
      <path id="DejaVuSans-4a" d="M 2906 1791 
Q 2906 2416 2648 2759 
Q 2391 3103 1925 3103 
Q 1463 3103 1205 2759 
Q 947 2416 947 1791 
Q 947 1169 1205 825 
Q 1463 481 1925 481 
Q 2391 481 2648 825 
Q 2906 1169 2906 1791 
z
M 3481 434 
Q 3481 -459 3084 -895 
Q 2688 -1331 1869 -1331 
Q 1566 -1331 1297 -1286 
Q 1028 -1241 775 -1147 
L 775 -588 
Q 1028 -725 1275 -790 
Q 1522 -856 1778 -856 
Q 2344 -856 2625 -561 
Q 2906 -266 2906 331 
L 2906 616 
Q 2728 306 2450 153 
Q 2172 0 1784 0 
Q 1141 0 747 490 
Q 353 981 353 1791 
Q 353 2603 747 3093 
Q 1141 3584 1784 3584 
Q 2172 3584 2450 3431 
Q 2728 3278 2906 2969 
L 2906 3500 
L 3481 3500 
L 3481 434 
z
" transform="scale(0.015625)"/>
      <path id="DejaVuSans-55" d="M 2631 2963 
Q 2534 3019 2420 3045 
Q 2306 3072 2169 3072 
Q 1681 3072 1420 2755 
Q 1159 2438 1159 1844 
L 1159 0 
L 581 0 
L 581 3500 
L 1159 3500 
L 1159 2956 
Q 1341 3275 1631 3429 
Q 1922 3584 2338 3584 
Q 2397 3584 2469 3576 
Q 2541 3569 2628 3553 
L 2631 2963 
z
" transform="scale(0.015625)"/>
      <path id="DejaVuSans-3" transform="scale(0.015625)"/>
      <path id="DejaVuSans-26" d="M 4122 4306 
L 4122 3641 
Q 3803 3938 3442 4084 
Q 3081 4231 2675 4231 
Q 1875 4231 1450 3742 
Q 1025 3253 1025 2328 
Q 1025 1406 1450 917 
Q 1875 428 2675 428 
Q 3081 428 3442 575 
Q 3803 722 4122 1019 
L 4122 359 
Q 3791 134 3420 21 
Q 3050 -91 2638 -91 
Q 1578 -91 968 557 
Q 359 1206 359 2328 
Q 359 3453 968 4101 
Q 1578 4750 2638 4750 
Q 3056 4750 3426 4639 
Q 3797 4528 4122 4306 
z
" transform="scale(0.015625)"/>
      <path id="DejaVuSans-51" d="M 3513 2113 
L 3513 0 
L 2938 0 
L 2938 2094 
Q 2938 2591 2744 2837 
Q 2550 3084 2163 3084 
Q 1697 3084 1428 2787 
Q 1159 2491 1159 1978 
L 1159 0 
L 581 0 
L 581 3500 
L 1159 3500 
L 1159 2956 
Q 1366 3272 1645 3428 
Q 1925 3584 2291 3584 
Q 2894 3584 3203 3211 
Q 3513 2838 3513 2113 
z
" transform="scale(0.015625)"/>
      <path id="DejaVuSans-57" d="M 1172 4494 
L 1172 3500 
L 2356 3500 
L 2356 3053 
L 1172 3053 
L 1172 1153 
Q 1172 725 1289 603 
Q 1406 481 1766 481 
L 2356 481 
L 2356 0 
L 1766 0 
Q 1100 0 847 248 
Q 594 497 594 1153 
L 594 3053 
L 172 3053 
L 172 3500 
L 594 3500 
L 594 4494 
L 1172 4494 
z
" transform="scale(0.015625)"/>
      <path id="DejaVuSans-44" d="M 2194 1759 
Q 1497 1759 1228 1600 
Q 959 1441 959 1056 
Q 959 750 1161 570 
Q 1363 391 1709 391 
Q 2188 391 2477 730 
Q 2766 1069 2766 1631 
L 2766 1759 
L 2194 1759 
z
M 3341 1997 
L 3341 0 
L 2766 0 
L 2766 531 
Q 2569 213 2275 61 
Q 1981 -91 1556 -91 
Q 1019 -91 701 211 
Q 384 513 384 1019 
Q 384 1609 779 1909 
Q 1175 2209 1959 2209 
L 2766 2209 
L 2766 2266 
Q 2766 2663 2505 2880 
Q 2244 3097 1772 3097 
Q 1472 3097 1187 3025 
Q 903 2953 641 2809 
L 641 3341 
Q 956 3463 1253 3523 
Q 1550 3584 1831 3584 
Q 2591 3584 2966 3190 
Q 3341 2797 3341 1997 
z
" transform="scale(0.015625)"/>
      <path id="DejaVuSans-4f" d="M 603 4863 
L 1178 4863 
L 1178 0 
L 603 0 
L 603 4863 
z
" transform="scale(0.015625)"/>
      <path id="DejaVuSans-4c" d="M 603 3500 
L 1178 3500 
L 1178 0 
L 603 0 
L 603 3500 
z
M 603 4863 
L 1178 4863 
L 1178 4134 
L 603 4134 
L 603 4863 
z
" transform="scale(0.015625)"/>
      <path id="DejaVuSans-5c" d="M 2059 -325 
Q 1816 -950 1584 -1140 
Q 1353 -1331 966 -1331 
L 506 -1331 
L 506 -850 
L 844 -850 
Q 1081 -850 1212 -737 
Q 1344 -625 1503 -206 
L 1606 56 
L 191 3500 
L 800 3500 
L 1894 763 
L 2988 3500 
L 3597 3500 
L 2059 -325 
z
" transform="scale(0.015625)"/>
     </defs>
     <use xlink:href="#DejaVuSans-27"/>
     <use xlink:href="#DejaVuSans-48" transform="translate(77 0)"/>
     <use xlink:href="#DejaVuSans-4a" transform="translate(138.53125 0)"/>
     <use xlink:href="#DejaVuSans-55" transform="translate(202.015625 0)"/>
     <use xlink:href="#DejaVuSans-48" transform="translate(240.921875 0)"/>
     <use xlink:href="#DejaVuSans-48" transform="translate(302.453125 0)"/>
     <use xlink:href="#DejaVuSans-3" transform="translate(363.984375 0)"/>
     <use xlink:href="#DejaVuSans-26" transform="translate(395.765625 0)"/>
     <use xlink:href="#DejaVuSans-48" transform="translate(465.59375 0)"/>
     <use xlink:href="#DejaVuSans-51" transform="translate(527.125 0)"/>
     <use xlink:href="#DejaVuSans-57" transform="translate(590.5 0)"/>
     <use xlink:href="#DejaVuSans-55" transform="translate(629.703125 0)"/>
     <use xlink:href="#DejaVuSans-44" transform="translate(670.8125 0)"/>
     <use xlink:href="#DejaVuSans-4f" transform="translate(732.09375 0)"/>
     <use xlink:href="#DejaVuSans-4c" transform="translate(759.875 0)"/>
     <use xlink:href="#DejaVuSans-57" transform="translate(787.65625 0)"/>
     <use xlink:href="#DejaVuSans-5c" transform="translate(826.859375 0)"/>
    </g>
   </g>
  </g>
 </g>
 <defs>
  <clipPath id="p8ee0abdd20">
   <rect x="7.2" y="21.558281" width="223.2" height="166.32"/>
  </clipPath>
 </defs>
</svg>
