<?xml version="1.0" encoding="utf-8" standalone="no"?>
<!DOCTYPE svg PUBLIC "-//W3C//DTD SVG 1.1//EN"
  "http://www.w3.org/Graphics/SVG/1.1/DTD/svg11.dtd">
<svg xmlns:xlink="http://www.w3.org/1999/xlink" width="237.6pt" height="195.078281pt" viewBox="0 0 237.6 195.078281" xmlns="http://www.w3.org/2000/svg" version="1.1">
 <metadata>
  <rdf:RDF xmlns:dc="http://purl.org/dc/elements/1.1/" xmlns:cc="http://creativecommons.org/ns#" xmlns:rdf="http://www.w3.org/1999/02/22-rdf-syntax-ns#">
   <cc:Work>
    <dc:type rdf:resource="http://purl.org/dc/dcmitype/StillImage"/>
    <dc:date>2026-08-20T08:47:15.229359</dc:date>
    <dc:format>image/svg+xml</dc:format>
    <dc:creator>
     <cc:Agent>
      <dc:title>Matplotlib v3.11.1, https://matplotlib.org/</dc:title>
     </cc:Agent>
    </dc:creator>
   </cc:Work>
  </rdf:RDF>
 </metadata>
 <defs>
  <style type="text/css">*{stroke-linejoin: round; stroke-linecap: butt}</style>
 </defs>
 <g id="figure_1">
  <g id="patch_1">
   <path d="M 0 195.078281 
L 237.6 195.078281 
L 237.6 0 
L 0 0 
L 0 195.078281 
z
" style="fill: none"/>
  </g>
  <g id="axes_1">
   <g id="patch_2">
    <path d="M 7.2 187.878281 
L 230.4 187.878281 
L 230.4 21.558281 
L 7.2 21.558281 
L 7.2 187.878281 
z
" style="fill: none"/>
   </g>
   <g id="EdgeCollection_1">
    <path d="M 165.827887 163.344803 
L 169.112479 132.220435 
" clip-path="url(#p849a00ec94)" style="fill: #b8b8b8; stroke: #b8b8b8; stroke-width: 0.8"/>
    <path d="M 161.760261 163.913335 
L 152.871723 141.844206 
" clip-path="url(#p849a00ec94)" style="fill: #b8b8b8; stroke: #b8b8b8; stroke-width: 0.8"/>
    <path d="M 174.455775 104.844422 
L 182.054566 78.456051 
" clip-path="url(#p849a00ec94)" style="fill: #b8b8b8; stroke: #b8b8b8; stroke-width: 0.8"/>
    <path d="M 157.864491 124.151905 
L 160.358647 123.003766 
" clip-path="url(#p849a00ec94)" style="fill: #b8b8b8; stroke: #b8b8b8; stroke-width: 0.8"/>
    <path d="M 164.748957 105.570673 
L 160.645375 96.616722 
" clip-path="url(#p849a00ec94)" style="fill: #b8b8b8; stroke: #b8b8b8; stroke-width: 0.8"/>
    <path d="M 175.372839 73.024913 
L 167.190609 77.348678 
" clip-path="url(#p849a00ec94)" style="fill: #b8b8b8; stroke: #b8b8b8; stroke-width: 0.8"/>
    <path d="M 192.134212 59.42994 
L 206.831824 41.766252 
" clip-path="url(#p849a00ec94)" style="fill: #b8b8b8; stroke: #b8b8b8; stroke-width: 0.8"/>
    <path d="M 149.846135 115.032618 
L 152.607822 97.714952 
" clip-path="url(#p849a00ec94)" style="fill: #b8b8b8; stroke: #b8b8b8; stroke-width: 0.8"/>
    <path d="M 139.439813 117.511811 
L 128.659577 102.59835 
" clip-path="url(#p849a00ec94)" style="fill: #b8b8b8; stroke: #b8b8b8; stroke-width: 0.8"/>
    <path d="M 141.404681 87.918092 
L 132.750261 90.518341 
" clip-path="url(#p849a00ec94)" style="fill: #b8b8b8; stroke: #b8b8b8; stroke-width: 0.8"/>
    <path d="M 111.785027 90.189911 
L 93.466122 84.054076 
" clip-path="url(#p849a00ec94)" style="fill: #b8b8b8; stroke: #b8b8b8; stroke-width: 0.8"/>
    <path d="M 77.316914 78.744254 
L 61.140569 73.524601 
" clip-path="url(#p849a00ec94)" style="fill: #b8b8b8; stroke: #b8b8b8; stroke-width: 0.8"/>
    <path d="M 44.951863 68.3357 
L 32.647703 64.418268 
" clip-path="url(#p849a00ec94)" style="fill: #b8b8b8; stroke: #b8b8b8; stroke-width: 0.8"/>
   </g>
   <g id="VertexCollection_1">
    <path d="M 164.935826 180.297863 
C 167.190052 180.297863 169.352255 179.40225 170.946233 177.808271 
C 172.540212 176.214292 173.435826 174.05209 173.435826 171.797863 
C 173.435826 169.543637 172.540212 167.381434 170.946233 165.787456 
C 169.352255 164.193477 167.190052 163.297863 164.935826 163.297863 
C 162.681599 163.297863 160.519397 164.193477 158.925418 165.787456 
C 157.331439 167.381434 156.435826 169.543637 156.435826 171.797863 
C 156.435826 174.05209 157.331439 176.214292 158.925418 177.808271 
C 160.519397 179.40225 162.681599 180.297863 164.935826 180.297863 
z
" clip-path="url(#p849a00ec94)" style="fill: #bbaad4; stroke: #593196; stroke-width: 0.6"/>
    <path d="M 170.581757 132.297748 
C 174.2946 132.297748 177.855875 130.82262 180.481252 128.197243 
C 183.106628 125.571866 184.581757 122.010592 184.581757 118.297748 
C 184.581757 114.584905 183.106628 111.02363 180.481252 108.398253 
C 177.855875 105.772876 174.2946 104.297748 170.581757 104.297748 
C 166.868913 104.297748 163.307638 105.772876 160.682262 108.398253 
C 158.056885 111.02363 156.581757 114.584905 156.581757 118.297748 
C 156.581757 122.010592 158.056885 125.571866 160.682262 128.197243 
C 163.307638 130.82262 166.868913 132.297748 170.581757 132.297748 
z
" clip-path="url(#p849a00ec94)" style="fill: #593196; stroke: #593196; stroke-width: 0.6"/>
    <path d="M 185.098437 78.885581 
C 188.015671 78.885581 190.813816 77.726552 192.876612 75.663756 
C 194.939408 73.600959 196.098437 70.802815 196.098437 67.885581 
C 196.098437 64.968347 194.939408 62.170202 192.876612 60.107406 
C 190.813816 58.04461 188.015671 56.885581 185.098437 56.885581 
C 182.181203 56.885581 179.383059 58.04461 177.320263 60.107406 
C 175.257467 62.170202 174.098437 64.968347 174.098437 67.885581 
C 174.098437 70.802815 175.257467 73.600959 177.320263 75.663756 
C 179.383059 77.726552 182.181203 78.885581 185.098437 78.885581 
z
" clip-path="url(#p849a00ec94)" style="fill: #8a6eb5; stroke: #593196; stroke-width: 0.6"/>
    <path d="M 147.641382 142.857923 
C 151.354225 142.857923 154.9155 141.382795 157.540877 138.757418 
C 160.166253 136.132041 161.641382 132.570766 161.641382 128.857923 
C 161.641382 125.14508 160.166253 121.583805 157.540877 118.958428 
C 154.9155 116.333051 151.354225 114.857923 147.641382 114.857923 
C 143.928538 114.857923 140.367263 116.333051 137.741887 118.958428 
C 135.11651 121.583805 133.641382 125.14508 133.641382 128.857923 
C 133.641382 132.570766 135.11651 136.132041 137.741887 138.757418 
C 140.367263 141.382795 143.928538 142.857923 147.641382 142.857923 
z
" clip-path="url(#p849a00ec94)" style="fill: #593196; stroke: #593196; stroke-width: 0.6"/>
    <path d="M 154.812575 97.889647 
C 158.525419 97.889647 162.086694 96.414518 164.71207 93.789142 
C 167.337447 91.163765 168.812575 87.60249 168.812575 83.889647 
C 168.812575 80.176803 167.337447 76.615528 164.71207 73.990152 
C 162.086694 71.364775 158.525419 69.889647 154.812575 69.889647 
C 151.099732 69.889647 147.538457 71.364775 144.91308 73.990152 
C 142.287704 76.615528 140.812575 80.176803 140.812575 83.889647 
C 140.812575 87.60249 142.287704 91.163765 144.91308 93.789142 
C 147.538457 96.414518 151.099732 97.889647 154.812575 97.889647 
z
" clip-path="url(#p849a00ec94)" style="fill: #593196; stroke: #593196; stroke-width: 0.6"/>
    <path d="M 122.215487 104.683548 
C 125.132721 104.683548 127.930866 103.524518 129.993662 101.461722 
C 132.056458 99.398926 133.215487 96.600782 133.215487 93.683548 
C 133.215487 90.766314 132.056458 87.968169 129.993662 85.905373 
C 127.930866 83.842577 125.132721 82.683548 122.215487 82.683548 
C 119.298253 82.683548 116.500109 83.842577 114.437313 85.905373 
C 112.374517 87.968169 111.215487 90.766314 111.215487 93.683548 
C 111.215487 96.600782 112.374517 99.398926 114.437313 101.461722 
C 116.500109 103.524518 119.298253 104.683548 122.215487 104.683548 
z
" clip-path="url(#p849a00ec94)" style="fill: #8a6eb5; stroke: #593196; stroke-width: 0.6"/>
    <path d="M 85.406221 89.854447 
C 87.660447 89.854447 89.82265 88.958834 91.416629 87.364855 
C 93.010607 85.770876 93.906221 83.608674 93.906221 81.354447 
C 93.906221 79.100221 93.010607 76.938018 91.416629 75.34404 
C 89.82265 73.750061 87.660447 72.854447 85.406221 72.854447 
C 83.151995 72.854447 80.989792 73.750061 79.395813 75.34404 
C 77.801835 76.938018 76.906221 79.100221 76.906221 81.354447 
C 76.906221 83.608674 77.801835 85.770876 79.395813 87.364855 
C 80.989792 88.958834 83.151995 89.854447 85.406221 89.854447 
z
" clip-path="url(#p849a00ec94)" style="fill: #bbaad4; stroke: #593196; stroke-width: 0.6"/>
    <path d="M 210.66952 43.154084 
C 212.260738 43.154084 213.786999 42.521886 214.91216 41.396725 
C 216.037322 40.271563 216.66952 38.745303 216.66952 37.154084 
C 216.66952 35.562866 216.037322 34.036605 214.91216 32.911444 
C 213.786999 31.786282 212.260738 31.154084 210.66952 31.154084 
C 209.078301 31.154084 207.552041 31.786282 206.426879 32.911444 
C 205.301718 34.036605 204.66952 35.562866 204.66952 37.154084 
C 204.66952 38.745303 205.301718 40.271563 206.426879 41.396725 
C 207.552041 42.521886 209.078301 43.154084 210.66952 43.154084 
z
" clip-path="url(#p849a00ec94)" style="fill: #ece7f3; stroke: #593196; stroke-width: 0.6"/>
    <path d="M 53.051262 79.414408 
C 55.305488 79.414408 57.46769 78.518795 59.061669 76.924816 
C 60.655648 75.330837 61.551262 73.168635 61.551262 70.914408 
C 61.551262 68.660182 60.655648 66.497979 59.061669 64.904001 
C 57.46769 63.310022 55.305488 62.414408 53.051262 62.414408 
C 50.797035 62.414408 48.634833 63.310022 47.040854 64.904001 
C 45.446875 66.497979 44.551262 68.660182 44.551262 70.914408 
C 44.551262 73.168635 45.446875 75.330837 47.040854 76.924816 
C 48.634833 78.518795 50.797035 79.414408 53.051262 79.414408 
z
" clip-path="url(#p849a00ec94)" style="fill: #bbaad4; stroke: #593196; stroke-width: 0.6"/>
    <path d="M 26.93048 68.598004 
C 28.521699 68.598004 30.047959 67.965806 31.173121 66.840644 
C 32.298282 65.715483 32.93048 64.189222 32.93048 62.598004 
C 32.93048 61.006785 32.298282 59.480524 31.173121 58.355363 
C 30.047959 57.230202 28.521699 56.598004 26.93048 56.598004 
C 25.339262 56.598004 23.813001 57.230202 22.68784 58.355363 
C 21.562678 59.480524 20.93048 61.006785 20.93048 62.598004 
C 20.93048 64.189222 21.562678 65.715483 22.68784 66.840644 
C 23.813001 67.965806 25.339262 68.598004 26.93048 68.598004 
z
" clip-path="url(#p849a00ec94)" style="fill: #ece7f3; stroke: #593196; stroke-width: 0.6"/>
   </g>
   <g id="text_1">
    <g clip-path="url(#p849a00ec94)">
     <!-- 0 -->
     <g style="fill: #333333" transform="translate(162.072701 187.735754) scale(0.09 -0.09)">
      <defs>
       <path id="DejaVuSans-13" d="M 2034 4250 
Q 1547 4250 1301 3770 
Q 1056 3291 1056 2328 
Q 1056 1369 1301 889 
Q 1547 409 2034 409 
Q 2525 409 2770 889 
Q 3016 1369 3016 2328 
Q 3016 3291 2770 3770 
Q 2525 4250 2034 4250 
z
M 2034 4750 
Q 2819 4750 3233 4129 
Q 3647 3509 3647 2328 
Q 3647 1150 3233 529 
Q 2819 -91 2034 -91 
Q 1250 -91 836 529 
Q 422 1150 422 2328 
Q 422 3509 836 4129 
Q 1250 4750 2034 4750 
z
" transform="scale(0.015625)"/>
      </defs>
      <use xlink:href="#DejaVuSans-13"/>
     </g>
    </g>
   </g>
   <g id="text_2">
    <g clip-path="url(#p849a00ec94)">
     <!-- 1 -->
     <g style="fill: #333333" transform="translate(167.718632 143.035639) scale(0.09 -0.09)">
      <defs>
       <path id="DejaVuSans-14" d="M 794 531 
L 1825 531 
L 1825 4091 
L 703 3866 
L 703 4441 
L 1819 4666 
L 2450 4666 
L 2450 531 
L 3481 531 
L 3481 0 
L 794 0 
L 794 531 
z
" transform="scale(0.015625)"/>
      </defs>
      <use xlink:href="#DejaVuSans-14"/>
     </g>
    </g>
   </g>
   <g id="text_3">
    <g clip-path="url(#p849a00ec94)">
     <!-- 2 -->
     <g style="fill: #333333" transform="translate(182.235312 87.823472) scale(0.09 -0.09)">
      <defs>
       <path id="DejaVuSans-15" d="M 1228 531 
L 3431 531 
L 3431 0 
L 469 0 
L 469 531 
Q 828 903 1448 1529 
Q 2069 2156 2228 2338 
Q 2531 2678 2651 2914 
Q 2772 3150 2772 3378 
Q 2772 3750 2511 3984 
Q 2250 4219 1831 4219 
Q 1534 4219 1204 4116 
Q 875 4013 500 3803 
L 500 4441 
Q 881 4594 1212 4672 
Q 1544 4750 1819 4750 
Q 2544 4750 2975 4387 
Q 3406 4025 3406 3419 
Q 3406 3131 3298 2873 
Q 3191 2616 2906 2266 
Q 2828 2175 2409 1742 
Q 1991 1309 1228 531 
z
" transform="scale(0.015625)"/>
      </defs>
      <use xlink:href="#DejaVuSans-15"/>
     </g>
    </g>
   </g>
   <g id="text_4">
    <g clip-path="url(#p849a00ec94)">
     <!-- 3 -->
     <g style="fill: #333333" transform="translate(144.778257 153.595814) scale(0.09 -0.09)">
      <defs>
       <path id="DejaVuSans-16" d="M 2597 2516 
Q 3050 2419 3304 2112 
Q 3559 1806 3559 1356 
Q 3559 666 3084 287 
Q 2609 -91 1734 -91 
Q 1441 -91 1130 -33 
Q 819 25 488 141 
L 488 750 
Q 750 597 1062 519 
Q 1375 441 1716 441 
Q 2309 441 2620 675 
Q 2931 909 2931 1356 
Q 2931 1769 2642 2001 
Q 2353 2234 1838 2234 
L 1294 2234 
L 1294 2753 
L 1863 2753 
Q 2328 2753 2575 2939 
Q 2822 3125 2822 3475 
Q 2822 3834 2567 4026 
Q 2313 4219 1838 4219 
Q 1578 4219 1281 4162 
Q 984 4106 628 3988 
L 628 4550 
Q 988 4650 1302 4700 
Q 1616 4750 1894 4750 
Q 2613 4750 3031 4423 
Q 3450 4097 3450 3541 
Q 3450 3153 3228 2886 
Q 3006 2619 2597 2516 
z
" transform="scale(0.015625)"/>
      </defs>
      <use xlink:href="#DejaVuSans-16"/>
     </g>
    </g>
   </g>
   <g id="text_5">
    <g clip-path="url(#p849a00ec94)">
     <!-- 4 -->
     <g style="fill: #333333" transform="translate(151.94945 108.627537) scale(0.09 -0.09)">
      <defs>
       <path id="DejaVuSans-17" d="M 2419 4116 
L 825 1625 
L 2419 1625 
L 2419 4116 
z
M 2253 4666 
L 3047 4666 
L 3047 1625 
L 3713 1625 
L 3713 1100 
L 3047 1100 
L 3047 0 
L 2419 0 
L 2419 1100 
L 313 1100 
L 313 1709 
L 2253 4666 
z
" transform="scale(0.015625)"/>
      </defs>
      <use xlink:href="#DejaVuSans-17"/>
     </g>
    </g>
   </g>
   <g id="text_6">
    <g clip-path="url(#p849a00ec94)">
     <!-- 5 -->
     <g style="fill: #333333" transform="translate(119.352362 113.621438) scale(0.09 -0.09)">
      <defs>
       <path id="DejaVuSans-18" d="M 691 4666 
L 3169 4666 
L 3169 4134 
L 1269 4134 
L 1269 2991 
Q 1406 3038 1543 3061 
Q 1681 3084 1819 3084 
Q 2600 3084 3056 2656 
Q 3513 2228 3513 1497 
Q 3513 744 3044 326 
Q 2575 -91 1722 -91 
Q 1428 -91 1123 -41 
Q 819 9 494 109 
L 494 744 
Q 775 591 1075 516 
Q 1375 441 1709 441 
Q 2250 441 2565 725 
Q 2881 1009 2881 1497 
Q 2881 1984 2565 2268 
Q 2250 2553 1709 2553 
Q 1456 2553 1204 2497 
Q 953 2441 691 2322 
L 691 4666 
z
" transform="scale(0.015625)"/>
      </defs>
      <use xlink:href="#DejaVuSans-18"/>
     </g>
    </g>
   </g>
   <g id="text_7">
    <g clip-path="url(#p849a00ec94)">
     <!-- 6 -->
     <g style="fill: #333333" transform="translate(82.543096 97.292338) scale(0.09 -0.09)">
      <defs>
       <path id="DejaVuSans-19" d="M 2113 2584 
Q 1688 2584 1439 2293 
Q 1191 2003 1191 1497 
Q 1191 994 1439 701 
Q 1688 409 2113 409 
Q 2538 409 2786 701 
Q 3034 994 3034 1497 
Q 3034 2003 2786 2293 
Q 2538 2584 2113 2584 
z
M 3366 4563 
L 3366 3988 
Q 3128 4100 2886 4159 
Q 2644 4219 2406 4219 
Q 1781 4219 1451 3797 
Q 1122 3375 1075 2522 
Q 1259 2794 1537 2939 
Q 1816 3084 2150 3084 
Q 2853 3084 3261 2657 
Q 3669 2231 3669 1497 
Q 3669 778 3244 343 
Q 2819 -91 2113 -91 
Q 1303 -91 875 529 
Q 447 1150 447 2328 
Q 447 3434 972 4092 
Q 1497 4750 2381 4750 
Q 2619 4750 2861 4703 
Q 3103 4656 3366 4563 
z
" transform="scale(0.015625)"/>
      </defs>
      <use xlink:href="#DejaVuSans-19"/>
     </g>
    </g>
   </g>
   <g id="text_8">
    <g clip-path="url(#p849a00ec94)">
     <!-- 7 -->
     <g style="fill: #333333" transform="translate(207.806395 49.091975) scale(0.09 -0.09)">
      <defs>
       <path id="DejaVuSans-1a" d="M 525 4666 
L 3525 4666 
L 3525 4397 
L 1831 0 
L 1172 0 
L 2766 4134 
L 525 4134 
L 525 4666 
z
" transform="scale(0.015625)"/>
      </defs>
      <use xlink:href="#DejaVuSans-1a"/>
     </g>
    </g>
   </g>
   <g id="text_9">
    <g clip-path="url(#p849a00ec94)">
     <!-- 8 -->
     <g style="fill: #333333" transform="translate(50.188137 86.852299) scale(0.09 -0.09)">
      <defs>
       <path id="DejaVuSans-1b" d="M 2034 2216 
Q 1584 2216 1326 1975 
Q 1069 1734 1069 1313 
Q 1069 891 1326 650 
Q 1584 409 2034 409 
Q 2484 409 2743 651 
Q 3003 894 3003 1313 
Q 3003 1734 2745 1975 
Q 2488 2216 2034 2216 
z
M 1403 2484 
Q 997 2584 770 2862 
Q 544 3141 544 3541 
Q 544 4100 942 4425 
Q 1341 4750 2034 4750 
Q 2731 4750 3128 4425 
Q 3525 4100 3525 3541 
Q 3525 3141 3298 2862 
Q 3072 2584 2669 2484 
Q 3125 2378 3379 2068 
Q 3634 1759 3634 1313 
Q 3634 634 3220 271 
Q 2806 -91 2034 -91 
Q 1263 -91 848 271 
Q 434 634 434 1313 
Q 434 1759 690 2068 
Q 947 2378 1403 2484 
z
M 1172 3481 
Q 1172 3119 1398 2916 
Q 1625 2713 2034 2713 
Q 2441 2713 2670 2916 
Q 2900 3119 2900 3481 
Q 2900 3844 2670 4047 
Q 2441 4250 2034 4250 
Q 1625 4250 1398 4047 
Q 1172 3844 1172 3481 
z
" transform="scale(0.015625)"/>
      </defs>
      <use xlink:href="#DejaVuSans-1b"/>
     </g>
    </g>
   </g>
   <g id="text_10">
    <g clip-path="url(#p849a00ec94)">
     <!-- 9 -->
     <g style="fill: #333333" transform="translate(24.067355 74.535894) scale(0.09 -0.09)">
      <defs>
       <path id="DejaVuSans-1c" d="M 703 97 
L 703 672 
Q 941 559 1184 500 
Q 1428 441 1663 441 
Q 2288 441 2617 861 
Q 2947 1281 2994 2138 
Q 2813 1869 2534 1725 
Q 2256 1581 1919 1581 
Q 1219 1581 811 2004 
Q 403 2428 403 3163 
Q 403 3881 828 4315 
Q 1253 4750 1959 4750 
Q 2769 4750 3195 4129 
Q 3622 3509 3622 2328 
Q 3622 1225 3098 567 
Q 2575 -91 1691 -91 
Q 1453 -91 1209 -44 
Q 966 3 703 97 
z
M 1959 2075 
Q 2384 2075 2632 2365 
Q 2881 2656 2881 3163 
Q 2881 3666 2632 3958 
Q 2384 4250 1959 4250 
Q 1534 4250 1286 3958 
Q 1038 3666 1038 3163 
Q 1038 2656 1286 2365 
Q 1534 2075 1959 2075 
z
" transform="scale(0.015625)"/>
      </defs>
      <use xlink:href="#DejaVuSans-1c"/>
     </g>
    </g>
   </g>
   <g id="matplotlib.axis_1"/>
   <g id="matplotlib.axis_2"/>
   <g id="text_11">
    <!-- Degree Centrality -->
    <g style="fill: #333333" transform="translate(70.067422 15.558281) scale(0.11 -0.11)">
     <defs>
      <path id="DejaVuSans-27" d="M 1259 4147 
L 1259 519 
L 2022 519 
Q 2988 519 3436 956 
Q 3884 1394 3884 2338 
Q 3884 3275 3436 3711 
Q 2988 4147 2022 4147 
L 1259 4147 
z
M 628 4666 
L 1925 4666 
Q 3281 4666 3915 4102 
Q 4550 3538 4550 2338 
Q 4550 1131 3912 565 
Q 3275 0 1925 0 
L 628 0 
L 628 4666 
z
" transform="scale(0.015625)"/>
      <path id="DejaVuSans-48" d="M 3597 1894 
L 3597 1613 
L 953 1613 
Q 991 1019 1311 708 
Q 1631 397 2203 397 
Q 2534 397 2845 478 
Q 3156 559 3463 722 
L 3463 178 
Q 3153 47 2828 -22 
Q 2503 -91 2169 -91 
Q 1331 -91 842 396 
Q 353 884 353 1716 
Q 353 2575 817 3079 
Q 1281 3584 2069 3584 
Q 2775 3584 3186 3129 
Q 3597 2675 3597 1894 
z
M 3022 2063 
Q 3016 2534 2758 2815 
Q 2500 3097 2075 3097 
Q 1594 3097 1305 2825 
Q 1016 2553 972 2059 
L 3022 2063 
z
" transform="scale(0.015625)"/>
      <path id="DejaVuSans-4a" d="M 2906 1791 
Q 2906 2416 2648 2759 
Q 2391 3103 1925 3103 
Q 1463 3103 1205 2759 
Q 947 2416 947 1791 
Q 947 1169 1205 825 
Q 1463 481 1925 481 
Q 2391 481 2648 825 
Q 2906 1169 2906 1791 
z
M 3481 434 
Q 3481 -459 3084 -895 
Q 2688 -1331 1869 -1331 
Q 1566 -1331 1297 -1286 
Q 1028 -1241 775 -1147 
L 775 -588 
Q 1028 -725 1275 -790 
Q 1522 -856 1778 -856 
Q 2344 -856 2625 -561 
Q 2906 -266 2906 331 
L 2906 616 
Q 2728 306 2450 153 
Q 2172 0 1784 0 
Q 1141 0 747 490 
Q 353 981 353 1791 
Q 353 2603 747 3093 
Q 1141 3584 1784 3584 
Q 2172 3584 2450 3431 
Q 2728 3278 2906 2969 
L 2906 3500 
L 3481 3500 
L 3481 434 
z
" transform="scale(0.015625)"/>
      <path id="DejaVuSans-55" d="M 2631 2963 
Q 2534 3019 2420 3045 
Q 2306 3072 2169 3072 
Q 1681 3072 1420 2755 
Q 1159 2438 1159 1844 
L 1159 0 
L 581 0 
L 581 3500 
L 1159 3500 
L 1159 2956 
Q 1341 3275 1631 3429 
Q 1922 3584 2338 3584 
Q 2397 3584 2469 3576 
Q 2541 3569 2628 3553 
L 2631 2963 
z
" transform="scale(0.015625)"/>
      <path id="DejaVuSans-3" transform="scale(0.015625)"/>
      <path id="DejaVuSans-26" d="M 4122 4306 
L 4122 3641 
Q 3803 3938 3442 4084 
Q 3081 4231 2675 4231 
Q 1875 4231 1450 3742 
Q 1025 3253 1025 2328 
Q 1025 1406 1450 917 
Q 1875 428 2675 428 
Q 3081 428 3442 575 
Q 3803 722 4122 1019 
L 4122 359 
Q 3791 134 3420 21 
Q 3050 -91 2638 -91 
Q 1578 -91 968 557 
Q 359 1206 359 2328 
Q 359 3453 968 4101 
Q 1578 4750 2638 4750 
Q 3056 4750 3426 4639 
Q 3797 4528 4122 4306 
z
" transform="scale(0.015625)"/>
      <path id="DejaVuSans-51" d="M 3513 2113 
L 3513 0 
L 2938 0 
L 2938 2094 
Q 2938 2591 2744 2837 
Q 2550 3084 2163 3084 
Q 1697 3084 1428 2787 
Q 1159 2491 1159 1978 
L 1159 0 
L 581 0 
L 581 3500 
L 1159 3500 
L 1159 2956 
Q 1366 3272 1645 3428 
Q 1925 3584 2291 3584 
Q 2894 3584 3203 3211 
Q 3513 2838 3513 2113 
z
" transform="scale(0.015625)"/>
      <path id="DejaVuSans-57" d="M 1172 4494 
L 1172 3500 
L 2356 3500 
L 2356 3053 
L 1172 3053 
L 1172 1153 
Q 1172 725 1289 603 
Q 1406 481 1766 481 
L 2356 481 
L 2356 0 
L 1766 0 
Q 1100 0 847 248 
Q 594 497 594 1153 
L 594 3053 
L 172 3053 
L 172 3500 
L 594 3500 
L 594 4494 
L 1172 4494 
z
" transform="scale(0.015625)"/>
      <path id="DejaVuSans-44" d="M 2194 1759 
Q 1497 1759 1228 1600 
Q 959 1441 959 1056 
Q 959 750 1161 570 
Q 1363 391 1709 391 
Q 2188 391 2477 730 
Q 2766 1069 2766 1631 
L 2766 1759 
L 2194 1759 
z
M 3341 1997 
L 3341 0 
L 2766 0 
L 2766 531 
Q 2569 213 2275 61 
Q 1981 -91 1556 -91 
Q 1019 -91 701 211 
Q 384 513 384 1019 
Q 384 1609 779 1909 
Q 1175 2209 1959 2209 
L 2766 2209 
L 2766 2266 
Q 2766 2663 2505 2880 
Q 2244 3097 1772 3097 
Q 1472 3097 1187 3025 
Q 903 2953 641 2809 
L 641 3341 
Q 956 3463 1253 3523 
Q 1550 3584 1831 3584 
Q 2591 3584 2966 3190 
Q 3341 2797 3341 1997 
z
" transform="scale(0.015625)"/>
      <path id="DejaVuSans-4f" d="M 603 4863 
L 1178 4863 
L 1178 0 
L 603 0 
L 603 4863 
z
" transform="scale(0.015625)"/>
      <path id="DejaVuSans-4c" d="M 603 3500 
L 1178 3500 
L 1178 0 
L 603 0 
L 603 3500 
z
M 603 4863 
L 1178 4863 
L 1178 4134 
L 603 4134 
L 603 4863 
z
" transform="scale(0.015625)"/>
      <path id="DejaVuSans-5c" d="M 2059 -325 
Q 1816 -950 1584 -1140 
Q 1353 -1331 966 -1331 
L 506 -1331 
L 506 -850 
L 844 -850 
Q 1081 -850 1212 -737 
Q 1344 -625 1503 -206 
L 1606 56 
L 191 3500 
L 800 3500 
L 1894 763 
L 2988 3500 
L 3597 3500 
L 2059 -325 
z
" transform="scale(0.015625)"/>
     </defs>
     <use xlink:href="#DejaVuSans-27"/>
     <use xlink:href="#DejaVuSans-48" transform="translate(77 0)"/>
     <use xlink:href="#DejaVuSans-4a" transform="translate(138.53125 0)"/>
     <use xlink:href="#DejaVuSans-55" transform="translate(202.015625 0)"/>
     <use xlink:href="#DejaVuSans-48" transform="translate(240.921875 0)"/>
     <use xlink:href="#DejaVuSans-48" transform="translate(302.453125 0)"/>
     <use xlink:href="#DejaVuSans-3" transform="translate(363.984375 0)"/>
     <use xlink:href="#DejaVuSans-26" transform="translate(395.765625 0)"/>
     <use xlink:href="#DejaVuSans-48" transform="translate(465.59375 0)"/>
     <use xlink:href="#DejaVuSans-51" transform="translate(527.125 0)"/>
     <use xlink:href="#DejaVuSans-57" transform="translate(590.5 0)"/>
     <use xlink:href="#DejaVuSans-55" transform="translate(629.703125 0)"/>
     <use xlink:href="#DejaVuSans-44" transform="translate(670.8125 0)"/>
     <use xlink:href="#DejaVuSans-4f" transform="translate(732.09375 0)"/>
     <use xlink:href="#DejaVuSans-4c" transform="translate(759.875 0)"/>
     <use xlink:href="#DejaVuSans-57" transform="translate(787.65625 0)"/>
     <use xlink:href="#DejaVuSans-5c" transform="translate(826.859375 0)"/>
    </g>
   </g>
  </g>
 </g>
 <defs>
  <clipPath id="p849a00ec94">
   <rect x="7.2" y="21.558281" width="223.2" height="166.32"/>
  </clipPath>
 </defs>
</svg>
