<?xml version="1.0" encoding="utf-8" standalone="no"?>
<!DOCTYPE svg PUBLIC "-//W3C//DTD SVG 1.1//EN"
  "http://www.w3.org/Graphics/SVG/1.1/DTD/svg11.dtd">
<svg xmlns:xlink="http://www.w3.org/1999/xlink" width="237.6pt" height="195.078281pt" viewBox="0 0 237.6 195.078281" xmlns="http://www.w3.org/2000/svg" version="1.1">
 <metadata>
  <rdf:RDF xmlns:dc="http://purl.org/dc/elements/1.1/" xmlns:cc="http://creativecommons.org/ns#" xmlns:rdf="http://www.w3.org/1999/02/22-rdf-syntax-ns#">
   <cc:Work>
    <dc:type rdf:resource="http://purl.org/dc/dcmitype/StillImage"/>
    <dc:date>2026-08-22T11:12:20.272052</dc:date>
    <dc:format>image/svg+xml</dc:format>
    <dc:creator>
     <cc:Agent>
      <dc:title>Matplotlib v3.11.1, https://matplotlib.org/</dc:title>
     </cc:Agent>
    </dc:creator>
   </cc:Work>
  </rdf:RDF>
 </metadata>
 <defs>
  <style type="text/css">*{stroke-linejoin: round; stroke-linecap: butt}</style>
 </defs>
 <g id="figure_1">
  <g id="patch_1">
   <path d="M 0 195.078281 
L 237.6 195.078281 
L 237.6 0 
L 0 0 
L 0 195.078281 
z
" style="fill: none"/>
  </g>
  <g id="axes_1">
   <g id="patch_2">
    <path d="M 7.2 187.878281 
L 230.4 187.878281 
L 230.4 21.558281 
L 7.2 21.558281 
L 7.2 187.878281 
z
" style="fill: none"/>
   </g>
   <g id="EdgeCollection_1">
    <path d="M 165.540114 164.527802 
L 169.674295 125.737388 
" clip-path="url(#pbd8e3e537a)" style="fill: #b8b8b8; stroke: #b8b8b8; stroke-width: 0.8"/>
    <path d="M 161.969335 165.018206 
L 151.214186 138.023849 
" clip-path="url(#pbd8e3e537a)" style="fill: #b8b8b8; stroke: #b8b8b8; stroke-width: 0.8"/>
    <path d="M 172.550842 111.074317 
L 182.982185 74.969021 
" clip-path="url(#pbd8e3e537a)" style="fill: #b8b8b8; stroke: #b8b8b8; stroke-width: 0.8"/>
    <path d="M 163.643592 121.388018 
L 156.613628 124.589511 
" clip-path="url(#pbd8e3e537a)" style="fill: #b8b8b8; stroke: #b8b8b8; stroke-width: 0.8"/>
    <path d="M 167.36831 111.450645 
L 158.870381 92.735501 
" clip-path="url(#pbd8e3e537a)" style="fill: #b8b8b8; stroke: #b8b8b8; stroke-width: 0.8"/>
    <path d="M 178.418403 71.240399 
L 163.596628 78.994616 
" clip-path="url(#pbd8e3e537a)" style="fill: #b8b8b8; stroke: #b8b8b8; stroke-width: 0.8"/>
    <path d="M 189.876542 62.011452 
L 206.819279 41.760808 
" clip-path="url(#pbd8e3e537a)" style="fill: #b8b8b8; stroke: #b8b8b8; stroke-width: 0.8"/>
    <path d="M 149.094196 118.85985 
L 153.154685 93.504383 
" clip-path="url(#pbd8e3e537a)" style="fill: #b8b8b8; stroke: #b8b8b8; stroke-width: 0.8"/>
    <path d="M 141.68409 120.608474 
L 130.28069 104.711791 
" clip-path="url(#pbd8e3e537a)" style="fill: #b8b8b8; stroke: #b8b8b8; stroke-width: 0.8"/>
    <path d="M 145.151344 86.482401 
L 135.538798 89.342917 
" clip-path="url(#pbd8e3e537a)" style="fill: #b8b8b8; stroke: #b8b8b8; stroke-width: 0.8"/>
    <path d="M 108.844653 88.891188 
L 94.817687 84.194835 
" clip-path="url(#pbd8e3e537a)" style="fill: #b8b8b8; stroke: #b8b8b8; stroke-width: 0.8"/>
    <path d="M 75.813296 77.964476 
L 60.148567 72.937735 
" clip-path="url(#pbd8e3e537a)" style="fill: #b8b8b8; stroke: #b8b8b8; stroke-width: 0.8"/>
    <path d="M 45.85355 68.393418 
L 32.653566 64.236741 
" clip-path="url(#pbd8e3e537a)" style="fill: #b8b8b8; stroke: #b8b8b8; stroke-width: 0.8"/>
   </g>
   <g id="VertexCollection_1">
    <path d="M 164.745285 179.485566 
C 166.734308 179.485566 168.642134 178.695319 170.048586 177.288867 
C 171.455038 175.882415 172.245285 173.974589 172.245285 171.985566 
C 172.245285 169.996543 171.455038 168.088717 170.048586 166.682265 
C 168.642134 165.275813 166.734308 164.485566 164.745285 164.485566 
C 162.756262 164.485566 160.848436 165.275813 159.441984 166.682265 
C 158.035532 168.088717 157.245285 169.996543 157.245285 171.985566 
C 157.245285 173.974589 158.035532 175.882415 159.441984 177.288867 
C 160.848436 178.695319 162.756262 179.485566 164.745285 179.485566 
z
" clip-path="url(#pbd8e3e537a)" style="fill: #cfc3e0; stroke: #593196; stroke-width: 0.6"/>
    <path d="M 170.469124 125.779624 
C 172.458148 125.779624 174.365973 124.989377 175.772425 123.582925 
C 177.178877 122.176473 177.969124 120.268648 177.969124 118.279624 
C 177.969124 116.290601 177.178877 114.382775 175.772425 112.976323 
C 174.365973 111.569872 172.458148 110.779624 170.469124 110.779624 
C 168.480101 110.779624 166.572275 111.569872 165.165823 112.976323 
C 163.759372 114.382775 162.969124 116.290601 162.969124 118.279624 
C 162.969124 120.268648 163.759372 122.176473 165.165823 123.582925 
C 166.572275 124.989377 168.480101 125.779624 170.469124 125.779624 
z
" clip-path="url(#pbd8e3e537a)" style="fill: #cfc3e0; stroke: #593196; stroke-width: 0.6"/>
    <path d="M 185.063903 75.263713 
C 187.052926 75.263713 188.960752 74.473466 190.367203 73.067014 
C 191.773655 71.660562 192.563903 69.752737 192.563903 67.763713 
C 192.563903 65.77469 191.773655 63.866864 190.367203 62.460412 
C 188.960752 61.053961 187.052926 60.263713 185.063903 60.263713 
C 183.074879 60.263713 181.167054 61.053961 179.760602 62.460412 
C 178.35415 63.866864 177.563903 65.77469 177.563903 67.763713 
C 177.563903 69.752737 178.35415 71.660562 179.760602 73.067014 
C 181.167054 74.473466 183.074879 75.263713 185.063903 75.263713 
z
" clip-path="url(#pbd8e3e537a)" style="fill: #cfc3e0; stroke: #593196; stroke-width: 0.6"/>
    <path d="M 147.512919 138.734036 
C 150.16495 138.734036 152.708717 137.680373 154.583986 135.805104 
C 156.459256 133.929835 157.512919 131.386067 157.512919 128.734036 
C 157.512919 126.082005 156.459256 123.538238 154.583986 121.662968 
C 152.708717 119.787699 150.16495 118.734036 147.512919 118.734036 
C 144.860888 118.734036 142.31712 119.787699 140.441851 121.662968 
C 138.566582 123.538238 137.512919 126.082005 137.512919 128.734036 
C 137.512919 131.386067 138.566582 133.929835 140.441851 135.805104 
C 142.31712 137.680373 144.860888 138.734036 147.512919 138.734036 
z
" clip-path="url(#pbd8e3e537a)" style="fill: #a28cc4; stroke: #593196; stroke-width: 0.6"/>
    <path d="M 154.735963 93.630196 
C 157.387994 93.630196 159.931762 92.576533 161.807031 90.701264 
C 163.6823 88.825995 164.735963 86.282227 164.735963 83.630196 
C 164.735963 80.978165 163.6823 78.434398 161.807031 76.559128 
C 159.931762 74.683859 157.387994 73.630196 154.735963 73.630196 
C 152.083932 73.630196 149.540164 74.683859 147.664895 76.559128 
C 145.789626 78.434398 144.735963 80.978165 144.735963 83.630196 
C 144.735963 86.282227 145.789626 88.825995 147.664895 90.701264 
C 149.540164 92.576533 152.083932 93.630196 154.735963 93.630196 
z
" clip-path="url(#pbd8e3e537a)" style="fill: #a28cc4; stroke: #593196; stroke-width: 0.6"/>
    <path d="M 122.120331 107.336004 
C 125.833174 107.336004 129.394449 105.860875 132.019826 103.235499 
C 134.645203 100.610122 136.120331 97.048847 136.120331 93.336004 
C 136.120331 89.62316 134.645203 86.061885 132.019826 83.436509 
C 129.394449 80.811132 125.833174 79.336004 122.120331 79.336004 
C 118.407487 79.336004 114.846213 80.811132 112.220836 83.436509 
C 109.595459 86.061885 108.120331 89.62316 108.120331 93.336004 
C 108.120331 97.048847 109.595459 100.610122 112.220836 103.235499 
C 114.846213 105.860875 118.407487 107.336004 122.120331 107.336004 
z
" clip-path="url(#pbd8e3e537a)" style="fill: #593196; stroke: #593196; stroke-width: 0.6"/>
    <path d="M 85.33506 91.019967 
C 87.987091 91.019967 90.530858 89.966304 92.406127 88.091035 
C 94.281397 86.215766 95.33506 83.671998 95.33506 81.019967 
C 95.33506 78.367936 94.281397 75.824168 92.406127 73.948899 
C 90.530858 72.07363 87.987091 71.019967 85.33506 71.019967 
C 82.683029 71.019967 80.139261 72.07363 78.263992 73.948899 
C 76.388723 75.824168 75.33506 78.367936 75.33506 81.019967 
C 75.33506 83.671998 76.388723 86.215766 78.263992 88.091035 
C 80.139261 89.966304 82.683029 91.019967 85.33506 91.019967 
z
" clip-path="url(#pbd8e3e537a)" style="fill: #a28cc4; stroke: #593196; stroke-width: 0.6"/>
    <path d="M 210.66939 43.158999 
C 212.260609 43.158999 213.786869 42.526801 214.912031 41.40164 
C 216.037192 40.276478 216.66939 38.750217 216.66939 37.158999 
C 216.66939 35.56778 216.037192 34.04152 214.912031 32.916358 
C 213.786869 31.791197 212.260609 31.158999 210.66939 31.158999 
C 209.078171 31.158999 207.551911 31.791197 206.426749 32.916358 
C 205.301588 34.04152 204.66939 35.56778 204.66939 37.158999 
C 204.66939 38.750217 205.301588 40.276478 206.426749 41.40164 
C 207.551911 42.526801 209.078171 43.158999 210.66939 43.158999 
z
" clip-path="url(#pbd8e3e537a)" style="fill: #ece7f3; stroke: #593196; stroke-width: 0.6"/>
    <path d="M 53.007244 78.146117 
C 54.996268 78.146117 56.904093 77.35587 58.310545 75.949418 
C 59.716997 74.542966 60.507244 72.63514 60.507244 70.646117 
C 60.507244 68.657094 59.716997 66.749268 58.310545 65.342816 
C 56.904093 63.936364 54.996268 63.146117 53.007244 63.146117 
C 51.018221 63.146117 49.110395 63.936364 47.703944 65.342816 
C 46.297492 66.749268 45.507244 68.657094 45.507244 70.646117 
C 45.507244 72.63514 46.297492 74.542966 47.703944 75.949418 
C 49.110395 77.35587 51.018221 78.146117 53.007244 78.146117 
z
" clip-path="url(#pbd8e3e537a)" style="fill: #cfc3e0; stroke: #593196; stroke-width: 0.6"/>
    <path d="M 26.93061 68.434582 
C 28.521829 68.434582 30.048089 67.802384 31.173251 66.677223 
C 32.298412 65.552061 32.93061 64.025801 32.93061 62.434582 
C 32.93061 60.843363 32.298412 59.317103 31.173251 58.191941 
C 30.048089 57.06678 28.521829 56.434582 26.93061 56.434582 
C 25.339391 56.434582 23.813131 57.06678 22.687969 58.191941 
C 21.562808 59.317103 20.93061 60.843363 20.93061 62.434582 
C 20.93061 64.025801 21.562808 65.552061 22.687969 66.677223 
C 23.813131 67.802384 25.339391 68.434582 26.93061 68.434582 
z
" clip-path="url(#pbd8e3e537a)" style="fill: #ece7f3; stroke: #593196; stroke-width: 0.6"/>
   </g>
   <g id="text_1">
    <g clip-path="url(#pbd8e3e537a)">
     <!-- 0 -->
     <g style="fill: #333333" transform="translate(161.88216 186.323457) scale(0.09 -0.09)">
      <defs>
       <path id="DejaVuSans-13" d="M 2034 4250 
Q 1547 4250 1301 3770 
Q 1056 3291 1056 2328 
Q 1056 1369 1301 889 
Q 1547 409 2034 409 
Q 2525 409 2770 889 
Q 3016 1369 3016 2328 
Q 3016 3291 2770 3770 
Q 2525 4250 2034 4250 
z
M 2034 4750 
Q 2819 4750 3233 4129 
Q 3647 3509 3647 2328 
Q 3647 1150 3233 529 
Q 2819 -91 2034 -91 
Q 1250 -91 836 529 
Q 422 1150 422 2328 
Q 422 3509 836 4129 
Q 1250 4750 2034 4750 
z
" transform="scale(0.015625)"/>
      </defs>
      <use xlink:href="#DejaVuSans-13"/>
     </g>
    </g>
   </g>
   <g id="text_2">
    <g clip-path="url(#pbd8e3e537a)">
     <!-- 1 -->
     <g style="fill: #333333" transform="translate(167.605999 132.617515) scale(0.09 -0.09)">
      <defs>
       <path id="DejaVuSans-14" d="M 794 531 
L 1825 531 
L 1825 4091 
L 703 3866 
L 703 4441 
L 1819 4666 
L 2450 4666 
L 2450 531 
L 3481 531 
L 3481 0 
L 794 0 
L 794 531 
z
" transform="scale(0.015625)"/>
      </defs>
      <use xlink:href="#DejaVuSans-14"/>
     </g>
    </g>
   </g>
   <g id="text_3">
    <g clip-path="url(#pbd8e3e537a)">
     <!-- 2 -->
     <g style="fill: #333333" transform="translate(182.200778 82.101604) scale(0.09 -0.09)">
      <defs>
       <path id="DejaVuSans-15" d="M 1228 531 
L 3431 531 
L 3431 0 
L 469 0 
L 469 531 
Q 828 903 1448 1529 
Q 2069 2156 2228 2338 
Q 2531 2678 2651 2914 
Q 2772 3150 2772 3378 
Q 2772 3750 2511 3984 
Q 2250 4219 1831 4219 
Q 1534 4219 1204 4116 
Q 875 4013 500 3803 
L 500 4441 
Q 881 4594 1212 4672 
Q 1544 4750 1819 4750 
Q 2544 4750 2975 4387 
Q 3406 4025 3406 3419 
Q 3406 3131 3298 2873 
Q 3191 2616 2906 2266 
Q 2828 2175 2409 1742 
Q 1991 1309 1228 531 
z
" transform="scale(0.015625)"/>
      </defs>
      <use xlink:href="#DejaVuSans-15"/>
     </g>
    </g>
   </g>
   <g id="text_4">
    <g clip-path="url(#pbd8e3e537a)">
     <!-- 3 -->
     <g style="fill: #333333" transform="translate(144.649794 147.071927) scale(0.09 -0.09)">
      <defs>
       <path id="DejaVuSans-16" d="M 2597 2516 
Q 3050 2419 3304 2112 
Q 3559 1806 3559 1356 
Q 3559 666 3084 287 
Q 2609 -91 1734 -91 
Q 1441 -91 1130 -33 
Q 819 25 488 141 
L 488 750 
Q 750 597 1062 519 
Q 1375 441 1716 441 
Q 2309 441 2620 675 
Q 2931 909 2931 1356 
Q 2931 1769 2642 2001 
Q 2353 2234 1838 2234 
L 1294 2234 
L 1294 2753 
L 1863 2753 
Q 2328 2753 2575 2939 
Q 2822 3125 2822 3475 
Q 2822 3834 2567 4026 
Q 2313 4219 1838 4219 
Q 1578 4219 1281 4162 
Q 984 4106 628 3988 
L 628 4550 
Q 988 4650 1302 4700 
Q 1616 4750 1894 4750 
Q 2613 4750 3031 4423 
Q 3450 4097 3450 3541 
Q 3450 3153 3228 2886 
Q 3006 2619 2597 2516 
z
" transform="scale(0.015625)"/>
      </defs>
      <use xlink:href="#DejaVuSans-16"/>
     </g>
    </g>
   </g>
   <g id="text_5">
    <g clip-path="url(#pbd8e3e537a)">
     <!-- 4 -->
     <g style="fill: #333333" transform="translate(151.872838 101.968087) scale(0.09 -0.09)">
      <defs>
       <path id="DejaVuSans-17" d="M 2419 4116 
L 825 1625 
L 2419 1625 
L 2419 4116 
z
M 2253 4666 
L 3047 4666 
L 3047 1625 
L 3713 1625 
L 3713 1100 
L 3047 1100 
L 3047 0 
L 2419 0 
L 2419 1100 
L 313 1100 
L 313 1709 
L 2253 4666 
z
" transform="scale(0.015625)"/>
      </defs>
      <use xlink:href="#DejaVuSans-17"/>
     </g>
    </g>
   </g>
   <g id="text_6">
    <g clip-path="url(#pbd8e3e537a)">
     <!-- 5 -->
     <g style="fill: #333333" transform="translate(119.257206 118.073894) scale(0.09 -0.09)">
      <defs>
       <path id="DejaVuSans-18" d="M 691 4666 
L 3169 4666 
L 3169 4134 
L 1269 4134 
L 1269 2991 
Q 1406 3038 1543 3061 
Q 1681 3084 1819 3084 
Q 2600 3084 3056 2656 
Q 3513 2228 3513 1497 
Q 3513 744 3044 326 
Q 2575 -91 1722 -91 
Q 1428 -91 1123 -41 
Q 819 9 494 109 
L 494 744 
Q 775 591 1075 516 
Q 1375 441 1709 441 
Q 2250 441 2565 725 
Q 2881 1009 2881 1497 
Q 2881 1984 2565 2268 
Q 2250 2553 1709 2553 
Q 1456 2553 1204 2497 
Q 953 2441 691 2322 
L 691 4666 
z
" transform="scale(0.015625)"/>
      </defs>
      <use xlink:href="#DejaVuSans-18"/>
     </g>
    </g>
   </g>
   <g id="text_7">
    <g clip-path="url(#pbd8e3e537a)">
     <!-- 6 -->
     <g style="fill: #333333" transform="translate(82.471935 99.357857) scale(0.09 -0.09)">
      <defs>
       <path id="DejaVuSans-19" d="M 2113 2584 
Q 1688 2584 1439 2293 
Q 1191 2003 1191 1497 
Q 1191 994 1439 701 
Q 1688 409 2113 409 
Q 2538 409 2786 701 
Q 3034 994 3034 1497 
Q 3034 2003 2786 2293 
Q 2538 2584 2113 2584 
z
M 3366 4563 
L 3366 3988 
Q 3128 4100 2886 4159 
Q 2644 4219 2406 4219 
Q 1781 4219 1451 3797 
Q 1122 3375 1075 2522 
Q 1259 2794 1537 2939 
Q 1816 3084 2150 3084 
Q 2853 3084 3261 2657 
Q 3669 2231 3669 1497 
Q 3669 778 3244 343 
Q 2819 -91 2113 -91 
Q 1303 -91 875 529 
Q 447 1150 447 2328 
Q 447 3434 972 4092 
Q 1497 4750 2381 4750 
Q 2619 4750 2861 4703 
Q 3103 4656 3366 4563 
z
" transform="scale(0.015625)"/>
      </defs>
      <use xlink:href="#DejaVuSans-19"/>
     </g>
    </g>
   </g>
   <g id="text_8">
    <g clip-path="url(#pbd8e3e537a)">
     <!-- 7 -->
     <g style="fill: #333333" transform="translate(207.806265 49.096889) scale(0.09 -0.09)">
      <defs>
       <path id="DejaVuSans-1a" d="M 525 4666 
L 3525 4666 
L 3525 4397 
L 1831 0 
L 1172 0 
L 2766 4134 
L 525 4134 
L 525 4666 
z
" transform="scale(0.015625)"/>
      </defs>
      <use xlink:href="#DejaVuSans-1a"/>
     </g>
    </g>
   </g>
   <g id="text_9">
    <g clip-path="url(#pbd8e3e537a)">
     <!-- 8 -->
     <g style="fill: #333333" transform="translate(50.144119 84.984008) scale(0.09 -0.09)">
      <defs>
       <path id="DejaVuSans-1b" d="M 2034 2216 
Q 1584 2216 1326 1975 
Q 1069 1734 1069 1313 
Q 1069 891 1326 650 
Q 1584 409 2034 409 
Q 2484 409 2743 651 
Q 3003 894 3003 1313 
Q 3003 1734 2745 1975 
Q 2488 2216 2034 2216 
z
M 1403 2484 
Q 997 2584 770 2862 
Q 544 3141 544 3541 
Q 544 4100 942 4425 
Q 1341 4750 2034 4750 
Q 2731 4750 3128 4425 
Q 3525 4100 3525 3541 
Q 3525 3141 3298 2862 
Q 3072 2584 2669 2484 
Q 3125 2378 3379 2068 
Q 3634 1759 3634 1313 
Q 3634 634 3220 271 
Q 2806 -91 2034 -91 
Q 1263 -91 848 271 
Q 434 634 434 1313 
Q 434 1759 690 2068 
Q 947 2378 1403 2484 
z
M 1172 3481 
Q 1172 3119 1398 2916 
Q 1625 2713 2034 2713 
Q 2441 2713 2670 2916 
Q 2900 3119 2900 3481 
Q 2900 3844 2670 4047 
Q 2441 4250 2034 4250 
Q 1625 4250 1398 4047 
Q 1172 3844 1172 3481 
z
" transform="scale(0.015625)"/>
      </defs>
      <use xlink:href="#DejaVuSans-1b"/>
     </g>
    </g>
   </g>
   <g id="text_10">
    <g clip-path="url(#pbd8e3e537a)">
     <!-- 9 -->
     <g style="fill: #333333" transform="translate(24.067485 74.372473) scale(0.09 -0.09)">
      <defs>
       <path id="DejaVuSans-1c" d="M 703 97 
L 703 672 
Q 941 559 1184 500 
Q 1428 441 1663 441 
Q 2288 441 2617 861 
Q 2947 1281 2994 2138 
Q 2813 1869 2534 1725 
Q 2256 1581 1919 1581 
Q 1219 1581 811 2004 
Q 403 2428 403 3163 
Q 403 3881 828 4315 
Q 1253 4750 1959 4750 
Q 2769 4750 3195 4129 
Q 3622 3509 3622 2328 
Q 3622 1225 3098 567 
Q 2575 -91 1691 -91 
Q 1453 -91 1209 -44 
Q 966 3 703 97 
z
M 1959 2075 
Q 2384 2075 2632 2365 
Q 2881 2656 2881 3163 
Q 2881 3666 2632 3958 
Q 2384 4250 1959 4250 
Q 1534 4250 1286 3958 
Q 1038 3666 1038 3163 
Q 1038 2656 1286 2365 
Q 1534 2075 1959 2075 
z
" transform="scale(0.015625)"/>
      </defs>
      <use xlink:href="#DejaVuSans-1c"/>
     </g>
    </g>
   </g>
   <g id="matplotlib.axis_1"/>
   <g id="matplotlib.axis_2"/>
   <g id="text_11">
    <!-- Eccentricity Centrality (1/eccentricity) -->
    <g style="fill: #333333" transform="translate(14.181406 15.558281) scale(0.11 -0.11)">
     <defs>
      <path id="DejaVuSans-28" d="M 628 4666 
L 3578 4666 
L 3578 4134 
L 1259 4134 
L 1259 2753 
L 3481 2753 
L 3481 2222 
L 1259 2222 
L 1259 531 
L 3634 531 
L 3634 0 
L 628 0 
L 628 4666 
z
" transform="scale(0.015625)"/>
      <path id="DejaVuSans-46" d="M 3122 3366 
L 3122 2828 
Q 2878 2963 2633 3030 
Q 2388 3097 2138 3097 
Q 1578 3097 1268 2742 
Q 959 2388 959 1747 
Q 959 1106 1268 751 
Q 1578 397 2138 397 
Q 2388 397 2633 464 
Q 2878 531 3122 666 
L 3122 134 
Q 2881 22 2623 -34 
Q 2366 -91 2075 -91 
Q 1284 -91 818 406 
Q 353 903 353 1747 
Q 353 2603 823 3093 
Q 1294 3584 2113 3584 
Q 2378 3584 2631 3529 
Q 2884 3475 3122 3366 
z
" transform="scale(0.015625)"/>
      <path id="DejaVuSans-48" d="M 3597 1894 
L 3597 1613 
L 953 1613 
Q 991 1019 1311 708 
Q 1631 397 2203 397 
Q 2534 397 2845 478 
Q 3156 559 3463 722 
L 3463 178 
Q 3153 47 2828 -22 
Q 2503 -91 2169 -91 
Q 1331 -91 842 396 
Q 353 884 353 1716 
Q 353 2575 817 3079 
Q 1281 3584 2069 3584 
Q 2775 3584 3186 3129 
Q 3597 2675 3597 1894 
z
M 3022 2063 
Q 3016 2534 2758 2815 
Q 2500 3097 2075 3097 
Q 1594 3097 1305 2825 
Q 1016 2553 972 2059 
L 3022 2063 
z
" transform="scale(0.015625)"/>
      <path id="DejaVuSans-51" d="M 3513 2113 
L 3513 0 
L 2938 0 
L 2938 2094 
Q 2938 2591 2744 2837 
Q 2550 3084 2163 3084 
Q 1697 3084 1428 2787 
Q 1159 2491 1159 1978 
L 1159 0 
L 581 0 
L 581 3500 
L 1159 3500 
L 1159 2956 
Q 1366 3272 1645 3428 
Q 1925 3584 2291 3584 
Q 2894 3584 3203 3211 
Q 3513 2838 3513 2113 
z
" transform="scale(0.015625)"/>
      <path id="DejaVuSans-57" d="M 1172 4494 
L 1172 3500 
L 2356 3500 
L 2356 3053 
L 1172 3053 
L 1172 1153 
Q 1172 725 1289 603 
Q 1406 481 1766 481 
L 2356 481 
L 2356 0 
L 1766 0 
Q 1100 0 847 248 
Q 594 497 594 1153 
L 594 3053 
L 172 3053 
L 172 3500 
L 594 3500 
L 594 4494 
L 1172 4494 
z
" transform="scale(0.015625)"/>
      <path id="DejaVuSans-55" d="M 2631 2963 
Q 2534 3019 2420 3045 
Q 2306 3072 2169 3072 
Q 1681 3072 1420 2755 
Q 1159 2438 1159 1844 
L 1159 0 
L 581 0 
L 581 3500 
L 1159 3500 
L 1159 2956 
Q 1341 3275 1631 3429 
Q 1922 3584 2338 3584 
Q 2397 3584 2469 3576 
Q 2541 3569 2628 3553 
L 2631 2963 
z
" transform="scale(0.015625)"/>
      <path id="DejaVuSans-4c" d="M 603 3500 
L 1178 3500 
L 1178 0 
L 603 0 
L 603 3500 
z
M 603 4863 
L 1178 4863 
L 1178 4134 
L 603 4134 
L 603 4863 
z
" transform="scale(0.015625)"/>
      <path id="DejaVuSans-5c" d="M 2059 -325 
Q 1816 -950 1584 -1140 
Q 1353 -1331 966 -1331 
L 506 -1331 
L 506 -850 
L 844 -850 
Q 1081 -850 1212 -737 
Q 1344 -625 1503 -206 
L 1606 56 
L 191 3500 
L 800 3500 
L 1894 763 
L 2988 3500 
L 3597 3500 
L 2059 -325 
z
" transform="scale(0.015625)"/>
      <path id="DejaVuSans-3" transform="scale(0.015625)"/>
      <path id="DejaVuSans-26" d="M 4122 4306 
L 4122 3641 
Q 3803 3938 3442 4084 
Q 3081 4231 2675 4231 
Q 1875 4231 1450 3742 
Q 1025 3253 1025 2328 
Q 1025 1406 1450 917 
Q 1875 428 2675 428 
Q 3081 428 3442 575 
Q 3803 722 4122 1019 
L 4122 359 
Q 3791 134 3420 21 
Q 3050 -91 2638 -91 
Q 1578 -91 968 557 
Q 359 1206 359 2328 
Q 359 3453 968 4101 
Q 1578 4750 2638 4750 
Q 3056 4750 3426 4639 
Q 3797 4528 4122 4306 
z
" transform="scale(0.015625)"/>
      <path id="DejaVuSans-44" d="M 2194 1759 
Q 1497 1759 1228 1600 
Q 959 1441 959 1056 
Q 959 750 1161 570 
Q 1363 391 1709 391 
Q 2188 391 2477 730 
Q 2766 1069 2766 1631 
L 2766 1759 
L 2194 1759 
z
M 3341 1997 
L 3341 0 
L 2766 0 
L 2766 531 
Q 2569 213 2275 61 
Q 1981 -91 1556 -91 
Q 1019 -91 701 211 
Q 384 513 384 1019 
Q 384 1609 779 1909 
Q 1175 2209 1959 2209 
L 2766 2209 
L 2766 2266 
Q 2766 2663 2505 2880 
Q 2244 3097 1772 3097 
Q 1472 3097 1187 3025 
Q 903 2953 641 2809 
L 641 3341 
Q 956 3463 1253 3523 
Q 1550 3584 1831 3584 
Q 2591 3584 2966 3190 
Q 3341 2797 3341 1997 
z
" transform="scale(0.015625)"/>
      <path id="DejaVuSans-4f" d="M 603 4863 
L 1178 4863 
L 1178 0 
L 603 0 
L 603 4863 
z
" transform="scale(0.015625)"/>
      <path id="DejaVuSans-b" d="M 1984 4856 
Q 1566 4138 1362 3434 
Q 1159 2731 1159 2009 
Q 1159 1288 1364 580 
Q 1569 -128 1984 -844 
L 1484 -844 
Q 1016 -109 783 600 
Q 550 1309 550 2009 
Q 550 2706 781 3412 
Q 1013 4119 1484 4856 
L 1984 4856 
z
" transform="scale(0.015625)"/>
      <path id="DejaVuSans-12" d="M 1625 4666 
L 2156 4666 
L 531 -594 
L 0 -594 
L 1625 4666 
z
" transform="scale(0.015625)"/>
      <path id="DejaVuSans-c" d="M 513 4856 
L 1013 4856 
Q 1481 4119 1714 3412 
Q 1947 2706 1947 2009 
Q 1947 1309 1714 600 
Q 1481 -109 1013 -844 
L 513 -844 
Q 928 -128 1133 580 
Q 1338 1288 1338 2009 
Q 1338 2731 1133 3434 
Q 928 4138 513 4856 
z
" transform="scale(0.015625)"/>
     </defs>
     <use xlink:href="#DejaVuSans-28"/>
     <use xlink:href="#DejaVuSans-46" transform="translate(63.1875 0)"/>
     <use xlink:href="#DejaVuSans-46" transform="translate(118.171875 0)"/>
     <use xlink:href="#DejaVuSans-48" transform="translate(173.15625 0)"/>
     <use xlink:href="#DejaVuSans-51" transform="translate(234.6875 0)"/>
     <use xlink:href="#DejaVuSans-57" transform="translate(298.0625 0)"/>
     <use xlink:href="#DejaVuSans-55" transform="translate(337.265625 0)"/>
     <use xlink:href="#DejaVuSans-4c" transform="translate(378.375 0)"/>
     <use xlink:href="#DejaVuSans-46" transform="translate(406.15625 0)"/>
     <use xlink:href="#DejaVuSans-4c" transform="translate(461.140625 0)"/>
     <use xlink:href="#DejaVuSans-57" transform="translate(488.921875 0)"/>
     <use xlink:href="#DejaVuSans-5c" transform="translate(528.125 0)"/>
     <use xlink:href="#DejaVuSans-3" transform="translate(587.3125 0)"/>
     <use xlink:href="#DejaVuSans-26" transform="translate(619.09375 0)"/>
     <use xlink:href="#DejaVuSans-48" transform="translate(688.921875 0)"/>
     <use xlink:href="#DejaVuSans-51" transform="translate(750.453125 0)"/>
     <use xlink:href="#DejaVuSans-57" transform="translate(813.828125 0)"/>
     <use xlink:href="#DejaVuSans-55" transform="translate(853.03125 0)"/>
     <use xlink:href="#DejaVuSans-44" transform="translate(894.140625 0)"/>
     <use xlink:href="#DejaVuSans-4f" transform="translate(955.421875 0)"/>
     <use xlink:href="#DejaVuSans-4c" transform="translate(983.203125 0)"/>
     <use xlink:href="#DejaVuSans-57" transform="translate(1010.984375 0)"/>
     <use xlink:href="#DejaVuSans-5c" transform="translate(1050.1875 0)"/>
     <use xlink:href="#DejaVuSans-3" transform="translate(1109.375 0)"/>
     <use xlink:href="#DejaVuSans-b" transform="translate(1141.15625 0)"/>
     <use xlink:href="#DejaVuSans-14" transform="translate(1180.171875 0)"/>
     <use xlink:href="#DejaVuSans-12" transform="translate(1243.796875 0)"/>
     <use xlink:href="#DejaVuSans-48" transform="translate(1277.484375 0)"/>
     <use xlink:href="#DejaVuSans-46" transform="translate(1339.015625 0)"/>
     <use xlink:href="#DejaVuSans-46" transform="translate(1394 0)"/>
     <use xlink:href="#DejaVuSans-48" transform="translate(1448.984375 0)"/>
     <use xlink:href="#DejaVuSans-51" transform="translate(1510.515625 0)"/>
     <use xlink:href="#DejaVuSans-57" transform="translate(1573.890625 0)"/>
     <use xlink:href="#DejaVuSans-55" transform="translate(1613.09375 0)"/>
     <use xlink:href="#DejaVuSans-4c" transform="translate(1654.203125 0)"/>
     <use xlink:href="#DejaVuSans-46" transform="translate(1681.984375 0)"/>
     <use xlink:href="#DejaVuSans-4c" transform="translate(1736.96875 0)"/>
     <use xlink:href="#DejaVuSans-57" transform="translate(1764.75 0)"/>
     <use xlink:href="#DejaVuSans-5c" transform="translate(1803.953125 0)"/>
     <use xlink:href="#DejaVuSans-c" transform="translate(1863.140625 0)"/>
    </g>
   </g>
  </g>
 </g>
 <defs>
  <clipPath id="pbd8e3e537a">
   <rect x="7.2" y="21.558281" width="223.2" height="166.32"/>
  </clipPath>
 </defs>
</svg>
