<?xml version="1.0" encoding="utf-8" standalone="no"?>
<!DOCTYPE svg PUBLIC "-//W3C//DTD SVG 1.1//EN"
  "http://www.w3.org/Graphics/SVG/1.1/DTD/svg11.dtd">
<svg xmlns:xlink="http://www.w3.org/1999/xlink" width="237.6pt" height="195.078281pt" viewBox="0 0 237.6 195.078281" xmlns="http://www.w3.org/2000/svg" version="1.1">
 <metadata>
  <rdf:RDF xmlns:dc="http://purl.org/dc/elements/1.1/" xmlns:cc="http://creativecommons.org/ns#" xmlns:rdf="http://www.w3.org/1999/02/22-rdf-syntax-ns#">
   <cc:Work>
    <dc:type rdf:resource="http://purl.org/dc/dcmitype/StillImage"/>
    <dc:date>2026-08-19T11:59:30.418766</dc:date>
    <dc:format>image/svg+xml</dc:format>
    <dc:creator>
     <cc:Agent>
      <dc:title>Matplotlib v3.11.1, https://matplotlib.org/</dc:title>
     </cc:Agent>
    </dc:creator>
   </cc:Work>
  </rdf:RDF>
 </metadata>
 <defs>
  <style type="text/css">*{stroke-linejoin: round; stroke-linecap: butt}</style>
 </defs>
 <g id="figure_1">
  <g id="patch_1">
   <path d="M 0 195.078281 
L 237.6 195.078281 
L 237.6 0 
L 0 0 
L 0 195.078281 
z
" style="fill: none"/>
  </g>
  <g id="axes_1">
   <g id="patch_2">
    <path d="M 7.2 187.878281 
L 230.4 187.878281 
L 230.4 21.558281 
L 7.2 21.558281 
L 7.2 187.878281 
z
" style="fill: none"/>
   </g>
   <g id="EdgeCollection_1">
    <path d="M 71.512379 47.862575 
L 68.380348 77.697107 
" clip-path="url(#pb2623e8b18)" style="fill: #b8b8b8; stroke: #b8b8b8; stroke-width: 0.8"/>
    <path d="M 76.331028 47.177493 
L 84.819726 68.002981 
" clip-path="url(#pb2623e8b18)" style="fill: #b8b8b8; stroke: #b8b8b8; stroke-width: 0.8"/>
    <path d="M 63.236424 104.096528 
L 55.556549 130.775924 
" clip-path="url(#pb2623e8b18)" style="fill: #b8b8b8; stroke: #b8b8b8; stroke-width: 0.8"/>
    <path d="M 79.222376 85.453193 
L 77.663903 86.174472 
" clip-path="url(#pb2623e8b18)" style="fill: #b8b8b8; stroke: #b8b8b8; stroke-width: 0.8"/>
    <path d="M 72.652685 103.369423 
L 76.898175 112.519776 
" clip-path="url(#pb2623e8b18)" style="fill: #b8b8b8; stroke: #b8b8b8; stroke-width: 0.8"/>
    <path d="M 62.222265 136.175294 
L 70.434046 131.801198 
" clip-path="url(#pb2623e8b18)" style="fill: #b8b8b8; stroke: #b8b8b8; stroke-width: 0.8"/>
    <path d="M 45.488344 149.811004 
L 31.461621 166.710813 
" clip-path="url(#pb2623e8b18)" style="fill: #b8b8b8; stroke: #b8b8b8; stroke-width: 0.8"/>
    <path d="M 87.791102 93.836154 
L 84.993429 111.393847 
" clip-path="url(#pb2623e8b18)" style="fill: #b8b8b8; stroke: #b8b8b8; stroke-width: 0.8"/>
    <path d="M 97.873225 91.409534 
L 108.904016 106.525873 
" clip-path="url(#pb2623e8b18)" style="fill: #b8b8b8; stroke: #b8b8b8; stroke-width: 0.8"/>
    <path d="M 96.19677 121.185799 
L 104.854608 118.580871 
" clip-path="url(#pb2623e8b18)" style="fill: #b8b8b8; stroke: #b8b8b8; stroke-width: 0.8"/>
    <path d="M 125.819202 118.903478 
L 145.089869 125.354515 
" clip-path="url(#pb2623e8b18)" style="fill: #b8b8b8; stroke: #b8b8b8; stroke-width: 0.8"/>
    <path d="M 159.338191 130.042728 
L 178.375459 136.198091 
" clip-path="url(#pb2623e8b18)" style="fill: #b8b8b8; stroke: #b8b8b8; stroke-width: 0.8"/>
    <path d="M 190.750597 140.180005 
L 204.955173 144.72836 
" clip-path="url(#pb2623e8b18)" style="fill: #b8b8b8; stroke: #b8b8b8; stroke-width: 0.8"/>
   </g>
   <g id="VertexCollection_1">
    <path d="M 72.556442 47.917228 
C 75.208473 47.917228 77.752241 46.863565 79.62751 44.988296 
C 81.502779 43.113027 82.556442 40.569259 82.556442 37.917228 
C 82.556442 35.265197 81.502779 32.721429 79.62751 30.84616 
C 77.752241 28.970891 75.208473 27.917228 72.556442 27.917228 
C 69.904411 27.917228 67.360643 28.970891 65.485374 30.84616 
C 63.610105 32.721429 62.556442 35.265197 62.556442 37.917228 
C 62.556442 40.569259 63.610105 43.113027 65.485374 44.988296 
C 67.360643 46.863565 69.904411 47.917228 72.556442 47.917228 
z
" clip-path="url(#pb2623e8b18)" style="fill: #9a82bf; stroke: #593196; stroke-width: 0.6"/>
    <path d="M 66.970862 104.623326 
C 70.551104 104.623326 73.985191 103.200881 76.516804 100.669268 
C 79.048417 98.137654 80.470862 94.703568 80.470862 91.123326 
C 80.470862 87.543084 79.048417 84.108998 76.516804 81.577385 
C 73.985191 79.045771 70.551104 77.623326 66.970862 77.623326 
C 63.390621 77.623326 59.956534 79.045771 57.424921 81.577385 
C 54.893308 84.108998 53.470862 87.543084 53.470862 91.123326 
C 53.470862 94.703568 54.893308 98.137654 57.424921 100.669268 
C 59.956534 103.200881 63.390621 104.623326 66.970862 104.623326 
z
" clip-path="url(#pb2623e8b18)" style="fill: #5c3598; stroke: #593196; stroke-width: 0.6"/>
    <path d="M 52.513673 152.346681 
C 55.430907 152.346681 58.229052 151.187652 60.291848 149.124856 
C 62.354644 147.06206 63.513673 144.263915 63.513673 141.346681 
C 63.513673 138.429447 62.354644 135.631303 60.291848 133.568507 
C 58.229052 131.505711 55.430907 130.346681 52.513673 130.346681 
C 49.596439 130.346681 46.798295 131.505711 44.735499 133.568507 
C 42.672702 135.631303 41.513673 138.429447 41.513673 141.346681 
C 41.513673 144.263915 42.672702 147.06206 44.735499 149.124856 
C 46.798295 151.187652 49.596439 152.346681 52.513673 152.346681 
z
" clip-path="url(#pb2623e8b18)" style="fill: #8d71b7; stroke: #593196; stroke-width: 0.6"/>
    <path d="M 89.915417 94.004339 
C 93.495659 94.004339 96.929745 92.581894 99.461358 90.05028 
C 101.992972 87.518667 103.415417 84.084581 103.415417 80.504339 
C 103.415417 76.924097 101.992972 73.49001 99.461358 70.958397 
C 96.929745 68.426784 93.495659 67.004339 89.915417 67.004339 
C 86.335175 67.004339 82.901089 68.426784 80.369475 70.958397 
C 77.837862 73.49001 76.415417 76.924097 76.415417 80.504339 
C 76.415417 84.084581 77.837862 87.518667 80.369475 90.05028 
C 82.901089 92.581894 86.335175 94.004339 89.915417 94.004339 
z
" clip-path="url(#pb2623e8b18)" style="fill: #5b3497; stroke: #593196; stroke-width: 0.6"/>
    <path d="M 82.790436 139.219432 
C 86.503279 139.219432 90.064554 137.744304 92.689931 135.118927 
C 95.315307 132.493551 96.790436 128.932276 96.790436 125.219432 
C 96.790436 121.506589 95.315307 117.945314 92.689931 115.319937 
C 90.064554 112.694561 86.503279 111.219432 82.790436 111.219432 
C 79.077592 111.219432 75.516318 112.694561 72.890941 115.319937 
C 70.265564 117.945314 68.790436 121.506589 68.790436 125.219432 
C 68.790436 128.932276 70.265564 132.493551 72.890941 135.118927 
C 75.516318 137.744304 79.077592 139.219432 82.790436 139.219432 
z
" clip-path="url(#pb2623e8b18)" style="fill: #593196; stroke: #593196; stroke-width: 0.6"/>
    <path d="M 115.388156 126.411588 
C 118.30539 126.411588 121.103535 125.252559 123.166331 123.189763 
C 125.229127 121.126967 126.388156 118.328822 126.388156 115.411588 
C 126.388156 112.494354 125.229127 109.696209 123.166331 107.633413 
C 121.103535 105.570617 118.30539 104.411588 115.388156 104.411588 
C 112.470922 104.411588 109.672778 105.570617 107.609982 107.633413 
C 105.547186 109.696209 104.388156 112.494354 104.388156 115.411588 
C 104.388156 118.328822 105.547186 121.126967 107.609982 123.189763 
C 109.672778 125.252559 112.470922 126.411588 115.388156 126.411588 
z
" clip-path="url(#pb2623e8b18)" style="fill: #8a6eb5; stroke: #593196; stroke-width: 0.6"/>
    <path d="M 152.201945 135.235349 
C 154.190969 135.235349 156.098794 134.445102 157.505246 133.03865 
C 158.911698 131.632198 159.701945 129.724372 159.701945 127.735349 
C 159.701945 125.746326 158.911698 123.8385 157.505246 122.432048 
C 156.098794 121.025596 154.190969 120.235349 152.201945 120.235349 
C 150.212922 120.235349 148.305096 121.025596 146.898644 122.432048 
C 145.492193 123.8385 144.701945 125.746326 144.701945 127.735349 
C 144.701945 129.724372 145.492193 131.632198 146.898644 133.03865 
C 148.305096 134.445102 150.212922 135.235349 152.201945 135.235349 
z
" clip-path="url(#pb2623e8b18)" style="fill: #cbbede; stroke: #593196; stroke-width: 0.6"/>
    <path d="M 26.990957 179.0972 
C 28.847379 179.0972 30.628016 178.359636 31.940704 177.046948 
C 33.253393 175.734259 33.990957 173.953622 33.990957 172.0972 
C 33.990957 170.240779 33.253393 168.460141 31.940704 167.147453 
C 30.628016 165.834765 28.847379 165.0972 26.990957 165.0972 
C 25.134535 165.0972 23.353898 165.834765 22.041209 167.147453 
C 20.728521 168.460141 19.990957 170.240779 19.990957 172.0972 
C 19.990957 173.953622 20.728521 175.734259 22.041209 177.046948 
C 23.353898 178.359636 25.134535 179.0972 26.990957 179.0972 
z
" clip-path="url(#pb2623e8b18)" style="fill: #d6cbe5; stroke: #593196; stroke-width: 0.6"/>
    <path d="M 184.560206 144.69782 
C 186.284026 144.69782 187.937475 144.012939 189.1564 142.794014 
C 190.375325 141.575089 191.060206 139.92164 191.060206 138.19782 
C 191.060206 136.474 190.375325 134.820551 189.1564 133.601626 
C 187.937475 132.382701 186.284026 131.69782 184.560206 131.69782 
C 182.836385 131.69782 181.182936 132.382701 179.964011 133.601626 
C 178.745087 134.820551 178.060206 136.474 178.060206 138.19782 
C 178.060206 139.92164 178.745087 141.575089 179.964011 142.794014 
C 181.182936 144.012939 182.836385 144.69782 184.560206 144.69782 
z
" clip-path="url(#pb2623e8b18)" style="fill: #e0d8eb; stroke: #593196; stroke-width: 0.6"/>
    <path d="M 210.669381 152.55807 
C 212.260599 152.55807 213.78686 151.925872 214.912021 150.80071 
C 216.037183 149.675549 216.669381 148.149288 216.669381 146.55807 
C 216.669381 144.966851 216.037183 143.44059 214.912021 142.315429 
C 213.78686 141.190267 212.260599 140.55807 210.669381 140.55807 
C 209.078162 140.55807 207.551901 141.190267 206.42674 142.315429 
C 205.301578 143.44059 204.669381 144.966851 204.669381 146.55807 
C 204.669381 148.149288 205.301578 149.675549 206.42674 150.80071 
C 207.551901 151.925872 209.078162 152.55807 210.669381 152.55807 
z
" clip-path="url(#pb2623e8b18)" style="fill: #ece7f3; stroke: #593196; stroke-width: 0.6"/>
   </g>
   <g id="text_1">
    <g clip-path="url(#pb2623e8b18)">
     <!-- 0 -->
     <g style="fill: #333333" transform="translate(69.693317 56.255119) scale(0.09 -0.09)">
      <defs>
       <path id="DejaVuSans-13" d="M 2034 4250 
Q 1547 4250 1301 3770 
Q 1056 3291 1056 2328 
Q 1056 1369 1301 889 
Q 1547 409 2034 409 
Q 2525 409 2770 889 
Q 3016 1369 3016 2328 
Q 3016 3291 2770 3770 
Q 2525 4250 2034 4250 
z
M 2034 4750 
Q 2819 4750 3233 4129 
Q 3647 3509 3647 2328 
Q 3647 1150 3233 529 
Q 2819 -91 2034 -91 
Q 1250 -91 836 529 
Q 422 1150 422 2328 
Q 422 3509 836 4129 
Q 1250 4750 2034 4750 
z
" transform="scale(0.015625)"/>
      </defs>
      <use xlink:href="#DejaVuSans-13"/>
     </g>
    </g>
   </g>
   <g id="text_2">
    <g clip-path="url(#pb2623e8b18)">
     <!-- 1 -->
     <g style="fill: #333333" transform="translate(64.107737 115.061217) scale(0.09 -0.09)">
      <defs>
       <path id="DejaVuSans-14" d="M 794 531 
L 1825 531 
L 1825 4091 
L 703 3866 
L 703 4441 
L 1819 4666 
L 2450 4666 
L 2450 531 
L 3481 531 
L 3481 0 
L 794 0 
L 794 531 
z
" transform="scale(0.015625)"/>
      </defs>
      <use xlink:href="#DejaVuSans-14"/>
     </g>
    </g>
   </g>
   <g id="text_3">
    <g clip-path="url(#pb2623e8b18)">
     <!-- 2 -->
     <g style="fill: #333333" transform="translate(49.650548 161.284572) scale(0.09 -0.09)">
      <defs>
       <path id="DejaVuSans-15" d="M 1228 531 
L 3431 531 
L 3431 0 
L 469 0 
L 469 531 
Q 828 903 1448 1529 
Q 2069 2156 2228 2338 
Q 2531 2678 2651 2914 
Q 2772 3150 2772 3378 
Q 2772 3750 2511 3984 
Q 2250 4219 1831 4219 
Q 1534 4219 1204 4116 
Q 875 4013 500 3803 
L 500 4441 
Q 881 4594 1212 4672 
Q 1544 4750 1819 4750 
Q 2544 4750 2975 4387 
Q 3406 4025 3406 3419 
Q 3406 3131 3298 2873 
Q 3191 2616 2906 2266 
Q 2828 2175 2409 1742 
Q 1991 1309 1228 531 
z
" transform="scale(0.015625)"/>
      </defs>
      <use xlink:href="#DejaVuSans-15"/>
     </g>
    </g>
   </g>
   <g id="text_4">
    <g clip-path="url(#pb2623e8b18)">
     <!-- 3 -->
     <g style="fill: #333333" transform="translate(87.052292 104.442229) scale(0.09 -0.09)">
      <defs>
       <path id="DejaVuSans-16" d="M 2597 2516 
Q 3050 2419 3304 2112 
Q 3559 1806 3559 1356 
Q 3559 666 3084 287 
Q 2609 -91 1734 -91 
Q 1441 -91 1130 -33 
Q 819 25 488 141 
L 488 750 
Q 750 597 1062 519 
Q 1375 441 1716 441 
Q 2309 441 2620 675 
Q 2931 909 2931 1356 
Q 2931 1769 2642 2001 
Q 2353 2234 1838 2234 
L 1294 2234 
L 1294 2753 
L 1863 2753 
Q 2328 2753 2575 2939 
Q 2822 3125 2822 3475 
Q 2822 3834 2567 4026 
Q 2313 4219 1838 4219 
Q 1578 4219 1281 4162 
Q 984 4106 628 3988 
L 628 4550 
Q 988 4650 1302 4700 
Q 1616 4750 1894 4750 
Q 2613 4750 3031 4423 
Q 3450 4097 3450 3541 
Q 3450 3153 3228 2886 
Q 3006 2619 2597 2516 
z
" transform="scale(0.015625)"/>
      </defs>
      <use xlink:href="#DejaVuSans-16"/>
     </g>
    </g>
   </g>
   <g id="text_5">
    <g clip-path="url(#pb2623e8b18)">
     <!-- 4 -->
     <g style="fill: #333333" transform="translate(79.927311 149.957323) scale(0.09 -0.09)">
      <defs>
       <path id="DejaVuSans-17" d="M 2419 4116 
L 825 1625 
L 2419 1625 
L 2419 4116 
z
M 2253 4666 
L 3047 4666 
L 3047 1625 
L 3713 1625 
L 3713 1100 
L 3047 1100 
L 3047 0 
L 2419 0 
L 2419 1100 
L 313 1100 
L 313 1709 
L 2253 4666 
z
" transform="scale(0.015625)"/>
      </defs>
      <use xlink:href="#DejaVuSans-17"/>
     </g>
    </g>
   </g>
   <g id="text_6">
    <g clip-path="url(#pb2623e8b18)">
     <!-- 5 -->
     <g style="fill: #333333" transform="translate(112.525031 135.349479) scale(0.09 -0.09)">
      <defs>
       <path id="DejaVuSans-18" d="M 691 4666 
L 3169 4666 
L 3169 4134 
L 1269 4134 
L 1269 2991 
Q 1406 3038 1543 3061 
Q 1681 3084 1819 3084 
Q 2600 3084 3056 2656 
Q 3513 2228 3513 1497 
Q 3513 744 3044 326 
Q 2575 -91 1722 -91 
Q 1428 -91 1123 -41 
Q 819 9 494 109 
L 494 744 
Q 775 591 1075 516 
Q 1375 441 1709 441 
Q 2250 441 2565 725 
Q 2881 1009 2881 1497 
Q 2881 1984 2565 2268 
Q 2250 2553 1709 2553 
Q 1456 2553 1204 2497 
Q 953 2441 691 2322 
L 691 4666 
z
" transform="scale(0.015625)"/>
      </defs>
      <use xlink:href="#DejaVuSans-18"/>
     </g>
    </g>
   </g>
   <g id="text_7">
    <g clip-path="url(#pb2623e8b18)">
     <!-- 6 -->
     <g style="fill: #333333" transform="translate(149.33882 142.073239) scale(0.09 -0.09)">
      <defs>
       <path id="DejaVuSans-19" d="M 2113 2584 
Q 1688 2584 1439 2293 
Q 1191 2003 1191 1497 
Q 1191 994 1439 701 
Q 1688 409 2113 409 
Q 2538 409 2786 701 
Q 3034 994 3034 1497 
Q 3034 2003 2786 2293 
Q 2538 2584 2113 2584 
z
M 3366 4563 
L 3366 3988 
Q 3128 4100 2886 4159 
Q 2644 4219 2406 4219 
Q 1781 4219 1451 3797 
Q 1122 3375 1075 2522 
Q 1259 2794 1537 2939 
Q 1816 3084 2150 3084 
Q 2853 3084 3261 2657 
Q 3669 2231 3669 1497 
Q 3669 778 3244 343 
Q 2819 -91 2113 -91 
Q 1303 -91 875 529 
Q 447 1150 447 2328 
Q 447 3434 972 4092 
Q 1497 4750 2381 4750 
Q 2619 4750 2861 4703 
Q 3103 4656 3366 4563 
z
" transform="scale(0.015625)"/>
      </defs>
      <use xlink:href="#DejaVuSans-19"/>
     </g>
    </g>
   </g>
   <g id="text_8">
    <g clip-path="url(#pb2623e8b18)">
     <!-- 7 -->
     <g style="fill: #333333" transform="translate(24.127832 185.635091) scale(0.09 -0.09)">
      <defs>
       <path id="DejaVuSans-1a" d="M 525 4666 
L 3525 4666 
L 3525 4397 
L 1831 0 
L 1172 0 
L 2766 4134 
L 525 4134 
L 525 4666 
z
" transform="scale(0.015625)"/>
      </defs>
      <use xlink:href="#DejaVuSans-1a"/>
     </g>
    </g>
   </g>
   <g id="text_9">
    <g clip-path="url(#pb2623e8b18)">
     <!-- 8 -->
     <g style="fill: #333333" transform="translate(181.697081 150.93571) scale(0.09 -0.09)">
      <defs>
       <path id="DejaVuSans-1b" d="M 2034 2216 
Q 1584 2216 1326 1975 
Q 1069 1734 1069 1313 
Q 1069 891 1326 650 
Q 1584 409 2034 409 
Q 2484 409 2743 651 
Q 3003 894 3003 1313 
Q 3003 1734 2745 1975 
Q 2488 2216 2034 2216 
z
M 1403 2484 
Q 997 2584 770 2862 
Q 544 3141 544 3541 
Q 544 4100 942 4425 
Q 1341 4750 2034 4750 
Q 2731 4750 3128 4425 
Q 3525 4100 3525 3541 
Q 3525 3141 3298 2862 
Q 3072 2584 2669 2484 
Q 3125 2378 3379 2068 
Q 3634 1759 3634 1313 
Q 3634 634 3220 271 
Q 2806 -91 2034 -91 
Q 1263 -91 848 271 
Q 434 634 434 1313 
Q 434 1759 690 2068 
Q 947 2378 1403 2484 
z
M 1172 3481 
Q 1172 3119 1398 2916 
Q 1625 2713 2034 2713 
Q 2441 2713 2670 2916 
Q 2900 3119 2900 3481 
Q 2900 3844 2670 4047 
Q 2441 4250 2034 4250 
Q 1625 4250 1398 4047 
Q 1172 3844 1172 3481 
z
" transform="scale(0.015625)"/>
      </defs>
      <use xlink:href="#DejaVuSans-1b"/>
     </g>
    </g>
   </g>
   <g id="text_10">
    <g clip-path="url(#pb2623e8b18)">
     <!-- 9 -->
     <g style="fill: #333333" transform="translate(207.806256 158.49596) scale(0.09 -0.09)">
      <defs>
       <path id="DejaVuSans-1c" d="M 703 97 
L 703 672 
Q 941 559 1184 500 
Q 1428 441 1663 441 
Q 2288 441 2617 861 
Q 2947 1281 2994 2138 
Q 2813 1869 2534 1725 
Q 2256 1581 1919 1581 
Q 1219 1581 811 2004 
Q 403 2428 403 3163 
Q 403 3881 828 4315 
Q 1253 4750 1959 4750 
Q 2769 4750 3195 4129 
Q 3622 3509 3622 2328 
Q 3622 1225 3098 567 
Q 2575 -91 1691 -91 
Q 1453 -91 1209 -44 
Q 966 3 703 97 
z
M 1959 2075 
Q 2384 2075 2632 2365 
Q 2881 2656 2881 3163 
Q 2881 3666 2632 3958 
Q 2384 4250 1959 4250 
Q 1534 4250 1286 3958 
Q 1038 3666 1038 3163 
Q 1038 2656 1286 2365 
Q 1534 2075 1959 2075 
z
" transform="scale(0.015625)"/>
      </defs>
      <use xlink:href="#DejaVuSans-1c"/>
     </g>
    </g>
   </g>
   <g id="matplotlib.axis_1"/>
   <g id="matplotlib.axis_2"/>
   <g id="text_11">
    <!-- Katz Centrality -->
    <g style="fill: #333333" transform="translate(78.162734 15.558281) scale(0.11 -0.11)">
     <defs>
      <path id="DejaVuSans-2e" d="M 628 4666 
L 1259 4666 
L 1259 2694 
L 3353 4666 
L 4166 4666 
L 1850 2491 
L 4331 0 
L 3500 0 
L 1259 2247 
L 1259 0 
L 628 0 
L 628 4666 
z
" transform="scale(0.015625)"/>
      <path id="DejaVuSans-44" d="M 2194 1759 
Q 1497 1759 1228 1600 
Q 959 1441 959 1056 
Q 959 750 1161 570 
Q 1363 391 1709 391 
Q 2188 391 2477 730 
Q 2766 1069 2766 1631 
L 2766 1759 
L 2194 1759 
z
M 3341 1997 
L 3341 0 
L 2766 0 
L 2766 531 
Q 2569 213 2275 61 
Q 1981 -91 1556 -91 
Q 1019 -91 701 211 
Q 384 513 384 1019 
Q 384 1609 779 1909 
Q 1175 2209 1959 2209 
L 2766 2209 
L 2766 2266 
Q 2766 2663 2505 2880 
Q 2244 3097 1772 3097 
Q 1472 3097 1187 3025 
Q 903 2953 641 2809 
L 641 3341 
Q 956 3463 1253 3523 
Q 1550 3584 1831 3584 
Q 2591 3584 2966 3190 
Q 3341 2797 3341 1997 
z
" transform="scale(0.015625)"/>
      <path id="DejaVuSans-57" d="M 1172 4494 
L 1172 3500 
L 2356 3500 
L 2356 3053 
L 1172 3053 
L 1172 1153 
Q 1172 725 1289 603 
Q 1406 481 1766 481 
L 2356 481 
L 2356 0 
L 1766 0 
Q 1100 0 847 248 
Q 594 497 594 1153 
L 594 3053 
L 172 3053 
L 172 3500 
L 594 3500 
L 594 4494 
L 1172 4494 
z
" transform="scale(0.015625)"/>
      <path id="DejaVuSans-5d" d="M 353 3500 
L 3084 3500 
L 3084 2975 
L 922 459 
L 3084 459 
L 3084 0 
L 275 0 
L 275 525 
L 2438 3041 
L 353 3041 
L 353 3500 
z
" transform="scale(0.015625)"/>
      <path id="DejaVuSans-3" transform="scale(0.015625)"/>
      <path id="DejaVuSans-26" d="M 4122 4306 
L 4122 3641 
Q 3803 3938 3442 4084 
Q 3081 4231 2675 4231 
Q 1875 4231 1450 3742 
Q 1025 3253 1025 2328 
Q 1025 1406 1450 917 
Q 1875 428 2675 428 
Q 3081 428 3442 575 
Q 3803 722 4122 1019 
L 4122 359 
Q 3791 134 3420 21 
Q 3050 -91 2638 -91 
Q 1578 -91 968 557 
Q 359 1206 359 2328 
Q 359 3453 968 4101 
Q 1578 4750 2638 4750 
Q 3056 4750 3426 4639 
Q 3797 4528 4122 4306 
z
" transform="scale(0.015625)"/>
      <path id="DejaVuSans-48" d="M 3597 1894 
L 3597 1613 
L 953 1613 
Q 991 1019 1311 708 
Q 1631 397 2203 397 
Q 2534 397 2845 478 
Q 3156 559 3463 722 
L 3463 178 
Q 3153 47 2828 -22 
Q 2503 -91 2169 -91 
Q 1331 -91 842 396 
Q 353 884 353 1716 
Q 353 2575 817 3079 
Q 1281 3584 2069 3584 
Q 2775 3584 3186 3129 
Q 3597 2675 3597 1894 
z
M 3022 2063 
Q 3016 2534 2758 2815 
Q 2500 3097 2075 3097 
Q 1594 3097 1305 2825 
Q 1016 2553 972 2059 
L 3022 2063 
z
" transform="scale(0.015625)"/>
      <path id="DejaVuSans-51" d="M 3513 2113 
L 3513 0 
L 2938 0 
L 2938 2094 
Q 2938 2591 2744 2837 
Q 2550 3084 2163 3084 
Q 1697 3084 1428 2787 
Q 1159 2491 1159 1978 
L 1159 0 
L 581 0 
L 581 3500 
L 1159 3500 
L 1159 2956 
Q 1366 3272 1645 3428 
Q 1925 3584 2291 3584 
Q 2894 3584 3203 3211 
Q 3513 2838 3513 2113 
z
" transform="scale(0.015625)"/>
      <path id="DejaVuSans-55" d="M 2631 2963 
Q 2534 3019 2420 3045 
Q 2306 3072 2169 3072 
Q 1681 3072 1420 2755 
Q 1159 2438 1159 1844 
L 1159 0 
L 581 0 
L 581 3500 
L 1159 3500 
L 1159 2956 
Q 1341 3275 1631 3429 
Q 1922 3584 2338 3584 
Q 2397 3584 2469 3576 
Q 2541 3569 2628 3553 
L 2631 2963 
z
" transform="scale(0.015625)"/>
      <path id="DejaVuSans-4f" d="M 603 4863 
L 1178 4863 
L 1178 0 
L 603 0 
L 603 4863 
z
" transform="scale(0.015625)"/>
      <path id="DejaVuSans-4c" d="M 603 3500 
L 1178 3500 
L 1178 0 
L 603 0 
L 603 3500 
z
M 603 4863 
L 1178 4863 
L 1178 4134 
L 603 4134 
L 603 4863 
z
" transform="scale(0.015625)"/>
      <path id="DejaVuSans-5c" d="M 2059 -325 
Q 1816 -950 1584 -1140 
Q 1353 -1331 966 -1331 
L 506 -1331 
L 506 -850 
L 844 -850 
Q 1081 -850 1212 -737 
Q 1344 -625 1503 -206 
L 1606 56 
L 191 3500 
L 800 3500 
L 1894 763 
L 2988 3500 
L 3597 3500 
L 2059 -325 
z
" transform="scale(0.015625)"/>
     </defs>
     <use xlink:href="#DejaVuSans-2e"/>
     <use xlink:href="#DejaVuSans-44" transform="translate(63.828125 0)"/>
     <use xlink:href="#DejaVuSans-57" transform="translate(125.109375 0)"/>
     <use xlink:href="#DejaVuSans-5d" transform="translate(164.3125 0)"/>
     <use xlink:href="#DejaVuSans-3" transform="translate(216.796875 0)"/>
     <use xlink:href="#DejaVuSans-26" transform="translate(248.578125 0)"/>
     <use xlink:href="#DejaVuSans-48" transform="translate(318.40625 0)"/>
     <use xlink:href="#DejaVuSans-51" transform="translate(379.9375 0)"/>
     <use xlink:href="#DejaVuSans-57" transform="translate(443.3125 0)"/>
     <use xlink:href="#DejaVuSans-55" transform="translate(482.515625 0)"/>
     <use xlink:href="#DejaVuSans-44" transform="translate(523.625 0)"/>
     <use xlink:href="#DejaVuSans-4f" transform="translate(584.90625 0)"/>
     <use xlink:href="#DejaVuSans-4c" transform="translate(612.6875 0)"/>
     <use xlink:href="#DejaVuSans-57" transform="translate(640.46875 0)"/>
     <use xlink:href="#DejaVuSans-5c" transform="translate(679.671875 0)"/>
    </g>
   </g>
  </g>
 </g>
 <defs>
  <clipPath id="pb2623e8b18">
   <rect x="7.2" y="21.558281" width="223.2" height="166.32"/>
  </clipPath>
 </defs>
</svg>
