<?xml version="1.0" encoding="UTF-8" standalone="no"?>
<!-- Created with Inkscape (http://www.inkscape.org/) -->

<svg
   version="1.1"
   id="svg1"
   width="249.98341"
   height="283.99966"
   viewBox="0 0 249.98342 283.99966"
   xmlns="http://www.w3.org/2000/svg"
   xmlns:svg="http://www.w3.org/2000/svg">
  <defs
     id="defs1" />
  <g
     id="g1"
     transform="translate(0.00103354,0.00262602)">
    <path
       id="path1"
       d="m 17.00804,102.04868 c 0,9.39338 -7.61465,17.00804 -17.00804,17.00804 -9.39339,0 -17.00804,-7.61466 -17.00804,-17.00804 0,-9.39341 7.61465,-17.00806 17.00804,-17.00806 9.39339,0 17.00804,7.61465 17.00804,17.00806 z"
       style="fill:#ffffff;fill-opacity:1;fill-rule:nonzero;stroke:#000000;stroke-width:0.3985;stroke-linecap:butt;stroke-linejoin:miter;stroke-miterlimit:10;stroke-dasharray:none;stroke-opacity:1"
       transform="matrix(1.3333333,0,0,-1.3333333,124.99067,159.00533)" />
    <path
       id="path2"
       d="m 7.417,-4.5712109 c 0,-1.3828125 0,-4.8398438 -3.3867187,-4.8398438 -3.39843755,0 -3.39843755,3.4453125 -3.39843755,4.8398438 0,1.3710937 0,4.74609371 3.38671875,4.74609371 3.3867188,0 3.3984375,-3.32812501 3.3984375,-4.74609371 z m -3.3867187,4.26562496 c -0.4570313,0 -0.8085938,-0.1875 -1.0898438,-0.48046875 C 2.5771563,-1.1493359 2.3545,-1.3837109 2.3545,-4.7469922 c 0,-1.0078125 0,-1.921875 0.1171875,-2.671875 0.1992188,-1.4179687 1.2304688,-1.5234375 1.546875,-1.5234375 0.4570313,0 1.3476563,0.2226563 1.546875,1.4296875 0.1289063,0.7265625 0.1289063,1.8867188 0.1289063,2.765625 0,3.3867188 -0.2109375,3.5859375 -0.6445313,4.01953126 -0.2929687,0.28125 -0.6796875,0.421875 -1.0195312,0.421875 z m 0,0"
       style="fill:#000000;fill-opacity:1;fill-rule:nonzero;stroke:none"
       aria-label="0"
       transform="matrix(1.3333333,0,0,1.3333333,119.61067,29.106667)" />
    <path
       id="path3"
       d="m -59.52843,25.51215 c 0,9.3934 -7.61465,17.00805 -17.00805,17.00805 -9.39339,0 -17.00805,-7.61465 -17.00805,-17.00805 0,-9.39339 7.61466,-17.00805 17.00805,-17.00805 9.3934,0 17.00805,7.61466 17.00805,17.00805 z"
       style="fill:#ffffff;fill-opacity:1;fill-rule:nonzero;stroke:#000000;stroke-width:0.3985;stroke-linecap:butt;stroke-linejoin:miter;stroke-miterlimit:10;stroke-dasharray:none;stroke-opacity:1"
       transform="matrix(1.3333333,0,0,-1.3333333,124.99067,159.00533)" />
    <path
       id="path4"
       d="m 4.968625,-8.9890234 c 0,-0.421875 -0.035156,-0.421875 -0.4921875,-0.421875 -1.0664063,0.9140625 -2.6601563,0.9140625 -2.9648438,0.9140625 h -0.28125 v 0.6210937 h 0.28125 c 0.4921875,0 1.2539063,-0.082031 1.828125,-0.2695312 v 7.52343746 H 1.3475312 V -7.421875e-4 C 1.9451875,-0.02417969 3.4569062,-0.02417969 4.1365937,-0.02417969 c 0.6679688,0 2.1914063,0 2.7890625,0.0234375025 V -0.62183594 H 4.968625 Z m 0,0"
       style="fill:#000000;fill-opacity:1;fill-rule:nonzero;stroke:none"
       aria-label="1"
       transform="matrix(1.3333333,0,0,1.3333333,17.562667,131.15333)" />
    <path
       id="path5"
       d="m 93.54453,25.51215 c 0,9.3934 -7.61466,17.00805 -17.00805,17.00805 -9.3934,0 -17.00805,-7.61465 -17.00805,-17.00805 0,-9.39339 7.61465,-17.00805 17.00805,-17.00805 9.39339,0 17.00805,7.61466 17.00805,17.00805 z"
       style="fill:#ffffff;fill-opacity:1;fill-rule:nonzero;stroke:#000000;stroke-width:0.3985;stroke-linecap:butt;stroke-linejoin:miter;stroke-miterlimit:10;stroke-dasharray:none;stroke-opacity:1"
       transform="matrix(1.3333333,0,0,-1.3333333,124.99067,159.00533)" />
    <path
       id="path6"
       d="M 7.241375,-3.0827734 H 6.6437188 C 6.5968438,-2.7780859 6.491375,-1.9343359 6.2804375,-1.7937109 6.16325,-1.6882422 5.0499688,-1.6882422 4.8273125,-1.6882422 H 2.6124688 c 0.5390625,-0.46875 1.8515625,-1.5585937 2.0625,-1.7109375 1.59375,-1.1953125 2.5664062,-1.921875 2.5664062,-3.3046875 0,-1.6875 -1.5351562,-2.7070312 -3.421875,-2.7070312 -1.6289062,0 -3.01171875,0.9140625 -3.01171875,2.2851562 0,0.7617188 0.60937505,0.9726563 0.93750005,0.9726563 0.4453125,0 0.9609375,-0.3046875 0.9609375,-0.9609375 0,-0.609375 -0.4453125,-0.9023438 -0.890625,-0.9609375 0.5742187,-0.65625 1.3359375,-0.7148438 1.640625,-0.7148438 1.3242187,0 1.9453125,1.0664063 1.9453125,2.109375 0,1.1132813 -0.75,2.1445313 -1.3476563,2.765625 l -3.10546875,3.25781251 c -0.140625,0.12890625 -0.140625,0.15234375 -0.140625,0.41015625 V -7.421875e-4 H 6.8312188 Z m 0,0"
       style="fill:#000000;fill-opacity:1;fill-rule:nonzero;stroke:none"
       aria-label="2"
       transform="matrix(1.3333333,0,0,1.3333333,221.65733,131.15333)" />
    <path
       id="path7"
       d="m -34.01628,-76.53648 c 0,9.3934 -7.61466,17.00805 -17.00804,17.00805 -9.39339,0 -17.00806,-7.61465 -17.00806,-17.00805 0,-9.39339 7.61467,-17.00805 17.00806,-17.00805 9.39338,0 17.00804,7.61466 17.00804,17.00805 z"
       style="fill:#ffffff;fill-opacity:1;fill-rule:nonzero;stroke:#000000;stroke-width:0.3985;stroke-linecap:butt;stroke-linejoin:miter;stroke-miterlimit:10;stroke-dasharray:none;stroke-opacity:1"
       transform="matrix(1.3333333,0,0,-1.3333333,124.99067,159.00533)" />
    <path
       id="path8"
       d="m 3.737875,-4.7450312 c 1.6171875,0 1.6171875,1.4882812 1.6171875,2.1796875 0,0.6445312 0,2.1679687 -1.5585938,2.1679687 -0.2929687,0 -1.2421875,-0.046875 -1.9335937,-0.5390625 0.6210937,-0.1289062 0.8320312,-0.5742187 0.8320312,-0.9960937 0,-0.5859375 -0.4101562,-1.0078125 -1.0078125,-1.0078125 -0.5976562,0 -1.00781245,0.421875 -1.00781245,1.0195312 0,1.32421875 1.42968745,2.09765625 3.18749995,2.09765625 2.3671875,0 3.5039063,-1.31249995 3.5039063,-2.74218745 0,-0.703125 -0.3515625,-2.0625 -2.578125,-2.4492188 1.265625,-0.3867187 2.1328125,-1.2773437 2.1328125,-2.4140625 0,-1.078125 -1.03125,-1.9804687 -3.0234375,-1.9804687 -1.6054688,0 -2.7890625,0.84375 -2.7890625,2.0039062 0,0.7265625 0.5625,0.9492188 0.9375,0.9492188 0.421875,0 0.9140625,-0.2695313 0.9140625,-0.9257813 0,-0.3398437 -0.140625,-0.8203125 -0.8085938,-0.9257812 0.5976563,-0.5859375 1.5703125,-0.5859375 1.6640625,-0.5859375 1.2773438,0 1.2773438,0.9960937 1.2773438,1.4179687 0,0.4335938 -0.058594,1.0898438 -0.5273438,1.6875 -0.3632812,0.4804688 -0.7382812,0.515625 -1.2890625,0.5390625 -0.1640625,0.011719 -0.4570312,0.023437 -0.515625,0.058594 -0.082031,0.046875 -0.082031,0.140625 -0.082031,0.1992187 0,0.2460938 0.082031,0.2460938 0.375,0.2460938 z m 0,0"
       style="fill:#000000;fill-opacity:1;fill-rule:nonzero;stroke:none"
       aria-label="3"
       transform="matrix(1.3333333,0,0,1.3333333,51.578667,267.21733)" />
    <path
       id="path9"
       d="m 68.03238,-76.53648 c 0,9.3934 -7.61467,17.00805 -17.00806,17.00805 -9.39338,0 -17.00804,-7.61465 -17.00804,-17.00805 0,-9.39339 7.61466,-17.00805 17.00804,-17.00805 9.39339,0 17.00806,7.61466 17.00806,17.00805 z"
       style="fill:#ffffff;fill-opacity:1;fill-rule:nonzero;stroke:#000000;stroke-width:0.3985;stroke-linecap:butt;stroke-linejoin:miter;stroke-miterlimit:10;stroke-dasharray:none;stroke-opacity:1"
       transform="matrix(1.3333333,0,0,-1.3333333,124.99067,159.00533)" />
    <path
       id="path10"
       d="M 6.2104063,-2.2489375 H 7.6049375 V -2.8700312 H 6.2104063 V -9.022375 c 0,-0.3515625 -0.011719,-0.4101562 -0.375,-0.4101562 -0.2578125,0 -0.28125,0 -0.4570313,0.2109375 l -4.93359375,6.3515625 v 0.6210937 H 4.5229063 v 1.62890625 H 2.9525938 V 0.0010625 c 0.421875,-0.0234375 1.8398437,-0.0234375 2.3554687,-0.0234375 0.4804688,0 1.9101563,0 2.296875,0.0234375 V -0.62003125 H 6.2104063 Z M 4.6518125,-7.428625 v 4.5585938 H 1.1010313 Z m 0,0"
       style="fill:#000000;fill-opacity:1;fill-rule:nonzero;stroke:none"
       aria-label="4"
       transform="matrix(1.3333333,0,0,1.3333333,187.64133,267.21733)" />
    <path
       id="path11"
       d="M -12.17041,89.89587 -64.37952,37.68594"
       style="fill:none;stroke:#000000;stroke-width:0.79701;stroke-linecap:butt;stroke-linejoin:miter;stroke-miterlimit:10;stroke-dasharray:none;stroke-opacity:1"
       transform="matrix(1.3333333,0,0,-1.3333333,124.99067,159.00533)" />
    <path
       id="path12"
       d="M 12.17041,89.89587 64.37952,37.68594"
       style="fill:none;stroke:#000000;stroke-width:0.79701;stroke-linecap:butt;stroke-linejoin:miter;stroke-miterlimit:10;stroke-dasharray:none;stroke-opacity:1"
       transform="matrix(1.3333333,0,0,-1.3333333,124.99067,159.00533)" />
    <path
       id="path13"
       d="M -59.33786,25.51599 H 59.33786"
       style="fill:none;stroke:#000000;stroke-width:0.79701;stroke-linecap:butt;stroke-linejoin:miter;stroke-miterlimit:10;stroke-dasharray:none;stroke-opacity:1"
       transform="matrix(1.3333333,0,0,-1.3333333,124.99067,159.00533)" />
    <path
       id="path14"
       d="m -72.37569,8.81966 17.16935,-68.67171"
       style="fill:none;stroke:#000000;stroke-width:0.79701;stroke-linecap:butt;stroke-linejoin:miter;stroke-miterlimit:10;stroke-dasharray:none;stroke-opacity:1"
       transform="matrix(1.3333333,0,0,-1.3333333,124.99067,159.00533)" />
    <path
       id="path15"
       d="M 72.37569,8.81966 55.20634,-59.85205"
       style="fill:none;stroke:#000000;stroke-width:0.79701;stroke-linecap:butt;stroke-linejoin:miter;stroke-miterlimit:10;stroke-dasharray:none;stroke-opacity:1"
       transform="matrix(1.3333333,0,0,-1.3333333,124.99067,159.00533)" />
    <path
       id="path16"
       d="m -33.82208,-76.54968 67.64416,7.6e-4"
       style="fill:none;stroke:#000000;stroke-width:0.79701;stroke-linecap:butt;stroke-linejoin:miter;stroke-miterlimit:10;stroke-dasharray:none;stroke-opacity:1"
       transform="matrix(1.3333333,0,0,-1.3333333,124.99067,159.00533)" />
  </g>
</svg>
