<?xml version="1.0" encoding="UTF-8"?>
<svg xmlns="http://www.w3.org/2000/svg" xmlns:xlink="http://www.w3.org/1999/xlink" width="600" height="600" viewBox="0 0 600 600">
<rect x="-60" y="-60" width="720" height="720" fill="rgb(100%, 100%, 100%)" fill-opacity="1"/>
<path fill="none" stroke-width="6" stroke-linecap="butt" stroke-linejoin="miter" stroke="rgb(26.666667%, 26.666667%, 26.666667%)" stroke-opacity="1" stroke-miterlimit="10" d="M 427.78125 403.738281 L 458.367188 464.183594 "/>
<path fill="none" stroke-width="4" stroke-linecap="butt" stroke-linejoin="miter" stroke="rgb(26.666667%, 26.666667%, 26.666667%)" stroke-opacity="1" stroke-miterlimit="10" d="M 427.78125 403.738281 L 507.753906 395.523438 "/>
<path fill="none" stroke-width="9" stroke-linecap="butt" stroke-linejoin="miter" stroke="rgb(26.666667%, 26.666667%, 26.666667%)" stroke-opacity="1" stroke-miterlimit="10" d="M 427.78125 403.738281 L 395.65625 462.121094 "/>
<path fill="none" stroke-width="2" stroke-linecap="butt" stroke-linejoin="miter" stroke="rgb(26.666667%, 26.666667%, 26.666667%)" stroke-opacity="1" stroke-miterlimit="10" d="M 427.78125 403.738281 L 380.902344 342.917969 "/>
<path fill="none" stroke-width="2" stroke-linecap="butt" stroke-linejoin="miter" stroke="rgb(26.666667%, 26.666667%, 26.666667%)" stroke-opacity="1" stroke-miterlimit="10" d="M 139.195312 321.574219 L 96.011719 385.910156 "/>
<path fill="none" stroke-width="4" stroke-linecap="butt" stroke-linejoin="miter" stroke="rgb(26.666667%, 26.666667%, 26.666667%)" stroke-opacity="1" stroke-miterlimit="10" d="M 139.195312 321.574219 L 79.359375 329.722656 "/>
<path fill="none" stroke-width="5" stroke-linecap="butt" stroke-linejoin="miter" stroke="rgb(26.666667%, 26.666667%, 26.666667%)" stroke-opacity="1" stroke-miterlimit="10" d="M 139.195312 321.574219 L 105.925781 256.5625 "/>
<path fill="none" stroke-width="2" stroke-linecap="butt" stroke-linejoin="miter" stroke="rgb(26.666667%, 26.666667%, 26.666667%)" stroke-opacity="1" stroke-miterlimit="10" d="M 139.195312 321.574219 L 216.429688 313.316406 "/>
<path fill="none" stroke-width="1" stroke-linecap="butt" stroke-linejoin="miter" stroke="rgb(26.666667%, 26.666667%, 26.666667%)" stroke-opacity="1" stroke-miterlimit="10" d="M 139.195312 321.574219 L 75.589844 283.417969 "/>
<path fill="none" stroke-width="1" stroke-linecap="butt" stroke-linejoin="miter" stroke="rgb(26.666667%, 26.666667%, 26.666667%)" stroke-opacity="1" stroke-miterlimit="10" d="M 414.71875 121.957031 L 336.851562 146.515625 "/>
<path fill="none" stroke-width="1" stroke-linecap="butt" stroke-linejoin="miter" stroke="rgb(26.666667%, 26.666667%, 26.666667%)" stroke-opacity="1" stroke-miterlimit="10" d="M 414.71875 121.957031 L 466.683594 74.992188 "/>
<path fill="none" stroke-width="1" stroke-linecap="butt" stroke-linejoin="miter" stroke="rgb(26.666667%, 26.666667%, 26.666667%)" stroke-opacity="1" stroke-miterlimit="10" d="M 96.011719 385.910156 L 72.097656 447.90625 "/>
<path fill="none" stroke-width="2" stroke-linecap="butt" stroke-linejoin="miter" stroke="rgb(26.666667%, 26.666667%, 26.666667%)" stroke-opacity="1" stroke-miterlimit="10" d="M 96.011719 385.910156 L 20 392.472656 "/>
<path fill="none" stroke-width="5" stroke-linecap="butt" stroke-linejoin="miter" stroke="rgb(26.666667%, 26.666667%, 26.666667%)" stroke-opacity="1" stroke-miterlimit="10" d="M 458.367188 464.183594 L 481.691406 524.871094 "/>
<path fill="none" stroke-width="5" stroke-linecap="butt" stroke-linejoin="miter" stroke="rgb(26.666667%, 26.666667%, 26.666667%)" stroke-opacity="1" stroke-miterlimit="10" d="M 580 394.179688 L 507.753906 395.523438 "/>
<path fill="none" stroke-width="3" stroke-linecap="butt" stroke-linejoin="miter" stroke="rgb(26.666667%, 26.666667%, 26.666667%)" stroke-opacity="1" stroke-miterlimit="10" d="M 481.691406 524.871094 L 509.824219 580 "/>
<path fill="none" stroke-width="2" stroke-linecap="butt" stroke-linejoin="miter" stroke="rgb(26.666667%, 26.666667%, 26.666667%)" stroke-opacity="1" stroke-miterlimit="10" d="M 264.234375 428.054688 L 292.148438 366.203125 "/>
<path fill="none" stroke-width="5" stroke-linecap="butt" stroke-linejoin="miter" stroke="rgb(26.666667%, 26.666667%, 26.666667%)" stroke-opacity="1" stroke-miterlimit="10" d="M 273.570312 336.625 L 304.296875 299.210938 "/>
<path fill="none" stroke-width="1" stroke-linecap="butt" stroke-linejoin="miter" stroke="rgb(26.666667%, 26.666667%, 26.666667%)" stroke-opacity="1" stroke-miterlimit="10" d="M 348.394531 262.820312 L 304.296875 299.210938 "/>
<path fill="none" stroke-width="4" stroke-linecap="butt" stroke-linejoin="miter" stroke="rgb(26.666667%, 26.666667%, 26.666667%)" stroke-opacity="1" stroke-miterlimit="10" d="M 270.703125 116.445312 L 336.851562 146.515625 "/>
<path fill="none" stroke-width="1" stroke-linecap="butt" stroke-linejoin="miter" stroke="rgb(26.666667%, 26.666667%, 26.666667%)" stroke-opacity="1" stroke-miterlimit="10" d="M 216.429688 313.316406 L 304.296875 299.210938 "/>
<path fill="none" stroke-width="5" stroke-linecap="butt" stroke-linejoin="miter" stroke="rgb(26.666667%, 26.666667%, 26.666667%)" stroke-opacity="1" stroke-miterlimit="10" d="M 253.824219 274.496094 L 304.296875 299.210938 "/>
<path fill="none" stroke-width="1" stroke-linecap="butt" stroke-linejoin="miter" stroke="rgb(26.666667%, 26.666667%, 26.666667%)" stroke-opacity="1" stroke-miterlimit="10" d="M 322.585938 216.605469 L 336.851562 146.515625 "/>
<path fill="none" stroke-width="2" stroke-linecap="butt" stroke-linejoin="miter" stroke="rgb(26.666667%, 26.666667%, 26.666667%)" stroke-opacity="1" stroke-miterlimit="10" d="M 322.585938 216.605469 L 304.296875 299.210938 "/>
<path fill="none" stroke-width="3" stroke-linecap="butt" stroke-linejoin="miter" stroke="rgb(26.666667%, 26.666667%, 26.666667%)" stroke-opacity="1" stroke-miterlimit="10" d="M 307.203125 81.136719 L 284.726562 20 "/>
<path fill="none" stroke-width="1" stroke-linecap="butt" stroke-linejoin="miter" stroke="rgb(26.666667%, 26.666667%, 26.666667%)" stroke-opacity="1" stroke-miterlimit="10" d="M 307.203125 81.136719 L 336.851562 146.515625 "/>
<path fill="none" stroke-width="7" stroke-linecap="butt" stroke-linejoin="miter" stroke="rgb(26.666667%, 26.666667%, 26.666667%)" stroke-opacity="1" stroke-miterlimit="10" d="M 443.984375 297.203125 L 380.902344 342.917969 "/>
<path fill="none" stroke-width="4" stroke-linecap="butt" stroke-linejoin="miter" stroke="rgb(26.666667%, 26.666667%, 26.666667%)" stroke-opacity="1" stroke-miterlimit="10" d="M 442.464844 334.878906 L 380.902344 342.917969 "/>
<path fill="none" stroke-width="1" stroke-linecap="butt" stroke-linejoin="miter" stroke="rgb(26.666667%, 26.666667%, 26.666667%)" stroke-opacity="1" stroke-miterlimit="10" d="M 277.988281 250.582031 L 304.296875 299.210938 "/>
<path fill="none" stroke-width="5" stroke-linecap="butt" stroke-linejoin="miter" stroke="rgb(26.666667%, 26.666667%, 26.666667%)" stroke-opacity="1" stroke-miterlimit="10" d="M 350.125 300.980469 L 304.296875 299.210938 "/>
<path fill="none" stroke-width="6" stroke-linecap="butt" stroke-linejoin="miter" stroke="rgb(26.666667%, 26.666667%, 26.666667%)" stroke-opacity="1" stroke-miterlimit="10" d="M 368.691406 98.105469 L 336.851562 146.515625 "/>
<path fill="none" stroke-width="2" stroke-linecap="butt" stroke-linejoin="miter" stroke="rgb(26.666667%, 26.666667%, 26.666667%)" stroke-opacity="1" stroke-miterlimit="10" d="M 292.148438 366.203125 L 304.296875 299.210938 "/>
<path fill="none" stroke-width="1" stroke-linecap="butt" stroke-linejoin="miter" stroke="rgb(26.666667%, 26.666667%, 26.666667%)" stroke-opacity="1" stroke-miterlimit="10" d="M 380.902344 342.917969 L 304.296875 299.210938 "/>
<path fill-rule="nonzero" fill="rgb(100%, 0%, 0%)" fill-opacity="1" stroke-width="1" stroke-linecap="butt" stroke-linejoin="miter" stroke="rgb(0%, 0%, 0%)" stroke-opacity="1" stroke-miterlimit="10" d="M 437.78125 403.738281 C 437.78125 409.261719 433.300781 413.738281 427.78125 413.738281 C 422.257812 413.738281 417.78125 409.261719 417.78125 403.738281 C 417.78125 398.214844 422.257812 393.738281 427.78125 393.738281 C 433.300781 393.738281 437.78125 398.214844 437.78125 403.738281 "/>
<path fill-rule="nonzero" fill="rgb(100%, 0%, 0%)" fill-opacity="1" stroke-width="1" stroke-linecap="butt" stroke-linejoin="miter" stroke="rgb(0%, 0%, 0%)" stroke-opacity="1" stroke-miterlimit="10" d="M 149.195312 321.574219 C 149.195312 327.097656 144.71875 331.574219 139.195312 331.574219 C 133.671875 331.574219 129.195312 327.097656 129.195312 321.574219 C 129.195312 316.050781 133.671875 311.574219 139.195312 311.574219 C 144.71875 311.574219 149.195312 316.050781 149.195312 321.574219 "/>
<path fill-rule="nonzero" fill="rgb(100%, 0%, 0%)" fill-opacity="1" stroke-width="1" stroke-linecap="butt" stroke-linejoin="miter" stroke="rgb(0%, 0%, 0%)" stroke-opacity="1" stroke-miterlimit="10" d="M 424.71875 121.957031 C 424.71875 127.480469 420.242188 131.957031 414.71875 131.957031 C 409.195312 131.957031 404.71875 127.480469 404.71875 121.957031 C 404.71875 116.4375 409.195312 111.957031 414.71875 111.957031 C 420.242188 111.957031 424.71875 116.4375 424.71875 121.957031 "/>
<path fill-rule="nonzero" fill="rgb(100%, 0%, 0%)" fill-opacity="1" stroke-width="1" stroke-linecap="butt" stroke-linejoin="miter" stroke="rgb(0%, 0%, 0%)" stroke-opacity="1" stroke-miterlimit="10" d="M 106.011719 385.910156 C 106.011719 391.433594 101.53125 395.910156 96.011719 395.910156 C 90.488281 395.910156 86.011719 391.433594 86.011719 385.910156 C 86.011719 380.390625 90.488281 375.910156 96.011719 375.910156 C 101.53125 375.910156 106.011719 380.390625 106.011719 385.910156 "/>
<path fill-rule="nonzero" fill="rgb(100%, 0%, 0%)" fill-opacity="1" stroke-width="1" stroke-linecap="butt" stroke-linejoin="miter" stroke="rgb(0%, 0%, 0%)" stroke-opacity="1" stroke-miterlimit="10" d="M 468.367188 464.183594 C 468.367188 469.707031 463.890625 474.183594 458.367188 474.183594 C 452.847656 474.183594 448.367188 469.707031 448.367188 464.183594 C 448.367188 458.664062 452.847656 454.183594 458.367188 454.183594 C 463.890625 454.183594 468.367188 458.664062 468.367188 464.183594 "/>
<path fill-rule="nonzero" fill="rgb(100%, 0%, 0%)" fill-opacity="1" stroke-width="1" stroke-linecap="butt" stroke-linejoin="miter" stroke="rgb(0%, 0%, 0%)" stroke-opacity="1" stroke-miterlimit="10" d="M 590 394.179688 C 590 399.703125 585.523438 404.179688 580 404.179688 C 574.476562 404.179688 570 399.703125 570 394.179688 C 570 388.65625 574.476562 384.179688 580 384.179688 C 585.523438 384.179688 590 388.65625 590 394.179688 "/>
<path fill-rule="nonzero" fill="rgb(100%, 0%, 0%)" fill-opacity="1" stroke-width="1" stroke-linecap="butt" stroke-linejoin="miter" stroke="rgb(0%, 0%, 0%)" stroke-opacity="1" stroke-miterlimit="10" d="M 491.691406 524.871094 C 491.691406 530.394531 487.214844 534.871094 481.691406 534.871094 C 476.167969 534.871094 471.691406 530.394531 471.691406 524.871094 C 471.691406 519.347656 476.167969 514.871094 481.691406 514.871094 C 487.214844 514.871094 491.691406 519.347656 491.691406 524.871094 "/>
<path fill-rule="nonzero" fill="rgb(100%, 0%, 0%)" fill-opacity="1" stroke-width="1" stroke-linecap="butt" stroke-linejoin="miter" stroke="rgb(0%, 0%, 0%)" stroke-opacity="1" stroke-miterlimit="10" d="M 89.359375 329.722656 C 89.359375 335.246094 84.882812 339.722656 79.359375 339.722656 C 73.835938 339.722656 69.359375 335.246094 69.359375 329.722656 C 69.359375 324.199219 73.835938 319.722656 79.359375 319.722656 C 84.882812 319.722656 89.359375 324.199219 89.359375 329.722656 "/>
<path fill-rule="nonzero" fill="rgb(100%, 0%, 0%)" fill-opacity="1" stroke-width="1" stroke-linecap="butt" stroke-linejoin="miter" stroke="rgb(0%, 0%, 0%)" stroke-opacity="1" stroke-miterlimit="10" d="M 274.234375 428.054688 C 274.234375 433.578125 269.757812 438.054688 264.234375 438.054688 C 258.710938 438.054688 254.234375 433.578125 254.234375 428.054688 C 254.234375 422.53125 258.710938 418.054688 264.234375 418.054688 C 269.757812 418.054688 274.234375 422.53125 274.234375 428.054688 "/>
<path fill-rule="nonzero" fill="rgb(100%, 0%, 0%)" fill-opacity="1" stroke-width="1" stroke-linecap="butt" stroke-linejoin="miter" stroke="rgb(0%, 0%, 0%)" stroke-opacity="1" stroke-miterlimit="10" d="M 476.683594 74.992188 C 476.683594 80.515625 472.203125 84.992188 466.683594 84.992188 C 461.160156 84.992188 456.683594 80.515625 456.683594 74.992188 C 456.683594 69.472656 461.160156 64.992188 466.683594 64.992188 C 472.203125 64.992188 476.683594 69.472656 476.683594 74.992188 "/>
<path fill-rule="nonzero" fill="rgb(100%, 0%, 0%)" fill-opacity="1" stroke-width="1" stroke-linecap="butt" stroke-linejoin="miter" stroke="rgb(0%, 0%, 0%)" stroke-opacity="1" stroke-miterlimit="10" d="M 517.753906 395.523438 C 517.753906 401.046875 513.273438 405.523438 507.753906 405.523438 C 502.230469 405.523438 497.753906 401.046875 497.753906 395.523438 C 497.753906 390.003906 502.230469 385.523438 507.753906 385.523438 C 513.273438 385.523438 517.753906 390.003906 517.753906 395.523438 "/>
<path fill-rule="nonzero" fill="rgb(100%, 0%, 0%)" fill-opacity="1" stroke-width="1" stroke-linecap="butt" stroke-linejoin="miter" stroke="rgb(0%, 0%, 0%)" stroke-opacity="1" stroke-miterlimit="10" d="M 405.65625 462.121094 C 405.65625 467.644531 401.179688 472.121094 395.65625 472.121094 C 390.132812 472.121094 385.65625 467.644531 385.65625 462.121094 C 385.65625 456.597656 390.132812 452.121094 395.65625 452.121094 C 401.179688 452.121094 405.65625 456.597656 405.65625 462.121094 "/>
<path fill-rule="nonzero" fill="rgb(100%, 0%, 0%)" fill-opacity="1" stroke-width="1" stroke-linecap="butt" stroke-linejoin="miter" stroke="rgb(0%, 0%, 0%)" stroke-opacity="1" stroke-miterlimit="10" d="M 82.097656 447.90625 C 82.097656 453.429688 77.621094 457.90625 72.097656 457.90625 C 66.574219 457.90625 62.097656 453.429688 62.097656 447.90625 C 62.097656 442.382812 66.574219 437.90625 72.097656 437.90625 C 77.621094 437.90625 82.097656 442.382812 82.097656 447.90625 "/>
<path fill-rule="nonzero" fill="rgb(100%, 0%, 0%)" fill-opacity="1" stroke-width="1" stroke-linecap="butt" stroke-linejoin="miter" stroke="rgb(0%, 0%, 0%)" stroke-opacity="1" stroke-miterlimit="10" d="M 30 392.472656 C 30 397.996094 25.523438 402.472656 20 402.472656 C 14.476562 402.472656 10 397.996094 10 392.472656 C 10 386.953125 14.476562 382.472656 20 382.472656 C 25.523438 382.472656 30 386.953125 30 392.472656 "/>
<path fill-rule="nonzero" fill="rgb(100%, 0%, 0%)" fill-opacity="1" stroke-width="1" stroke-linecap="butt" stroke-linejoin="miter" stroke="rgb(0%, 0%, 0%)" stroke-opacity="1" stroke-miterlimit="10" d="M 283.570312 336.625 C 283.570312 342.148438 279.089844 346.625 273.570312 346.625 C 268.046875 346.625 263.570312 342.148438 263.570312 336.625 C 263.570312 331.101562 268.046875 326.625 273.570312 326.625 C 279.089844 326.625 283.570312 331.101562 283.570312 336.625 "/>
<path fill-rule="nonzero" fill="rgb(100%, 0%, 0%)" fill-opacity="1" stroke-width="1" stroke-linecap="butt" stroke-linejoin="miter" stroke="rgb(0%, 0%, 0%)" stroke-opacity="1" stroke-miterlimit="10" d="M 358.394531 262.820312 C 358.394531 268.34375 353.917969 272.820312 348.394531 272.820312 C 342.875 272.820312 338.394531 268.34375 338.394531 262.820312 C 338.394531 257.296875 342.875 252.820312 348.394531 252.820312 C 353.917969 252.820312 358.394531 257.296875 358.394531 262.820312 "/>
<path fill-rule="nonzero" fill="rgb(100%, 0%, 0%)" fill-opacity="1" stroke-width="1" stroke-linecap="butt" stroke-linejoin="miter" stroke="rgb(0%, 0%, 0%)" stroke-opacity="1" stroke-miterlimit="10" d="M 519.824219 580 C 519.824219 585.523438 515.347656 590 509.824219 590 C 504.300781 590 499.824219 585.523438 499.824219 580 C 499.824219 574.476562 504.300781 570 509.824219 570 C 515.347656 570 519.824219 574.476562 519.824219 580 "/>
<path fill-rule="nonzero" fill="rgb(100%, 0%, 0%)" fill-opacity="1" stroke-width="1" stroke-linecap="butt" stroke-linejoin="miter" stroke="rgb(0%, 0%, 0%)" stroke-opacity="1" stroke-miterlimit="10" d="M 115.925781 256.5625 C 115.925781 262.085938 111.449219 266.5625 105.925781 266.5625 C 100.402344 266.5625 95.925781 262.085938 95.925781 256.5625 C 95.925781 251.039062 100.402344 246.5625 105.925781 246.5625 C 111.449219 246.5625 115.925781 251.039062 115.925781 256.5625 "/>
<path fill-rule="nonzero" fill="rgb(100%, 0%, 0%)" fill-opacity="1" stroke-width="1" stroke-linecap="butt" stroke-linejoin="miter" stroke="rgb(0%, 0%, 0%)" stroke-opacity="1" stroke-miterlimit="10" d="M 280.703125 116.445312 C 280.703125 121.96875 276.226562 126.445312 270.703125 126.445312 C 265.179688 126.445312 260.703125 121.96875 260.703125 116.445312 C 260.703125 110.921875 265.179688 106.445312 270.703125 106.445312 C 276.226562 106.445312 280.703125 110.921875 280.703125 116.445312 "/>
<path fill-rule="nonzero" fill="rgb(100%, 0%, 0%)" fill-opacity="1" stroke-width="1" stroke-linecap="butt" stroke-linejoin="miter" stroke="rgb(0%, 0%, 0%)" stroke-opacity="1" stroke-miterlimit="10" d="M 226.429688 313.316406 C 226.429688 318.839844 221.953125 323.316406 216.429688 323.316406 C 210.90625 323.316406 206.429688 318.839844 206.429688 313.316406 C 206.429688 307.796875 210.90625 303.316406 216.429688 303.316406 C 221.953125 303.316406 226.429688 307.796875 226.429688 313.316406 "/>
<path fill-rule="nonzero" fill="rgb(100%, 0%, 0%)" fill-opacity="1" stroke-width="1" stroke-linecap="butt" stroke-linejoin="miter" stroke="rgb(0%, 0%, 0%)" stroke-opacity="1" stroke-miterlimit="10" d="M 263.824219 274.496094 C 263.824219 280.015625 259.347656 284.496094 253.824219 284.496094 C 248.300781 284.496094 243.824219 280.015625 243.824219 274.496094 C 243.824219 268.972656 248.300781 264.496094 253.824219 264.496094 C 259.347656 264.496094 263.824219 268.972656 263.824219 274.496094 "/>
<path fill-rule="nonzero" fill="rgb(100%, 0%, 0%)" fill-opacity="1" stroke-width="1" stroke-linecap="butt" stroke-linejoin="miter" stroke="rgb(0%, 0%, 0%)" stroke-opacity="1" stroke-miterlimit="10" d="M 85.589844 283.417969 C 85.589844 288.941406 81.113281 293.417969 75.589844 293.417969 C 70.066406 293.417969 65.589844 288.941406 65.589844 283.417969 C 65.589844 277.898438 70.066406 273.417969 75.589844 273.417969 C 81.113281 273.417969 85.589844 277.898438 85.589844 283.417969 "/>
<path fill-rule="nonzero" fill="rgb(100%, 0%, 0%)" fill-opacity="1" stroke-width="1" stroke-linecap="butt" stroke-linejoin="miter" stroke="rgb(0%, 0%, 0%)" stroke-opacity="1" stroke-miterlimit="10" d="M 332.585938 216.605469 C 332.585938 222.128906 328.109375 226.605469 322.585938 226.605469 C 317.0625 226.605469 312.585938 222.128906 312.585938 216.605469 C 312.585938 211.082031 317.0625 206.605469 322.585938 206.605469 C 328.109375 206.605469 332.585938 211.082031 332.585938 216.605469 "/>
<path fill-rule="nonzero" fill="rgb(100%, 0%, 0%)" fill-opacity="1" stroke-width="1" stroke-linecap="butt" stroke-linejoin="miter" stroke="rgb(0%, 0%, 0%)" stroke-opacity="1" stroke-miterlimit="10" d="M 317.203125 81.136719 C 317.203125 86.65625 312.726562 91.136719 307.203125 91.136719 C 301.679688 91.136719 297.203125 86.65625 297.203125 81.136719 C 297.203125 75.613281 301.679688 71.136719 307.203125 71.136719 C 312.726562 71.136719 317.203125 75.613281 317.203125 81.136719 "/>
<path fill-rule="nonzero" fill="rgb(100%, 0%, 0%)" fill-opacity="1" stroke-width="1" stroke-linecap="butt" stroke-linejoin="miter" stroke="rgb(0%, 0%, 0%)" stroke-opacity="1" stroke-miterlimit="10" d="M 453.984375 297.203125 C 453.984375 302.726562 449.507812 307.203125 443.984375 307.203125 C 438.460938 307.203125 433.984375 302.726562 433.984375 297.203125 C 433.984375 291.679688 438.460938 287.203125 443.984375 287.203125 C 449.507812 287.203125 453.984375 291.679688 453.984375 297.203125 "/>
<path fill-rule="nonzero" fill="rgb(100%, 0%, 0%)" fill-opacity="1" stroke-width="1" stroke-linecap="butt" stroke-linejoin="miter" stroke="rgb(0%, 0%, 0%)" stroke-opacity="1" stroke-miterlimit="10" d="M 452.464844 334.878906 C 452.464844 340.398438 447.984375 344.878906 442.464844 344.878906 C 436.941406 344.878906 432.464844 340.398438 432.464844 334.878906 C 432.464844 329.355469 436.941406 324.878906 442.464844 324.878906 C 447.984375 324.878906 452.464844 329.355469 452.464844 334.878906 "/>
<path fill-rule="nonzero" fill="rgb(100%, 0%, 0%)" fill-opacity="1" stroke-width="1" stroke-linecap="butt" stroke-linejoin="miter" stroke="rgb(0%, 0%, 0%)" stroke-opacity="1" stroke-miterlimit="10" d="M 287.988281 250.582031 C 287.988281 256.105469 283.511719 260.582031 277.988281 260.582031 C 272.464844 260.582031 267.988281 256.105469 267.988281 250.582031 C 267.988281 245.058594 272.464844 240.582031 277.988281 240.582031 C 283.511719 240.582031 287.988281 245.058594 287.988281 250.582031 "/>
<path fill-rule="nonzero" fill="rgb(100%, 0%, 0%)" fill-opacity="1" stroke-width="1" stroke-linecap="butt" stroke-linejoin="miter" stroke="rgb(0%, 0%, 0%)" stroke-opacity="1" stroke-miterlimit="10" d="M 294.726562 20 C 294.726562 25.523438 290.25 30 284.726562 30 C 279.207031 30 274.726562 25.523438 274.726562 20 C 274.726562 14.476562 279.207031 10 284.726562 10 C 290.25 10 294.726562 14.476562 294.726562 20 "/>
<path fill-rule="nonzero" fill="rgb(100%, 0%, 0%)" fill-opacity="1" stroke-width="1" stroke-linecap="butt" stroke-linejoin="miter" stroke="rgb(0%, 0%, 0%)" stroke-opacity="1" stroke-miterlimit="10" d="M 360.125 300.980469 C 360.125 306.503906 355.648438 310.980469 350.125 310.980469 C 344.601562 310.980469 340.125 306.503906 340.125 300.980469 C 340.125 295.457031 344.601562 290.980469 350.125 290.980469 C 355.648438 290.980469 360.125 295.457031 360.125 300.980469 "/>
<path fill-rule="nonzero" fill="rgb(100%, 0%, 0%)" fill-opacity="1" stroke-width="1" stroke-linecap="butt" stroke-linejoin="miter" stroke="rgb(0%, 0%, 0%)" stroke-opacity="1" stroke-miterlimit="10" d="M 378.691406 98.105469 C 378.691406 103.628906 374.214844 108.105469 368.691406 108.105469 C 363.167969 108.105469 358.691406 103.628906 358.691406 98.105469 C 358.691406 92.582031 363.167969 88.105469 368.691406 88.105469 C 374.214844 88.105469 378.691406 92.582031 378.691406 98.105469 "/>
<path fill-rule="nonzero" fill="rgb(100%, 0%, 0%)" fill-opacity="1" stroke-width="1" stroke-linecap="butt" stroke-linejoin="miter" stroke="rgb(0%, 0%, 0%)" stroke-opacity="1" stroke-miterlimit="10" d="M 302.148438 366.203125 C 302.148438 371.726562 297.671875 376.203125 292.148438 376.203125 C 286.625 376.203125 282.148438 371.726562 282.148438 366.203125 C 282.148438 360.679688 286.625 356.203125 292.148438 356.203125 C 297.671875 356.203125 302.148438 360.679688 302.148438 366.203125 "/>
<path fill-rule="nonzero" fill="rgb(100%, 0%, 0%)" fill-opacity="1" stroke-width="1" stroke-linecap="butt" stroke-linejoin="miter" stroke="rgb(0%, 0%, 0%)" stroke-opacity="1" stroke-miterlimit="10" d="M 390.902344 342.917969 C 390.902344 348.441406 386.425781 352.917969 380.902344 352.917969 C 375.378906 352.917969 370.902344 348.441406 370.902344 342.917969 C 370.902344 337.394531 375.378906 332.917969 380.902344 332.917969 C 386.425781 332.917969 390.902344 337.394531 390.902344 342.917969 "/>
<path fill-rule="nonzero" fill="rgb(100%, 0%, 0%)" fill-opacity="1" stroke-width="1" stroke-linecap="butt" stroke-linejoin="miter" stroke="rgb(0%, 0%, 0%)" stroke-opacity="1" stroke-miterlimit="10" d="M 346.851562 146.515625 C 346.851562 152.039062 342.375 156.515625 336.851562 156.515625 C 331.328125 156.515625 326.851562 152.039062 326.851562 146.515625 C 326.851562 140.992188 331.328125 136.515625 336.851562 136.515625 C 342.375 136.515625 346.851562 140.992188 346.851562 146.515625 "/>
<path fill-rule="nonzero" fill="rgb(100%, 0%, 0%)" fill-opacity="1" stroke-width="1" stroke-linecap="butt" stroke-linejoin="miter" stroke="rgb(0%, 0%, 0%)" stroke-opacity="1" stroke-miterlimit="10" d="M 314.296875 299.210938 C 314.296875 304.734375 309.820312 309.210938 304.296875 309.210938 C 298.773438 309.210938 294.296875 304.734375 294.296875 299.210938 C 294.296875 293.6875 298.773438 289.210938 304.296875 289.210938 C 309.820312 289.210938 314.296875 293.6875 314.296875 299.210938 "/>
</svg>