<?xml version="1.0" encoding="UTF-8"?>
<svg xmlns="http://www.w3.org/2000/svg" xmlns:xlink="http://www.w3.org/1999/xlink" width="600" height="600" viewBox="0 0 600 600">
<rect x="-60" y="-60" width="720" height="720" fill="rgb(100%, 100%, 100%)" fill-opacity="1"/>
<path fill="none" stroke-width="2" stroke-linecap="butt" stroke-linejoin="miter" stroke="rgb(26.666667%, 26.666667%, 26.666667%)" stroke-opacity="1" stroke-miterlimit="10" d="M 430.515625 472.476562 L 427.546875 525.382812 "/>
<path fill="none" stroke-width="2" stroke-linecap="butt" stroke-linejoin="miter" stroke="rgb(26.666667%, 26.666667%, 26.666667%)" stroke-opacity="1" stroke-miterlimit="10" d="M 430.515625 472.476562 L 392.058594 412.40625 "/>
<path fill="none" stroke-width="4" stroke-linecap="butt" stroke-linejoin="miter" stroke="rgb(26.666667%, 26.666667%, 26.666667%)" stroke-opacity="1" stroke-miterlimit="10" d="M 430.515625 472.476562 L 499.558594 436.632812 "/>
<path fill="none" stroke-width="1" stroke-linecap="butt" stroke-linejoin="miter" stroke="rgb(26.666667%, 26.666667%, 26.666667%)" stroke-opacity="1" stroke-miterlimit="10" d="M 430.515625 472.476562 L 382.417969 528.820312 "/>
<path fill="none" stroke-width="1" stroke-linecap="butt" stroke-linejoin="miter" stroke="rgb(26.666667%, 26.666667%, 26.666667%)" stroke-opacity="1" stroke-miterlimit="10" d="M 430.515625 472.476562 L 509.792969 497.527344 "/>
<path fill="none" stroke-width="3" stroke-linecap="butt" stroke-linejoin="miter" stroke="rgb(26.666667%, 26.666667%, 26.666667%)" stroke-opacity="1" stroke-miterlimit="10" d="M 430.515625 472.476562 L 494.460938 467.378906 "/>
<path fill="none" stroke-width="7" stroke-linecap="butt" stroke-linejoin="miter" stroke="rgb(26.666667%, 26.666667%, 26.666667%)" stroke-opacity="1" stroke-miterlimit="10" d="M 430.515625 472.476562 L 465.710938 521.070312 "/>
<path fill="none" stroke-width="4" stroke-linecap="butt" stroke-linejoin="miter" stroke="rgb(26.666667%, 26.666667%, 26.666667%)" stroke-opacity="1" stroke-miterlimit="10" d="M 430.515625 472.476562 L 362.566406 495.402344 "/>
<path fill="none" stroke-width="6" stroke-linecap="butt" stroke-linejoin="miter" stroke="rgb(26.666667%, 26.666667%, 26.666667%)" stroke-opacity="1" stroke-miterlimit="10" d="M 430.515625 472.476562 L 458.277344 431.234375 "/>
<path fill="none" stroke-width="4" stroke-linecap="butt" stroke-linejoin="miter" stroke="rgb(26.666667%, 26.666667%, 26.666667%)" stroke-opacity="1" stroke-miterlimit="10" d="M 430.515625 472.476562 L 368.996094 467.550781 "/>
<path fill="none" stroke-width="1" stroke-linecap="butt" stroke-linejoin="miter" stroke="rgb(26.666667%, 26.666667%, 26.666667%)" stroke-opacity="1" stroke-miterlimit="10" d="M 349.160156 301.398438 L 362.089844 359.113281 "/>
<path fill="none" stroke-width="1" stroke-linecap="butt" stroke-linejoin="miter" stroke="rgb(26.666667%, 26.666667%, 26.666667%)" stroke-opacity="1" stroke-miterlimit="10" d="M 349.160156 301.398438 L 420.511719 277.445312 "/>
<path fill="none" stroke-width="1" stroke-linecap="butt" stroke-linejoin="miter" stroke="rgb(26.666667%, 26.666667%, 26.666667%)" stroke-opacity="1" stroke-miterlimit="10" d="M 349.160156 301.398438 L 295.785156 258.660156 "/>
<path fill="none" stroke-width="1" stroke-linecap="butt" stroke-linejoin="miter" stroke="rgb(26.666667%, 26.666667%, 26.666667%)" stroke-opacity="1" stroke-miterlimit="10" d="M 392.058594 412.40625 L 362.089844 359.113281 "/>
<path fill="none" stroke-width="4" stroke-linecap="butt" stroke-linejoin="miter" stroke="rgb(26.666667%, 26.666667%, 26.666667%)" stroke-opacity="1" stroke-miterlimit="10" d="M 580 509.683594 L 509.792969 497.527344 "/>
<path fill="none" stroke-width="5" stroke-linecap="butt" stroke-linejoin="miter" stroke="rgb(26.666667%, 26.666667%, 26.666667%)" stroke-opacity="1" stroke-miterlimit="10" d="M 382.417969 528.820312 L 349.058594 580 "/>
<path fill="none" stroke-width="3" stroke-linecap="butt" stroke-linejoin="miter" stroke="rgb(26.666667%, 26.666667%, 26.666667%)" stroke-opacity="1" stroke-miterlimit="10" d="M 125.578125 259.6875 L 162.851562 211.179688 "/>
<path fill="none" stroke-width="1" stroke-linecap="butt" stroke-linejoin="miter" stroke="rgb(26.666667%, 26.666667%, 26.666667%)" stroke-opacity="1" stroke-miterlimit="10" d="M 303.839844 204.960938 L 253.398438 200.117188 "/>
<path fill="none" stroke-width="6" stroke-linecap="butt" stroke-linejoin="miter" stroke="rgb(26.666667%, 26.666667%, 26.666667%)" stroke-opacity="1" stroke-miterlimit="10" d="M 20 181.988281 L 88.148438 192.625 "/>
<path fill="none" stroke-width="6" stroke-linecap="butt" stroke-linejoin="miter" stroke="rgb(26.666667%, 26.666667%, 26.666667%)" stroke-opacity="1" stroke-miterlimit="10" d="M 30.117188 233.230469 L 88.148438 192.625 "/>
<path fill="none" stroke-width="1" stroke-linecap="butt" stroke-linejoin="miter" stroke="rgb(26.666667%, 26.666667%, 26.666667%)" stroke-opacity="1" stroke-miterlimit="10" d="M 225.441406 243.703125 L 253.398438 200.117188 "/>
<path fill="none" stroke-width="1" stroke-linecap="butt" stroke-linejoin="miter" stroke="rgb(26.666667%, 26.666667%, 26.666667%)" stroke-opacity="1" stroke-miterlimit="10" d="M 205.726562 190.671875 L 253.398438 200.117188 "/>
<path fill="none" stroke-width="5" stroke-linecap="butt" stroke-linejoin="miter" stroke="rgb(26.666667%, 26.666667%, 26.666667%)" stroke-opacity="1" stroke-miterlimit="10" d="M 56.578125 138.285156 L 88.148438 192.625 "/>
<path fill="none" stroke-width="6" stroke-linecap="butt" stroke-linejoin="miter" stroke="rgb(26.666667%, 26.666667%, 26.666667%)" stroke-opacity="1" stroke-miterlimit="10" d="M 223.417969 157.378906 L 253.398438 200.117188 "/>
<path fill="none" stroke-width="1" stroke-linecap="butt" stroke-linejoin="miter" stroke="rgb(26.666667%, 26.666667%, 26.666667%)" stroke-opacity="1" stroke-miterlimit="10" d="M 270.5625 132.984375 L 327.328125 94.496094 "/>
<path fill="none" stroke-width="3" stroke-linecap="butt" stroke-linejoin="miter" stroke="rgb(26.666667%, 26.666667%, 26.666667%)" stroke-opacity="1" stroke-miterlimit="10" d="M 270.5625 132.984375 L 253.398438 200.117188 "/>
<path fill="none" stroke-width="2" stroke-linecap="butt" stroke-linejoin="miter" stroke="rgb(26.666667%, 26.666667%, 26.666667%)" stroke-opacity="1" stroke-miterlimit="10" d="M 270.5625 132.984375 L 251.609375 75.335938 "/>
<path fill="none" stroke-width="4" stroke-linecap="butt" stroke-linejoin="miter" stroke="rgb(26.666667%, 26.666667%, 26.666667%)" stroke-opacity="1" stroke-miterlimit="10" d="M 386.390625 138.957031 L 321.59375 170.84375 "/>
<path fill="none" stroke-width="3" stroke-linecap="butt" stroke-linejoin="miter" stroke="rgb(26.666667%, 26.666667%, 26.666667%)" stroke-opacity="1" stroke-miterlimit="10" d="M 260.6875 20 L 251.609375 75.335938 "/>
<path fill="none" stroke-width="2" stroke-linecap="butt" stroke-linejoin="miter" stroke="rgb(26.666667%, 26.666667%, 26.666667%)" stroke-opacity="1" stroke-miterlimit="10" d="M 295.785156 258.660156 L 253.398438 200.117188 "/>
<path fill="none" stroke-width="1" stroke-linecap="butt" stroke-linejoin="miter" stroke="rgb(26.666667%, 26.666667%, 26.666667%)" stroke-opacity="1" stroke-miterlimit="10" d="M 162.851562 211.179688 L 88.148438 192.625 "/>
<path fill="none" stroke-width="2" stroke-linecap="butt" stroke-linejoin="miter" stroke="rgb(26.666667%, 26.666667%, 26.666667%)" stroke-opacity="1" stroke-miterlimit="10" d="M 162.851562 211.179688 L 253.398438 200.117188 "/>
<path fill="none" stroke-width="3" stroke-linecap="butt" stroke-linejoin="miter" stroke="rgb(26.666667%, 26.666667%, 26.666667%)" stroke-opacity="1" stroke-miterlimit="10" d="M 321.59375 170.84375 L 253.398438 200.117188 "/>
<path fill-rule="nonzero" fill="rgb(100%, 0%, 0%)" fill-opacity="1" stroke-width="1" stroke-linecap="butt" stroke-linejoin="miter" stroke="rgb(0%, 0%, 0%)" stroke-opacity="1" stroke-miterlimit="10" d="M 440.515625 472.476562 C 440.515625 478 436.039062 482.476562 430.515625 482.476562 C 424.992188 482.476562 420.515625 478 420.515625 472.476562 C 420.515625 466.953125 424.992188 462.476562 430.515625 462.476562 C 436.039062 462.476562 440.515625 466.953125 440.515625 472.476562 "/>
<path fill-rule="nonzero" fill="rgb(100%, 0%, 0%)" fill-opacity="1" stroke-width="1" stroke-linecap="butt" stroke-linejoin="miter" stroke="rgb(0%, 0%, 0%)" stroke-opacity="1" stroke-miterlimit="10" d="M 437.546875 525.382812 C 437.546875 530.90625 433.070312 535.382812 427.546875 535.382812 C 422.023438 535.382812 417.546875 530.90625 417.546875 525.382812 C 417.546875 519.859375 422.023438 515.382812 427.546875 515.382812 C 433.070312 515.382812 437.546875 519.859375 437.546875 525.382812 "/>
<path fill-rule="nonzero" fill="rgb(100%, 0%, 0%)" fill-opacity="1" stroke-width="1" stroke-linecap="butt" stroke-linejoin="miter" stroke="rgb(0%, 0%, 0%)" stroke-opacity="1" stroke-miterlimit="10" d="M 359.160156 301.398438 C 359.160156 306.921875 354.683594 311.398438 349.160156 311.398438 C 343.636719 311.398438 339.160156 306.921875 339.160156 301.398438 C 339.160156 295.875 343.636719 291.398438 349.160156 291.398438 C 354.683594 291.398438 359.160156 295.875 359.160156 301.398438 "/>
<path fill-rule="nonzero" fill="rgb(100%, 0%, 0%)" fill-opacity="1" stroke-width="1" stroke-linecap="butt" stroke-linejoin="miter" stroke="rgb(0%, 0%, 0%)" stroke-opacity="1" stroke-miterlimit="10" d="M 402.058594 412.40625 C 402.058594 417.929688 397.582031 422.40625 392.058594 422.40625 C 386.535156 422.40625 382.058594 417.929688 382.058594 412.40625 C 382.058594 406.882812 386.535156 402.40625 392.058594 402.40625 C 397.582031 402.40625 402.058594 406.882812 402.058594 412.40625 "/>
<path fill-rule="nonzero" fill="rgb(100%, 0%, 0%)" fill-opacity="1" stroke-width="1" stroke-linecap="butt" stroke-linejoin="miter" stroke="rgb(0%, 0%, 0%)" stroke-opacity="1" stroke-miterlimit="10" d="M 509.558594 436.632812 C 509.558594 442.15625 505.082031 446.632812 499.558594 446.632812 C 494.035156 446.632812 489.558594 442.15625 489.558594 436.632812 C 489.558594 431.113281 494.035156 426.632812 499.558594 426.632812 C 505.082031 426.632812 509.558594 431.113281 509.558594 436.632812 "/>
<path fill-rule="nonzero" fill="rgb(100%, 0%, 0%)" fill-opacity="1" stroke-width="1" stroke-linecap="butt" stroke-linejoin="miter" stroke="rgb(0%, 0%, 0%)" stroke-opacity="1" stroke-miterlimit="10" d="M 590 509.683594 C 590 515.207031 585.523438 519.683594 580 519.683594 C 574.476562 519.683594 570 515.207031 570 509.683594 C 570 504.160156 574.476562 499.683594 580 499.683594 C 585.523438 499.683594 590 504.160156 590 509.683594 "/>
<path fill-rule="nonzero" fill="rgb(100%, 0%, 0%)" fill-opacity="1" stroke-width="1" stroke-linecap="butt" stroke-linejoin="miter" stroke="rgb(0%, 0%, 0%)" stroke-opacity="1" stroke-miterlimit="10" d="M 392.417969 528.820312 C 392.417969 534.34375 387.941406 538.820312 382.417969 538.820312 C 376.894531 538.820312 372.417969 534.34375 372.417969 528.820312 C 372.417969 523.296875 376.894531 518.820312 382.417969 518.820312 C 387.941406 518.820312 392.417969 523.296875 392.417969 528.820312 "/>
<path fill-rule="nonzero" fill="rgb(100%, 0%, 0%)" fill-opacity="1" stroke-width="1" stroke-linecap="butt" stroke-linejoin="miter" stroke="rgb(0%, 0%, 0%)" stroke-opacity="1" stroke-miterlimit="10" d="M 372.089844 359.113281 C 372.089844 364.636719 367.613281 369.113281 362.089844 369.113281 C 356.570312 369.113281 352.089844 364.636719 352.089844 359.113281 C 352.089844 353.589844 356.570312 349.113281 362.089844 349.113281 C 367.613281 349.113281 372.089844 353.589844 372.089844 359.113281 "/>
<path fill-rule="nonzero" fill="rgb(100%, 0%, 0%)" fill-opacity="1" stroke-width="1" stroke-linecap="butt" stroke-linejoin="miter" stroke="rgb(0%, 0%, 0%)" stroke-opacity="1" stroke-miterlimit="10" d="M 135.578125 259.6875 C 135.578125 265.210938 131.101562 269.6875 125.578125 269.6875 C 120.054688 269.6875 115.578125 265.210938 115.578125 259.6875 C 115.578125 254.164062 120.054688 249.6875 125.578125 249.6875 C 131.101562 249.6875 135.578125 254.164062 135.578125 259.6875 "/>
<path fill-rule="nonzero" fill="rgb(100%, 0%, 0%)" fill-opacity="1" stroke-width="1" stroke-linecap="butt" stroke-linejoin="miter" stroke="rgb(0%, 0%, 0%)" stroke-opacity="1" stroke-miterlimit="10" d="M 313.839844 204.960938 C 313.839844 210.484375 309.363281 214.960938 303.839844 214.960938 C 298.316406 214.960938 293.839844 210.484375 293.839844 204.960938 C 293.839844 199.4375 298.316406 194.960938 303.839844 194.960938 C 309.363281 194.960938 313.839844 199.4375 313.839844 204.960938 "/>
<path fill-rule="nonzero" fill="rgb(100%, 0%, 0%)" fill-opacity="1" stroke-width="1" stroke-linecap="butt" stroke-linejoin="miter" stroke="rgb(0%, 0%, 0%)" stroke-opacity="1" stroke-miterlimit="10" d="M 519.792969 497.527344 C 519.792969 503.050781 515.316406 507.527344 509.792969 507.527344 C 504.269531 507.527344 499.792969 503.050781 499.792969 497.527344 C 499.792969 492.007812 504.269531 487.527344 509.792969 487.527344 C 515.316406 487.527344 519.792969 492.007812 519.792969 497.527344 "/>
<path fill-rule="nonzero" fill="rgb(100%, 0%, 0%)" fill-opacity="1" stroke-width="1" stroke-linecap="butt" stroke-linejoin="miter" stroke="rgb(0%, 0%, 0%)" stroke-opacity="1" stroke-miterlimit="10" d="M 504.460938 467.378906 C 504.460938 472.902344 499.984375 477.378906 494.460938 477.378906 C 488.9375 477.378906 484.460938 472.902344 484.460938 467.378906 C 484.460938 461.855469 488.9375 457.378906 494.460938 457.378906 C 499.984375 457.378906 504.460938 461.855469 504.460938 467.378906 "/>
<path fill-rule="nonzero" fill="rgb(100%, 0%, 0%)" fill-opacity="1" stroke-width="1" stroke-linecap="butt" stroke-linejoin="miter" stroke="rgb(0%, 0%, 0%)" stroke-opacity="1" stroke-miterlimit="10" d="M 475.710938 521.070312 C 475.710938 526.59375 471.230469 531.070312 465.710938 531.070312 C 460.1875 531.070312 455.710938 526.59375 455.710938 521.070312 C 455.710938 515.546875 460.1875 511.070312 465.710938 511.070312 C 471.230469 511.070312 475.710938 515.546875 475.710938 521.070312 "/>
<path fill-rule="nonzero" fill="rgb(100%, 0%, 0%)" fill-opacity="1" stroke-width="1" stroke-linecap="butt" stroke-linejoin="miter" stroke="rgb(0%, 0%, 0%)" stroke-opacity="1" stroke-miterlimit="10" d="M 372.566406 495.402344 C 372.566406 500.925781 368.089844 505.402344 362.566406 505.402344 C 357.042969 505.402344 352.566406 500.925781 352.566406 495.402344 C 352.566406 489.882812 357.042969 485.402344 362.566406 485.402344 C 368.089844 485.402344 372.566406 489.882812 372.566406 495.402344 "/>
<path fill-rule="nonzero" fill="rgb(100%, 0%, 0%)" fill-opacity="1" stroke-width="1" stroke-linecap="butt" stroke-linejoin="miter" stroke="rgb(0%, 0%, 0%)" stroke-opacity="1" stroke-miterlimit="10" d="M 30 181.988281 C 30 187.507812 25.523438 191.988281 20 191.988281 C 14.476562 191.988281 10 187.507812 10 181.988281 C 10 176.464844 14.476562 171.988281 20 171.988281 C 25.523438 171.988281 30 176.464844 30 181.988281 "/>
<path fill-rule="nonzero" fill="rgb(100%, 0%, 0%)" fill-opacity="1" stroke-width="1" stroke-linecap="butt" stroke-linejoin="miter" stroke="rgb(0%, 0%, 0%)" stroke-opacity="1" stroke-miterlimit="10" d="M 40.117188 233.230469 C 40.117188 238.753906 35.640625 243.230469 30.117188 243.230469 C 24.59375 243.230469 20.117188 238.753906 20.117188 233.230469 C 20.117188 227.707031 24.59375 223.230469 30.117188 223.230469 C 35.640625 223.230469 40.117188 227.707031 40.117188 233.230469 "/>
<path fill-rule="nonzero" fill="rgb(100%, 0%, 0%)" fill-opacity="1" stroke-width="1" stroke-linecap="butt" stroke-linejoin="miter" stroke="rgb(0%, 0%, 0%)" stroke-opacity="1" stroke-miterlimit="10" d="M 359.058594 580 C 359.058594 585.523438 354.582031 590 349.058594 590 C 343.535156 590 339.058594 585.523438 339.058594 580 C 339.058594 574.476562 343.535156 570 349.058594 570 C 354.582031 570 359.058594 574.476562 359.058594 580 "/>
<path fill-rule="nonzero" fill="rgb(100%, 0%, 0%)" fill-opacity="1" stroke-width="1" stroke-linecap="butt" stroke-linejoin="miter" stroke="rgb(0%, 0%, 0%)" stroke-opacity="1" stroke-miterlimit="10" d="M 468.277344 431.234375 C 468.277344 436.757812 463.800781 441.234375 458.277344 441.234375 C 452.753906 441.234375 448.277344 436.757812 448.277344 431.234375 C 448.277344 425.710938 452.753906 421.234375 458.277344 421.234375 C 463.800781 421.234375 468.277344 425.710938 468.277344 431.234375 "/>
<path fill-rule="nonzero" fill="rgb(100%, 0%, 0%)" fill-opacity="1" stroke-width="1" stroke-linecap="butt" stroke-linejoin="miter" stroke="rgb(0%, 0%, 0%)" stroke-opacity="1" stroke-miterlimit="10" d="M 235.441406 243.703125 C 235.441406 249.226562 230.960938 253.703125 225.441406 253.703125 C 219.917969 253.703125 215.441406 249.226562 215.441406 243.703125 C 215.441406 238.179688 219.917969 233.703125 225.441406 233.703125 C 230.960938 233.703125 235.441406 238.179688 235.441406 243.703125 "/>
<path fill-rule="nonzero" fill="rgb(100%, 0%, 0%)" fill-opacity="1" stroke-width="1" stroke-linecap="butt" stroke-linejoin="miter" stroke="rgb(0%, 0%, 0%)" stroke-opacity="1" stroke-miterlimit="10" d="M 215.726562 190.671875 C 215.726562 196.195312 211.25 200.671875 205.726562 200.671875 C 200.203125 200.671875 195.726562 196.195312 195.726562 190.671875 C 195.726562 185.148438 200.203125 180.671875 205.726562 180.671875 C 211.25 180.671875 215.726562 185.148438 215.726562 190.671875 "/>
<path fill-rule="nonzero" fill="rgb(100%, 0%, 0%)" fill-opacity="1" stroke-width="1" stroke-linecap="butt" stroke-linejoin="miter" stroke="rgb(0%, 0%, 0%)" stroke-opacity="1" stroke-miterlimit="10" d="M 66.578125 138.285156 C 66.578125 143.804688 62.101562 148.285156 56.578125 148.285156 C 51.054688 148.285156 46.578125 143.804688 46.578125 138.285156 C 46.578125 132.761719 51.054688 128.285156 56.578125 128.285156 C 62.101562 128.285156 66.578125 132.761719 66.578125 138.285156 "/>
<path fill-rule="nonzero" fill="rgb(100%, 0%, 0%)" fill-opacity="1" stroke-width="1" stroke-linecap="butt" stroke-linejoin="miter" stroke="rgb(0%, 0%, 0%)" stroke-opacity="1" stroke-miterlimit="10" d="M 378.996094 467.550781 C 378.996094 473.074219 374.519531 477.550781 368.996094 477.550781 C 363.476562 477.550781 358.996094 473.074219 358.996094 467.550781 C 358.996094 462.027344 363.476562 457.550781 368.996094 457.550781 C 374.519531 457.550781 378.996094 462.027344 378.996094 467.550781 "/>
<path fill-rule="nonzero" fill="rgb(100%, 0%, 0%)" fill-opacity="1" stroke-width="1" stroke-linecap="butt" stroke-linejoin="miter" stroke="rgb(0%, 0%, 0%)" stroke-opacity="1" stroke-miterlimit="10" d="M 233.417969 157.378906 C 233.417969 162.902344 228.941406 167.378906 223.417969 167.378906 C 217.894531 167.378906 213.417969 162.902344 213.417969 157.378906 C 213.417969 151.859375 217.894531 147.378906 223.417969 147.378906 C 228.941406 147.378906 233.417969 151.859375 233.417969 157.378906 "/>
<path fill-rule="nonzero" fill="rgb(100%, 0%, 0%)" fill-opacity="1" stroke-width="1" stroke-linecap="butt" stroke-linejoin="miter" stroke="rgb(0%, 0%, 0%)" stroke-opacity="1" stroke-miterlimit="10" d="M 280.5625 132.984375 C 280.5625 138.507812 276.082031 142.984375 270.5625 142.984375 C 265.039062 142.984375 260.5625 138.507812 260.5625 132.984375 C 260.5625 127.460938 265.039062 122.984375 270.5625 122.984375 C 276.082031 122.984375 280.5625 127.460938 280.5625 132.984375 "/>
<path fill-rule="nonzero" fill="rgb(100%, 0%, 0%)" fill-opacity="1" stroke-width="1" stroke-linecap="butt" stroke-linejoin="miter" stroke="rgb(0%, 0%, 0%)" stroke-opacity="1" stroke-miterlimit="10" d="M 396.390625 138.957031 C 396.390625 144.480469 391.914062 148.957031 386.390625 148.957031 C 380.867188 148.957031 376.390625 144.480469 376.390625 138.957031 C 376.390625 133.4375 380.867188 128.957031 386.390625 128.957031 C 391.914062 128.957031 396.390625 133.4375 396.390625 138.957031 "/>
<path fill-rule="nonzero" fill="rgb(100%, 0%, 0%)" fill-opacity="1" stroke-width="1" stroke-linecap="butt" stroke-linejoin="miter" stroke="rgb(0%, 0%, 0%)" stroke-opacity="1" stroke-miterlimit="10" d="M 337.328125 94.496094 C 337.328125 100.019531 332.851562 104.496094 327.328125 104.496094 C 321.804688 104.496094 317.328125 100.019531 317.328125 94.496094 C 317.328125 88.972656 321.804688 84.496094 327.328125 84.496094 C 332.851562 84.496094 337.328125 88.972656 337.328125 94.496094 "/>
<path fill-rule="nonzero" fill="rgb(100%, 0%, 0%)" fill-opacity="1" stroke-width="1" stroke-linecap="butt" stroke-linejoin="miter" stroke="rgb(0%, 0%, 0%)" stroke-opacity="1" stroke-miterlimit="10" d="M 270.6875 20 C 270.6875 25.523438 266.210938 30 260.6875 30 C 255.167969 30 250.6875 25.523438 250.6875 20 C 250.6875 14.476562 255.167969 10 260.6875 10 C 266.210938 10 270.6875 14.476562 270.6875 20 "/>
<path fill-rule="nonzero" fill="rgb(100%, 0%, 0%)" fill-opacity="1" stroke-width="1" stroke-linecap="butt" stroke-linejoin="miter" stroke="rgb(0%, 0%, 0%)" stroke-opacity="1" stroke-miterlimit="10" d="M 430.511719 277.445312 C 430.511719 282.96875 426.035156 287.445312 420.511719 287.445312 C 414.988281 287.445312 410.511719 282.96875 410.511719 277.445312 C 410.511719 271.921875 414.988281 267.445312 420.511719 267.445312 C 426.035156 267.445312 430.511719 271.921875 430.511719 277.445312 "/>
<path fill-rule="nonzero" fill="rgb(100%, 0%, 0%)" fill-opacity="1" stroke-width="1" stroke-linecap="butt" stroke-linejoin="miter" stroke="rgb(0%, 0%, 0%)" stroke-opacity="1" stroke-miterlimit="10" d="M 305.785156 258.660156 C 305.785156 264.183594 301.308594 268.660156 295.785156 268.660156 C 290.265625 268.660156 285.785156 264.183594 285.785156 258.660156 C 285.785156 253.136719 290.265625 248.660156 295.785156 248.660156 C 301.308594 248.660156 305.785156 253.136719 305.785156 258.660156 "/>
<path fill-rule="nonzero" fill="rgb(100%, 0%, 0%)" fill-opacity="1" stroke-width="1" stroke-linecap="butt" stroke-linejoin="miter" stroke="rgb(0%, 0%, 0%)" stroke-opacity="1" stroke-miterlimit="10" d="M 261.609375 75.335938 C 261.609375 80.855469 257.132812 85.335938 251.609375 85.335938 C 246.085938 85.335938 241.609375 80.855469 241.609375 75.335938 C 241.609375 69.8125 246.085938 65.335938 251.609375 65.335938 C 257.132812 65.335938 261.609375 69.8125 261.609375 75.335938 "/>
<path fill-rule="nonzero" fill="rgb(100%, 0%, 0%)" fill-opacity="1" stroke-width="1" stroke-linecap="butt" stroke-linejoin="miter" stroke="rgb(0%, 0%, 0%)" stroke-opacity="1" stroke-miterlimit="10" d="M 172.851562 211.179688 C 172.851562 216.703125 168.375 221.179688 162.851562 221.179688 C 157.328125 221.179688 152.851562 216.703125 152.851562 211.179688 C 152.851562 205.65625 157.328125 201.179688 162.851562 201.179688 C 168.375 201.179688 172.851562 205.65625 172.851562 211.179688 "/>
<path fill-rule="nonzero" fill="rgb(100%, 0%, 0%)" fill-opacity="1" stroke-width="1" stroke-linecap="butt" stroke-linejoin="miter" stroke="rgb(0%, 0%, 0%)" stroke-opacity="1" stroke-miterlimit="10" d="M 331.59375 170.84375 C 331.59375 176.367188 327.117188 180.84375 321.59375 180.84375 C 316.070312 180.84375 311.59375 176.367188 311.59375 170.84375 C 311.59375 165.324219 316.070312 160.84375 321.59375 160.84375 C 327.117188 160.84375 331.59375 165.324219 331.59375 170.84375 "/>
<path fill-rule="nonzero" fill="rgb(100%, 0%, 0%)" fill-opacity="1" stroke-width="1" stroke-linecap="butt" stroke-linejoin="miter" stroke="rgb(0%, 0%, 0%)" stroke-opacity="1" stroke-miterlimit="10" d="M 98.148438 192.625 C 98.148438 198.148438 93.671875 202.625 88.148438 202.625 C 82.625 202.625 78.148438 198.148438 78.148438 192.625 C 78.148438 187.101562 82.625 182.625 88.148438 182.625 C 93.671875 182.625 98.148438 187.101562 98.148438 192.625 "/>
<path fill-rule="nonzero" fill="rgb(100%, 0%, 0%)" fill-opacity="1" stroke-width="1" stroke-linecap="butt" stroke-linejoin="miter" stroke="rgb(0%, 0%, 0%)" stroke-opacity="1" stroke-miterlimit="10" d="M 263.398438 200.117188 C 263.398438 205.640625 258.921875 210.117188 253.398438 210.117188 C 247.875 210.117188 243.398438 205.640625 243.398438 200.117188 C 243.398438 194.59375 247.875 190.117188 253.398438 190.117188 C 258.921875 190.117188 263.398438 194.59375 263.398438 200.117188 "/>
</svg>