<?xml version="1.0" encoding="UTF-8"?>
<svg xmlns="http://www.w3.org/2000/svg" xmlns:xlink="http://www.w3.org/1999/xlink" width="600" height="600" viewBox="0 0 600 600">
<rect x="-60" y="-60" width="720" height="720" fill="rgb(100%, 100%, 100%)" fill-opacity="1"/>
<path fill="none" stroke-width="4" stroke-linecap="butt" stroke-linejoin="miter" stroke="rgb(26.666667%, 26.666667%, 26.666667%)" stroke-opacity="1" stroke-miterlimit="10" d="M 380.421875 480.621094 L 461.328125 491.578125 "/>
<path fill="none" stroke-width="2" stroke-linecap="butt" stroke-linejoin="miter" stroke="rgb(26.666667%, 26.666667%, 26.666667%)" stroke-opacity="1" stroke-miterlimit="10" d="M 380.421875 480.621094 L 384.214844 425.71875 "/>
<path fill="none" stroke-width="2" stroke-linecap="butt" stroke-linejoin="miter" stroke="rgb(26.666667%, 26.666667%, 26.666667%)" stroke-opacity="1" stroke-miterlimit="10" d="M 380.421875 480.621094 L 374.707031 535.539062 "/>
<path fill="none" stroke-width="5" stroke-linecap="butt" stroke-linejoin="miter" stroke="rgb(26.666667%, 26.666667%, 26.666667%)" stroke-opacity="1" stroke-miterlimit="10" d="M 380.421875 480.621094 L 302.015625 500.609375 "/>
<path fill="none" stroke-width="1" stroke-linecap="butt" stroke-linejoin="miter" stroke="rgb(26.666667%, 26.666667%, 26.666667%)" stroke-opacity="1" stroke-miterlimit="10" d="M 380.421875 480.621094 L 339.300781 515.652344 "/>
<path fill="none" stroke-width="3" stroke-linecap="butt" stroke-linejoin="miter" stroke="rgb(26.666667%, 26.666667%, 26.666667%)" stroke-opacity="1" stroke-miterlimit="10" d="M 380.421875 480.621094 L 422.578125 507.300781 "/>
<path fill="none" stroke-width="3" stroke-linecap="butt" stroke-linejoin="miter" stroke="rgb(26.666667%, 26.666667%, 26.666667%)" stroke-opacity="1" stroke-miterlimit="10" d="M 380.421875 480.621094 L 319.707031 475.011719 "/>
<path fill="none" stroke-width="3" stroke-linecap="butt" stroke-linejoin="miter" stroke="rgb(26.666667%, 26.666667%, 26.666667%)" stroke-opacity="1" stroke-miterlimit="10" d="M 346.386719 379.824219 L 384.214844 425.71875 "/>
<path fill="none" stroke-width="2" stroke-linecap="butt" stroke-linejoin="miter" stroke="rgb(26.666667%, 26.666667%, 26.666667%)" stroke-opacity="1" stroke-miterlimit="10" d="M 346.386719 379.824219 L 355.644531 327.742188 "/>
<path fill="none" stroke-width="2" stroke-linecap="butt" stroke-linejoin="miter" stroke="rgb(26.666667%, 26.666667%, 26.666667%)" stroke-opacity="1" stroke-miterlimit="10" d="M 346.386719 379.824219 L 273.21875 392.683594 "/>
<path fill="none" stroke-width="5" stroke-linecap="butt" stroke-linejoin="miter" stroke="rgb(26.666667%, 26.666667%, 26.666667%)" stroke-opacity="1" stroke-miterlimit="10" d="M 495.9375 241.273438 L 425.660156 244.449219 "/>
<path fill="none" stroke-width="3" stroke-linecap="butt" stroke-linejoin="miter" stroke="rgb(26.666667%, 26.666667%, 26.666667%)" stroke-opacity="1" stroke-miterlimit="10" d="M 454.914062 416.304688 L 384.214844 425.71875 "/>
<path fill="none" stroke-width="3" stroke-linecap="butt" stroke-linejoin="miter" stroke="rgb(26.666667%, 26.666667%, 26.666667%)" stroke-opacity="1" stroke-miterlimit="10" d="M 342.628906 580 L 374.707031 535.539062 "/>
<path fill="none" stroke-width="3" stroke-linecap="butt" stroke-linejoin="miter" stroke="rgb(26.666667%, 26.666667%, 26.666667%)" stroke-opacity="1" stroke-miterlimit="10" d="M 523.542969 517.140625 L 461.328125 491.578125 "/>
<path fill="none" stroke-width="3" stroke-linecap="butt" stroke-linejoin="miter" stroke="rgb(26.666667%, 26.666667%, 26.666667%)" stroke-opacity="1" stroke-miterlimit="10" d="M 523.542969 517.140625 L 580 541.820312 "/>
<path fill="none" stroke-width="4" stroke-linecap="butt" stroke-linejoin="miter" stroke="rgb(26.666667%, 26.666667%, 26.666667%)" stroke-opacity="1" stroke-miterlimit="10" d="M 425.660156 244.449219 L 461.449219 199.539062 "/>
<path fill="none" stroke-width="3" stroke-linecap="butt" stroke-linejoin="miter" stroke="rgb(26.666667%, 26.666667%, 26.666667%)" stroke-opacity="1" stroke-miterlimit="10" d="M 425.660156 244.449219 L 347.257812 269.613281 "/>
<path fill="none" stroke-width="5" stroke-linecap="butt" stroke-linejoin="miter" stroke="rgb(26.666667%, 26.666667%, 26.666667%)" stroke-opacity="1" stroke-miterlimit="10" d="M 384.171875 240.375 L 347.257812 269.613281 "/>
<path fill="none" stroke-width="1" stroke-linecap="butt" stroke-linejoin="miter" stroke="rgb(26.666667%, 26.666667%, 26.666667%)" stroke-opacity="1" stroke-miterlimit="10" d="M 355.644531 327.742188 L 347.257812 269.613281 "/>
<path fill="none" stroke-width="1" stroke-linecap="butt" stroke-linejoin="miter" stroke="rgb(26.666667%, 26.666667%, 26.666667%)" stroke-opacity="1" stroke-miterlimit="10" d="M 313.605469 298.636719 L 347.257812 269.613281 "/>
<path fill="none" stroke-width="1" stroke-linecap="butt" stroke-linejoin="miter" stroke="rgb(26.666667%, 26.666667%, 26.666667%)" stroke-opacity="1" stroke-miterlimit="10" d="M 275.425781 287.390625 L 347.257812 269.613281 "/>
<path fill="none" stroke-width="5" stroke-linecap="butt" stroke-linejoin="miter" stroke="rgb(26.666667%, 26.666667%, 26.666667%)" stroke-opacity="1" stroke-miterlimit="10" d="M 352.585938 223.144531 L 347.257812 269.613281 "/>
<path fill="none" stroke-width="1" stroke-linecap="butt" stroke-linejoin="miter" stroke="rgb(26.666667%, 26.666667%, 26.666667%)" stroke-opacity="1" stroke-miterlimit="10" d="M 148.933594 223.886719 L 216.730469 203.9375 "/>
<path fill="none" stroke-width="7" stroke-linecap="butt" stroke-linejoin="miter" stroke="rgb(26.666667%, 26.666667%, 26.666667%)" stroke-opacity="1" stroke-miterlimit="10" d="M 298.230469 259.90625 L 347.257812 269.613281 "/>
<path fill="none" stroke-width="1" stroke-linecap="butt" stroke-linejoin="miter" stroke="rgb(26.666667%, 26.666667%, 26.666667%)" stroke-opacity="1" stroke-miterlimit="10" d="M 194.453125 156.449219 L 156.15625 114.765625 "/>
<path fill="none" stroke-width="2" stroke-linecap="butt" stroke-linejoin="miter" stroke="rgb(26.666667%, 26.666667%, 26.666667%)" stroke-opacity="1" stroke-miterlimit="10" d="M 194.453125 156.449219 L 216.730469 203.9375 "/>
<path fill="none" stroke-width="8" stroke-linecap="butt" stroke-linejoin="miter" stroke="rgb(26.666667%, 26.666667%, 26.666667%)" stroke-opacity="1" stroke-miterlimit="10" d="M 84.617188 109.582031 L 156.15625 114.765625 "/>
<path fill="none" stroke-width="6" stroke-linecap="butt" stroke-linejoin="miter" stroke="rgb(26.666667%, 26.666667%, 26.666667%)" stroke-opacity="1" stroke-miterlimit="10" d="M 84.617188 109.582031 L 20 97.609375 "/>
<path fill="none" stroke-width="1" stroke-linecap="butt" stroke-linejoin="miter" stroke="rgb(26.666667%, 26.666667%, 26.666667%)" stroke-opacity="1" stroke-miterlimit="10" d="M 156.15625 114.765625 L 178.09375 66.714844 "/>
<path fill="none" stroke-width="8" stroke-linecap="butt" stroke-linejoin="miter" stroke="rgb(26.666667%, 26.666667%, 26.666667%)" stroke-opacity="1" stroke-miterlimit="10" d="M 404.597656 284.125 L 347.257812 269.613281 "/>
<path fill="none" stroke-width="1" stroke-linecap="butt" stroke-linejoin="miter" stroke="rgb(26.666667%, 26.666667%, 26.666667%)" stroke-opacity="1" stroke-miterlimit="10" d="M 185.382812 20 L 178.09375 66.714844 "/>
<path fill="none" stroke-width="1" stroke-linecap="butt" stroke-linejoin="miter" stroke="rgb(26.666667%, 26.666667%, 26.666667%)" stroke-opacity="1" stroke-miterlimit="10" d="M 280.621094 229.507812 L 216.730469 203.9375 "/>
<path fill="none" stroke-width="2" stroke-linecap="butt" stroke-linejoin="miter" stroke="rgb(26.666667%, 26.666667%, 26.666667%)" stroke-opacity="1" stroke-miterlimit="10" d="M 280.621094 229.507812 L 347.257812 269.613281 "/>
<path fill-rule="nonzero" fill="rgb(100%, 0%, 0%)" fill-opacity="1" stroke-width="1" stroke-linecap="butt" stroke-linejoin="miter" stroke="rgb(0%, 0%, 0%)" stroke-opacity="1" stroke-miterlimit="10" d="M 390.421875 480.621094 C 390.421875 486.144531 385.945312 490.621094 380.421875 490.621094 C 374.898438 490.621094 370.421875 486.144531 370.421875 480.621094 C 370.421875 475.097656 374.898438 470.621094 380.421875 470.621094 C 385.945312 470.621094 390.421875 475.097656 390.421875 480.621094 "/>
<path fill-rule="nonzero" fill="rgb(100%, 0%, 0%)" fill-opacity="1" stroke-width="1" stroke-linecap="butt" stroke-linejoin="miter" stroke="rgb(0%, 0%, 0%)" stroke-opacity="1" stroke-miterlimit="10" d="M 356.386719 379.824219 C 356.386719 385.347656 351.910156 389.824219 346.386719 389.824219 C 340.863281 389.824219 336.386719 385.347656 336.386719 379.824219 C 336.386719 374.300781 340.863281 369.824219 346.386719 369.824219 C 351.910156 369.824219 356.386719 374.300781 356.386719 379.824219 "/>
<path fill-rule="nonzero" fill="rgb(100%, 0%, 0%)" fill-opacity="1" stroke-width="1" stroke-linecap="butt" stroke-linejoin="miter" stroke="rgb(0%, 0%, 0%)" stroke-opacity="1" stroke-miterlimit="10" d="M 505.9375 241.273438 C 505.9375 246.796875 501.460938 251.273438 495.9375 251.273438 C 490.414062 251.273438 485.9375 246.796875 485.9375 241.273438 C 485.9375 235.753906 490.414062 231.273438 495.9375 231.273438 C 501.460938 231.273438 505.9375 235.753906 505.9375 241.273438 "/>
<path fill-rule="nonzero" fill="rgb(100%, 0%, 0%)" fill-opacity="1" stroke-width="1" stroke-linecap="butt" stroke-linejoin="miter" stroke="rgb(0%, 0%, 0%)" stroke-opacity="1" stroke-miterlimit="10" d="M 464.914062 416.304688 C 464.914062 421.828125 460.4375 426.304688 454.914062 426.304688 C 449.390625 426.304688 444.914062 421.828125 444.914062 416.304688 C 444.914062 410.78125 449.390625 406.304688 454.914062 406.304688 C 460.4375 406.304688 464.914062 410.78125 464.914062 416.304688 "/>
<path fill-rule="nonzero" fill="rgb(100%, 0%, 0%)" fill-opacity="1" stroke-width="1" stroke-linecap="butt" stroke-linejoin="miter" stroke="rgb(0%, 0%, 0%)" stroke-opacity="1" stroke-miterlimit="10" d="M 352.628906 580 C 352.628906 585.523438 348.152344 590 342.628906 590 C 337.105469 590 332.628906 585.523438 332.628906 580 C 332.628906 574.476562 337.105469 570 342.628906 570 C 348.152344 570 352.628906 574.476562 352.628906 580 "/>
<path fill-rule="nonzero" fill="rgb(100%, 0%, 0%)" fill-opacity="1" stroke-width="1" stroke-linecap="butt" stroke-linejoin="miter" stroke="rgb(0%, 0%, 0%)" stroke-opacity="1" stroke-miterlimit="10" d="M 533.542969 517.140625 C 533.542969 522.660156 529.0625 527.140625 523.542969 527.140625 C 518.019531 527.140625 513.542969 522.660156 513.542969 517.140625 C 513.542969 511.617188 518.019531 507.140625 523.542969 507.140625 C 529.0625 507.140625 533.542969 511.617188 533.542969 517.140625 "/>
<path fill-rule="nonzero" fill="rgb(100%, 0%, 0%)" fill-opacity="1" stroke-width="1" stroke-linecap="butt" stroke-linejoin="miter" stroke="rgb(0%, 0%, 0%)" stroke-opacity="1" stroke-miterlimit="10" d="M 471.328125 491.578125 C 471.328125 497.101562 466.851562 501.578125 461.328125 501.578125 C 455.808594 501.578125 451.328125 497.101562 451.328125 491.578125 C 451.328125 486.054688 455.808594 481.578125 461.328125 481.578125 C 466.851562 481.578125 471.328125 486.054688 471.328125 491.578125 "/>
<path fill-rule="nonzero" fill="rgb(100%, 0%, 0%)" fill-opacity="1" stroke-width="1" stroke-linecap="butt" stroke-linejoin="miter" stroke="rgb(0%, 0%, 0%)" stroke-opacity="1" stroke-miterlimit="10" d="M 394.214844 425.71875 C 394.214844 431.238281 389.738281 435.71875 384.214844 435.71875 C 378.691406 435.71875 374.214844 431.238281 374.214844 425.71875 C 374.214844 420.195312 378.691406 415.71875 384.214844 415.71875 C 389.738281 415.71875 394.214844 420.195312 394.214844 425.71875 "/>
<path fill-rule="nonzero" fill="rgb(100%, 0%, 0%)" fill-opacity="1" stroke-width="1" stroke-linecap="butt" stroke-linejoin="miter" stroke="rgb(0%, 0%, 0%)" stroke-opacity="1" stroke-miterlimit="10" d="M 435.660156 244.449219 C 435.660156 249.972656 431.183594 254.449219 425.660156 254.449219 C 420.136719 254.449219 415.660156 249.972656 415.660156 244.449219 C 415.660156 238.925781 420.136719 234.449219 425.660156 234.449219 C 431.183594 234.449219 435.660156 238.925781 435.660156 244.449219 "/>
<path fill-rule="nonzero" fill="rgb(100%, 0%, 0%)" fill-opacity="1" stroke-width="1" stroke-linecap="butt" stroke-linejoin="miter" stroke="rgb(0%, 0%, 0%)" stroke-opacity="1" stroke-miterlimit="10" d="M 394.171875 240.375 C 394.171875 245.898438 389.695312 250.375 384.171875 250.375 C 378.648438 250.375 374.171875 245.898438 374.171875 240.375 C 374.171875 234.855469 378.648438 230.375 384.171875 230.375 C 389.695312 230.375 394.171875 234.855469 394.171875 240.375 "/>
<path fill-rule="nonzero" fill="rgb(100%, 0%, 0%)" fill-opacity="1" stroke-width="1" stroke-linecap="butt" stroke-linejoin="miter" stroke="rgb(0%, 0%, 0%)" stroke-opacity="1" stroke-miterlimit="10" d="M 384.707031 535.539062 C 384.707031 541.0625 380.230469 545.539062 374.707031 545.539062 C 369.183594 545.539062 364.707031 541.0625 364.707031 535.539062 C 364.707031 530.015625 369.183594 525.539062 374.707031 525.539062 C 380.230469 525.539062 384.707031 530.015625 384.707031 535.539062 "/>
<path fill-rule="nonzero" fill="rgb(100%, 0%, 0%)" fill-opacity="1" stroke-width="1" stroke-linecap="butt" stroke-linejoin="miter" stroke="rgb(0%, 0%, 0%)" stroke-opacity="1" stroke-miterlimit="10" d="M 312.015625 500.609375 C 312.015625 506.132812 307.539062 510.609375 302.015625 510.609375 C 296.492188 510.609375 292.015625 506.132812 292.015625 500.609375 C 292.015625 495.085938 296.492188 490.609375 302.015625 490.609375 C 307.539062 490.609375 312.015625 495.085938 312.015625 500.609375 "/>
<path fill-rule="nonzero" fill="rgb(100%, 0%, 0%)" fill-opacity="1" stroke-width="1" stroke-linecap="butt" stroke-linejoin="miter" stroke="rgb(0%, 0%, 0%)" stroke-opacity="1" stroke-miterlimit="10" d="M 349.300781 515.652344 C 349.300781 521.175781 344.824219 525.652344 339.300781 525.652344 C 333.777344 525.652344 329.300781 521.175781 329.300781 515.652344 C 329.300781 510.128906 333.777344 505.652344 339.300781 505.652344 C 344.824219 505.652344 349.300781 510.128906 349.300781 515.652344 "/>
<path fill-rule="nonzero" fill="rgb(100%, 0%, 0%)" fill-opacity="1" stroke-width="1" stroke-linecap="butt" stroke-linejoin="miter" stroke="rgb(0%, 0%, 0%)" stroke-opacity="1" stroke-miterlimit="10" d="M 365.644531 327.742188 C 365.644531 333.265625 361.167969 337.742188 355.644531 337.742188 C 350.121094 337.742188 345.644531 333.265625 345.644531 327.742188 C 345.644531 322.21875 350.121094 317.742188 355.644531 317.742188 C 361.167969 317.742188 365.644531 322.21875 365.644531 327.742188 "/>
<path fill-rule="nonzero" fill="rgb(100%, 0%, 0%)" fill-opacity="1" stroke-width="1" stroke-linecap="butt" stroke-linejoin="miter" stroke="rgb(0%, 0%, 0%)" stroke-opacity="1" stroke-miterlimit="10" d="M 323.605469 298.636719 C 323.605469 304.160156 319.128906 308.636719 313.605469 308.636719 C 308.082031 308.636719 303.605469 304.160156 303.605469 298.636719 C 303.605469 293.113281 308.082031 288.636719 313.605469 288.636719 C 319.128906 288.636719 323.605469 293.113281 323.605469 298.636719 "/>
<path fill-rule="nonzero" fill="rgb(100%, 0%, 0%)" fill-opacity="1" stroke-width="1" stroke-linecap="butt" stroke-linejoin="miter" stroke="rgb(0%, 0%, 0%)" stroke-opacity="1" stroke-miterlimit="10" d="M 285.425781 287.390625 C 285.425781 292.914062 280.949219 297.390625 275.425781 297.390625 C 269.902344 297.390625 265.425781 292.914062 265.425781 287.390625 C 265.425781 281.871094 269.902344 277.390625 275.425781 277.390625 C 280.949219 277.390625 285.425781 281.871094 285.425781 287.390625 "/>
<path fill-rule="nonzero" fill="rgb(100%, 0%, 0%)" fill-opacity="1" stroke-width="1" stroke-linecap="butt" stroke-linejoin="miter" stroke="rgb(0%, 0%, 0%)" stroke-opacity="1" stroke-miterlimit="10" d="M 590 541.820312 C 590 547.34375 585.523438 551.820312 580 551.820312 C 574.476562 551.820312 570 547.34375 570 541.820312 C 570 536.296875 574.476562 531.820312 580 531.820312 C 585.523438 531.820312 590 536.296875 590 541.820312 "/>
<path fill-rule="nonzero" fill="rgb(100%, 0%, 0%)" fill-opacity="1" stroke-width="1" stroke-linecap="butt" stroke-linejoin="miter" stroke="rgb(0%, 0%, 0%)" stroke-opacity="1" stroke-miterlimit="10" d="M 283.21875 392.683594 C 283.21875 398.207031 278.742188 402.683594 273.21875 402.683594 C 267.695312 402.683594 263.21875 398.207031 263.21875 392.683594 C 263.21875 387.160156 267.695312 382.683594 273.21875 382.683594 C 278.742188 382.683594 283.21875 387.160156 283.21875 392.683594 "/>
<path fill-rule="nonzero" fill="rgb(100%, 0%, 0%)" fill-opacity="1" stroke-width="1" stroke-linecap="butt" stroke-linejoin="miter" stroke="rgb(0%, 0%, 0%)" stroke-opacity="1" stroke-miterlimit="10" d="M 362.585938 223.144531 C 362.585938 228.667969 358.109375 233.144531 352.585938 233.144531 C 347.0625 233.144531 342.585938 228.667969 342.585938 223.144531 C 342.585938 217.621094 347.0625 213.144531 352.585938 213.144531 C 358.109375 213.144531 362.585938 217.621094 362.585938 223.144531 "/>
<path fill-rule="nonzero" fill="rgb(100%, 0%, 0%)" fill-opacity="1" stroke-width="1" stroke-linecap="butt" stroke-linejoin="miter" stroke="rgb(0%, 0%, 0%)" stroke-opacity="1" stroke-miterlimit="10" d="M 432.578125 507.300781 C 432.578125 512.824219 428.097656 517.300781 422.578125 517.300781 C 417.054688 517.300781 412.578125 512.824219 412.578125 507.300781 C 412.578125 501.777344 417.054688 497.300781 422.578125 497.300781 C 428.097656 497.300781 432.578125 501.777344 432.578125 507.300781 "/>
<path fill-rule="nonzero" fill="rgb(100%, 0%, 0%)" fill-opacity="1" stroke-width="1" stroke-linecap="butt" stroke-linejoin="miter" stroke="rgb(0%, 0%, 0%)" stroke-opacity="1" stroke-miterlimit="10" d="M 158.933594 223.886719 C 158.933594 229.410156 154.453125 233.886719 148.933594 233.886719 C 143.410156 233.886719 138.933594 229.410156 138.933594 223.886719 C 138.933594 218.363281 143.410156 213.886719 148.933594 213.886719 C 154.453125 213.886719 158.933594 218.363281 158.933594 223.886719 "/>
<path fill-rule="nonzero" fill="rgb(100%, 0%, 0%)" fill-opacity="1" stroke-width="1" stroke-linecap="butt" stroke-linejoin="miter" stroke="rgb(0%, 0%, 0%)" stroke-opacity="1" stroke-miterlimit="10" d="M 329.707031 475.011719 C 329.707031 480.535156 325.230469 485.011719 319.707031 485.011719 C 314.183594 485.011719 309.707031 480.535156 309.707031 475.011719 C 309.707031 469.488281 314.183594 465.011719 319.707031 465.011719 C 325.230469 465.011719 329.707031 469.488281 329.707031 475.011719 "/>
<path fill-rule="nonzero" fill="rgb(100%, 0%, 0%)" fill-opacity="1" stroke-width="1" stroke-linecap="butt" stroke-linejoin="miter" stroke="rgb(0%, 0%, 0%)" stroke-opacity="1" stroke-miterlimit="10" d="M 308.230469 259.90625 C 308.230469 265.425781 303.75 269.90625 298.230469 269.90625 C 292.707031 269.90625 288.230469 265.425781 288.230469 259.90625 C 288.230469 254.382812 292.707031 249.90625 298.230469 249.90625 C 303.75 249.90625 308.230469 254.382812 308.230469 259.90625 "/>
<path fill-rule="nonzero" fill="rgb(100%, 0%, 0%)" fill-opacity="1" stroke-width="1" stroke-linecap="butt" stroke-linejoin="miter" stroke="rgb(0%, 0%, 0%)" stroke-opacity="1" stroke-miterlimit="10" d="M 204.453125 156.449219 C 204.453125 161.972656 199.976562 166.449219 194.453125 166.449219 C 188.929688 166.449219 184.453125 161.972656 184.453125 156.449219 C 184.453125 150.929688 188.929688 146.449219 194.453125 146.449219 C 199.976562 146.449219 204.453125 150.929688 204.453125 156.449219 "/>
<path fill-rule="nonzero" fill="rgb(100%, 0%, 0%)" fill-opacity="1" stroke-width="1" stroke-linecap="butt" stroke-linejoin="miter" stroke="rgb(0%, 0%, 0%)" stroke-opacity="1" stroke-miterlimit="10" d="M 94.617188 109.582031 C 94.617188 115.105469 90.140625 119.582031 84.617188 119.582031 C 79.09375 119.582031 74.617188 115.105469 74.617188 109.582031 C 74.617188 104.058594 79.09375 99.582031 84.617188 99.582031 C 90.140625 99.582031 94.617188 104.058594 94.617188 109.582031 "/>
<path fill-rule="nonzero" fill="rgb(100%, 0%, 0%)" fill-opacity="1" stroke-width="1" stroke-linecap="butt" stroke-linejoin="miter" stroke="rgb(0%, 0%, 0%)" stroke-opacity="1" stroke-miterlimit="10" d="M 166.15625 114.765625 C 166.15625 120.289062 161.679688 124.765625 156.15625 124.765625 C 150.636719 124.765625 146.15625 120.289062 146.15625 114.765625 C 146.15625 109.242188 150.636719 104.765625 156.15625 104.765625 C 161.679688 104.765625 166.15625 109.242188 166.15625 114.765625 "/>
<path fill-rule="nonzero" fill="rgb(100%, 0%, 0%)" fill-opacity="1" stroke-width="1" stroke-linecap="butt" stroke-linejoin="miter" stroke="rgb(0%, 0%, 0%)" stroke-opacity="1" stroke-miterlimit="10" d="M 414.597656 284.125 C 414.597656 289.648438 410.121094 294.125 404.597656 294.125 C 399.074219 294.125 394.597656 289.648438 394.597656 284.125 C 394.597656 278.601562 399.074219 274.125 404.597656 274.125 C 410.121094 274.125 414.597656 278.601562 414.597656 284.125 "/>
<path fill-rule="nonzero" fill="rgb(100%, 0%, 0%)" fill-opacity="1" stroke-width="1" stroke-linecap="butt" stroke-linejoin="miter" stroke="rgb(0%, 0%, 0%)" stroke-opacity="1" stroke-miterlimit="10" d="M 30 97.609375 C 30 103.128906 25.523438 107.609375 20 107.609375 C 14.476562 107.609375 10 103.128906 10 97.609375 C 10 92.085938 14.476562 87.609375 20 87.609375 C 25.523438 87.609375 30 92.085938 30 97.609375 "/>
<path fill-rule="nonzero" fill="rgb(100%, 0%, 0%)" fill-opacity="1" stroke-width="1" stroke-linecap="butt" stroke-linejoin="miter" stroke="rgb(0%, 0%, 0%)" stroke-opacity="1" stroke-miterlimit="10" d="M 195.382812 20 C 195.382812 25.523438 190.90625 30 185.382812 30 C 179.863281 30 175.382812 25.523438 175.382812 20 C 175.382812 14.476562 179.863281 10 185.382812 10 C 190.90625 10 195.382812 14.476562 195.382812 20 "/>
<path fill-rule="nonzero" fill="rgb(100%, 0%, 0%)" fill-opacity="1" stroke-width="1" stroke-linecap="butt" stroke-linejoin="miter" stroke="rgb(0%, 0%, 0%)" stroke-opacity="1" stroke-miterlimit="10" d="M 290.621094 229.507812 C 290.621094 235.03125 286.144531 239.507812 280.621094 239.507812 C 275.097656 239.507812 270.621094 235.03125 270.621094 229.507812 C 270.621094 223.984375 275.097656 219.507812 280.621094 219.507812 C 286.144531 219.507812 290.621094 223.984375 290.621094 229.507812 "/>
<path fill-rule="nonzero" fill="rgb(100%, 0%, 0%)" fill-opacity="1" stroke-width="1" stroke-linecap="butt" stroke-linejoin="miter" stroke="rgb(0%, 0%, 0%)" stroke-opacity="1" stroke-miterlimit="10" d="M 471.449219 199.539062 C 471.449219 205.0625 466.972656 209.539062 461.449219 209.539062 C 455.925781 209.539062 451.449219 205.0625 451.449219 199.539062 C 451.449219 194.015625 455.925781 189.539062 461.449219 189.539062 C 466.972656 189.539062 471.449219 194.015625 471.449219 199.539062 "/>
<path fill-rule="nonzero" fill="rgb(100%, 0%, 0%)" fill-opacity="1" stroke-width="1" stroke-linecap="butt" stroke-linejoin="miter" stroke="rgb(0%, 0%, 0%)" stroke-opacity="1" stroke-miterlimit="10" d="M 188.09375 66.714844 C 188.09375 72.238281 183.617188 76.714844 178.09375 76.714844 C 172.570312 76.714844 168.09375 72.238281 168.09375 66.714844 C 168.09375 61.191406 172.570312 56.714844 178.09375 56.714844 C 183.617188 56.714844 188.09375 61.191406 188.09375 66.714844 "/>
<path fill-rule="nonzero" fill="rgb(100%, 0%, 0%)" fill-opacity="1" stroke-width="1" stroke-linecap="butt" stroke-linejoin="miter" stroke="rgb(0%, 0%, 0%)" stroke-opacity="1" stroke-miterlimit="10" d="M 226.730469 203.9375 C 226.730469 209.460938 222.253906 213.9375 216.730469 213.9375 C 211.207031 213.9375 206.730469 209.460938 206.730469 203.9375 C 206.730469 198.414062 211.207031 193.9375 216.730469 193.9375 C 222.253906 193.9375 226.730469 198.414062 226.730469 203.9375 "/>
<path fill-rule="nonzero" fill="rgb(100%, 0%, 0%)" fill-opacity="1" stroke-width="1" stroke-linecap="butt" stroke-linejoin="miter" stroke="rgb(0%, 0%, 0%)" stroke-opacity="1" stroke-miterlimit="10" d="M 357.257812 269.613281 C 357.257812 275.136719 352.78125 279.613281 347.257812 279.613281 C 341.734375 279.613281 337.257812 275.136719 337.257812 269.613281 C 337.257812 264.09375 341.734375 259.613281 347.257812 259.613281 C 352.78125 259.613281 357.257812 264.09375 357.257812 269.613281 "/>
</svg>