<?xml version="1.0" encoding="UTF-8"?>
<svg xmlns="http://www.w3.org/2000/svg" xmlns:xlink="http://www.w3.org/1999/xlink" width="600" height="600" viewBox="0 0 600 600">
<rect x="-60" y="-60" width="720" height="720" fill="rgb(100%, 100%, 100%)" fill-opacity="1"/>
<path fill="none" stroke-width="1" stroke-linecap="butt" stroke-linejoin="miter" stroke="rgb(26.666667%, 26.666667%, 26.666667%)" stroke-opacity="1" stroke-miterlimit="10" d="M 319.527344 466.550781 L 281.179688 414.515625 "/>
<path fill="none" stroke-width="2" stroke-linecap="butt" stroke-linejoin="miter" stroke="rgb(26.666667%, 26.666667%, 26.666667%)" stroke-opacity="1" stroke-miterlimit="10" d="M 319.527344 466.550781 L 412.054688 496.191406 "/>
<path fill="none" stroke-width="3" stroke-linecap="butt" stroke-linejoin="miter" stroke="rgb(26.666667%, 26.666667%, 26.666667%)" stroke-opacity="1" stroke-miterlimit="10" d="M 319.527344 466.550781 L 408.695312 453.542969 "/>
<path fill="none" stroke-width="9" stroke-linecap="butt" stroke-linejoin="miter" stroke="rgb(26.666667%, 26.666667%, 26.666667%)" stroke-opacity="1" stroke-miterlimit="10" d="M 319.527344 466.550781 L 321.976562 510.019531 "/>
<path fill="none" stroke-width="4" stroke-linecap="butt" stroke-linejoin="miter" stroke="rgb(26.666667%, 26.666667%, 26.666667%)" stroke-opacity="1" stroke-miterlimit="10" d="M 319.527344 466.550781 L 227.28125 488.441406 "/>
<path fill="none" stroke-width="2" stroke-linecap="butt" stroke-linejoin="miter" stroke="rgb(26.666667%, 26.666667%, 26.666667%)" stroke-opacity="1" stroke-miterlimit="10" d="M 319.527344 466.550781 L 259.050781 511.175781 "/>
<path fill="none" stroke-width="3" stroke-linecap="butt" stroke-linejoin="miter" stroke="rgb(26.666667%, 26.666667%, 26.666667%)" stroke-opacity="1" stroke-miterlimit="10" d="M 225.578125 367.878906 L 281.179688 414.515625 "/>
<path fill="none" stroke-width="1" stroke-linecap="butt" stroke-linejoin="miter" stroke="rgb(26.666667%, 26.666667%, 26.666667%)" stroke-opacity="1" stroke-miterlimit="10" d="M 225.578125 367.878906 L 117.597656 379.378906 "/>
<path fill="none" stroke-width="2" stroke-linecap="butt" stroke-linejoin="miter" stroke="rgb(26.666667%, 26.666667%, 26.666667%)" stroke-opacity="1" stroke-miterlimit="10" d="M 225.578125 367.878906 L 245.316406 315.542969 "/>
<path fill="none" stroke-width="3" stroke-linecap="butt" stroke-linejoin="miter" stroke="rgb(26.666667%, 26.666667%, 26.666667%)" stroke-opacity="1" stroke-miterlimit="10" d="M 281.179688 414.515625 L 367.894531 398.675781 "/>
<path fill="none" stroke-width="3" stroke-linecap="butt" stroke-linejoin="miter" stroke="rgb(26.666667%, 26.666667%, 26.666667%)" stroke-opacity="1" stroke-miterlimit="10" d="M 281.179688 414.515625 L 194.40625 433.6875 "/>
<path fill="none" stroke-width="1" stroke-linecap="butt" stroke-linejoin="miter" stroke="rgb(26.666667%, 26.666667%, 26.666667%)" stroke-opacity="1" stroke-miterlimit="10" d="M 117.597656 379.378906 L 20 393.5 "/>
<path fill="none" stroke-width="3" stroke-linecap="butt" stroke-linejoin="miter" stroke="rgb(26.666667%, 26.666667%, 26.666667%)" stroke-opacity="1" stroke-miterlimit="10" d="M 412.054688 496.191406 L 484.554688 530.203125 "/>
<path fill="none" stroke-width="3" stroke-linecap="butt" stroke-linejoin="miter" stroke="rgb(26.666667%, 26.666667%, 26.666667%)" stroke-opacity="1" stroke-miterlimit="10" d="M 580 534.074219 L 484.554688 530.203125 "/>
<path fill="none" stroke-width="4" stroke-linecap="butt" stroke-linejoin="miter" stroke="rgb(26.666667%, 26.666667%, 26.666667%)" stroke-opacity="1" stroke-miterlimit="10" d="M 484.554688 530.203125 L 485.421875 580 "/>
<path fill="none" stroke-width="3" stroke-linecap="butt" stroke-linejoin="miter" stroke="rgb(26.666667%, 26.666667%, 26.666667%)" stroke-opacity="1" stroke-miterlimit="10" d="M 281.636719 218.53125 L 220.667969 262.191406 "/>
<path fill="none" stroke-width="1" stroke-linecap="butt" stroke-linejoin="miter" stroke="rgb(26.666667%, 26.666667%, 26.666667%)" stroke-opacity="1" stroke-miterlimit="10" d="M 281.636719 218.53125 L 329.707031 165.925781 "/>
<path fill="none" stroke-width="1" stroke-linecap="butt" stroke-linejoin="miter" stroke="rgb(26.666667%, 26.666667%, 26.666667%)" stroke-opacity="1" stroke-miterlimit="10" d="M 374.105469 198.847656 L 329.707031 165.925781 "/>
<path fill="none" stroke-width="8" stroke-linecap="butt" stroke-linejoin="miter" stroke="rgb(26.666667%, 26.666667%, 26.666667%)" stroke-opacity="1" stroke-miterlimit="10" d="M 147.761719 278.410156 L 220.667969 262.191406 "/>
<path fill="none" stroke-width="4" stroke-linecap="butt" stroke-linejoin="miter" stroke="rgb(26.666667%, 26.666667%, 26.666667%)" stroke-opacity="1" stroke-miterlimit="10" d="M 393.773438 140.75 L 329.707031 165.925781 "/>
<path fill="none" stroke-width="2" stroke-linecap="butt" stroke-linejoin="miter" stroke="rgb(26.666667%, 26.666667%, 26.666667%)" stroke-opacity="1" stroke-miterlimit="10" d="M 103.519531 256.523438 L 220.667969 262.191406 "/>
<path fill="none" stroke-width="5" stroke-linecap="butt" stroke-linejoin="miter" stroke="rgb(26.666667%, 26.666667%, 26.666667%)" stroke-opacity="1" stroke-miterlimit="10" d="M 248.609375 164.875 L 329.707031 165.925781 "/>
<path fill="none" stroke-width="6" stroke-linecap="butt" stroke-linejoin="miter" stroke="rgb(26.666667%, 26.666667%, 26.666667%)" stroke-opacity="1" stroke-miterlimit="10" d="M 139.730469 235.917969 L 220.667969 262.191406 "/>
<path fill="none" stroke-width="4" stroke-linecap="butt" stroke-linejoin="miter" stroke="rgb(26.666667%, 26.666667%, 26.666667%)" stroke-opacity="1" stroke-miterlimit="10" d="M 292.519531 129.398438 L 329.707031 165.925781 "/>
<path fill="none" stroke-width="6" stroke-linecap="butt" stroke-linejoin="miter" stroke="rgb(26.666667%, 26.666667%, 26.666667%)" stroke-opacity="1" stroke-miterlimit="10" d="M 159.503906 97.835938 L 232.070312 132.429688 "/>
<path fill="none" stroke-width="1" stroke-linecap="butt" stroke-linejoin="miter" stroke="rgb(26.666667%, 26.666667%, 26.666667%)" stroke-opacity="1" stroke-miterlimit="10" d="M 398.488281 20 L 376.269531 64.109375 "/>
<path fill="none" stroke-width="8" stroke-linecap="butt" stroke-linejoin="miter" stroke="rgb(26.666667%, 26.666667%, 26.666667%)" stroke-opacity="1" stroke-miterlimit="10" d="M 376.269531 64.109375 L 353.6875 111.351562 "/>
<path fill="none" stroke-width="2" stroke-linecap="butt" stroke-linejoin="miter" stroke="rgb(26.666667%, 26.666667%, 26.666667%)" stroke-opacity="1" stroke-miterlimit="10" d="M 445.800781 159.539062 L 542.183594 150.957031 "/>
<path fill="none" stroke-width="2" stroke-linecap="butt" stroke-linejoin="miter" stroke="rgb(26.666667%, 26.666667%, 26.666667%)" stroke-opacity="1" stroke-miterlimit="10" d="M 445.800781 159.539062 L 329.707031 165.925781 "/>
<path fill="none" stroke-width="6" stroke-linecap="butt" stroke-linejoin="miter" stroke="rgb(26.666667%, 26.666667%, 26.666667%)" stroke-opacity="1" stroke-miterlimit="10" d="M 232.070312 132.429688 L 329.707031 165.925781 "/>
<path fill="none" stroke-width="6" stroke-linecap="butt" stroke-linejoin="miter" stroke="rgb(26.666667%, 26.666667%, 26.666667%)" stroke-opacity="1" stroke-miterlimit="10" d="M 418.085938 187.652344 L 329.707031 165.925781 "/>
<path fill="none" stroke-width="3" stroke-linecap="butt" stroke-linejoin="miter" stroke="rgb(26.666667%, 26.666667%, 26.666667%)" stroke-opacity="1" stroke-miterlimit="10" d="M 245.316406 315.542969 L 220.667969 262.191406 "/>
<path fill="none" stroke-width="1" stroke-linecap="butt" stroke-linejoin="miter" stroke="rgb(26.666667%, 26.666667%, 26.666667%)" stroke-opacity="1" stroke-miterlimit="10" d="M 353.6875 111.351562 L 329.707031 165.925781 "/>
<path fill-rule="nonzero" fill="rgb(100%, 0%, 0%)" fill-opacity="1" stroke-width="1" stroke-linecap="butt" stroke-linejoin="miter" stroke="rgb(0%, 0%, 0%)" stroke-opacity="1" stroke-miterlimit="10" d="M 329.527344 466.550781 C 329.527344 472.074219 325.050781 476.550781 319.527344 476.550781 C 314.003906 476.550781 309.527344 472.074219 309.527344 466.550781 C 309.527344 461.03125 314.003906 456.550781 319.527344 456.550781 C 325.050781 456.550781 329.527344 461.03125 329.527344 466.550781 "/>
<path fill-rule="nonzero" fill="rgb(100%, 0%, 0%)" fill-opacity="1" stroke-width="1" stroke-linecap="butt" stroke-linejoin="miter" stroke="rgb(0%, 0%, 0%)" stroke-opacity="1" stroke-miterlimit="10" d="M 235.578125 367.878906 C 235.578125 373.402344 231.097656 377.878906 225.578125 377.878906 C 220.054688 377.878906 215.578125 373.402344 215.578125 367.878906 C 215.578125 362.355469 220.054688 357.878906 225.578125 357.878906 C 231.097656 357.878906 235.578125 362.355469 235.578125 367.878906 "/>
<path fill-rule="nonzero" fill="rgb(100%, 0%, 0%)" fill-opacity="1" stroke-width="1" stroke-linecap="butt" stroke-linejoin="miter" stroke="rgb(0%, 0%, 0%)" stroke-opacity="1" stroke-miterlimit="10" d="M 291.179688 414.515625 C 291.179688 420.039062 286.703125 424.515625 281.179688 424.515625 C 275.65625 424.515625 271.179688 420.039062 271.179688 414.515625 C 271.179688 408.992188 275.65625 404.515625 281.179688 404.515625 C 286.703125 404.515625 291.179688 408.992188 291.179688 414.515625 "/>
<path fill-rule="nonzero" fill="rgb(100%, 0%, 0%)" fill-opacity="1" stroke-width="1" stroke-linecap="butt" stroke-linejoin="miter" stroke="rgb(0%, 0%, 0%)" stroke-opacity="1" stroke-miterlimit="10" d="M 127.597656 379.378906 C 127.597656 384.902344 123.121094 389.378906 117.597656 389.378906 C 112.074219 389.378906 107.597656 384.902344 107.597656 379.378906 C 107.597656 373.855469 112.074219 369.378906 117.597656 369.378906 C 123.121094 369.378906 127.597656 373.855469 127.597656 379.378906 "/>
<path fill-rule="nonzero" fill="rgb(100%, 0%, 0%)" fill-opacity="1" stroke-width="1" stroke-linecap="butt" stroke-linejoin="miter" stroke="rgb(0%, 0%, 0%)" stroke-opacity="1" stroke-miterlimit="10" d="M 422.054688 496.191406 C 422.054688 501.714844 417.578125 506.191406 412.054688 506.191406 C 406.53125 506.191406 402.054688 501.714844 402.054688 496.191406 C 402.054688 490.667969 406.53125 486.191406 412.054688 486.191406 C 417.578125 486.191406 422.054688 490.667969 422.054688 496.191406 "/>
<path fill-rule="nonzero" fill="rgb(100%, 0%, 0%)" fill-opacity="1" stroke-width="1" stroke-linecap="butt" stroke-linejoin="miter" stroke="rgb(0%, 0%, 0%)" stroke-opacity="1" stroke-miterlimit="10" d="M 590 534.074219 C 590 539.597656 585.523438 544.074219 580 544.074219 C 574.476562 544.074219 570 539.597656 570 534.074219 C 570 528.550781 574.476562 524.074219 580 524.074219 C 585.523438 524.074219 590 528.550781 590 534.074219 "/>
<path fill-rule="nonzero" fill="rgb(100%, 0%, 0%)" fill-opacity="1" stroke-width="1" stroke-linecap="butt" stroke-linejoin="miter" stroke="rgb(0%, 0%, 0%)" stroke-opacity="1" stroke-miterlimit="10" d="M 494.554688 530.203125 C 494.554688 535.726562 490.078125 540.203125 484.554688 540.203125 C 479.03125 540.203125 474.554688 535.726562 474.554688 530.203125 C 474.554688 524.679688 479.03125 520.203125 484.554688 520.203125 C 490.078125 520.203125 494.554688 524.679688 494.554688 530.203125 "/>
<path fill-rule="nonzero" fill="rgb(100%, 0%, 0%)" fill-opacity="1" stroke-width="1" stroke-linecap="butt" stroke-linejoin="miter" stroke="rgb(0%, 0%, 0%)" stroke-opacity="1" stroke-miterlimit="10" d="M 377.894531 398.675781 C 377.894531 404.199219 373.417969 408.675781 367.894531 408.675781 C 362.375 408.675781 357.894531 404.199219 357.894531 398.675781 C 357.894531 393.152344 362.375 388.675781 367.894531 388.675781 C 373.417969 388.675781 377.894531 393.152344 377.894531 398.675781 "/>
<path fill-rule="nonzero" fill="rgb(100%, 0%, 0%)" fill-opacity="1" stroke-width="1" stroke-linecap="butt" stroke-linejoin="miter" stroke="rgb(0%, 0%, 0%)" stroke-opacity="1" stroke-miterlimit="10" d="M 291.636719 218.53125 C 291.636719 224.054688 287.160156 228.53125 281.636719 228.53125 C 276.113281 228.53125 271.636719 224.054688 271.636719 218.53125 C 271.636719 213.007812 276.113281 208.53125 281.636719 208.53125 C 287.160156 208.53125 291.636719 213.007812 291.636719 218.53125 "/>
<path fill-rule="nonzero" fill="rgb(100%, 0%, 0%)" fill-opacity="1" stroke-width="1" stroke-linecap="butt" stroke-linejoin="miter" stroke="rgb(0%, 0%, 0%)" stroke-opacity="1" stroke-miterlimit="10" d="M 384.105469 198.847656 C 384.105469 204.371094 379.628906 208.847656 374.105469 208.847656 C 368.582031 208.847656 364.105469 204.371094 364.105469 198.847656 C 364.105469 193.324219 368.582031 188.847656 374.105469 188.847656 C 379.628906 188.847656 384.105469 193.324219 384.105469 198.847656 "/>
<path fill-rule="nonzero" fill="rgb(100%, 0%, 0%)" fill-opacity="1" stroke-width="1" stroke-linecap="butt" stroke-linejoin="miter" stroke="rgb(0%, 0%, 0%)" stroke-opacity="1" stroke-miterlimit="10" d="M 418.695312 453.542969 C 418.695312 459.066406 414.214844 463.542969 408.695312 463.542969 C 403.171875 463.542969 398.695312 459.066406 398.695312 453.542969 C 398.695312 448.019531 403.171875 443.542969 408.695312 443.542969 C 414.214844 443.542969 418.695312 448.019531 418.695312 453.542969 "/>
<path fill-rule="nonzero" fill="rgb(100%, 0%, 0%)" fill-opacity="1" stroke-width="1" stroke-linecap="butt" stroke-linejoin="miter" stroke="rgb(0%, 0%, 0%)" stroke-opacity="1" stroke-miterlimit="10" d="M 331.976562 510.019531 C 331.976562 515.542969 327.5 520.019531 321.976562 520.019531 C 316.453125 520.019531 311.976562 515.542969 311.976562 510.019531 C 311.976562 504.496094 316.453125 500.019531 321.976562 500.019531 C 327.5 500.019531 331.976562 504.496094 331.976562 510.019531 "/>
<path fill-rule="nonzero" fill="rgb(100%, 0%, 0%)" fill-opacity="1" stroke-width="1" stroke-linecap="butt" stroke-linejoin="miter" stroke="rgb(0%, 0%, 0%)" stroke-opacity="1" stroke-miterlimit="10" d="M 30 393.5 C 30 399.023438 25.523438 403.5 20 403.5 C 14.476562 403.5 10 399.023438 10 393.5 C 10 387.976562 14.476562 383.5 20 383.5 C 25.523438 383.5 30 387.976562 30 393.5 "/>
<path fill-rule="nonzero" fill="rgb(100%, 0%, 0%)" fill-opacity="1" stroke-width="1" stroke-linecap="butt" stroke-linejoin="miter" stroke="rgb(0%, 0%, 0%)" stroke-opacity="1" stroke-miterlimit="10" d="M 204.40625 433.6875 C 204.40625 439.210938 199.929688 443.6875 194.40625 443.6875 C 188.882812 443.6875 184.40625 439.210938 184.40625 433.6875 C 184.40625 428.164062 188.882812 423.6875 194.40625 423.6875 C 199.929688 423.6875 204.40625 428.164062 204.40625 433.6875 "/>
<path fill-rule="nonzero" fill="rgb(100%, 0%, 0%)" fill-opacity="1" stroke-width="1" stroke-linecap="butt" stroke-linejoin="miter" stroke="rgb(0%, 0%, 0%)" stroke-opacity="1" stroke-miterlimit="10" d="M 157.761719 278.410156 C 157.761719 283.933594 153.285156 288.410156 147.761719 288.410156 C 142.238281 288.410156 137.761719 283.933594 137.761719 278.410156 C 137.761719 272.886719 142.238281 268.410156 147.761719 268.410156 C 153.285156 268.410156 157.761719 272.886719 157.761719 278.410156 "/>
<path fill-rule="nonzero" fill="rgb(100%, 0%, 0%)" fill-opacity="1" stroke-width="1" stroke-linecap="butt" stroke-linejoin="miter" stroke="rgb(0%, 0%, 0%)" stroke-opacity="1" stroke-miterlimit="10" d="M 403.773438 140.75 C 403.773438 146.273438 399.296875 150.75 393.773438 150.75 C 388.25 150.75 383.773438 146.273438 383.773438 140.75 C 383.773438 135.230469 388.25 130.75 393.773438 130.75 C 399.296875 130.75 403.773438 135.230469 403.773438 140.75 "/>
<path fill-rule="nonzero" fill="rgb(100%, 0%, 0%)" fill-opacity="1" stroke-width="1" stroke-linecap="butt" stroke-linejoin="miter" stroke="rgb(0%, 0%, 0%)" stroke-opacity="1" stroke-miterlimit="10" d="M 495.421875 580 C 495.421875 585.523438 490.945312 590 485.421875 590 C 479.898438 590 475.421875 585.523438 475.421875 580 C 475.421875 574.476562 479.898438 570 485.421875 570 C 490.945312 570 495.421875 574.476562 495.421875 580 "/>
<path fill-rule="nonzero" fill="rgb(100%, 0%, 0%)" fill-opacity="1" stroke-width="1" stroke-linecap="butt" stroke-linejoin="miter" stroke="rgb(0%, 0%, 0%)" stroke-opacity="1" stroke-miterlimit="10" d="M 237.28125 488.441406 C 237.28125 493.964844 232.800781 498.441406 227.28125 498.441406 C 221.757812 498.441406 217.28125 493.964844 217.28125 488.441406 C 217.28125 482.917969 221.757812 478.441406 227.28125 478.441406 C 232.800781 478.441406 237.28125 482.917969 237.28125 488.441406 "/>
<path fill-rule="nonzero" fill="rgb(100%, 0%, 0%)" fill-opacity="1" stroke-width="1" stroke-linecap="butt" stroke-linejoin="miter" stroke="rgb(0%, 0%, 0%)" stroke-opacity="1" stroke-miterlimit="10" d="M 113.519531 256.523438 C 113.519531 262.046875 109.042969 266.523438 103.519531 266.523438 C 97.996094 266.523438 93.519531 262.046875 93.519531 256.523438 C 93.519531 251 97.996094 246.523438 103.519531 246.523438 C 109.042969 246.523438 113.519531 251 113.519531 256.523438 "/>
<path fill-rule="nonzero" fill="rgb(100%, 0%, 0%)" fill-opacity="1" stroke-width="1" stroke-linecap="butt" stroke-linejoin="miter" stroke="rgb(0%, 0%, 0%)" stroke-opacity="1" stroke-miterlimit="10" d="M 258.609375 164.875 C 258.609375 170.398438 254.132812 174.875 248.609375 174.875 C 243.085938 174.875 238.609375 170.398438 238.609375 164.875 C 238.609375 159.351562 243.085938 154.875 248.609375 154.875 C 254.132812 154.875 258.609375 159.351562 258.609375 164.875 "/>
<path fill-rule="nonzero" fill="rgb(100%, 0%, 0%)" fill-opacity="1" stroke-width="1" stroke-linecap="butt" stroke-linejoin="miter" stroke="rgb(0%, 0%, 0%)" stroke-opacity="1" stroke-miterlimit="10" d="M 149.730469 235.917969 C 149.730469 241.441406 145.253906 245.917969 139.730469 245.917969 C 134.207031 245.917969 129.730469 241.441406 129.730469 235.917969 C 129.730469 230.398438 134.207031 225.917969 139.730469 225.917969 C 145.253906 225.917969 149.730469 230.398438 149.730469 235.917969 "/>
<path fill-rule="nonzero" fill="rgb(100%, 0%, 0%)" fill-opacity="1" stroke-width="1" stroke-linecap="butt" stroke-linejoin="miter" stroke="rgb(0%, 0%, 0%)" stroke-opacity="1" stroke-miterlimit="10" d="M 269.050781 511.175781 C 269.050781 516.699219 264.574219 521.175781 259.050781 521.175781 C 253.527344 521.175781 249.050781 516.699219 249.050781 511.175781 C 249.050781 505.652344 253.527344 501.175781 259.050781 501.175781 C 264.574219 501.175781 269.050781 505.652344 269.050781 511.175781 "/>
<path fill-rule="nonzero" fill="rgb(100%, 0%, 0%)" fill-opacity="1" stroke-width="1" stroke-linecap="butt" stroke-linejoin="miter" stroke="rgb(0%, 0%, 0%)" stroke-opacity="1" stroke-miterlimit="10" d="M 302.519531 129.398438 C 302.519531 134.917969 298.042969 139.398438 292.519531 139.398438 C 286.996094 139.398438 282.519531 134.917969 282.519531 129.398438 C 282.519531 123.875 286.996094 119.398438 292.519531 119.398438 C 298.042969 119.398438 302.519531 123.875 302.519531 129.398438 "/>
<path fill-rule="nonzero" fill="rgb(100%, 0%, 0%)" fill-opacity="1" stroke-width="1" stroke-linecap="butt" stroke-linejoin="miter" stroke="rgb(0%, 0%, 0%)" stroke-opacity="1" stroke-miterlimit="10" d="M 169.503906 97.835938 C 169.503906 103.355469 165.027344 107.835938 159.503906 107.835938 C 153.980469 107.835938 149.503906 103.355469 149.503906 97.835938 C 149.503906 92.3125 153.980469 87.835938 159.503906 87.835938 C 165.027344 87.835938 169.503906 92.3125 169.503906 97.835938 "/>
<path fill-rule="nonzero" fill="rgb(100%, 0%, 0%)" fill-opacity="1" stroke-width="1" stroke-linecap="butt" stroke-linejoin="miter" stroke="rgb(0%, 0%, 0%)" stroke-opacity="1" stroke-miterlimit="10" d="M 408.488281 20 C 408.488281 25.523438 404.007812 30 398.488281 30 C 392.964844 30 388.488281 25.523438 388.488281 20 C 388.488281 14.476562 392.964844 10 398.488281 10 C 404.007812 10 408.488281 14.476562 408.488281 20 "/>
<path fill-rule="nonzero" fill="rgb(100%, 0%, 0%)" fill-opacity="1" stroke-width="1" stroke-linecap="butt" stroke-linejoin="miter" stroke="rgb(0%, 0%, 0%)" stroke-opacity="1" stroke-miterlimit="10" d="M 386.269531 64.109375 C 386.269531 69.632812 381.792969 74.109375 376.269531 74.109375 C 370.746094 74.109375 366.269531 69.632812 366.269531 64.109375 C 366.269531 58.589844 370.746094 54.109375 376.269531 54.109375 C 381.792969 54.109375 386.269531 58.589844 386.269531 64.109375 "/>
<path fill-rule="nonzero" fill="rgb(100%, 0%, 0%)" fill-opacity="1" stroke-width="1" stroke-linecap="butt" stroke-linejoin="miter" stroke="rgb(0%, 0%, 0%)" stroke-opacity="1" stroke-miterlimit="10" d="M 455.800781 159.539062 C 455.800781 165.0625 451.324219 169.539062 445.800781 169.539062 C 440.277344 169.539062 435.800781 165.0625 435.800781 159.539062 C 435.800781 154.015625 440.277344 149.539062 445.800781 149.539062 C 451.324219 149.539062 455.800781 154.015625 455.800781 159.539062 "/>
<path fill-rule="nonzero" fill="rgb(100%, 0%, 0%)" fill-opacity="1" stroke-width="1" stroke-linecap="butt" stroke-linejoin="miter" stroke="rgb(0%, 0%, 0%)" stroke-opacity="1" stroke-miterlimit="10" d="M 242.070312 132.429688 C 242.070312 137.953125 237.59375 142.429688 232.070312 142.429688 C 226.546875 142.429688 222.070312 137.953125 222.070312 132.429688 C 222.070312 126.90625 226.546875 122.429688 232.070312 122.429688 C 237.59375 122.429688 242.070312 126.90625 242.070312 132.429688 "/>
<path fill-rule="nonzero" fill="rgb(100%, 0%, 0%)" fill-opacity="1" stroke-width="1" stroke-linecap="butt" stroke-linejoin="miter" stroke="rgb(0%, 0%, 0%)" stroke-opacity="1" stroke-miterlimit="10" d="M 428.085938 187.652344 C 428.085938 193.175781 423.609375 197.652344 418.085938 197.652344 C 412.566406 197.652344 408.085938 193.175781 408.085938 187.652344 C 408.085938 182.132812 412.566406 177.652344 418.085938 177.652344 C 423.609375 177.652344 428.085938 182.132812 428.085938 187.652344 "/>
<path fill-rule="nonzero" fill="rgb(100%, 0%, 0%)" fill-opacity="1" stroke-width="1" stroke-linecap="butt" stroke-linejoin="miter" stroke="rgb(0%, 0%, 0%)" stroke-opacity="1" stroke-miterlimit="10" d="M 552.183594 150.957031 C 552.183594 156.476562 547.707031 160.957031 542.183594 160.957031 C 536.660156 160.957031 532.183594 156.476562 532.183594 150.957031 C 532.183594 145.433594 536.660156 140.957031 542.183594 140.957031 C 547.707031 140.957031 552.183594 145.433594 552.183594 150.957031 "/>
<path fill-rule="nonzero" fill="rgb(100%, 0%, 0%)" fill-opacity="1" stroke-width="1" stroke-linecap="butt" stroke-linejoin="miter" stroke="rgb(0%, 0%, 0%)" stroke-opacity="1" stroke-miterlimit="10" d="M 255.316406 315.542969 C 255.316406 321.066406 250.839844 325.542969 245.316406 325.542969 C 239.792969 325.542969 235.316406 321.066406 235.316406 315.542969 C 235.316406 310.019531 239.792969 305.542969 245.316406 305.542969 C 250.839844 305.542969 255.316406 310.019531 255.316406 315.542969 "/>
<path fill-rule="nonzero" fill="rgb(100%, 0%, 0%)" fill-opacity="1" stroke-width="1" stroke-linecap="butt" stroke-linejoin="miter" stroke="rgb(0%, 0%, 0%)" stroke-opacity="1" stroke-miterlimit="10" d="M 363.6875 111.351562 C 363.6875 116.875 359.210938 121.351562 353.6875 121.351562 C 348.164062 121.351562 343.6875 116.875 343.6875 111.351562 C 343.6875 105.828125 348.164062 101.351562 353.6875 101.351562 C 359.210938 101.351562 363.6875 105.828125 363.6875 111.351562 "/>
<path fill-rule="nonzero" fill="rgb(100%, 0%, 0%)" fill-opacity="1" stroke-width="1" stroke-linecap="butt" stroke-linejoin="miter" stroke="rgb(0%, 0%, 0%)" stroke-opacity="1" stroke-miterlimit="10" d="M 230.667969 262.191406 C 230.667969 267.714844 226.191406 272.191406 220.667969 272.191406 C 215.144531 272.191406 210.667969 267.714844 210.667969 262.191406 C 210.667969 256.667969 215.144531 252.191406 220.667969 252.191406 C 226.191406 252.191406 230.667969 256.667969 230.667969 262.191406 "/>
<path fill-rule="nonzero" fill="rgb(100%, 0%, 0%)" fill-opacity="1" stroke-width="1" stroke-linecap="butt" stroke-linejoin="miter" stroke="rgb(0%, 0%, 0%)" stroke-opacity="1" stroke-miterlimit="10" d="M 339.707031 165.925781 C 339.707031 171.449219 335.230469 175.925781 329.707031 175.925781 C 324.183594 175.925781 319.707031 171.449219 319.707031 165.925781 C 319.707031 160.402344 324.183594 155.925781 329.707031 155.925781 C 335.230469 155.925781 339.707031 160.402344 339.707031 165.925781 "/>
</svg>