<?xml version="1.0" encoding="UTF-8"?>
<svg xmlns="http://www.w3.org/2000/svg" xmlns:xlink="http://www.w3.org/1999/xlink" width="600" height="600" viewBox="0 0 600 600">
<rect x="-60" y="-60" width="720" height="720" fill="rgb(100%, 100%, 100%)" fill-opacity="1"/>
<path fill="none" stroke-width="5" stroke-linecap="butt" stroke-linejoin="miter" stroke="rgb(26.666667%, 26.666667%, 26.666667%)" stroke-opacity="1" stroke-miterlimit="10" d="M 167.457031 436.929688 L 119.605469 472.375 "/>
<path fill="none" stroke-width="3" stroke-linecap="butt" stroke-linejoin="miter" stroke="rgb(26.666667%, 26.666667%, 26.666667%)" stroke-opacity="1" stroke-miterlimit="10" d="M 167.457031 436.929688 L 193.117188 488.019531 "/>
<path fill="none" stroke-width="7" stroke-linecap="butt" stroke-linejoin="miter" stroke="rgb(26.666667%, 26.666667%, 26.666667%)" stroke-opacity="1" stroke-miterlimit="10" d="M 167.457031 436.929688 L 117.882812 409.011719 "/>
<path fill="none" stroke-width="2" stroke-linecap="butt" stroke-linejoin="miter" stroke="rgb(26.666667%, 26.666667%, 26.666667%)" stroke-opacity="1" stroke-miterlimit="10" d="M 167.457031 436.929688 L 108.945312 436.78125 "/>
<path fill="none" stroke-width="4" stroke-linecap="butt" stroke-linejoin="miter" stroke="rgb(26.666667%, 26.666667%, 26.666667%)" stroke-opacity="1" stroke-miterlimit="10" d="M 167.457031 436.929688 L 196.730469 387.605469 "/>
<path fill="none" stroke-width="5" stroke-linecap="butt" stroke-linejoin="miter" stroke="rgb(26.666667%, 26.666667%, 26.666667%)" stroke-opacity="1" stroke-miterlimit="10" d="M 167.457031 436.929688 L 219.304688 453.457031 "/>
<path fill="none" stroke-width="2" stroke-linecap="butt" stroke-linejoin="miter" stroke="rgb(26.666667%, 26.666667%, 26.666667%)" stroke-opacity="1" stroke-miterlimit="10" d="M 517.773438 188.273438 L 541.554688 138.492188 "/>
<path fill="none" stroke-width="4" stroke-linecap="butt" stroke-linejoin="miter" stroke="rgb(26.666667%, 26.666667%, 26.666667%)" stroke-opacity="1" stroke-miterlimit="10" d="M 517.773438 188.273438 L 555.152344 232.019531 "/>
<path fill="none" stroke-width="3" stroke-linecap="butt" stroke-linejoin="miter" stroke="rgb(26.666667%, 26.666667%, 26.666667%)" stroke-opacity="1" stroke-miterlimit="10" d="M 517.773438 188.273438 L 574.605469 192.207031 "/>
<path fill="none" stroke-width="2" stroke-linecap="butt" stroke-linejoin="miter" stroke="rgb(26.666667%, 26.666667%, 26.666667%)" stroke-opacity="1" stroke-miterlimit="10" d="M 517.773438 188.273438 L 458.136719 201.050781 "/>
<path fill="none" stroke-width="1" stroke-linecap="butt" stroke-linejoin="miter" stroke="rgb(26.666667%, 26.666667%, 26.666667%)" stroke-opacity="1" stroke-miterlimit="10" d="M 219.308594 340.402344 L 243.945312 293.042969 "/>
<path fill="none" stroke-width="2" stroke-linecap="butt" stroke-linejoin="miter" stroke="rgb(26.666667%, 26.666667%, 26.666667%)" stroke-opacity="1" stroke-miterlimit="10" d="M 219.308594 340.402344 L 196.730469 387.605469 "/>
<path fill="none" stroke-width="2" stroke-linecap="butt" stroke-linejoin="miter" stroke="rgb(26.666667%, 26.666667%, 26.666667%)" stroke-opacity="1" stroke-miterlimit="10" d="M 580 101.820312 L 541.554688 138.492188 "/>
<path fill="none" stroke-width="2" stroke-linecap="butt" stroke-linejoin="miter" stroke="rgb(26.666667%, 26.666667%, 26.666667%)" stroke-opacity="1" stroke-miterlimit="10" d="M 216.355469 534.125 L 193.117188 488.019531 "/>
<path fill="none" stroke-width="5" stroke-linecap="butt" stroke-linejoin="miter" stroke="rgb(26.666667%, 26.666667%, 26.666667%)" stroke-opacity="1" stroke-miterlimit="10" d="M 216.355469 534.125 L 229.757812 580 "/>
<path fill="none" stroke-width="3" stroke-linecap="butt" stroke-linejoin="miter" stroke="rgb(26.666667%, 26.666667%, 26.666667%)" stroke-opacity="1" stroke-miterlimit="10" d="M 119.605469 472.375 L 62.671875 491.09375 "/>
<path fill="none" stroke-width="3" stroke-linecap="butt" stroke-linejoin="miter" stroke="rgb(26.666667%, 26.666667%, 26.666667%)" stroke-opacity="1" stroke-miterlimit="10" d="M 398.144531 215.632812 L 458.136719 201.050781 "/>
<path fill="none" stroke-width="4" stroke-linecap="butt" stroke-linejoin="miter" stroke="rgb(26.666667%, 26.666667%, 26.666667%)" stroke-opacity="1" stroke-miterlimit="10" d="M 398.144531 215.632812 L 328.640625 208.164062 "/>
<path fill="none" stroke-width="4" stroke-linecap="butt" stroke-linejoin="miter" stroke="rgb(26.666667%, 26.666667%, 26.666667%)" stroke-opacity="1" stroke-miterlimit="10" d="M 243.945312 293.042969 L 271.464844 240.769531 "/>
<path fill="none" stroke-width="1" stroke-linecap="butt" stroke-linejoin="miter" stroke="rgb(26.666667%, 26.666667%, 26.666667%)" stroke-opacity="1" stroke-miterlimit="10" d="M 222.597656 247.476562 L 271.464844 240.769531 "/>
<path fill="none" stroke-width="8" stroke-linecap="butt" stroke-linejoin="miter" stroke="rgb(26.666667%, 26.666667%, 26.666667%)" stroke-opacity="1" stroke-miterlimit="10" d="M 305.421875 158.980469 L 328.640625 208.164062 "/>
<path fill="none" stroke-width="5" stroke-linecap="butt" stroke-linejoin="miter" stroke="rgb(26.666667%, 26.666667%, 26.666667%)" stroke-opacity="1" stroke-miterlimit="10" d="M 364.242188 184.902344 L 328.640625 208.164062 "/>
<path fill="none" stroke-width="2" stroke-linecap="butt" stroke-linejoin="miter" stroke="rgb(26.666667%, 26.666667%, 26.666667%)" stroke-opacity="1" stroke-miterlimit="10" d="M 254.179688 208.054688 L 271.464844 240.769531 "/>
<path fill="none" stroke-width="1" stroke-linecap="butt" stroke-linejoin="miter" stroke="rgb(26.666667%, 26.666667%, 26.666667%)" stroke-opacity="1" stroke-miterlimit="10" d="M 339.785156 154.558594 L 328.640625 208.164062 "/>
<path fill="none" stroke-width="3" stroke-linecap="butt" stroke-linejoin="miter" stroke="rgb(26.666667%, 26.666667%, 26.666667%)" stroke-opacity="1" stroke-miterlimit="10" d="M 55.128906 55.5625 L 90.902344 91.570312 "/>
<path fill="none" stroke-width="2" stroke-linecap="butt" stroke-linejoin="miter" stroke="rgb(26.666667%, 26.666667%, 26.666667%)" stroke-opacity="1" stroke-miterlimit="10" d="M 55.128906 55.5625 L 20 20 "/>
<path fill="none" stroke-width="1" stroke-linecap="butt" stroke-linejoin="miter" stroke="rgb(26.666667%, 26.666667%, 26.666667%)" stroke-opacity="1" stroke-miterlimit="10" d="M 127.792969 128.011719 L 90.902344 91.570312 "/>
<path fill="none" stroke-width="1" stroke-linecap="butt" stroke-linejoin="miter" stroke="rgb(26.666667%, 26.666667%, 26.666667%)" stroke-opacity="1" stroke-miterlimit="10" d="M 127.792969 128.011719 L 166.957031 164.726562 "/>
<path fill="none" stroke-width="1" stroke-linecap="butt" stroke-linejoin="miter" stroke="rgb(26.666667%, 26.666667%, 26.666667%)" stroke-opacity="1" stroke-miterlimit="10" d="M 352.808594 309.929688 L 309.820312 274.828125 "/>
<path fill="none" stroke-width="3" stroke-linecap="butt" stroke-linejoin="miter" stroke="rgb(26.666667%, 26.666667%, 26.666667%)" stroke-opacity="1" stroke-miterlimit="10" d="M 211.246094 201.402344 L 166.957031 164.726562 "/>
<path fill="none" stroke-width="4" stroke-linecap="butt" stroke-linejoin="miter" stroke="rgb(26.666667%, 26.666667%, 26.666667%)" stroke-opacity="1" stroke-miterlimit="10" d="M 211.246094 201.402344 L 271.464844 240.769531 "/>
<path fill="none" stroke-width="1" stroke-linecap="butt" stroke-linejoin="miter" stroke="rgb(26.666667%, 26.666667%, 26.666667%)" stroke-opacity="1" stroke-miterlimit="10" d="M 309.820312 274.828125 L 271.464844 240.769531 "/>
<path fill="none" stroke-width="1" stroke-linecap="butt" stroke-linejoin="miter" stroke="rgb(26.666667%, 26.666667%, 26.666667%)" stroke-opacity="1" stroke-miterlimit="10" d="M 328.640625 208.164062 L 271.464844 240.769531 "/>
<path fill-rule="nonzero" fill="rgb(100%, 0%, 0%)" fill-opacity="1" stroke-width="1" stroke-linecap="butt" stroke-linejoin="miter" stroke="rgb(0%, 0%, 0%)" stroke-opacity="1" stroke-miterlimit="10" d="M 177.457031 436.929688 C 177.457031 442.453125 172.980469 446.929688 167.457031 446.929688 C 161.933594 446.929688 157.457031 442.453125 157.457031 436.929688 C 157.457031 431.40625 161.933594 426.929688 167.457031 426.929688 C 172.980469 426.929688 177.457031 431.40625 177.457031 436.929688 "/>
<path fill-rule="nonzero" fill="rgb(100%, 0%, 0%)" fill-opacity="1" stroke-width="1" stroke-linecap="butt" stroke-linejoin="miter" stroke="rgb(0%, 0%, 0%)" stroke-opacity="1" stroke-miterlimit="10" d="M 527.773438 188.273438 C 527.773438 193.796875 523.292969 198.273438 517.773438 198.273438 C 512.25 198.273438 507.773438 193.796875 507.773438 188.273438 C 507.773438 182.75 512.25 178.273438 517.773438 178.273438 C 523.292969 178.273438 527.773438 182.75 527.773438 188.273438 "/>
<path fill-rule="nonzero" fill="rgb(100%, 0%, 0%)" fill-opacity="1" stroke-width="1" stroke-linecap="butt" stroke-linejoin="miter" stroke="rgb(0%, 0%, 0%)" stroke-opacity="1" stroke-miterlimit="10" d="M 229.308594 340.402344 C 229.308594 345.925781 224.832031 350.402344 219.308594 350.402344 C 213.789062 350.402344 209.308594 345.925781 209.308594 340.402344 C 209.308594 334.878906 213.789062 330.402344 219.308594 330.402344 C 224.832031 330.402344 229.308594 334.878906 229.308594 340.402344 "/>
<path fill-rule="nonzero" fill="rgb(100%, 0%, 0%)" fill-opacity="1" stroke-width="1" stroke-linecap="butt" stroke-linejoin="miter" stroke="rgb(0%, 0%, 0%)" stroke-opacity="1" stroke-miterlimit="10" d="M 590 101.820312 C 590 107.34375 585.523438 111.820312 580 111.820312 C 574.476562 111.820312 570 107.34375 570 101.820312 C 570 96.296875 574.476562 91.820312 580 91.820312 C 585.523438 91.820312 590 96.296875 590 101.820312 "/>
<path fill-rule="nonzero" fill="rgb(100%, 0%, 0%)" fill-opacity="1" stroke-width="1" stroke-linecap="butt" stroke-linejoin="miter" stroke="rgb(0%, 0%, 0%)" stroke-opacity="1" stroke-miterlimit="10" d="M 226.355469 534.125 C 226.355469 539.648438 221.878906 544.125 216.355469 544.125 C 210.832031 544.125 206.355469 539.648438 206.355469 534.125 C 206.355469 528.601562 210.832031 524.125 216.355469 524.125 C 221.878906 524.125 226.355469 528.601562 226.355469 534.125 "/>
<path fill-rule="nonzero" fill="rgb(100%, 0%, 0%)" fill-opacity="1" stroke-width="1" stroke-linecap="butt" stroke-linejoin="miter" stroke="rgb(0%, 0%, 0%)" stroke-opacity="1" stroke-miterlimit="10" d="M 129.605469 472.375 C 129.605469 477.894531 125.128906 482.375 119.605469 482.375 C 114.082031 482.375 109.605469 477.894531 109.605469 472.375 C 109.605469 466.851562 114.082031 462.375 119.605469 462.375 C 125.128906 462.375 129.605469 466.851562 129.605469 472.375 "/>
<path fill-rule="nonzero" fill="rgb(100%, 0%, 0%)" fill-opacity="1" stroke-width="1" stroke-linecap="butt" stroke-linejoin="miter" stroke="rgb(0%, 0%, 0%)" stroke-opacity="1" stroke-miterlimit="10" d="M 203.117188 488.019531 C 203.117188 493.542969 198.640625 498.019531 193.117188 498.019531 C 187.59375 498.019531 183.117188 493.542969 183.117188 488.019531 C 183.117188 482.496094 187.59375 478.019531 193.117188 478.019531 C 198.640625 478.019531 203.117188 482.496094 203.117188 488.019531 "/>
<path fill-rule="nonzero" fill="rgb(100%, 0%, 0%)" fill-opacity="1" stroke-width="1" stroke-linecap="butt" stroke-linejoin="miter" stroke="rgb(0%, 0%, 0%)" stroke-opacity="1" stroke-miterlimit="10" d="M 551.554688 138.492188 C 551.554688 144.015625 547.078125 148.492188 541.554688 148.492188 C 536.03125 148.492188 531.554688 144.015625 531.554688 138.492188 C 531.554688 132.96875 536.03125 128.492188 541.554688 128.492188 C 547.078125 128.492188 551.554688 132.96875 551.554688 138.492188 "/>
<path fill-rule="nonzero" fill="rgb(100%, 0%, 0%)" fill-opacity="1" stroke-width="1" stroke-linecap="butt" stroke-linejoin="miter" stroke="rgb(0%, 0%, 0%)" stroke-opacity="1" stroke-miterlimit="10" d="M 408.144531 215.632812 C 408.144531 221.15625 403.667969 225.632812 398.144531 225.632812 C 392.621094 225.632812 388.144531 221.15625 388.144531 215.632812 C 388.144531 210.113281 392.621094 205.632812 398.144531 205.632812 C 403.667969 205.632812 408.144531 210.113281 408.144531 215.632812 "/>
<path fill-rule="nonzero" fill="rgb(100%, 0%, 0%)" fill-opacity="1" stroke-width="1" stroke-linecap="butt" stroke-linejoin="miter" stroke="rgb(0%, 0%, 0%)" stroke-opacity="1" stroke-miterlimit="10" d="M 253.945312 293.042969 C 253.945312 298.5625 249.46875 303.042969 243.945312 303.042969 C 238.421875 303.042969 233.945312 298.5625 233.945312 293.042969 C 233.945312 287.519531 238.421875 283.042969 243.945312 283.042969 C 249.46875 283.042969 253.945312 287.519531 253.945312 293.042969 "/>
<path fill-rule="nonzero" fill="rgb(100%, 0%, 0%)" fill-opacity="1" stroke-width="1" stroke-linecap="butt" stroke-linejoin="miter" stroke="rgb(0%, 0%, 0%)" stroke-opacity="1" stroke-miterlimit="10" d="M 239.757812 580 C 239.757812 585.523438 235.28125 590 229.757812 590 C 224.234375 590 219.757812 585.523438 219.757812 580 C 219.757812 574.476562 224.234375 570 229.757812 570 C 235.28125 570 239.757812 574.476562 239.757812 580 "/>
<path fill-rule="nonzero" fill="rgb(100%, 0%, 0%)" fill-opacity="1" stroke-width="1" stroke-linecap="butt" stroke-linejoin="miter" stroke="rgb(0%, 0%, 0%)" stroke-opacity="1" stroke-miterlimit="10" d="M 127.882812 409.011719 C 127.882812 414.535156 123.40625 419.011719 117.882812 419.011719 C 112.359375 419.011719 107.882812 414.535156 107.882812 409.011719 C 107.882812 403.492188 112.359375 399.011719 117.882812 399.011719 C 123.40625 399.011719 127.882812 403.492188 127.882812 409.011719 "/>
<path fill-rule="nonzero" fill="rgb(100%, 0%, 0%)" fill-opacity="1" stroke-width="1" stroke-linecap="butt" stroke-linejoin="miter" stroke="rgb(0%, 0%, 0%)" stroke-opacity="1" stroke-miterlimit="10" d="M 118.945312 436.78125 C 118.945312 442.304688 114.464844 446.78125 108.945312 446.78125 C 103.421875 446.78125 98.945312 442.304688 98.945312 436.78125 C 98.945312 431.257812 103.421875 426.78125 108.945312 426.78125 C 114.464844 426.78125 118.945312 431.257812 118.945312 436.78125 "/>
<path fill-rule="nonzero" fill="rgb(100%, 0%, 0%)" fill-opacity="1" stroke-width="1" stroke-linecap="butt" stroke-linejoin="miter" stroke="rgb(0%, 0%, 0%)" stroke-opacity="1" stroke-miterlimit="10" d="M 206.730469 387.605469 C 206.730469 393.128906 202.253906 397.605469 196.730469 397.605469 C 191.207031 397.605469 186.730469 393.128906 186.730469 387.605469 C 186.730469 382.082031 191.207031 377.605469 196.730469 377.605469 C 202.253906 377.605469 206.730469 382.082031 206.730469 387.605469 "/>
<path fill-rule="nonzero" fill="rgb(100%, 0%, 0%)" fill-opacity="1" stroke-width="1" stroke-linecap="butt" stroke-linejoin="miter" stroke="rgb(0%, 0%, 0%)" stroke-opacity="1" stroke-miterlimit="10" d="M 232.597656 247.476562 C 232.597656 253 228.121094 257.476562 222.597656 257.476562 C 217.074219 257.476562 212.597656 253 212.597656 247.476562 C 212.597656 241.953125 217.074219 237.476562 222.597656 237.476562 C 228.121094 237.476562 232.597656 241.953125 232.597656 247.476562 "/>
<path fill-rule="nonzero" fill="rgb(100%, 0%, 0%)" fill-opacity="1" stroke-width="1" stroke-linecap="butt" stroke-linejoin="miter" stroke="rgb(0%, 0%, 0%)" stroke-opacity="1" stroke-miterlimit="10" d="M 315.421875 158.980469 C 315.421875 164.503906 310.945312 168.980469 305.421875 168.980469 C 299.898438 168.980469 295.421875 164.503906 295.421875 158.980469 C 295.421875 153.457031 299.898438 148.980469 305.421875 148.980469 C 310.945312 148.980469 315.421875 153.457031 315.421875 158.980469 "/>
<path fill-rule="nonzero" fill="rgb(100%, 0%, 0%)" fill-opacity="1" stroke-width="1" stroke-linecap="butt" stroke-linejoin="miter" stroke="rgb(0%, 0%, 0%)" stroke-opacity="1" stroke-miterlimit="10" d="M 72.671875 491.09375 C 72.671875 496.617188 68.195312 501.09375 62.671875 501.09375 C 57.148438 501.09375 52.671875 496.617188 52.671875 491.09375 C 52.671875 485.570312 57.148438 481.09375 62.671875 481.09375 C 68.195312 481.09375 72.671875 485.570312 72.671875 491.09375 "/>
<path fill-rule="nonzero" fill="rgb(100%, 0%, 0%)" fill-opacity="1" stroke-width="1" stroke-linecap="butt" stroke-linejoin="miter" stroke="rgb(0%, 0%, 0%)" stroke-opacity="1" stroke-miterlimit="10" d="M 565.152344 232.019531 C 565.152344 237.542969 560.675781 242.019531 555.152344 242.019531 C 549.628906 242.019531 545.152344 237.542969 545.152344 232.019531 C 545.152344 226.496094 549.628906 222.019531 555.152344 222.019531 C 560.675781 222.019531 565.152344 226.496094 565.152344 232.019531 "/>
<path fill-rule="nonzero" fill="rgb(100%, 0%, 0%)" fill-opacity="1" stroke-width="1" stroke-linecap="butt" stroke-linejoin="miter" stroke="rgb(0%, 0%, 0%)" stroke-opacity="1" stroke-miterlimit="10" d="M 374.242188 184.902344 C 374.242188 190.425781 369.765625 194.902344 364.242188 194.902344 C 358.722656 194.902344 354.242188 190.425781 354.242188 184.902344 C 354.242188 179.382812 358.722656 174.902344 364.242188 174.902344 C 369.765625 174.902344 374.242188 179.382812 374.242188 184.902344 "/>
<path fill-rule="nonzero" fill="rgb(100%, 0%, 0%)" fill-opacity="1" stroke-width="1" stroke-linecap="butt" stroke-linejoin="miter" stroke="rgb(0%, 0%, 0%)" stroke-opacity="1" stroke-miterlimit="10" d="M 229.304688 453.457031 C 229.304688 458.980469 224.828125 463.457031 219.304688 463.457031 C 213.78125 463.457031 209.304688 458.980469 209.304688 453.457031 C 209.304688 447.933594 213.78125 443.457031 219.304688 443.457031 C 224.828125 443.457031 229.304688 447.933594 229.304688 453.457031 "/>
<path fill-rule="nonzero" fill="rgb(100%, 0%, 0%)" fill-opacity="1" stroke-width="1" stroke-linecap="butt" stroke-linejoin="miter" stroke="rgb(0%, 0%, 0%)" stroke-opacity="1" stroke-miterlimit="10" d="M 264.179688 208.054688 C 264.179688 213.578125 259.703125 218.054688 254.179688 218.054688 C 248.660156 218.054688 244.179688 213.578125 244.179688 208.054688 C 244.179688 202.53125 248.660156 198.054688 254.179688 198.054688 C 259.703125 198.054688 264.179688 202.53125 264.179688 208.054688 "/>
<path fill-rule="nonzero" fill="rgb(100%, 0%, 0%)" fill-opacity="1" stroke-width="1" stroke-linecap="butt" stroke-linejoin="miter" stroke="rgb(0%, 0%, 0%)" stroke-opacity="1" stroke-miterlimit="10" d="M 584.605469 192.207031 C 584.605469 197.730469 580.128906 202.207031 574.605469 202.207031 C 569.082031 202.207031 564.605469 197.730469 564.605469 192.207031 C 564.605469 186.683594 569.082031 182.207031 574.605469 182.207031 C 580.128906 182.207031 584.605469 186.683594 584.605469 192.207031 "/>
<path fill-rule="nonzero" fill="rgb(100%, 0%, 0%)" fill-opacity="1" stroke-width="1" stroke-linecap="butt" stroke-linejoin="miter" stroke="rgb(0%, 0%, 0%)" stroke-opacity="1" stroke-miterlimit="10" d="M 349.785156 154.558594 C 349.785156 160.082031 345.304688 164.558594 339.785156 164.558594 C 334.261719 164.558594 329.785156 160.082031 329.785156 154.558594 C 329.785156 149.039062 334.261719 144.558594 339.785156 144.558594 C 345.304688 144.558594 349.785156 149.039062 349.785156 154.558594 "/>
<path fill-rule="nonzero" fill="rgb(100%, 0%, 0%)" fill-opacity="1" stroke-width="1" stroke-linecap="butt" stroke-linejoin="miter" stroke="rgb(0%, 0%, 0%)" stroke-opacity="1" stroke-miterlimit="10" d="M 65.128906 55.5625 C 65.128906 61.085938 60.648438 65.5625 55.128906 65.5625 C 49.605469 65.5625 45.128906 61.085938 45.128906 55.5625 C 45.128906 50.042969 49.605469 45.5625 55.128906 45.5625 C 60.648438 45.5625 65.128906 50.042969 65.128906 55.5625 "/>
<path fill-rule="nonzero" fill="rgb(100%, 0%, 0%)" fill-opacity="1" stroke-width="1" stroke-linecap="butt" stroke-linejoin="miter" stroke="rgb(0%, 0%, 0%)" stroke-opacity="1" stroke-miterlimit="10" d="M 137.792969 128.011719 C 137.792969 133.535156 133.316406 138.011719 127.792969 138.011719 C 122.269531 138.011719 117.792969 133.535156 117.792969 128.011719 C 117.792969 122.492188 122.269531 118.011719 127.792969 118.011719 C 133.316406 118.011719 137.792969 122.492188 137.792969 128.011719 "/>
<path fill-rule="nonzero" fill="rgb(100%, 0%, 0%)" fill-opacity="1" stroke-width="1" stroke-linecap="butt" stroke-linejoin="miter" stroke="rgb(0%, 0%, 0%)" stroke-opacity="1" stroke-miterlimit="10" d="M 100.902344 91.570312 C 100.902344 97.09375 96.421875 101.570312 90.902344 101.570312 C 85.378906 101.570312 80.902344 97.09375 80.902344 91.570312 C 80.902344 86.050781 85.378906 81.570312 90.902344 81.570312 C 96.421875 81.570312 100.902344 86.050781 100.902344 91.570312 "/>
<path fill-rule="nonzero" fill="rgb(100%, 0%, 0%)" fill-opacity="1" stroke-width="1" stroke-linecap="butt" stroke-linejoin="miter" stroke="rgb(0%, 0%, 0%)" stroke-opacity="1" stroke-miterlimit="10" d="M 362.808594 309.929688 C 362.808594 315.453125 358.332031 319.929688 352.808594 319.929688 C 347.285156 319.929688 342.808594 315.453125 342.808594 309.929688 C 342.808594 304.410156 347.285156 299.929688 352.808594 299.929688 C 358.332031 299.929688 362.808594 304.410156 362.808594 309.929688 "/>
<path fill-rule="nonzero" fill="rgb(100%, 0%, 0%)" fill-opacity="1" stroke-width="1" stroke-linecap="butt" stroke-linejoin="miter" stroke="rgb(0%, 0%, 0%)" stroke-opacity="1" stroke-miterlimit="10" d="M 30 20 C 30 25.523438 25.523438 30 20 30 C 14.476562 30 10 25.523438 10 20 C 10 14.476562 14.476562 10 20 10 C 25.523438 10 30 14.476562 30 20 "/>
<path fill-rule="nonzero" fill="rgb(100%, 0%, 0%)" fill-opacity="1" stroke-width="1" stroke-linecap="butt" stroke-linejoin="miter" stroke="rgb(0%, 0%, 0%)" stroke-opacity="1" stroke-miterlimit="10" d="M 221.246094 201.402344 C 221.246094 206.925781 216.769531 211.402344 211.246094 211.402344 C 205.726562 211.402344 201.246094 206.925781 201.246094 201.402344 C 201.246094 195.878906 205.726562 191.402344 211.246094 191.402344 C 216.769531 191.402344 221.246094 195.878906 221.246094 201.402344 "/>
<path fill-rule="nonzero" fill="rgb(100%, 0%, 0%)" fill-opacity="1" stroke-width="1" stroke-linecap="butt" stroke-linejoin="miter" stroke="rgb(0%, 0%, 0%)" stroke-opacity="1" stroke-miterlimit="10" d="M 319.820312 274.828125 C 319.820312 280.347656 315.34375 284.828125 309.820312 284.828125 C 304.296875 284.828125 299.820312 280.347656 299.820312 274.828125 C 299.820312 269.304688 304.296875 264.828125 309.820312 264.828125 C 315.34375 264.828125 319.820312 269.304688 319.820312 274.828125 "/>
<path fill-rule="nonzero" fill="rgb(100%, 0%, 0%)" fill-opacity="1" stroke-width="1" stroke-linecap="butt" stroke-linejoin="miter" stroke="rgb(0%, 0%, 0%)" stroke-opacity="1" stroke-miterlimit="10" d="M 468.136719 201.050781 C 468.136719 206.574219 463.660156 211.050781 458.136719 211.050781 C 452.613281 211.050781 448.136719 206.574219 448.136719 201.050781 C 448.136719 195.527344 452.613281 191.050781 458.136719 191.050781 C 463.660156 191.050781 468.136719 195.527344 468.136719 201.050781 "/>
<path fill-rule="nonzero" fill="rgb(100%, 0%, 0%)" fill-opacity="1" stroke-width="1" stroke-linecap="butt" stroke-linejoin="miter" stroke="rgb(0%, 0%, 0%)" stroke-opacity="1" stroke-miterlimit="10" d="M 176.957031 164.726562 C 176.957031 170.25 172.480469 174.726562 166.957031 174.726562 C 161.433594 174.726562 156.957031 170.25 156.957031 164.726562 C 156.957031 159.203125 161.433594 154.726562 166.957031 154.726562 C 172.480469 154.726562 176.957031 159.203125 176.957031 164.726562 "/>
<path fill-rule="nonzero" fill="rgb(100%, 0%, 0%)" fill-opacity="1" stroke-width="1" stroke-linecap="butt" stroke-linejoin="miter" stroke="rgb(0%, 0%, 0%)" stroke-opacity="1" stroke-miterlimit="10" d="M 338.640625 208.164062 C 338.640625 213.6875 334.164062 218.164062 328.640625 218.164062 C 323.117188 218.164062 318.640625 213.6875 318.640625 208.164062 C 318.640625 202.640625 323.117188 198.164062 328.640625 198.164062 C 334.164062 198.164062 338.640625 202.640625 338.640625 208.164062 "/>
<path fill-rule="nonzero" fill="rgb(100%, 0%, 0%)" fill-opacity="1" stroke-width="1" stroke-linecap="butt" stroke-linejoin="miter" stroke="rgb(0%, 0%, 0%)" stroke-opacity="1" stroke-miterlimit="10" d="M 281.464844 240.769531 C 281.464844 246.289062 276.988281 250.769531 271.464844 250.769531 C 265.945312 250.769531 261.464844 246.289062 261.464844 240.769531 C 261.464844 235.246094 265.945312 230.769531 271.464844 230.769531 C 276.988281 230.769531 281.464844 235.246094 281.464844 240.769531 "/>
</svg>