<?xml version="1.0" encoding="UTF-8"?>
<svg xmlns="http://www.w3.org/2000/svg" xmlns:xlink="http://www.w3.org/1999/xlink" width="600" height="600" viewBox="0 0 600 600">
<rect x="-60" y="-60" width="720" height="720" fill="rgb(100%, 100%, 100%)" fill-opacity="1"/>
<path fill="none" stroke-width="2" stroke-linecap="butt" stroke-linejoin="miter" stroke="rgb(26.666667%, 26.666667%, 26.666667%)" stroke-opacity="1" stroke-miterlimit="10" d="M 314.371094 461.21875 L 329.144531 415.121094 "/>
<path fill="none" stroke-width="1" stroke-linecap="butt" stroke-linejoin="miter" stroke="rgb(26.666667%, 26.666667%, 26.666667%)" stroke-opacity="1" stroke-miterlimit="10" d="M 314.371094 461.21875 L 389.660156 489.996094 "/>
<path fill="none" stroke-width="9" stroke-linecap="butt" stroke-linejoin="miter" stroke="rgb(26.666667%, 26.666667%, 26.666667%)" stroke-opacity="1" stroke-miterlimit="10" d="M 314.371094 461.21875 L 309.367188 494.625 "/>
<path fill="none" stroke-width="2" stroke-linecap="butt" stroke-linejoin="miter" stroke="rgb(26.666667%, 26.666667%, 26.666667%)" stroke-opacity="1" stroke-miterlimit="10" d="M 314.371094 461.21875 L 230.242188 486.644531 "/>
<path fill="none" stroke-width="4" stroke-linecap="butt" stroke-linejoin="miter" stroke="rgb(26.666667%, 26.666667%, 26.666667%)" stroke-opacity="1" stroke-miterlimit="10" d="M 314.371094 461.21875 L 249.441406 448.808594 "/>
<path fill="none" stroke-width="1" stroke-linecap="butt" stroke-linejoin="miter" stroke="rgb(26.666667%, 26.666667%, 26.666667%)" stroke-opacity="1" stroke-miterlimit="10" d="M 98.816406 536.726562 L 161.40625 510.09375 "/>
<path fill="none" stroke-width="1" stroke-linecap="butt" stroke-linejoin="miter" stroke="rgb(26.666667%, 26.666667%, 26.666667%)" stroke-opacity="1" stroke-miterlimit="10" d="M 98.816406 536.726562 L 20 534.511719 "/>
<path fill="none" stroke-width="4" stroke-linecap="butt" stroke-linejoin="miter" stroke="rgb(26.666667%, 26.666667%, 26.666667%)" stroke-opacity="1" stroke-miterlimit="10" d="M 98.816406 536.726562 L 87.742188 580 "/>
<path fill="none" stroke-width="2" stroke-linecap="butt" stroke-linejoin="miter" stroke="rgb(26.666667%, 26.666667%, 26.666667%)" stroke-opacity="1" stroke-miterlimit="10" d="M 351.074219 371.625 L 329.144531 415.121094 "/>
<path fill="none" stroke-width="3" stroke-linecap="butt" stroke-linejoin="miter" stroke="rgb(26.666667%, 26.666667%, 26.666667%)" stroke-opacity="1" stroke-miterlimit="10" d="M 351.074219 371.625 L 434.484375 373.628906 "/>
<path fill="none" stroke-width="1" stroke-linecap="butt" stroke-linejoin="miter" stroke="rgb(26.666667%, 26.666667%, 26.666667%)" stroke-opacity="1" stroke-miterlimit="10" d="M 351.074219 371.625 L 325.542969 328.496094 "/>
<path fill="none" stroke-width="2" stroke-linecap="butt" stroke-linejoin="miter" stroke="rgb(26.666667%, 26.666667%, 26.666667%)" stroke-opacity="1" stroke-miterlimit="10" d="M 161.40625 510.09375 L 230.242188 486.644531 "/>
<path fill="none" stroke-width="2" stroke-linecap="butt" stroke-linejoin="miter" stroke="rgb(26.666667%, 26.666667%, 26.666667%)" stroke-opacity="1" stroke-miterlimit="10" d="M 466.261719 507.132812 L 526.375 534.847656 "/>
<path fill="none" stroke-width="1" stroke-linecap="butt" stroke-linejoin="miter" stroke="rgb(26.666667%, 26.666667%, 26.666667%)" stroke-opacity="1" stroke-miterlimit="10" d="M 466.261719 507.132812 L 389.660156 489.996094 "/>
<path fill="none" stroke-width="2" stroke-linecap="butt" stroke-linejoin="miter" stroke="rgb(26.666667%, 26.666667%, 26.666667%)" stroke-opacity="1" stroke-miterlimit="10" d="M 384.023438 534.152344 L 389.660156 489.996094 "/>
<path fill="none" stroke-width="5" stroke-linecap="butt" stroke-linejoin="miter" stroke="rgb(26.666667%, 26.666667%, 26.666667%)" stroke-opacity="1" stroke-miterlimit="10" d="M 526.375 534.847656 L 580 563.570312 "/>
<path fill="none" stroke-width="3" stroke-linecap="butt" stroke-linejoin="miter" stroke="rgb(26.666667%, 26.666667%, 26.666667%)" stroke-opacity="1" stroke-miterlimit="10" d="M 325.542969 328.496094 L 309.105469 282.386719 "/>
<path fill="none" stroke-width="4" stroke-linecap="butt" stroke-linejoin="miter" stroke="rgb(26.666667%, 26.666667%, 26.666667%)" stroke-opacity="1" stroke-miterlimit="10" d="M 280.007812 195.671875 L 358.40625 189.574219 "/>
<path fill="none" stroke-width="1" stroke-linecap="butt" stroke-linejoin="miter" stroke="rgb(26.666667%, 26.666667%, 26.666667%)" stroke-opacity="1" stroke-miterlimit="10" d="M 435.058594 167.125 L 358.40625 189.574219 "/>
<path fill="none" stroke-width="1" stroke-linecap="butt" stroke-linejoin="miter" stroke="rgb(26.666667%, 26.666667%, 26.666667%)" stroke-opacity="1" stroke-miterlimit="10" d="M 335.933594 237.46875 L 309.105469 282.386719 "/>
<path fill="none" stroke-width="2" stroke-linecap="butt" stroke-linejoin="miter" stroke="rgb(26.666667%, 26.666667%, 26.666667%)" stroke-opacity="1" stroke-miterlimit="10" d="M 335.933594 237.46875 L 358.40625 189.574219 "/>
<path fill="none" stroke-width="4" stroke-linecap="butt" stroke-linejoin="miter" stroke="rgb(26.666667%, 26.666667%, 26.666667%)" stroke-opacity="1" stroke-miterlimit="10" d="M 294.585938 175.535156 L 358.40625 189.574219 "/>
<path fill="none" stroke-width="7" stroke-linecap="butt" stroke-linejoin="miter" stroke="rgb(26.666667%, 26.666667%, 26.666667%)" stroke-opacity="1" stroke-miterlimit="10" d="M 234.804688 294.871094 L 309.105469 282.386719 "/>
<path fill="none" stroke-width="5" stroke-linecap="butt" stroke-linejoin="miter" stroke="rgb(26.666667%, 26.666667%, 26.666667%)" stroke-opacity="1" stroke-miterlimit="10" d="M 225.210938 271.753906 L 309.105469 282.386719 "/>
<path fill="none" stroke-width="1" stroke-linecap="butt" stroke-linejoin="miter" stroke="rgb(26.666667%, 26.666667%, 26.666667%)" stroke-opacity="1" stroke-miterlimit="10" d="M 228.320312 130.4375 L 312.121094 143.558594 "/>
<path fill="none" stroke-width="1" stroke-linecap="butt" stroke-linejoin="miter" stroke="rgb(26.666667%, 26.666667%, 26.666667%)" stroke-opacity="1" stroke-miterlimit="10" d="M 325.28125 100.359375 L 312.121094 143.558594 "/>
<path fill="none" stroke-width="3" stroke-linecap="butt" stroke-linejoin="miter" stroke="rgb(26.666667%, 26.666667%, 26.666667%)" stroke-opacity="1" stroke-miterlimit="10" d="M 325.28125 100.359375 L 328.722656 59.636719 "/>
<path fill="none" stroke-width="4" stroke-linecap="butt" stroke-linejoin="miter" stroke="rgb(26.666667%, 26.666667%, 26.666667%)" stroke-opacity="1" stroke-miterlimit="10" d="M 325.765625 20 L 328.722656 59.636719 "/>
<path fill="none" stroke-width="10" stroke-linecap="butt" stroke-linejoin="miter" stroke="rgb(26.666667%, 26.666667%, 26.666667%)" stroke-opacity="1" stroke-miterlimit="10" d="M 393.042969 155.871094 L 358.40625 189.574219 "/>
<path fill="none" stroke-width="3" stroke-linecap="butt" stroke-linejoin="miter" stroke="rgb(26.666667%, 26.666667%, 26.666667%)" stroke-opacity="1" stroke-miterlimit="10" d="M 312.121094 143.558594 L 358.40625 189.574219 "/>
<path fill="none" stroke-width="5" stroke-linecap="butt" stroke-linejoin="miter" stroke="rgb(26.666667%, 26.666667%, 26.666667%)" stroke-opacity="1" stroke-miterlimit="10" d="M 449.265625 190.679688 L 358.40625 189.574219 "/>
<path fill="none" stroke-width="7" stroke-linecap="butt" stroke-linejoin="miter" stroke="rgb(26.666667%, 26.666667%, 26.666667%)" stroke-opacity="1" stroke-miterlimit="10" d="M 420.816406 208.742188 L 358.40625 189.574219 "/>
<path fill="none" stroke-width="1" stroke-linecap="butt" stroke-linejoin="miter" stroke="rgb(26.666667%, 26.666667%, 26.666667%)" stroke-opacity="1" stroke-miterlimit="10" d="M 386.609375 288.175781 L 309.105469 282.386719 "/>
<path fill-rule="nonzero" fill="rgb(100%, 0%, 0%)" fill-opacity="1" stroke-width="1" stroke-linecap="butt" stroke-linejoin="miter" stroke="rgb(0%, 0%, 0%)" stroke-opacity="1" stroke-miterlimit="10" d="M 324.371094 461.21875 C 324.371094 466.742188 319.894531 471.21875 314.371094 471.21875 C 308.847656 471.21875 304.371094 466.742188 304.371094 461.21875 C 304.371094 455.695312 308.847656 451.21875 314.371094 451.21875 C 319.894531 451.21875 324.371094 455.695312 324.371094 461.21875 "/>
<path fill-rule="nonzero" fill="rgb(100%, 0%, 0%)" fill-opacity="1" stroke-width="1" stroke-linecap="butt" stroke-linejoin="miter" stroke="rgb(0%, 0%, 0%)" stroke-opacity="1" stroke-miterlimit="10" d="M 108.816406 536.726562 C 108.816406 542.25 104.339844 546.726562 98.816406 546.726562 C 93.292969 546.726562 88.816406 542.25 88.816406 536.726562 C 88.816406 531.203125 93.292969 526.726562 98.816406 526.726562 C 104.339844 526.726562 108.816406 531.203125 108.816406 536.726562 "/>
<path fill-rule="nonzero" fill="rgb(100%, 0%, 0%)" fill-opacity="1" stroke-width="1" stroke-linecap="butt" stroke-linejoin="miter" stroke="rgb(0%, 0%, 0%)" stroke-opacity="1" stroke-miterlimit="10" d="M 361.074219 371.625 C 361.074219 377.148438 356.597656 381.625 351.074219 381.625 C 345.554688 381.625 341.074219 377.148438 341.074219 371.625 C 341.074219 366.101562 345.554688 361.625 351.074219 361.625 C 356.597656 361.625 361.074219 366.101562 361.074219 371.625 "/>
<path fill-rule="nonzero" fill="rgb(100%, 0%, 0%)" fill-opacity="1" stroke-width="1" stroke-linecap="butt" stroke-linejoin="miter" stroke="rgb(0%, 0%, 0%)" stroke-opacity="1" stroke-miterlimit="10" d="M 171.40625 510.09375 C 171.40625 515.617188 166.929688 520.09375 161.40625 520.09375 C 155.886719 520.09375 151.40625 515.617188 151.40625 510.09375 C 151.40625 504.570312 155.886719 500.09375 161.40625 500.09375 C 166.929688 500.09375 171.40625 504.570312 171.40625 510.09375 "/>
<path fill-rule="nonzero" fill="rgb(100%, 0%, 0%)" fill-opacity="1" stroke-width="1" stroke-linecap="butt" stroke-linejoin="miter" stroke="rgb(0%, 0%, 0%)" stroke-opacity="1" stroke-miterlimit="10" d="M 476.261719 507.132812 C 476.261719 512.65625 471.78125 517.132812 466.261719 517.132812 C 460.738281 517.132812 456.261719 512.65625 456.261719 507.132812 C 456.261719 501.613281 460.738281 497.132812 466.261719 497.132812 C 471.78125 497.132812 476.261719 501.613281 476.261719 507.132812 "/>
<path fill-rule="nonzero" fill="rgb(100%, 0%, 0%)" fill-opacity="1" stroke-width="1" stroke-linecap="butt" stroke-linejoin="miter" stroke="rgb(0%, 0%, 0%)" stroke-opacity="1" stroke-miterlimit="10" d="M 394.023438 534.152344 C 394.023438 539.675781 389.546875 544.152344 384.023438 544.152344 C 378.5 544.152344 374.023438 539.675781 374.023438 534.152344 C 374.023438 528.628906 378.5 524.152344 384.023438 524.152344 C 389.546875 524.152344 394.023438 528.628906 394.023438 534.152344 "/>
<path fill-rule="nonzero" fill="rgb(100%, 0%, 0%)" fill-opacity="1" stroke-width="1" stroke-linecap="butt" stroke-linejoin="miter" stroke="rgb(0%, 0%, 0%)" stroke-opacity="1" stroke-miterlimit="10" d="M 536.375 534.847656 C 536.375 540.371094 531.894531 544.847656 526.375 544.847656 C 520.851562 544.847656 516.375 540.371094 516.375 534.847656 C 516.375 529.328125 520.851562 524.847656 526.375 524.847656 C 531.894531 524.847656 536.375 529.328125 536.375 534.847656 "/>
<path fill-rule="nonzero" fill="rgb(100%, 0%, 0%)" fill-opacity="1" stroke-width="1" stroke-linecap="butt" stroke-linejoin="miter" stroke="rgb(0%, 0%, 0%)" stroke-opacity="1" stroke-miterlimit="10" d="M 339.144531 415.121094 C 339.144531 420.644531 334.667969 425.121094 329.144531 425.121094 C 323.625 425.121094 319.144531 420.644531 319.144531 415.121094 C 319.144531 409.597656 323.625 405.121094 329.144531 405.121094 C 334.667969 405.121094 339.144531 409.597656 339.144531 415.121094 "/>
<path fill-rule="nonzero" fill="rgb(100%, 0%, 0%)" fill-opacity="1" stroke-width="1" stroke-linecap="butt" stroke-linejoin="miter" stroke="rgb(0%, 0%, 0%)" stroke-opacity="1" stroke-miterlimit="10" d="M 335.542969 328.496094 C 335.542969 334.019531 331.066406 338.496094 325.542969 338.496094 C 320.019531 338.496094 315.542969 334.019531 315.542969 328.496094 C 315.542969 322.972656 320.019531 318.496094 325.542969 318.496094 C 331.066406 318.496094 335.542969 322.972656 335.542969 328.496094 "/>
<path fill-rule="nonzero" fill="rgb(100%, 0%, 0%)" fill-opacity="1" stroke-width="1" stroke-linecap="butt" stroke-linejoin="miter" stroke="rgb(0%, 0%, 0%)" stroke-opacity="1" stroke-miterlimit="10" d="M 444.484375 373.628906 C 444.484375 379.148438 440.007812 383.628906 434.484375 383.628906 C 428.960938 383.628906 424.484375 379.148438 424.484375 373.628906 C 424.484375 368.105469 428.960938 363.628906 434.484375 363.628906 C 440.007812 363.628906 444.484375 368.105469 444.484375 373.628906 "/>
<path fill-rule="nonzero" fill="rgb(100%, 0%, 0%)" fill-opacity="1" stroke-width="1" stroke-linecap="butt" stroke-linejoin="miter" stroke="rgb(0%, 0%, 0%)" stroke-opacity="1" stroke-miterlimit="10" d="M 399.660156 489.996094 C 399.660156 495.519531 395.183594 499.996094 389.660156 499.996094 C 384.136719 499.996094 379.660156 495.519531 379.660156 489.996094 C 379.660156 484.472656 384.136719 479.996094 389.660156 479.996094 C 395.183594 479.996094 399.660156 484.472656 399.660156 489.996094 "/>
<path fill-rule="nonzero" fill="rgb(100%, 0%, 0%)" fill-opacity="1" stroke-width="1" stroke-linecap="butt" stroke-linejoin="miter" stroke="rgb(0%, 0%, 0%)" stroke-opacity="1" stroke-miterlimit="10" d="M 319.367188 494.625 C 319.367188 500.148438 314.890625 504.625 309.367188 504.625 C 303.84375 504.625 299.367188 500.148438 299.367188 494.625 C 299.367188 489.105469 303.84375 484.625 309.367188 484.625 C 314.890625 484.625 319.367188 489.105469 319.367188 494.625 "/>
<path fill-rule="nonzero" fill="rgb(100%, 0%, 0%)" fill-opacity="1" stroke-width="1" stroke-linecap="butt" stroke-linejoin="miter" stroke="rgb(0%, 0%, 0%)" stroke-opacity="1" stroke-miterlimit="10" d="M 240.242188 486.644531 C 240.242188 492.167969 235.765625 496.644531 230.242188 496.644531 C 224.71875 496.644531 220.242188 492.167969 220.242188 486.644531 C 220.242188 481.121094 224.71875 476.644531 230.242188 476.644531 C 235.765625 476.644531 240.242188 481.121094 240.242188 486.644531 "/>
<path fill-rule="nonzero" fill="rgb(100%, 0%, 0%)" fill-opacity="1" stroke-width="1" stroke-linecap="butt" stroke-linejoin="miter" stroke="rgb(0%, 0%, 0%)" stroke-opacity="1" stroke-miterlimit="10" d="M 30 534.511719 C 30 540.035156 25.523438 544.511719 20 544.511719 C 14.476562 544.511719 10 540.035156 10 534.511719 C 10 528.988281 14.476562 524.511719 20 524.511719 C 25.523438 524.511719 30 528.988281 30 534.511719 "/>
<path fill-rule="nonzero" fill="rgb(100%, 0%, 0%)" fill-opacity="1" stroke-width="1" stroke-linecap="butt" stroke-linejoin="miter" stroke="rgb(0%, 0%, 0%)" stroke-opacity="1" stroke-miterlimit="10" d="M 290.007812 195.671875 C 290.007812 201.195312 285.53125 205.671875 280.007812 205.671875 C 274.484375 205.671875 270.007812 201.195312 270.007812 195.671875 C 270.007812 190.148438 274.484375 185.671875 280.007812 185.671875 C 285.53125 185.671875 290.007812 190.148438 290.007812 195.671875 "/>
<path fill-rule="nonzero" fill="rgb(100%, 0%, 0%)" fill-opacity="1" stroke-width="1" stroke-linecap="butt" stroke-linejoin="miter" stroke="rgb(0%, 0%, 0%)" stroke-opacity="1" stroke-miterlimit="10" d="M 445.058594 167.125 C 445.058594 172.648438 440.582031 177.125 435.058594 177.125 C 429.539062 177.125 425.058594 172.648438 425.058594 167.125 C 425.058594 161.601562 429.539062 157.125 435.058594 157.125 C 440.582031 157.125 445.058594 161.601562 445.058594 167.125 "/>
<path fill-rule="nonzero" fill="rgb(100%, 0%, 0%)" fill-opacity="1" stroke-width="1" stroke-linecap="butt" stroke-linejoin="miter" stroke="rgb(0%, 0%, 0%)" stroke-opacity="1" stroke-miterlimit="10" d="M 590 563.570312 C 590 569.09375 585.523438 573.570312 580 573.570312 C 574.476562 573.570312 570 569.09375 570 563.570312 C 570 558.050781 574.476562 553.570312 580 553.570312 C 585.523438 553.570312 590 558.050781 590 563.570312 "/>
<path fill-rule="nonzero" fill="rgb(100%, 0%, 0%)" fill-opacity="1" stroke-width="1" stroke-linecap="butt" stroke-linejoin="miter" stroke="rgb(0%, 0%, 0%)" stroke-opacity="1" stroke-miterlimit="10" d="M 259.441406 448.808594 C 259.441406 454.332031 254.964844 458.808594 249.441406 458.808594 C 243.921875 458.808594 239.441406 454.332031 239.441406 448.808594 C 239.441406 443.289062 243.921875 438.808594 249.441406 438.808594 C 254.964844 438.808594 259.441406 443.289062 259.441406 448.808594 "/>
<path fill-rule="nonzero" fill="rgb(100%, 0%, 0%)" fill-opacity="1" stroke-width="1" stroke-linecap="butt" stroke-linejoin="miter" stroke="rgb(0%, 0%, 0%)" stroke-opacity="1" stroke-miterlimit="10" d="M 345.933594 237.46875 C 345.933594 242.992188 341.457031 247.46875 335.933594 247.46875 C 330.414062 247.46875 325.933594 242.992188 325.933594 237.46875 C 325.933594 231.945312 330.414062 227.46875 335.933594 227.46875 C 341.457031 227.46875 345.933594 231.945312 345.933594 237.46875 "/>
<path fill-rule="nonzero" fill="rgb(100%, 0%, 0%)" fill-opacity="1" stroke-width="1" stroke-linecap="butt" stroke-linejoin="miter" stroke="rgb(0%, 0%, 0%)" stroke-opacity="1" stroke-miterlimit="10" d="M 304.585938 175.535156 C 304.585938 181.058594 300.109375 185.535156 294.585938 185.535156 C 289.0625 185.535156 284.585938 181.058594 284.585938 175.535156 C 284.585938 170.011719 289.0625 165.535156 294.585938 165.535156 C 300.109375 165.535156 304.585938 170.011719 304.585938 175.535156 "/>
<path fill-rule="nonzero" fill="rgb(100%, 0%, 0%)" fill-opacity="1" stroke-width="1" stroke-linecap="butt" stroke-linejoin="miter" stroke="rgb(0%, 0%, 0%)" stroke-opacity="1" stroke-miterlimit="10" d="M 244.804688 294.871094 C 244.804688 300.394531 240.328125 304.871094 234.804688 304.871094 C 229.28125 304.871094 224.804688 300.394531 224.804688 294.871094 C 224.804688 289.347656 229.28125 284.871094 234.804688 284.871094 C 240.328125 284.871094 244.804688 289.347656 244.804688 294.871094 "/>
<path fill-rule="nonzero" fill="rgb(100%, 0%, 0%)" fill-opacity="1" stroke-width="1" stroke-linecap="butt" stroke-linejoin="miter" stroke="rgb(0%, 0%, 0%)" stroke-opacity="1" stroke-miterlimit="10" d="M 97.742188 580 C 97.742188 585.523438 93.265625 590 87.742188 590 C 82.21875 590 77.742188 585.523438 77.742188 580 C 77.742188 574.476562 82.21875 570 87.742188 570 C 93.265625 570 97.742188 574.476562 97.742188 580 "/>
<path fill-rule="nonzero" fill="rgb(100%, 0%, 0%)" fill-opacity="1" stroke-width="1" stroke-linecap="butt" stroke-linejoin="miter" stroke="rgb(0%, 0%, 0%)" stroke-opacity="1" stroke-miterlimit="10" d="M 235.210938 271.753906 C 235.210938 277.277344 230.734375 281.753906 225.210938 281.753906 C 219.6875 281.753906 215.210938 277.277344 215.210938 271.753906 C 215.210938 266.230469 219.6875 261.753906 225.210938 261.753906 C 230.734375 261.753906 235.210938 266.230469 235.210938 271.753906 "/>
<path fill-rule="nonzero" fill="rgb(100%, 0%, 0%)" fill-opacity="1" stroke-width="1" stroke-linecap="butt" stroke-linejoin="miter" stroke="rgb(0%, 0%, 0%)" stroke-opacity="1" stroke-miterlimit="10" d="M 238.320312 130.4375 C 238.320312 135.960938 233.84375 140.4375 228.320312 140.4375 C 222.796875 140.4375 218.320312 135.960938 218.320312 130.4375 C 218.320312 124.917969 222.796875 120.4375 228.320312 120.4375 C 233.84375 120.4375 238.320312 124.917969 238.320312 130.4375 "/>
<path fill-rule="nonzero" fill="rgb(100%, 0%, 0%)" fill-opacity="1" stroke-width="1" stroke-linecap="butt" stroke-linejoin="miter" stroke="rgb(0%, 0%, 0%)" stroke-opacity="1" stroke-miterlimit="10" d="M 335.28125 100.359375 C 335.28125 105.882812 330.804688 110.359375 325.28125 110.359375 C 319.757812 110.359375 315.28125 105.882812 315.28125 100.359375 C 315.28125 94.835938 319.757812 90.359375 325.28125 90.359375 C 330.804688 90.359375 335.28125 94.835938 335.28125 100.359375 "/>
<path fill-rule="nonzero" fill="rgb(100%, 0%, 0%)" fill-opacity="1" stroke-width="1" stroke-linecap="butt" stroke-linejoin="miter" stroke="rgb(0%, 0%, 0%)" stroke-opacity="1" stroke-miterlimit="10" d="M 335.765625 20 C 335.765625 25.523438 331.289062 30 325.765625 30 C 320.242188 30 315.765625 25.523438 315.765625 20 C 315.765625 14.476562 320.242188 10 325.765625 10 C 331.289062 10 335.765625 14.476562 335.765625 20 "/>
<path fill-rule="nonzero" fill="rgb(100%, 0%, 0%)" fill-opacity="1" stroke-width="1" stroke-linecap="butt" stroke-linejoin="miter" stroke="rgb(0%, 0%, 0%)" stroke-opacity="1" stroke-miterlimit="10" d="M 403.042969 155.871094 C 403.042969 161.394531 398.566406 165.871094 393.042969 165.871094 C 387.519531 165.871094 383.042969 161.394531 383.042969 155.871094 C 383.042969 150.347656 387.519531 145.871094 393.042969 145.871094 C 398.566406 145.871094 403.042969 150.347656 403.042969 155.871094 "/>
<path fill-rule="nonzero" fill="rgb(100%, 0%, 0%)" fill-opacity="1" stroke-width="1" stroke-linecap="butt" stroke-linejoin="miter" stroke="rgb(0%, 0%, 0%)" stroke-opacity="1" stroke-miterlimit="10" d="M 322.121094 143.558594 C 322.121094 149.082031 317.644531 153.558594 312.121094 153.558594 C 306.597656 153.558594 302.121094 149.082031 302.121094 143.558594 C 302.121094 138.035156 306.597656 133.558594 312.121094 133.558594 C 317.644531 133.558594 322.121094 138.035156 322.121094 143.558594 "/>
<path fill-rule="nonzero" fill="rgb(100%, 0%, 0%)" fill-opacity="1" stroke-width="1" stroke-linecap="butt" stroke-linejoin="miter" stroke="rgb(0%, 0%, 0%)" stroke-opacity="1" stroke-miterlimit="10" d="M 459.265625 190.679688 C 459.265625 196.203125 454.789062 200.679688 449.265625 200.679688 C 443.742188 200.679688 439.265625 196.203125 439.265625 190.679688 C 439.265625 185.160156 443.742188 180.679688 449.265625 180.679688 C 454.789062 180.679688 459.265625 185.160156 459.265625 190.679688 "/>
<path fill-rule="nonzero" fill="rgb(100%, 0%, 0%)" fill-opacity="1" stroke-width="1" stroke-linecap="butt" stroke-linejoin="miter" stroke="rgb(0%, 0%, 0%)" stroke-opacity="1" stroke-miterlimit="10" d="M 430.816406 208.742188 C 430.816406 214.265625 426.339844 218.742188 420.816406 218.742188 C 415.292969 218.742188 410.816406 214.265625 410.816406 208.742188 C 410.816406 203.21875 415.292969 198.742188 420.816406 198.742188 C 426.339844 198.742188 430.816406 203.21875 430.816406 208.742188 "/>
<path fill-rule="nonzero" fill="rgb(100%, 0%, 0%)" fill-opacity="1" stroke-width="1" stroke-linecap="butt" stroke-linejoin="miter" stroke="rgb(0%, 0%, 0%)" stroke-opacity="1" stroke-miterlimit="10" d="M 396.609375 288.175781 C 396.609375 293.699219 392.132812 298.175781 386.609375 298.175781 C 381.085938 298.175781 376.609375 293.699219 376.609375 288.175781 C 376.609375 282.652344 381.085938 278.175781 386.609375 278.175781 C 392.132812 278.175781 396.609375 282.652344 396.609375 288.175781 "/>
<path fill-rule="nonzero" fill="rgb(100%, 0%, 0%)" fill-opacity="1" stroke-width="1" stroke-linecap="butt" stroke-linejoin="miter" stroke="rgb(0%, 0%, 0%)" stroke-opacity="1" stroke-miterlimit="10" d="M 338.722656 59.636719 C 338.722656 65.160156 334.246094 69.636719 328.722656 69.636719 C 323.199219 69.636719 318.722656 65.160156 318.722656 59.636719 C 318.722656 54.117188 323.199219 49.636719 328.722656 49.636719 C 334.246094 49.636719 338.722656 54.117188 338.722656 59.636719 "/>
<path fill-rule="nonzero" fill="rgb(100%, 0%, 0%)" fill-opacity="1" stroke-width="1" stroke-linecap="butt" stroke-linejoin="miter" stroke="rgb(0%, 0%, 0%)" stroke-opacity="1" stroke-miterlimit="10" d="M 319.105469 282.386719 C 319.105469 287.90625 314.628906 292.386719 309.105469 292.386719 C 303.582031 292.386719 299.105469 287.90625 299.105469 282.386719 C 299.105469 276.863281 303.582031 272.386719 309.105469 272.386719 C 314.628906 272.386719 319.105469 276.863281 319.105469 282.386719 "/>
<path fill-rule="nonzero" fill="rgb(100%, 0%, 0%)" fill-opacity="1" stroke-width="1" stroke-linecap="butt" stroke-linejoin="miter" stroke="rgb(0%, 0%, 0%)" stroke-opacity="1" stroke-miterlimit="10" d="M 368.40625 189.574219 C 368.40625 195.097656 363.929688 199.574219 358.40625 199.574219 C 352.882812 199.574219 348.40625 195.097656 348.40625 189.574219 C 348.40625 184.050781 352.882812 179.574219 358.40625 179.574219 C 363.929688 179.574219 368.40625 184.050781 368.40625 189.574219 "/>
</svg>