<?xml version="1.0" encoding="UTF-8"?>
<svg xmlns="http://www.w3.org/2000/svg" xmlns:xlink="http://www.w3.org/1999/xlink" width="600" height="600" viewBox="0 0 600 600">
<rect x="-60" y="-60" width="720" height="720" fill="rgb(100%, 100%, 100%)" fill-opacity="1"/>
<path fill="none" stroke-width="2" stroke-linecap="butt" stroke-linejoin="miter" stroke="rgb(26.666667%, 26.666667%, 26.666667%)" stroke-opacity="1" stroke-miterlimit="10" d="M 392.136719 243.890625 L 334.28125 326.589844 "/>
<path fill="none" stroke-width="2" stroke-linecap="butt" stroke-linejoin="miter" stroke="rgb(26.666667%, 26.666667%, 26.666667%)" stroke-opacity="1" stroke-miterlimit="10" d="M 392.136719 243.890625 L 415.46875 177.058594 "/>
<path fill="none" stroke-width="6" stroke-linecap="butt" stroke-linejoin="miter" stroke="rgb(26.666667%, 26.666667%, 26.666667%)" stroke-opacity="1" stroke-miterlimit="10" d="M 392.136719 243.890625 L 429.699219 342.972656 "/>
<path fill="none" stroke-width="5" stroke-linecap="butt" stroke-linejoin="miter" stroke="rgb(26.666667%, 26.666667%, 26.666667%)" stroke-opacity="1" stroke-miterlimit="10" d="M 392.136719 243.890625 L 463.222656 254.980469 "/>
<path fill="none" stroke-width="5" stroke-linecap="butt" stroke-linejoin="miter" stroke="rgb(26.666667%, 26.666667%, 26.666667%)" stroke-opacity="1" stroke-miterlimit="10" d="M 392.136719 243.890625 L 428.542969 289.878906 "/>
<path fill="none" stroke-width="2" stroke-linecap="butt" stroke-linejoin="miter" stroke="rgb(26.666667%, 26.666667%, 26.666667%)" stroke-opacity="1" stroke-miterlimit="10" d="M 392.136719 243.890625 L 389.019531 323.984375 "/>
<path fill="none" stroke-width="1" stroke-linecap="butt" stroke-linejoin="miter" stroke="rgb(26.666667%, 26.666667%, 26.666667%)" stroke-opacity="1" stroke-miterlimit="10" d="M 392.136719 243.890625 L 441.527344 204.707031 "/>
<path fill="none" stroke-width="3" stroke-linecap="butt" stroke-linejoin="miter" stroke="rgb(26.666667%, 26.666667%, 26.666667%)" stroke-opacity="1" stroke-miterlimit="10" d="M 392.136719 243.890625 L 349.054688 246.78125 "/>
<path fill="none" stroke-width="4" stroke-linecap="butt" stroke-linejoin="miter" stroke="rgb(26.666667%, 26.666667%, 26.666667%)" stroke-opacity="1" stroke-miterlimit="10" d="M 392.136719 243.890625 L 341.019531 191.289062 "/>
<path fill="none" stroke-width="6" stroke-linecap="butt" stroke-linejoin="miter" stroke="rgb(26.666667%, 26.666667%, 26.666667%)" stroke-opacity="1" stroke-miterlimit="10" d="M 392.136719 243.890625 L 364.949219 166.859375 "/>
<path fill="none" stroke-width="3" stroke-linecap="butt" stroke-linejoin="miter" stroke="rgb(26.666667%, 26.666667%, 26.666667%)" stroke-opacity="1" stroke-miterlimit="10" d="M 392.136719 243.890625 L 397.972656 116.570312 "/>
<path fill="none" stroke-width="3" stroke-linecap="butt" stroke-linejoin="miter" stroke="rgb(26.666667%, 26.666667%, 26.666667%)" stroke-opacity="1" stroke-miterlimit="10" d="M 347.371094 435.570312 L 334.28125 326.589844 "/>
<path fill="none" stroke-width="3" stroke-linecap="butt" stroke-linejoin="miter" stroke="rgb(26.666667%, 26.666667%, 26.666667%)" stroke-opacity="1" stroke-miterlimit="10" d="M 347.371094 435.570312 L 367.566406 533.324219 "/>
<path fill="none" stroke-width="3" stroke-linecap="butt" stroke-linejoin="miter" stroke="rgb(26.666667%, 26.666667%, 26.666667%)" stroke-opacity="1" stroke-miterlimit="10" d="M 334.28125 326.589844 L 269.765625 335.316406 "/>
<path fill="none" stroke-width="5" stroke-linecap="butt" stroke-linejoin="miter" stroke="rgb(26.666667%, 26.666667%, 26.666667%)" stroke-opacity="1" stroke-miterlimit="10" d="M 429.699219 342.972656 L 472.949219 417.144531 "/>
<path fill="none" stroke-width="7" stroke-linecap="butt" stroke-linejoin="miter" stroke="rgb(26.666667%, 26.666667%, 26.666667%)" stroke-opacity="1" stroke-miterlimit="10" d="M 580 271.953125 L 523.941406 260.960938 "/>
<path fill="none" stroke-width="5" stroke-linecap="butt" stroke-linejoin="miter" stroke="rgb(26.666667%, 26.666667%, 26.666667%)" stroke-opacity="1" stroke-miterlimit="10" d="M 463.222656 254.980469 L 523.941406 260.960938 "/>
<path fill="none" stroke-width="2" stroke-linecap="butt" stroke-linejoin="miter" stroke="rgb(26.666667%, 26.666667%, 26.666667%)" stroke-opacity="1" stroke-miterlimit="10" d="M 149.421875 580 L 153.414062 474.875 "/>
<path fill="none" stroke-width="2" stroke-linecap="butt" stroke-linejoin="miter" stroke="rgb(26.666667%, 26.666667%, 26.666667%)" stroke-opacity="1" stroke-miterlimit="10" d="M 41.796875 475.886719 L 77.113281 392.96875 "/>
<path fill="none" stroke-width="3" stroke-linecap="butt" stroke-linejoin="miter" stroke="rgb(26.666667%, 26.666667%, 26.666667%)" stroke-opacity="1" stroke-miterlimit="10" d="M 21.203125 345.867188 L 77.113281 392.96875 "/>
<path fill="none" stroke-width="1" stroke-linecap="butt" stroke-linejoin="miter" stroke="rgb(26.666667%, 26.666667%, 26.666667%)" stroke-opacity="1" stroke-miterlimit="10" d="M 76.667969 496.777344 L 77.113281 392.96875 "/>
<path fill="none" stroke-width="5" stroke-linecap="butt" stroke-linejoin="miter" stroke="rgb(26.666667%, 26.666667%, 26.666667%)" stroke-opacity="1" stroke-miterlimit="10" d="M 152.566406 287.148438 L 144.367188 370.191406 "/>
<path fill="none" stroke-width="6" stroke-linecap="butt" stroke-linejoin="miter" stroke="rgb(26.666667%, 26.666667%, 26.666667%)" stroke-opacity="1" stroke-miterlimit="10" d="M 122.515625 251.910156 L 144.367188 370.191406 "/>
<path fill="none" stroke-width="8" stroke-linecap="butt" stroke-linejoin="miter" stroke="rgb(26.666667%, 26.666667%, 26.666667%)" stroke-opacity="1" stroke-miterlimit="10" d="M 112 311.699219 L 144.367188 370.191406 "/>
<path fill="none" stroke-width="2" stroke-linecap="butt" stroke-linejoin="miter" stroke="rgb(26.666667%, 26.666667%, 26.666667%)" stroke-opacity="1" stroke-miterlimit="10" d="M 209.546875 356.8125 L 269.765625 335.316406 "/>
<path fill="none" stroke-width="3" stroke-linecap="butt" stroke-linejoin="miter" stroke="rgb(26.666667%, 26.666667%, 26.666667%)" stroke-opacity="1" stroke-miterlimit="10" d="M 209.546875 356.8125 L 144.367188 370.191406 "/>
<path fill="none" stroke-width="7" stroke-linecap="butt" stroke-linejoin="miter" stroke="rgb(26.666667%, 26.666667%, 26.666667%)" stroke-opacity="1" stroke-miterlimit="10" d="M 358.433594 33.453125 L 397.972656 116.570312 "/>
<path fill="none" stroke-width="6" stroke-linecap="butt" stroke-linejoin="miter" stroke="rgb(26.666667%, 26.666667%, 26.666667%)" stroke-opacity="1" stroke-miterlimit="10" d="M 406.304688 20 L 397.972656 116.570312 "/>
<path fill="none" stroke-width="7" stroke-linecap="butt" stroke-linejoin="miter" stroke="rgb(26.666667%, 26.666667%, 26.666667%)" stroke-opacity="1" stroke-miterlimit="10" d="M 20 415.46875 L 77.113281 392.96875 "/>
<path fill="none" stroke-width="1" stroke-linecap="butt" stroke-linejoin="miter" stroke="rgb(26.666667%, 26.666667%, 26.666667%)" stroke-opacity="1" stroke-miterlimit="10" d="M 451.703125 57.703125 L 397.972656 116.570312 "/>
<path fill="none" stroke-width="4" stroke-linecap="butt" stroke-linejoin="miter" stroke="rgb(26.666667%, 26.666667%, 26.666667%)" stroke-opacity="1" stroke-miterlimit="10" d="M 42.050781 295.621094 L 77.113281 392.96875 "/>
<path fill="none" stroke-width="3" stroke-linecap="butt" stroke-linejoin="miter" stroke="rgb(26.666667%, 26.666667%, 26.666667%)" stroke-opacity="1" stroke-miterlimit="10" d="M 153.414062 474.875 L 144.367188 370.191406 "/>
<path fill="none" stroke-width="2" stroke-linecap="butt" stroke-linejoin="miter" stroke="rgb(26.666667%, 26.666667%, 26.666667%)" stroke-opacity="1" stroke-miterlimit="10" d="M 144.367188 370.191406 L 77.113281 392.96875 "/>
<path fill-rule="nonzero" fill="rgb(100%, 0%, 0%)" fill-opacity="1" stroke-width="1" stroke-linecap="butt" stroke-linejoin="miter" stroke="rgb(0%, 0%, 0%)" stroke-opacity="1" stroke-miterlimit="10" d="M 402.136719 243.890625 C 402.136719 249.410156 397.660156 253.890625 392.136719 253.890625 C 386.613281 253.890625 382.136719 249.410156 382.136719 243.890625 C 382.136719 238.367188 386.613281 233.890625 392.136719 233.890625 C 397.660156 233.890625 402.136719 238.367188 402.136719 243.890625 "/>
<path fill-rule="nonzero" fill="rgb(100%, 0%, 0%)" fill-opacity="1" stroke-width="1" stroke-linecap="butt" stroke-linejoin="miter" stroke="rgb(0%, 0%, 0%)" stroke-opacity="1" stroke-miterlimit="10" d="M 357.371094 435.570312 C 357.371094 441.09375 352.894531 445.570312 347.371094 445.570312 C 341.847656 445.570312 337.371094 441.09375 337.371094 435.570312 C 337.371094 430.050781 341.847656 425.570312 347.371094 425.570312 C 352.894531 425.570312 357.371094 430.050781 357.371094 435.570312 "/>
<path fill-rule="nonzero" fill="rgb(100%, 0%, 0%)" fill-opacity="1" stroke-width="1" stroke-linecap="butt" stroke-linejoin="miter" stroke="rgb(0%, 0%, 0%)" stroke-opacity="1" stroke-miterlimit="10" d="M 344.28125 326.589844 C 344.28125 332.113281 339.804688 336.589844 334.28125 336.589844 C 328.757812 336.589844 324.28125 332.113281 324.28125 326.589844 C 324.28125 321.066406 328.757812 316.589844 334.28125 316.589844 C 339.804688 316.589844 344.28125 321.066406 344.28125 326.589844 "/>
<path fill-rule="nonzero" fill="rgb(100%, 0%, 0%)" fill-opacity="1" stroke-width="1" stroke-linecap="butt" stroke-linejoin="miter" stroke="rgb(0%, 0%, 0%)" stroke-opacity="1" stroke-miterlimit="10" d="M 425.46875 177.058594 C 425.46875 182.582031 420.992188 187.058594 415.46875 187.058594 C 409.945312 187.058594 405.46875 182.582031 405.46875 177.058594 C 405.46875 171.535156 409.945312 167.058594 415.46875 167.058594 C 420.992188 167.058594 425.46875 171.535156 425.46875 177.058594 "/>
<path fill-rule="nonzero" fill="rgb(100%, 0%, 0%)" fill-opacity="1" stroke-width="1" stroke-linecap="butt" stroke-linejoin="miter" stroke="rgb(0%, 0%, 0%)" stroke-opacity="1" stroke-miterlimit="10" d="M 439.699219 342.972656 C 439.699219 348.496094 435.222656 352.972656 429.699219 352.972656 C 424.175781 352.972656 419.699219 348.496094 419.699219 342.972656 C 419.699219 337.453125 424.175781 332.972656 429.699219 332.972656 C 435.222656 332.972656 439.699219 337.453125 439.699219 342.972656 "/>
<path fill-rule="nonzero" fill="rgb(100%, 0%, 0%)" fill-opacity="1" stroke-width="1" stroke-linecap="butt" stroke-linejoin="miter" stroke="rgb(0%, 0%, 0%)" stroke-opacity="1" stroke-miterlimit="10" d="M 590 271.953125 C 590 277.476562 585.523438 281.953125 580 281.953125 C 574.476562 281.953125 570 277.476562 570 271.953125 C 570 266.429688 574.476562 261.953125 580 261.953125 C 585.523438 261.953125 590 266.429688 590 271.953125 "/>
<path fill-rule="nonzero" fill="rgb(100%, 0%, 0%)" fill-opacity="1" stroke-width="1" stroke-linecap="butt" stroke-linejoin="miter" stroke="rgb(0%, 0%, 0%)" stroke-opacity="1" stroke-miterlimit="10" d="M 473.222656 254.980469 C 473.222656 260.503906 468.742188 264.980469 463.222656 264.980469 C 457.699219 264.980469 453.222656 260.503906 453.222656 254.980469 C 453.222656 249.457031 457.699219 244.980469 463.222656 244.980469 C 468.742188 244.980469 473.222656 249.457031 473.222656 254.980469 "/>
<path fill-rule="nonzero" fill="rgb(100%, 0%, 0%)" fill-opacity="1" stroke-width="1" stroke-linecap="butt" stroke-linejoin="miter" stroke="rgb(0%, 0%, 0%)" stroke-opacity="1" stroke-miterlimit="10" d="M 438.542969 289.878906 C 438.542969 295.402344 434.066406 299.878906 428.542969 299.878906 C 423.019531 299.878906 418.542969 295.402344 418.542969 289.878906 C 418.542969 284.355469 423.019531 279.878906 428.542969 279.878906 C 434.066406 279.878906 438.542969 284.355469 438.542969 289.878906 "/>
<path fill-rule="nonzero" fill="rgb(100%, 0%, 0%)" fill-opacity="1" stroke-width="1" stroke-linecap="butt" stroke-linejoin="miter" stroke="rgb(0%, 0%, 0%)" stroke-opacity="1" stroke-miterlimit="10" d="M 159.421875 580 C 159.421875 585.523438 154.945312 590 149.421875 590 C 143.898438 590 139.421875 585.523438 139.421875 580 C 139.421875 574.476562 143.898438 570 149.421875 570 C 154.945312 570 159.421875 574.476562 159.421875 580 "/>
<path fill-rule="nonzero" fill="rgb(100%, 0%, 0%)" fill-opacity="1" stroke-width="1" stroke-linecap="butt" stroke-linejoin="miter" stroke="rgb(0%, 0%, 0%)" stroke-opacity="1" stroke-miterlimit="10" d="M 51.796875 475.886719 C 51.796875 481.410156 47.320312 485.886719 41.796875 485.886719 C 36.273438 485.886719 31.796875 481.410156 31.796875 475.886719 C 31.796875 470.363281 36.273438 465.886719 41.796875 465.886719 C 47.320312 465.886719 51.796875 470.363281 51.796875 475.886719 "/>
<path fill-rule="nonzero" fill="rgb(100%, 0%, 0%)" fill-opacity="1" stroke-width="1" stroke-linecap="butt" stroke-linejoin="miter" stroke="rgb(0%, 0%, 0%)" stroke-opacity="1" stroke-miterlimit="10" d="M 482.949219 417.144531 C 482.949219 422.667969 478.472656 427.144531 472.949219 427.144531 C 467.425781 427.144531 462.949219 422.667969 462.949219 417.144531 C 462.949219 411.621094 467.425781 407.144531 472.949219 407.144531 C 478.472656 407.144531 482.949219 411.621094 482.949219 417.144531 "/>
<path fill-rule="nonzero" fill="rgb(100%, 0%, 0%)" fill-opacity="1" stroke-width="1" stroke-linecap="butt" stroke-linejoin="miter" stroke="rgb(0%, 0%, 0%)" stroke-opacity="1" stroke-miterlimit="10" d="M 399.019531 323.984375 C 399.019531 329.507812 394.542969 333.984375 389.019531 333.984375 C 383.496094 333.984375 379.019531 329.507812 379.019531 323.984375 C 379.019531 318.460938 383.496094 313.984375 389.019531 313.984375 C 394.542969 313.984375 399.019531 318.460938 399.019531 323.984375 "/>
<path fill-rule="nonzero" fill="rgb(100%, 0%, 0%)" fill-opacity="1" stroke-width="1" stroke-linecap="butt" stroke-linejoin="miter" stroke="rgb(0%, 0%, 0%)" stroke-opacity="1" stroke-miterlimit="10" d="M 451.527344 204.707031 C 451.527344 210.230469 447.050781 214.707031 441.527344 214.707031 C 436.003906 214.707031 431.527344 210.230469 431.527344 204.707031 C 431.527344 199.183594 436.003906 194.707031 441.527344 194.707031 C 447.050781 194.707031 451.527344 199.183594 451.527344 204.707031 "/>
<path fill-rule="nonzero" fill="rgb(100%, 0%, 0%)" fill-opacity="1" stroke-width="1" stroke-linecap="butt" stroke-linejoin="miter" stroke="rgb(0%, 0%, 0%)" stroke-opacity="1" stroke-miterlimit="10" d="M 377.566406 533.324219 C 377.566406 538.847656 373.089844 543.324219 367.566406 543.324219 C 362.042969 543.324219 357.566406 538.847656 357.566406 533.324219 C 357.566406 527.800781 362.042969 523.324219 367.566406 523.324219 C 373.089844 523.324219 377.566406 527.800781 377.566406 533.324219 "/>
<path fill-rule="nonzero" fill="rgb(100%, 0%, 0%)" fill-opacity="1" stroke-width="1" stroke-linecap="butt" stroke-linejoin="miter" stroke="rgb(0%, 0%, 0%)" stroke-opacity="1" stroke-miterlimit="10" d="M 31.203125 345.867188 C 31.203125 351.390625 26.726562 355.867188 21.203125 355.867188 C 15.683594 355.867188 11.203125 351.390625 11.203125 345.867188 C 11.203125 340.34375 15.683594 335.867188 21.203125 335.867188 C 26.726562 335.867188 31.203125 340.34375 31.203125 345.867188 "/>
<path fill-rule="nonzero" fill="rgb(100%, 0%, 0%)" fill-opacity="1" stroke-width="1" stroke-linecap="butt" stroke-linejoin="miter" stroke="rgb(0%, 0%, 0%)" stroke-opacity="1" stroke-miterlimit="10" d="M 86.667969 496.777344 C 86.667969 502.300781 82.191406 506.777344 76.667969 506.777344 C 71.144531 506.777344 66.667969 502.300781 66.667969 496.777344 C 66.667969 491.253906 71.144531 486.777344 76.667969 486.777344 C 82.191406 486.777344 86.667969 491.253906 86.667969 496.777344 "/>
<path fill-rule="nonzero" fill="rgb(100%, 0%, 0%)" fill-opacity="1" stroke-width="1" stroke-linecap="butt" stroke-linejoin="miter" stroke="rgb(0%, 0%, 0%)" stroke-opacity="1" stroke-miterlimit="10" d="M 533.941406 260.960938 C 533.941406 266.484375 529.464844 270.960938 523.941406 270.960938 C 518.417969 270.960938 513.941406 266.484375 513.941406 260.960938 C 513.941406 255.4375 518.417969 250.960938 523.941406 250.960938 C 529.464844 250.960938 533.941406 255.4375 533.941406 260.960938 "/>
<path fill-rule="nonzero" fill="rgb(100%, 0%, 0%)" fill-opacity="1" stroke-width="1" stroke-linecap="butt" stroke-linejoin="miter" stroke="rgb(0%, 0%, 0%)" stroke-opacity="1" stroke-miterlimit="10" d="M 359.054688 246.78125 C 359.054688 252.304688 354.578125 256.78125 349.054688 256.78125 C 343.53125 256.78125 339.054688 252.304688 339.054688 246.78125 C 339.054688 241.257812 343.53125 236.78125 349.054688 236.78125 C 354.578125 236.78125 359.054688 241.257812 359.054688 246.78125 "/>
<path fill-rule="nonzero" fill="rgb(100%, 0%, 0%)" fill-opacity="1" stroke-width="1" stroke-linecap="butt" stroke-linejoin="miter" stroke="rgb(0%, 0%, 0%)" stroke-opacity="1" stroke-miterlimit="10" d="M 162.566406 287.148438 C 162.566406 292.667969 158.089844 297.148438 152.566406 297.148438 C 147.042969 297.148438 142.566406 292.667969 142.566406 287.148438 C 142.566406 281.625 147.042969 277.148438 152.566406 277.148438 C 158.089844 277.148438 162.566406 281.625 162.566406 287.148438 "/>
<path fill-rule="nonzero" fill="rgb(100%, 0%, 0%)" fill-opacity="1" stroke-width="1" stroke-linecap="butt" stroke-linejoin="miter" stroke="rgb(0%, 0%, 0%)" stroke-opacity="1" stroke-miterlimit="10" d="M 351.019531 191.289062 C 351.019531 196.8125 346.542969 201.289062 341.019531 201.289062 C 335.496094 201.289062 331.019531 196.8125 331.019531 191.289062 C 331.019531 185.769531 335.496094 181.289062 341.019531 181.289062 C 346.542969 181.289062 351.019531 185.769531 351.019531 191.289062 "/>
<path fill-rule="nonzero" fill="rgb(100%, 0%, 0%)" fill-opacity="1" stroke-width="1" stroke-linecap="butt" stroke-linejoin="miter" stroke="rgb(0%, 0%, 0%)" stroke-opacity="1" stroke-miterlimit="10" d="M 132.515625 251.910156 C 132.515625 257.433594 128.039062 261.910156 122.515625 261.910156 C 116.996094 261.910156 112.515625 257.433594 112.515625 251.910156 C 112.515625 246.386719 116.996094 241.910156 122.515625 241.910156 C 128.039062 241.910156 132.515625 246.386719 132.515625 251.910156 "/>
<path fill-rule="nonzero" fill="rgb(100%, 0%, 0%)" fill-opacity="1" stroke-width="1" stroke-linecap="butt" stroke-linejoin="miter" stroke="rgb(0%, 0%, 0%)" stroke-opacity="1" stroke-miterlimit="10" d="M 374.949219 166.859375 C 374.949219 172.382812 370.472656 176.859375 364.949219 176.859375 C 359.425781 176.859375 354.949219 172.382812 354.949219 166.859375 C 354.949219 161.335938 359.425781 156.859375 364.949219 156.859375 C 370.472656 156.859375 374.949219 161.335938 374.949219 166.859375 "/>
<path fill-rule="nonzero" fill="rgb(100%, 0%, 0%)" fill-opacity="1" stroke-width="1" stroke-linecap="butt" stroke-linejoin="miter" stroke="rgb(0%, 0%, 0%)" stroke-opacity="1" stroke-miterlimit="10" d="M 122 311.699219 C 122 317.222656 117.523438 321.699219 112 321.699219 C 106.476562 321.699219 102 317.222656 102 311.699219 C 102 306.175781 106.476562 301.699219 112 301.699219 C 117.523438 301.699219 122 306.175781 122 311.699219 "/>
<path fill-rule="nonzero" fill="rgb(100%, 0%, 0%)" fill-opacity="1" stroke-width="1" stroke-linecap="butt" stroke-linejoin="miter" stroke="rgb(0%, 0%, 0%)" stroke-opacity="1" stroke-miterlimit="10" d="M 219.546875 356.8125 C 219.546875 362.335938 215.070312 366.8125 209.546875 366.8125 C 204.023438 366.8125 199.546875 362.335938 199.546875 356.8125 C 199.546875 351.289062 204.023438 346.8125 209.546875 346.8125 C 215.070312 346.8125 219.546875 351.289062 219.546875 356.8125 "/>
<path fill-rule="nonzero" fill="rgb(100%, 0%, 0%)" fill-opacity="1" stroke-width="1" stroke-linecap="butt" stroke-linejoin="miter" stroke="rgb(0%, 0%, 0%)" stroke-opacity="1" stroke-miterlimit="10" d="M 368.433594 33.453125 C 368.433594 38.976562 363.957031 43.453125 358.433594 43.453125 C 352.914062 43.453125 348.433594 38.976562 348.433594 33.453125 C 348.433594 27.929688 352.914062 23.453125 358.433594 23.453125 C 363.957031 23.453125 368.433594 27.929688 368.433594 33.453125 "/>
<path fill-rule="nonzero" fill="rgb(100%, 0%, 0%)" fill-opacity="1" stroke-width="1" stroke-linecap="butt" stroke-linejoin="miter" stroke="rgb(0%, 0%, 0%)" stroke-opacity="1" stroke-miterlimit="10" d="M 416.304688 20 C 416.304688 25.523438 411.828125 30 406.304688 30 C 400.78125 30 396.304688 25.523438 396.304688 20 C 396.304688 14.476562 400.78125 10 406.304688 10 C 411.828125 10 416.304688 14.476562 416.304688 20 "/>
<path fill-rule="nonzero" fill="rgb(100%, 0%, 0%)" fill-opacity="1" stroke-width="1" stroke-linecap="butt" stroke-linejoin="miter" stroke="rgb(0%, 0%, 0%)" stroke-opacity="1" stroke-miterlimit="10" d="M 30 415.46875 C 30 420.992188 25.523438 425.46875 20 425.46875 C 14.476562 425.46875 10 420.992188 10 415.46875 C 10 409.949219 14.476562 405.46875 20 405.46875 C 25.523438 405.46875 30 409.949219 30 415.46875 "/>
<path fill-rule="nonzero" fill="rgb(100%, 0%, 0%)" fill-opacity="1" stroke-width="1" stroke-linecap="butt" stroke-linejoin="miter" stroke="rgb(0%, 0%, 0%)" stroke-opacity="1" stroke-miterlimit="10" d="M 279.765625 335.316406 C 279.765625 340.839844 275.285156 345.316406 269.765625 345.316406 C 264.242188 345.316406 259.765625 340.839844 259.765625 335.316406 C 259.765625 329.792969 264.242188 325.316406 269.765625 325.316406 C 275.285156 325.316406 279.765625 329.792969 279.765625 335.316406 "/>
<path fill-rule="nonzero" fill="rgb(100%, 0%, 0%)" fill-opacity="1" stroke-width="1" stroke-linecap="butt" stroke-linejoin="miter" stroke="rgb(0%, 0%, 0%)" stroke-opacity="1" stroke-miterlimit="10" d="M 461.703125 57.703125 C 461.703125 63.226562 457.226562 67.703125 451.703125 67.703125 C 446.179688 67.703125 441.703125 63.226562 441.703125 57.703125 C 441.703125 52.179688 446.179688 47.703125 451.703125 47.703125 C 457.226562 47.703125 461.703125 52.179688 461.703125 57.703125 "/>
<path fill-rule="nonzero" fill="rgb(100%, 0%, 0%)" fill-opacity="1" stroke-width="1" stroke-linecap="butt" stroke-linejoin="miter" stroke="rgb(0%, 0%, 0%)" stroke-opacity="1" stroke-miterlimit="10" d="M 52.050781 295.621094 C 52.050781 301.144531 47.570312 305.621094 42.050781 305.621094 C 36.527344 305.621094 32.050781 301.144531 32.050781 295.621094 C 32.050781 290.097656 36.527344 285.621094 42.050781 285.621094 C 47.570312 285.621094 52.050781 290.097656 52.050781 295.621094 "/>
<path fill-rule="nonzero" fill="rgb(100%, 0%, 0%)" fill-opacity="1" stroke-width="1" stroke-linecap="butt" stroke-linejoin="miter" stroke="rgb(0%, 0%, 0%)" stroke-opacity="1" stroke-miterlimit="10" d="M 163.414062 474.875 C 163.414062 480.398438 158.9375 484.875 153.414062 484.875 C 147.890625 484.875 143.414062 480.398438 143.414062 474.875 C 143.414062 469.351562 147.890625 464.875 153.414062 464.875 C 158.9375 464.875 163.414062 469.351562 163.414062 474.875 "/>
<path fill-rule="nonzero" fill="rgb(100%, 0%, 0%)" fill-opacity="1" stroke-width="1" stroke-linecap="butt" stroke-linejoin="miter" stroke="rgb(0%, 0%, 0%)" stroke-opacity="1" stroke-miterlimit="10" d="M 407.972656 116.570312 C 407.972656 122.09375 403.496094 126.570312 397.972656 126.570312 C 392.453125 126.570312 387.972656 122.09375 387.972656 116.570312 C 387.972656 111.050781 392.453125 106.570312 397.972656 106.570312 C 403.496094 106.570312 407.972656 111.050781 407.972656 116.570312 "/>
<path fill-rule="nonzero" fill="rgb(100%, 0%, 0%)" fill-opacity="1" stroke-width="1" stroke-linecap="butt" stroke-linejoin="miter" stroke="rgb(0%, 0%, 0%)" stroke-opacity="1" stroke-miterlimit="10" d="M 154.367188 370.191406 C 154.367188 375.714844 149.890625 380.191406 144.367188 380.191406 C 138.84375 380.191406 134.367188 375.714844 134.367188 370.191406 C 134.367188 364.667969 138.84375 360.191406 144.367188 360.191406 C 149.890625 360.191406 154.367188 364.667969 154.367188 370.191406 "/>
<path fill-rule="nonzero" fill="rgb(100%, 0%, 0%)" fill-opacity="1" stroke-width="1" stroke-linecap="butt" stroke-linejoin="miter" stroke="rgb(0%, 0%, 0%)" stroke-opacity="1" stroke-miterlimit="10" d="M 87.113281 392.96875 C 87.113281 398.492188 82.636719 402.96875 77.113281 402.96875 C 71.589844 402.96875 67.113281 398.492188 67.113281 392.96875 C 67.113281 387.445312 71.589844 382.96875 77.113281 382.96875 C 82.636719 382.96875 87.113281 387.445312 87.113281 392.96875 "/>
</svg>