<?xml version="1.0" encoding="UTF-8"?>
<svg xmlns="http://www.w3.org/2000/svg" xmlns:xlink="http://www.w3.org/1999/xlink" width="600" height="600" viewBox="0 0 600 600">
<rect x="-60" y="-60" width="720" height="720" fill="rgb(100%, 100%, 100%)" fill-opacity="1"/>
<path fill="none" stroke-width="2" stroke-linecap="butt" stroke-linejoin="miter" stroke="rgb(26.666667%, 26.666667%, 26.666667%)" stroke-opacity="1" stroke-miterlimit="10" d="M 469.058594 391.894531 L 580 375.414062 "/>
<path fill="none" stroke-width="3" stroke-linecap="butt" stroke-linejoin="miter" stroke="rgb(26.666667%, 26.666667%, 26.666667%)" stroke-opacity="1" stroke-miterlimit="10" d="M 469.058594 391.894531 L 467.34375 443.242188 "/>
<path fill="none" stroke-width="1" stroke-linecap="butt" stroke-linejoin="miter" stroke="rgb(26.666667%, 26.666667%, 26.666667%)" stroke-opacity="1" stroke-miterlimit="10" d="M 469.058594 391.894531 L 572.382812 407.453125 "/>
<path fill="none" stroke-width="7" stroke-linecap="butt" stroke-linejoin="miter" stroke="rgb(26.666667%, 26.666667%, 26.666667%)" stroke-opacity="1" stroke-miterlimit="10" d="M 469.058594 391.894531 L 377.761719 419.066406 "/>
<path fill="none" stroke-width="2" stroke-linecap="butt" stroke-linejoin="miter" stroke="rgb(26.666667%, 26.666667%, 26.666667%)" stroke-opacity="1" stroke-miterlimit="10" d="M 469.058594 391.894531 L 412.804688 347.101562 "/>
<path fill="none" stroke-width="1" stroke-linecap="butt" stroke-linejoin="miter" stroke="rgb(26.666667%, 26.666667%, 26.666667%)" stroke-opacity="1" stroke-miterlimit="10" d="M 258.085938 268.9375 L 266.382812 215.847656 "/>
<path fill="none" stroke-width="1" stroke-linecap="butt" stroke-linejoin="miter" stroke="rgb(26.666667%, 26.666667%, 26.666667%)" stroke-opacity="1" stroke-miterlimit="10" d="M 258.085938 268.9375 L 353.167969 304.570312 "/>
<path fill="none" stroke-width="1" stroke-linecap="butt" stroke-linejoin="miter" stroke="rgb(26.666667%, 26.666667%, 26.666667%)" stroke-opacity="1" stroke-miterlimit="10" d="M 258.085938 268.9375 L 233.621094 306.382812 "/>
<path fill="none" stroke-width="6" stroke-linecap="butt" stroke-linejoin="miter" stroke="rgb(26.666667%, 26.666667%, 26.666667%)" stroke-opacity="1" stroke-miterlimit="10" d="M 258.085938 268.9375 L 140.011719 278.28125 "/>
<path fill="none" stroke-width="6" stroke-linecap="butt" stroke-linejoin="miter" stroke="rgb(26.666667%, 26.666667%, 26.666667%)" stroke-opacity="1" stroke-miterlimit="10" d="M 258.085938 268.9375 L 160.503906 303.050781 "/>
<path fill="none" stroke-width="1" stroke-linecap="butt" stroke-linejoin="miter" stroke="rgb(26.666667%, 26.666667%, 26.666667%)" stroke-opacity="1" stroke-miterlimit="10" d="M 266.382812 215.847656 L 265.292969 154.992188 "/>
<path fill="none" stroke-width="2" stroke-linecap="butt" stroke-linejoin="miter" stroke="rgb(26.666667%, 26.666667%, 26.666667%)" stroke-opacity="1" stroke-miterlimit="10" d="M 353.167969 304.570312 L 412.804688 347.101562 "/>
<path fill="none" stroke-width="3" stroke-linecap="butt" stroke-linejoin="miter" stroke="rgb(26.666667%, 26.666667%, 26.666667%)" stroke-opacity="1" stroke-miterlimit="10" d="M 454.945312 535.558594 L 454.691406 580 "/>
<path fill="none" stroke-width="2" stroke-linecap="butt" stroke-linejoin="miter" stroke="rgb(26.666667%, 26.666667%, 26.666667%)" stroke-opacity="1" stroke-miterlimit="10" d="M 454.945312 535.558594 L 459.699219 490.4375 "/>
<path fill="none" stroke-width="5" stroke-linecap="butt" stroke-linejoin="miter" stroke="rgb(26.666667%, 26.666667%, 26.666667%)" stroke-opacity="1" stroke-miterlimit="10" d="M 467.34375 443.242188 L 459.699219 490.4375 "/>
<path fill="none" stroke-width="2" stroke-linecap="butt" stroke-linejoin="miter" stroke="rgb(26.666667%, 26.666667%, 26.666667%)" stroke-opacity="1" stroke-miterlimit="10" d="M 382.640625 164.769531 L 499.09375 159.835938 "/>
<path fill="none" stroke-width="2" stroke-linecap="butt" stroke-linejoin="miter" stroke="rgb(26.666667%, 26.666667%, 26.666667%)" stroke-opacity="1" stroke-miterlimit="10" d="M 382.640625 164.769531 L 265.292969 154.992188 "/>
<path fill="none" stroke-width="6" stroke-linecap="butt" stroke-linejoin="miter" stroke="rgb(26.666667%, 26.666667%, 26.666667%)" stroke-opacity="1" stroke-miterlimit="10" d="M 59.230469 106.378906 L 138.207031 131.710938 "/>
<path fill="none" stroke-width="4" stroke-linecap="butt" stroke-linejoin="miter" stroke="rgb(26.666667%, 26.666667%, 26.666667%)" stroke-opacity="1" stroke-miterlimit="10" d="M 318.40625 180.5 L 265.292969 154.992188 "/>
<path fill="none" stroke-width="9" stroke-linecap="butt" stroke-linejoin="miter" stroke="rgb(26.666667%, 26.666667%, 26.666667%)" stroke-opacity="1" stroke-miterlimit="10" d="M 203.78125 178.625 L 265.292969 154.992188 "/>
<path fill="none" stroke-width="5" stroke-linecap="butt" stroke-linejoin="miter" stroke="rgb(26.666667%, 26.666667%, 26.666667%)" stroke-opacity="1" stroke-miterlimit="10" d="M 257.035156 122.085938 L 265.292969 154.992188 "/>
<path fill="none" stroke-width="4" stroke-linecap="butt" stroke-linejoin="miter" stroke="rgb(26.666667%, 26.666667%, 26.666667%)" stroke-opacity="1" stroke-miterlimit="10" d="M 71.566406 169.597656 L 138.207031 131.710938 "/>
<path fill="none" stroke-width="4" stroke-linecap="butt" stroke-linejoin="miter" stroke="rgb(26.666667%, 26.666667%, 26.666667%)" stroke-opacity="1" stroke-miterlimit="10" d="M 21.65625 128.546875 L 138.207031 131.710938 "/>
<path fill="none" stroke-width="4" stroke-linecap="butt" stroke-linejoin="miter" stroke="rgb(26.666667%, 26.666667%, 26.666667%)" stroke-opacity="1" stroke-miterlimit="10" d="M 26.644531 155.292969 L 138.207031 131.710938 "/>
<path fill="none" stroke-width="3" stroke-linecap="butt" stroke-linejoin="miter" stroke="rgb(26.666667%, 26.666667%, 26.666667%)" stroke-opacity="1" stroke-miterlimit="10" d="M 20 41.511719 L 91.410156 78.992188 "/>
<path fill="none" stroke-width="1" stroke-linecap="butt" stroke-linejoin="miter" stroke="rgb(26.666667%, 26.666667%, 26.666667%)" stroke-opacity="1" stroke-miterlimit="10" d="M 443.472656 20 L 380.585938 58.835938 "/>
<path fill="none" stroke-width="2" stroke-linecap="butt" stroke-linejoin="miter" stroke="rgb(26.666667%, 26.666667%, 26.666667%)" stroke-opacity="1" stroke-miterlimit="10" d="M 380.585938 58.835938 L 320.789062 103.769531 "/>
<path fill="none" stroke-width="1" stroke-linecap="butt" stroke-linejoin="miter" stroke="rgb(26.666667%, 26.666667%, 26.666667%)" stroke-opacity="1" stroke-miterlimit="10" d="M 476.742188 110.5 L 368.878906 133.464844 "/>
<path fill="none" stroke-width="2" stroke-linecap="butt" stroke-linejoin="miter" stroke="rgb(26.666667%, 26.666667%, 26.666667%)" stroke-opacity="1" stroke-miterlimit="10" d="M 91.410156 78.992188 L 138.207031 131.710938 "/>
<path fill="none" stroke-width="1" stroke-linecap="butt" stroke-linejoin="miter" stroke="rgb(26.666667%, 26.666667%, 26.666667%)" stroke-opacity="1" stroke-miterlimit="10" d="M 164.3125 83.730469 L 138.207031 131.710938 "/>
<path fill="none" stroke-width="6" stroke-linecap="butt" stroke-linejoin="miter" stroke="rgb(26.666667%, 26.666667%, 26.666667%)" stroke-opacity="1" stroke-miterlimit="10" d="M 368.878906 133.464844 L 265.292969 154.992188 "/>
<path fill="none" stroke-width="1" stroke-linecap="butt" stroke-linejoin="miter" stroke="rgb(26.666667%, 26.666667%, 26.666667%)" stroke-opacity="1" stroke-miterlimit="10" d="M 320.789062 103.769531 L 265.292969 154.992188 "/>
<path fill="none" stroke-width="1" stroke-linecap="butt" stroke-linejoin="miter" stroke="rgb(26.666667%, 26.666667%, 26.666667%)" stroke-opacity="1" stroke-miterlimit="10" d="M 265.292969 154.992188 L 138.207031 131.710938 "/>
<path fill-rule="nonzero" fill="rgb(100%, 0%, 0%)" fill-opacity="1" stroke-width="1" stroke-linecap="butt" stroke-linejoin="miter" stroke="rgb(0%, 0%, 0%)" stroke-opacity="1" stroke-miterlimit="10" d="M 479.058594 391.894531 C 479.058594 397.417969 474.582031 401.894531 469.058594 401.894531 C 463.539062 401.894531 459.058594 397.417969 459.058594 391.894531 C 459.058594 386.371094 463.539062 381.894531 469.058594 381.894531 C 474.582031 381.894531 479.058594 386.371094 479.058594 391.894531 "/>
<path fill-rule="nonzero" fill="rgb(100%, 0%, 0%)" fill-opacity="1" stroke-width="1" stroke-linecap="butt" stroke-linejoin="miter" stroke="rgb(0%, 0%, 0%)" stroke-opacity="1" stroke-miterlimit="10" d="M 268.085938 268.9375 C 268.085938 274.460938 263.609375 278.9375 258.085938 278.9375 C 252.5625 278.9375 248.085938 274.460938 248.085938 268.9375 C 248.085938 263.414062 252.5625 258.9375 258.085938 258.9375 C 263.609375 258.9375 268.085938 263.414062 268.085938 268.9375 "/>
<path fill-rule="nonzero" fill="rgb(100%, 0%, 0%)" fill-opacity="1" stroke-width="1" stroke-linecap="butt" stroke-linejoin="miter" stroke="rgb(0%, 0%, 0%)" stroke-opacity="1" stroke-miterlimit="10" d="M 276.382812 215.847656 C 276.382812 221.371094 271.90625 225.847656 266.382812 225.847656 C 260.859375 225.847656 256.382812 221.371094 256.382812 215.847656 C 256.382812 210.324219 260.859375 205.847656 266.382812 205.847656 C 271.90625 205.847656 276.382812 210.324219 276.382812 215.847656 "/>
<path fill-rule="nonzero" fill="rgb(100%, 0%, 0%)" fill-opacity="1" stroke-width="1" stroke-linecap="butt" stroke-linejoin="miter" stroke="rgb(0%, 0%, 0%)" stroke-opacity="1" stroke-miterlimit="10" d="M 363.167969 304.570312 C 363.167969 310.089844 358.691406 314.570312 353.167969 314.570312 C 347.648438 314.570312 343.167969 310.089844 343.167969 304.570312 C 343.167969 299.046875 347.648438 294.570312 353.167969 294.570312 C 358.691406 294.570312 363.167969 299.046875 363.167969 304.570312 "/>
<path fill-rule="nonzero" fill="rgb(100%, 0%, 0%)" fill-opacity="1" stroke-width="1" stroke-linecap="butt" stroke-linejoin="miter" stroke="rgb(0%, 0%, 0%)" stroke-opacity="1" stroke-miterlimit="10" d="M 590 375.414062 C 590 380.9375 585.523438 385.414062 580 385.414062 C 574.476562 385.414062 570 380.9375 570 375.414062 C 570 369.890625 574.476562 365.414062 580 365.414062 C 585.523438 365.414062 590 369.890625 590 375.414062 "/>
<path fill-rule="nonzero" fill="rgb(100%, 0%, 0%)" fill-opacity="1" stroke-width="1" stroke-linecap="butt" stroke-linejoin="miter" stroke="rgb(0%, 0%, 0%)" stroke-opacity="1" stroke-miterlimit="10" d="M 464.945312 535.558594 C 464.945312 541.082031 460.46875 545.558594 454.945312 545.558594 C 449.425781 545.558594 444.945312 541.082031 444.945312 535.558594 C 444.945312 530.035156 449.425781 525.558594 454.945312 525.558594 C 460.46875 525.558594 464.945312 530.035156 464.945312 535.558594 "/>
<path fill-rule="nonzero" fill="rgb(100%, 0%, 0%)" fill-opacity="1" stroke-width="1" stroke-linecap="butt" stroke-linejoin="miter" stroke="rgb(0%, 0%, 0%)" stroke-opacity="1" stroke-miterlimit="10" d="M 477.34375 443.242188 C 477.34375 448.765625 472.867188 453.242188 467.34375 453.242188 C 461.820312 453.242188 457.34375 448.765625 457.34375 443.242188 C 457.34375 437.71875 461.820312 433.242188 467.34375 433.242188 C 472.867188 433.242188 477.34375 437.71875 477.34375 443.242188 "/>
<path fill-rule="nonzero" fill="rgb(100%, 0%, 0%)" fill-opacity="1" stroke-width="1" stroke-linecap="butt" stroke-linejoin="miter" stroke="rgb(0%, 0%, 0%)" stroke-opacity="1" stroke-miterlimit="10" d="M 582.382812 407.453125 C 582.382812 412.976562 577.90625 417.453125 572.382812 417.453125 C 566.859375 417.453125 562.382812 412.976562 562.382812 407.453125 C 562.382812 401.929688 566.859375 397.453125 572.382812 397.453125 C 577.90625 397.453125 582.382812 401.929688 582.382812 407.453125 "/>
<path fill-rule="nonzero" fill="rgb(100%, 0%, 0%)" fill-opacity="1" stroke-width="1" stroke-linecap="butt" stroke-linejoin="miter" stroke="rgb(0%, 0%, 0%)" stroke-opacity="1" stroke-miterlimit="10" d="M 392.640625 164.769531 C 392.640625 170.292969 388.164062 174.769531 382.640625 174.769531 C 377.117188 174.769531 372.640625 170.292969 372.640625 164.769531 C 372.640625 159.246094 377.117188 154.769531 382.640625 154.769531 C 388.164062 154.769531 392.640625 159.246094 392.640625 164.769531 "/>
<path fill-rule="nonzero" fill="rgb(100%, 0%, 0%)" fill-opacity="1" stroke-width="1" stroke-linecap="butt" stroke-linejoin="miter" stroke="rgb(0%, 0%, 0%)" stroke-opacity="1" stroke-miterlimit="10" d="M 69.230469 106.378906 C 69.230469 111.898438 64.753906 116.378906 59.230469 116.378906 C 53.710938 116.378906 49.230469 111.898438 49.230469 106.378906 C 49.230469 100.855469 53.710938 96.378906 59.230469 96.378906 C 64.753906 96.378906 69.230469 100.855469 69.230469 106.378906 "/>
<path fill-rule="nonzero" fill="rgb(100%, 0%, 0%)" fill-opacity="1" stroke-width="1" stroke-linecap="butt" stroke-linejoin="miter" stroke="rgb(0%, 0%, 0%)" stroke-opacity="1" stroke-miterlimit="10" d="M 464.691406 580 C 464.691406 585.523438 460.214844 590 454.691406 590 C 449.167969 590 444.691406 585.523438 444.691406 580 C 444.691406 574.476562 449.167969 570 454.691406 570 C 460.214844 570 464.691406 574.476562 464.691406 580 "/>
<path fill-rule="nonzero" fill="rgb(100%, 0%, 0%)" fill-opacity="1" stroke-width="1" stroke-linecap="butt" stroke-linejoin="miter" stroke="rgb(0%, 0%, 0%)" stroke-opacity="1" stroke-miterlimit="10" d="M 387.761719 419.066406 C 387.761719 424.589844 383.285156 429.066406 377.761719 429.066406 C 372.238281 429.066406 367.761719 424.589844 367.761719 419.066406 C 367.761719 413.542969 372.238281 409.066406 377.761719 409.066406 C 383.285156 409.066406 387.761719 413.542969 387.761719 419.066406 "/>
<path fill-rule="nonzero" fill="rgb(100%, 0%, 0%)" fill-opacity="1" stroke-width="1" stroke-linecap="butt" stroke-linejoin="miter" stroke="rgb(0%, 0%, 0%)" stroke-opacity="1" stroke-miterlimit="10" d="M 422.804688 347.101562 C 422.804688 352.625 418.328125 357.101562 412.804688 357.101562 C 407.28125 357.101562 402.804688 352.625 402.804688 347.101562 C 402.804688 341.578125 407.28125 337.101562 412.804688 337.101562 C 418.328125 337.101562 422.804688 341.578125 422.804688 347.101562 "/>
<path fill-rule="nonzero" fill="rgb(100%, 0%, 0%)" fill-opacity="1" stroke-width="1" stroke-linecap="butt" stroke-linejoin="miter" stroke="rgb(0%, 0%, 0%)" stroke-opacity="1" stroke-miterlimit="10" d="M 243.621094 306.382812 C 243.621094 311.90625 239.144531 316.382812 233.621094 316.382812 C 228.097656 316.382812 223.621094 311.90625 223.621094 306.382812 C 223.621094 300.859375 228.097656 296.382812 233.621094 296.382812 C 239.144531 296.382812 243.621094 300.859375 243.621094 306.382812 "/>
<path fill-rule="nonzero" fill="rgb(100%, 0%, 0%)" fill-opacity="1" stroke-width="1" stroke-linecap="butt" stroke-linejoin="miter" stroke="rgb(0%, 0%, 0%)" stroke-opacity="1" stroke-miterlimit="10" d="M 328.40625 180.5 C 328.40625 186.023438 323.929688 190.5 318.40625 190.5 C 312.882812 190.5 308.40625 186.023438 308.40625 180.5 C 308.40625 174.976562 312.882812 170.5 318.40625 170.5 C 323.929688 170.5 328.40625 174.976562 328.40625 180.5 "/>
<path fill-rule="nonzero" fill="rgb(100%, 0%, 0%)" fill-opacity="1" stroke-width="1" stroke-linecap="butt" stroke-linejoin="miter" stroke="rgb(0%, 0%, 0%)" stroke-opacity="1" stroke-miterlimit="10" d="M 213.78125 178.625 C 213.78125 184.148438 209.304688 188.625 203.78125 188.625 C 198.257812 188.625 193.78125 184.148438 193.78125 178.625 C 193.78125 173.101562 198.257812 168.625 203.78125 168.625 C 209.304688 168.625 213.78125 173.101562 213.78125 178.625 "/>
<path fill-rule="nonzero" fill="rgb(100%, 0%, 0%)" fill-opacity="1" stroke-width="1" stroke-linecap="butt" stroke-linejoin="miter" stroke="rgb(0%, 0%, 0%)" stroke-opacity="1" stroke-miterlimit="10" d="M 469.699219 490.4375 C 469.699219 495.960938 465.21875 500.4375 459.699219 500.4375 C 454.175781 500.4375 449.699219 495.960938 449.699219 490.4375 C 449.699219 484.914062 454.175781 480.4375 459.699219 480.4375 C 465.21875 480.4375 469.699219 484.914062 469.699219 490.4375 "/>
<path fill-rule="nonzero" fill="rgb(100%, 0%, 0%)" fill-opacity="1" stroke-width="1" stroke-linecap="butt" stroke-linejoin="miter" stroke="rgb(0%, 0%, 0%)" stroke-opacity="1" stroke-miterlimit="10" d="M 150.011719 278.28125 C 150.011719 283.804688 145.535156 288.28125 140.011719 288.28125 C 134.488281 288.28125 130.011719 283.804688 130.011719 278.28125 C 130.011719 272.757812 134.488281 268.28125 140.011719 268.28125 C 145.535156 268.28125 150.011719 272.757812 150.011719 278.28125 "/>
<path fill-rule="nonzero" fill="rgb(100%, 0%, 0%)" fill-opacity="1" stroke-width="1" stroke-linecap="butt" stroke-linejoin="miter" stroke="rgb(0%, 0%, 0%)" stroke-opacity="1" stroke-miterlimit="10" d="M 267.035156 122.085938 C 267.035156 127.605469 262.558594 132.085938 257.035156 132.085938 C 251.511719 132.085938 247.035156 127.605469 247.035156 122.085938 C 247.035156 116.5625 251.511719 112.085938 257.035156 112.085938 C 262.558594 112.085938 267.035156 116.5625 267.035156 122.085938 "/>
<path fill-rule="nonzero" fill="rgb(100%, 0%, 0%)" fill-opacity="1" stroke-width="1" stroke-linecap="butt" stroke-linejoin="miter" stroke="rgb(0%, 0%, 0%)" stroke-opacity="1" stroke-miterlimit="10" d="M 81.566406 169.597656 C 81.566406 175.121094 77.089844 179.597656 71.566406 179.597656 C 66.042969 179.597656 61.566406 175.121094 61.566406 169.597656 C 61.566406 164.074219 66.042969 159.597656 71.566406 159.597656 C 77.089844 159.597656 81.566406 164.074219 81.566406 169.597656 "/>
<path fill-rule="nonzero" fill="rgb(100%, 0%, 0%)" fill-opacity="1" stroke-width="1" stroke-linecap="butt" stroke-linejoin="miter" stroke="rgb(0%, 0%, 0%)" stroke-opacity="1" stroke-miterlimit="10" d="M 31.65625 128.546875 C 31.65625 134.070312 27.179688 138.546875 21.65625 138.546875 C 16.132812 138.546875 11.65625 134.070312 11.65625 128.546875 C 11.65625 123.023438 16.132812 118.546875 21.65625 118.546875 C 27.179688 118.546875 31.65625 123.023438 31.65625 128.546875 "/>
<path fill-rule="nonzero" fill="rgb(100%, 0%, 0%)" fill-opacity="1" stroke-width="1" stroke-linecap="butt" stroke-linejoin="miter" stroke="rgb(0%, 0%, 0%)" stroke-opacity="1" stroke-miterlimit="10" d="M 170.503906 303.050781 C 170.503906 308.574219 166.027344 313.050781 160.503906 313.050781 C 154.980469 313.050781 150.503906 308.574219 150.503906 303.050781 C 150.503906 297.527344 154.980469 293.050781 160.503906 293.050781 C 166.027344 293.050781 170.503906 297.527344 170.503906 303.050781 "/>
<path fill-rule="nonzero" fill="rgb(100%, 0%, 0%)" fill-opacity="1" stroke-width="1" stroke-linecap="butt" stroke-linejoin="miter" stroke="rgb(0%, 0%, 0%)" stroke-opacity="1" stroke-miterlimit="10" d="M 36.644531 155.292969 C 36.644531 160.816406 32.167969 165.292969 26.644531 165.292969 C 21.121094 165.292969 16.644531 160.816406 16.644531 155.292969 C 16.644531 149.769531 21.121094 145.292969 26.644531 145.292969 C 32.167969 145.292969 36.644531 149.769531 36.644531 155.292969 "/>
<path fill-rule="nonzero" fill="rgb(100%, 0%, 0%)" fill-opacity="1" stroke-width="1" stroke-linecap="butt" stroke-linejoin="miter" stroke="rgb(0%, 0%, 0%)" stroke-opacity="1" stroke-miterlimit="10" d="M 30 41.511719 C 30 47.035156 25.523438 51.511719 20 51.511719 C 14.476562 51.511719 10 47.035156 10 41.511719 C 10 35.988281 14.476562 31.511719 20 31.511719 C 25.523438 31.511719 30 35.988281 30 41.511719 "/>
<path fill-rule="nonzero" fill="rgb(100%, 0%, 0%)" fill-opacity="1" stroke-width="1" stroke-linecap="butt" stroke-linejoin="miter" stroke="rgb(0%, 0%, 0%)" stroke-opacity="1" stroke-miterlimit="10" d="M 453.472656 20 C 453.472656 25.523438 448.996094 30 443.472656 30 C 437.949219 30 433.472656 25.523438 433.472656 20 C 433.472656 14.476562 437.949219 10 443.472656 10 C 448.996094 10 453.472656 14.476562 453.472656 20 "/>
<path fill-rule="nonzero" fill="rgb(100%, 0%, 0%)" fill-opacity="1" stroke-width="1" stroke-linecap="butt" stroke-linejoin="miter" stroke="rgb(0%, 0%, 0%)" stroke-opacity="1" stroke-miterlimit="10" d="M 390.585938 58.835938 C 390.585938 64.359375 386.109375 68.835938 380.585938 68.835938 C 375.0625 68.835938 370.585938 64.359375 370.585938 58.835938 C 370.585938 53.316406 375.0625 48.835938 380.585938 48.835938 C 386.109375 48.835938 390.585938 53.316406 390.585938 58.835938 "/>
<path fill-rule="nonzero" fill="rgb(100%, 0%, 0%)" fill-opacity="1" stroke-width="1" stroke-linecap="butt" stroke-linejoin="miter" stroke="rgb(0%, 0%, 0%)" stroke-opacity="1" stroke-miterlimit="10" d="M 486.742188 110.5 C 486.742188 116.023438 482.265625 120.5 476.742188 120.5 C 471.21875 120.5 466.742188 116.023438 466.742188 110.5 C 466.742188 104.980469 471.21875 100.5 476.742188 100.5 C 482.265625 100.5 486.742188 104.980469 486.742188 110.5 "/>
<path fill-rule="nonzero" fill="rgb(100%, 0%, 0%)" fill-opacity="1" stroke-width="1" stroke-linecap="butt" stroke-linejoin="miter" stroke="rgb(0%, 0%, 0%)" stroke-opacity="1" stroke-miterlimit="10" d="M 101.410156 78.992188 C 101.410156 84.515625 96.933594 88.992188 91.410156 88.992188 C 85.886719 88.992188 81.410156 84.515625 81.410156 78.992188 C 81.410156 73.46875 85.886719 68.992188 91.410156 68.992188 C 96.933594 68.992188 101.410156 73.46875 101.410156 78.992188 "/>
<path fill-rule="nonzero" fill="rgb(100%, 0%, 0%)" fill-opacity="1" stroke-width="1" stroke-linecap="butt" stroke-linejoin="miter" stroke="rgb(0%, 0%, 0%)" stroke-opacity="1" stroke-miterlimit="10" d="M 174.3125 83.730469 C 174.3125 89.253906 169.832031 93.730469 164.3125 93.730469 C 158.789062 93.730469 154.3125 89.253906 154.3125 83.730469 C 154.3125 78.207031 158.789062 73.730469 164.3125 73.730469 C 169.832031 73.730469 174.3125 78.207031 174.3125 83.730469 "/>
<path fill-rule="nonzero" fill="rgb(100%, 0%, 0%)" fill-opacity="1" stroke-width="1" stroke-linecap="butt" stroke-linejoin="miter" stroke="rgb(0%, 0%, 0%)" stroke-opacity="1" stroke-miterlimit="10" d="M 378.878906 133.464844 C 378.878906 138.988281 374.402344 143.464844 368.878906 143.464844 C 363.355469 143.464844 358.878906 138.988281 358.878906 133.464844 C 358.878906 127.941406 363.355469 123.464844 368.878906 123.464844 C 374.402344 123.464844 378.878906 127.941406 378.878906 133.464844 "/>
<path fill-rule="nonzero" fill="rgb(100%, 0%, 0%)" fill-opacity="1" stroke-width="1" stroke-linecap="butt" stroke-linejoin="miter" stroke="rgb(0%, 0%, 0%)" stroke-opacity="1" stroke-miterlimit="10" d="M 509.09375 159.835938 C 509.09375 165.355469 504.613281 169.835938 499.09375 169.835938 C 493.570312 169.835938 489.09375 165.355469 489.09375 159.835938 C 489.09375 154.3125 493.570312 149.835938 499.09375 149.835938 C 504.613281 149.835938 509.09375 154.3125 509.09375 159.835938 "/>
<path fill-rule="nonzero" fill="rgb(100%, 0%, 0%)" fill-opacity="1" stroke-width="1" stroke-linecap="butt" stroke-linejoin="miter" stroke="rgb(0%, 0%, 0%)" stroke-opacity="1" stroke-miterlimit="10" d="M 330.789062 103.769531 C 330.789062 109.292969 326.3125 113.769531 320.789062 113.769531 C 315.265625 113.769531 310.789062 109.292969 310.789062 103.769531 C 310.789062 98.246094 315.265625 93.769531 320.789062 93.769531 C 326.3125 93.769531 330.789062 98.246094 330.789062 103.769531 "/>
<path fill-rule="nonzero" fill="rgb(100%, 0%, 0%)" fill-opacity="1" stroke-width="1" stroke-linecap="butt" stroke-linejoin="miter" stroke="rgb(0%, 0%, 0%)" stroke-opacity="1" stroke-miterlimit="10" d="M 275.292969 154.992188 C 275.292969 160.515625 270.816406 164.992188 265.292969 164.992188 C 259.769531 164.992188 255.292969 160.515625 255.292969 154.992188 C 255.292969 149.46875 259.769531 144.992188 265.292969 144.992188 C 270.816406 144.992188 275.292969 149.46875 275.292969 154.992188 "/>
<path fill-rule="nonzero" fill="rgb(100%, 0%, 0%)" fill-opacity="1" stroke-width="1" stroke-linecap="butt" stroke-linejoin="miter" stroke="rgb(0%, 0%, 0%)" stroke-opacity="1" stroke-miterlimit="10" d="M 148.207031 131.710938 C 148.207031 137.230469 143.730469 141.710938 138.207031 141.710938 C 132.683594 141.710938 128.207031 137.230469 128.207031 131.710938 C 128.207031 126.1875 132.683594 121.710938 138.207031 121.710938 C 143.730469 121.710938 148.207031 126.1875 148.207031 131.710938 "/>
</svg>