<?xml version="1.0" encoding="UTF-8"?>
<svg xmlns="http://www.w3.org/2000/svg" xmlns:xlink="http://www.w3.org/1999/xlink" width="600" height="600" viewBox="0 0 600 600">
<rect x="-60" y="-60" width="720" height="720" fill="rgb(100%, 100%, 100%)" fill-opacity="1"/>
<path fill="none" stroke-width="2" stroke-linecap="butt" stroke-linejoin="miter" stroke="rgb(26.666667%, 26.666667%, 26.666667%)" stroke-opacity="1" stroke-miterlimit="10" d="M 293.222656 429.027344 L 217.710938 452.089844 "/>
<path fill="none" stroke-width="1" stroke-linecap="butt" stroke-linejoin="miter" stroke="rgb(26.666667%, 26.666667%, 26.666667%)" stroke-opacity="1" stroke-miterlimit="10" d="M 293.222656 429.027344 L 321.085938 483.871094 "/>
<path fill="none" stroke-width="4" stroke-linecap="butt" stroke-linejoin="miter" stroke="rgb(26.666667%, 26.666667%, 26.666667%)" stroke-opacity="1" stroke-miterlimit="10" d="M 293.222656 429.027344 L 351.320312 448.410156 "/>
<path fill="none" stroke-width="3" stroke-linecap="butt" stroke-linejoin="miter" stroke="rgb(26.666667%, 26.666667%, 26.666667%)" stroke-opacity="1" stroke-miterlimit="10" d="M 293.222656 429.027344 L 279.507812 462.925781 "/>
<path fill="none" stroke-width="2" stroke-linecap="butt" stroke-linejoin="miter" stroke="rgb(26.666667%, 26.666667%, 26.666667%)" stroke-opacity="1" stroke-miterlimit="10" d="M 293.222656 429.027344 L 335.289062 379.242188 "/>
<path fill="none" stroke-width="1" stroke-linecap="butt" stroke-linejoin="miter" stroke="rgb(26.666667%, 26.666667%, 26.666667%)" stroke-opacity="1" stroke-miterlimit="10" d="M 293.222656 429.027344 L 243.085938 403.507812 "/>
<path fill="none" stroke-width="3" stroke-linecap="butt" stroke-linejoin="miter" stroke="rgb(26.666667%, 26.666667%, 26.666667%)" stroke-opacity="1" stroke-miterlimit="10" d="M 293.222656 429.027344 L 271.234375 389.410156 "/>
<path fill="none" stroke-width="1" stroke-linecap="butt" stroke-linejoin="miter" stroke="rgb(26.666667%, 26.666667%, 26.666667%)" stroke-opacity="1" stroke-miterlimit="10" d="M 217.710938 452.089844 L 149.109375 442.835938 "/>
<path fill="none" stroke-width="3" stroke-linecap="butt" stroke-linejoin="miter" stroke="rgb(26.666667%, 26.666667%, 26.666667%)" stroke-opacity="1" stroke-miterlimit="10" d="M 217.710938 452.089844 L 204.097656 505.75 "/>
<path fill="none" stroke-width="3" stroke-linecap="butt" stroke-linejoin="miter" stroke="rgb(26.666667%, 26.666667%, 26.666667%)" stroke-opacity="1" stroke-miterlimit="10" d="M 381.328125 336.707031 L 450.316406 354.464844 "/>
<path fill="none" stroke-width="3" stroke-linecap="butt" stroke-linejoin="miter" stroke="rgb(26.666667%, 26.666667%, 26.666667%)" stroke-opacity="1" stroke-miterlimit="10" d="M 381.328125 336.707031 L 385.257812 280.046875 "/>
<path fill="none" stroke-width="1" stroke-linecap="butt" stroke-linejoin="miter" stroke="rgb(26.666667%, 26.666667%, 26.666667%)" stroke-opacity="1" stroke-miterlimit="10" d="M 381.328125 336.707031 L 335.289062 379.242188 "/>
<path fill="none" stroke-width="4" stroke-linecap="butt" stroke-linejoin="miter" stroke="rgb(26.666667%, 26.666667%, 26.666667%)" stroke-opacity="1" stroke-miterlimit="10" d="M 517.085938 368.550781 L 450.316406 354.464844 "/>
<path fill="none" stroke-width="3" stroke-linecap="butt" stroke-linejoin="miter" stroke="rgb(26.666667%, 26.666667%, 26.666667%)" stroke-opacity="1" stroke-miterlimit="10" d="M 517.085938 368.550781 L 580 380.140625 "/>
<path fill="none" stroke-width="1" stroke-linecap="butt" stroke-linejoin="miter" stroke="rgb(26.666667%, 26.666667%, 26.666667%)" stroke-opacity="1" stroke-miterlimit="10" d="M 404.421875 482.894531 L 351.320312 448.410156 "/>
<path fill="none" stroke-width="3" stroke-linecap="butt" stroke-linejoin="miter" stroke="rgb(26.666667%, 26.666667%, 26.666667%)" stroke-opacity="1" stroke-miterlimit="10" d="M 376.917969 580 L 348.199219 534.492188 "/>
<path fill="none" stroke-width="4" stroke-linecap="butt" stroke-linejoin="miter" stroke="rgb(26.666667%, 26.666667%, 26.666667%)" stroke-opacity="1" stroke-miterlimit="10" d="M 321.085938 483.871094 L 348.199219 534.492188 "/>
<path fill="none" stroke-width="4" stroke-linecap="butt" stroke-linejoin="miter" stroke="rgb(26.666667%, 26.666667%, 26.666667%)" stroke-opacity="1" stroke-miterlimit="10" d="M 190.320312 556.820312 L 204.097656 505.75 "/>
<path fill="none" stroke-width="2" stroke-linecap="butt" stroke-linejoin="miter" stroke="rgb(26.666667%, 26.666667%, 26.666667%)" stroke-opacity="1" stroke-miterlimit="10" d="M 20 455.789062 L 82.234375 449.382812 "/>
<path fill="none" stroke-width="5" stroke-linecap="butt" stroke-linejoin="miter" stroke="rgb(26.666667%, 26.666667%, 26.666667%)" stroke-opacity="1" stroke-miterlimit="10" d="M 266.601562 125.195312 L 332.792969 122.605469 "/>
<path fill="none" stroke-width="5" stroke-linecap="butt" stroke-linejoin="miter" stroke="rgb(26.666667%, 26.666667%, 26.666667%)" stroke-opacity="1" stroke-miterlimit="10" d="M 51.726562 498.628906 L 82.234375 449.382812 "/>
<path fill="none" stroke-width="1" stroke-linecap="butt" stroke-linejoin="miter" stroke="rgb(26.666667%, 26.666667%, 26.666667%)" stroke-opacity="1" stroke-miterlimit="10" d="M 390.957031 95.628906 L 332.792969 122.605469 "/>
<path fill="none" stroke-width="1" stroke-linecap="butt" stroke-linejoin="miter" stroke="rgb(26.666667%, 26.666667%, 26.666667%)" stroke-opacity="1" stroke-miterlimit="10" d="M 149.109375 442.835938 L 82.234375 449.382812 "/>
<path fill="none" stroke-width="2" stroke-linecap="butt" stroke-linejoin="miter" stroke="rgb(26.666667%, 26.666667%, 26.666667%)" stroke-opacity="1" stroke-miterlimit="10" d="M 280.953125 91.152344 L 332.792969 122.605469 "/>
<path fill="none" stroke-width="3" stroke-linecap="butt" stroke-linejoin="miter" stroke="rgb(26.666667%, 26.666667%, 26.666667%)" stroke-opacity="1" stroke-miterlimit="10" d="M 39.136719 408.476562 L 82.234375 449.382812 "/>
<path fill="none" stroke-width="3" stroke-linecap="butt" stroke-linejoin="miter" stroke="rgb(26.666667%, 26.666667%, 26.666667%)" stroke-opacity="1" stroke-miterlimit="10" d="M 360.75 228.351562 L 385.257812 280.046875 "/>
<path fill="none" stroke-width="3" stroke-linecap="butt" stroke-linejoin="miter" stroke="rgb(26.666667%, 26.666667%, 26.666667%)" stroke-opacity="1" stroke-miterlimit="10" d="M 360.75 228.351562 L 360.207031 173.914062 "/>
<path fill="none" stroke-width="5" stroke-linecap="butt" stroke-linejoin="miter" stroke="rgb(26.666667%, 26.666667%, 26.666667%)" stroke-opacity="1" stroke-miterlimit="10" d="M 451.605469 267.777344 L 516.625 255.207031 "/>
<path fill="none" stroke-width="4" stroke-linecap="butt" stroke-linejoin="miter" stroke="rgb(26.666667%, 26.666667%, 26.666667%)" stroke-opacity="1" stroke-miterlimit="10" d="M 451.605469 267.777344 L 385.257812 280.046875 "/>
<path fill="none" stroke-width="9" stroke-linecap="butt" stroke-linejoin="miter" stroke="rgb(26.666667%, 26.666667%, 26.666667%)" stroke-opacity="1" stroke-miterlimit="10" d="M 424.757812 157.136719 L 360.207031 173.914062 "/>
<path fill="none" stroke-width="2" stroke-linecap="butt" stroke-linejoin="miter" stroke="rgb(26.666667%, 26.666667%, 26.666667%)" stroke-opacity="1" stroke-miterlimit="10" d="M 351.402344 20 L 342.011719 69.285156 "/>
<path fill="none" stroke-width="3" stroke-linecap="butt" stroke-linejoin="miter" stroke="rgb(26.666667%, 26.666667%, 26.666667%)" stroke-opacity="1" stroke-miterlimit="10" d="M 360.207031 173.914062 L 332.792969 122.605469 "/>
<path fill="none" stroke-width="1" stroke-linecap="butt" stroke-linejoin="miter" stroke="rgb(26.666667%, 26.666667%, 26.666667%)" stroke-opacity="1" stroke-miterlimit="10" d="M 342.011719 69.285156 L 332.792969 122.605469 "/>
<path fill-rule="nonzero" fill="rgb(100%, 0%, 0%)" fill-opacity="1" stroke-width="1" stroke-linecap="butt" stroke-linejoin="miter" stroke="rgb(0%, 0%, 0%)" stroke-opacity="1" stroke-miterlimit="10" d="M 303.222656 429.027344 C 303.222656 434.550781 298.746094 439.027344 293.222656 439.027344 C 287.699219 439.027344 283.222656 434.550781 283.222656 429.027344 C 283.222656 423.503906 287.699219 419.027344 293.222656 419.027344 C 298.746094 419.027344 303.222656 423.503906 303.222656 429.027344 "/>
<path fill-rule="nonzero" fill="rgb(100%, 0%, 0%)" fill-opacity="1" stroke-width="1" stroke-linecap="butt" stroke-linejoin="miter" stroke="rgb(0%, 0%, 0%)" stroke-opacity="1" stroke-miterlimit="10" d="M 227.710938 452.089844 C 227.710938 457.613281 223.234375 462.089844 217.710938 462.089844 C 212.1875 462.089844 207.710938 457.613281 207.710938 452.089844 C 207.710938 446.566406 212.1875 442.089844 217.710938 442.089844 C 223.234375 442.089844 227.710938 446.566406 227.710938 452.089844 "/>
<path fill-rule="nonzero" fill="rgb(100%, 0%, 0%)" fill-opacity="1" stroke-width="1" stroke-linecap="butt" stroke-linejoin="miter" stroke="rgb(0%, 0%, 0%)" stroke-opacity="1" stroke-miterlimit="10" d="M 391.328125 336.707031 C 391.328125 342.230469 386.851562 346.707031 381.328125 346.707031 C 375.804688 346.707031 371.328125 342.230469 371.328125 336.707031 C 371.328125 331.183594 375.804688 326.707031 381.328125 326.707031 C 386.851562 326.707031 391.328125 331.183594 391.328125 336.707031 "/>
<path fill-rule="nonzero" fill="rgb(100%, 0%, 0%)" fill-opacity="1" stroke-width="1" stroke-linecap="butt" stroke-linejoin="miter" stroke="rgb(0%, 0%, 0%)" stroke-opacity="1" stroke-miterlimit="10" d="M 527.085938 368.550781 C 527.085938 374.070312 522.605469 378.550781 517.085938 378.550781 C 511.5625 378.550781 507.085938 374.070312 507.085938 368.550781 C 507.085938 363.027344 511.5625 358.550781 517.085938 358.550781 C 522.605469 358.550781 527.085938 363.027344 527.085938 368.550781 "/>
<path fill-rule="nonzero" fill="rgb(100%, 0%, 0%)" fill-opacity="1" stroke-width="1" stroke-linecap="butt" stroke-linejoin="miter" stroke="rgb(0%, 0%, 0%)" stroke-opacity="1" stroke-miterlimit="10" d="M 414.421875 482.894531 C 414.421875 488.417969 409.945312 492.894531 404.421875 492.894531 C 398.898438 492.894531 394.421875 488.417969 394.421875 482.894531 C 394.421875 477.371094 398.898438 472.894531 404.421875 472.894531 C 409.945312 472.894531 414.421875 477.371094 414.421875 482.894531 "/>
<path fill-rule="nonzero" fill="rgb(100%, 0%, 0%)" fill-opacity="1" stroke-width="1" stroke-linecap="butt" stroke-linejoin="miter" stroke="rgb(0%, 0%, 0%)" stroke-opacity="1" stroke-miterlimit="10" d="M 386.917969 580 C 386.917969 585.523438 382.441406 590 376.917969 590 C 371.398438 590 366.917969 585.523438 366.917969 580 C 366.917969 574.476562 371.398438 570 376.917969 570 C 382.441406 570 386.917969 574.476562 386.917969 580 "/>
<path fill-rule="nonzero" fill="rgb(100%, 0%, 0%)" fill-opacity="1" stroke-width="1" stroke-linecap="butt" stroke-linejoin="miter" stroke="rgb(0%, 0%, 0%)" stroke-opacity="1" stroke-miterlimit="10" d="M 331.085938 483.871094 C 331.085938 489.394531 326.609375 493.871094 321.085938 493.871094 C 315.566406 493.871094 311.085938 489.394531 311.085938 483.871094 C 311.085938 478.347656 315.566406 473.871094 321.085938 473.871094 C 326.609375 473.871094 331.085938 478.347656 331.085938 483.871094 "/>
<path fill-rule="nonzero" fill="rgb(100%, 0%, 0%)" fill-opacity="1" stroke-width="1" stroke-linecap="butt" stroke-linejoin="miter" stroke="rgb(0%, 0%, 0%)" stroke-opacity="1" stroke-miterlimit="10" d="M 460.316406 354.464844 C 460.316406 359.988281 455.839844 364.464844 450.316406 364.464844 C 444.792969 364.464844 440.316406 359.988281 440.316406 354.464844 C 440.316406 348.941406 444.792969 344.464844 450.316406 344.464844 C 455.839844 344.464844 460.316406 348.941406 460.316406 354.464844 "/>
<path fill-rule="nonzero" fill="rgb(100%, 0%, 0%)" fill-opacity="1" stroke-width="1" stroke-linecap="butt" stroke-linejoin="miter" stroke="rgb(0%, 0%, 0%)" stroke-opacity="1" stroke-miterlimit="10" d="M 200.320312 556.820312 C 200.320312 562.34375 195.84375 566.820312 190.320312 566.820312 C 184.796875 566.820312 180.320312 562.34375 180.320312 556.820312 C 180.320312 551.296875 184.796875 546.820312 190.320312 546.820312 C 195.84375 546.820312 200.320312 551.296875 200.320312 556.820312 "/>
<path fill-rule="nonzero" fill="rgb(100%, 0%, 0%)" fill-opacity="1" stroke-width="1" stroke-linecap="butt" stroke-linejoin="miter" stroke="rgb(0%, 0%, 0%)" stroke-opacity="1" stroke-miterlimit="10" d="M 30 455.789062 C 30 461.3125 25.523438 465.789062 20 465.789062 C 14.476562 465.789062 10 461.3125 10 455.789062 C 10 450.265625 14.476562 445.789062 20 445.789062 C 25.523438 445.789062 30 450.265625 30 455.789062 "/>
<path fill-rule="nonzero" fill="rgb(100%, 0%, 0%)" fill-opacity="1" stroke-width="1" stroke-linecap="butt" stroke-linejoin="miter" stroke="rgb(0%, 0%, 0%)" stroke-opacity="1" stroke-miterlimit="10" d="M 361.320312 448.410156 C 361.320312 453.933594 356.84375 458.410156 351.320312 458.410156 C 345.796875 458.410156 341.320312 453.933594 341.320312 448.410156 C 341.320312 442.890625 345.796875 438.410156 351.320312 438.410156 C 356.84375 438.410156 361.320312 442.890625 361.320312 448.410156 "/>
<path fill-rule="nonzero" fill="rgb(100%, 0%, 0%)" fill-opacity="1" stroke-width="1" stroke-linecap="butt" stroke-linejoin="miter" stroke="rgb(0%, 0%, 0%)" stroke-opacity="1" stroke-miterlimit="10" d="M 289.507812 462.925781 C 289.507812 468.449219 285.027344 472.925781 279.507812 472.925781 C 273.984375 472.925781 269.507812 468.449219 269.507812 462.925781 C 269.507812 457.402344 273.984375 452.925781 279.507812 452.925781 C 285.027344 452.925781 289.507812 457.402344 289.507812 462.925781 "/>
<path fill-rule="nonzero" fill="rgb(100%, 0%, 0%)" fill-opacity="1" stroke-width="1" stroke-linecap="butt" stroke-linejoin="miter" stroke="rgb(0%, 0%, 0%)" stroke-opacity="1" stroke-miterlimit="10" d="M 590 380.140625 C 590 385.660156 585.523438 390.140625 580 390.140625 C 574.476562 390.140625 570 385.660156 570 380.140625 C 570 374.617188 574.476562 370.140625 580 370.140625 C 585.523438 370.140625 590 374.617188 590 380.140625 "/>
<path fill-rule="nonzero" fill="rgb(100%, 0%, 0%)" fill-opacity="1" stroke-width="1" stroke-linecap="butt" stroke-linejoin="miter" stroke="rgb(0%, 0%, 0%)" stroke-opacity="1" stroke-miterlimit="10" d="M 345.289062 379.242188 C 345.289062 384.765625 340.808594 389.242188 335.289062 389.242188 C 329.765625 389.242188 325.289062 384.765625 325.289062 379.242188 C 325.289062 373.71875 329.765625 369.242188 335.289062 369.242188 C 340.808594 369.242188 345.289062 373.71875 345.289062 379.242188 "/>
<path fill-rule="nonzero" fill="rgb(100%, 0%, 0%)" fill-opacity="1" stroke-width="1" stroke-linecap="butt" stroke-linejoin="miter" stroke="rgb(0%, 0%, 0%)" stroke-opacity="1" stroke-miterlimit="10" d="M 276.601562 125.195312 C 276.601562 130.71875 272.125 135.195312 266.601562 135.195312 C 261.078125 135.195312 256.601562 130.71875 256.601562 125.195312 C 256.601562 119.675781 261.078125 115.195312 266.601562 115.195312 C 272.125 115.195312 276.601562 119.675781 276.601562 125.195312 "/>
<path fill-rule="nonzero" fill="rgb(100%, 0%, 0%)" fill-opacity="1" stroke-width="1" stroke-linecap="butt" stroke-linejoin="miter" stroke="rgb(0%, 0%, 0%)" stroke-opacity="1" stroke-miterlimit="10" d="M 61.726562 498.628906 C 61.726562 504.152344 57.25 508.628906 51.726562 508.628906 C 46.203125 508.628906 41.726562 504.152344 41.726562 498.628906 C 41.726562 493.105469 46.203125 488.628906 51.726562 488.628906 C 57.25 488.628906 61.726562 493.105469 61.726562 498.628906 "/>
<path fill-rule="nonzero" fill="rgb(100%, 0%, 0%)" fill-opacity="1" stroke-width="1" stroke-linecap="butt" stroke-linejoin="miter" stroke="rgb(0%, 0%, 0%)" stroke-opacity="1" stroke-miterlimit="10" d="M 358.199219 534.492188 C 358.199219 540.015625 353.722656 544.492188 348.199219 544.492188 C 342.675781 544.492188 338.199219 540.015625 338.199219 534.492188 C 338.199219 528.96875 342.675781 524.492188 348.199219 524.492188 C 353.722656 524.492188 358.199219 528.96875 358.199219 534.492188 "/>
<path fill-rule="nonzero" fill="rgb(100%, 0%, 0%)" fill-opacity="1" stroke-width="1" stroke-linecap="butt" stroke-linejoin="miter" stroke="rgb(0%, 0%, 0%)" stroke-opacity="1" stroke-miterlimit="10" d="M 253.085938 403.507812 C 253.085938 409.03125 248.609375 413.507812 243.085938 413.507812 C 237.5625 413.507812 233.085938 409.03125 233.085938 403.507812 C 233.085938 397.984375 237.5625 393.507812 243.085938 393.507812 C 248.609375 393.507812 253.085938 397.984375 253.085938 403.507812 "/>
<path fill-rule="nonzero" fill="rgb(100%, 0%, 0%)" fill-opacity="1" stroke-width="1" stroke-linecap="butt" stroke-linejoin="miter" stroke="rgb(0%, 0%, 0%)" stroke-opacity="1" stroke-miterlimit="10" d="M 400.957031 95.628906 C 400.957031 101.152344 396.476562 105.628906 390.957031 105.628906 C 385.433594 105.628906 380.957031 101.152344 380.957031 95.628906 C 380.957031 90.105469 385.433594 85.628906 390.957031 85.628906 C 396.476562 85.628906 400.957031 90.105469 400.957031 95.628906 "/>
<path fill-rule="nonzero" fill="rgb(100%, 0%, 0%)" fill-opacity="1" stroke-width="1" stroke-linecap="butt" stroke-linejoin="miter" stroke="rgb(0%, 0%, 0%)" stroke-opacity="1" stroke-miterlimit="10" d="M 159.109375 442.835938 C 159.109375 448.359375 154.632812 452.835938 149.109375 452.835938 C 143.589844 452.835938 139.109375 448.359375 139.109375 442.835938 C 139.109375 437.3125 143.589844 432.835938 149.109375 432.835938 C 154.632812 432.835938 159.109375 437.3125 159.109375 442.835938 "/>
<path fill-rule="nonzero" fill="rgb(100%, 0%, 0%)" fill-opacity="1" stroke-width="1" stroke-linecap="butt" stroke-linejoin="miter" stroke="rgb(0%, 0%, 0%)" stroke-opacity="1" stroke-miterlimit="10" d="M 290.953125 91.152344 C 290.953125 96.675781 286.472656 101.152344 280.953125 101.152344 C 275.429688 101.152344 270.953125 96.675781 270.953125 91.152344 C 270.953125 85.628906 275.429688 81.152344 280.953125 81.152344 C 286.472656 81.152344 290.953125 85.628906 290.953125 91.152344 "/>
<path fill-rule="nonzero" fill="rgb(100%, 0%, 0%)" fill-opacity="1" stroke-width="1" stroke-linecap="butt" stroke-linejoin="miter" stroke="rgb(0%, 0%, 0%)" stroke-opacity="1" stroke-miterlimit="10" d="M 281.234375 389.410156 C 281.234375 394.933594 276.753906 399.410156 271.234375 399.410156 C 265.710938 399.410156 261.234375 394.933594 261.234375 389.410156 C 261.234375 383.890625 265.710938 379.410156 271.234375 379.410156 C 276.753906 379.410156 281.234375 383.890625 281.234375 389.410156 "/>
<path fill-rule="nonzero" fill="rgb(100%, 0%, 0%)" fill-opacity="1" stroke-width="1" stroke-linecap="butt" stroke-linejoin="miter" stroke="rgb(0%, 0%, 0%)" stroke-opacity="1" stroke-miterlimit="10" d="M 49.136719 408.476562 C 49.136719 414 44.660156 418.476562 39.136719 418.476562 C 33.617188 418.476562 29.136719 414 29.136719 408.476562 C 29.136719 402.953125 33.617188 398.476562 39.136719 398.476562 C 44.660156 398.476562 49.136719 402.953125 49.136719 408.476562 "/>
<path fill-rule="nonzero" fill="rgb(100%, 0%, 0%)" fill-opacity="1" stroke-width="1" stroke-linecap="butt" stroke-linejoin="miter" stroke="rgb(0%, 0%, 0%)" stroke-opacity="1" stroke-miterlimit="10" d="M 370.75 228.351562 C 370.75 233.871094 366.273438 238.351562 360.75 238.351562 C 355.226562 238.351562 350.75 233.871094 350.75 228.351562 C 350.75 222.828125 355.226562 218.351562 360.75 218.351562 C 366.273438 218.351562 370.75 222.828125 370.75 228.351562 "/>
<path fill-rule="nonzero" fill="rgb(100%, 0%, 0%)" fill-opacity="1" stroke-width="1" stroke-linecap="butt" stroke-linejoin="miter" stroke="rgb(0%, 0%, 0%)" stroke-opacity="1" stroke-miterlimit="10" d="M 461.605469 267.777344 C 461.605469 273.300781 457.128906 277.777344 451.605469 277.777344 C 446.082031 277.777344 441.605469 273.300781 441.605469 267.777344 C 441.605469 262.253906 446.082031 257.777344 451.605469 257.777344 C 457.128906 257.777344 461.605469 262.253906 461.605469 267.777344 "/>
<path fill-rule="nonzero" fill="rgb(100%, 0%, 0%)" fill-opacity="1" stroke-width="1" stroke-linecap="butt" stroke-linejoin="miter" stroke="rgb(0%, 0%, 0%)" stroke-opacity="1" stroke-miterlimit="10" d="M 526.625 255.207031 C 526.625 260.730469 522.148438 265.207031 516.625 265.207031 C 511.101562 265.207031 506.625 260.730469 506.625 255.207031 C 506.625 249.683594 511.101562 245.207031 516.625 245.207031 C 522.148438 245.207031 526.625 249.683594 526.625 255.207031 "/>
<path fill-rule="nonzero" fill="rgb(100%, 0%, 0%)" fill-opacity="1" stroke-width="1" stroke-linecap="butt" stroke-linejoin="miter" stroke="rgb(0%, 0%, 0%)" stroke-opacity="1" stroke-miterlimit="10" d="M 434.757812 157.136719 C 434.757812 162.65625 430.28125 167.136719 424.757812 167.136719 C 419.234375 167.136719 414.757812 162.65625 414.757812 157.136719 C 414.757812 151.613281 419.234375 147.136719 424.757812 147.136719 C 430.28125 147.136719 434.757812 151.613281 434.757812 157.136719 "/>
<path fill-rule="nonzero" fill="rgb(100%, 0%, 0%)" fill-opacity="1" stroke-width="1" stroke-linecap="butt" stroke-linejoin="miter" stroke="rgb(0%, 0%, 0%)" stroke-opacity="1" stroke-miterlimit="10" d="M 395.257812 280.046875 C 395.257812 285.570312 390.78125 290.046875 385.257812 290.046875 C 379.734375 290.046875 375.257812 285.570312 375.257812 280.046875 C 375.257812 274.523438 379.734375 270.046875 385.257812 270.046875 C 390.78125 270.046875 395.257812 274.523438 395.257812 280.046875 "/>
<path fill-rule="nonzero" fill="rgb(100%, 0%, 0%)" fill-opacity="1" stroke-width="1" stroke-linecap="butt" stroke-linejoin="miter" stroke="rgb(0%, 0%, 0%)" stroke-opacity="1" stroke-miterlimit="10" d="M 361.402344 20 C 361.402344 25.523438 356.925781 30 351.402344 30 C 345.878906 30 341.402344 25.523438 341.402344 20 C 341.402344 14.476562 345.878906 10 351.402344 10 C 356.925781 10 361.402344 14.476562 361.402344 20 "/>
<path fill-rule="nonzero" fill="rgb(100%, 0%, 0%)" fill-opacity="1" stroke-width="1" stroke-linecap="butt" stroke-linejoin="miter" stroke="rgb(0%, 0%, 0%)" stroke-opacity="1" stroke-miterlimit="10" d="M 370.207031 173.914062 C 370.207031 179.4375 365.730469 183.914062 360.207031 183.914062 C 354.683594 183.914062 350.207031 179.4375 350.207031 173.914062 C 350.207031 168.390625 354.683594 163.914062 360.207031 163.914062 C 365.730469 163.914062 370.207031 168.390625 370.207031 173.914062 "/>
<path fill-rule="nonzero" fill="rgb(100%, 0%, 0%)" fill-opacity="1" stroke-width="1" stroke-linecap="butt" stroke-linejoin="miter" stroke="rgb(0%, 0%, 0%)" stroke-opacity="1" stroke-miterlimit="10" d="M 214.097656 505.75 C 214.097656 511.273438 209.621094 515.75 204.097656 515.75 C 198.574219 515.75 194.097656 511.273438 194.097656 505.75 C 194.097656 500.230469 198.574219 495.75 204.097656 495.75 C 209.621094 495.75 214.097656 500.230469 214.097656 505.75 "/>
<path fill-rule="nonzero" fill="rgb(100%, 0%, 0%)" fill-opacity="1" stroke-width="1" stroke-linecap="butt" stroke-linejoin="miter" stroke="rgb(0%, 0%, 0%)" stroke-opacity="1" stroke-miterlimit="10" d="M 352.011719 69.285156 C 352.011719 74.808594 347.535156 79.285156 342.011719 79.285156 C 336.488281 79.285156 332.011719 74.808594 332.011719 69.285156 C 332.011719 63.761719 336.488281 59.285156 342.011719 59.285156 C 347.535156 59.285156 352.011719 63.761719 352.011719 69.285156 "/>
<path fill-rule="nonzero" fill="rgb(100%, 0%, 0%)" fill-opacity="1" stroke-width="1" stroke-linecap="butt" stroke-linejoin="miter" stroke="rgb(0%, 0%, 0%)" stroke-opacity="1" stroke-miterlimit="10" d="M 342.792969 122.605469 C 342.792969 128.128906 338.316406 132.605469 332.792969 132.605469 C 327.269531 132.605469 322.792969 128.128906 322.792969 122.605469 C 322.792969 117.082031 327.269531 112.605469 332.792969 112.605469 C 338.316406 112.605469 342.792969 117.082031 342.792969 122.605469 "/>
<path fill-rule="nonzero" fill="rgb(100%, 0%, 0%)" fill-opacity="1" stroke-width="1" stroke-linecap="butt" stroke-linejoin="miter" stroke="rgb(0%, 0%, 0%)" stroke-opacity="1" stroke-miterlimit="10" d="M 92.234375 449.382812 C 92.234375 454.90625 87.757812 459.382812 82.234375 459.382812 C 76.714844 459.382812 72.234375 454.90625 72.234375 449.382812 C 72.234375 443.859375 76.714844 439.382812 82.234375 439.382812 C 87.757812 439.382812 92.234375 443.859375 92.234375 449.382812 "/>
</svg>