<?xml version="1.0" encoding="UTF-8"?>
<svg xmlns="http://www.w3.org/2000/svg" xmlns:xlink="http://www.w3.org/1999/xlink" width="600" height="600" viewBox="0 0 600 600">
<rect x="-60" y="-60" width="720" height="720" fill="rgb(100%, 100%, 100%)" fill-opacity="1"/>
<path fill="none" stroke-width="2" stroke-linecap="butt" stroke-linejoin="miter" stroke="rgb(26.666667%, 26.666667%, 26.666667%)" stroke-opacity="1" stroke-miterlimit="10" d="M 191.582031 428.980469 L 172.539062 488.550781 "/>
<path fill="none" stroke-width="2" stroke-linecap="butt" stroke-linejoin="miter" stroke="rgb(26.666667%, 26.666667%, 26.666667%)" stroke-opacity="1" stroke-miterlimit="10" d="M 191.582031 428.980469 L 97.816406 426.160156 "/>
<path fill="none" stroke-width="3" stroke-linecap="butt" stroke-linejoin="miter" stroke="rgb(26.666667%, 26.666667%, 26.666667%)" stroke-opacity="1" stroke-miterlimit="10" d="M 191.582031 428.980469 L 229.089844 508.933594 "/>
<path fill="none" stroke-width="7" stroke-linecap="butt" stroke-linejoin="miter" stroke="rgb(26.666667%, 26.666667%, 26.666667%)" stroke-opacity="1" stroke-miterlimit="10" d="M 191.582031 428.980469 L 125.011719 387.160156 "/>
<path fill="none" stroke-width="7" stroke-linecap="butt" stroke-linejoin="miter" stroke="rgb(26.666667%, 26.666667%, 26.666667%)" stroke-opacity="1" stroke-miterlimit="10" d="M 191.582031 428.980469 L 130.386719 465.511719 "/>
<path fill="none" stroke-width="2" stroke-linecap="butt" stroke-linejoin="miter" stroke="rgb(26.666667%, 26.666667%, 26.666667%)" stroke-opacity="1" stroke-miterlimit="10" d="M 191.582031 428.980469 L 206.007812 400.964844 "/>
<path fill="none" stroke-width="2" stroke-linecap="butt" stroke-linejoin="miter" stroke="rgb(26.666667%, 26.666667%, 26.666667%)" stroke-opacity="1" stroke-miterlimit="10" d="M 191.582031 428.980469 L 242.957031 349.339844 "/>
<path fill="none" stroke-width="3" stroke-linecap="butt" stroke-linejoin="miter" stroke="rgb(26.666667%, 26.666667%, 26.666667%)" stroke-opacity="1" stroke-miterlimit="10" d="M 191.582031 428.980469 L 262.21875 460.140625 "/>
<path fill="none" stroke-width="1" stroke-linecap="butt" stroke-linejoin="miter" stroke="rgb(26.666667%, 26.666667%, 26.666667%)" stroke-opacity="1" stroke-miterlimit="10" d="M 439.773438 308.558594 L 510.015625 353.722656 "/>
<path fill="none" stroke-width="2" stroke-linecap="butt" stroke-linejoin="miter" stroke="rgb(26.666667%, 26.666667%, 26.666667%)" stroke-opacity="1" stroke-miterlimit="10" d="M 439.773438 308.558594 L 376.96875 248.296875 "/>
<path fill="none" stroke-width="1" stroke-linecap="butt" stroke-linejoin="miter" stroke="rgb(26.666667%, 26.666667%, 26.666667%)" stroke-opacity="1" stroke-miterlimit="10" d="M 510.015625 353.722656 L 580 387.988281 "/>
<path fill="none" stroke-width="2" stroke-linecap="butt" stroke-linejoin="miter" stroke="rgb(26.666667%, 26.666667%, 26.666667%)" stroke-opacity="1" stroke-miterlimit="10" d="M 282.449219 565.71875 L 229.089844 508.933594 "/>
<path fill="none" stroke-width="2" stroke-linecap="butt" stroke-linejoin="miter" stroke="rgb(26.666667%, 26.666667%, 26.666667%)" stroke-opacity="1" stroke-miterlimit="10" d="M 196.035156 580 L 229.089844 508.933594 "/>
<path fill="none" stroke-width="3" stroke-linecap="butt" stroke-linejoin="miter" stroke="rgb(26.666667%, 26.666667%, 26.666667%)" stroke-opacity="1" stroke-miterlimit="10" d="M 97.816406 426.160156 L 20 441.519531 "/>
<path fill="none" stroke-width="5" stroke-linecap="butt" stroke-linejoin="miter" stroke="rgb(26.666667%, 26.666667%, 26.666667%)" stroke-opacity="1" stroke-miterlimit="10" d="M 440.921875 120.933594 L 431.664062 181 "/>
<path fill="none" stroke-width="6" stroke-linecap="butt" stroke-linejoin="miter" stroke="rgb(26.666667%, 26.666667%, 26.666667%)" stroke-opacity="1" stroke-miterlimit="10" d="M 224.824219 279.773438 L 280.183594 268.019531 "/>
<path fill="none" stroke-width="4" stroke-linecap="butt" stroke-linejoin="miter" stroke="rgb(26.666667%, 26.666667%, 26.666667%)" stroke-opacity="1" stroke-miterlimit="10" d="M 323.386719 313.464844 L 280.183594 268.019531 "/>
<path fill="none" stroke-width="2" stroke-linecap="butt" stroke-linejoin="miter" stroke="rgb(26.666667%, 26.666667%, 26.666667%)" stroke-opacity="1" stroke-miterlimit="10" d="M 496.902344 226.320312 L 431.664062 181 "/>
<path fill="none" stroke-width="3" stroke-linecap="butt" stroke-linejoin="miter" stroke="rgb(26.666667%, 26.666667%, 26.666667%)" stroke-opacity="1" stroke-miterlimit="10" d="M 508.515625 188.519531 L 431.664062 181 "/>
<path fill="none" stroke-width="2" stroke-linecap="butt" stroke-linejoin="miter" stroke="rgb(26.666667%, 26.666667%, 26.666667%)" stroke-opacity="1" stroke-miterlimit="10" d="M 215.277344 242.792969 L 280.183594 268.019531 "/>
<path fill="none" stroke-width="2" stroke-linecap="butt" stroke-linejoin="miter" stroke="rgb(26.666667%, 26.666667%, 26.666667%)" stroke-opacity="1" stroke-miterlimit="10" d="M 242.957031 349.339844 L 280.183594 268.019531 "/>
<path fill="none" stroke-width="3" stroke-linecap="butt" stroke-linejoin="miter" stroke="rgb(26.666667%, 26.666667%, 26.666667%)" stroke-opacity="1" stroke-miterlimit="10" d="M 268.589844 200.3125 L 280.183594 268.019531 "/>
<path fill="none" stroke-width="3" stroke-linecap="butt" stroke-linejoin="miter" stroke="rgb(26.666667%, 26.666667%, 26.666667%)" stroke-opacity="1" stroke-miterlimit="10" d="M 307.082031 225.566406 L 280.183594 268.019531 "/>
<path fill="none" stroke-width="3" stroke-linecap="butt" stroke-linejoin="miter" stroke="rgb(26.666667%, 26.666667%, 26.666667%)" stroke-opacity="1" stroke-miterlimit="10" d="M 504.417969 136.492188 L 576.582031 106.695312 "/>
<path fill="none" stroke-width="2" stroke-linecap="butt" stroke-linejoin="miter" stroke="rgb(26.666667%, 26.666667%, 26.666667%)" stroke-opacity="1" stroke-miterlimit="10" d="M 504.417969 136.492188 L 431.664062 181 "/>
<path fill="none" stroke-width="3" stroke-linecap="butt" stroke-linejoin="miter" stroke="rgb(26.666667%, 26.666667%, 26.666667%)" stroke-opacity="1" stroke-miterlimit="10" d="M 68.910156 127.757812 L 147.351562 142.265625 "/>
<path fill="none" stroke-width="1" stroke-linecap="butt" stroke-linejoin="miter" stroke="rgb(26.666667%, 26.666667%, 26.666667%)" stroke-opacity="1" stroke-miterlimit="10" d="M 132.21875 68.855469 L 147.351562 142.265625 "/>
<path fill="none" stroke-width="3" stroke-linecap="butt" stroke-linejoin="miter" stroke="rgb(26.666667%, 26.666667%, 26.666667%)" stroke-opacity="1" stroke-miterlimit="10" d="M 420.03125 20 L 405.347656 96.097656 "/>
<path fill="none" stroke-width="5" stroke-linecap="butt" stroke-linejoin="miter" stroke="rgb(26.666667%, 26.666667%, 26.666667%)" stroke-opacity="1" stroke-miterlimit="10" d="M 208.148438 196.253906 L 147.351562 142.265625 "/>
<path fill="none" stroke-width="3" stroke-linecap="butt" stroke-linejoin="miter" stroke="rgb(26.666667%, 26.666667%, 26.666667%)" stroke-opacity="1" stroke-miterlimit="10" d="M 208.148438 196.253906 L 280.183594 268.019531 "/>
<path fill="none" stroke-width="1" stroke-linecap="butt" stroke-linejoin="miter" stroke="rgb(26.666667%, 26.666667%, 26.666667%)" stroke-opacity="1" stroke-miterlimit="10" d="M 405.347656 96.097656 L 431.664062 181 "/>
<path fill="none" stroke-width="1" stroke-linecap="butt" stroke-linejoin="miter" stroke="rgb(26.666667%, 26.666667%, 26.666667%)" stroke-opacity="1" stroke-miterlimit="10" d="M 376.96875 248.296875 L 431.664062 181 "/>
<path fill="none" stroke-width="2" stroke-linecap="butt" stroke-linejoin="miter" stroke="rgb(26.666667%, 26.666667%, 26.666667%)" stroke-opacity="1" stroke-miterlimit="10" d="M 376.96875 248.296875 L 280.183594 268.019531 "/>
<path fill-rule="nonzero" fill="rgb(100%, 0%, 0%)" fill-opacity="1" stroke-width="1" stroke-linecap="butt" stroke-linejoin="miter" stroke="rgb(0%, 0%, 0%)" stroke-opacity="1" stroke-miterlimit="10" d="M 201.582031 428.980469 C 201.582031 434.503906 197.105469 438.980469 191.582031 438.980469 C 186.0625 438.980469 181.582031 434.503906 181.582031 428.980469 C 181.582031 423.457031 186.0625 418.980469 191.582031 418.980469 C 197.105469 418.980469 201.582031 423.457031 201.582031 428.980469 "/>
<path fill-rule="nonzero" fill="rgb(100%, 0%, 0%)" fill-opacity="1" stroke-width="1" stroke-linecap="butt" stroke-linejoin="miter" stroke="rgb(0%, 0%, 0%)" stroke-opacity="1" stroke-miterlimit="10" d="M 449.773438 308.558594 C 449.773438 314.082031 445.296875 318.558594 439.773438 318.558594 C 434.253906 318.558594 429.773438 314.082031 429.773438 308.558594 C 429.773438 303.035156 434.253906 298.558594 439.773438 298.558594 C 445.296875 298.558594 449.773438 303.035156 449.773438 308.558594 "/>
<path fill-rule="nonzero" fill="rgb(100%, 0%, 0%)" fill-opacity="1" stroke-width="1" stroke-linecap="butt" stroke-linejoin="miter" stroke="rgb(0%, 0%, 0%)" stroke-opacity="1" stroke-miterlimit="10" d="M 182.539062 488.550781 C 182.539062 494.074219 178.0625 498.550781 172.539062 498.550781 C 167.015625 498.550781 162.539062 494.074219 162.539062 488.550781 C 162.539062 483.027344 167.015625 478.550781 172.539062 478.550781 C 178.0625 478.550781 182.539062 483.027344 182.539062 488.550781 "/>
<path fill-rule="nonzero" fill="rgb(100%, 0%, 0%)" fill-opacity="1" stroke-width="1" stroke-linecap="butt" stroke-linejoin="miter" stroke="rgb(0%, 0%, 0%)" stroke-opacity="1" stroke-miterlimit="10" d="M 520.015625 353.722656 C 520.015625 359.246094 515.535156 363.722656 510.015625 363.722656 C 504.492188 363.722656 500.015625 359.246094 500.015625 353.722656 C 500.015625 348.203125 504.492188 343.722656 510.015625 343.722656 C 515.535156 343.722656 520.015625 348.203125 520.015625 353.722656 "/>
<path fill-rule="nonzero" fill="rgb(100%, 0%, 0%)" fill-opacity="1" stroke-width="1" stroke-linecap="butt" stroke-linejoin="miter" stroke="rgb(0%, 0%, 0%)" stroke-opacity="1" stroke-miterlimit="10" d="M 292.449219 565.71875 C 292.449219 571.238281 287.972656 575.71875 282.449219 575.71875 C 276.925781 575.71875 272.449219 571.238281 272.449219 565.71875 C 272.449219 560.195312 276.925781 555.71875 282.449219 555.71875 C 287.972656 555.71875 292.449219 560.195312 292.449219 565.71875 "/>
<path fill-rule="nonzero" fill="rgb(100%, 0%, 0%)" fill-opacity="1" stroke-width="1" stroke-linecap="butt" stroke-linejoin="miter" stroke="rgb(0%, 0%, 0%)" stroke-opacity="1" stroke-miterlimit="10" d="M 206.035156 580 C 206.035156 585.523438 201.558594 590 196.035156 590 C 190.511719 590 186.035156 585.523438 186.035156 580 C 186.035156 574.476562 190.511719 570 196.035156 570 C 201.558594 570 206.035156 574.476562 206.035156 580 "/>
<path fill-rule="nonzero" fill="rgb(100%, 0%, 0%)" fill-opacity="1" stroke-width="1" stroke-linecap="butt" stroke-linejoin="miter" stroke="rgb(0%, 0%, 0%)" stroke-opacity="1" stroke-miterlimit="10" d="M 107.816406 426.160156 C 107.816406 431.683594 103.335938 436.160156 97.816406 436.160156 C 92.292969 436.160156 87.816406 431.683594 87.816406 426.160156 C 87.816406 420.636719 92.292969 416.160156 97.816406 416.160156 C 103.335938 416.160156 107.816406 420.636719 107.816406 426.160156 "/>
<path fill-rule="nonzero" fill="rgb(100%, 0%, 0%)" fill-opacity="1" stroke-width="1" stroke-linecap="butt" stroke-linejoin="miter" stroke="rgb(0%, 0%, 0%)" stroke-opacity="1" stroke-miterlimit="10" d="M 590 387.988281 C 590 393.511719 585.523438 397.988281 580 397.988281 C 574.476562 397.988281 570 393.511719 570 387.988281 C 570 382.464844 574.476562 377.988281 580 377.988281 C 585.523438 377.988281 590 382.464844 590 387.988281 "/>
<path fill-rule="nonzero" fill="rgb(100%, 0%, 0%)" fill-opacity="1" stroke-width="1" stroke-linecap="butt" stroke-linejoin="miter" stroke="rgb(0%, 0%, 0%)" stroke-opacity="1" stroke-miterlimit="10" d="M 450.921875 120.933594 C 450.921875 126.457031 446.445312 130.933594 440.921875 130.933594 C 435.398438 130.933594 430.921875 126.457031 430.921875 120.933594 C 430.921875 115.414062 435.398438 110.933594 440.921875 110.933594 C 446.445312 110.933594 450.921875 115.414062 450.921875 120.933594 "/>
<path fill-rule="nonzero" fill="rgb(100%, 0%, 0%)" fill-opacity="1" stroke-width="1" stroke-linecap="butt" stroke-linejoin="miter" stroke="rgb(0%, 0%, 0%)" stroke-opacity="1" stroke-miterlimit="10" d="M 234.824219 279.773438 C 234.824219 285.296875 230.347656 289.773438 224.824219 289.773438 C 219.300781 289.773438 214.824219 285.296875 214.824219 279.773438 C 214.824219 274.25 219.300781 269.773438 224.824219 269.773438 C 230.347656 269.773438 234.824219 274.25 234.824219 279.773438 "/>
<path fill-rule="nonzero" fill="rgb(100%, 0%, 0%)" fill-opacity="1" stroke-width="1" stroke-linecap="butt" stroke-linejoin="miter" stroke="rgb(0%, 0%, 0%)" stroke-opacity="1" stroke-miterlimit="10" d="M 239.089844 508.933594 C 239.089844 514.457031 234.613281 518.933594 229.089844 518.933594 C 223.566406 518.933594 219.089844 514.457031 219.089844 508.933594 C 219.089844 503.410156 223.566406 498.933594 229.089844 498.933594 C 234.613281 498.933594 239.089844 503.410156 239.089844 508.933594 "/>
<path fill-rule="nonzero" fill="rgb(100%, 0%, 0%)" fill-opacity="1" stroke-width="1" stroke-linecap="butt" stroke-linejoin="miter" stroke="rgb(0%, 0%, 0%)" stroke-opacity="1" stroke-miterlimit="10" d="M 135.011719 387.160156 C 135.011719 392.683594 130.535156 397.160156 125.011719 397.160156 C 119.488281 397.160156 115.011719 392.683594 115.011719 387.160156 C 115.011719 381.636719 119.488281 377.160156 125.011719 377.160156 C 130.535156 377.160156 135.011719 381.636719 135.011719 387.160156 "/>
<path fill-rule="nonzero" fill="rgb(100%, 0%, 0%)" fill-opacity="1" stroke-width="1" stroke-linecap="butt" stroke-linejoin="miter" stroke="rgb(0%, 0%, 0%)" stroke-opacity="1" stroke-miterlimit="10" d="M 140.386719 465.511719 C 140.386719 471.035156 135.910156 475.511719 130.386719 475.511719 C 124.863281 475.511719 120.386719 471.035156 120.386719 465.511719 C 120.386719 459.988281 124.863281 455.511719 130.386719 455.511719 C 135.910156 455.511719 140.386719 459.988281 140.386719 465.511719 "/>
<path fill-rule="nonzero" fill="rgb(100%, 0%, 0%)" fill-opacity="1" stroke-width="1" stroke-linecap="butt" stroke-linejoin="miter" stroke="rgb(0%, 0%, 0%)" stroke-opacity="1" stroke-miterlimit="10" d="M 333.386719 313.464844 C 333.386719 318.988281 328.910156 323.464844 323.386719 323.464844 C 317.863281 323.464844 313.386719 318.988281 313.386719 313.464844 C 313.386719 307.945312 317.863281 303.464844 323.386719 303.464844 C 328.910156 303.464844 333.386719 307.945312 333.386719 313.464844 "/>
<path fill-rule="nonzero" fill="rgb(100%, 0%, 0%)" fill-opacity="1" stroke-width="1" stroke-linecap="butt" stroke-linejoin="miter" stroke="rgb(0%, 0%, 0%)" stroke-opacity="1" stroke-miterlimit="10" d="M 506.902344 226.320312 C 506.902344 231.84375 502.425781 236.320312 496.902344 236.320312 C 491.378906 236.320312 486.902344 231.84375 486.902344 226.320312 C 486.902344 220.796875 491.378906 216.320312 496.902344 216.320312 C 502.425781 216.320312 506.902344 220.796875 506.902344 226.320312 "/>
<path fill-rule="nonzero" fill="rgb(100%, 0%, 0%)" fill-opacity="1" stroke-width="1" stroke-linecap="butt" stroke-linejoin="miter" stroke="rgb(0%, 0%, 0%)" stroke-opacity="1" stroke-miterlimit="10" d="M 518.515625 188.519531 C 518.515625 194.042969 514.039062 198.519531 508.515625 198.519531 C 502.992188 198.519531 498.515625 194.042969 498.515625 188.519531 C 498.515625 182.996094 502.992188 178.519531 508.515625 178.519531 C 514.039062 178.519531 518.515625 182.996094 518.515625 188.519531 "/>
<path fill-rule="nonzero" fill="rgb(100%, 0%, 0%)" fill-opacity="1" stroke-width="1" stroke-linecap="butt" stroke-linejoin="miter" stroke="rgb(0%, 0%, 0%)" stroke-opacity="1" stroke-miterlimit="10" d="M 30 441.519531 C 30 447.042969 25.523438 451.519531 20 451.519531 C 14.476562 451.519531 10 447.042969 10 441.519531 C 10 435.996094 14.476562 431.519531 20 431.519531 C 25.523438 431.519531 30 435.996094 30 441.519531 "/>
<path fill-rule="nonzero" fill="rgb(100%, 0%, 0%)" fill-opacity="1" stroke-width="1" stroke-linecap="butt" stroke-linejoin="miter" stroke="rgb(0%, 0%, 0%)" stroke-opacity="1" stroke-miterlimit="10" d="M 216.007812 400.964844 C 216.007812 406.488281 211.53125 410.964844 206.007812 410.964844 C 200.484375 410.964844 196.007812 406.488281 196.007812 400.964844 C 196.007812 395.441406 200.484375 390.964844 206.007812 390.964844 C 211.53125 390.964844 216.007812 395.441406 216.007812 400.964844 "/>
<path fill-rule="nonzero" fill="rgb(100%, 0%, 0%)" fill-opacity="1" stroke-width="1" stroke-linecap="butt" stroke-linejoin="miter" stroke="rgb(0%, 0%, 0%)" stroke-opacity="1" stroke-miterlimit="10" d="M 225.277344 242.792969 C 225.277344 248.316406 220.800781 252.792969 215.277344 252.792969 C 209.753906 252.792969 205.277344 248.316406 205.277344 242.792969 C 205.277344 237.269531 209.753906 232.792969 215.277344 232.792969 C 220.800781 232.792969 225.277344 237.269531 225.277344 242.792969 "/>
<path fill-rule="nonzero" fill="rgb(100%, 0%, 0%)" fill-opacity="1" stroke-width="1" stroke-linecap="butt" stroke-linejoin="miter" stroke="rgb(0%, 0%, 0%)" stroke-opacity="1" stroke-miterlimit="10" d="M 252.957031 349.339844 C 252.957031 354.863281 248.480469 359.339844 242.957031 359.339844 C 237.433594 359.339844 232.957031 354.863281 232.957031 349.339844 C 232.957031 343.816406 237.433594 339.339844 242.957031 339.339844 C 248.480469 339.339844 252.957031 343.816406 252.957031 349.339844 "/>
<path fill-rule="nonzero" fill="rgb(100%, 0%, 0%)" fill-opacity="1" stroke-width="1" stroke-linecap="butt" stroke-linejoin="miter" stroke="rgb(0%, 0%, 0%)" stroke-opacity="1" stroke-miterlimit="10" d="M 278.589844 200.3125 C 278.589844 205.835938 274.113281 210.3125 268.589844 210.3125 C 263.070312 210.3125 258.589844 205.835938 258.589844 200.3125 C 258.589844 194.789062 263.070312 190.3125 268.589844 190.3125 C 274.113281 190.3125 278.589844 194.789062 278.589844 200.3125 "/>
<path fill-rule="nonzero" fill="rgb(100%, 0%, 0%)" fill-opacity="1" stroke-width="1" stroke-linecap="butt" stroke-linejoin="miter" stroke="rgb(0%, 0%, 0%)" stroke-opacity="1" stroke-miterlimit="10" d="M 272.21875 460.140625 C 272.21875 465.660156 267.738281 470.140625 262.21875 470.140625 C 256.695312 470.140625 252.21875 465.660156 252.21875 460.140625 C 252.21875 454.617188 256.695312 450.140625 262.21875 450.140625 C 267.738281 450.140625 272.21875 454.617188 272.21875 460.140625 "/>
<path fill-rule="nonzero" fill="rgb(100%, 0%, 0%)" fill-opacity="1" stroke-width="1" stroke-linecap="butt" stroke-linejoin="miter" stroke="rgb(0%, 0%, 0%)" stroke-opacity="1" stroke-miterlimit="10" d="M 317.082031 225.566406 C 317.082031 231.089844 312.605469 235.566406 307.082031 235.566406 C 301.558594 235.566406 297.082031 231.089844 297.082031 225.566406 C 297.082031 220.046875 301.558594 215.566406 307.082031 215.566406 C 312.605469 215.566406 317.082031 220.046875 317.082031 225.566406 "/>
<path fill-rule="nonzero" fill="rgb(100%, 0%, 0%)" fill-opacity="1" stroke-width="1" stroke-linecap="butt" stroke-linejoin="miter" stroke="rgb(0%, 0%, 0%)" stroke-opacity="1" stroke-miterlimit="10" d="M 514.417969 136.492188 C 514.417969 142.011719 509.941406 146.492188 504.417969 146.492188 C 498.894531 146.492188 494.417969 142.011719 494.417969 136.492188 C 494.417969 130.96875 498.894531 126.492188 504.417969 126.492188 C 509.941406 126.492188 514.417969 130.96875 514.417969 136.492188 "/>
<path fill-rule="nonzero" fill="rgb(100%, 0%, 0%)" fill-opacity="1" stroke-width="1" stroke-linecap="butt" stroke-linejoin="miter" stroke="rgb(0%, 0%, 0%)" stroke-opacity="1" stroke-miterlimit="10" d="M 78.910156 127.757812 C 78.910156 133.28125 74.433594 137.757812 68.910156 137.757812 C 63.390625 137.757812 58.910156 133.28125 58.910156 127.757812 C 58.910156 122.238281 63.390625 117.757812 68.910156 117.757812 C 74.433594 117.757812 78.910156 122.238281 78.910156 127.757812 "/>
<path fill-rule="nonzero" fill="rgb(100%, 0%, 0%)" fill-opacity="1" stroke-width="1" stroke-linecap="butt" stroke-linejoin="miter" stroke="rgb(0%, 0%, 0%)" stroke-opacity="1" stroke-miterlimit="10" d="M 142.21875 68.855469 C 142.21875 74.375 137.742188 78.855469 132.21875 78.855469 C 126.699219 78.855469 122.21875 74.375 122.21875 68.855469 C 122.21875 63.332031 126.699219 58.855469 132.21875 58.855469 C 137.742188 58.855469 142.21875 63.332031 142.21875 68.855469 "/>
<path fill-rule="nonzero" fill="rgb(100%, 0%, 0%)" fill-opacity="1" stroke-width="1" stroke-linecap="butt" stroke-linejoin="miter" stroke="rgb(0%, 0%, 0%)" stroke-opacity="1" stroke-miterlimit="10" d="M 430.03125 20 C 430.03125 25.523438 425.554688 30 420.03125 30 C 414.511719 30 410.03125 25.523438 410.03125 20 C 410.03125 14.476562 414.511719 10 420.03125 10 C 425.554688 10 430.03125 14.476562 430.03125 20 "/>
<path fill-rule="nonzero" fill="rgb(100%, 0%, 0%)" fill-opacity="1" stroke-width="1" stroke-linecap="butt" stroke-linejoin="miter" stroke="rgb(0%, 0%, 0%)" stroke-opacity="1" stroke-miterlimit="10" d="M 586.582031 106.695312 C 586.582031 112.21875 582.105469 116.695312 576.582031 116.695312 C 571.058594 116.695312 566.582031 112.21875 566.582031 106.695312 C 566.582031 101.175781 571.058594 96.695312 576.582031 96.695312 C 582.105469 96.695312 586.582031 101.175781 586.582031 106.695312 "/>
<path fill-rule="nonzero" fill="rgb(100%, 0%, 0%)" fill-opacity="1" stroke-width="1" stroke-linecap="butt" stroke-linejoin="miter" stroke="rgb(0%, 0%, 0%)" stroke-opacity="1" stroke-miterlimit="10" d="M 218.148438 196.253906 C 218.148438 201.773438 213.671875 206.253906 208.148438 206.253906 C 202.625 206.253906 198.148438 201.773438 198.148438 196.253906 C 198.148438 190.730469 202.625 186.253906 208.148438 186.253906 C 213.671875 186.253906 218.148438 190.730469 218.148438 196.253906 "/>
<path fill-rule="nonzero" fill="rgb(100%, 0%, 0%)" fill-opacity="1" stroke-width="1" stroke-linecap="butt" stroke-linejoin="miter" stroke="rgb(0%, 0%, 0%)" stroke-opacity="1" stroke-miterlimit="10" d="M 415.347656 96.097656 C 415.347656 101.621094 410.871094 106.097656 405.347656 106.097656 C 399.824219 106.097656 395.347656 101.621094 395.347656 96.097656 C 395.347656 90.574219 399.824219 86.097656 405.347656 86.097656 C 410.871094 86.097656 415.347656 90.574219 415.347656 96.097656 "/>
<path fill-rule="nonzero" fill="rgb(100%, 0%, 0%)" fill-opacity="1" stroke-width="1" stroke-linecap="butt" stroke-linejoin="miter" stroke="rgb(0%, 0%, 0%)" stroke-opacity="1" stroke-miterlimit="10" d="M 386.96875 248.296875 C 386.96875 253.820312 382.492188 258.296875 376.96875 258.296875 C 371.445312 258.296875 366.96875 253.820312 366.96875 248.296875 C 366.96875 242.773438 371.445312 238.296875 376.96875 238.296875 C 382.492188 238.296875 386.96875 242.773438 386.96875 248.296875 "/>
<path fill-rule="nonzero" fill="rgb(100%, 0%, 0%)" fill-opacity="1" stroke-width="1" stroke-linecap="butt" stroke-linejoin="miter" stroke="rgb(0%, 0%, 0%)" stroke-opacity="1" stroke-miterlimit="10" d="M 157.351562 142.265625 C 157.351562 147.789062 152.875 152.265625 147.351562 152.265625 C 141.832031 152.265625 137.351562 147.789062 137.351562 142.265625 C 137.351562 136.746094 141.832031 132.265625 147.351562 132.265625 C 152.875 132.265625 157.351562 136.746094 157.351562 142.265625 "/>
<path fill-rule="nonzero" fill="rgb(100%, 0%, 0%)" fill-opacity="1" stroke-width="1" stroke-linecap="butt" stroke-linejoin="miter" stroke="rgb(0%, 0%, 0%)" stroke-opacity="1" stroke-miterlimit="10" d="M 441.664062 181 C 441.664062 186.523438 437.1875 191 431.664062 191 C 426.144531 191 421.664062 186.523438 421.664062 181 C 421.664062 175.476562 426.144531 171 431.664062 171 C 437.1875 171 441.664062 175.476562 441.664062 181 "/>
<path fill-rule="nonzero" fill="rgb(100%, 0%, 0%)" fill-opacity="1" stroke-width="1" stroke-linecap="butt" stroke-linejoin="miter" stroke="rgb(0%, 0%, 0%)" stroke-opacity="1" stroke-miterlimit="10" d="M 290.183594 268.019531 C 290.183594 273.542969 285.707031 278.019531 280.183594 278.019531 C 274.660156 278.019531 270.183594 273.542969 270.183594 268.019531 C 270.183594 262.496094 274.660156 258.019531 280.183594 258.019531 C 285.707031 258.019531 290.183594 262.496094 290.183594 268.019531 "/>
</svg>