<?xml version="1.0" encoding="UTF-8"?>
<svg xmlns="http://www.w3.org/2000/svg" xmlns:xlink="http://www.w3.org/1999/xlink" width="600" height="600" viewBox="0 0 600 600">
<rect x="-60" y="-60" width="720" height="720" fill="rgb(100%, 100%, 100%)" fill-opacity="1"/>
<path fill="none" stroke-width="2" stroke-linecap="butt" stroke-linejoin="miter" stroke="rgb(26.666667%, 26.666667%, 26.666667%)" stroke-opacity="1" stroke-miterlimit="10" d="M 359.355469 346.222656 L 294.855469 276.953125 "/>
<path fill="none" stroke-width="5" stroke-linecap="butt" stroke-linejoin="miter" stroke="rgb(26.666667%, 26.666667%, 26.666667%)" stroke-opacity="1" stroke-miterlimit="10" d="M 359.355469 346.222656 L 441.777344 342.558594 "/>
<path fill="none" stroke-width="7" stroke-linecap="butt" stroke-linejoin="miter" stroke="rgb(26.666667%, 26.666667%, 26.666667%)" stroke-opacity="1" stroke-miterlimit="10" d="M 359.355469 346.222656 L 428.433594 307.46875 "/>
<path fill="none" stroke-width="4" stroke-linecap="butt" stroke-linejoin="miter" stroke="rgb(26.666667%, 26.666667%, 26.666667%)" stroke-opacity="1" stroke-miterlimit="10" d="M 359.355469 346.222656 L 434.957031 405.75 "/>
<path fill="none" stroke-width="6" stroke-linecap="butt" stroke-linejoin="miter" stroke="rgb(26.666667%, 26.666667%, 26.666667%)" stroke-opacity="1" stroke-miterlimit="10" d="M 359.355469 346.222656 L 342.554688 433.0625 "/>
<path fill="none" stroke-width="1" stroke-linecap="butt" stroke-linejoin="miter" stroke="rgb(26.666667%, 26.666667%, 26.666667%)" stroke-opacity="1" stroke-miterlimit="10" d="M 359.355469 346.222656 L 314.109375 403.621094 "/>
<path fill="none" stroke-width="3" stroke-linecap="butt" stroke-linejoin="miter" stroke="rgb(26.666667%, 26.666667%, 26.666667%)" stroke-opacity="1" stroke-miterlimit="10" d="M 359.355469 346.222656 L 382.125 403.949219 "/>
<path fill="none" stroke-width="2" stroke-linecap="butt" stroke-linejoin="miter" stroke="rgb(26.666667%, 26.666667%, 26.666667%)" stroke-opacity="1" stroke-miterlimit="10" d="M 267.554688 93.496094 L 291.101562 178.703125 "/>
<path fill="none" stroke-width="5" stroke-linecap="butt" stroke-linejoin="miter" stroke="rgb(26.666667%, 26.666667%, 26.666667%)" stroke-opacity="1" stroke-miterlimit="10" d="M 267.554688 93.496094 L 215.984375 30.617188 "/>
<path fill="none" stroke-width="4" stroke-linecap="butt" stroke-linejoin="miter" stroke="rgb(26.666667%, 26.666667%, 26.666667%)" stroke-opacity="1" stroke-miterlimit="10" d="M 267.554688 93.496094 L 304.597656 20 "/>
<path fill="none" stroke-width="3" stroke-linecap="butt" stroke-linejoin="miter" stroke="rgb(26.666667%, 26.666667%, 26.666667%)" stroke-opacity="1" stroke-miterlimit="10" d="M 294.855469 276.953125 L 291.101562 178.703125 "/>
<path fill="none" stroke-width="5" stroke-linecap="butt" stroke-linejoin="miter" stroke="rgb(26.666667%, 26.666667%, 26.666667%)" stroke-opacity="1" stroke-miterlimit="10" d="M 294.855469 276.953125 L 313.746094 237.007812 "/>
<path fill="none" stroke-width="4" stroke-linecap="butt" stroke-linejoin="miter" stroke="rgb(26.666667%, 26.666667%, 26.666667%)" stroke-opacity="1" stroke-miterlimit="10" d="M 294.855469 276.953125 L 373.664062 227.746094 "/>
<path fill="none" stroke-width="2" stroke-linecap="butt" stroke-linejoin="miter" stroke="rgb(26.666667%, 26.666667%, 26.666667%)" stroke-opacity="1" stroke-miterlimit="10" d="M 294.855469 276.953125 L 197.074219 292.335938 "/>
<path fill="none" stroke-width="3" stroke-linecap="butt" stroke-linejoin="miter" stroke="rgb(26.666667%, 26.666667%, 26.666667%)" stroke-opacity="1" stroke-miterlimit="10" d="M 291.101562 178.703125 L 346.816406 124.804688 "/>
<path fill="none" stroke-width="4" stroke-linecap="butt" stroke-linejoin="miter" stroke="rgb(26.666667%, 26.666667%, 26.666667%)" stroke-opacity="1" stroke-miterlimit="10" d="M 487.160156 465.808594 L 533.726562 523.675781 "/>
<path fill="none" stroke-width="2" stroke-linecap="butt" stroke-linejoin="miter" stroke="rgb(26.666667%, 26.666667%, 26.666667%)" stroke-opacity="1" stroke-miterlimit="10" d="M 487.160156 465.808594 L 434.957031 405.75 "/>
<path fill="none" stroke-width="2" stroke-linecap="butt" stroke-linejoin="miter" stroke="rgb(26.666667%, 26.666667%, 26.666667%)" stroke-opacity="1" stroke-miterlimit="10" d="M 533.726562 523.675781 L 579.632812 580 "/>
<path fill="none" stroke-width="4" stroke-linecap="butt" stroke-linejoin="miter" stroke="rgb(26.666667%, 26.666667%, 26.666667%)" stroke-opacity="1" stroke-miterlimit="10" d="M 128.332031 407.121094 L 103.847656 333.183594 "/>
<path fill="none" stroke-width="1" stroke-linecap="butt" stroke-linejoin="miter" stroke="rgb(26.666667%, 26.666667%, 26.666667%)" stroke-opacity="1" stroke-miterlimit="10" d="M 27.800781 365.90625 L 103.847656 333.183594 "/>
<path fill="none" stroke-width="8" stroke-linecap="butt" stroke-linejoin="miter" stroke="rgb(26.666667%, 26.666667%, 26.666667%)" stroke-opacity="1" stroke-miterlimit="10" d="M 20 324.683594 L 103.847656 333.183594 "/>
<path fill="none" stroke-width="3" stroke-linecap="butt" stroke-linejoin="miter" stroke="rgb(26.666667%, 26.666667%, 26.666667%)" stroke-opacity="1" stroke-miterlimit="10" d="M 205.085938 355.84375 L 197.074219 292.335938 "/>
<path fill="none" stroke-width="4" stroke-linecap="butt" stroke-linejoin="miter" stroke="rgb(26.666667%, 26.666667%, 26.666667%)" stroke-opacity="1" stroke-miterlimit="10" d="M 56.253906 260.882812 L 103.847656 333.183594 "/>
<path fill="none" stroke-width="1" stroke-linecap="butt" stroke-linejoin="miter" stroke="rgb(26.666667%, 26.666667%, 26.666667%)" stroke-opacity="1" stroke-miterlimit="10" d="M 147.582031 258.820312 L 197.074219 292.335938 "/>
<path fill="none" stroke-width="5" stroke-linecap="butt" stroke-linejoin="miter" stroke="rgb(26.666667%, 26.666667%, 26.666667%)" stroke-opacity="1" stroke-miterlimit="10" d="M 150.050781 212.4375 L 197.074219 292.335938 "/>
<path fill="none" stroke-width="4" stroke-linecap="butt" stroke-linejoin="miter" stroke="rgb(26.666667%, 26.666667%, 26.666667%)" stroke-opacity="1" stroke-miterlimit="10" d="M 26.785156 284.785156 L 103.847656 333.183594 "/>
<path fill="none" stroke-width="4" stroke-linecap="butt" stroke-linejoin="miter" stroke="rgb(26.666667%, 26.666667%, 26.666667%)" stroke-opacity="1" stroke-miterlimit="10" d="M 580 87.605469 L 517.425781 133.054688 "/>
<path fill="none" stroke-width="1" stroke-linecap="butt" stroke-linejoin="miter" stroke="rgb(26.666667%, 26.666667%, 26.666667%)" stroke-opacity="1" stroke-miterlimit="10" d="M 517.425781 133.054688 L 449.300781 178.945312 "/>
<path fill="none" stroke-width="1" stroke-linecap="butt" stroke-linejoin="miter" stroke="rgb(26.666667%, 26.666667%, 26.666667%)" stroke-opacity="1" stroke-miterlimit="10" d="M 55.058594 398.707031 L 103.847656 333.183594 "/>
<path fill="none" stroke-width="4" stroke-linecap="butt" stroke-linejoin="miter" stroke="rgb(26.666667%, 26.666667%, 26.666667%)" stroke-opacity="1" stroke-miterlimit="10" d="M 373.664062 227.746094 L 449.300781 178.945312 "/>
<path fill="none" stroke-width="6" stroke-linecap="butt" stroke-linejoin="miter" stroke="rgb(26.666667%, 26.666667%, 26.666667%)" stroke-opacity="1" stroke-miterlimit="10" d="M 91.722656 420.882812 L 103.847656 333.183594 "/>
<path fill="none" stroke-width="1" stroke-linecap="butt" stroke-linejoin="miter" stroke="rgb(26.666667%, 26.666667%, 26.666667%)" stroke-opacity="1" stroke-miterlimit="10" d="M 192.613281 226.375 L 197.074219 292.335938 "/>
<path fill="none" stroke-width="2" stroke-linecap="butt" stroke-linejoin="miter" stroke="rgb(26.666667%, 26.666667%, 26.666667%)" stroke-opacity="1" stroke-miterlimit="10" d="M 197.074219 292.335938 L 103.847656 333.183594 "/>
<path fill-rule="nonzero" fill="rgb(100%, 0%, 0%)" fill-opacity="1" stroke-width="1" stroke-linecap="butt" stroke-linejoin="miter" stroke="rgb(0%, 0%, 0%)" stroke-opacity="1" stroke-miterlimit="10" d="M 369.355469 346.222656 C 369.355469 351.746094 364.878906 356.222656 359.355469 356.222656 C 353.832031 356.222656 349.355469 351.746094 349.355469 346.222656 C 349.355469 340.699219 353.832031 336.222656 359.355469 336.222656 C 364.878906 336.222656 369.355469 340.699219 369.355469 346.222656 "/>
<path fill-rule="nonzero" fill="rgb(100%, 0%, 0%)" fill-opacity="1" stroke-width="1" stroke-linecap="butt" stroke-linejoin="miter" stroke="rgb(0%, 0%, 0%)" stroke-opacity="1" stroke-miterlimit="10" d="M 277.554688 93.496094 C 277.554688 99.019531 273.078125 103.496094 267.554688 103.496094 C 262.03125 103.496094 257.554688 99.019531 257.554688 93.496094 C 257.554688 87.972656 262.03125 83.496094 267.554688 83.496094 C 273.078125 83.496094 277.554688 87.972656 277.554688 93.496094 "/>
<path fill-rule="nonzero" fill="rgb(100%, 0%, 0%)" fill-opacity="1" stroke-width="1" stroke-linecap="butt" stroke-linejoin="miter" stroke="rgb(0%, 0%, 0%)" stroke-opacity="1" stroke-miterlimit="10" d="M 304.855469 276.953125 C 304.855469 282.476562 300.378906 286.953125 294.855469 286.953125 C 289.335938 286.953125 284.855469 282.476562 284.855469 276.953125 C 284.855469 271.433594 289.335938 266.953125 294.855469 266.953125 C 300.378906 266.953125 304.855469 271.433594 304.855469 276.953125 "/>
<path fill-rule="nonzero" fill="rgb(100%, 0%, 0%)" fill-opacity="1" stroke-width="1" stroke-linecap="butt" stroke-linejoin="miter" stroke="rgb(0%, 0%, 0%)" stroke-opacity="1" stroke-miterlimit="10" d="M 301.101562 178.703125 C 301.101562 184.222656 296.625 188.703125 291.101562 188.703125 C 285.578125 188.703125 281.101562 184.222656 281.101562 178.703125 C 281.101562 173.179688 285.578125 168.703125 291.101562 168.703125 C 296.625 168.703125 301.101562 173.179688 301.101562 178.703125 "/>
<path fill-rule="nonzero" fill="rgb(100%, 0%, 0%)" fill-opacity="1" stroke-width="1" stroke-linecap="butt" stroke-linejoin="miter" stroke="rgb(0%, 0%, 0%)" stroke-opacity="1" stroke-miterlimit="10" d="M 497.160156 465.808594 C 497.160156 471.332031 492.683594 475.808594 487.160156 475.808594 C 481.636719 475.808594 477.160156 471.332031 477.160156 465.808594 C 477.160156 460.285156 481.636719 455.808594 487.160156 455.808594 C 492.683594 455.808594 497.160156 460.285156 497.160156 465.808594 "/>
<path fill-rule="nonzero" fill="rgb(100%, 0%, 0%)" fill-opacity="1" stroke-width="1" stroke-linecap="butt" stroke-linejoin="miter" stroke="rgb(0%, 0%, 0%)" stroke-opacity="1" stroke-miterlimit="10" d="M 451.777344 342.558594 C 451.777344 348.082031 447.300781 352.558594 441.777344 352.558594 C 436.253906 352.558594 431.777344 348.082031 431.777344 342.558594 C 431.777344 337.035156 436.253906 332.558594 441.777344 332.558594 C 447.300781 332.558594 451.777344 337.035156 451.777344 342.558594 "/>
<path fill-rule="nonzero" fill="rgb(100%, 0%, 0%)" fill-opacity="1" stroke-width="1" stroke-linecap="butt" stroke-linejoin="miter" stroke="rgb(0%, 0%, 0%)" stroke-opacity="1" stroke-miterlimit="10" d="M 543.726562 523.675781 C 543.726562 529.199219 539.25 533.675781 533.726562 533.675781 C 528.203125 533.675781 523.726562 529.199219 523.726562 523.675781 C 523.726562 518.152344 528.203125 513.675781 533.726562 513.675781 C 539.25 513.675781 543.726562 518.152344 543.726562 523.675781 "/>
<path fill-rule="nonzero" fill="rgb(100%, 0%, 0%)" fill-opacity="1" stroke-width="1" stroke-linecap="butt" stroke-linejoin="miter" stroke="rgb(0%, 0%, 0%)" stroke-opacity="1" stroke-miterlimit="10" d="M 438.433594 307.46875 C 438.433594 312.992188 433.957031 317.46875 428.433594 317.46875 C 422.910156 317.46875 418.433594 312.992188 418.433594 307.46875 C 418.433594 301.945312 422.910156 297.46875 428.433594 297.46875 C 433.957031 297.46875 438.433594 301.945312 438.433594 307.46875 "/>
<path fill-rule="nonzero" fill="rgb(100%, 0%, 0%)" fill-opacity="1" stroke-width="1" stroke-linecap="butt" stroke-linejoin="miter" stroke="rgb(0%, 0%, 0%)" stroke-opacity="1" stroke-miterlimit="10" d="M 138.332031 407.121094 C 138.332031 412.644531 133.855469 417.121094 128.332031 417.121094 C 122.808594 417.121094 118.332031 412.644531 118.332031 407.121094 C 118.332031 401.597656 122.808594 397.121094 128.332031 397.121094 C 133.855469 397.121094 138.332031 401.597656 138.332031 407.121094 "/>
<path fill-rule="nonzero" fill="rgb(100%, 0%, 0%)" fill-opacity="1" stroke-width="1" stroke-linecap="butt" stroke-linejoin="miter" stroke="rgb(0%, 0%, 0%)" stroke-opacity="1" stroke-miterlimit="10" d="M 37.800781 365.90625 C 37.800781 371.429688 33.324219 375.90625 27.800781 375.90625 C 22.277344 375.90625 17.800781 371.429688 17.800781 365.90625 C 17.800781 360.382812 22.277344 355.90625 27.800781 355.90625 C 33.324219 355.90625 37.800781 360.382812 37.800781 365.90625 "/>
<path fill-rule="nonzero" fill="rgb(100%, 0%, 0%)" fill-opacity="1" stroke-width="1" stroke-linecap="butt" stroke-linejoin="miter" stroke="rgb(0%, 0%, 0%)" stroke-opacity="1" stroke-miterlimit="10" d="M 444.957031 405.75 C 444.957031 411.273438 440.480469 415.75 434.957031 415.75 C 429.4375 415.75 424.957031 411.273438 424.957031 405.75 C 424.957031 400.226562 429.4375 395.75 434.957031 395.75 C 440.480469 395.75 444.957031 400.226562 444.957031 405.75 "/>
<path fill-rule="nonzero" fill="rgb(100%, 0%, 0%)" fill-opacity="1" stroke-width="1" stroke-linecap="butt" stroke-linejoin="miter" stroke="rgb(0%, 0%, 0%)" stroke-opacity="1" stroke-miterlimit="10" d="M 352.554688 433.0625 C 352.554688 438.585938 348.078125 443.0625 342.554688 443.0625 C 337.03125 443.0625 332.554688 438.585938 332.554688 433.0625 C 332.554688 427.539062 337.03125 423.0625 342.554688 423.0625 C 348.078125 423.0625 352.554688 427.539062 352.554688 433.0625 "/>
<path fill-rule="nonzero" fill="rgb(100%, 0%, 0%)" fill-opacity="1" stroke-width="1" stroke-linecap="butt" stroke-linejoin="miter" stroke="rgb(0%, 0%, 0%)" stroke-opacity="1" stroke-miterlimit="10" d="M 324.109375 403.621094 C 324.109375 409.144531 319.632812 413.621094 314.109375 413.621094 C 308.589844 413.621094 304.109375 409.144531 304.109375 403.621094 C 304.109375 398.097656 308.589844 393.621094 314.109375 393.621094 C 319.632812 393.621094 324.109375 398.097656 324.109375 403.621094 "/>
<path fill-rule="nonzero" fill="rgb(100%, 0%, 0%)" fill-opacity="1" stroke-width="1" stroke-linecap="butt" stroke-linejoin="miter" stroke="rgb(0%, 0%, 0%)" stroke-opacity="1" stroke-miterlimit="10" d="M 356.816406 124.804688 C 356.816406 130.324219 352.339844 134.804688 346.816406 134.804688 C 341.292969 134.804688 336.816406 130.324219 336.816406 124.804688 C 336.816406 119.28125 341.292969 114.804688 346.816406 114.804688 C 352.339844 114.804688 356.816406 119.28125 356.816406 124.804688 "/>
<path fill-rule="nonzero" fill="rgb(100%, 0%, 0%)" fill-opacity="1" stroke-width="1" stroke-linecap="butt" stroke-linejoin="miter" stroke="rgb(0%, 0%, 0%)" stroke-opacity="1" stroke-miterlimit="10" d="M 30 324.683594 C 30 330.203125 25.523438 334.683594 20 334.683594 C 14.476562 334.683594 10 330.203125 10 324.683594 C 10 319.160156 14.476562 314.683594 20 314.683594 C 25.523438 314.683594 30 319.160156 30 324.683594 "/>
<path fill-rule="nonzero" fill="rgb(100%, 0%, 0%)" fill-opacity="1" stroke-width="1" stroke-linecap="butt" stroke-linejoin="miter" stroke="rgb(0%, 0%, 0%)" stroke-opacity="1" stroke-miterlimit="10" d="M 215.085938 355.84375 C 215.085938 361.367188 210.609375 365.84375 205.085938 365.84375 C 199.5625 365.84375 195.085938 361.367188 195.085938 355.84375 C 195.085938 350.320312 199.5625 345.84375 205.085938 345.84375 C 210.609375 345.84375 215.085938 350.320312 215.085938 355.84375 "/>
<path fill-rule="nonzero" fill="rgb(100%, 0%, 0%)" fill-opacity="1" stroke-width="1" stroke-linecap="butt" stroke-linejoin="miter" stroke="rgb(0%, 0%, 0%)" stroke-opacity="1" stroke-miterlimit="10" d="M 589.632812 580 C 589.632812 585.523438 585.15625 590 579.632812 590 C 574.109375 590 569.632812 585.523438 569.632812 580 C 569.632812 574.476562 574.109375 570 579.632812 570 C 585.15625 570 589.632812 574.476562 589.632812 580 "/>
<path fill-rule="nonzero" fill="rgb(100%, 0%, 0%)" fill-opacity="1" stroke-width="1" stroke-linecap="butt" stroke-linejoin="miter" stroke="rgb(0%, 0%, 0%)" stroke-opacity="1" stroke-miterlimit="10" d="M 392.125 403.949219 C 392.125 409.46875 387.648438 413.949219 382.125 413.949219 C 376.601562 413.949219 372.125 409.46875 372.125 403.949219 C 372.125 398.425781 376.601562 393.949219 382.125 393.949219 C 387.648438 393.949219 392.125 398.425781 392.125 403.949219 "/>
<path fill-rule="nonzero" fill="rgb(100%, 0%, 0%)" fill-opacity="1" stroke-width="1" stroke-linecap="butt" stroke-linejoin="miter" stroke="rgb(0%, 0%, 0%)" stroke-opacity="1" stroke-miterlimit="10" d="M 66.253906 260.882812 C 66.253906 266.40625 61.777344 270.882812 56.253906 270.882812 C 50.730469 270.882812 46.253906 266.40625 46.253906 260.882812 C 46.253906 255.359375 50.730469 250.882812 56.253906 250.882812 C 61.777344 250.882812 66.253906 255.359375 66.253906 260.882812 "/>
<path fill-rule="nonzero" fill="rgb(100%, 0%, 0%)" fill-opacity="1" stroke-width="1" stroke-linecap="butt" stroke-linejoin="miter" stroke="rgb(0%, 0%, 0%)" stroke-opacity="1" stroke-miterlimit="10" d="M 225.984375 30.617188 C 225.984375 36.140625 221.507812 40.617188 215.984375 40.617188 C 210.460938 40.617188 205.984375 36.140625 205.984375 30.617188 C 205.984375 25.09375 210.460938 20.617188 215.984375 20.617188 C 221.507812 20.617188 225.984375 25.09375 225.984375 30.617188 "/>
<path fill-rule="nonzero" fill="rgb(100%, 0%, 0%)" fill-opacity="1" stroke-width="1" stroke-linecap="butt" stroke-linejoin="miter" stroke="rgb(0%, 0%, 0%)" stroke-opacity="1" stroke-miterlimit="10" d="M 157.582031 258.820312 C 157.582031 264.339844 153.105469 268.820312 147.582031 268.820312 C 142.058594 268.820312 137.582031 264.339844 137.582031 258.820312 C 137.582031 253.296875 142.058594 248.820312 147.582031 248.820312 C 153.105469 248.820312 157.582031 253.296875 157.582031 258.820312 "/>
<path fill-rule="nonzero" fill="rgb(100%, 0%, 0%)" fill-opacity="1" stroke-width="1" stroke-linecap="butt" stroke-linejoin="miter" stroke="rgb(0%, 0%, 0%)" stroke-opacity="1" stroke-miterlimit="10" d="M 314.597656 20 C 314.597656 25.523438 310.121094 30 304.597656 30 C 299.074219 30 294.597656 25.523438 294.597656 20 C 294.597656 14.476562 299.074219 10 304.597656 10 C 310.121094 10 314.597656 14.476562 314.597656 20 "/>
<path fill-rule="nonzero" fill="rgb(100%, 0%, 0%)" fill-opacity="1" stroke-width="1" stroke-linecap="butt" stroke-linejoin="miter" stroke="rgb(0%, 0%, 0%)" stroke-opacity="1" stroke-miterlimit="10" d="M 160.050781 212.4375 C 160.050781 217.960938 155.574219 222.4375 150.050781 222.4375 C 144.527344 222.4375 140.050781 217.960938 140.050781 212.4375 C 140.050781 206.914062 144.527344 202.4375 150.050781 202.4375 C 155.574219 202.4375 160.050781 206.914062 160.050781 212.4375 "/>
<path fill-rule="nonzero" fill="rgb(100%, 0%, 0%)" fill-opacity="1" stroke-width="1" stroke-linecap="butt" stroke-linejoin="miter" stroke="rgb(0%, 0%, 0%)" stroke-opacity="1" stroke-miterlimit="10" d="M 36.785156 284.785156 C 36.785156 290.308594 32.308594 294.785156 26.785156 294.785156 C 21.261719 294.785156 16.785156 290.308594 16.785156 284.785156 C 16.785156 279.261719 21.261719 274.785156 26.785156 274.785156 C 32.308594 274.785156 36.785156 279.261719 36.785156 284.785156 "/>
<path fill-rule="nonzero" fill="rgb(100%, 0%, 0%)" fill-opacity="1" stroke-width="1" stroke-linecap="butt" stroke-linejoin="miter" stroke="rgb(0%, 0%, 0%)" stroke-opacity="1" stroke-miterlimit="10" d="M 590 87.605469 C 590 93.125 585.523438 97.605469 580 97.605469 C 574.476562 97.605469 570 93.125 570 87.605469 C 570 82.082031 574.476562 77.605469 580 77.605469 C 585.523438 77.605469 590 82.082031 590 87.605469 "/>
<path fill-rule="nonzero" fill="rgb(100%, 0%, 0%)" fill-opacity="1" stroke-width="1" stroke-linecap="butt" stroke-linejoin="miter" stroke="rgb(0%, 0%, 0%)" stroke-opacity="1" stroke-miterlimit="10" d="M 527.425781 133.054688 C 527.425781 138.574219 522.949219 143.054688 517.425781 143.054688 C 511.902344 143.054688 507.425781 138.574219 507.425781 133.054688 C 507.425781 127.53125 511.902344 123.054688 517.425781 123.054688 C 522.949219 123.054688 527.425781 127.53125 527.425781 133.054688 "/>
<path fill-rule="nonzero" fill="rgb(100%, 0%, 0%)" fill-opacity="1" stroke-width="1" stroke-linecap="butt" stroke-linejoin="miter" stroke="rgb(0%, 0%, 0%)" stroke-opacity="1" stroke-miterlimit="10" d="M 65.058594 398.707031 C 65.058594 404.230469 60.582031 408.707031 55.058594 408.707031 C 49.535156 408.707031 45.058594 404.230469 45.058594 398.707031 C 45.058594 393.183594 49.535156 388.707031 55.058594 388.707031 C 60.582031 388.707031 65.058594 393.183594 65.058594 398.707031 "/>
<path fill-rule="nonzero" fill="rgb(100%, 0%, 0%)" fill-opacity="1" stroke-width="1" stroke-linecap="butt" stroke-linejoin="miter" stroke="rgb(0%, 0%, 0%)" stroke-opacity="1" stroke-miterlimit="10" d="M 323.746094 237.007812 C 323.746094 242.53125 319.265625 247.007812 313.746094 247.007812 C 308.222656 247.007812 303.746094 242.53125 303.746094 237.007812 C 303.746094 231.484375 308.222656 227.007812 313.746094 227.007812 C 319.265625 227.007812 323.746094 231.484375 323.746094 237.007812 "/>
<path fill-rule="nonzero" fill="rgb(100%, 0%, 0%)" fill-opacity="1" stroke-width="1" stroke-linecap="butt" stroke-linejoin="miter" stroke="rgb(0%, 0%, 0%)" stroke-opacity="1" stroke-miterlimit="10" d="M 383.664062 227.746094 C 383.664062 233.269531 379.1875 237.746094 373.664062 237.746094 C 368.144531 237.746094 363.664062 233.269531 363.664062 227.746094 C 363.664062 222.222656 368.144531 217.746094 373.664062 217.746094 C 379.1875 217.746094 383.664062 222.222656 383.664062 227.746094 "/>
<path fill-rule="nonzero" fill="rgb(100%, 0%, 0%)" fill-opacity="1" stroke-width="1" stroke-linecap="butt" stroke-linejoin="miter" stroke="rgb(0%, 0%, 0%)" stroke-opacity="1" stroke-miterlimit="10" d="M 101.722656 420.882812 C 101.722656 426.402344 97.246094 430.882812 91.722656 430.882812 C 86.199219 430.882812 81.722656 426.402344 81.722656 420.882812 C 81.722656 415.359375 86.199219 410.882812 91.722656 410.882812 C 97.246094 410.882812 101.722656 415.359375 101.722656 420.882812 "/>
<path fill-rule="nonzero" fill="rgb(100%, 0%, 0%)" fill-opacity="1" stroke-width="1" stroke-linecap="butt" stroke-linejoin="miter" stroke="rgb(0%, 0%, 0%)" stroke-opacity="1" stroke-miterlimit="10" d="M 202.613281 226.375 C 202.613281 231.898438 198.136719 236.375 192.613281 236.375 C 187.089844 236.375 182.613281 231.898438 182.613281 226.375 C 182.613281 220.851562 187.089844 216.375 192.613281 216.375 C 198.136719 216.375 202.613281 220.851562 202.613281 226.375 "/>
<path fill-rule="nonzero" fill="rgb(100%, 0%, 0%)" fill-opacity="1" stroke-width="1" stroke-linecap="butt" stroke-linejoin="miter" stroke="rgb(0%, 0%, 0%)" stroke-opacity="1" stroke-miterlimit="10" d="M 459.300781 178.945312 C 459.300781 184.46875 454.824219 188.945312 449.300781 188.945312 C 443.78125 188.945312 439.300781 184.46875 439.300781 178.945312 C 439.300781 173.421875 443.78125 168.945312 449.300781 168.945312 C 454.824219 168.945312 459.300781 173.421875 459.300781 178.945312 "/>
<path fill-rule="nonzero" fill="rgb(100%, 0%, 0%)" fill-opacity="1" stroke-width="1" stroke-linecap="butt" stroke-linejoin="miter" stroke="rgb(0%, 0%, 0%)" stroke-opacity="1" stroke-miterlimit="10" d="M 207.074219 292.335938 C 207.074219 297.859375 202.597656 302.335938 197.074219 302.335938 C 191.550781 302.335938 187.074219 297.859375 187.074219 292.335938 C 187.074219 286.8125 191.550781 282.335938 197.074219 282.335938 C 202.597656 282.335938 207.074219 286.8125 207.074219 292.335938 "/>
<path fill-rule="nonzero" fill="rgb(100%, 0%, 0%)" fill-opacity="1" stroke-width="1" stroke-linecap="butt" stroke-linejoin="miter" stroke="rgb(0%, 0%, 0%)" stroke-opacity="1" stroke-miterlimit="10" d="M 113.847656 333.183594 C 113.847656 338.707031 109.371094 343.183594 103.847656 343.183594 C 98.324219 343.183594 93.847656 338.707031 93.847656 333.183594 C 93.847656 327.664062 98.324219 323.183594 103.847656 323.183594 C 109.371094 323.183594 113.847656 327.664062 113.847656 333.183594 "/>
</svg>