<?xml version="1.0" encoding="UTF-8"?>
<svg xmlns="http://www.w3.org/2000/svg" xmlns:xlink="http://www.w3.org/1999/xlink" width="600" height="600" viewBox="0 0 600 600">
<rect x="-60" y="-60" width="720" height="720" fill="rgb(100%, 100%, 100%)" fill-opacity="1"/>
<path fill="none" stroke-width="1" stroke-linecap="butt" stroke-linejoin="miter" stroke="rgb(26.666667%, 26.666667%, 26.666667%)" stroke-opacity="1" stroke-miterlimit="10" d="M 277.695312 463.6875 L 240.234375 525.523438 "/>
<path fill="none" stroke-width="7" stroke-linecap="butt" stroke-linejoin="miter" stroke="rgb(26.666667%, 26.666667%, 26.666667%)" stroke-opacity="1" stroke-miterlimit="10" d="M 277.695312 463.6875 L 330.066406 435.078125 "/>
<path fill="none" stroke-width="3" stroke-linecap="butt" stroke-linejoin="miter" stroke="rgb(26.666667%, 26.666667%, 26.666667%)" stroke-opacity="1" stroke-miterlimit="10" d="M 277.695312 463.6875 L 375.332031 472.894531 "/>
<path fill="none" stroke-width="3" stroke-linecap="butt" stroke-linejoin="miter" stroke="rgb(26.666667%, 26.666667%, 26.666667%)" stroke-opacity="1" stroke-miterlimit="10" d="M 277.695312 463.6875 L 308.378906 503.101562 "/>
<path fill="none" stroke-width="3" stroke-linecap="butt" stroke-linejoin="miter" stroke="rgb(26.666667%, 26.666667%, 26.666667%)" stroke-opacity="1" stroke-miterlimit="10" d="M 277.695312 463.6875 L 215.015625 415.15625 "/>
<path fill="none" stroke-width="8" stroke-linecap="butt" stroke-linejoin="miter" stroke="rgb(26.666667%, 26.666667%, 26.666667%)" stroke-opacity="1" stroke-miterlimit="10" d="M 277.695312 463.6875 L 219.402344 485.597656 "/>
<path fill="none" stroke-width="2" stroke-linecap="butt" stroke-linejoin="miter" stroke="rgb(26.666667%, 26.666667%, 26.666667%)" stroke-opacity="1" stroke-miterlimit="10" d="M 130.960938 439.09375 L 215.015625 415.15625 "/>
<path fill="none" stroke-width="7" stroke-linecap="butt" stroke-linejoin="miter" stroke="rgb(26.666667%, 26.666667%, 26.666667%)" stroke-opacity="1" stroke-miterlimit="10" d="M 130.960938 439.09375 L 56.394531 469.058594 "/>
<path fill="none" stroke-width="3" stroke-linecap="butt" stroke-linejoin="miter" stroke="rgb(26.666667%, 26.666667%, 26.666667%)" stroke-opacity="1" stroke-miterlimit="10" d="M 212.738281 354.441406 L 181.152344 298.429688 "/>
<path fill="none" stroke-width="5" stroke-linecap="butt" stroke-linejoin="miter" stroke="rgb(26.666667%, 26.666667%, 26.666667%)" stroke-opacity="1" stroke-miterlimit="10" d="M 212.738281 354.441406 L 293.414062 337.300781 "/>
<path fill="none" stroke-width="4" stroke-linecap="butt" stroke-linejoin="miter" stroke="rgb(26.666667%, 26.666667%, 26.666667%)" stroke-opacity="1" stroke-miterlimit="10" d="M 212.738281 354.441406 L 215.015625 415.15625 "/>
<path fill="none" stroke-width="1" stroke-linecap="butt" stroke-linejoin="miter" stroke="rgb(26.666667%, 26.666667%, 26.666667%)" stroke-opacity="1" stroke-miterlimit="10" d="M 240.234375 525.523438 L 175.113281 563.148438 "/>
<path fill="none" stroke-width="3" stroke-linecap="butt" stroke-linejoin="miter" stroke="rgb(26.666667%, 26.666667%, 26.666667%)" stroke-opacity="1" stroke-miterlimit="10" d="M 240.234375 525.523438 L 255.988281 580 "/>
<path fill="none" stroke-width="6" stroke-linecap="butt" stroke-linejoin="miter" stroke="rgb(26.666667%, 26.666667%, 26.666667%)" stroke-opacity="1" stroke-miterlimit="10" d="M 439.800781 509.628906 L 510.621094 532.574219 "/>
<path fill="none" stroke-width="5" stroke-linecap="butt" stroke-linejoin="miter" stroke="rgb(26.666667%, 26.666667%, 26.666667%)" stroke-opacity="1" stroke-miterlimit="10" d="M 439.800781 509.628906 L 375.332031 472.894531 "/>
<path fill="none" stroke-width="5" stroke-linecap="butt" stroke-linejoin="miter" stroke="rgb(26.666667%, 26.666667%, 26.666667%)" stroke-opacity="1" stroke-miterlimit="10" d="M 446.78125 443.101562 L 375.332031 472.894531 "/>
<path fill="none" stroke-width="7" stroke-linecap="butt" stroke-linejoin="miter" stroke="rgb(26.666667%, 26.666667%, 26.666667%)" stroke-opacity="1" stroke-miterlimit="10" d="M 510.621094 532.574219 L 580 552.71875 "/>
<path fill="none" stroke-width="8" stroke-linecap="butt" stroke-linejoin="miter" stroke="rgb(26.666667%, 26.666667%, 26.666667%)" stroke-opacity="1" stroke-miterlimit="10" d="M 84.785156 289.71875 L 115.351562 251.695312 "/>
<path fill="none" stroke-width="1" stroke-linecap="butt" stroke-linejoin="miter" stroke="rgb(26.666667%, 26.666667%, 26.666667%)" stroke-opacity="1" stroke-miterlimit="10" d="M 38.800781 284.703125 L 115.351562 251.695312 "/>
<path fill="none" stroke-width="2" stroke-linecap="butt" stroke-linejoin="miter" stroke="rgb(26.666667%, 26.666667%, 26.666667%)" stroke-opacity="1" stroke-miterlimit="10" d="M 142.609375 187.757812 L 147.269531 128.316406 "/>
<path fill="none" stroke-width="1" stroke-linecap="butt" stroke-linejoin="miter" stroke="rgb(26.666667%, 26.666667%, 26.666667%)" stroke-opacity="1" stroke-miterlimit="10" d="M 142.609375 187.757812 L 115.351562 251.695312 "/>
<path fill="none" stroke-width="1" stroke-linecap="butt" stroke-linejoin="miter" stroke="rgb(26.666667%, 26.666667%, 26.666667%)" stroke-opacity="1" stroke-miterlimit="10" d="M 56.933594 113.472656 L 147.269531 128.316406 "/>
<path fill="none" stroke-width="1" stroke-linecap="butt" stroke-linejoin="miter" stroke="rgb(26.666667%, 26.666667%, 26.666667%)" stroke-opacity="1" stroke-miterlimit="10" d="M 20 258.035156 L 115.351562 251.695312 "/>
<path fill="none" stroke-width="5" stroke-linecap="butt" stroke-linejoin="miter" stroke="rgb(26.666667%, 26.666667%, 26.666667%)" stroke-opacity="1" stroke-miterlimit="10" d="M 34.054688 229.800781 L 115.351562 251.695312 "/>
<path fill="none" stroke-width="2" stroke-linecap="butt" stroke-linejoin="miter" stroke="rgb(26.666667%, 26.666667%, 26.666667%)" stroke-opacity="1" stroke-miterlimit="10" d="M 80.667969 217.476562 L 115.351562 251.695312 "/>
<path fill="none" stroke-width="1" stroke-linecap="butt" stroke-linejoin="miter" stroke="rgb(26.666667%, 26.666667%, 26.666667%)" stroke-opacity="1" stroke-miterlimit="10" d="M 91.945312 89.703125 L 147.269531 128.316406 "/>
<path fill="none" stroke-width="1" stroke-linecap="butt" stroke-linejoin="miter" stroke="rgb(26.666667%, 26.666667%, 26.666667%)" stroke-opacity="1" stroke-miterlimit="10" d="M 260.257812 274.128906 L 181.152344 298.429688 "/>
<path fill="none" stroke-width="1" stroke-linecap="butt" stroke-linejoin="miter" stroke="rgb(26.666667%, 26.666667%, 26.666667%)" stroke-opacity="1" stroke-miterlimit="10" d="M 144.832031 20 L 158.808594 74.117188 "/>
<path fill="none" stroke-width="2" stroke-linecap="butt" stroke-linejoin="miter" stroke="rgb(26.666667%, 26.666667%, 26.666667%)" stroke-opacity="1" stroke-miterlimit="10" d="M 295.71875 69.820312 L 232.195312 106.386719 "/>
<path fill="none" stroke-width="1" stroke-linecap="butt" stroke-linejoin="miter" stroke="rgb(26.666667%, 26.666667%, 26.666667%)" stroke-opacity="1" stroke-miterlimit="10" d="M 181.152344 298.429688 L 115.351562 251.695312 "/>
<path fill="none" stroke-width="1" stroke-linecap="butt" stroke-linejoin="miter" stroke="rgb(26.666667%, 26.666667%, 26.666667%)" stroke-opacity="1" stroke-miterlimit="10" d="M 232.195312 106.386719 L 147.269531 128.316406 "/>
<path fill="none" stroke-width="6" stroke-linecap="butt" stroke-linejoin="miter" stroke="rgb(26.666667%, 26.666667%, 26.666667%)" stroke-opacity="1" stroke-miterlimit="10" d="M 181.050781 233.472656 L 115.351562 251.695312 "/>
<path fill="none" stroke-width="3" stroke-linecap="butt" stroke-linejoin="miter" stroke="rgb(26.666667%, 26.666667%, 26.666667%)" stroke-opacity="1" stroke-miterlimit="10" d="M 158.808594 74.117188 L 147.269531 128.316406 "/>
<path fill-rule="nonzero" fill="rgb(100%, 0%, 0%)" fill-opacity="1" stroke-width="1" stroke-linecap="butt" stroke-linejoin="miter" stroke="rgb(0%, 0%, 0%)" stroke-opacity="1" stroke-miterlimit="10" d="M 287.695312 463.6875 C 287.695312 469.207031 283.21875 473.6875 277.695312 473.6875 C 272.171875 473.6875 267.695312 469.207031 267.695312 463.6875 C 267.695312 458.164062 272.171875 453.6875 277.695312 453.6875 C 283.21875 453.6875 287.695312 458.164062 287.695312 463.6875 "/>
<path fill-rule="nonzero" fill="rgb(100%, 0%, 0%)" fill-opacity="1" stroke-width="1" stroke-linecap="butt" stroke-linejoin="miter" stroke="rgb(0%, 0%, 0%)" stroke-opacity="1" stroke-miterlimit="10" d="M 140.960938 439.09375 C 140.960938 444.617188 136.484375 449.09375 130.960938 449.09375 C 125.4375 449.09375 120.960938 444.617188 120.960938 439.09375 C 120.960938 433.570312 125.4375 429.09375 130.960938 429.09375 C 136.484375 429.09375 140.960938 433.570312 140.960938 439.09375 "/>
<path fill-rule="nonzero" fill="rgb(100%, 0%, 0%)" fill-opacity="1" stroke-width="1" stroke-linecap="butt" stroke-linejoin="miter" stroke="rgb(0%, 0%, 0%)" stroke-opacity="1" stroke-miterlimit="10" d="M 222.738281 354.441406 C 222.738281 359.964844 218.261719 364.441406 212.738281 364.441406 C 207.214844 364.441406 202.738281 359.964844 202.738281 354.441406 C 202.738281 348.917969 207.214844 344.441406 212.738281 344.441406 C 218.261719 344.441406 222.738281 348.917969 222.738281 354.441406 "/>
<path fill-rule="nonzero" fill="rgb(100%, 0%, 0%)" fill-opacity="1" stroke-width="1" stroke-linecap="butt" stroke-linejoin="miter" stroke="rgb(0%, 0%, 0%)" stroke-opacity="1" stroke-miterlimit="10" d="M 250.234375 525.523438 C 250.234375 531.046875 245.757812 535.523438 240.234375 535.523438 C 234.710938 535.523438 230.234375 531.046875 230.234375 525.523438 C 230.234375 520 234.710938 515.523438 240.234375 515.523438 C 245.757812 515.523438 250.234375 520 250.234375 525.523438 "/>
<path fill-rule="nonzero" fill="rgb(100%, 0%, 0%)" fill-opacity="1" stroke-width="1" stroke-linecap="butt" stroke-linejoin="miter" stroke="rgb(0%, 0%, 0%)" stroke-opacity="1" stroke-miterlimit="10" d="M 449.800781 509.628906 C 449.800781 515.152344 445.324219 519.628906 439.800781 519.628906 C 434.277344 519.628906 429.800781 515.152344 429.800781 509.628906 C 429.800781 504.105469 434.277344 499.628906 439.800781 499.628906 C 445.324219 499.628906 449.800781 504.105469 449.800781 509.628906 "/>
<path fill-rule="nonzero" fill="rgb(100%, 0%, 0%)" fill-opacity="1" stroke-width="1" stroke-linecap="butt" stroke-linejoin="miter" stroke="rgb(0%, 0%, 0%)" stroke-opacity="1" stroke-miterlimit="10" d="M 456.78125 443.101562 C 456.78125 448.625 452.304688 453.101562 446.78125 453.101562 C 441.257812 453.101562 436.78125 448.625 436.78125 443.101562 C 436.78125 437.578125 441.257812 433.101562 446.78125 433.101562 C 452.304688 433.101562 456.78125 437.578125 456.78125 443.101562 "/>
<path fill-rule="nonzero" fill="rgb(100%, 0%, 0%)" fill-opacity="1" stroke-width="1" stroke-linecap="butt" stroke-linejoin="miter" stroke="rgb(0%, 0%, 0%)" stroke-opacity="1" stroke-miterlimit="10" d="M 520.621094 532.574219 C 520.621094 538.097656 516.144531 542.574219 510.621094 542.574219 C 505.097656 542.574219 500.621094 538.097656 500.621094 532.574219 C 500.621094 527.050781 505.097656 522.574219 510.621094 522.574219 C 516.144531 522.574219 520.621094 527.050781 520.621094 532.574219 "/>
<path fill-rule="nonzero" fill="rgb(100%, 0%, 0%)" fill-opacity="1" stroke-width="1" stroke-linecap="butt" stroke-linejoin="miter" stroke="rgb(0%, 0%, 0%)" stroke-opacity="1" stroke-miterlimit="10" d="M 185.113281 563.148438 C 185.113281 568.667969 180.636719 573.148438 175.113281 573.148438 C 169.589844 573.148438 165.113281 568.667969 165.113281 563.148438 C 165.113281 557.625 169.589844 553.148438 175.113281 553.148438 C 180.636719 553.148438 185.113281 557.625 185.113281 563.148438 "/>
<path fill-rule="nonzero" fill="rgb(100%, 0%, 0%)" fill-opacity="1" stroke-width="1" stroke-linecap="butt" stroke-linejoin="miter" stroke="rgb(0%, 0%, 0%)" stroke-opacity="1" stroke-miterlimit="10" d="M 340.066406 435.078125 C 340.066406 440.601562 335.589844 445.078125 330.066406 445.078125 C 324.546875 445.078125 320.066406 440.601562 320.066406 435.078125 C 320.066406 429.554688 324.546875 425.078125 330.066406 425.078125 C 335.589844 425.078125 340.066406 429.554688 340.066406 435.078125 "/>
<path fill-rule="nonzero" fill="rgb(100%, 0%, 0%)" fill-opacity="1" stroke-width="1" stroke-linecap="butt" stroke-linejoin="miter" stroke="rgb(0%, 0%, 0%)" stroke-opacity="1" stroke-miterlimit="10" d="M 94.785156 289.71875 C 94.785156 295.242188 90.308594 299.71875 84.785156 299.71875 C 79.261719 299.71875 74.785156 295.242188 74.785156 289.71875 C 74.785156 284.195312 79.261719 279.71875 84.785156 279.71875 C 90.308594 279.71875 94.785156 284.195312 94.785156 289.71875 "/>
<path fill-rule="nonzero" fill="rgb(100%, 0%, 0%)" fill-opacity="1" stroke-width="1" stroke-linecap="butt" stroke-linejoin="miter" stroke="rgb(0%, 0%, 0%)" stroke-opacity="1" stroke-miterlimit="10" d="M 385.332031 472.894531 C 385.332031 478.417969 380.855469 482.894531 375.332031 482.894531 C 369.808594 482.894531 365.332031 478.417969 365.332031 472.894531 C 365.332031 467.371094 369.808594 462.894531 375.332031 462.894531 C 380.855469 462.894531 385.332031 467.371094 385.332031 472.894531 "/>
<path fill-rule="nonzero" fill="rgb(100%, 0%, 0%)" fill-opacity="1" stroke-width="1" stroke-linecap="butt" stroke-linejoin="miter" stroke="rgb(0%, 0%, 0%)" stroke-opacity="1" stroke-miterlimit="10" d="M 318.378906 503.101562 C 318.378906 508.625 313.902344 513.101562 308.378906 513.101562 C 302.855469 513.101562 298.378906 508.625 298.378906 503.101562 C 298.378906 497.578125 302.855469 493.101562 308.378906 493.101562 C 313.902344 493.101562 318.378906 497.578125 318.378906 503.101562 "/>
<path fill-rule="nonzero" fill="rgb(100%, 0%, 0%)" fill-opacity="1" stroke-width="1" stroke-linecap="butt" stroke-linejoin="miter" stroke="rgb(0%, 0%, 0%)" stroke-opacity="1" stroke-miterlimit="10" d="M 265.988281 580 C 265.988281 585.523438 261.511719 590 255.988281 590 C 250.464844 590 245.988281 585.523438 245.988281 580 C 245.988281 574.476562 250.464844 570 255.988281 570 C 261.511719 570 265.988281 574.476562 265.988281 580 "/>
<path fill-rule="nonzero" fill="rgb(100%, 0%, 0%)" fill-opacity="1" stroke-width="1" stroke-linecap="butt" stroke-linejoin="miter" stroke="rgb(0%, 0%, 0%)" stroke-opacity="1" stroke-miterlimit="10" d="M 225.015625 415.15625 C 225.015625 420.679688 220.539062 425.15625 215.015625 425.15625 C 209.492188 425.15625 205.015625 420.679688 205.015625 415.15625 C 205.015625 409.636719 209.492188 405.15625 215.015625 405.15625 C 220.539062 405.15625 225.015625 409.636719 225.015625 415.15625 "/>
<path fill-rule="nonzero" fill="rgb(100%, 0%, 0%)" fill-opacity="1" stroke-width="1" stroke-linecap="butt" stroke-linejoin="miter" stroke="rgb(0%, 0%, 0%)" stroke-opacity="1" stroke-miterlimit="10" d="M 48.800781 284.703125 C 48.800781 290.226562 44.324219 294.703125 38.800781 294.703125 C 33.28125 294.703125 28.800781 290.226562 28.800781 284.703125 C 28.800781 279.179688 33.28125 274.703125 38.800781 274.703125 C 44.324219 274.703125 48.800781 279.179688 48.800781 284.703125 "/>
<path fill-rule="nonzero" fill="rgb(100%, 0%, 0%)" fill-opacity="1" stroke-width="1" stroke-linecap="butt" stroke-linejoin="miter" stroke="rgb(0%, 0%, 0%)" stroke-opacity="1" stroke-miterlimit="10" d="M 152.609375 187.757812 C 152.609375 193.28125 148.132812 197.757812 142.609375 197.757812 C 137.085938 197.757812 132.609375 193.28125 132.609375 187.757812 C 132.609375 182.234375 137.085938 177.757812 142.609375 177.757812 C 148.132812 177.757812 152.609375 182.234375 152.609375 187.757812 "/>
<path fill-rule="nonzero" fill="rgb(100%, 0%, 0%)" fill-opacity="1" stroke-width="1" stroke-linecap="butt" stroke-linejoin="miter" stroke="rgb(0%, 0%, 0%)" stroke-opacity="1" stroke-miterlimit="10" d="M 590 552.71875 C 590 558.242188 585.523438 562.71875 580 562.71875 C 574.476562 562.71875 570 558.242188 570 552.71875 C 570 547.195312 574.476562 542.71875 580 542.71875 C 585.523438 542.71875 590 547.195312 590 552.71875 "/>
<path fill-rule="nonzero" fill="rgb(100%, 0%, 0%)" fill-opacity="1" stroke-width="1" stroke-linecap="butt" stroke-linejoin="miter" stroke="rgb(0%, 0%, 0%)" stroke-opacity="1" stroke-miterlimit="10" d="M 66.394531 469.058594 C 66.394531 474.582031 61.917969 479.058594 56.394531 479.058594 C 50.871094 479.058594 46.394531 474.582031 46.394531 469.058594 C 46.394531 463.535156 50.871094 459.058594 56.394531 459.058594 C 61.917969 459.058594 66.394531 463.535156 66.394531 469.058594 "/>
<path fill-rule="nonzero" fill="rgb(100%, 0%, 0%)" fill-opacity="1" stroke-width="1" stroke-linecap="butt" stroke-linejoin="miter" stroke="rgb(0%, 0%, 0%)" stroke-opacity="1" stroke-miterlimit="10" d="M 66.933594 113.472656 C 66.933594 118.996094 62.453125 123.472656 56.933594 123.472656 C 51.410156 123.472656 46.933594 118.996094 46.933594 113.472656 C 46.933594 107.953125 51.410156 103.472656 56.933594 103.472656 C 62.453125 103.472656 66.933594 107.953125 66.933594 113.472656 "/>
<path fill-rule="nonzero" fill="rgb(100%, 0%, 0%)" fill-opacity="1" stroke-width="1" stroke-linecap="butt" stroke-linejoin="miter" stroke="rgb(0%, 0%, 0%)" stroke-opacity="1" stroke-miterlimit="10" d="M 30 258.035156 C 30 263.554688 25.523438 268.035156 20 268.035156 C 14.476562 268.035156 10 263.554688 10 258.035156 C 10 252.511719 14.476562 248.035156 20 248.035156 C 25.523438 248.035156 30 252.511719 30 258.035156 "/>
<path fill-rule="nonzero" fill="rgb(100%, 0%, 0%)" fill-opacity="1" stroke-width="1" stroke-linecap="butt" stroke-linejoin="miter" stroke="rgb(0%, 0%, 0%)" stroke-opacity="1" stroke-miterlimit="10" d="M 44.054688 229.800781 C 44.054688 235.324219 39.578125 239.800781 34.054688 239.800781 C 28.53125 239.800781 24.054688 235.324219 24.054688 229.800781 C 24.054688 224.277344 28.53125 219.800781 34.054688 219.800781 C 39.578125 219.800781 44.054688 224.277344 44.054688 229.800781 "/>
<path fill-rule="nonzero" fill="rgb(100%, 0%, 0%)" fill-opacity="1" stroke-width="1" stroke-linecap="butt" stroke-linejoin="miter" stroke="rgb(0%, 0%, 0%)" stroke-opacity="1" stroke-miterlimit="10" d="M 229.402344 485.597656 C 229.402344 491.121094 224.925781 495.597656 219.402344 495.597656 C 213.878906 495.597656 209.402344 491.121094 209.402344 485.597656 C 209.402344 480.074219 213.878906 475.597656 219.402344 475.597656 C 224.925781 475.597656 229.402344 480.074219 229.402344 485.597656 "/>
<path fill-rule="nonzero" fill="rgb(100%, 0%, 0%)" fill-opacity="1" stroke-width="1" stroke-linecap="butt" stroke-linejoin="miter" stroke="rgb(0%, 0%, 0%)" stroke-opacity="1" stroke-miterlimit="10" d="M 90.667969 217.476562 C 90.667969 223 86.191406 227.476562 80.667969 227.476562 C 75.144531 227.476562 70.667969 223 70.667969 217.476562 C 70.667969 211.953125 75.144531 207.476562 80.667969 207.476562 C 86.191406 207.476562 90.667969 211.953125 90.667969 217.476562 "/>
<path fill-rule="nonzero" fill="rgb(100%, 0%, 0%)" fill-opacity="1" stroke-width="1" stroke-linecap="butt" stroke-linejoin="miter" stroke="rgb(0%, 0%, 0%)" stroke-opacity="1" stroke-miterlimit="10" d="M 101.945312 89.703125 C 101.945312 95.226562 97.46875 99.703125 91.945312 99.703125 C 86.421875 99.703125 81.945312 95.226562 81.945312 89.703125 C 81.945312 84.179688 86.421875 79.703125 91.945312 79.703125 C 97.46875 79.703125 101.945312 84.179688 101.945312 89.703125 "/>
<path fill-rule="nonzero" fill="rgb(100%, 0%, 0%)" fill-opacity="1" stroke-width="1" stroke-linecap="butt" stroke-linejoin="miter" stroke="rgb(0%, 0%, 0%)" stroke-opacity="1" stroke-miterlimit="10" d="M 270.257812 274.128906 C 270.257812 279.652344 265.777344 284.128906 260.257812 284.128906 C 254.734375 284.128906 250.257812 279.652344 250.257812 274.128906 C 250.257812 268.605469 254.734375 264.128906 260.257812 264.128906 C 265.777344 264.128906 270.257812 268.605469 270.257812 274.128906 "/>
<path fill-rule="nonzero" fill="rgb(100%, 0%, 0%)" fill-opacity="1" stroke-width="1" stroke-linecap="butt" stroke-linejoin="miter" stroke="rgb(0%, 0%, 0%)" stroke-opacity="1" stroke-miterlimit="10" d="M 154.832031 20 C 154.832031 25.523438 150.355469 30 144.832031 30 C 139.308594 30 134.832031 25.523438 134.832031 20 C 134.832031 14.476562 139.308594 10 144.832031 10 C 150.355469 10 154.832031 14.476562 154.832031 20 "/>
<path fill-rule="nonzero" fill="rgb(100%, 0%, 0%)" fill-opacity="1" stroke-width="1" stroke-linecap="butt" stroke-linejoin="miter" stroke="rgb(0%, 0%, 0%)" stroke-opacity="1" stroke-miterlimit="10" d="M 305.71875 69.820312 C 305.71875 75.339844 301.242188 79.820312 295.71875 79.820312 C 290.195312 79.820312 285.71875 75.339844 285.71875 69.820312 C 285.71875 64.296875 290.195312 59.820312 295.71875 59.820312 C 301.242188 59.820312 305.71875 64.296875 305.71875 69.820312 "/>
<path fill-rule="nonzero" fill="rgb(100%, 0%, 0%)" fill-opacity="1" stroke-width="1" stroke-linecap="butt" stroke-linejoin="miter" stroke="rgb(0%, 0%, 0%)" stroke-opacity="1" stroke-miterlimit="10" d="M 191.152344 298.429688 C 191.152344 303.953125 186.675781 308.429688 181.152344 308.429688 C 175.628906 308.429688 171.152344 303.953125 171.152344 298.429688 C 171.152344 292.90625 175.628906 288.429688 181.152344 288.429688 C 186.675781 288.429688 191.152344 292.90625 191.152344 298.429688 "/>
<path fill-rule="nonzero" fill="rgb(100%, 0%, 0%)" fill-opacity="1" stroke-width="1" stroke-linecap="butt" stroke-linejoin="miter" stroke="rgb(0%, 0%, 0%)" stroke-opacity="1" stroke-miterlimit="10" d="M 303.414062 337.300781 C 303.414062 342.824219 298.9375 347.300781 293.414062 347.300781 C 287.890625 347.300781 283.414062 342.824219 283.414062 337.300781 C 283.414062 331.777344 287.890625 327.300781 293.414062 327.300781 C 298.9375 327.300781 303.414062 331.777344 303.414062 337.300781 "/>
<path fill-rule="nonzero" fill="rgb(100%, 0%, 0%)" fill-opacity="1" stroke-width="1" stroke-linecap="butt" stroke-linejoin="miter" stroke="rgb(0%, 0%, 0%)" stroke-opacity="1" stroke-miterlimit="10" d="M 242.195312 106.386719 C 242.195312 111.910156 237.71875 116.386719 232.195312 116.386719 C 226.671875 116.386719 222.195312 111.910156 222.195312 106.386719 C 222.195312 100.863281 226.671875 96.386719 232.195312 96.386719 C 237.71875 96.386719 242.195312 100.863281 242.195312 106.386719 "/>
<path fill-rule="nonzero" fill="rgb(100%, 0%, 0%)" fill-opacity="1" stroke-width="1" stroke-linecap="butt" stroke-linejoin="miter" stroke="rgb(0%, 0%, 0%)" stroke-opacity="1" stroke-miterlimit="10" d="M 191.050781 233.472656 C 191.050781 238.996094 186.570312 243.472656 181.050781 243.472656 C 175.527344 243.472656 171.050781 238.996094 171.050781 233.472656 C 171.050781 227.953125 175.527344 223.472656 181.050781 223.472656 C 186.570312 223.472656 191.050781 227.953125 191.050781 233.472656 "/>
<path fill-rule="nonzero" fill="rgb(100%, 0%, 0%)" fill-opacity="1" stroke-width="1" stroke-linecap="butt" stroke-linejoin="miter" stroke="rgb(0%, 0%, 0%)" stroke-opacity="1" stroke-miterlimit="10" d="M 168.808594 74.117188 C 168.808594 79.640625 164.332031 84.117188 158.808594 84.117188 C 153.289062 84.117188 148.808594 79.640625 148.808594 74.117188 C 148.808594 68.59375 153.289062 64.117188 158.808594 64.117188 C 164.332031 64.117188 168.808594 68.59375 168.808594 74.117188 "/>
<path fill-rule="nonzero" fill="rgb(100%, 0%, 0%)" fill-opacity="1" stroke-width="1" stroke-linecap="butt" stroke-linejoin="miter" stroke="rgb(0%, 0%, 0%)" stroke-opacity="1" stroke-miterlimit="10" d="M 157.269531 128.316406 C 157.269531 133.839844 152.792969 138.316406 147.269531 138.316406 C 141.746094 138.316406 137.269531 133.839844 137.269531 128.316406 C 137.269531 122.792969 141.746094 118.316406 147.269531 118.316406 C 152.792969 118.316406 157.269531 122.792969 157.269531 128.316406 "/>
<path fill-rule="nonzero" fill="rgb(100%, 0%, 0%)" fill-opacity="1" stroke-width="1" stroke-linecap="butt" stroke-linejoin="miter" stroke="rgb(0%, 0%, 0%)" stroke-opacity="1" stroke-miterlimit="10" d="M 125.351562 251.695312 C 125.351562 257.21875 120.875 261.695312 115.351562 261.695312 C 109.828125 261.695312 105.351562 257.21875 105.351562 251.695312 C 105.351562 246.171875 109.828125 241.695312 115.351562 241.695312 C 120.875 241.695312 125.351562 246.171875 125.351562 251.695312 "/>
</svg>