<?xml version="1.0" encoding="UTF-8"?>
<svg xmlns="http://www.w3.org/2000/svg" xmlns:xlink="http://www.w3.org/1999/xlink" width="600" height="600" viewBox="0 0 600 600">
<rect x="-60" y="-60" width="720" height="720" fill="rgb(100%, 100%, 100%)" fill-opacity="1"/>
<path fill="none" stroke-width="3" stroke-linecap="butt" stroke-linejoin="miter" stroke="rgb(26.666667%, 26.666667%, 26.666667%)" stroke-opacity="1" stroke-miterlimit="10" d="M 315.761719 485.320312 L 236.007812 432.40625 "/>
<path fill="none" stroke-width="4" stroke-linecap="butt" stroke-linejoin="miter" stroke="rgb(26.666667%, 26.666667%, 26.666667%)" stroke-opacity="1" stroke-miterlimit="10" d="M 315.761719 485.320312 L 352.347656 532.777344 "/>
<path fill="none" stroke-width="3" stroke-linecap="butt" stroke-linejoin="miter" stroke="rgb(26.666667%, 26.666667%, 26.666667%)" stroke-opacity="1" stroke-miterlimit="10" d="M 315.761719 485.320312 L 425.078125 510.609375 "/>
<path fill="none" stroke-width="6" stroke-linecap="butt" stroke-linejoin="miter" stroke="rgb(26.666667%, 26.666667%, 26.666667%)" stroke-opacity="1" stroke-miterlimit="10" d="M 315.761719 485.320312 L 244.25 527.542969 "/>
<path fill="none" stroke-width="10" stroke-linecap="butt" stroke-linejoin="miter" stroke="rgb(26.666667%, 26.666667%, 26.666667%)" stroke-opacity="1" stroke-miterlimit="10" d="M 315.761719 485.320312 L 292.03125 546.023438 "/>
<path fill="none" stroke-width="5" stroke-linecap="butt" stroke-linejoin="miter" stroke="rgb(26.666667%, 26.666667%, 26.666667%)" stroke-opacity="1" stroke-miterlimit="10" d="M 315.761719 485.320312 L 411.949219 466.992188 "/>
<path fill="none" stroke-width="1" stroke-linecap="butt" stroke-linejoin="miter" stroke="rgb(26.666667%, 26.666667%, 26.666667%)" stroke-opacity="1" stroke-miterlimit="10" d="M 123.757812 460.777344 L 236.007812 432.40625 "/>
<path fill="none" stroke-width="6" stroke-linecap="butt" stroke-linejoin="miter" stroke="rgb(26.666667%, 26.666667%, 26.666667%)" stroke-opacity="1" stroke-miterlimit="10" d="M 123.757812 460.777344 L 28.738281 485.78125 "/>
<path fill="none" stroke-width="6" stroke-linecap="butt" stroke-linejoin="miter" stroke="rgb(26.666667%, 26.666667%, 26.666667%)" stroke-opacity="1" stroke-miterlimit="10" d="M 123.757812 460.777344 L 86.582031 516.757812 "/>
<path fill="none" stroke-width="4" stroke-linecap="butt" stroke-linejoin="miter" stroke="rgb(26.666667%, 26.666667%, 26.666667%)" stroke-opacity="1" stroke-miterlimit="10" d="M 123.757812 460.777344 L 20 442.753906 "/>
<path fill="none" stroke-width="4" stroke-linecap="butt" stroke-linejoin="miter" stroke="rgb(26.666667%, 26.666667%, 26.666667%)" stroke-opacity="1" stroke-miterlimit="10" d="M 256.230469 362.539062 L 236.007812 432.40625 "/>
<path fill="none" stroke-width="5" stroke-linecap="butt" stroke-linejoin="miter" stroke="rgb(26.666667%, 26.666667%, 26.666667%)" stroke-opacity="1" stroke-miterlimit="10" d="M 256.230469 362.539062 L 335.398438 340.175781 "/>
<path fill="none" stroke-width="3" stroke-linecap="butt" stroke-linejoin="miter" stroke="rgb(26.666667%, 26.666667%, 26.666667%)" stroke-opacity="1" stroke-miterlimit="10" d="M 256.230469 362.539062 L 212.921875 300.875 "/>
<path fill="none" stroke-width="3" stroke-linecap="butt" stroke-linejoin="miter" stroke="rgb(26.666667%, 26.666667%, 26.666667%)" stroke-opacity="1" stroke-miterlimit="10" d="M 256.230469 362.539062 L 369.5625 361.828125 "/>
<path fill="none" stroke-width="3" stroke-linecap="butt" stroke-linejoin="miter" stroke="rgb(26.666667%, 26.666667%, 26.666667%)" stroke-opacity="1" stroke-miterlimit="10" d="M 236.007812 432.40625 L 307.914062 426.515625 "/>
<path fill="none" stroke-width="1" stroke-linecap="butt" stroke-linejoin="miter" stroke="rgb(26.666667%, 26.666667%, 26.666667%)" stroke-opacity="1" stroke-miterlimit="10" d="M 236.007812 432.40625 L 163.894531 422.78125 "/>
<path fill="none" stroke-width="1" stroke-linecap="butt" stroke-linejoin="miter" stroke="rgb(26.666667%, 26.666667%, 26.666667%)" stroke-opacity="1" stroke-miterlimit="10" d="M 509.769531 543.089844 L 425.078125 510.609375 "/>
<path fill="none" stroke-width="4" stroke-linecap="butt" stroke-linejoin="miter" stroke="rgb(26.666667%, 26.666667%, 26.666667%)" stroke-opacity="1" stroke-miterlimit="10" d="M 509.769531 543.089844 L 580 580 "/>
<path fill="none" stroke-width="1" stroke-linecap="butt" stroke-linejoin="miter" stroke="rgb(26.666667%, 26.666667%, 26.666667%)" stroke-opacity="1" stroke-miterlimit="10" d="M 463.90625 136.007812 L 349.570312 125.894531 "/>
<path fill="none" stroke-width="9" stroke-linecap="butt" stroke-linejoin="miter" stroke="rgb(26.666667%, 26.666667%, 26.666667%)" stroke-opacity="1" stroke-miterlimit="10" d="M 115.78125 313.832031 L 212.921875 300.875 "/>
<path fill="none" stroke-width="3" stroke-linecap="butt" stroke-linejoin="miter" stroke="rgb(26.666667%, 26.666667%, 26.666667%)" stroke-opacity="1" stroke-miterlimit="10" d="M 93.84375 284.238281 L 212.921875 300.875 "/>
<path fill="none" stroke-width="7" stroke-linecap="butt" stroke-linejoin="miter" stroke="rgb(26.666667%, 26.666667%, 26.666667%)" stroke-opacity="1" stroke-miterlimit="10" d="M 421.113281 157.277344 L 349.570312 125.894531 "/>
<path fill="none" stroke-width="2" stroke-linecap="butt" stroke-linejoin="miter" stroke="rgb(26.666667%, 26.666667%, 26.666667%)" stroke-opacity="1" stroke-miterlimit="10" d="M 261.816406 108.507812 L 349.570312 125.894531 "/>
<path fill="none" stroke-width="7" stroke-linecap="butt" stroke-linejoin="miter" stroke="rgb(26.666667%, 26.666667%, 26.666667%)" stroke-opacity="1" stroke-miterlimit="10" d="M 150.667969 268.179688 L 212.921875 300.875 "/>
<path fill="none" stroke-width="2" stroke-linecap="butt" stroke-linejoin="miter" stroke="rgb(26.666667%, 26.666667%, 26.666667%)" stroke-opacity="1" stroke-miterlimit="10" d="M 284.550781 181.410156 L 178.851562 159.214844 "/>
<path fill="none" stroke-width="1" stroke-linecap="butt" stroke-linejoin="miter" stroke="rgb(26.666667%, 26.666667%, 26.666667%)" stroke-opacity="1" stroke-miterlimit="10" d="M 284.550781 181.410156 L 349.570312 125.894531 "/>
<path fill="none" stroke-width="4" stroke-linecap="butt" stroke-linejoin="miter" stroke="rgb(26.666667%, 26.666667%, 26.666667%)" stroke-opacity="1" stroke-miterlimit="10" d="M 284.550781 181.410156 L 267.5625 242.835938 "/>
<path fill="none" stroke-width="3" stroke-linecap="butt" stroke-linejoin="miter" stroke="rgb(26.666667%, 26.666667%, 26.666667%)" stroke-opacity="1" stroke-miterlimit="10" d="M 226.1875 20 L 276.125 70.941406 "/>
<path fill="none" stroke-width="2" stroke-linecap="butt" stroke-linejoin="miter" stroke="rgb(26.666667%, 26.666667%, 26.666667%)" stroke-opacity="1" stroke-miterlimit="10" d="M 350.707031 71.742188 L 349.570312 125.894531 "/>
<path fill="none" stroke-width="2" stroke-linecap="butt" stroke-linejoin="miter" stroke="rgb(26.666667%, 26.666667%, 26.666667%)" stroke-opacity="1" stroke-miterlimit="10" d="M 276.125 70.941406 L 349.570312 125.894531 "/>
<path fill="none" stroke-width="1" stroke-linecap="butt" stroke-linejoin="miter" stroke="rgb(26.666667%, 26.666667%, 26.666667%)" stroke-opacity="1" stroke-miterlimit="10" d="M 267.5625 242.835938 L 212.921875 300.875 "/>
<path fill="none" stroke-width="3" stroke-linecap="butt" stroke-linejoin="miter" stroke="rgb(26.666667%, 26.666667%, 26.666667%)" stroke-opacity="1" stroke-miterlimit="10" d="M 452.457031 103.191406 L 349.570312 125.894531 "/>
<path fill="none" stroke-width="2" stroke-linecap="butt" stroke-linejoin="miter" stroke="rgb(26.666667%, 26.666667%, 26.666667%)" stroke-opacity="1" stroke-miterlimit="10" d="M 412.152344 77.4375 L 349.570312 125.894531 "/>
<path fill-rule="nonzero" fill="rgb(100%, 0%, 0%)" fill-opacity="1" stroke-width="1" stroke-linecap="butt" stroke-linejoin="miter" stroke="rgb(0%, 0%, 0%)" stroke-opacity="1" stroke-miterlimit="10" d="M 325.761719 485.320312 C 325.761719 490.84375 321.285156 495.320312 315.761719 495.320312 C 310.238281 495.320312 305.761719 490.84375 305.761719 485.320312 C 305.761719 479.796875 310.238281 475.320312 315.761719 475.320312 C 321.285156 475.320312 325.761719 479.796875 325.761719 485.320312 "/>
<path fill-rule="nonzero" fill="rgb(100%, 0%, 0%)" fill-opacity="1" stroke-width="1" stroke-linecap="butt" stroke-linejoin="miter" stroke="rgb(0%, 0%, 0%)" stroke-opacity="1" stroke-miterlimit="10" d="M 133.757812 460.777344 C 133.757812 466.300781 129.28125 470.777344 123.757812 470.777344 C 118.234375 470.777344 113.757812 466.300781 113.757812 460.777344 C 113.757812 455.257812 118.234375 450.777344 123.757812 450.777344 C 129.28125 450.777344 133.757812 455.257812 133.757812 460.777344 "/>
<path fill-rule="nonzero" fill="rgb(100%, 0%, 0%)" fill-opacity="1" stroke-width="1" stroke-linecap="butt" stroke-linejoin="miter" stroke="rgb(0%, 0%, 0%)" stroke-opacity="1" stroke-miterlimit="10" d="M 266.230469 362.539062 C 266.230469 368.0625 261.753906 372.539062 256.230469 372.539062 C 250.710938 372.539062 246.230469 368.0625 246.230469 362.539062 C 246.230469 357.019531 250.710938 352.539062 256.230469 352.539062 C 261.753906 352.539062 266.230469 357.019531 266.230469 362.539062 "/>
<path fill-rule="nonzero" fill="rgb(100%, 0%, 0%)" fill-opacity="1" stroke-width="1" stroke-linecap="butt" stroke-linejoin="miter" stroke="rgb(0%, 0%, 0%)" stroke-opacity="1" stroke-miterlimit="10" d="M 246.007812 432.40625 C 246.007812 437.929688 241.527344 442.40625 236.007812 442.40625 C 230.484375 442.40625 226.007812 437.929688 226.007812 432.40625 C 226.007812 426.882812 230.484375 422.40625 236.007812 422.40625 C 241.527344 422.40625 246.007812 426.882812 246.007812 432.40625 "/>
<path fill-rule="nonzero" fill="rgb(100%, 0%, 0%)" fill-opacity="1" stroke-width="1" stroke-linecap="butt" stroke-linejoin="miter" stroke="rgb(0%, 0%, 0%)" stroke-opacity="1" stroke-miterlimit="10" d="M 362.347656 532.777344 C 362.347656 538.300781 357.871094 542.777344 352.347656 542.777344 C 346.828125 542.777344 342.347656 538.300781 342.347656 532.777344 C 342.347656 527.253906 346.828125 522.777344 352.347656 522.777344 C 357.871094 522.777344 362.347656 527.253906 362.347656 532.777344 "/>
<path fill-rule="nonzero" fill="rgb(100%, 0%, 0%)" fill-opacity="1" stroke-width="1" stroke-linecap="butt" stroke-linejoin="miter" stroke="rgb(0%, 0%, 0%)" stroke-opacity="1" stroke-miterlimit="10" d="M 519.769531 543.089844 C 519.769531 548.613281 515.292969 553.089844 509.769531 553.089844 C 504.246094 553.089844 499.769531 548.613281 499.769531 543.089844 C 499.769531 537.566406 504.246094 533.089844 509.769531 533.089844 C 515.292969 533.089844 519.769531 537.566406 519.769531 543.089844 "/>
<path fill-rule="nonzero" fill="rgb(100%, 0%, 0%)" fill-opacity="1" stroke-width="1" stroke-linecap="butt" stroke-linejoin="miter" stroke="rgb(0%, 0%, 0%)" stroke-opacity="1" stroke-miterlimit="10" d="M 435.078125 510.609375 C 435.078125 516.132812 430.601562 520.609375 425.078125 520.609375 C 419.554688 520.609375 415.078125 516.132812 415.078125 510.609375 C 415.078125 505.085938 419.554688 500.609375 425.078125 500.609375 C 430.601562 500.609375 435.078125 505.085938 435.078125 510.609375 "/>
<path fill-rule="nonzero" fill="rgb(100%, 0%, 0%)" fill-opacity="1" stroke-width="1" stroke-linecap="butt" stroke-linejoin="miter" stroke="rgb(0%, 0%, 0%)" stroke-opacity="1" stroke-miterlimit="10" d="M 317.914062 426.515625 C 317.914062 432.039062 313.4375 436.515625 307.914062 436.515625 C 302.390625 436.515625 297.914062 432.039062 297.914062 426.515625 C 297.914062 420.996094 302.390625 416.515625 307.914062 416.515625 C 313.4375 416.515625 317.914062 420.996094 317.914062 426.515625 "/>
<path fill-rule="nonzero" fill="rgb(100%, 0%, 0%)" fill-opacity="1" stroke-width="1" stroke-linecap="butt" stroke-linejoin="miter" stroke="rgb(0%, 0%, 0%)" stroke-opacity="1" stroke-miterlimit="10" d="M 473.90625 136.007812 C 473.90625 141.527344 469.425781 146.007812 463.90625 146.007812 C 458.382812 146.007812 453.90625 141.527344 453.90625 136.007812 C 453.90625 130.484375 458.382812 126.007812 463.90625 126.007812 C 469.425781 126.007812 473.90625 130.484375 473.90625 136.007812 "/>
<path fill-rule="nonzero" fill="rgb(100%, 0%, 0%)" fill-opacity="1" stroke-width="1" stroke-linecap="butt" stroke-linejoin="miter" stroke="rgb(0%, 0%, 0%)" stroke-opacity="1" stroke-miterlimit="10" d="M 379.5625 361.828125 C 379.5625 367.351562 375.085938 371.828125 369.5625 371.828125 C 364.039062 371.828125 359.5625 367.351562 359.5625 361.828125 C 359.5625 356.308594 364.039062 351.828125 369.5625 351.828125 C 375.085938 351.828125 379.5625 356.308594 379.5625 361.828125 "/>
<path fill-rule="nonzero" fill="rgb(100%, 0%, 0%)" fill-opacity="1" stroke-width="1" stroke-linecap="butt" stroke-linejoin="miter" stroke="rgb(0%, 0%, 0%)" stroke-opacity="1" stroke-miterlimit="10" d="M 254.25 527.542969 C 254.25 533.066406 249.773438 537.542969 244.25 537.542969 C 238.726562 537.542969 234.25 533.066406 234.25 527.542969 C 234.25 522.019531 238.726562 517.542969 244.25 517.542969 C 249.773438 517.542969 254.25 522.019531 254.25 527.542969 "/>
<path fill-rule="nonzero" fill="rgb(100%, 0%, 0%)" fill-opacity="1" stroke-width="1" stroke-linecap="butt" stroke-linejoin="miter" stroke="rgb(0%, 0%, 0%)" stroke-opacity="1" stroke-miterlimit="10" d="M 302.03125 546.023438 C 302.03125 551.546875 297.554688 556.023438 292.03125 556.023438 C 286.507812 556.023438 282.03125 551.546875 282.03125 546.023438 C 282.03125 540.5 286.507812 536.023438 292.03125 536.023438 C 297.554688 536.023438 302.03125 540.5 302.03125 546.023438 "/>
<path fill-rule="nonzero" fill="rgb(100%, 0%, 0%)" fill-opacity="1" stroke-width="1" stroke-linecap="butt" stroke-linejoin="miter" stroke="rgb(0%, 0%, 0%)" stroke-opacity="1" stroke-miterlimit="10" d="M 173.894531 422.78125 C 173.894531 428.304688 169.417969 432.78125 163.894531 432.78125 C 158.371094 432.78125 153.894531 428.304688 153.894531 422.78125 C 153.894531 417.257812 158.371094 412.78125 163.894531 412.78125 C 169.417969 412.78125 173.894531 417.257812 173.894531 422.78125 "/>
<path fill-rule="nonzero" fill="rgb(100%, 0%, 0%)" fill-opacity="1" stroke-width="1" stroke-linecap="butt" stroke-linejoin="miter" stroke="rgb(0%, 0%, 0%)" stroke-opacity="1" stroke-miterlimit="10" d="M 38.738281 485.78125 C 38.738281 491.304688 34.261719 495.78125 28.738281 495.78125 C 23.214844 495.78125 18.738281 491.304688 18.738281 485.78125 C 18.738281 480.257812 23.214844 475.78125 28.738281 475.78125 C 34.261719 475.78125 38.738281 480.257812 38.738281 485.78125 "/>
<path fill-rule="nonzero" fill="rgb(100%, 0%, 0%)" fill-opacity="1" stroke-width="1" stroke-linecap="butt" stroke-linejoin="miter" stroke="rgb(0%, 0%, 0%)" stroke-opacity="1" stroke-miterlimit="10" d="M 125.78125 313.832031 C 125.78125 319.355469 121.304688 323.832031 115.78125 323.832031 C 110.261719 323.832031 105.78125 319.355469 105.78125 313.832031 C 105.78125 308.308594 110.261719 303.832031 115.78125 303.832031 C 121.304688 303.832031 125.78125 308.308594 125.78125 313.832031 "/>
<path fill-rule="nonzero" fill="rgb(100%, 0%, 0%)" fill-opacity="1" stroke-width="1" stroke-linecap="butt" stroke-linejoin="miter" stroke="rgb(0%, 0%, 0%)" stroke-opacity="1" stroke-miterlimit="10" d="M 103.84375 284.238281 C 103.84375 289.761719 99.363281 294.238281 93.84375 294.238281 C 88.320312 294.238281 83.84375 289.761719 83.84375 284.238281 C 83.84375 278.714844 88.320312 274.238281 93.84375 274.238281 C 99.363281 274.238281 103.84375 278.714844 103.84375 284.238281 "/>
<path fill-rule="nonzero" fill="rgb(100%, 0%, 0%)" fill-opacity="1" stroke-width="1" stroke-linecap="butt" stroke-linejoin="miter" stroke="rgb(0%, 0%, 0%)" stroke-opacity="1" stroke-miterlimit="10" d="M 590 580 C 590 585.523438 585.523438 590 580 590 C 574.476562 590 570 585.523438 570 580 C 570 574.476562 574.476562 570 580 570 C 585.523438 570 590 574.476562 590 580 "/>
<path fill-rule="nonzero" fill="rgb(100%, 0%, 0%)" fill-opacity="1" stroke-width="1" stroke-linecap="butt" stroke-linejoin="miter" stroke="rgb(0%, 0%, 0%)" stroke-opacity="1" stroke-miterlimit="10" d="M 421.949219 466.992188 C 421.949219 472.515625 417.46875 476.992188 411.949219 476.992188 C 406.425781 476.992188 401.949219 472.515625 401.949219 466.992188 C 401.949219 461.46875 406.425781 456.992188 411.949219 456.992188 C 417.46875 456.992188 421.949219 461.46875 421.949219 466.992188 "/>
<path fill-rule="nonzero" fill="rgb(100%, 0%, 0%)" fill-opacity="1" stroke-width="1" stroke-linecap="butt" stroke-linejoin="miter" stroke="rgb(0%, 0%, 0%)" stroke-opacity="1" stroke-miterlimit="10" d="M 431.113281 157.277344 C 431.113281 162.800781 426.636719 167.277344 421.113281 167.277344 C 415.589844 167.277344 411.113281 162.800781 411.113281 157.277344 C 411.113281 151.753906 415.589844 147.277344 421.113281 147.277344 C 426.636719 147.277344 431.113281 151.753906 431.113281 157.277344 "/>
<path fill-rule="nonzero" fill="rgb(100%, 0%, 0%)" fill-opacity="1" stroke-width="1" stroke-linecap="butt" stroke-linejoin="miter" stroke="rgb(0%, 0%, 0%)" stroke-opacity="1" stroke-miterlimit="10" d="M 96.582031 516.757812 C 96.582031 522.28125 92.105469 526.757812 86.582031 526.757812 C 81.058594 526.757812 76.582031 522.28125 76.582031 516.757812 C 76.582031 511.234375 81.058594 506.757812 86.582031 506.757812 C 92.105469 506.757812 96.582031 511.234375 96.582031 516.757812 "/>
<path fill-rule="nonzero" fill="rgb(100%, 0%, 0%)" fill-opacity="1" stroke-width="1" stroke-linecap="butt" stroke-linejoin="miter" stroke="rgb(0%, 0%, 0%)" stroke-opacity="1" stroke-miterlimit="10" d="M 271.816406 108.507812 C 271.816406 114.027344 267.339844 118.507812 261.816406 118.507812 C 256.292969 118.507812 251.816406 114.027344 251.816406 108.507812 C 251.816406 102.984375 256.292969 98.507812 261.816406 98.507812 C 267.339844 98.507812 271.816406 102.984375 271.816406 108.507812 "/>
<path fill-rule="nonzero" fill="rgb(100%, 0%, 0%)" fill-opacity="1" stroke-width="1" stroke-linecap="butt" stroke-linejoin="miter" stroke="rgb(0%, 0%, 0%)" stroke-opacity="1" stroke-miterlimit="10" d="M 30 442.753906 C 30 448.273438 25.523438 452.753906 20 452.753906 C 14.476562 452.753906 10 448.273438 10 442.753906 C 10 437.230469 14.476562 432.753906 20 432.753906 C 25.523438 432.753906 30 437.230469 30 442.753906 "/>
<path fill-rule="nonzero" fill="rgb(100%, 0%, 0%)" fill-opacity="1" stroke-width="1" stroke-linecap="butt" stroke-linejoin="miter" stroke="rgb(0%, 0%, 0%)" stroke-opacity="1" stroke-miterlimit="10" d="M 160.667969 268.179688 C 160.667969 273.703125 156.191406 278.179688 150.667969 278.179688 C 145.148438 278.179688 140.667969 273.703125 140.667969 268.179688 C 140.667969 262.65625 145.148438 258.179688 150.667969 258.179688 C 156.191406 258.179688 160.667969 262.65625 160.667969 268.179688 "/>
<path fill-rule="nonzero" fill="rgb(100%, 0%, 0%)" fill-opacity="1" stroke-width="1" stroke-linecap="butt" stroke-linejoin="miter" stroke="rgb(0%, 0%, 0%)" stroke-opacity="1" stroke-miterlimit="10" d="M 294.550781 181.410156 C 294.550781 186.933594 290.074219 191.410156 284.550781 191.410156 C 279.027344 191.410156 274.550781 186.933594 274.550781 181.410156 C 274.550781 175.886719 279.027344 171.410156 284.550781 171.410156 C 290.074219 171.410156 294.550781 175.886719 294.550781 181.410156 "/>
<path fill-rule="nonzero" fill="rgb(100%, 0%, 0%)" fill-opacity="1" stroke-width="1" stroke-linecap="butt" stroke-linejoin="miter" stroke="rgb(0%, 0%, 0%)" stroke-opacity="1" stroke-miterlimit="10" d="M 236.1875 20 C 236.1875 25.523438 231.710938 30 226.1875 30 C 220.664062 30 216.1875 25.523438 216.1875 20 C 216.1875 14.476562 220.664062 10 226.1875 10 C 231.710938 10 236.1875 14.476562 236.1875 20 "/>
<path fill-rule="nonzero" fill="rgb(100%, 0%, 0%)" fill-opacity="1" stroke-width="1" stroke-linecap="butt" stroke-linejoin="miter" stroke="rgb(0%, 0%, 0%)" stroke-opacity="1" stroke-miterlimit="10" d="M 188.851562 159.214844 C 188.851562 164.738281 184.375 169.214844 178.851562 169.214844 C 173.332031 169.214844 168.851562 164.738281 168.851562 159.214844 C 168.851562 153.691406 173.332031 149.214844 178.851562 149.214844 C 184.375 149.214844 188.851562 153.691406 188.851562 159.214844 "/>
<path fill-rule="nonzero" fill="rgb(100%, 0%, 0%)" fill-opacity="1" stroke-width="1" stroke-linecap="butt" stroke-linejoin="miter" stroke="rgb(0%, 0%, 0%)" stroke-opacity="1" stroke-miterlimit="10" d="M 360.707031 71.742188 C 360.707031 77.265625 356.230469 81.742188 350.707031 81.742188 C 345.1875 81.742188 340.707031 77.265625 340.707031 71.742188 C 340.707031 66.21875 345.1875 61.742188 350.707031 61.742188 C 356.230469 61.742188 360.707031 66.21875 360.707031 71.742188 "/>
<path fill-rule="nonzero" fill="rgb(100%, 0%, 0%)" fill-opacity="1" stroke-width="1" stroke-linecap="butt" stroke-linejoin="miter" stroke="rgb(0%, 0%, 0%)" stroke-opacity="1" stroke-miterlimit="10" d="M 286.125 70.941406 C 286.125 76.464844 281.648438 80.941406 276.125 80.941406 C 270.601562 80.941406 266.125 76.464844 266.125 70.941406 C 266.125 65.417969 270.601562 60.941406 276.125 60.941406 C 281.648438 60.941406 286.125 65.417969 286.125 70.941406 "/>
<path fill-rule="nonzero" fill="rgb(100%, 0%, 0%)" fill-opacity="1" stroke-width="1" stroke-linecap="butt" stroke-linejoin="miter" stroke="rgb(0%, 0%, 0%)" stroke-opacity="1" stroke-miterlimit="10" d="M 345.398438 340.175781 C 345.398438 345.699219 340.921875 350.175781 335.398438 350.175781 C 329.875 350.175781 325.398438 345.699219 325.398438 340.175781 C 325.398438 334.652344 329.875 330.175781 335.398438 330.175781 C 340.921875 330.175781 345.398438 334.652344 345.398438 340.175781 "/>
<path fill-rule="nonzero" fill="rgb(100%, 0%, 0%)" fill-opacity="1" stroke-width="1" stroke-linecap="butt" stroke-linejoin="miter" stroke="rgb(0%, 0%, 0%)" stroke-opacity="1" stroke-miterlimit="10" d="M 277.5625 242.835938 C 277.5625 248.359375 273.085938 252.835938 267.5625 252.835938 C 262.039062 252.835938 257.5625 248.359375 257.5625 242.835938 C 257.5625 237.3125 262.039062 232.835938 267.5625 232.835938 C 273.085938 232.835938 277.5625 237.3125 277.5625 242.835938 "/>
<path fill-rule="nonzero" fill="rgb(100%, 0%, 0%)" fill-opacity="1" stroke-width="1" stroke-linecap="butt" stroke-linejoin="miter" stroke="rgb(0%, 0%, 0%)" stroke-opacity="1" stroke-miterlimit="10" d="M 462.457031 103.191406 C 462.457031 108.714844 457.980469 113.191406 452.457031 113.191406 C 446.933594 113.191406 442.457031 108.714844 442.457031 103.191406 C 442.457031 97.667969 446.933594 93.191406 452.457031 93.191406 C 457.980469 93.191406 462.457031 97.667969 462.457031 103.191406 "/>
<path fill-rule="nonzero" fill="rgb(100%, 0%, 0%)" fill-opacity="1" stroke-width="1" stroke-linecap="butt" stroke-linejoin="miter" stroke="rgb(0%, 0%, 0%)" stroke-opacity="1" stroke-miterlimit="10" d="M 422.152344 77.4375 C 422.152344 82.957031 417.675781 87.4375 412.152344 87.4375 C 406.628906 87.4375 402.152344 82.957031 402.152344 77.4375 C 402.152344 71.914062 406.628906 67.4375 412.152344 67.4375 C 417.675781 67.4375 422.152344 71.914062 422.152344 77.4375 "/>
<path fill-rule="nonzero" fill="rgb(100%, 0%, 0%)" fill-opacity="1" stroke-width="1" stroke-linecap="butt" stroke-linejoin="miter" stroke="rgb(0%, 0%, 0%)" stroke-opacity="1" stroke-miterlimit="10" d="M 222.921875 300.875 C 222.921875 306.398438 218.445312 310.875 212.921875 310.875 C 207.398438 310.875 202.921875 306.398438 202.921875 300.875 C 202.921875 295.351562 207.398438 290.875 212.921875 290.875 C 218.445312 290.875 222.921875 295.351562 222.921875 300.875 "/>
<path fill-rule="nonzero" fill="rgb(100%, 0%, 0%)" fill-opacity="1" stroke-width="1" stroke-linecap="butt" stroke-linejoin="miter" stroke="rgb(0%, 0%, 0%)" stroke-opacity="1" stroke-miterlimit="10" d="M 359.570312 125.894531 C 359.570312 131.417969 355.09375 135.894531 349.570312 135.894531 C 344.046875 135.894531 339.570312 131.417969 339.570312 125.894531 C 339.570312 120.371094 344.046875 115.894531 349.570312 115.894531 C 355.09375 115.894531 359.570312 120.371094 359.570312 125.894531 "/>
</svg>