<?xml version="1.0" encoding="UTF-8"?>
<svg xmlns="http://www.w3.org/2000/svg" xmlns:xlink="http://www.w3.org/1999/xlink" width="600" height="600" viewBox="0 0 600 600">
<rect x="-60" y="-60" width="720" height="720" fill="rgb(100%, 100%, 100%)" fill-opacity="1"/>
<path fill="none" stroke-width="2" stroke-linecap="butt" stroke-linejoin="miter" stroke="rgb(26.666667%, 26.666667%, 26.666667%)" stroke-opacity="1" stroke-miterlimit="10" d="M 386.734375 443.824219 L 450.046875 473.941406 "/>
<path fill="none" stroke-width="4" stroke-linecap="butt" stroke-linejoin="miter" stroke="rgb(26.666667%, 26.666667%, 26.666667%)" stroke-opacity="1" stroke-miterlimit="10" d="M 386.734375 443.824219 L 400.511719 393.363281 "/>
<path fill="none" stroke-width="1" stroke-linecap="butt" stroke-linejoin="miter" stroke="rgb(26.666667%, 26.666667%, 26.666667%)" stroke-opacity="1" stroke-miterlimit="10" d="M 386.734375 443.824219 L 445.582031 435.40625 "/>
<path fill="none" stroke-width="10" stroke-linecap="butt" stroke-linejoin="miter" stroke="rgb(26.666667%, 26.666667%, 26.666667%)" stroke-opacity="1" stroke-miterlimit="10" d="M 386.734375 443.824219 L 398.390625 481.652344 "/>
<path fill="none" stroke-width="6" stroke-linecap="butt" stroke-linejoin="miter" stroke="rgb(26.666667%, 26.666667%, 26.666667%)" stroke-opacity="1" stroke-miterlimit="10" d="M 386.734375 443.824219 L 356.445312 486.769531 "/>
<path fill="none" stroke-width="5" stroke-linecap="butt" stroke-linejoin="miter" stroke="rgb(26.666667%, 26.666667%, 26.666667%)" stroke-opacity="1" stroke-miterlimit="10" d="M 386.734375 443.824219 L 324.773438 469.964844 "/>
<path fill="none" stroke-width="1" stroke-linecap="butt" stroke-linejoin="miter" stroke="rgb(26.666667%, 26.666667%, 26.666667%)" stroke-opacity="1" stroke-miterlimit="10" d="M 386.734375 443.824219 L 339.011719 422.992188 "/>
<path fill="none" stroke-width="1" stroke-linecap="butt" stroke-linejoin="miter" stroke="rgb(26.666667%, 26.666667%, 26.666667%)" stroke-opacity="1" stroke-miterlimit="10" d="M 386.734375 443.824219 L 314.089844 444.066406 "/>
<path fill="none" stroke-width="4" stroke-linecap="butt" stroke-linejoin="miter" stroke="rgb(26.666667%, 26.666667%, 26.666667%)" stroke-opacity="1" stroke-miterlimit="10" d="M 144.863281 66.890625 L 80.203125 73.460938 "/>
<path fill="none" stroke-width="1" stroke-linecap="butt" stroke-linejoin="miter" stroke="rgb(26.666667%, 26.666667%, 26.666667%)" stroke-opacity="1" stroke-miterlimit="10" d="M 144.863281 66.890625 L 139.703125 20 "/>
<path fill="none" stroke-width="2" stroke-linecap="butt" stroke-linejoin="miter" stroke="rgb(26.666667%, 26.666667%, 26.666667%)" stroke-opacity="1" stroke-miterlimit="10" d="M 144.863281 66.890625 L 201.414062 91.820312 "/>
<path fill="none" stroke-width="3" stroke-linecap="butt" stroke-linejoin="miter" stroke="rgb(26.666667%, 26.666667%, 26.666667%)" stroke-opacity="1" stroke-miterlimit="10" d="M 408.476562 347.542969 L 419.910156 302.609375 "/>
<path fill="none" stroke-width="1" stroke-linecap="butt" stroke-linejoin="miter" stroke="rgb(26.666667%, 26.666667%, 26.666667%)" stroke-opacity="1" stroke-miterlimit="10" d="M 408.476562 347.542969 L 400.511719 393.363281 "/>
<path fill="none" stroke-width="6" stroke-linecap="butt" stroke-linejoin="miter" stroke="rgb(26.666667%, 26.666667%, 26.666667%)" stroke-opacity="1" stroke-miterlimit="10" d="M 20 64.054688 L 80.203125 73.460938 "/>
<path fill="none" stroke-width="3" stroke-linecap="butt" stroke-linejoin="miter" stroke="rgb(26.666667%, 26.666667%, 26.666667%)" stroke-opacity="1" stroke-miterlimit="10" d="M 450.046875 473.941406 L 493.757812 507.960938 "/>
<path fill="none" stroke-width="4" stroke-linecap="butt" stroke-linejoin="miter" stroke="rgb(26.666667%, 26.666667%, 26.666667%)" stroke-opacity="1" stroke-miterlimit="10" d="M 527.664062 543.664062 L 493.757812 507.960938 "/>
<path fill="none" stroke-width="6" stroke-linecap="butt" stroke-linejoin="miter" stroke="rgb(26.666667%, 26.666667%, 26.666667%)" stroke-opacity="1" stroke-miterlimit="10" d="M 527.664062 543.664062 L 557.066406 580 "/>
<path fill="none" stroke-width="3" stroke-linecap="butt" stroke-linejoin="miter" stroke="rgb(26.666667%, 26.666667%, 26.666667%)" stroke-opacity="1" stroke-miterlimit="10" d="M 466.710938 202.085938 L 409.085938 213.519531 "/>
<path fill="none" stroke-width="2" stroke-linecap="butt" stroke-linejoin="miter" stroke="rgb(26.666667%, 26.666667%, 26.666667%)" stroke-opacity="1" stroke-miterlimit="10" d="M 416.578125 179.292969 L 409.085938 213.519531 "/>
<path fill="none" stroke-width="2" stroke-linecap="butt" stroke-linejoin="miter" stroke="rgb(26.666667%, 26.666667%, 26.666667%)" stroke-opacity="1" stroke-miterlimit="10" d="M 262.488281 66.109375 L 270.679688 106.582031 "/>
<path fill="none" stroke-width="4" stroke-linecap="butt" stroke-linejoin="miter" stroke="rgb(26.666667%, 26.666667%, 26.666667%)" stroke-opacity="1" stroke-miterlimit="10" d="M 222.230469 135.035156 L 270.679688 106.582031 "/>
<path fill="none" stroke-width="3" stroke-linecap="butt" stroke-linejoin="miter" stroke="rgb(26.666667%, 26.666667%, 26.666667%)" stroke-opacity="1" stroke-miterlimit="10" d="M 305.914062 60.578125 L 270.679688 106.582031 "/>
<path fill="none" stroke-width="8" stroke-linecap="butt" stroke-linejoin="miter" stroke="rgb(26.666667%, 26.666667%, 26.666667%)" stroke-opacity="1" stroke-miterlimit="10" d="M 326.460938 84.101562 L 270.679688 106.582031 "/>
<path fill="none" stroke-width="4" stroke-linecap="butt" stroke-linejoin="miter" stroke="rgb(26.666667%, 26.666667%, 26.666667%)" stroke-opacity="1" stroke-miterlimit="10" d="M 443.226562 257.839844 L 518.6875 254.550781 "/>
<path fill="none" stroke-width="1" stroke-linecap="butt" stroke-linejoin="miter" stroke="rgb(26.666667%, 26.666667%, 26.666667%)" stroke-opacity="1" stroke-miterlimit="10" d="M 443.226562 257.839844 L 419.910156 302.609375 "/>
<path fill="none" stroke-width="4" stroke-linecap="butt" stroke-linejoin="miter" stroke="rgb(26.666667%, 26.666667%, 26.666667%)" stroke-opacity="1" stroke-miterlimit="10" d="M 443.226562 257.839844 L 409.085938 213.519531 "/>
<path fill="none" stroke-width="1" stroke-linecap="butt" stroke-linejoin="miter" stroke="rgb(26.666667%, 26.666667%, 26.666667%)" stroke-opacity="1" stroke-miterlimit="10" d="M 578.058594 227.878906 L 518.6875 254.550781 "/>
<path fill="none" stroke-width="2" stroke-linecap="butt" stroke-linejoin="miter" stroke="rgb(26.666667%, 26.666667%, 26.666667%)" stroke-opacity="1" stroke-miterlimit="10" d="M 518.6875 254.550781 L 580 268.667969 "/>
<path fill="none" stroke-width="1" stroke-linecap="butt" stroke-linejoin="miter" stroke="rgb(26.666667%, 26.666667%, 26.666667%)" stroke-opacity="1" stroke-miterlimit="10" d="M 345.9375 187.859375 L 305.984375 149.328125 "/>
<path fill="none" stroke-width="1" stroke-linecap="butt" stroke-linejoin="miter" stroke="rgb(26.666667%, 26.666667%, 26.666667%)" stroke-opacity="1" stroke-miterlimit="10" d="M 345.9375 187.859375 L 409.085938 213.519531 "/>
<path fill="none" stroke-width="6" stroke-linecap="butt" stroke-linejoin="miter" stroke="rgb(26.666667%, 26.666667%, 26.666667%)" stroke-opacity="1" stroke-miterlimit="10" d="M 464.089844 173.398438 L 409.085938 213.519531 "/>
<path fill="none" stroke-width="3" stroke-linecap="butt" stroke-linejoin="miter" stroke="rgb(26.666667%, 26.666667%, 26.666667%)" stroke-opacity="1" stroke-miterlimit="10" d="M 305.984375 149.328125 L 270.679688 106.582031 "/>
<path fill="none" stroke-width="3" stroke-linecap="butt" stroke-linejoin="miter" stroke="rgb(26.666667%, 26.666667%, 26.666667%)" stroke-opacity="1" stroke-miterlimit="10" d="M 201.414062 91.820312 L 270.679688 106.582031 "/>
<path fill-rule="nonzero" fill="rgb(100%, 0%, 0%)" fill-opacity="1" stroke-width="1" stroke-linecap="butt" stroke-linejoin="miter" stroke="rgb(0%, 0%, 0%)" stroke-opacity="1" stroke-miterlimit="10" d="M 396.734375 443.824219 C 396.734375 449.347656 392.257812 453.824219 386.734375 453.824219 C 381.214844 453.824219 376.734375 449.347656 376.734375 443.824219 C 376.734375 438.304688 381.214844 433.824219 386.734375 433.824219 C 392.257812 433.824219 396.734375 438.304688 396.734375 443.824219 "/>
<path fill-rule="nonzero" fill="rgb(100%, 0%, 0%)" fill-opacity="1" stroke-width="1" stroke-linecap="butt" stroke-linejoin="miter" stroke="rgb(0%, 0%, 0%)" stroke-opacity="1" stroke-miterlimit="10" d="M 154.863281 66.890625 C 154.863281 72.414062 150.386719 76.890625 144.863281 76.890625 C 139.34375 76.890625 134.863281 72.414062 134.863281 66.890625 C 134.863281 61.367188 139.34375 56.890625 144.863281 56.890625 C 150.386719 56.890625 154.863281 61.367188 154.863281 66.890625 "/>
<path fill-rule="nonzero" fill="rgb(100%, 0%, 0%)" fill-opacity="1" stroke-width="1" stroke-linecap="butt" stroke-linejoin="miter" stroke="rgb(0%, 0%, 0%)" stroke-opacity="1" stroke-miterlimit="10" d="M 418.476562 347.542969 C 418.476562 353.066406 414 357.542969 408.476562 357.542969 C 402.957031 357.542969 398.476562 353.066406 398.476562 347.542969 C 398.476562 342.019531 402.957031 337.542969 408.476562 337.542969 C 414 337.542969 418.476562 342.019531 418.476562 347.542969 "/>
<path fill-rule="nonzero" fill="rgb(100%, 0%, 0%)" fill-opacity="1" stroke-width="1" stroke-linecap="butt" stroke-linejoin="miter" stroke="rgb(0%, 0%, 0%)" stroke-opacity="1" stroke-miterlimit="10" d="M 30 64.054688 C 30 69.578125 25.523438 74.054688 20 74.054688 C 14.476562 74.054688 10 69.578125 10 64.054688 C 10 58.53125 14.476562 54.054688 20 54.054688 C 25.523438 54.054688 30 58.53125 30 64.054688 "/>
<path fill-rule="nonzero" fill="rgb(100%, 0%, 0%)" fill-opacity="1" stroke-width="1" stroke-linecap="butt" stroke-linejoin="miter" stroke="rgb(0%, 0%, 0%)" stroke-opacity="1" stroke-miterlimit="10" d="M 460.046875 473.941406 C 460.046875 479.464844 455.570312 483.941406 450.046875 483.941406 C 444.523438 483.941406 440.046875 479.464844 440.046875 473.941406 C 440.046875 468.417969 444.523438 463.941406 450.046875 463.941406 C 455.570312 463.941406 460.046875 468.417969 460.046875 473.941406 "/>
<path fill-rule="nonzero" fill="rgb(100%, 0%, 0%)" fill-opacity="1" stroke-width="1" stroke-linecap="butt" stroke-linejoin="miter" stroke="rgb(0%, 0%, 0%)" stroke-opacity="1" stroke-miterlimit="10" d="M 537.664062 543.664062 C 537.664062 549.1875 533.1875 553.664062 527.664062 553.664062 C 522.144531 553.664062 517.664062 549.1875 517.664062 543.664062 C 517.664062 538.140625 522.144531 533.664062 527.664062 533.664062 C 533.1875 533.664062 537.664062 538.140625 537.664062 543.664062 "/>
<path fill-rule="nonzero" fill="rgb(100%, 0%, 0%)" fill-opacity="1" stroke-width="1" stroke-linecap="butt" stroke-linejoin="miter" stroke="rgb(0%, 0%, 0%)" stroke-opacity="1" stroke-miterlimit="10" d="M 503.757812 507.960938 C 503.757812 513.484375 499.28125 517.960938 493.757812 517.960938 C 488.234375 517.960938 483.757812 513.484375 483.757812 507.960938 C 483.757812 502.441406 488.234375 497.960938 493.757812 497.960938 C 499.28125 497.960938 503.757812 502.441406 503.757812 507.960938 "/>
<path fill-rule="nonzero" fill="rgb(100%, 0%, 0%)" fill-opacity="1" stroke-width="1" stroke-linecap="butt" stroke-linejoin="miter" stroke="rgb(0%, 0%, 0%)" stroke-opacity="1" stroke-miterlimit="10" d="M 90.203125 73.460938 C 90.203125 78.984375 85.726562 83.460938 80.203125 83.460938 C 74.679688 83.460938 70.203125 78.984375 70.203125 73.460938 C 70.203125 67.9375 74.679688 63.460938 80.203125 63.460938 C 85.726562 63.460938 90.203125 67.9375 90.203125 73.460938 "/>
<path fill-rule="nonzero" fill="rgb(100%, 0%, 0%)" fill-opacity="1" stroke-width="1" stroke-linecap="butt" stroke-linejoin="miter" stroke="rgb(0%, 0%, 0%)" stroke-opacity="1" stroke-miterlimit="10" d="M 410.511719 393.363281 C 410.511719 398.886719 406.035156 403.363281 400.511719 403.363281 C 394.988281 403.363281 390.511719 398.886719 390.511719 393.363281 C 390.511719 387.839844 394.988281 383.363281 400.511719 383.363281 C 406.035156 383.363281 410.511719 387.839844 410.511719 393.363281 "/>
<path fill-rule="nonzero" fill="rgb(100%, 0%, 0%)" fill-opacity="1" stroke-width="1" stroke-linecap="butt" stroke-linejoin="miter" stroke="rgb(0%, 0%, 0%)" stroke-opacity="1" stroke-miterlimit="10" d="M 476.710938 202.085938 C 476.710938 207.609375 472.234375 212.085938 466.710938 212.085938 C 461.1875 212.085938 456.710938 207.609375 456.710938 202.085938 C 456.710938 196.5625 461.1875 192.085938 466.710938 192.085938 C 472.234375 192.085938 476.710938 196.5625 476.710938 202.085938 "/>
<path fill-rule="nonzero" fill="rgb(100%, 0%, 0%)" fill-opacity="1" stroke-width="1" stroke-linecap="butt" stroke-linejoin="miter" stroke="rgb(0%, 0%, 0%)" stroke-opacity="1" stroke-miterlimit="10" d="M 455.582031 435.40625 C 455.582031 440.929688 451.105469 445.40625 445.582031 445.40625 C 440.058594 445.40625 435.582031 440.929688 435.582031 435.40625 C 435.582031 429.882812 440.058594 425.40625 445.582031 425.40625 C 451.105469 425.40625 455.582031 429.882812 455.582031 435.40625 "/>
<path fill-rule="nonzero" fill="rgb(100%, 0%, 0%)" fill-opacity="1" stroke-width="1" stroke-linecap="butt" stroke-linejoin="miter" stroke="rgb(0%, 0%, 0%)" stroke-opacity="1" stroke-miterlimit="10" d="M 408.390625 481.652344 C 408.390625 487.175781 403.914062 491.652344 398.390625 491.652344 C 392.867188 491.652344 388.390625 487.175781 388.390625 481.652344 C 388.390625 476.128906 392.867188 471.652344 398.390625 471.652344 C 403.914062 471.652344 408.390625 476.128906 408.390625 481.652344 "/>
<path fill-rule="nonzero" fill="rgb(100%, 0%, 0%)" fill-opacity="1" stroke-width="1" stroke-linecap="butt" stroke-linejoin="miter" stroke="rgb(0%, 0%, 0%)" stroke-opacity="1" stroke-miterlimit="10" d="M 366.445312 486.769531 C 366.445312 492.292969 361.96875 496.769531 356.445312 496.769531 C 350.921875 496.769531 346.445312 492.292969 346.445312 486.769531 C 346.445312 481.246094 350.921875 476.769531 356.445312 476.769531 C 361.96875 476.769531 366.445312 481.246094 366.445312 486.769531 "/>
<path fill-rule="nonzero" fill="rgb(100%, 0%, 0%)" fill-opacity="1" stroke-width="1" stroke-linecap="butt" stroke-linejoin="miter" stroke="rgb(0%, 0%, 0%)" stroke-opacity="1" stroke-miterlimit="10" d="M 149.703125 20 C 149.703125 25.523438 145.226562 30 139.703125 30 C 134.183594 30 129.703125 25.523438 129.703125 20 C 129.703125 14.476562 134.183594 10 139.703125 10 C 145.226562 10 149.703125 14.476562 149.703125 20 "/>
<path fill-rule="nonzero" fill="rgb(100%, 0%, 0%)" fill-opacity="1" stroke-width="1" stroke-linecap="butt" stroke-linejoin="miter" stroke="rgb(0%, 0%, 0%)" stroke-opacity="1" stroke-miterlimit="10" d="M 426.578125 179.292969 C 426.578125 184.8125 422.101562 189.292969 416.578125 189.292969 C 411.054688 189.292969 406.578125 184.8125 406.578125 179.292969 C 406.578125 173.769531 411.054688 169.292969 416.578125 169.292969 C 422.101562 169.292969 426.578125 173.769531 426.578125 179.292969 "/>
<path fill-rule="nonzero" fill="rgb(100%, 0%, 0%)" fill-opacity="1" stroke-width="1" stroke-linecap="butt" stroke-linejoin="miter" stroke="rgb(0%, 0%, 0%)" stroke-opacity="1" stroke-miterlimit="10" d="M 272.488281 66.109375 C 272.488281 71.632812 268.007812 76.109375 262.488281 76.109375 C 256.964844 76.109375 252.488281 71.632812 252.488281 66.109375 C 252.488281 60.585938 256.964844 56.109375 262.488281 56.109375 C 268.007812 56.109375 272.488281 60.585938 272.488281 66.109375 "/>
<path fill-rule="nonzero" fill="rgb(100%, 0%, 0%)" fill-opacity="1" stroke-width="1" stroke-linecap="butt" stroke-linejoin="miter" stroke="rgb(0%, 0%, 0%)" stroke-opacity="1" stroke-miterlimit="10" d="M 567.066406 580 C 567.066406 585.523438 562.585938 590 557.066406 590 C 551.542969 590 547.066406 585.523438 547.066406 580 C 547.066406 574.476562 551.542969 570 557.066406 570 C 562.585938 570 567.066406 574.476562 567.066406 580 "/>
<path fill-rule="nonzero" fill="rgb(100%, 0%, 0%)" fill-opacity="1" stroke-width="1" stroke-linecap="butt" stroke-linejoin="miter" stroke="rgb(0%, 0%, 0%)" stroke-opacity="1" stroke-miterlimit="10" d="M 334.773438 469.964844 C 334.773438 475.488281 330.296875 479.964844 324.773438 479.964844 C 319.25 479.964844 314.773438 475.488281 314.773438 469.964844 C 314.773438 464.445312 319.25 459.964844 324.773438 459.964844 C 330.296875 459.964844 334.773438 464.445312 334.773438 469.964844 "/>
<path fill-rule="nonzero" fill="rgb(100%, 0%, 0%)" fill-opacity="1" stroke-width="1" stroke-linecap="butt" stroke-linejoin="miter" stroke="rgb(0%, 0%, 0%)" stroke-opacity="1" stroke-miterlimit="10" d="M 232.230469 135.035156 C 232.230469 140.554688 227.753906 145.035156 222.230469 145.035156 C 216.710938 145.035156 212.230469 140.554688 212.230469 135.035156 C 212.230469 129.511719 216.710938 125.035156 222.230469 125.035156 C 227.753906 125.035156 232.230469 129.511719 232.230469 135.035156 "/>
<path fill-rule="nonzero" fill="rgb(100%, 0%, 0%)" fill-opacity="1" stroke-width="1" stroke-linecap="butt" stroke-linejoin="miter" stroke="rgb(0%, 0%, 0%)" stroke-opacity="1" stroke-miterlimit="10" d="M 349.011719 422.992188 C 349.011719 428.515625 344.53125 432.992188 339.011719 432.992188 C 333.488281 432.992188 329.011719 428.515625 329.011719 422.992188 C 329.011719 417.46875 333.488281 412.992188 339.011719 412.992188 C 344.53125 412.992188 349.011719 417.46875 349.011719 422.992188 "/>
<path fill-rule="nonzero" fill="rgb(100%, 0%, 0%)" fill-opacity="1" stroke-width="1" stroke-linecap="butt" stroke-linejoin="miter" stroke="rgb(0%, 0%, 0%)" stroke-opacity="1" stroke-miterlimit="10" d="M 315.914062 60.578125 C 315.914062 66.101562 311.4375 70.578125 305.914062 70.578125 C 300.390625 70.578125 295.914062 66.101562 295.914062 60.578125 C 295.914062 55.054688 300.390625 50.578125 305.914062 50.578125 C 311.4375 50.578125 315.914062 55.054688 315.914062 60.578125 "/>
<path fill-rule="nonzero" fill="rgb(100%, 0%, 0%)" fill-opacity="1" stroke-width="1" stroke-linecap="butt" stroke-linejoin="miter" stroke="rgb(0%, 0%, 0%)" stroke-opacity="1" stroke-miterlimit="10" d="M 324.089844 444.066406 C 324.089844 449.589844 319.613281 454.066406 314.089844 454.066406 C 308.566406 454.066406 304.089844 449.589844 304.089844 444.066406 C 304.089844 438.542969 308.566406 434.066406 314.089844 434.066406 C 319.613281 434.066406 324.089844 438.542969 324.089844 444.066406 "/>
<path fill-rule="nonzero" fill="rgb(100%, 0%, 0%)" fill-opacity="1" stroke-width="1" stroke-linecap="butt" stroke-linejoin="miter" stroke="rgb(0%, 0%, 0%)" stroke-opacity="1" stroke-miterlimit="10" d="M 336.460938 84.101562 C 336.460938 89.621094 331.984375 94.101562 326.460938 94.101562 C 320.9375 94.101562 316.460938 89.621094 316.460938 84.101562 C 316.460938 78.578125 320.9375 74.101562 326.460938 74.101562 C 331.984375 74.101562 336.460938 78.578125 336.460938 84.101562 "/>
<path fill-rule="nonzero" fill="rgb(100%, 0%, 0%)" fill-opacity="1" stroke-width="1" stroke-linecap="butt" stroke-linejoin="miter" stroke="rgb(0%, 0%, 0%)" stroke-opacity="1" stroke-miterlimit="10" d="M 453.226562 257.839844 C 453.226562 263.363281 448.75 267.839844 443.226562 267.839844 C 437.707031 267.839844 433.226562 263.363281 433.226562 257.839844 C 433.226562 252.316406 437.707031 247.839844 443.226562 247.839844 C 448.75 247.839844 453.226562 252.316406 453.226562 257.839844 "/>
<path fill-rule="nonzero" fill="rgb(100%, 0%, 0%)" fill-opacity="1" stroke-width="1" stroke-linecap="butt" stroke-linejoin="miter" stroke="rgb(0%, 0%, 0%)" stroke-opacity="1" stroke-miterlimit="10" d="M 588.058594 227.878906 C 588.058594 233.402344 583.582031 237.878906 578.058594 237.878906 C 572.535156 237.878906 568.058594 233.402344 568.058594 227.878906 C 568.058594 222.359375 572.535156 217.878906 578.058594 217.878906 C 583.582031 217.878906 588.058594 222.359375 588.058594 227.878906 "/>
<path fill-rule="nonzero" fill="rgb(100%, 0%, 0%)" fill-opacity="1" stroke-width="1" stroke-linecap="butt" stroke-linejoin="miter" stroke="rgb(0%, 0%, 0%)" stroke-opacity="1" stroke-miterlimit="10" d="M 528.6875 254.550781 C 528.6875 260.074219 524.210938 264.550781 518.6875 264.550781 C 513.164062 264.550781 508.6875 260.074219 508.6875 254.550781 C 508.6875 249.027344 513.164062 244.550781 518.6875 244.550781 C 524.210938 244.550781 528.6875 249.027344 528.6875 254.550781 "/>
<path fill-rule="nonzero" fill="rgb(100%, 0%, 0%)" fill-opacity="1" stroke-width="1" stroke-linecap="butt" stroke-linejoin="miter" stroke="rgb(0%, 0%, 0%)" stroke-opacity="1" stroke-miterlimit="10" d="M 355.9375 187.859375 C 355.9375 193.382812 351.460938 197.859375 345.9375 197.859375 C 340.414062 197.859375 335.9375 193.382812 335.9375 187.859375 C 335.9375 182.335938 340.414062 177.859375 345.9375 177.859375 C 351.460938 177.859375 355.9375 182.335938 355.9375 187.859375 "/>
<path fill-rule="nonzero" fill="rgb(100%, 0%, 0%)" fill-opacity="1" stroke-width="1" stroke-linecap="butt" stroke-linejoin="miter" stroke="rgb(0%, 0%, 0%)" stroke-opacity="1" stroke-miterlimit="10" d="M 429.910156 302.609375 C 429.910156 308.132812 425.429688 312.609375 419.910156 312.609375 C 414.386719 312.609375 409.910156 308.132812 409.910156 302.609375 C 409.910156 297.089844 414.386719 292.609375 419.910156 292.609375 C 425.429688 292.609375 429.910156 297.089844 429.910156 302.609375 "/>
<path fill-rule="nonzero" fill="rgb(100%, 0%, 0%)" fill-opacity="1" stroke-width="1" stroke-linecap="butt" stroke-linejoin="miter" stroke="rgb(0%, 0%, 0%)" stroke-opacity="1" stroke-miterlimit="10" d="M 474.089844 173.398438 C 474.089844 178.917969 469.613281 183.398438 464.089844 183.398438 C 458.566406 183.398438 454.089844 178.917969 454.089844 173.398438 C 454.089844 167.875 458.566406 163.398438 464.089844 163.398438 C 469.613281 163.398438 474.089844 167.875 474.089844 173.398438 "/>
<path fill-rule="nonzero" fill="rgb(100%, 0%, 0%)" fill-opacity="1" stroke-width="1" stroke-linecap="butt" stroke-linejoin="miter" stroke="rgb(0%, 0%, 0%)" stroke-opacity="1" stroke-miterlimit="10" d="M 315.984375 149.328125 C 315.984375 154.851562 311.503906 159.328125 305.984375 159.328125 C 300.460938 159.328125 295.984375 154.851562 295.984375 149.328125 C 295.984375 143.808594 300.460938 139.328125 305.984375 139.328125 C 311.503906 139.328125 315.984375 143.808594 315.984375 149.328125 "/>
<path fill-rule="nonzero" fill="rgb(100%, 0%, 0%)" fill-opacity="1" stroke-width="1" stroke-linecap="butt" stroke-linejoin="miter" stroke="rgb(0%, 0%, 0%)" stroke-opacity="1" stroke-miterlimit="10" d="M 211.414062 91.820312 C 211.414062 97.34375 206.9375 101.820312 201.414062 101.820312 C 195.890625 101.820312 191.414062 97.34375 191.414062 91.820312 C 191.414062 86.300781 195.890625 81.820312 201.414062 81.820312 C 206.9375 81.820312 211.414062 86.300781 211.414062 91.820312 "/>
<path fill-rule="nonzero" fill="rgb(100%, 0%, 0%)" fill-opacity="1" stroke-width="1" stroke-linecap="butt" stroke-linejoin="miter" stroke="rgb(0%, 0%, 0%)" stroke-opacity="1" stroke-miterlimit="10" d="M 590 268.667969 C 590 274.191406 585.523438 278.667969 580 278.667969 C 574.476562 278.667969 570 274.191406 570 268.667969 C 570 263.144531 574.476562 258.667969 580 258.667969 C 585.523438 258.667969 590 263.144531 590 268.667969 "/>
<path fill-rule="nonzero" fill="rgb(100%, 0%, 0%)" fill-opacity="1" stroke-width="1" stroke-linecap="butt" stroke-linejoin="miter" stroke="rgb(0%, 0%, 0%)" stroke-opacity="1" stroke-miterlimit="10" d="M 280.679688 106.582031 C 280.679688 112.105469 276.203125 116.582031 270.679688 116.582031 C 265.15625 116.582031 260.679688 112.105469 260.679688 106.582031 C 260.679688 101.058594 265.15625 96.582031 270.679688 96.582031 C 276.203125 96.582031 280.679688 101.058594 280.679688 106.582031 "/>
<path fill-rule="nonzero" fill="rgb(100%, 0%, 0%)" fill-opacity="1" stroke-width="1" stroke-linecap="butt" stroke-linejoin="miter" stroke="rgb(0%, 0%, 0%)" stroke-opacity="1" stroke-miterlimit="10" d="M 419.085938 213.519531 C 419.085938 219.042969 414.609375 223.519531 409.085938 223.519531 C 403.5625 223.519531 399.085938 219.042969 399.085938 213.519531 C 399.085938 207.996094 403.5625 203.519531 409.085938 203.519531 C 414.609375 203.519531 419.085938 207.996094 419.085938 213.519531 "/>
</svg>