<?xml version="1.0" encoding="UTF-8"?>
<svg xmlns="http://www.w3.org/2000/svg" xmlns:xlink="http://www.w3.org/1999/xlink" width="600" height="600" viewBox="0 0 600 600">
<rect x="-60" y="-60" width="720" height="720" fill="rgb(100%, 100%, 100%)" fill-opacity="1"/>
<path fill="none" stroke-width="3" stroke-linecap="butt" stroke-linejoin="miter" stroke="rgb(26.666667%, 26.666667%, 26.666667%)" stroke-opacity="1" stroke-miterlimit="10" d="M 148.347656 391.027344 L 137.292969 469.789062 "/>
<path fill="none" stroke-width="8" stroke-linecap="butt" stroke-linejoin="miter" stroke="rgb(26.666667%, 26.666667%, 26.666667%)" stroke-opacity="1" stroke-miterlimit="10" d="M 148.347656 391.027344 L 83.21875 397.496094 "/>
<path fill="none" stroke-width="5" stroke-linecap="butt" stroke-linejoin="miter" stroke="rgb(26.666667%, 26.666667%, 26.666667%)" stroke-opacity="1" stroke-miterlimit="10" d="M 148.347656 391.027344 L 122.257812 428.25 "/>
<path fill="none" stroke-width="1" stroke-linecap="butt" stroke-linejoin="miter" stroke="rgb(26.666667%, 26.666667%, 26.666667%)" stroke-opacity="1" stroke-miterlimit="10" d="M 148.347656 391.027344 L 85.492188 362.738281 "/>
<path fill="none" stroke-width="2" stroke-linecap="butt" stroke-linejoin="miter" stroke="rgb(26.666667%, 26.666667%, 26.666667%)" stroke-opacity="1" stroke-miterlimit="10" d="M 148.347656 391.027344 L 196.367188 330.160156 "/>
<path fill="none" stroke-width="3" stroke-linecap="butt" stroke-linejoin="miter" stroke="rgb(26.666667%, 26.666667%, 26.666667%)" stroke-opacity="1" stroke-miterlimit="10" d="M 415.660156 312.527344 L 468.679688 349.492188 "/>
<path fill="none" stroke-width="1" stroke-linecap="butt" stroke-linejoin="miter" stroke="rgb(26.666667%, 26.666667%, 26.666667%)" stroke-opacity="1" stroke-miterlimit="10" d="M 415.660156 312.527344 L 351.0625 321.113281 "/>
<path fill="none" stroke-width="1" stroke-linecap="butt" stroke-linejoin="miter" stroke="rgb(26.666667%, 26.666667%, 26.666667%)" stroke-opacity="1" stroke-miterlimit="10" d="M 415.660156 312.527344 L 448.890625 253.792969 "/>
<path fill="none" stroke-width="5" stroke-linecap="butt" stroke-linejoin="miter" stroke="rgb(26.666667%, 26.666667%, 26.666667%)" stroke-opacity="1" stroke-miterlimit="10" d="M 524.050781 371.75 L 580 386.523438 "/>
<path fill="none" stroke-width="4" stroke-linecap="butt" stroke-linejoin="miter" stroke="rgb(26.666667%, 26.666667%, 26.666667%)" stroke-opacity="1" stroke-miterlimit="10" d="M 524.050781 371.75 L 468.679688 349.492188 "/>
<path fill="none" stroke-width="4" stroke-linecap="butt" stroke-linejoin="miter" stroke="rgb(26.666667%, 26.666667%, 26.666667%)" stroke-opacity="1" stroke-miterlimit="10" d="M 166.652344 527.660156 L 137.292969 469.789062 "/>
<path fill="none" stroke-width="6" stroke-linecap="butt" stroke-linejoin="miter" stroke="rgb(26.666667%, 26.666667%, 26.666667%)" stroke-opacity="1" stroke-miterlimit="10" d="M 83.140625 514.296875 L 81.683594 580 "/>
<path fill="none" stroke-width="2" stroke-linecap="butt" stroke-linejoin="miter" stroke="rgb(26.666667%, 26.666667%, 26.666667%)" stroke-opacity="1" stroke-miterlimit="10" d="M 83.140625 514.296875 L 137.292969 469.789062 "/>
<path fill="none" stroke-width="4" stroke-linecap="butt" stroke-linejoin="miter" stroke="rgb(26.666667%, 26.666667%, 26.666667%)" stroke-opacity="1" stroke-miterlimit="10" d="M 83.140625 514.296875 L 20 527.675781 "/>
<path fill="none" stroke-width="2" stroke-linecap="butt" stroke-linejoin="miter" stroke="rgb(26.666667%, 26.666667%, 26.666667%)" stroke-opacity="1" stroke-miterlimit="10" d="M 319.992188 382.15625 L 274.332031 331.175781 "/>
<path fill="none" stroke-width="10" stroke-linecap="butt" stroke-linejoin="miter" stroke="rgb(26.666667%, 26.666667%, 26.666667%)" stroke-opacity="1" stroke-miterlimit="10" d="M 268.335938 397.867188 L 274.332031 331.175781 "/>
<path fill="none" stroke-width="4" stroke-linecap="butt" stroke-linejoin="miter" stroke="rgb(26.666667%, 26.666667%, 26.666667%)" stroke-opacity="1" stroke-miterlimit="10" d="M 351.0625 321.113281 L 274.332031 331.175781 "/>
<path fill="none" stroke-width="3" stroke-linecap="butt" stroke-linejoin="miter" stroke="rgb(26.666667%, 26.666667%, 26.666667%)" stroke-opacity="1" stroke-miterlimit="10" d="M 270.96875 262.199219 L 274.332031 331.175781 "/>
<path fill="none" stroke-width="4" stroke-linecap="butt" stroke-linejoin="miter" stroke="rgb(26.666667%, 26.666667%, 26.666667%)" stroke-opacity="1" stroke-miterlimit="10" d="M 249.515625 370.113281 L 274.332031 331.175781 "/>
<path fill="none" stroke-width="3" stroke-linecap="butt" stroke-linejoin="miter" stroke="rgb(26.666667%, 26.666667%, 26.666667%)" stroke-opacity="1" stroke-miterlimit="10" d="M 89.535156 258.609375 L 158.292969 257.882812 "/>
<path fill="none" stroke-width="1" stroke-linecap="butt" stroke-linejoin="miter" stroke="rgb(26.666667%, 26.666667%, 26.666667%)" stroke-opacity="1" stroke-miterlimit="10" d="M 251.167969 288.101562 L 274.332031 331.175781 "/>
<path fill="none" stroke-width="4" stroke-linecap="butt" stroke-linejoin="miter" stroke="rgb(26.666667%, 26.666667%, 26.666667%)" stroke-opacity="1" stroke-miterlimit="10" d="M 297.28125 401.960938 L 274.332031 331.175781 "/>
<path fill="none" stroke-width="8" stroke-linecap="butt" stroke-linejoin="miter" stroke="rgb(26.666667%, 26.666667%, 26.666667%)" stroke-opacity="1" stroke-miterlimit="10" d="M 113.078125 222.996094 L 158.292969 257.882812 "/>
<path fill="none" stroke-width="6" stroke-linecap="butt" stroke-linejoin="miter" stroke="rgb(26.666667%, 26.666667%, 26.666667%)" stroke-opacity="1" stroke-miterlimit="10" d="M 156.671875 185.269531 L 130.867188 125.257812 "/>
<path fill="none" stroke-width="2" stroke-linecap="butt" stroke-linejoin="miter" stroke="rgb(26.666667%, 26.666667%, 26.666667%)" stroke-opacity="1" stroke-miterlimit="10" d="M 156.671875 185.269531 L 158.292969 257.882812 "/>
<path fill="none" stroke-width="4" stroke-linecap="butt" stroke-linejoin="miter" stroke="rgb(26.666667%, 26.666667%, 26.666667%)" stroke-opacity="1" stroke-miterlimit="10" d="M 101.574219 71.636719 L 72.328125 20 "/>
<path fill="none" stroke-width="6" stroke-linecap="butt" stroke-linejoin="miter" stroke="rgb(26.666667%, 26.666667%, 26.666667%)" stroke-opacity="1" stroke-miterlimit="10" d="M 101.574219 71.636719 L 130.867188 125.257812 "/>
<path fill="none" stroke-width="4" stroke-linecap="butt" stroke-linejoin="miter" stroke="rgb(26.666667%, 26.666667%, 26.666667%)" stroke-opacity="1" stroke-miterlimit="10" d="M 301.15625 263.464844 L 274.332031 331.175781 "/>
<path fill="none" stroke-width="2" stroke-linecap="butt" stroke-linejoin="miter" stroke="rgb(26.666667%, 26.666667%, 26.666667%)" stroke-opacity="1" stroke-miterlimit="10" d="M 156.738281 315.613281 L 196.367188 330.160156 "/>
<path fill="none" stroke-width="4" stroke-linecap="butt" stroke-linejoin="miter" stroke="rgb(26.666667%, 26.666667%, 26.666667%)" stroke-opacity="1" stroke-miterlimit="10" d="M 313.632812 291.882812 L 274.332031 331.175781 "/>
<path fill="none" stroke-width="3" stroke-linecap="butt" stroke-linejoin="miter" stroke="rgb(26.666667%, 26.666667%, 26.666667%)" stroke-opacity="1" stroke-miterlimit="10" d="M 319.152344 348.046875 L 274.332031 331.175781 "/>
<path fill="none" stroke-width="2" stroke-linecap="butt" stroke-linejoin="miter" stroke="rgb(26.666667%, 26.666667%, 26.666667%)" stroke-opacity="1" stroke-miterlimit="10" d="M 196.367188 330.160156 L 158.292969 257.882812 "/>
<path fill="none" stroke-width="1" stroke-linecap="butt" stroke-linejoin="miter" stroke="rgb(26.666667%, 26.666667%, 26.666667%)" stroke-opacity="1" stroke-miterlimit="10" d="M 196.367188 330.160156 L 274.332031 331.175781 "/>
<path fill-rule="nonzero" fill="rgb(100%, 0%, 0%)" fill-opacity="1" stroke-width="1" stroke-linecap="butt" stroke-linejoin="miter" stroke="rgb(0%, 0%, 0%)" stroke-opacity="1" stroke-miterlimit="10" d="M 158.347656 391.027344 C 158.347656 396.550781 153.871094 401.027344 148.347656 401.027344 C 142.824219 401.027344 138.347656 396.550781 138.347656 391.027344 C 138.347656 385.503906 142.824219 381.027344 148.347656 381.027344 C 153.871094 381.027344 158.347656 385.503906 158.347656 391.027344 "/>
<path fill-rule="nonzero" fill="rgb(100%, 0%, 0%)" fill-opacity="1" stroke-width="1" stroke-linecap="butt" stroke-linejoin="miter" stroke="rgb(0%, 0%, 0%)" stroke-opacity="1" stroke-miterlimit="10" d="M 425.660156 312.527344 C 425.660156 318.046875 421.183594 322.527344 415.660156 322.527344 C 410.136719 322.527344 405.660156 318.046875 405.660156 312.527344 C 405.660156 307.003906 410.136719 302.527344 415.660156 302.527344 C 421.183594 302.527344 425.660156 307.003906 425.660156 312.527344 "/>
<path fill-rule="nonzero" fill="rgb(100%, 0%, 0%)" fill-opacity="1" stroke-width="1" stroke-linecap="butt" stroke-linejoin="miter" stroke="rgb(0%, 0%, 0%)" stroke-opacity="1" stroke-miterlimit="10" d="M 534.050781 371.75 C 534.050781 377.273438 529.574219 381.75 524.050781 381.75 C 518.527344 381.75 514.050781 377.273438 514.050781 371.75 C 514.050781 366.226562 518.527344 361.75 524.050781 361.75 C 529.574219 361.75 534.050781 366.226562 534.050781 371.75 "/>
<path fill-rule="nonzero" fill="rgb(100%, 0%, 0%)" fill-opacity="1" stroke-width="1" stroke-linecap="butt" stroke-linejoin="miter" stroke="rgb(0%, 0%, 0%)" stroke-opacity="1" stroke-miterlimit="10" d="M 590 386.523438 C 590 392.046875 585.523438 396.523438 580 396.523438 C 574.476562 396.523438 570 392.046875 570 386.523438 C 570 381 574.476562 376.523438 580 376.523438 C 585.523438 376.523438 590 381 590 386.523438 "/>
<path fill-rule="nonzero" fill="rgb(100%, 0%, 0%)" fill-opacity="1" stroke-width="1" stroke-linecap="butt" stroke-linejoin="miter" stroke="rgb(0%, 0%, 0%)" stroke-opacity="1" stroke-miterlimit="10" d="M 176.652344 527.660156 C 176.652344 533.183594 172.175781 537.660156 166.652344 537.660156 C 161.128906 537.660156 156.652344 533.183594 156.652344 527.660156 C 156.652344 522.136719 161.128906 517.660156 166.652344 517.660156 C 172.175781 517.660156 176.652344 522.136719 176.652344 527.660156 "/>
<path fill-rule="nonzero" fill="rgb(100%, 0%, 0%)" fill-opacity="1" stroke-width="1" stroke-linecap="butt" stroke-linejoin="miter" stroke="rgb(0%, 0%, 0%)" stroke-opacity="1" stroke-miterlimit="10" d="M 93.140625 514.296875 C 93.140625 519.816406 88.664062 524.296875 83.140625 524.296875 C 77.621094 524.296875 73.140625 519.816406 73.140625 514.296875 C 73.140625 508.773438 77.621094 504.296875 83.140625 504.296875 C 88.664062 504.296875 93.140625 508.773438 93.140625 514.296875 "/>
<path fill-rule="nonzero" fill="rgb(100%, 0%, 0%)" fill-opacity="1" stroke-width="1" stroke-linecap="butt" stroke-linejoin="miter" stroke="rgb(0%, 0%, 0%)" stroke-opacity="1" stroke-miterlimit="10" d="M 91.683594 580 C 91.683594 585.523438 87.207031 590 81.683594 590 C 76.160156 590 71.683594 585.523438 71.683594 580 C 71.683594 574.476562 76.160156 570 81.683594 570 C 87.207031 570 91.683594 574.476562 91.683594 580 "/>
<path fill-rule="nonzero" fill="rgb(100%, 0%, 0%)" fill-opacity="1" stroke-width="1" stroke-linecap="butt" stroke-linejoin="miter" stroke="rgb(0%, 0%, 0%)" stroke-opacity="1" stroke-miterlimit="10" d="M 478.679688 349.492188 C 478.679688 355.015625 474.203125 359.492188 468.679688 359.492188 C 463.15625 359.492188 458.679688 355.015625 458.679688 349.492188 C 458.679688 343.96875 463.15625 339.492188 468.679688 339.492188 C 474.203125 339.492188 478.679688 343.96875 478.679688 349.492188 "/>
<path fill-rule="nonzero" fill="rgb(100%, 0%, 0%)" fill-opacity="1" stroke-width="1" stroke-linecap="butt" stroke-linejoin="miter" stroke="rgb(0%, 0%, 0%)" stroke-opacity="1" stroke-miterlimit="10" d="M 329.992188 382.15625 C 329.992188 387.679688 325.515625 392.15625 319.992188 392.15625 C 314.46875 392.15625 309.992188 387.679688 309.992188 382.15625 C 309.992188 376.632812 314.46875 372.15625 319.992188 372.15625 C 325.515625 372.15625 329.992188 376.632812 329.992188 382.15625 "/>
<path fill-rule="nonzero" fill="rgb(100%, 0%, 0%)" fill-opacity="1" stroke-width="1" stroke-linecap="butt" stroke-linejoin="miter" stroke="rgb(0%, 0%, 0%)" stroke-opacity="1" stroke-miterlimit="10" d="M 278.335938 397.867188 C 278.335938 403.390625 273.859375 407.867188 268.335938 407.867188 C 262.8125 407.867188 258.335938 403.390625 258.335938 397.867188 C 258.335938 392.34375 262.8125 387.867188 268.335938 387.867188 C 273.859375 387.867188 278.335938 392.34375 278.335938 397.867188 "/>
<path fill-rule="nonzero" fill="rgb(100%, 0%, 0%)" fill-opacity="1" stroke-width="1" stroke-linecap="butt" stroke-linejoin="miter" stroke="rgb(0%, 0%, 0%)" stroke-opacity="1" stroke-miterlimit="10" d="M 147.292969 469.789062 C 147.292969 475.3125 142.816406 479.789062 137.292969 479.789062 C 131.769531 479.789062 127.292969 475.3125 127.292969 469.789062 C 127.292969 464.265625 131.769531 459.789062 137.292969 459.789062 C 142.816406 459.789062 147.292969 464.265625 147.292969 469.789062 "/>
<path fill-rule="nonzero" fill="rgb(100%, 0%, 0%)" fill-opacity="1" stroke-width="1" stroke-linecap="butt" stroke-linejoin="miter" stroke="rgb(0%, 0%, 0%)" stroke-opacity="1" stroke-miterlimit="10" d="M 93.21875 397.496094 C 93.21875 403.019531 88.742188 407.496094 83.21875 407.496094 C 77.695312 407.496094 73.21875 403.019531 73.21875 397.496094 C 73.21875 391.976562 77.695312 387.496094 83.21875 387.496094 C 88.742188 387.496094 93.21875 391.976562 93.21875 397.496094 "/>
<path fill-rule="nonzero" fill="rgb(100%, 0%, 0%)" fill-opacity="1" stroke-width="1" stroke-linecap="butt" stroke-linejoin="miter" stroke="rgb(0%, 0%, 0%)" stroke-opacity="1" stroke-miterlimit="10" d="M 132.257812 428.25 C 132.257812 433.769531 127.78125 438.25 122.257812 438.25 C 116.734375 438.25 112.257812 433.769531 112.257812 428.25 C 112.257812 422.726562 116.734375 418.25 122.257812 418.25 C 127.78125 418.25 132.257812 422.726562 132.257812 428.25 "/>
<path fill-rule="nonzero" fill="rgb(100%, 0%, 0%)" fill-opacity="1" stroke-width="1" stroke-linecap="butt" stroke-linejoin="miter" stroke="rgb(0%, 0%, 0%)" stroke-opacity="1" stroke-miterlimit="10" d="M 361.0625 321.113281 C 361.0625 326.636719 356.582031 331.113281 351.0625 331.113281 C 345.539062 331.113281 341.0625 326.636719 341.0625 321.113281 C 341.0625 315.589844 345.539062 311.113281 351.0625 311.113281 C 356.582031 311.113281 361.0625 315.589844 361.0625 321.113281 "/>
<path fill-rule="nonzero" fill="rgb(100%, 0%, 0%)" fill-opacity="1" stroke-width="1" stroke-linecap="butt" stroke-linejoin="miter" stroke="rgb(0%, 0%, 0%)" stroke-opacity="1" stroke-miterlimit="10" d="M 280.96875 262.199219 C 280.96875 267.722656 276.492188 272.199219 270.96875 272.199219 C 265.449219 272.199219 260.96875 267.722656 260.96875 262.199219 C 260.96875 256.675781 265.449219 252.199219 270.96875 252.199219 C 276.492188 252.199219 280.96875 256.675781 280.96875 262.199219 "/>
<path fill-rule="nonzero" fill="rgb(100%, 0%, 0%)" fill-opacity="1" stroke-width="1" stroke-linecap="butt" stroke-linejoin="miter" stroke="rgb(0%, 0%, 0%)" stroke-opacity="1" stroke-miterlimit="10" d="M 259.515625 370.113281 C 259.515625 375.636719 255.039062 380.113281 249.515625 380.113281 C 243.996094 380.113281 239.515625 375.636719 239.515625 370.113281 C 239.515625 364.589844 243.996094 360.113281 249.515625 360.113281 C 255.039062 360.113281 259.515625 364.589844 259.515625 370.113281 "/>
<path fill-rule="nonzero" fill="rgb(100%, 0%, 0%)" fill-opacity="1" stroke-width="1" stroke-linecap="butt" stroke-linejoin="miter" stroke="rgb(0%, 0%, 0%)" stroke-opacity="1" stroke-miterlimit="10" d="M 30 527.675781 C 30 533.199219 25.523438 537.675781 20 537.675781 C 14.476562 537.675781 10 533.199219 10 527.675781 C 10 522.15625 14.476562 517.675781 20 517.675781 C 25.523438 517.675781 30 522.15625 30 527.675781 "/>
<path fill-rule="nonzero" fill="rgb(100%, 0%, 0%)" fill-opacity="1" stroke-width="1" stroke-linecap="butt" stroke-linejoin="miter" stroke="rgb(0%, 0%, 0%)" stroke-opacity="1" stroke-miterlimit="10" d="M 458.890625 253.792969 C 458.890625 259.316406 454.414062 263.792969 448.890625 263.792969 C 443.367188 263.792969 438.890625 259.316406 438.890625 253.792969 C 438.890625 248.269531 443.367188 243.792969 448.890625 243.792969 C 454.414062 243.792969 458.890625 248.269531 458.890625 253.792969 "/>
<path fill-rule="nonzero" fill="rgb(100%, 0%, 0%)" fill-opacity="1" stroke-width="1" stroke-linecap="butt" stroke-linejoin="miter" stroke="rgb(0%, 0%, 0%)" stroke-opacity="1" stroke-miterlimit="10" d="M 99.535156 258.609375 C 99.535156 264.132812 95.058594 268.609375 89.535156 268.609375 C 84.011719 268.609375 79.535156 264.132812 79.535156 258.609375 C 79.535156 253.085938 84.011719 248.609375 89.535156 248.609375 C 95.058594 248.609375 99.535156 253.085938 99.535156 258.609375 "/>
<path fill-rule="nonzero" fill="rgb(100%, 0%, 0%)" fill-opacity="1" stroke-width="1" stroke-linecap="butt" stroke-linejoin="miter" stroke="rgb(0%, 0%, 0%)" stroke-opacity="1" stroke-miterlimit="10" d="M 261.167969 288.101562 C 261.167969 293.625 256.691406 298.101562 251.167969 298.101562 C 245.644531 298.101562 241.167969 293.625 241.167969 288.101562 C 241.167969 282.578125 245.644531 278.101562 251.167969 278.101562 C 256.691406 278.101562 261.167969 282.578125 261.167969 288.101562 "/>
<path fill-rule="nonzero" fill="rgb(100%, 0%, 0%)" fill-opacity="1" stroke-width="1" stroke-linecap="butt" stroke-linejoin="miter" stroke="rgb(0%, 0%, 0%)" stroke-opacity="1" stroke-miterlimit="10" d="M 307.28125 401.960938 C 307.28125 407.484375 302.804688 411.960938 297.28125 411.960938 C 291.757812 411.960938 287.28125 407.484375 287.28125 401.960938 C 287.28125 396.441406 291.757812 391.960938 297.28125 391.960938 C 302.804688 391.960938 307.28125 396.441406 307.28125 401.960938 "/>
<path fill-rule="nonzero" fill="rgb(100%, 0%, 0%)" fill-opacity="1" stroke-width="1" stroke-linecap="butt" stroke-linejoin="miter" stroke="rgb(0%, 0%, 0%)" stroke-opacity="1" stroke-miterlimit="10" d="M 95.492188 362.738281 C 95.492188 368.261719 91.015625 372.738281 85.492188 372.738281 C 79.96875 372.738281 75.492188 368.261719 75.492188 362.738281 C 75.492188 357.214844 79.96875 352.738281 85.492188 352.738281 C 91.015625 352.738281 95.492188 357.214844 95.492188 362.738281 "/>
<path fill-rule="nonzero" fill="rgb(100%, 0%, 0%)" fill-opacity="1" stroke-width="1" stroke-linecap="butt" stroke-linejoin="miter" stroke="rgb(0%, 0%, 0%)" stroke-opacity="1" stroke-miterlimit="10" d="M 123.078125 222.996094 C 123.078125 228.519531 118.597656 232.996094 113.078125 232.996094 C 107.554688 232.996094 103.078125 228.519531 103.078125 222.996094 C 103.078125 217.472656 107.554688 212.996094 113.078125 212.996094 C 118.597656 212.996094 123.078125 217.472656 123.078125 222.996094 "/>
<path fill-rule="nonzero" fill="rgb(100%, 0%, 0%)" fill-opacity="1" stroke-width="1" stroke-linecap="butt" stroke-linejoin="miter" stroke="rgb(0%, 0%, 0%)" stroke-opacity="1" stroke-miterlimit="10" d="M 166.671875 185.269531 C 166.671875 190.792969 162.195312 195.269531 156.671875 195.269531 C 151.148438 195.269531 146.671875 190.792969 146.671875 185.269531 C 146.671875 179.746094 151.148438 175.269531 156.671875 175.269531 C 162.195312 175.269531 166.671875 179.746094 166.671875 185.269531 "/>
<path fill-rule="nonzero" fill="rgb(100%, 0%, 0%)" fill-opacity="1" stroke-width="1" stroke-linecap="butt" stroke-linejoin="miter" stroke="rgb(0%, 0%, 0%)" stroke-opacity="1" stroke-miterlimit="10" d="M 111.574219 71.636719 C 111.574219 77.160156 107.097656 81.636719 101.574219 81.636719 C 96.050781 81.636719 91.574219 77.160156 91.574219 71.636719 C 91.574219 66.113281 96.050781 61.636719 101.574219 61.636719 C 107.097656 61.636719 111.574219 66.113281 111.574219 71.636719 "/>
<path fill-rule="nonzero" fill="rgb(100%, 0%, 0%)" fill-opacity="1" stroke-width="1" stroke-linecap="butt" stroke-linejoin="miter" stroke="rgb(0%, 0%, 0%)" stroke-opacity="1" stroke-miterlimit="10" d="M 82.328125 20 C 82.328125 25.523438 77.851562 30 72.328125 30 C 66.804688 30 62.328125 25.523438 62.328125 20 C 62.328125 14.476562 66.804688 10 72.328125 10 C 77.851562 10 82.328125 14.476562 82.328125 20 "/>
<path fill-rule="nonzero" fill="rgb(100%, 0%, 0%)" fill-opacity="1" stroke-width="1" stroke-linecap="butt" stroke-linejoin="miter" stroke="rgb(0%, 0%, 0%)" stroke-opacity="1" stroke-miterlimit="10" d="M 311.15625 263.464844 C 311.15625 268.988281 306.679688 273.464844 301.15625 273.464844 C 295.632812 273.464844 291.15625 268.988281 291.15625 263.464844 C 291.15625 257.941406 295.632812 253.464844 301.15625 253.464844 C 306.679688 253.464844 311.15625 257.941406 311.15625 263.464844 "/>
<path fill-rule="nonzero" fill="rgb(100%, 0%, 0%)" fill-opacity="1" stroke-width="1" stroke-linecap="butt" stroke-linejoin="miter" stroke="rgb(0%, 0%, 0%)" stroke-opacity="1" stroke-miterlimit="10" d="M 140.867188 125.257812 C 140.867188 130.78125 136.390625 135.257812 130.867188 135.257812 C 125.34375 135.257812 120.867188 130.78125 120.867188 125.257812 C 120.867188 119.734375 125.34375 115.257812 130.867188 115.257812 C 136.390625 115.257812 140.867188 119.734375 140.867188 125.257812 "/>
<path fill-rule="nonzero" fill="rgb(100%, 0%, 0%)" fill-opacity="1" stroke-width="1" stroke-linecap="butt" stroke-linejoin="miter" stroke="rgb(0%, 0%, 0%)" stroke-opacity="1" stroke-miterlimit="10" d="M 166.738281 315.613281 C 166.738281 321.136719 162.261719 325.613281 156.738281 325.613281 C 151.214844 325.613281 146.738281 321.136719 146.738281 315.613281 C 146.738281 310.089844 151.214844 305.613281 156.738281 305.613281 C 162.261719 305.613281 166.738281 310.089844 166.738281 315.613281 "/>
<path fill-rule="nonzero" fill="rgb(100%, 0%, 0%)" fill-opacity="1" stroke-width="1" stroke-linecap="butt" stroke-linejoin="miter" stroke="rgb(0%, 0%, 0%)" stroke-opacity="1" stroke-miterlimit="10" d="M 323.632812 291.882812 C 323.632812 297.40625 319.152344 301.882812 313.632812 301.882812 C 308.109375 301.882812 303.632812 297.40625 303.632812 291.882812 C 303.632812 286.359375 308.109375 281.882812 313.632812 281.882812 C 319.152344 281.882812 323.632812 286.359375 323.632812 291.882812 "/>
<path fill-rule="nonzero" fill="rgb(100%, 0%, 0%)" fill-opacity="1" stroke-width="1" stroke-linecap="butt" stroke-linejoin="miter" stroke="rgb(0%, 0%, 0%)" stroke-opacity="1" stroke-miterlimit="10" d="M 329.152344 348.046875 C 329.152344 353.570312 324.675781 358.046875 319.152344 358.046875 C 313.632812 358.046875 309.152344 353.570312 309.152344 348.046875 C 309.152344 342.523438 313.632812 338.046875 319.152344 338.046875 C 324.675781 338.046875 329.152344 342.523438 329.152344 348.046875 "/>
<path fill-rule="nonzero" fill="rgb(100%, 0%, 0%)" fill-opacity="1" stroke-width="1" stroke-linecap="butt" stroke-linejoin="miter" stroke="rgb(0%, 0%, 0%)" stroke-opacity="1" stroke-miterlimit="10" d="M 206.367188 330.160156 C 206.367188 335.683594 201.890625 340.160156 196.367188 340.160156 C 190.84375 340.160156 186.367188 335.683594 186.367188 330.160156 C 186.367188 324.636719 190.84375 320.160156 196.367188 320.160156 C 201.890625 320.160156 206.367188 324.636719 206.367188 330.160156 "/>
<path fill-rule="nonzero" fill="rgb(100%, 0%, 0%)" fill-opacity="1" stroke-width="1" stroke-linecap="butt" stroke-linejoin="miter" stroke="rgb(0%, 0%, 0%)" stroke-opacity="1" stroke-miterlimit="10" d="M 168.292969 257.882812 C 168.292969 263.40625 163.8125 267.882812 158.292969 267.882812 C 152.769531 267.882812 148.292969 263.40625 148.292969 257.882812 C 148.292969 252.359375 152.769531 247.882812 158.292969 247.882812 C 163.8125 247.882812 168.292969 252.359375 168.292969 257.882812 "/>
<path fill-rule="nonzero" fill="rgb(100%, 0%, 0%)" fill-opacity="1" stroke-width="1" stroke-linecap="butt" stroke-linejoin="miter" stroke="rgb(0%, 0%, 0%)" stroke-opacity="1" stroke-miterlimit="10" d="M 284.332031 331.175781 C 284.332031 336.699219 279.855469 341.175781 274.332031 341.175781 C 268.808594 341.175781 264.332031 336.699219 264.332031 331.175781 C 264.332031 325.652344 268.808594 321.175781 274.332031 321.175781 C 279.855469 321.175781 284.332031 325.652344 284.332031 331.175781 "/>
</svg>