<?xml version="1.0" encoding="UTF-8"?>
<svg xmlns="http://www.w3.org/2000/svg" xmlns:xlink="http://www.w3.org/1999/xlink" width="600" height="600" viewBox="0 0 600 600">
<rect x="-60" y="-60" width="720" height="720" fill="rgb(100%, 100%, 100%)" fill-opacity="1"/>
<path fill="none" stroke-width="1" stroke-linecap="butt" stroke-linejoin="miter" stroke="rgb(26.666667%, 26.666667%, 26.666667%)" stroke-opacity="1" stroke-miterlimit="10" d="M 221.273438 464.808594 L 276.894531 401.746094 "/>
<path fill="none" stroke-width="2" stroke-linecap="butt" stroke-linejoin="miter" stroke="rgb(26.666667%, 26.666667%, 26.666667%)" stroke-opacity="1" stroke-miterlimit="10" d="M 221.273438 464.808594 L 282.113281 523.625 "/>
<path fill="none" stroke-width="6" stroke-linecap="butt" stroke-linejoin="miter" stroke="rgb(26.666667%, 26.666667%, 26.666667%)" stroke-opacity="1" stroke-miterlimit="10" d="M 221.273438 464.808594 L 146.640625 517.21875 "/>
<path fill="none" stroke-width="4" stroke-linecap="butt" stroke-linejoin="miter" stroke="rgb(26.666667%, 26.666667%, 26.666667%)" stroke-opacity="1" stroke-miterlimit="10" d="M 221.273438 464.808594 L 290.910156 480.667969 "/>
<path fill="none" stroke-width="5" stroke-linecap="butt" stroke-linejoin="miter" stroke="rgb(26.666667%, 26.666667%, 26.666667%)" stroke-opacity="1" stroke-miterlimit="10" d="M 221.273438 464.808594 L 225.175781 519.046875 "/>
<path fill="none" stroke-width="7" stroke-linecap="butt" stroke-linejoin="miter" stroke="rgb(26.666667%, 26.666667%, 26.666667%)" stroke-opacity="1" stroke-miterlimit="10" d="M 221.273438 464.808594 L 150.320312 474.890625 "/>
<path fill="none" stroke-width="8" stroke-linecap="butt" stroke-linejoin="miter" stroke="rgb(26.666667%, 26.666667%, 26.666667%)" stroke-opacity="1" stroke-miterlimit="10" d="M 221.273438 464.808594 L 130.722656 441.480469 "/>
<path fill="none" stroke-width="1" stroke-linecap="butt" stroke-linejoin="miter" stroke="rgb(26.666667%, 26.666667%, 26.666667%)" stroke-opacity="1" stroke-miterlimit="10" d="M 221.273438 464.808594 L 177.894531 425.753906 "/>
<path fill="none" stroke-width="3" stroke-linecap="butt" stroke-linejoin="miter" stroke="rgb(26.666667%, 26.666667%, 26.666667%)" stroke-opacity="1" stroke-miterlimit="10" d="M 366.320312 423.148438 L 276.894531 401.746094 "/>
<path fill="none" stroke-width="6" stroke-linecap="butt" stroke-linejoin="miter" stroke="rgb(26.666667%, 26.666667%, 26.666667%)" stroke-opacity="1" stroke-miterlimit="10" d="M 366.320312 423.148438 L 444.351562 457.714844 "/>
<path fill="none" stroke-width="1" stroke-linecap="butt" stroke-linejoin="miter" stroke="rgb(26.666667%, 26.666667%, 26.666667%)" stroke-opacity="1" stroke-miterlimit="10" d="M 274.21875 259.617188 L 346.199219 209.410156 "/>
<path fill="none" stroke-width="2" stroke-linecap="butt" stroke-linejoin="miter" stroke="rgb(26.666667%, 26.666667%, 26.666667%)" stroke-opacity="1" stroke-miterlimit="10" d="M 274.21875 259.617188 L 184.546875 231.628906 "/>
<path fill="none" stroke-width="1" stroke-linecap="butt" stroke-linejoin="miter" stroke="rgb(26.666667%, 26.666667%, 26.666667%)" stroke-opacity="1" stroke-miterlimit="10" d="M 274.21875 259.617188 L 274.941406 330.90625 "/>
<path fill="none" stroke-width="3" stroke-linecap="butt" stroke-linejoin="miter" stroke="rgb(26.666667%, 26.666667%, 26.666667%)" stroke-opacity="1" stroke-miterlimit="10" d="M 276.894531 401.746094 L 274.941406 330.90625 "/>
<path fill="none" stroke-width="7" stroke-linecap="butt" stroke-linejoin="miter" stroke="rgb(26.666667%, 26.666667%, 26.666667%)" stroke-opacity="1" stroke-miterlimit="10" d="M 282.113281 523.625 L 323.320312 580 "/>
<path fill="none" stroke-width="5" stroke-linecap="butt" stroke-linejoin="miter" stroke="rgb(26.666667%, 26.666667%, 26.666667%)" stroke-opacity="1" stroke-miterlimit="10" d="M 146.640625 517.21875 L 130.480469 579.101562 "/>
<path fill="none" stroke-width="3" stroke-linecap="butt" stroke-linejoin="miter" stroke="rgb(26.666667%, 26.666667%, 26.666667%)" stroke-opacity="1" stroke-miterlimit="10" d="M 146.640625 517.21875 L 56.824219 525.652344 "/>
<path fill="none" stroke-width="3" stroke-linecap="butt" stroke-linejoin="miter" stroke="rgb(26.666667%, 26.666667%, 26.666667%)" stroke-opacity="1" stroke-miterlimit="10" d="M 455.644531 239.722656 L 444.972656 189.789062 "/>
<path fill="none" stroke-width="2" stroke-linecap="butt" stroke-linejoin="miter" stroke="rgb(26.666667%, 26.666667%, 26.666667%)" stroke-opacity="1" stroke-miterlimit="10" d="M 535.460938 212.496094 L 444.972656 189.789062 "/>
<path fill="none" stroke-width="1" stroke-linecap="butt" stroke-linejoin="miter" stroke="rgb(26.666667%, 26.666667%, 26.666667%)" stroke-opacity="1" stroke-miterlimit="10" d="M 112.214844 254.796875 L 184.546875 231.628906 "/>
<path fill="none" stroke-width="2" stroke-linecap="butt" stroke-linejoin="miter" stroke="rgb(26.666667%, 26.666667%, 26.666667%)" stroke-opacity="1" stroke-miterlimit="10" d="M 521.449219 178.09375 L 444.972656 189.789062 "/>
<path fill="none" stroke-width="9" stroke-linecap="butt" stroke-linejoin="miter" stroke="rgb(26.666667%, 26.666667%, 26.666667%)" stroke-opacity="1" stroke-miterlimit="10" d="M 505.84375 240.601562 L 444.972656 189.789062 "/>
<path fill="none" stroke-width="7" stroke-linecap="butt" stroke-linejoin="miter" stroke="rgb(26.666667%, 26.666667%, 26.666667%)" stroke-opacity="1" stroke-miterlimit="10" d="M 159.132812 175.421875 L 184.546875 231.628906 "/>
<path fill="none" stroke-width="1" stroke-linecap="butt" stroke-linejoin="miter" stroke="rgb(26.666667%, 26.666667%, 26.666667%)" stroke-opacity="1" stroke-miterlimit="10" d="M 410.058594 141.097656 L 444.972656 189.789062 "/>
<path fill="none" stroke-width="2" stroke-linecap="butt" stroke-linejoin="miter" stroke="rgb(26.666667%, 26.666667%, 26.666667%)" stroke-opacity="1" stroke-miterlimit="10" d="M 96.140625 201.40625 L 20 171.980469 "/>
<path fill="none" stroke-width="1" stroke-linecap="butt" stroke-linejoin="miter" stroke="rgb(26.666667%, 26.666667%, 26.666667%)" stroke-opacity="1" stroke-miterlimit="10" d="M 96.140625 201.40625 L 184.546875 231.628906 "/>
<path fill="none" stroke-width="5" stroke-linecap="butt" stroke-linejoin="miter" stroke="rgb(26.666667%, 26.666667%, 26.666667%)" stroke-opacity="1" stroke-miterlimit="10" d="M 255.953125 20 L 277.261719 80.691406 "/>
<path fill="none" stroke-width="5" stroke-linecap="butt" stroke-linejoin="miter" stroke="rgb(26.666667%, 26.666667%, 26.666667%)" stroke-opacity="1" stroke-miterlimit="10" d="M 277.261719 80.691406 L 304.03125 146.277344 "/>
<path fill="none" stroke-width="1" stroke-linecap="butt" stroke-linejoin="miter" stroke="rgb(26.666667%, 26.666667%, 26.666667%)" stroke-opacity="1" stroke-miterlimit="10" d="M 580 100.429688 L 511.210938 136.988281 "/>
<path fill="none" stroke-width="2" stroke-linecap="butt" stroke-linejoin="miter" stroke="rgb(26.666667%, 26.666667%, 26.666667%)" stroke-opacity="1" stroke-miterlimit="10" d="M 346.199219 209.410156 L 304.03125 146.277344 "/>
<path fill="none" stroke-width="2" stroke-linecap="butt" stroke-linejoin="miter" stroke="rgb(26.666667%, 26.666667%, 26.666667%)" stroke-opacity="1" stroke-miterlimit="10" d="M 346.199219 209.410156 L 444.972656 189.789062 "/>
<path fill="none" stroke-width="1" stroke-linecap="butt" stroke-linejoin="miter" stroke="rgb(26.666667%, 26.666667%, 26.666667%)" stroke-opacity="1" stroke-miterlimit="10" d="M 511.210938 136.988281 L 444.972656 189.789062 "/>
<path fill="none" stroke-width="2" stroke-linecap="butt" stroke-linejoin="miter" stroke="rgb(26.666667%, 26.666667%, 26.666667%)" stroke-opacity="1" stroke-miterlimit="10" d="M 450.660156 125.433594 L 444.972656 189.789062 "/>
<path fill-rule="nonzero" fill="rgb(100%, 0%, 0%)" fill-opacity="1" stroke-width="1" stroke-linecap="butt" stroke-linejoin="miter" stroke="rgb(0%, 0%, 0%)" stroke-opacity="1" stroke-miterlimit="10" d="M 231.273438 464.808594 C 231.273438 470.332031 226.796875 474.808594 221.273438 474.808594 C 215.75 474.808594 211.273438 470.332031 211.273438 464.808594 C 211.273438 459.285156 215.75 454.808594 221.273438 454.808594 C 226.796875 454.808594 231.273438 459.285156 231.273438 464.808594 "/>
<path fill-rule="nonzero" fill="rgb(100%, 0%, 0%)" fill-opacity="1" stroke-width="1" stroke-linecap="butt" stroke-linejoin="miter" stroke="rgb(0%, 0%, 0%)" stroke-opacity="1" stroke-miterlimit="10" d="M 376.320312 423.148438 C 376.320312 428.671875 371.839844 433.148438 366.320312 433.148438 C 360.796875 433.148438 356.320312 428.671875 356.320312 423.148438 C 356.320312 417.625 360.796875 413.148438 366.320312 413.148438 C 371.839844 413.148438 376.320312 417.625 376.320312 423.148438 "/>
<path fill-rule="nonzero" fill="rgb(100%, 0%, 0%)" fill-opacity="1" stroke-width="1" stroke-linecap="butt" stroke-linejoin="miter" stroke="rgb(0%, 0%, 0%)" stroke-opacity="1" stroke-miterlimit="10" d="M 284.21875 259.617188 C 284.21875 265.140625 279.742188 269.617188 274.21875 269.617188 C 268.699219 269.617188 264.21875 265.140625 264.21875 259.617188 C 264.21875 254.09375 268.699219 249.617188 274.21875 249.617188 C 279.742188 249.617188 284.21875 254.09375 284.21875 259.617188 "/>
<path fill-rule="nonzero" fill="rgb(100%, 0%, 0%)" fill-opacity="1" stroke-width="1" stroke-linecap="butt" stroke-linejoin="miter" stroke="rgb(0%, 0%, 0%)" stroke-opacity="1" stroke-miterlimit="10" d="M 286.894531 401.746094 C 286.894531 407.269531 282.417969 411.746094 276.894531 411.746094 C 271.371094 411.746094 266.894531 407.269531 266.894531 401.746094 C 266.894531 396.222656 271.371094 391.746094 276.894531 391.746094 C 282.417969 391.746094 286.894531 396.222656 286.894531 401.746094 "/>
<path fill-rule="nonzero" fill="rgb(100%, 0%, 0%)" fill-opacity="1" stroke-width="1" stroke-linecap="butt" stroke-linejoin="miter" stroke="rgb(0%, 0%, 0%)" stroke-opacity="1" stroke-miterlimit="10" d="M 292.113281 523.625 C 292.113281 529.148438 287.636719 533.625 282.113281 533.625 C 276.589844 533.625 272.113281 529.148438 272.113281 523.625 C 272.113281 518.101562 276.589844 513.625 282.113281 513.625 C 287.636719 513.625 292.113281 518.101562 292.113281 523.625 "/>
<path fill-rule="nonzero" fill="rgb(100%, 0%, 0%)" fill-opacity="1" stroke-width="1" stroke-linecap="butt" stroke-linejoin="miter" stroke="rgb(0%, 0%, 0%)" stroke-opacity="1" stroke-miterlimit="10" d="M 156.640625 517.21875 C 156.640625 522.742188 152.164062 527.21875 146.640625 527.21875 C 141.117188 527.21875 136.640625 522.742188 136.640625 517.21875 C 136.640625 511.695312 141.117188 507.21875 146.640625 507.21875 C 152.164062 507.21875 156.640625 511.695312 156.640625 517.21875 "/>
<path fill-rule="nonzero" fill="rgb(100%, 0%, 0%)" fill-opacity="1" stroke-width="1" stroke-linecap="butt" stroke-linejoin="miter" stroke="rgb(0%, 0%, 0%)" stroke-opacity="1" stroke-miterlimit="10" d="M 333.320312 580 C 333.320312 585.523438 328.84375 590 323.320312 590 C 317.796875 590 313.320312 585.523438 313.320312 580 C 313.320312 574.476562 317.796875 570 323.320312 570 C 328.84375 570 333.320312 574.476562 333.320312 580 "/>
<path fill-rule="nonzero" fill="rgb(100%, 0%, 0%)" fill-opacity="1" stroke-width="1" stroke-linecap="butt" stroke-linejoin="miter" stroke="rgb(0%, 0%, 0%)" stroke-opacity="1" stroke-miterlimit="10" d="M 454.351562 457.714844 C 454.351562 463.238281 449.871094 467.714844 444.351562 467.714844 C 438.828125 467.714844 434.351562 463.238281 434.351562 457.714844 C 434.351562 452.191406 438.828125 447.714844 444.351562 447.714844 C 449.871094 447.714844 454.351562 452.191406 454.351562 457.714844 "/>
<path fill-rule="nonzero" fill="rgb(100%, 0%, 0%)" fill-opacity="1" stroke-width="1" stroke-linecap="butt" stroke-linejoin="miter" stroke="rgb(0%, 0%, 0%)" stroke-opacity="1" stroke-miterlimit="10" d="M 465.644531 239.722656 C 465.644531 245.246094 461.167969 249.722656 455.644531 249.722656 C 450.121094 249.722656 445.644531 245.246094 445.644531 239.722656 C 445.644531 234.199219 450.121094 229.722656 455.644531 229.722656 C 461.167969 229.722656 465.644531 234.199219 465.644531 239.722656 "/>
<path fill-rule="nonzero" fill="rgb(100%, 0%, 0%)" fill-opacity="1" stroke-width="1" stroke-linecap="butt" stroke-linejoin="miter" stroke="rgb(0%, 0%, 0%)" stroke-opacity="1" stroke-miterlimit="10" d="M 545.460938 212.496094 C 545.460938 218.019531 540.984375 222.496094 535.460938 222.496094 C 529.9375 222.496094 525.460938 218.019531 525.460938 212.496094 C 525.460938 206.972656 529.9375 202.496094 535.460938 202.496094 C 540.984375 202.496094 545.460938 206.972656 545.460938 212.496094 "/>
<path fill-rule="nonzero" fill="rgb(100%, 0%, 0%)" fill-opacity="1" stroke-width="1" stroke-linecap="butt" stroke-linejoin="miter" stroke="rgb(0%, 0%, 0%)" stroke-opacity="1" stroke-miterlimit="10" d="M 140.480469 579.101562 C 140.480469 584.625 136.003906 589.101562 130.480469 589.101562 C 124.960938 589.101562 120.480469 584.625 120.480469 579.101562 C 120.480469 573.582031 124.960938 569.101562 130.480469 569.101562 C 136.003906 569.101562 140.480469 573.582031 140.480469 579.101562 "/>
<path fill-rule="nonzero" fill="rgb(100%, 0%, 0%)" fill-opacity="1" stroke-width="1" stroke-linecap="butt" stroke-linejoin="miter" stroke="rgb(0%, 0%, 0%)" stroke-opacity="1" stroke-miterlimit="10" d="M 300.910156 480.667969 C 300.910156 486.191406 296.433594 490.667969 290.910156 490.667969 C 285.390625 490.667969 280.910156 486.191406 280.910156 480.667969 C 280.910156 475.144531 285.390625 470.667969 290.910156 470.667969 C 296.433594 470.667969 300.910156 475.144531 300.910156 480.667969 "/>
<path fill-rule="nonzero" fill="rgb(100%, 0%, 0%)" fill-opacity="1" stroke-width="1" stroke-linecap="butt" stroke-linejoin="miter" stroke="rgb(0%, 0%, 0%)" stroke-opacity="1" stroke-miterlimit="10" d="M 235.175781 519.046875 C 235.175781 524.566406 230.699219 529.046875 225.175781 529.046875 C 219.652344 529.046875 215.175781 524.566406 215.175781 519.046875 C 215.175781 513.523438 219.652344 509.046875 225.175781 509.046875 C 230.699219 509.046875 235.175781 513.523438 235.175781 519.046875 "/>
<path fill-rule="nonzero" fill="rgb(100%, 0%, 0%)" fill-opacity="1" stroke-width="1" stroke-linecap="butt" stroke-linejoin="miter" stroke="rgb(0%, 0%, 0%)" stroke-opacity="1" stroke-miterlimit="10" d="M 284.941406 330.90625 C 284.941406 336.425781 280.464844 340.90625 274.941406 340.90625 C 269.417969 340.90625 264.941406 336.425781 264.941406 330.90625 C 264.941406 325.382812 269.417969 320.90625 274.941406 320.90625 C 280.464844 320.90625 284.941406 325.382812 284.941406 330.90625 "/>
<path fill-rule="nonzero" fill="rgb(100%, 0%, 0%)" fill-opacity="1" stroke-width="1" stroke-linecap="butt" stroke-linejoin="miter" stroke="rgb(0%, 0%, 0%)" stroke-opacity="1" stroke-miterlimit="10" d="M 122.214844 254.796875 C 122.214844 260.316406 117.738281 264.796875 112.214844 264.796875 C 106.691406 264.796875 102.214844 260.316406 102.214844 254.796875 C 102.214844 249.273438 106.691406 244.796875 112.214844 244.796875 C 117.738281 244.796875 122.214844 249.273438 122.214844 254.796875 "/>
<path fill-rule="nonzero" fill="rgb(100%, 0%, 0%)" fill-opacity="1" stroke-width="1" stroke-linecap="butt" stroke-linejoin="miter" stroke="rgb(0%, 0%, 0%)" stroke-opacity="1" stroke-miterlimit="10" d="M 531.449219 178.09375 C 531.449219 183.617188 526.972656 188.09375 521.449219 188.09375 C 515.925781 188.09375 511.449219 183.617188 511.449219 178.09375 C 511.449219 172.570312 515.925781 168.09375 521.449219 168.09375 C 526.972656 168.09375 531.449219 172.570312 531.449219 178.09375 "/>
<path fill-rule="nonzero" fill="rgb(100%, 0%, 0%)" fill-opacity="1" stroke-width="1" stroke-linecap="butt" stroke-linejoin="miter" stroke="rgb(0%, 0%, 0%)" stroke-opacity="1" stroke-miterlimit="10" d="M 66.824219 525.652344 C 66.824219 531.175781 62.347656 535.652344 56.824219 535.652344 C 51.300781 535.652344 46.824219 531.175781 46.824219 525.652344 C 46.824219 520.128906 51.300781 515.652344 56.824219 515.652344 C 62.347656 515.652344 66.824219 520.128906 66.824219 525.652344 "/>
<path fill-rule="nonzero" fill="rgb(100%, 0%, 0%)" fill-opacity="1" stroke-width="1" stroke-linecap="butt" stroke-linejoin="miter" stroke="rgb(0%, 0%, 0%)" stroke-opacity="1" stroke-miterlimit="10" d="M 160.320312 474.890625 C 160.320312 480.414062 155.84375 484.890625 150.320312 484.890625 C 144.796875 484.890625 140.320312 480.414062 140.320312 474.890625 C 140.320312 469.367188 144.796875 464.890625 150.320312 464.890625 C 155.84375 464.890625 160.320312 469.367188 160.320312 474.890625 "/>
<path fill-rule="nonzero" fill="rgb(100%, 0%, 0%)" fill-opacity="1" stroke-width="1" stroke-linecap="butt" stroke-linejoin="miter" stroke="rgb(0%, 0%, 0%)" stroke-opacity="1" stroke-miterlimit="10" d="M 515.84375 240.601562 C 515.84375 246.125 511.367188 250.601562 505.84375 250.601562 C 500.320312 250.601562 495.84375 246.125 495.84375 240.601562 C 495.84375 235.078125 500.320312 230.601562 505.84375 230.601562 C 511.367188 230.601562 515.84375 235.078125 515.84375 240.601562 "/>
<path fill-rule="nonzero" fill="rgb(100%, 0%, 0%)" fill-opacity="1" stroke-width="1" stroke-linecap="butt" stroke-linejoin="miter" stroke="rgb(0%, 0%, 0%)" stroke-opacity="1" stroke-miterlimit="10" d="M 140.722656 441.480469 C 140.722656 447.003906 136.246094 451.480469 130.722656 451.480469 C 125.199219 451.480469 120.722656 447.003906 120.722656 441.480469 C 120.722656 435.957031 125.199219 431.480469 130.722656 431.480469 C 136.246094 431.480469 140.722656 435.957031 140.722656 441.480469 "/>
<path fill-rule="nonzero" fill="rgb(100%, 0%, 0%)" fill-opacity="1" stroke-width="1" stroke-linecap="butt" stroke-linejoin="miter" stroke="rgb(0%, 0%, 0%)" stroke-opacity="1" stroke-miterlimit="10" d="M 169.132812 175.421875 C 169.132812 180.945312 164.65625 185.421875 159.132812 185.421875 C 153.609375 185.421875 149.132812 180.945312 149.132812 175.421875 C 149.132812 169.898438 153.609375 165.421875 159.132812 165.421875 C 164.65625 165.421875 169.132812 169.898438 169.132812 175.421875 "/>
<path fill-rule="nonzero" fill="rgb(100%, 0%, 0%)" fill-opacity="1" stroke-width="1" stroke-linecap="butt" stroke-linejoin="miter" stroke="rgb(0%, 0%, 0%)" stroke-opacity="1" stroke-miterlimit="10" d="M 187.894531 425.753906 C 187.894531 431.277344 183.417969 435.753906 177.894531 435.753906 C 172.371094 435.753906 167.894531 431.277344 167.894531 425.753906 C 167.894531 420.230469 172.371094 415.753906 177.894531 415.753906 C 183.417969 415.753906 187.894531 420.230469 187.894531 425.753906 "/>
<path fill-rule="nonzero" fill="rgb(100%, 0%, 0%)" fill-opacity="1" stroke-width="1" stroke-linecap="butt" stroke-linejoin="miter" stroke="rgb(0%, 0%, 0%)" stroke-opacity="1" stroke-miterlimit="10" d="M 420.058594 141.097656 C 420.058594 146.621094 415.582031 151.097656 410.058594 151.097656 C 404.539062 151.097656 400.058594 146.621094 400.058594 141.097656 C 400.058594 135.574219 404.539062 131.097656 410.058594 131.097656 C 415.582031 131.097656 420.058594 135.574219 420.058594 141.097656 "/>
<path fill-rule="nonzero" fill="rgb(100%, 0%, 0%)" fill-opacity="1" stroke-width="1" stroke-linecap="butt" stroke-linejoin="miter" stroke="rgb(0%, 0%, 0%)" stroke-opacity="1" stroke-miterlimit="10" d="M 106.140625 201.40625 C 106.140625 206.929688 101.664062 211.40625 96.140625 211.40625 C 90.617188 211.40625 86.140625 206.929688 86.140625 201.40625 C 86.140625 195.882812 90.617188 191.40625 96.140625 191.40625 C 101.664062 191.40625 106.140625 195.882812 106.140625 201.40625 "/>
<path fill-rule="nonzero" fill="rgb(100%, 0%, 0%)" fill-opacity="1" stroke-width="1" stroke-linecap="butt" stroke-linejoin="miter" stroke="rgb(0%, 0%, 0%)" stroke-opacity="1" stroke-miterlimit="10" d="M 265.953125 20 C 265.953125 25.523438 261.476562 30 255.953125 30 C 250.429688 30 245.953125 25.523438 245.953125 20 C 245.953125 14.476562 250.429688 10 255.953125 10 C 261.476562 10 265.953125 14.476562 265.953125 20 "/>
<path fill-rule="nonzero" fill="rgb(100%, 0%, 0%)" fill-opacity="1" stroke-width="1" stroke-linecap="butt" stroke-linejoin="miter" stroke="rgb(0%, 0%, 0%)" stroke-opacity="1" stroke-miterlimit="10" d="M 287.261719 80.691406 C 287.261719 86.214844 282.785156 90.691406 277.261719 90.691406 C 271.742188 90.691406 267.261719 86.214844 267.261719 80.691406 C 267.261719 75.167969 271.742188 70.691406 277.261719 70.691406 C 282.785156 70.691406 287.261719 75.167969 287.261719 80.691406 "/>
<path fill-rule="nonzero" fill="rgb(100%, 0%, 0%)" fill-opacity="1" stroke-width="1" stroke-linecap="butt" stroke-linejoin="miter" stroke="rgb(0%, 0%, 0%)" stroke-opacity="1" stroke-miterlimit="10" d="M 590 100.429688 C 590 105.953125 585.523438 110.429688 580 110.429688 C 574.476562 110.429688 570 105.953125 570 100.429688 C 570 94.90625 574.476562 90.429688 580 90.429688 C 585.523438 90.429688 590 94.90625 590 100.429688 "/>
<path fill-rule="nonzero" fill="rgb(100%, 0%, 0%)" fill-opacity="1" stroke-width="1" stroke-linecap="butt" stroke-linejoin="miter" stroke="rgb(0%, 0%, 0%)" stroke-opacity="1" stroke-miterlimit="10" d="M 30 171.980469 C 30 177.503906 25.523438 181.980469 20 181.980469 C 14.476562 181.980469 10 177.503906 10 171.980469 C 10 166.460938 14.476562 161.980469 20 161.980469 C 25.523438 161.980469 30 166.460938 30 171.980469 "/>
<path fill-rule="nonzero" fill="rgb(100%, 0%, 0%)" fill-opacity="1" stroke-width="1" stroke-linecap="butt" stroke-linejoin="miter" stroke="rgb(0%, 0%, 0%)" stroke-opacity="1" stroke-miterlimit="10" d="M 356.199219 209.410156 C 356.199219 214.933594 351.71875 219.410156 346.199219 219.410156 C 340.675781 219.410156 336.199219 214.933594 336.199219 209.410156 C 336.199219 203.886719 340.675781 199.410156 346.199219 199.410156 C 351.71875 199.410156 356.199219 203.886719 356.199219 209.410156 "/>
<path fill-rule="nonzero" fill="rgb(100%, 0%, 0%)" fill-opacity="1" stroke-width="1" stroke-linecap="butt" stroke-linejoin="miter" stroke="rgb(0%, 0%, 0%)" stroke-opacity="1" stroke-miterlimit="10" d="M 521.210938 136.988281 C 521.210938 142.511719 516.734375 146.988281 511.210938 146.988281 C 505.6875 146.988281 501.210938 142.511719 501.210938 136.988281 C 501.210938 131.464844 505.6875 126.988281 511.210938 126.988281 C 516.734375 126.988281 521.210938 131.464844 521.210938 136.988281 "/>
<path fill-rule="nonzero" fill="rgb(100%, 0%, 0%)" fill-opacity="1" stroke-width="1" stroke-linecap="butt" stroke-linejoin="miter" stroke="rgb(0%, 0%, 0%)" stroke-opacity="1" stroke-miterlimit="10" d="M 460.660156 125.433594 C 460.660156 130.953125 456.183594 135.433594 450.660156 135.433594 C 445.136719 135.433594 440.660156 130.953125 440.660156 125.433594 C 440.660156 119.910156 445.136719 115.433594 450.660156 115.433594 C 456.183594 115.433594 460.660156 119.910156 460.660156 125.433594 "/>
<path fill-rule="nonzero" fill="rgb(100%, 0%, 0%)" fill-opacity="1" stroke-width="1" stroke-linecap="butt" stroke-linejoin="miter" stroke="rgb(0%, 0%, 0%)" stroke-opacity="1" stroke-miterlimit="10" d="M 314.03125 146.277344 C 314.03125 151.800781 309.554688 156.277344 304.03125 156.277344 C 298.511719 156.277344 294.03125 151.800781 294.03125 146.277344 C 294.03125 140.753906 298.511719 136.277344 304.03125 136.277344 C 309.554688 136.277344 314.03125 140.753906 314.03125 146.277344 "/>
<path fill-rule="nonzero" fill="rgb(100%, 0%, 0%)" fill-opacity="1" stroke-width="1" stroke-linecap="butt" stroke-linejoin="miter" stroke="rgb(0%, 0%, 0%)" stroke-opacity="1" stroke-miterlimit="10" d="M 194.546875 231.628906 C 194.546875 237.152344 190.070312 241.628906 184.546875 241.628906 C 179.023438 241.628906 174.546875 237.152344 174.546875 231.628906 C 174.546875 226.105469 179.023438 221.628906 184.546875 221.628906 C 190.070312 221.628906 194.546875 226.105469 194.546875 231.628906 "/>
<path fill-rule="nonzero" fill="rgb(100%, 0%, 0%)" fill-opacity="1" stroke-width="1" stroke-linecap="butt" stroke-linejoin="miter" stroke="rgb(0%, 0%, 0%)" stroke-opacity="1" stroke-miterlimit="10" d="M 454.972656 189.789062 C 454.972656 195.3125 450.496094 199.789062 444.972656 199.789062 C 439.449219 199.789062 434.972656 195.3125 434.972656 189.789062 C 434.972656 184.265625 439.449219 179.789062 444.972656 179.789062 C 450.496094 179.789062 454.972656 184.265625 454.972656 189.789062 "/>
</svg>