<?xml version="1.0" encoding="UTF-8"?>
<svg xmlns="http://www.w3.org/2000/svg" xmlns:xlink="http://www.w3.org/1999/xlink" width="600" height="600" viewBox="0 0 600 600">
<rect x="-60" y="-60" width="720" height="720" fill="rgb(100%, 100%, 100%)" fill-opacity="1"/>
<path fill="none" stroke-width="1" stroke-linecap="butt" stroke-linejoin="miter" stroke="rgb(26.666667%, 26.666667%, 26.666667%)" stroke-opacity="1" stroke-miterlimit="10" d="M 219.035156 357.289062 L 174.238281 392.105469 "/>
<path fill="none" stroke-width="6" stroke-linecap="butt" stroke-linejoin="miter" stroke="rgb(26.666667%, 26.666667%, 26.666667%)" stroke-opacity="1" stroke-miterlimit="10" d="M 219.035156 357.289062 L 232.917969 421.84375 "/>
<path fill="none" stroke-width="4" stroke-linecap="butt" stroke-linejoin="miter" stroke="rgb(26.666667%, 26.666667%, 26.666667%)" stroke-opacity="1" stroke-miterlimit="10" d="M 219.035156 357.289062 L 258.414062 383.96875 "/>
<path fill="none" stroke-width="1" stroke-linecap="butt" stroke-linejoin="miter" stroke="rgb(26.666667%, 26.666667%, 26.666667%)" stroke-opacity="1" stroke-miterlimit="10" d="M 219.035156 357.289062 L 283.34375 321.871094 "/>
<path fill="none" stroke-width="4" stroke-linecap="butt" stroke-linejoin="miter" stroke="rgb(26.666667%, 26.666667%, 26.666667%)" stroke-opacity="1" stroke-miterlimit="10" d="M 219.035156 357.289062 L 188.140625 326.183594 "/>
<path fill="none" stroke-width="5" stroke-linecap="butt" stroke-linejoin="miter" stroke="rgb(26.666667%, 26.666667%, 26.666667%)" stroke-opacity="1" stroke-miterlimit="10" d="M 219.035156 357.289062 L 215.050781 306.855469 "/>
<path fill="none" stroke-width="3" stroke-linecap="butt" stroke-linejoin="miter" stroke="rgb(26.666667%, 26.666667%, 26.666667%)" stroke-opacity="1" stroke-miterlimit="10" d="M 219.035156 357.289062 L 144.6875 331.917969 "/>
<path fill="none" stroke-width="1" stroke-linecap="butt" stroke-linejoin="miter" stroke="rgb(26.666667%, 26.666667%, 26.666667%)" stroke-opacity="1" stroke-miterlimit="10" d="M 174.238281 392.105469 L 124.710938 427.828125 "/>
<path fill="none" stroke-width="1" stroke-linecap="butt" stroke-linejoin="miter" stroke="rgb(26.666667%, 26.666667%, 26.666667%)" stroke-opacity="1" stroke-miterlimit="10" d="M 387 249.785156 L 347.652344 298.90625 "/>
<path fill="none" stroke-width="5" stroke-linecap="butt" stroke-linejoin="miter" stroke="rgb(26.666667%, 26.666667%, 26.666667%)" stroke-opacity="1" stroke-miterlimit="10" d="M 387 249.785156 L 450.074219 277.882812 "/>
<path fill="none" stroke-width="1" stroke-linecap="butt" stroke-linejoin="miter" stroke="rgb(26.666667%, 26.666667%, 26.666667%)" stroke-opacity="1" stroke-miterlimit="10" d="M 387 249.785156 L 407.335938 193.96875 "/>
<path fill="none" stroke-width="3" stroke-linecap="butt" stroke-linejoin="miter" stroke="rgb(26.666667%, 26.666667%, 26.666667%)" stroke-opacity="1" stroke-miterlimit="10" d="M 347.652344 298.90625 L 404.585938 329.546875 "/>
<path fill="none" stroke-width="6" stroke-linecap="butt" stroke-linejoin="miter" stroke="rgb(26.666667%, 26.666667%, 26.666667%)" stroke-opacity="1" stroke-miterlimit="10" d="M 347.652344 298.90625 L 381.140625 349.378906 "/>
<path fill="none" stroke-width="3" stroke-linecap="butt" stroke-linejoin="miter" stroke="rgb(26.666667%, 26.666667%, 26.666667%)" stroke-opacity="1" stroke-miterlimit="10" d="M 347.652344 298.90625 L 283.34375 321.871094 "/>
<path fill="none" stroke-width="6" stroke-linecap="butt" stroke-linejoin="miter" stroke="rgb(26.666667%, 26.666667%, 26.666667%)" stroke-opacity="1" stroke-miterlimit="10" d="M 276.816406 527.789062 L 239.808594 480.996094 "/>
<path fill="none" stroke-width="2" stroke-linecap="butt" stroke-linejoin="miter" stroke="rgb(26.666667%, 26.666667%, 26.666667%)" stroke-opacity="1" stroke-miterlimit="10" d="M 276.816406 527.789062 L 291.183594 580 "/>
<path fill="none" stroke-width="4" stroke-linecap="butt" stroke-linejoin="miter" stroke="rgb(26.666667%, 26.666667%, 26.666667%)" stroke-opacity="1" stroke-miterlimit="10" d="M 232.917969 421.84375 L 239.808594 480.996094 "/>
<path fill="none" stroke-width="3" stroke-linecap="butt" stroke-linejoin="miter" stroke="rgb(26.666667%, 26.666667%, 26.666667%)" stroke-opacity="1" stroke-miterlimit="10" d="M 239.808594 480.996094 L 193.078125 521.609375 "/>
<path fill="none" stroke-width="4" stroke-linecap="butt" stroke-linejoin="miter" stroke="rgb(26.666667%, 26.666667%, 26.666667%)" stroke-opacity="1" stroke-miterlimit="10" d="M 26.65625 347.058594 L 80.375 310.722656 "/>
<path fill="none" stroke-width="2" stroke-linecap="butt" stroke-linejoin="miter" stroke="rgb(26.666667%, 26.666667%, 26.666667%)" stroke-opacity="1" stroke-miterlimit="10" d="M 407.335938 193.96875 L 442.949219 138.695312 "/>
<path fill="none" stroke-width="3" stroke-linecap="butt" stroke-linejoin="miter" stroke="rgb(26.666667%, 26.666667%, 26.666667%)" stroke-opacity="1" stroke-miterlimit="10" d="M 500.378906 155.453125 L 442.949219 138.695312 "/>
<path fill="none" stroke-width="9" stroke-linecap="butt" stroke-linejoin="miter" stroke="rgb(26.666667%, 26.666667%, 26.666667%)" stroke-opacity="1" stroke-miterlimit="10" d="M 386.722656 128.667969 L 442.949219 138.695312 "/>
<path fill="none" stroke-width="2" stroke-linecap="butt" stroke-linejoin="miter" stroke="rgb(26.666667%, 26.666667%, 26.666667%)" stroke-opacity="1" stroke-miterlimit="10" d="M 387.460938 97.78125 L 442.949219 138.695312 "/>
<path fill="none" stroke-width="4" stroke-linecap="butt" stroke-linejoin="miter" stroke="rgb(26.666667%, 26.666667%, 26.666667%)" stroke-opacity="1" stroke-miterlimit="10" d="M 57.746094 256.09375 L 80.375 310.722656 "/>
<path fill="none" stroke-width="1" stroke-linecap="butt" stroke-linejoin="miter" stroke="rgb(26.666667%, 26.666667%, 26.666667%)" stroke-opacity="1" stroke-miterlimit="10" d="M 20 295.261719 L 80.375 310.722656 "/>
<path fill="none" stroke-width="2" stroke-linecap="butt" stroke-linejoin="miter" stroke="rgb(26.666667%, 26.666667%, 26.666667%)" stroke-opacity="1" stroke-miterlimit="10" d="M 513.8125 113.195312 L 543.800781 63.359375 "/>
<path fill="none" stroke-width="2" stroke-linecap="butt" stroke-linejoin="miter" stroke="rgb(26.666667%, 26.666667%, 26.666667%)" stroke-opacity="1" stroke-miterlimit="10" d="M 513.8125 113.195312 L 442.949219 138.695312 "/>
<path fill="none" stroke-width="1" stroke-linecap="butt" stroke-linejoin="miter" stroke="rgb(26.666667%, 26.666667%, 26.666667%)" stroke-opacity="1" stroke-miterlimit="10" d="M 513.8125 113.195312 L 580 132.644531 "/>
<path fill="none" stroke-width="1" stroke-linecap="butt" stroke-linejoin="miter" stroke="rgb(26.666667%, 26.666667%, 26.666667%)" stroke-opacity="1" stroke-miterlimit="10" d="M 576.847656 20 L 543.800781 63.359375 "/>
<path fill="none" stroke-width="2" stroke-linecap="butt" stroke-linejoin="miter" stroke="rgb(26.666667%, 26.666667%, 26.666667%)" stroke-opacity="1" stroke-miterlimit="10" d="M 418.988281 81.414062 L 442.949219 138.695312 "/>
<path fill="none" stroke-width="4" stroke-linecap="butt" stroke-linejoin="miter" stroke="rgb(26.666667%, 26.666667%, 26.666667%)" stroke-opacity="1" stroke-miterlimit="10" d="M 455.730469 90.910156 L 442.949219 138.695312 "/>
<path fill="none" stroke-width="1" stroke-linecap="butt" stroke-linejoin="miter" stroke="rgb(26.666667%, 26.666667%, 26.666667%)" stroke-opacity="1" stroke-miterlimit="10" d="M 483.109375 178.46875 L 442.949219 138.695312 "/>
<path fill="none" stroke-width="1" stroke-linecap="butt" stroke-linejoin="miter" stroke="rgb(26.666667%, 26.666667%, 26.666667%)" stroke-opacity="1" stroke-miterlimit="10" d="M 144.6875 331.917969 L 80.375 310.722656 "/>
<path fill-rule="nonzero" fill="rgb(100%, 0%, 0%)" fill-opacity="1" stroke-width="1" stroke-linecap="butt" stroke-linejoin="miter" stroke="rgb(0%, 0%, 0%)" stroke-opacity="1" stroke-miterlimit="10" d="M 229.035156 357.289062 C 229.035156 362.8125 224.558594 367.289062 219.035156 367.289062 C 213.515625 367.289062 209.035156 362.8125 209.035156 357.289062 C 209.035156 351.765625 213.515625 347.289062 219.035156 347.289062 C 224.558594 347.289062 229.035156 351.765625 229.035156 357.289062 "/>
<path fill-rule="nonzero" fill="rgb(100%, 0%, 0%)" fill-opacity="1" stroke-width="1" stroke-linecap="butt" stroke-linejoin="miter" stroke="rgb(0%, 0%, 0%)" stroke-opacity="1" stroke-miterlimit="10" d="M 184.238281 392.105469 C 184.238281 397.628906 179.761719 402.105469 174.238281 402.105469 C 168.714844 402.105469 164.238281 397.628906 164.238281 392.105469 C 164.238281 386.582031 168.714844 382.105469 174.238281 382.105469 C 179.761719 382.105469 184.238281 386.582031 184.238281 392.105469 "/>
<path fill-rule="nonzero" fill="rgb(100%, 0%, 0%)" fill-opacity="1" stroke-width="1" stroke-linecap="butt" stroke-linejoin="miter" stroke="rgb(0%, 0%, 0%)" stroke-opacity="1" stroke-miterlimit="10" d="M 397 249.785156 C 397 255.308594 392.519531 259.785156 387 259.785156 C 381.476562 259.785156 377 255.308594 377 249.785156 C 377 244.265625 381.476562 239.785156 387 239.785156 C 392.519531 239.785156 397 244.265625 397 249.785156 "/>
<path fill-rule="nonzero" fill="rgb(100%, 0%, 0%)" fill-opacity="1" stroke-width="1" stroke-linecap="butt" stroke-linejoin="miter" stroke="rgb(0%, 0%, 0%)" stroke-opacity="1" stroke-miterlimit="10" d="M 357.652344 298.90625 C 357.652344 304.429688 353.175781 308.90625 347.652344 308.90625 C 342.128906 308.90625 337.652344 304.429688 337.652344 298.90625 C 337.652344 293.386719 342.128906 288.90625 347.652344 288.90625 C 353.175781 288.90625 357.652344 293.386719 357.652344 298.90625 "/>
<path fill-rule="nonzero" fill="rgb(100%, 0%, 0%)" fill-opacity="1" stroke-width="1" stroke-linecap="butt" stroke-linejoin="miter" stroke="rgb(0%, 0%, 0%)" stroke-opacity="1" stroke-miterlimit="10" d="M 286.816406 527.789062 C 286.816406 533.308594 282.339844 537.789062 276.816406 537.789062 C 271.292969 537.789062 266.816406 533.308594 266.816406 527.789062 C 266.816406 522.265625 271.292969 517.789062 276.816406 517.789062 C 282.339844 517.789062 286.816406 522.265625 286.816406 527.789062 "/>
<path fill-rule="nonzero" fill="rgb(100%, 0%, 0%)" fill-opacity="1" stroke-width="1" stroke-linecap="butt" stroke-linejoin="miter" stroke="rgb(0%, 0%, 0%)" stroke-opacity="1" stroke-miterlimit="10" d="M 242.917969 421.84375 C 242.917969 427.367188 238.4375 431.84375 232.917969 431.84375 C 227.394531 431.84375 222.917969 427.367188 222.917969 421.84375 C 222.917969 416.320312 227.394531 411.84375 232.917969 411.84375 C 238.4375 411.84375 242.917969 416.320312 242.917969 421.84375 "/>
<path fill-rule="nonzero" fill="rgb(100%, 0%, 0%)" fill-opacity="1" stroke-width="1" stroke-linecap="butt" stroke-linejoin="miter" stroke="rgb(0%, 0%, 0%)" stroke-opacity="1" stroke-miterlimit="10" d="M 249.808594 480.996094 C 249.808594 486.519531 245.332031 490.996094 239.808594 490.996094 C 234.285156 490.996094 229.808594 486.519531 229.808594 480.996094 C 229.808594 475.476562 234.285156 470.996094 239.808594 470.996094 C 245.332031 470.996094 249.808594 475.476562 249.808594 480.996094 "/>
<path fill-rule="nonzero" fill="rgb(100%, 0%, 0%)" fill-opacity="1" stroke-width="1" stroke-linecap="butt" stroke-linejoin="miter" stroke="rgb(0%, 0%, 0%)" stroke-opacity="1" stroke-miterlimit="10" d="M 414.585938 329.546875 C 414.585938 335.070312 410.109375 339.546875 404.585938 339.546875 C 399.0625 339.546875 394.585938 335.070312 394.585938 329.546875 C 394.585938 324.023438 399.0625 319.546875 404.585938 319.546875 C 410.109375 319.546875 414.585938 324.023438 414.585938 329.546875 "/>
<path fill-rule="nonzero" fill="rgb(100%, 0%, 0%)" fill-opacity="1" stroke-width="1" stroke-linecap="butt" stroke-linejoin="miter" stroke="rgb(0%, 0%, 0%)" stroke-opacity="1" stroke-miterlimit="10" d="M 36.65625 347.058594 C 36.65625 352.582031 32.175781 357.058594 26.65625 357.058594 C 21.132812 357.058594 16.65625 352.582031 16.65625 347.058594 C 16.65625 341.535156 21.132812 337.058594 26.65625 337.058594 C 32.175781 337.058594 36.65625 341.535156 36.65625 347.058594 "/>
<path fill-rule="nonzero" fill="rgb(100%, 0%, 0%)" fill-opacity="1" stroke-width="1" stroke-linecap="butt" stroke-linejoin="miter" stroke="rgb(0%, 0%, 0%)" stroke-opacity="1" stroke-miterlimit="10" d="M 417.335938 193.96875 C 417.335938 199.492188 412.859375 203.96875 407.335938 203.96875 C 401.8125 203.96875 397.335938 199.492188 397.335938 193.96875 C 397.335938 188.445312 401.8125 183.96875 407.335938 183.96875 C 412.859375 183.96875 417.335938 188.445312 417.335938 193.96875 "/>
<path fill-rule="nonzero" fill="rgb(100%, 0%, 0%)" fill-opacity="1" stroke-width="1" stroke-linecap="butt" stroke-linejoin="miter" stroke="rgb(0%, 0%, 0%)" stroke-opacity="1" stroke-miterlimit="10" d="M 301.183594 580 C 301.183594 585.523438 296.707031 590 291.183594 590 C 285.664062 590 281.183594 585.523438 281.183594 580 C 281.183594 574.476562 285.664062 570 291.183594 570 C 296.707031 570 301.183594 574.476562 301.183594 580 "/>
<path fill-rule="nonzero" fill="rgb(100%, 0%, 0%)" fill-opacity="1" stroke-width="1" stroke-linecap="butt" stroke-linejoin="miter" stroke="rgb(0%, 0%, 0%)" stroke-opacity="1" stroke-miterlimit="10" d="M 268.414062 383.96875 C 268.414062 389.492188 263.9375 393.96875 258.414062 393.96875 C 252.894531 393.96875 248.414062 389.492188 248.414062 383.96875 C 248.414062 378.449219 252.894531 373.96875 258.414062 373.96875 C 263.9375 373.96875 268.414062 378.449219 268.414062 383.96875 "/>
<path fill-rule="nonzero" fill="rgb(100%, 0%, 0%)" fill-opacity="1" stroke-width="1" stroke-linecap="butt" stroke-linejoin="miter" stroke="rgb(0%, 0%, 0%)" stroke-opacity="1" stroke-miterlimit="10" d="M 391.140625 349.378906 C 391.140625 354.902344 386.664062 359.378906 381.140625 359.378906 C 375.617188 359.378906 371.140625 354.902344 371.140625 349.378906 C 371.140625 343.855469 375.617188 339.378906 381.140625 339.378906 C 386.664062 339.378906 391.140625 343.855469 391.140625 349.378906 "/>
<path fill-rule="nonzero" fill="rgb(100%, 0%, 0%)" fill-opacity="1" stroke-width="1" stroke-linecap="butt" stroke-linejoin="miter" stroke="rgb(0%, 0%, 0%)" stroke-opacity="1" stroke-miterlimit="10" d="M 293.34375 321.871094 C 293.34375 327.394531 288.867188 331.871094 283.34375 331.871094 C 277.824219 331.871094 273.34375 327.394531 273.34375 321.871094 C 273.34375 316.347656 277.824219 311.871094 283.34375 311.871094 C 288.867188 311.871094 293.34375 316.347656 293.34375 321.871094 "/>
<path fill-rule="nonzero" fill="rgb(100%, 0%, 0%)" fill-opacity="1" stroke-width="1" stroke-linecap="butt" stroke-linejoin="miter" stroke="rgb(0%, 0%, 0%)" stroke-opacity="1" stroke-miterlimit="10" d="M 510.378906 155.453125 C 510.378906 160.972656 505.902344 165.453125 500.378906 165.453125 C 494.859375 165.453125 490.378906 160.972656 490.378906 155.453125 C 490.378906 149.929688 494.859375 145.453125 500.378906 145.453125 C 505.902344 145.453125 510.378906 149.929688 510.378906 155.453125 "/>
<path fill-rule="nonzero" fill="rgb(100%, 0%, 0%)" fill-opacity="1" stroke-width="1" stroke-linecap="butt" stroke-linejoin="miter" stroke="rgb(0%, 0%, 0%)" stroke-opacity="1" stroke-miterlimit="10" d="M 396.722656 128.667969 C 396.722656 134.191406 392.246094 138.667969 386.722656 138.667969 C 381.199219 138.667969 376.722656 134.191406 376.722656 128.667969 C 376.722656 123.144531 381.199219 118.667969 386.722656 118.667969 C 392.246094 118.667969 396.722656 123.144531 396.722656 128.667969 "/>
<path fill-rule="nonzero" fill="rgb(100%, 0%, 0%)" fill-opacity="1" stroke-width="1" stroke-linecap="butt" stroke-linejoin="miter" stroke="rgb(0%, 0%, 0%)" stroke-opacity="1" stroke-miterlimit="10" d="M 203.078125 521.609375 C 203.078125 527.132812 198.601562 531.609375 193.078125 531.609375 C 187.554688 531.609375 183.078125 527.132812 183.078125 521.609375 C 183.078125 516.085938 187.554688 511.609375 193.078125 511.609375 C 198.601562 511.609375 203.078125 516.085938 203.078125 521.609375 "/>
<path fill-rule="nonzero" fill="rgb(100%, 0%, 0%)" fill-opacity="1" stroke-width="1" stroke-linecap="butt" stroke-linejoin="miter" stroke="rgb(0%, 0%, 0%)" stroke-opacity="1" stroke-miterlimit="10" d="M 134.710938 427.828125 C 134.710938 433.351562 130.234375 437.828125 124.710938 437.828125 C 119.1875 437.828125 114.710938 433.351562 114.710938 427.828125 C 114.710938 422.304688 119.1875 417.828125 124.710938 417.828125 C 130.234375 417.828125 134.710938 422.304688 134.710938 427.828125 "/>
<path fill-rule="nonzero" fill="rgb(100%, 0%, 0%)" fill-opacity="1" stroke-width="1" stroke-linecap="butt" stroke-linejoin="miter" stroke="rgb(0%, 0%, 0%)" stroke-opacity="1" stroke-miterlimit="10" d="M 397.460938 97.78125 C 397.460938 103.304688 392.984375 107.78125 387.460938 107.78125 C 381.9375 107.78125 377.460938 103.304688 377.460938 97.78125 C 377.460938 92.257812 381.9375 87.78125 387.460938 87.78125 C 392.984375 87.78125 397.460938 92.257812 397.460938 97.78125 "/>
<path fill-rule="nonzero" fill="rgb(100%, 0%, 0%)" fill-opacity="1" stroke-width="1" stroke-linecap="butt" stroke-linejoin="miter" stroke="rgb(0%, 0%, 0%)" stroke-opacity="1" stroke-miterlimit="10" d="M 198.140625 326.183594 C 198.140625 331.707031 193.664062 336.183594 188.140625 336.183594 C 182.617188 336.183594 178.140625 331.707031 178.140625 326.183594 C 178.140625 320.660156 182.617188 316.183594 188.140625 316.183594 C 193.664062 316.183594 198.140625 320.660156 198.140625 326.183594 "/>
<path fill-rule="nonzero" fill="rgb(100%, 0%, 0%)" fill-opacity="1" stroke-width="1" stroke-linecap="butt" stroke-linejoin="miter" stroke="rgb(0%, 0%, 0%)" stroke-opacity="1" stroke-miterlimit="10" d="M 67.746094 256.09375 C 67.746094 261.613281 63.265625 266.09375 57.746094 266.09375 C 52.222656 266.09375 47.746094 261.613281 47.746094 256.09375 C 47.746094 250.570312 52.222656 246.09375 57.746094 246.09375 C 63.265625 246.09375 67.746094 250.570312 67.746094 256.09375 "/>
<path fill-rule="nonzero" fill="rgb(100%, 0%, 0%)" fill-opacity="1" stroke-width="1" stroke-linecap="butt" stroke-linejoin="miter" stroke="rgb(0%, 0%, 0%)" stroke-opacity="1" stroke-miterlimit="10" d="M 225.050781 306.855469 C 225.050781 312.378906 220.574219 316.855469 215.050781 316.855469 C 209.527344 316.855469 205.050781 312.378906 205.050781 306.855469 C 205.050781 301.335938 209.527344 296.855469 215.050781 296.855469 C 220.574219 296.855469 225.050781 301.335938 225.050781 306.855469 "/>
<path fill-rule="nonzero" fill="rgb(100%, 0%, 0%)" fill-opacity="1" stroke-width="1" stroke-linecap="butt" stroke-linejoin="miter" stroke="rgb(0%, 0%, 0%)" stroke-opacity="1" stroke-miterlimit="10" d="M 30 295.261719 C 30 300.785156 25.523438 305.261719 20 305.261719 C 14.476562 305.261719 10 300.785156 10 295.261719 C 10 289.738281 14.476562 285.261719 20 285.261719 C 25.523438 285.261719 30 289.738281 30 295.261719 "/>
<path fill-rule="nonzero" fill="rgb(100%, 0%, 0%)" fill-opacity="1" stroke-width="1" stroke-linecap="butt" stroke-linejoin="miter" stroke="rgb(0%, 0%, 0%)" stroke-opacity="1" stroke-miterlimit="10" d="M 523.8125 113.195312 C 523.8125 118.71875 519.335938 123.195312 513.8125 123.195312 C 508.289062 123.195312 503.8125 118.71875 503.8125 113.195312 C 503.8125 107.671875 508.289062 103.195312 513.8125 103.195312 C 519.335938 103.195312 523.8125 107.671875 523.8125 113.195312 "/>
<path fill-rule="nonzero" fill="rgb(100%, 0%, 0%)" fill-opacity="1" stroke-width="1" stroke-linecap="butt" stroke-linejoin="miter" stroke="rgb(0%, 0%, 0%)" stroke-opacity="1" stroke-miterlimit="10" d="M 586.847656 20 C 586.847656 25.523438 582.371094 30 576.847656 30 C 571.324219 30 566.847656 25.523438 566.847656 20 C 566.847656 14.476562 571.324219 10 576.847656 10 C 582.371094 10 586.847656 14.476562 586.847656 20 "/>
<path fill-rule="nonzero" fill="rgb(100%, 0%, 0%)" fill-opacity="1" stroke-width="1" stroke-linecap="butt" stroke-linejoin="miter" stroke="rgb(0%, 0%, 0%)" stroke-opacity="1" stroke-miterlimit="10" d="M 553.800781 63.359375 C 553.800781 68.882812 549.320312 73.359375 543.800781 73.359375 C 538.277344 73.359375 533.800781 68.882812 533.800781 63.359375 C 533.800781 57.835938 538.277344 53.359375 543.800781 53.359375 C 549.320312 53.359375 553.800781 57.835938 553.800781 63.359375 "/>
<path fill-rule="nonzero" fill="rgb(100%, 0%, 0%)" fill-opacity="1" stroke-width="1" stroke-linecap="butt" stroke-linejoin="miter" stroke="rgb(0%, 0%, 0%)" stroke-opacity="1" stroke-miterlimit="10" d="M 428.988281 81.414062 C 428.988281 86.9375 424.511719 91.414062 418.988281 91.414062 C 413.464844 91.414062 408.988281 86.9375 408.988281 81.414062 C 408.988281 75.894531 413.464844 71.414062 418.988281 71.414062 C 424.511719 71.414062 428.988281 75.894531 428.988281 81.414062 "/>
<path fill-rule="nonzero" fill="rgb(100%, 0%, 0%)" fill-opacity="1" stroke-width="1" stroke-linecap="butt" stroke-linejoin="miter" stroke="rgb(0%, 0%, 0%)" stroke-opacity="1" stroke-miterlimit="10" d="M 465.730469 90.910156 C 465.730469 96.429688 461.253906 100.910156 455.730469 100.910156 C 450.207031 100.910156 445.730469 96.429688 445.730469 90.910156 C 445.730469 85.386719 450.207031 80.910156 455.730469 80.910156 C 461.253906 80.910156 465.730469 85.386719 465.730469 90.910156 "/>
<path fill-rule="nonzero" fill="rgb(100%, 0%, 0%)" fill-opacity="1" stroke-width="1" stroke-linecap="butt" stroke-linejoin="miter" stroke="rgb(0%, 0%, 0%)" stroke-opacity="1" stroke-miterlimit="10" d="M 460.074219 277.882812 C 460.074219 283.40625 455.59375 287.882812 450.074219 287.882812 C 444.550781 287.882812 440.074219 283.40625 440.074219 277.882812 C 440.074219 272.359375 444.550781 267.882812 450.074219 267.882812 C 455.59375 267.882812 460.074219 272.359375 460.074219 277.882812 "/>
<path fill-rule="nonzero" fill="rgb(100%, 0%, 0%)" fill-opacity="1" stroke-width="1" stroke-linecap="butt" stroke-linejoin="miter" stroke="rgb(0%, 0%, 0%)" stroke-opacity="1" stroke-miterlimit="10" d="M 590 132.644531 C 590 138.167969 585.523438 142.644531 580 142.644531 C 574.476562 142.644531 570 138.167969 570 132.644531 C 570 127.121094 574.476562 122.644531 580 122.644531 C 585.523438 122.644531 590 127.121094 590 132.644531 "/>
<path fill-rule="nonzero" fill="rgb(100%, 0%, 0%)" fill-opacity="1" stroke-width="1" stroke-linecap="butt" stroke-linejoin="miter" stroke="rgb(0%, 0%, 0%)" stroke-opacity="1" stroke-miterlimit="10" d="M 493.109375 178.46875 C 493.109375 183.992188 488.632812 188.46875 483.109375 188.46875 C 477.585938 188.46875 473.109375 183.992188 473.109375 178.46875 C 473.109375 172.945312 477.585938 168.46875 483.109375 168.46875 C 488.632812 168.46875 493.109375 172.945312 493.109375 178.46875 "/>
<path fill-rule="nonzero" fill="rgb(100%, 0%, 0%)" fill-opacity="1" stroke-width="1" stroke-linecap="butt" stroke-linejoin="miter" stroke="rgb(0%, 0%, 0%)" stroke-opacity="1" stroke-miterlimit="10" d="M 154.6875 331.917969 C 154.6875 337.4375 150.210938 341.917969 144.6875 341.917969 C 139.164062 341.917969 134.6875 337.4375 134.6875 331.917969 C 134.6875 326.394531 139.164062 321.917969 144.6875 321.917969 C 150.210938 321.917969 154.6875 326.394531 154.6875 331.917969 "/>
<path fill-rule="nonzero" fill="rgb(100%, 0%, 0%)" fill-opacity="1" stroke-width="1" stroke-linecap="butt" stroke-linejoin="miter" stroke="rgb(0%, 0%, 0%)" stroke-opacity="1" stroke-miterlimit="10" d="M 90.375 310.722656 C 90.375 316.246094 85.898438 320.722656 80.375 320.722656 C 74.851562 320.722656 70.375 316.246094 70.375 310.722656 C 70.375 305.199219 74.851562 300.722656 80.375 300.722656 C 85.898438 300.722656 90.375 305.199219 90.375 310.722656 "/>
<path fill-rule="nonzero" fill="rgb(100%, 0%, 0%)" fill-opacity="1" stroke-width="1" stroke-linecap="butt" stroke-linejoin="miter" stroke="rgb(0%, 0%, 0%)" stroke-opacity="1" stroke-miterlimit="10" d="M 452.949219 138.695312 C 452.949219 144.21875 448.472656 148.695312 442.949219 148.695312 C 437.425781 148.695312 432.949219 144.21875 432.949219 138.695312 C 432.949219 133.171875 437.425781 128.695312 442.949219 128.695312 C 448.472656 128.695312 452.949219 133.171875 452.949219 138.695312 "/>
</svg>