<?xml version="1.0" encoding="UTF-8"?>
<svg xmlns="http://www.w3.org/2000/svg" xmlns:xlink="http://www.w3.org/1999/xlink" width="600" height="600" viewBox="0 0 600 600">
<rect x="-60" y="-60" width="720" height="720" fill="rgb(100%, 100%, 100%)" fill-opacity="1"/>
<path fill="none" stroke-width="2" stroke-linecap="butt" stroke-linejoin="miter" stroke="rgb(26.666667%, 26.666667%, 26.666667%)" stroke-opacity="1" stroke-miterlimit="10" d="M 316.035156 481.394531 L 388.046875 525.964844 "/>
<path fill="none" stroke-width="5" stroke-linecap="butt" stroke-linejoin="miter" stroke="rgb(26.666667%, 26.666667%, 26.666667%)" stroke-opacity="1" stroke-miterlimit="10" d="M 316.035156 481.394531 L 246.746094 526.050781 "/>
<path fill="none" stroke-width="2" stroke-linecap="butt" stroke-linejoin="miter" stroke="rgb(26.666667%, 26.666667%, 26.666667%)" stroke-opacity="1" stroke-miterlimit="10" d="M 316.035156 481.394531 L 311.128906 421.714844 "/>
<path fill="none" stroke-width="3" stroke-linecap="butt" stroke-linejoin="miter" stroke="rgb(26.666667%, 26.666667%, 26.666667%)" stroke-opacity="1" stroke-miterlimit="10" d="M 316.035156 481.394531 L 224.386719 488.828125 "/>
<path fill="none" stroke-width="8" stroke-linecap="butt" stroke-linejoin="miter" stroke="rgb(26.666667%, 26.666667%, 26.666667%)" stroke-opacity="1" stroke-miterlimit="10" d="M 316.035156 481.394531 L 407.585938 480.460938 "/>
<path fill="none" stroke-width="1" stroke-linecap="butt" stroke-linejoin="miter" stroke="rgb(26.666667%, 26.666667%, 26.666667%)" stroke-opacity="1" stroke-miterlimit="10" d="M 270.378906 308.550781 L 321.890625 363.972656 "/>
<path fill="none" stroke-width="2" stroke-linecap="butt" stroke-linejoin="miter" stroke="rgb(26.666667%, 26.666667%, 26.666667%)" stroke-opacity="1" stroke-miterlimit="10" d="M 270.378906 308.550781 L 245.84375 248.199219 "/>
<path fill="none" stroke-width="1" stroke-linecap="butt" stroke-linejoin="miter" stroke="rgb(26.666667%, 26.666667%, 26.666667%)" stroke-opacity="1" stroke-miterlimit="10" d="M 270.378906 308.550781 L 207.894531 341.117188 "/>
<path fill="none" stroke-width="5" stroke-linecap="butt" stroke-linejoin="miter" stroke="rgb(26.666667%, 26.666667%, 26.666667%)" stroke-opacity="1" stroke-miterlimit="10" d="M 270.378906 308.550781 L 167.761719 323.199219 "/>
<path fill="none" stroke-width="3" stroke-linecap="butt" stroke-linejoin="miter" stroke="rgb(26.666667%, 26.666667%, 26.666667%)" stroke-opacity="1" stroke-miterlimit="10" d="M 270.378906 308.550781 L 361.367188 308.492188 "/>
<path fill="none" stroke-width="3" stroke-linecap="butt" stroke-linejoin="miter" stroke="rgb(26.666667%, 26.666667%, 26.666667%)" stroke-opacity="1" stroke-miterlimit="10" d="M 321.890625 363.972656 L 425.503906 366.871094 "/>
<path fill="none" stroke-width="1" stroke-linecap="butt" stroke-linejoin="miter" stroke="rgb(26.666667%, 26.666667%, 26.666667%)" stroke-opacity="1" stroke-miterlimit="10" d="M 321.890625 363.972656 L 311.128906 421.714844 "/>
<path fill="none" stroke-width="6" stroke-linecap="butt" stroke-linejoin="miter" stroke="rgb(26.666667%, 26.666667%, 26.666667%)" stroke-opacity="1" stroke-miterlimit="10" d="M 134.03125 252.886719 L 31.613281 257.402344 "/>
<path fill="none" stroke-width="5" stroke-linecap="butt" stroke-linejoin="miter" stroke="rgb(26.666667%, 26.666667%, 26.666667%)" stroke-opacity="1" stroke-miterlimit="10" d="M 134.03125 252.886719 L 245.84375 248.199219 "/>
<path fill="none" stroke-width="4" stroke-linecap="butt" stroke-linejoin="miter" stroke="rgb(26.666667%, 26.666667%, 26.666667%)" stroke-opacity="1" stroke-miterlimit="10" d="M 388.046875 525.964844 L 486.125 541.734375 "/>
<path fill="none" stroke-width="3" stroke-linecap="butt" stroke-linejoin="miter" stroke="rgb(26.666667%, 26.666667%, 26.666667%)" stroke-opacity="1" stroke-miterlimit="10" d="M 388.046875 525.964844 L 390.847656 580 "/>
<path fill="none" stroke-width="2" stroke-linecap="butt" stroke-linejoin="miter" stroke="rgb(26.666667%, 26.666667%, 26.666667%)" stroke-opacity="1" stroke-miterlimit="10" d="M 246.746094 526.050781 L 172.207031 562 "/>
<path fill="none" stroke-width="5" stroke-linecap="butt" stroke-linejoin="miter" stroke="rgb(26.666667%, 26.666667%, 26.666667%)" stroke-opacity="1" stroke-miterlimit="10" d="M 340.457031 213.316406 L 284.378906 183.558594 "/>
<path fill="none" stroke-width="2" stroke-linecap="butt" stroke-linejoin="miter" stroke="rgb(26.666667%, 26.666667%, 26.666667%)" stroke-opacity="1" stroke-miterlimit="10" d="M 245.84375 248.199219 L 284.378906 183.558594 "/>
<path fill="none" stroke-width="2" stroke-linecap="butt" stroke-linejoin="miter" stroke="rgb(26.666667%, 26.666667%, 26.666667%)" stroke-opacity="1" stroke-miterlimit="10" d="M 204.957031 170.171875 L 284.378906 183.558594 "/>
<path fill="none" stroke-width="1" stroke-linecap="butt" stroke-linejoin="miter" stroke="rgb(26.666667%, 26.666667%, 26.666667%)" stroke-opacity="1" stroke-miterlimit="10" d="M 20 91.480469 L 104.945312 115.707031 "/>
<path fill="none" stroke-width="5" stroke-linecap="butt" stroke-linejoin="miter" stroke="rgb(26.666667%, 26.666667%, 26.666667%)" stroke-opacity="1" stroke-miterlimit="10" d="M 210.179688 197.078125 L 284.378906 183.558594 "/>
<path fill="none" stroke-width="8" stroke-linecap="butt" stroke-linejoin="miter" stroke="rgb(26.666667%, 26.666667%, 26.666667%)" stroke-opacity="1" stroke-miterlimit="10" d="M 286.285156 135.953125 L 284.378906 183.558594 "/>
<path fill="none" stroke-width="9" stroke-linecap="butt" stroke-linejoin="miter" stroke="rgb(26.666667%, 26.666667%, 26.666667%)" stroke-opacity="1" stroke-miterlimit="10" d="M 333.976562 146.703125 L 284.378906 183.558594 "/>
<path fill="none" stroke-width="1" stroke-linecap="butt" stroke-linejoin="miter" stroke="rgb(26.666667%, 26.666667%, 26.666667%)" stroke-opacity="1" stroke-miterlimit="10" d="M 205.238281 130.070312 L 104.945312 115.707031 "/>
<path fill="none" stroke-width="2" stroke-linecap="butt" stroke-linejoin="miter" stroke="rgb(26.666667%, 26.666667%, 26.666667%)" stroke-opacity="1" stroke-miterlimit="10" d="M 205.238281 130.070312 L 284.378906 183.558594 "/>
<path fill="none" stroke-width="4" stroke-linecap="butt" stroke-linejoin="miter" stroke="rgb(26.666667%, 26.666667%, 26.666667%)" stroke-opacity="1" stroke-miterlimit="10" d="M 205.238281 130.070312 L 209.613281 72.820312 "/>
<path fill="none" stroke-width="6" stroke-linecap="butt" stroke-linejoin="miter" stroke="rgb(26.666667%, 26.666667%, 26.666667%)" stroke-opacity="1" stroke-miterlimit="10" d="M 580 132.464844 L 483.808594 127.679688 "/>
<path fill="none" stroke-width="5" stroke-linecap="butt" stroke-linejoin="miter" stroke="rgb(26.666667%, 26.666667%, 26.666667%)" stroke-opacity="1" stroke-miterlimit="10" d="M 519.683594 75.617188 L 483.808594 127.679688 "/>
<path fill="none" stroke-width="2" stroke-linecap="butt" stroke-linejoin="miter" stroke="rgb(26.666667%, 26.666667%, 26.666667%)" stroke-opacity="1" stroke-miterlimit="10" d="M 197.609375 20 L 209.613281 72.820312 "/>
<path fill="none" stroke-width="1" stroke-linecap="butt" stroke-linejoin="miter" stroke="rgb(26.666667%, 26.666667%, 26.666667%)" stroke-opacity="1" stroke-miterlimit="10" d="M 374.933594 194.398438 L 284.378906 183.558594 "/>
<path fill="none" stroke-width="2" stroke-linecap="butt" stroke-linejoin="miter" stroke="rgb(26.666667%, 26.666667%, 26.666667%)" stroke-opacity="1" stroke-miterlimit="10" d="M 395.703125 155.832031 L 483.808594 127.679688 "/>
<path fill="none" stroke-width="1" stroke-linecap="butt" stroke-linejoin="miter" stroke="rgb(26.666667%, 26.666667%, 26.666667%)" stroke-opacity="1" stroke-miterlimit="10" d="M 395.703125 155.832031 L 284.378906 183.558594 "/>
<path fill-rule="nonzero" fill="rgb(100%, 0%, 0%)" fill-opacity="1" stroke-width="1" stroke-linecap="butt" stroke-linejoin="miter" stroke="rgb(0%, 0%, 0%)" stroke-opacity="1" stroke-miterlimit="10" d="M 326.035156 481.394531 C 326.035156 486.917969 321.558594 491.394531 316.035156 491.394531 C 310.515625 491.394531 306.035156 486.917969 306.035156 481.394531 C 306.035156 475.871094 310.515625 471.394531 316.035156 471.394531 C 321.558594 471.394531 326.035156 475.871094 326.035156 481.394531 "/>
<path fill-rule="nonzero" fill="rgb(100%, 0%, 0%)" fill-opacity="1" stroke-width="1" stroke-linecap="butt" stroke-linejoin="miter" stroke="rgb(0%, 0%, 0%)" stroke-opacity="1" stroke-miterlimit="10" d="M 280.378906 308.550781 C 280.378906 314.074219 275.902344 318.550781 270.378906 318.550781 C 264.855469 318.550781 260.378906 314.074219 260.378906 308.550781 C 260.378906 303.027344 264.855469 298.550781 270.378906 298.550781 C 275.902344 298.550781 280.378906 303.027344 280.378906 308.550781 "/>
<path fill-rule="nonzero" fill="rgb(100%, 0%, 0%)" fill-opacity="1" stroke-width="1" stroke-linecap="butt" stroke-linejoin="miter" stroke="rgb(0%, 0%, 0%)" stroke-opacity="1" stroke-miterlimit="10" d="M 331.890625 363.972656 C 331.890625 369.496094 327.414062 373.972656 321.890625 373.972656 C 316.367188 373.972656 311.890625 369.496094 311.890625 363.972656 C 311.890625 358.449219 316.367188 353.972656 321.890625 353.972656 C 327.414062 353.972656 331.890625 358.449219 331.890625 363.972656 "/>
<path fill-rule="nonzero" fill="rgb(100%, 0%, 0%)" fill-opacity="1" stroke-width="1" stroke-linecap="butt" stroke-linejoin="miter" stroke="rgb(0%, 0%, 0%)" stroke-opacity="1" stroke-miterlimit="10" d="M 144.03125 252.886719 C 144.03125 258.410156 139.554688 262.886719 134.03125 262.886719 C 128.507812 262.886719 124.03125 258.410156 124.03125 252.886719 C 124.03125 247.367188 128.507812 242.886719 134.03125 242.886719 C 139.554688 242.886719 144.03125 247.367188 144.03125 252.886719 "/>
<path fill-rule="nonzero" fill="rgb(100%, 0%, 0%)" fill-opacity="1" stroke-width="1" stroke-linecap="butt" stroke-linejoin="miter" stroke="rgb(0%, 0%, 0%)" stroke-opacity="1" stroke-miterlimit="10" d="M 398.046875 525.964844 C 398.046875 531.488281 393.570312 535.964844 388.046875 535.964844 C 382.523438 535.964844 378.046875 531.488281 378.046875 525.964844 C 378.046875 520.441406 382.523438 515.964844 388.046875 515.964844 C 393.570312 515.964844 398.046875 520.441406 398.046875 525.964844 "/>
<path fill-rule="nonzero" fill="rgb(100%, 0%, 0%)" fill-opacity="1" stroke-width="1" stroke-linecap="butt" stroke-linejoin="miter" stroke="rgb(0%, 0%, 0%)" stroke-opacity="1" stroke-miterlimit="10" d="M 256.746094 526.050781 C 256.746094 531.570312 252.269531 536.050781 246.746094 536.050781 C 241.222656 536.050781 236.746094 531.570312 236.746094 526.050781 C 236.746094 520.527344 241.222656 516.050781 246.746094 516.050781 C 252.269531 516.050781 256.746094 520.527344 256.746094 526.050781 "/>
<path fill-rule="nonzero" fill="rgb(100%, 0%, 0%)" fill-opacity="1" stroke-width="1" stroke-linecap="butt" stroke-linejoin="miter" stroke="rgb(0%, 0%, 0%)" stroke-opacity="1" stroke-miterlimit="10" d="M 496.125 541.734375 C 496.125 547.257812 491.648438 551.734375 486.125 551.734375 C 480.601562 551.734375 476.125 547.257812 476.125 541.734375 C 476.125 536.214844 480.601562 531.734375 486.125 531.734375 C 491.648438 531.734375 496.125 536.214844 496.125 541.734375 "/>
<path fill-rule="nonzero" fill="rgb(100%, 0%, 0%)" fill-opacity="1" stroke-width="1" stroke-linecap="butt" stroke-linejoin="miter" stroke="rgb(0%, 0%, 0%)" stroke-opacity="1" stroke-miterlimit="10" d="M 435.503906 366.871094 C 435.503906 372.394531 431.023438 376.871094 425.503906 376.871094 C 419.980469 376.871094 415.503906 372.394531 415.503906 366.871094 C 415.503906 361.351562 419.980469 356.871094 425.503906 356.871094 C 431.023438 356.871094 435.503906 361.351562 435.503906 366.871094 "/>
<path fill-rule="nonzero" fill="rgb(100%, 0%, 0%)" fill-opacity="1" stroke-width="1" stroke-linecap="butt" stroke-linejoin="miter" stroke="rgb(0%, 0%, 0%)" stroke-opacity="1" stroke-miterlimit="10" d="M 321.128906 421.714844 C 321.128906 427.238281 316.652344 431.714844 311.128906 431.714844 C 305.605469 431.714844 301.128906 427.238281 301.128906 421.714844 C 301.128906 416.191406 305.605469 411.714844 311.128906 411.714844 C 316.652344 411.714844 321.128906 416.191406 321.128906 421.714844 "/>
<path fill-rule="nonzero" fill="rgb(100%, 0%, 0%)" fill-opacity="1" stroke-width="1" stroke-linecap="butt" stroke-linejoin="miter" stroke="rgb(0%, 0%, 0%)" stroke-opacity="1" stroke-miterlimit="10" d="M 350.457031 213.316406 C 350.457031 218.839844 345.980469 223.316406 340.457031 223.316406 C 334.933594 223.316406 330.457031 218.839844 330.457031 213.316406 C 330.457031 207.792969 334.933594 203.316406 340.457031 203.316406 C 345.980469 203.316406 350.457031 207.792969 350.457031 213.316406 "/>
<path fill-rule="nonzero" fill="rgb(100%, 0%, 0%)" fill-opacity="1" stroke-width="1" stroke-linecap="butt" stroke-linejoin="miter" stroke="rgb(0%, 0%, 0%)" stroke-opacity="1" stroke-miterlimit="10" d="M 400.847656 580 C 400.847656 585.523438 396.371094 590 390.847656 590 C 385.324219 590 380.847656 585.523438 380.847656 580 C 380.847656 574.476562 385.324219 570 390.847656 570 C 396.371094 570 400.847656 574.476562 400.847656 580 "/>
<path fill-rule="nonzero" fill="rgb(100%, 0%, 0%)" fill-opacity="1" stroke-width="1" stroke-linecap="butt" stroke-linejoin="miter" stroke="rgb(0%, 0%, 0%)" stroke-opacity="1" stroke-miterlimit="10" d="M 234.386719 488.828125 C 234.386719 494.351562 229.910156 498.828125 224.386719 498.828125 C 218.863281 498.828125 214.386719 494.351562 214.386719 488.828125 C 214.386719 483.304688 218.863281 478.828125 224.386719 478.828125 C 229.910156 478.828125 234.386719 483.304688 234.386719 488.828125 "/>
<path fill-rule="nonzero" fill="rgb(100%, 0%, 0%)" fill-opacity="1" stroke-width="1" stroke-linecap="butt" stroke-linejoin="miter" stroke="rgb(0%, 0%, 0%)" stroke-opacity="1" stroke-miterlimit="10" d="M 41.613281 257.402344 C 41.613281 262.925781 37.136719 267.402344 31.613281 267.402344 C 26.089844 267.402344 21.613281 262.925781 21.613281 257.402344 C 21.613281 251.878906 26.089844 247.402344 31.613281 247.402344 C 37.136719 247.402344 41.613281 251.878906 41.613281 257.402344 "/>
<path fill-rule="nonzero" fill="rgb(100%, 0%, 0%)" fill-opacity="1" stroke-width="1" stroke-linecap="butt" stroke-linejoin="miter" stroke="rgb(0%, 0%, 0%)" stroke-opacity="1" stroke-miterlimit="10" d="M 255.84375 248.199219 C 255.84375 253.722656 251.367188 258.199219 245.84375 258.199219 C 240.320312 258.199219 235.84375 253.722656 235.84375 248.199219 C 235.84375 242.675781 240.320312 238.199219 245.84375 238.199219 C 251.367188 238.199219 255.84375 242.675781 255.84375 248.199219 "/>
<path fill-rule="nonzero" fill="rgb(100%, 0%, 0%)" fill-opacity="1" stroke-width="1" stroke-linecap="butt" stroke-linejoin="miter" stroke="rgb(0%, 0%, 0%)" stroke-opacity="1" stroke-miterlimit="10" d="M 214.957031 170.171875 C 214.957031 175.695312 210.480469 180.171875 204.957031 180.171875 C 199.433594 180.171875 194.957031 175.695312 194.957031 170.171875 C 194.957031 164.648438 199.433594 160.171875 204.957031 160.171875 C 210.480469 160.171875 214.957031 164.648438 214.957031 170.171875 "/>
<path fill-rule="nonzero" fill="rgb(100%, 0%, 0%)" fill-opacity="1" stroke-width="1" stroke-linecap="butt" stroke-linejoin="miter" stroke="rgb(0%, 0%, 0%)" stroke-opacity="1" stroke-miterlimit="10" d="M 30 91.480469 C 30 97 25.523438 101.480469 20 101.480469 C 14.476562 101.480469 10 97 10 91.480469 C 10 85.957031 14.476562 81.480469 20 81.480469 C 25.523438 81.480469 30 85.957031 30 91.480469 "/>
<path fill-rule="nonzero" fill="rgb(100%, 0%, 0%)" fill-opacity="1" stroke-width="1" stroke-linecap="butt" stroke-linejoin="miter" stroke="rgb(0%, 0%, 0%)" stroke-opacity="1" stroke-miterlimit="10" d="M 182.207031 562 C 182.207031 567.523438 177.726562 572 172.207031 572 C 166.683594 572 162.207031 567.523438 162.207031 562 C 162.207031 556.476562 166.683594 552 172.207031 552 C 177.726562 552 182.207031 556.476562 182.207031 562 "/>
<path fill-rule="nonzero" fill="rgb(100%, 0%, 0%)" fill-opacity="1" stroke-width="1" stroke-linecap="butt" stroke-linejoin="miter" stroke="rgb(0%, 0%, 0%)" stroke-opacity="1" stroke-miterlimit="10" d="M 417.585938 480.460938 C 417.585938 485.984375 413.109375 490.460938 407.585938 490.460938 C 402.0625 490.460938 397.585938 485.984375 397.585938 480.460938 C 397.585938 474.9375 402.0625 470.460938 407.585938 470.460938 C 413.109375 470.460938 417.585938 474.9375 417.585938 480.460938 "/>
<path fill-rule="nonzero" fill="rgb(100%, 0%, 0%)" fill-opacity="1" stroke-width="1" stroke-linecap="butt" stroke-linejoin="miter" stroke="rgb(0%, 0%, 0%)" stroke-opacity="1" stroke-miterlimit="10" d="M 220.179688 197.078125 C 220.179688 202.601562 215.703125 207.078125 210.179688 207.078125 C 204.660156 207.078125 200.179688 202.601562 200.179688 197.078125 C 200.179688 191.554688 204.660156 187.078125 210.179688 187.078125 C 215.703125 187.078125 220.179688 191.554688 220.179688 197.078125 "/>
<path fill-rule="nonzero" fill="rgb(100%, 0%, 0%)" fill-opacity="1" stroke-width="1" stroke-linecap="butt" stroke-linejoin="miter" stroke="rgb(0%, 0%, 0%)" stroke-opacity="1" stroke-miterlimit="10" d="M 217.894531 341.117188 C 217.894531 346.640625 213.417969 351.117188 207.894531 351.117188 C 202.375 351.117188 197.894531 346.640625 197.894531 341.117188 C 197.894531 335.59375 202.375 331.117188 207.894531 331.117188 C 213.417969 331.117188 217.894531 335.59375 217.894531 341.117188 "/>
<path fill-rule="nonzero" fill="rgb(100%, 0%, 0%)" fill-opacity="1" stroke-width="1" stroke-linecap="butt" stroke-linejoin="miter" stroke="rgb(0%, 0%, 0%)" stroke-opacity="1" stroke-miterlimit="10" d="M 296.285156 135.953125 C 296.285156 141.472656 291.808594 145.953125 286.285156 145.953125 C 280.761719 145.953125 276.285156 141.472656 276.285156 135.953125 C 276.285156 130.429688 280.761719 125.953125 286.285156 125.953125 C 291.808594 125.953125 296.285156 130.429688 296.285156 135.953125 "/>
<path fill-rule="nonzero" fill="rgb(100%, 0%, 0%)" fill-opacity="1" stroke-width="1" stroke-linecap="butt" stroke-linejoin="miter" stroke="rgb(0%, 0%, 0%)" stroke-opacity="1" stroke-miterlimit="10" d="M 177.761719 323.199219 C 177.761719 328.722656 173.28125 333.199219 167.761719 333.199219 C 162.238281 333.199219 157.761719 328.722656 157.761719 323.199219 C 157.761719 317.675781 162.238281 313.199219 167.761719 313.199219 C 173.28125 313.199219 177.761719 317.675781 177.761719 323.199219 "/>
<path fill-rule="nonzero" fill="rgb(100%, 0%, 0%)" fill-opacity="1" stroke-width="1" stroke-linecap="butt" stroke-linejoin="miter" stroke="rgb(0%, 0%, 0%)" stroke-opacity="1" stroke-miterlimit="10" d="M 343.976562 146.703125 C 343.976562 152.222656 339.5 156.703125 333.976562 156.703125 C 328.457031 156.703125 323.976562 152.222656 323.976562 146.703125 C 323.976562 141.179688 328.457031 136.703125 333.976562 136.703125 C 339.5 136.703125 343.976562 141.179688 343.976562 146.703125 "/>
<path fill-rule="nonzero" fill="rgb(100%, 0%, 0%)" fill-opacity="1" stroke-width="1" stroke-linecap="butt" stroke-linejoin="miter" stroke="rgb(0%, 0%, 0%)" stroke-opacity="1" stroke-miterlimit="10" d="M 215.238281 130.070312 C 215.238281 135.59375 210.761719 140.070312 205.238281 140.070312 C 199.714844 140.070312 195.238281 135.59375 195.238281 130.070312 C 195.238281 124.546875 199.714844 120.070312 205.238281 120.070312 C 210.761719 120.070312 215.238281 124.546875 215.238281 130.070312 "/>
<path fill-rule="nonzero" fill="rgb(100%, 0%, 0%)" fill-opacity="1" stroke-width="1" stroke-linecap="butt" stroke-linejoin="miter" stroke="rgb(0%, 0%, 0%)" stroke-opacity="1" stroke-miterlimit="10" d="M 590 132.464844 C 590 137.988281 585.523438 142.464844 580 142.464844 C 574.476562 142.464844 570 137.988281 570 132.464844 C 570 126.941406 574.476562 122.464844 580 122.464844 C 585.523438 122.464844 590 126.941406 590 132.464844 "/>
<path fill-rule="nonzero" fill="rgb(100%, 0%, 0%)" fill-opacity="1" stroke-width="1" stroke-linecap="butt" stroke-linejoin="miter" stroke="rgb(0%, 0%, 0%)" stroke-opacity="1" stroke-miterlimit="10" d="M 529.683594 75.617188 C 529.683594 81.140625 525.207031 85.617188 519.683594 85.617188 C 514.164062 85.617188 509.683594 81.140625 509.683594 75.617188 C 509.683594 70.09375 514.164062 65.617188 519.683594 65.617188 C 525.207031 65.617188 529.683594 70.09375 529.683594 75.617188 "/>
<path fill-rule="nonzero" fill="rgb(100%, 0%, 0%)" fill-opacity="1" stroke-width="1" stroke-linecap="butt" stroke-linejoin="miter" stroke="rgb(0%, 0%, 0%)" stroke-opacity="1" stroke-miterlimit="10" d="M 207.609375 20 C 207.609375 25.523438 203.132812 30 197.609375 30 C 192.089844 30 187.609375 25.523438 187.609375 20 C 187.609375 14.476562 192.089844 10 197.609375 10 C 203.132812 10 207.609375 14.476562 207.609375 20 "/>
<path fill-rule="nonzero" fill="rgb(100%, 0%, 0%)" fill-opacity="1" stroke-width="1" stroke-linecap="butt" stroke-linejoin="miter" stroke="rgb(0%, 0%, 0%)" stroke-opacity="1" stroke-miterlimit="10" d="M 384.933594 194.398438 C 384.933594 199.921875 380.453125 204.398438 374.933594 204.398438 C 369.410156 204.398438 364.933594 199.921875 364.933594 194.398438 C 364.933594 188.875 369.410156 184.398438 374.933594 184.398438 C 380.453125 184.398438 384.933594 188.875 384.933594 194.398438 "/>
<path fill-rule="nonzero" fill="rgb(100%, 0%, 0%)" fill-opacity="1" stroke-width="1" stroke-linecap="butt" stroke-linejoin="miter" stroke="rgb(0%, 0%, 0%)" stroke-opacity="1" stroke-miterlimit="10" d="M 405.703125 155.832031 C 405.703125 161.355469 401.226562 165.832031 395.703125 165.832031 C 390.183594 165.832031 385.703125 161.355469 385.703125 155.832031 C 385.703125 150.308594 390.183594 145.832031 395.703125 145.832031 C 401.226562 145.832031 405.703125 150.308594 405.703125 155.832031 "/>
<path fill-rule="nonzero" fill="rgb(100%, 0%, 0%)" fill-opacity="1" stroke-width="1" stroke-linecap="butt" stroke-linejoin="miter" stroke="rgb(0%, 0%, 0%)" stroke-opacity="1" stroke-miterlimit="10" d="M 219.613281 72.820312 C 219.613281 78.34375 215.136719 82.820312 209.613281 82.820312 C 204.089844 82.820312 199.613281 78.34375 199.613281 72.820312 C 199.613281 67.296875 204.089844 62.820312 209.613281 62.820312 C 215.136719 62.820312 219.613281 67.296875 219.613281 72.820312 "/>
<path fill-rule="nonzero" fill="rgb(100%, 0%, 0%)" fill-opacity="1" stroke-width="1" stroke-linecap="butt" stroke-linejoin="miter" stroke="rgb(0%, 0%, 0%)" stroke-opacity="1" stroke-miterlimit="10" d="M 371.367188 308.492188 C 371.367188 314.015625 366.890625 318.492188 361.367188 318.492188 C 355.84375 318.492188 351.367188 314.015625 351.367188 308.492188 C 351.367188 302.96875 355.84375 298.492188 361.367188 298.492188 C 366.890625 298.492188 371.367188 302.96875 371.367188 308.492188 "/>
<path fill-rule="nonzero" fill="rgb(100%, 0%, 0%)" fill-opacity="1" stroke-width="1" stroke-linecap="butt" stroke-linejoin="miter" stroke="rgb(0%, 0%, 0%)" stroke-opacity="1" stroke-miterlimit="10" d="M 493.808594 127.679688 C 493.808594 133.203125 489.332031 137.679688 483.808594 137.679688 C 478.285156 137.679688 473.808594 133.203125 473.808594 127.679688 C 473.808594 122.15625 478.285156 117.679688 483.808594 117.679688 C 489.332031 117.679688 493.808594 122.15625 493.808594 127.679688 "/>
<path fill-rule="nonzero" fill="rgb(100%, 0%, 0%)" fill-opacity="1" stroke-width="1" stroke-linecap="butt" stroke-linejoin="miter" stroke="rgb(0%, 0%, 0%)" stroke-opacity="1" stroke-miterlimit="10" d="M 114.945312 115.707031 C 114.945312 121.230469 110.46875 125.707031 104.945312 125.707031 C 99.421875 125.707031 94.945312 121.230469 94.945312 115.707031 C 94.945312 110.183594 99.421875 105.707031 104.945312 105.707031 C 110.46875 105.707031 114.945312 110.183594 114.945312 115.707031 "/>
<path fill-rule="nonzero" fill="rgb(100%, 0%, 0%)" fill-opacity="1" stroke-width="1" stroke-linecap="butt" stroke-linejoin="miter" stroke="rgb(0%, 0%, 0%)" stroke-opacity="1" stroke-miterlimit="10" d="M 294.378906 183.558594 C 294.378906 189.082031 289.898438 193.558594 284.378906 193.558594 C 278.855469 193.558594 274.378906 189.082031 274.378906 183.558594 C 274.378906 178.035156 278.855469 173.558594 284.378906 173.558594 C 289.898438 173.558594 294.378906 178.035156 294.378906 183.558594 "/>
</svg>