<?xml version="1.0" encoding="UTF-8"?>
<svg xmlns="http://www.w3.org/2000/svg" xmlns:xlink="http://www.w3.org/1999/xlink" width="600" height="600" viewBox="0 0 600 600">
<rect x="-60" y="-60" width="720" height="720" fill="rgb(100%, 100%, 100%)" fill-opacity="1"/>
<path fill="none" stroke-width="1" stroke-linecap="butt" stroke-linejoin="miter" stroke="rgb(26.666667%, 26.666667%, 26.666667%)" stroke-opacity="1" stroke-miterlimit="10" d="M 271.023438 512.027344 L 299.394531 447.027344 "/>
<path fill="none" stroke-width="1" stroke-linecap="butt" stroke-linejoin="miter" stroke="rgb(26.666667%, 26.666667%, 26.666667%)" stroke-opacity="1" stroke-miterlimit="10" d="M 271.023438 512.027344 L 390.21875 518.765625 "/>
<path fill="none" stroke-width="4" stroke-linecap="butt" stroke-linejoin="miter" stroke="rgb(26.666667%, 26.666667%, 26.666667%)" stroke-opacity="1" stroke-miterlimit="10" d="M 271.023438 512.027344 L 135.441406 542.15625 "/>
<path fill="none" stroke-width="3" stroke-linecap="butt" stroke-linejoin="miter" stroke="rgb(26.666667%, 26.666667%, 26.666667%)" stroke-opacity="1" stroke-miterlimit="10" d="M 271.023438 512.027344 L 334.148438 561.199219 "/>
<path fill="none" stroke-width="7" stroke-linecap="butt" stroke-linejoin="miter" stroke="rgb(26.666667%, 26.666667%, 26.666667%)" stroke-opacity="1" stroke-miterlimit="10" d="M 271.023438 512.027344 L 208.324219 551.171875 "/>
<path fill="none" stroke-width="1" stroke-linecap="butt" stroke-linejoin="miter" stroke="rgb(26.666667%, 26.666667%, 26.666667%)" stroke-opacity="1" stroke-miterlimit="10" d="M 271.023438 512.027344 L 153.199219 507.851562 "/>
<path fill="none" stroke-width="8" stroke-linecap="butt" stroke-linejoin="miter" stroke="rgb(26.666667%, 26.666667%, 26.666667%)" stroke-opacity="1" stroke-miterlimit="10" d="M 271.023438 512.027344 L 267.324219 568.378906 "/>
<path fill="none" stroke-width="1" stroke-linecap="butt" stroke-linejoin="miter" stroke="rgb(26.666667%, 26.666667%, 26.666667%)" stroke-opacity="1" stroke-miterlimit="10" d="M 271.023438 512.027344 L 391.03125 545.441406 "/>
<path fill="none" stroke-width="2" stroke-linecap="butt" stroke-linejoin="miter" stroke="rgb(26.666667%, 26.666667%, 26.666667%)" stroke-opacity="1" stroke-miterlimit="10" d="M 299.394531 447.027344 L 393.722656 456.65625 "/>
<path fill="none" stroke-width="4" stroke-linecap="butt" stroke-linejoin="miter" stroke="rgb(26.666667%, 26.666667%, 26.666667%)" stroke-opacity="1" stroke-miterlimit="10" d="M 299.394531 447.027344 L 453.550781 441.628906 "/>
<path fill="none" stroke-width="2" stroke-linecap="butt" stroke-linejoin="miter" stroke="rgb(26.666667%, 26.666667%, 26.666667%)" stroke-opacity="1" stroke-miterlimit="10" d="M 299.394531 447.027344 L 203.207031 451.570312 "/>
<path fill="none" stroke-width="3" stroke-linecap="butt" stroke-linejoin="miter" stroke="rgb(26.666667%, 26.666667%, 26.666667%)" stroke-opacity="1" stroke-miterlimit="10" d="M 299.394531 447.027344 L 378.710938 415.472656 "/>
<path fill="none" stroke-width="1" stroke-linecap="butt" stroke-linejoin="miter" stroke="rgb(26.666667%, 26.666667%, 26.666667%)" stroke-opacity="1" stroke-miterlimit="10" d="M 299.394531 447.027344 L 224.238281 391.796875 "/>
<path fill="none" stroke-width="1" stroke-linecap="butt" stroke-linejoin="miter" stroke="rgb(26.666667%, 26.666667%, 26.666667%)" stroke-opacity="1" stroke-miterlimit="10" d="M 580 450.164062 L 453.550781 441.628906 "/>
<path fill="none" stroke-width="3" stroke-linecap="butt" stroke-linejoin="miter" stroke="rgb(26.666667%, 26.666667%, 26.666667%)" stroke-opacity="1" stroke-miterlimit="10" d="M 135.441406 542.15625 L 44.386719 580 "/>
<path fill="none" stroke-width="3" stroke-linecap="butt" stroke-linejoin="miter" stroke="rgb(26.666667%, 26.666667%, 26.666667%)" stroke-opacity="1" stroke-miterlimit="10" d="M 96.550781 409.132812 L 224.238281 391.796875 "/>
<path fill="none" stroke-width="2" stroke-linecap="butt" stroke-linejoin="miter" stroke="rgb(26.666667%, 26.666667%, 26.666667%)" stroke-opacity="1" stroke-miterlimit="10" d="M 428.578125 238.449219 L 300.117188 226.429688 "/>
<path fill="none" stroke-width="3" stroke-linecap="butt" stroke-linejoin="miter" stroke="rgb(26.666667%, 26.666667%, 26.666667%)" stroke-opacity="1" stroke-miterlimit="10" d="M 61.511719 305.230469 L 176.078125 335.902344 "/>
<path fill="none" stroke-width="1" stroke-linecap="butt" stroke-linejoin="miter" stroke="rgb(26.666667%, 26.666667%, 26.666667%)" stroke-opacity="1" stroke-miterlimit="10" d="M 64.691406 352.179688 L 176.078125 335.902344 "/>
<path fill="none" stroke-width="5" stroke-linecap="butt" stroke-linejoin="miter" stroke="rgb(26.666667%, 26.666667%, 26.666667%)" stroke-opacity="1" stroke-miterlimit="10" d="M 20 331.445312 L 176.078125 335.902344 "/>
<path fill="none" stroke-width="3" stroke-linecap="butt" stroke-linejoin="miter" stroke="rgb(26.666667%, 26.666667%, 26.666667%)" stroke-opacity="1" stroke-miterlimit="10" d="M 188.667969 206.789062 L 300.117188 226.429688 "/>
<path fill="none" stroke-width="4" stroke-linecap="butt" stroke-linejoin="miter" stroke="rgb(26.666667%, 26.666667%, 26.666667%)" stroke-opacity="1" stroke-miterlimit="10" d="M 145.164062 301.390625 L 176.078125 335.902344 "/>
<path fill="none" stroke-width="2" stroke-linecap="butt" stroke-linejoin="miter" stroke="rgb(26.666667%, 26.666667%, 26.666667%)" stroke-opacity="1" stroke-miterlimit="10" d="M 258.046875 283.234375 L 176.078125 335.902344 "/>
<path fill="none" stroke-width="2" stroke-linecap="butt" stroke-linejoin="miter" stroke="rgb(26.666667%, 26.666667%, 26.666667%)" stroke-opacity="1" stroke-miterlimit="10" d="M 258.046875 283.234375 L 300.117188 226.429688 "/>
<path fill="none" stroke-width="3" stroke-linecap="butt" stroke-linejoin="miter" stroke="rgb(26.666667%, 26.666667%, 26.666667%)" stroke-opacity="1" stroke-miterlimit="10" d="M 342.941406 114.464844 L 458.695312 90.292969 "/>
<path fill="none" stroke-width="4" stroke-linecap="butt" stroke-linejoin="miter" stroke="rgb(26.666667%, 26.666667%, 26.666667%)" stroke-opacity="1" stroke-miterlimit="10" d="M 342.941406 114.464844 L 284.363281 166.070312 "/>
<path fill="none" stroke-width="2" stroke-linecap="butt" stroke-linejoin="miter" stroke="rgb(26.666667%, 26.666667%, 26.666667%)" stroke-opacity="1" stroke-miterlimit="10" d="M 342.941406 114.464844 L 275.875 66.109375 "/>
<path fill="none" stroke-width="3" stroke-linecap="butt" stroke-linejoin="miter" stroke="rgb(26.666667%, 26.666667%, 26.666667%)" stroke-opacity="1" stroke-miterlimit="10" d="M 165.296875 140.304688 L 284.363281 166.070312 "/>
<path fill="none" stroke-width="1" stroke-linecap="butt" stroke-linejoin="miter" stroke="rgb(26.666667%, 26.666667%, 26.666667%)" stroke-opacity="1" stroke-miterlimit="10" d="M 458.695312 90.292969 L 555.183594 59.527344 "/>
<path fill="none" stroke-width="6" stroke-linecap="butt" stroke-linejoin="miter" stroke="rgb(26.666667%, 26.666667%, 26.666667%)" stroke-opacity="1" stroke-miterlimit="10" d="M 219.3125 20 L 275.875 66.109375 "/>
<path fill="none" stroke-width="1" stroke-linecap="butt" stroke-linejoin="miter" stroke="rgb(26.666667%, 26.666667%, 26.666667%)" stroke-opacity="1" stroke-miterlimit="10" d="M 284.363281 166.070312 L 300.117188 226.429688 "/>
<path fill="none" stroke-width="4" stroke-linecap="butt" stroke-linejoin="miter" stroke="rgb(26.666667%, 26.666667%, 26.666667%)" stroke-opacity="1" stroke-miterlimit="10" d="M 410.5625 209.441406 L 300.117188 226.429688 "/>
<path fill="none" stroke-width="4" stroke-linecap="butt" stroke-linejoin="miter" stroke="rgb(26.666667%, 26.666667%, 26.666667%)" stroke-opacity="1" stroke-miterlimit="10" d="M 224.238281 391.796875 L 176.078125 335.902344 "/>
<path fill-rule="nonzero" fill="rgb(100%, 0%, 0%)" fill-opacity="1" stroke-width="1" stroke-linecap="butt" stroke-linejoin="miter" stroke="rgb(0%, 0%, 0%)" stroke-opacity="1" stroke-miterlimit="10" d="M 281.023438 512.027344 C 281.023438 517.546875 276.546875 522.027344 271.023438 522.027344 C 265.5 522.027344 261.023438 517.546875 261.023438 512.027344 C 261.023438 506.503906 265.5 502.027344 271.023438 502.027344 C 276.546875 502.027344 281.023438 506.503906 281.023438 512.027344 "/>
<path fill-rule="nonzero" fill="rgb(100%, 0%, 0%)" fill-opacity="1" stroke-width="1" stroke-linecap="butt" stroke-linejoin="miter" stroke="rgb(0%, 0%, 0%)" stroke-opacity="1" stroke-miterlimit="10" d="M 309.394531 447.027344 C 309.394531 452.546875 304.917969 457.027344 299.394531 457.027344 C 293.871094 457.027344 289.394531 452.546875 289.394531 447.027344 C 289.394531 441.503906 293.871094 437.027344 299.394531 437.027344 C 304.917969 437.027344 309.394531 441.503906 309.394531 447.027344 "/>
<path fill-rule="nonzero" fill="rgb(100%, 0%, 0%)" fill-opacity="1" stroke-width="1" stroke-linecap="butt" stroke-linejoin="miter" stroke="rgb(0%, 0%, 0%)" stroke-opacity="1" stroke-miterlimit="10" d="M 590 450.164062 C 590 455.6875 585.523438 460.164062 580 460.164062 C 574.476562 460.164062 570 455.6875 570 450.164062 C 570 444.640625 574.476562 440.164062 580 440.164062 C 585.523438 440.164062 590 444.640625 590 450.164062 "/>
<path fill-rule="nonzero" fill="rgb(100%, 0%, 0%)" fill-opacity="1" stroke-width="1" stroke-linecap="butt" stroke-linejoin="miter" stroke="rgb(0%, 0%, 0%)" stroke-opacity="1" stroke-miterlimit="10" d="M 403.722656 456.65625 C 403.722656 462.179688 399.246094 466.65625 393.722656 466.65625 C 388.199219 466.65625 383.722656 462.179688 383.722656 456.65625 C 383.722656 451.132812 388.199219 446.65625 393.722656 446.65625 C 399.246094 446.65625 403.722656 451.132812 403.722656 456.65625 "/>
<path fill-rule="nonzero" fill="rgb(100%, 0%, 0%)" fill-opacity="1" stroke-width="1" stroke-linecap="butt" stroke-linejoin="miter" stroke="rgb(0%, 0%, 0%)" stroke-opacity="1" stroke-miterlimit="10" d="M 400.21875 518.765625 C 400.21875 524.285156 395.742188 528.765625 390.21875 528.765625 C 384.695312 528.765625 380.21875 524.285156 380.21875 518.765625 C 380.21875 513.242188 384.695312 508.765625 390.21875 508.765625 C 395.742188 508.765625 400.21875 513.242188 400.21875 518.765625 "/>
<path fill-rule="nonzero" fill="rgb(100%, 0%, 0%)" fill-opacity="1" stroke-width="1" stroke-linecap="butt" stroke-linejoin="miter" stroke="rgb(0%, 0%, 0%)" stroke-opacity="1" stroke-miterlimit="10" d="M 145.441406 542.15625 C 145.441406 547.679688 140.964844 552.15625 135.441406 552.15625 C 129.917969 552.15625 125.441406 547.679688 125.441406 542.15625 C 125.441406 536.632812 129.917969 532.15625 135.441406 532.15625 C 140.964844 532.15625 145.441406 536.632812 145.441406 542.15625 "/>
<path fill-rule="nonzero" fill="rgb(100%, 0%, 0%)" fill-opacity="1" stroke-width="1" stroke-linecap="butt" stroke-linejoin="miter" stroke="rgb(0%, 0%, 0%)" stroke-opacity="1" stroke-miterlimit="10" d="M 344.148438 561.199219 C 344.148438 566.722656 339.671875 571.199219 334.148438 571.199219 C 328.628906 571.199219 324.148438 566.722656 324.148438 561.199219 C 324.148438 555.675781 328.628906 551.199219 334.148438 551.199219 C 339.671875 551.199219 344.148438 555.675781 344.148438 561.199219 "/>
<path fill-rule="nonzero" fill="rgb(100%, 0%, 0%)" fill-opacity="1" stroke-width="1" stroke-linecap="butt" stroke-linejoin="miter" stroke="rgb(0%, 0%, 0%)" stroke-opacity="1" stroke-miterlimit="10" d="M 463.550781 441.628906 C 463.550781 447.152344 459.074219 451.628906 453.550781 451.628906 C 448.027344 451.628906 443.550781 447.152344 443.550781 441.628906 C 443.550781 436.109375 448.027344 431.628906 453.550781 431.628906 C 459.074219 431.628906 463.550781 436.109375 463.550781 441.628906 "/>
<path fill-rule="nonzero" fill="rgb(100%, 0%, 0%)" fill-opacity="1" stroke-width="1" stroke-linecap="butt" stroke-linejoin="miter" stroke="rgb(0%, 0%, 0%)" stroke-opacity="1" stroke-miterlimit="10" d="M 106.550781 409.132812 C 106.550781 414.65625 102.074219 419.132812 96.550781 419.132812 C 91.027344 419.132812 86.550781 414.65625 86.550781 409.132812 C 86.550781 403.609375 91.027344 399.132812 96.550781 399.132812 C 102.074219 399.132812 106.550781 403.609375 106.550781 409.132812 "/>
<path fill-rule="nonzero" fill="rgb(100%, 0%, 0%)" fill-opacity="1" stroke-width="1" stroke-linecap="butt" stroke-linejoin="miter" stroke="rgb(0%, 0%, 0%)" stroke-opacity="1" stroke-miterlimit="10" d="M 438.578125 238.449219 C 438.578125 243.972656 434.101562 248.449219 428.578125 248.449219 C 423.054688 248.449219 418.578125 243.972656 418.578125 238.449219 C 418.578125 232.929688 423.054688 228.449219 428.578125 228.449219 C 434.101562 228.449219 438.578125 232.929688 438.578125 238.449219 "/>
<path fill-rule="nonzero" fill="rgb(100%, 0%, 0%)" fill-opacity="1" stroke-width="1" stroke-linecap="butt" stroke-linejoin="miter" stroke="rgb(0%, 0%, 0%)" stroke-opacity="1" stroke-miterlimit="10" d="M 218.324219 551.171875 C 218.324219 556.695312 213.84375 561.171875 208.324219 561.171875 C 202.800781 561.171875 198.324219 556.695312 198.324219 551.171875 C 198.324219 545.652344 202.800781 541.171875 208.324219 541.171875 C 213.84375 541.171875 218.324219 545.652344 218.324219 551.171875 "/>
<path fill-rule="nonzero" fill="rgb(100%, 0%, 0%)" fill-opacity="1" stroke-width="1" stroke-linecap="butt" stroke-linejoin="miter" stroke="rgb(0%, 0%, 0%)" stroke-opacity="1" stroke-miterlimit="10" d="M 163.199219 507.851562 C 163.199219 513.375 158.722656 517.851562 153.199219 517.851562 C 147.679688 517.851562 143.199219 513.375 143.199219 507.851562 C 143.199219 502.328125 147.679688 497.851562 153.199219 497.851562 C 158.722656 497.851562 163.199219 502.328125 163.199219 507.851562 "/>
<path fill-rule="nonzero" fill="rgb(100%, 0%, 0%)" fill-opacity="1" stroke-width="1" stroke-linecap="butt" stroke-linejoin="miter" stroke="rgb(0%, 0%, 0%)" stroke-opacity="1" stroke-miterlimit="10" d="M 277.324219 568.378906 C 277.324219 573.898438 272.84375 578.378906 267.324219 578.378906 C 261.800781 578.378906 257.324219 573.898438 257.324219 568.378906 C 257.324219 562.855469 261.800781 558.378906 267.324219 558.378906 C 272.84375 558.378906 277.324219 562.855469 277.324219 568.378906 "/>
<path fill-rule="nonzero" fill="rgb(100%, 0%, 0%)" fill-opacity="1" stroke-width="1" stroke-linecap="butt" stroke-linejoin="miter" stroke="rgb(0%, 0%, 0%)" stroke-opacity="1" stroke-miterlimit="10" d="M 213.207031 451.570312 C 213.207031 457.09375 208.730469 461.570312 203.207031 461.570312 C 197.683594 461.570312 193.207031 457.09375 193.207031 451.570312 C 193.207031 446.046875 197.683594 441.570312 203.207031 441.570312 C 208.730469 441.570312 213.207031 446.046875 213.207031 451.570312 "/>
<path fill-rule="nonzero" fill="rgb(100%, 0%, 0%)" fill-opacity="1" stroke-width="1" stroke-linecap="butt" stroke-linejoin="miter" stroke="rgb(0%, 0%, 0%)" stroke-opacity="1" stroke-miterlimit="10" d="M 71.511719 305.230469 C 71.511719 310.753906 67.03125 315.230469 61.511719 315.230469 C 55.988281 315.230469 51.511719 310.753906 51.511719 305.230469 C 51.511719 299.707031 55.988281 295.230469 61.511719 295.230469 C 67.03125 295.230469 71.511719 299.707031 71.511719 305.230469 "/>
<path fill-rule="nonzero" fill="rgb(100%, 0%, 0%)" fill-opacity="1" stroke-width="1" stroke-linecap="butt" stroke-linejoin="miter" stroke="rgb(0%, 0%, 0%)" stroke-opacity="1" stroke-miterlimit="10" d="M 74.691406 352.179688 C 74.691406 357.703125 70.210938 362.179688 64.691406 362.179688 C 59.167969 362.179688 54.691406 357.703125 54.691406 352.179688 C 54.691406 346.65625 59.167969 342.179688 64.691406 342.179688 C 70.210938 342.179688 74.691406 346.65625 74.691406 352.179688 "/>
<path fill-rule="nonzero" fill="rgb(100%, 0%, 0%)" fill-opacity="1" stroke-width="1" stroke-linecap="butt" stroke-linejoin="miter" stroke="rgb(0%, 0%, 0%)" stroke-opacity="1" stroke-miterlimit="10" d="M 54.386719 580 C 54.386719 585.523438 49.910156 590 44.386719 590 C 38.863281 590 34.386719 585.523438 34.386719 580 C 34.386719 574.476562 38.863281 570 44.386719 570 C 49.910156 570 54.386719 574.476562 54.386719 580 "/>
<path fill-rule="nonzero" fill="rgb(100%, 0%, 0%)" fill-opacity="1" stroke-width="1" stroke-linecap="butt" stroke-linejoin="miter" stroke="rgb(0%, 0%, 0%)" stroke-opacity="1" stroke-miterlimit="10" d="M 388.710938 415.472656 C 388.710938 420.992188 384.234375 425.472656 378.710938 425.472656 C 373.1875 425.472656 368.710938 420.992188 368.710938 415.472656 C 368.710938 409.949219 373.1875 405.472656 378.710938 405.472656 C 384.234375 405.472656 388.710938 409.949219 388.710938 415.472656 "/>
<path fill-rule="nonzero" fill="rgb(100%, 0%, 0%)" fill-opacity="1" stroke-width="1" stroke-linecap="butt" stroke-linejoin="miter" stroke="rgb(0%, 0%, 0%)" stroke-opacity="1" stroke-miterlimit="10" d="M 30 331.445312 C 30 336.96875 25.523438 341.445312 20 341.445312 C 14.476562 341.445312 10 336.96875 10 331.445312 C 10 325.925781 14.476562 321.445312 20 321.445312 C 25.523438 321.445312 30 325.925781 30 331.445312 "/>
<path fill-rule="nonzero" fill="rgb(100%, 0%, 0%)" fill-opacity="1" stroke-width="1" stroke-linecap="butt" stroke-linejoin="miter" stroke="rgb(0%, 0%, 0%)" stroke-opacity="1" stroke-miterlimit="10" d="M 198.667969 206.789062 C 198.667969 212.3125 194.191406 216.789062 188.667969 216.789062 C 183.144531 216.789062 178.667969 212.3125 178.667969 206.789062 C 178.667969 201.265625 183.144531 196.789062 188.667969 196.789062 C 194.191406 196.789062 198.667969 201.265625 198.667969 206.789062 "/>
<path fill-rule="nonzero" fill="rgb(100%, 0%, 0%)" fill-opacity="1" stroke-width="1" stroke-linecap="butt" stroke-linejoin="miter" stroke="rgb(0%, 0%, 0%)" stroke-opacity="1" stroke-miterlimit="10" d="M 155.164062 301.390625 C 155.164062 306.910156 150.6875 311.390625 145.164062 311.390625 C 139.640625 311.390625 135.164062 306.910156 135.164062 301.390625 C 135.164062 295.867188 139.640625 291.390625 145.164062 291.390625 C 150.6875 291.390625 155.164062 295.867188 155.164062 301.390625 "/>
<path fill-rule="nonzero" fill="rgb(100%, 0%, 0%)" fill-opacity="1" stroke-width="1" stroke-linecap="butt" stroke-linejoin="miter" stroke="rgb(0%, 0%, 0%)" stroke-opacity="1" stroke-miterlimit="10" d="M 401.03125 545.441406 C 401.03125 550.964844 396.554688 555.441406 391.03125 555.441406 C 385.507812 555.441406 381.03125 550.964844 381.03125 545.441406 C 381.03125 539.917969 385.507812 535.441406 391.03125 535.441406 C 396.554688 535.441406 401.03125 539.917969 401.03125 545.441406 "/>
<path fill-rule="nonzero" fill="rgb(100%, 0%, 0%)" fill-opacity="1" stroke-width="1" stroke-linecap="butt" stroke-linejoin="miter" stroke="rgb(0%, 0%, 0%)" stroke-opacity="1" stroke-miterlimit="10" d="M 268.046875 283.234375 C 268.046875 288.757812 263.570312 293.234375 258.046875 293.234375 C 252.523438 293.234375 248.046875 288.757812 248.046875 283.234375 C 248.046875 277.714844 252.523438 273.234375 258.046875 273.234375 C 263.570312 273.234375 268.046875 277.714844 268.046875 283.234375 "/>
<path fill-rule="nonzero" fill="rgb(100%, 0%, 0%)" fill-opacity="1" stroke-width="1" stroke-linecap="butt" stroke-linejoin="miter" stroke="rgb(0%, 0%, 0%)" stroke-opacity="1" stroke-miterlimit="10" d="M 352.941406 114.464844 C 352.941406 119.988281 348.464844 124.464844 342.941406 124.464844 C 337.417969 124.464844 332.941406 119.988281 332.941406 114.464844 C 332.941406 108.941406 337.417969 104.464844 342.941406 104.464844 C 348.464844 104.464844 352.941406 108.941406 352.941406 114.464844 "/>
<path fill-rule="nonzero" fill="rgb(100%, 0%, 0%)" fill-opacity="1" stroke-width="1" stroke-linecap="butt" stroke-linejoin="miter" stroke="rgb(0%, 0%, 0%)" stroke-opacity="1" stroke-miterlimit="10" d="M 175.296875 140.304688 C 175.296875 145.828125 170.820312 150.304688 165.296875 150.304688 C 159.777344 150.304688 155.296875 145.828125 155.296875 140.304688 C 155.296875 134.78125 159.777344 130.304688 165.296875 130.304688 C 170.820312 130.304688 175.296875 134.78125 175.296875 140.304688 "/>
<path fill-rule="nonzero" fill="rgb(100%, 0%, 0%)" fill-opacity="1" stroke-width="1" stroke-linecap="butt" stroke-linejoin="miter" stroke="rgb(0%, 0%, 0%)" stroke-opacity="1" stroke-miterlimit="10" d="M 468.695312 90.292969 C 468.695312 95.816406 464.21875 100.292969 458.695312 100.292969 C 453.171875 100.292969 448.695312 95.816406 448.695312 90.292969 C 448.695312 84.769531 453.171875 80.292969 458.695312 80.292969 C 464.21875 80.292969 468.695312 84.769531 468.695312 90.292969 "/>
<path fill-rule="nonzero" fill="rgb(100%, 0%, 0%)" fill-opacity="1" stroke-width="1" stroke-linecap="butt" stroke-linejoin="miter" stroke="rgb(0%, 0%, 0%)" stroke-opacity="1" stroke-miterlimit="10" d="M 229.3125 20 C 229.3125 25.523438 224.835938 30 219.3125 30 C 213.789062 30 209.3125 25.523438 209.3125 20 C 209.3125 14.476562 213.789062 10 219.3125 10 C 224.835938 10 229.3125 14.476562 229.3125 20 "/>
<path fill-rule="nonzero" fill="rgb(100%, 0%, 0%)" fill-opacity="1" stroke-width="1" stroke-linecap="butt" stroke-linejoin="miter" stroke="rgb(0%, 0%, 0%)" stroke-opacity="1" stroke-miterlimit="10" d="M 294.363281 166.070312 C 294.363281 171.59375 289.886719 176.070312 284.363281 176.070312 C 278.839844 176.070312 274.363281 171.59375 274.363281 166.070312 C 274.363281 160.546875 278.839844 156.070312 284.363281 156.070312 C 289.886719 156.070312 294.363281 160.546875 294.363281 166.070312 "/>
<path fill-rule="nonzero" fill="rgb(100%, 0%, 0%)" fill-opacity="1" stroke-width="1" stroke-linecap="butt" stroke-linejoin="miter" stroke="rgb(0%, 0%, 0%)" stroke-opacity="1" stroke-miterlimit="10" d="M 420.5625 209.441406 C 420.5625 214.964844 416.085938 219.441406 410.5625 219.441406 C 405.042969 219.441406 400.5625 214.964844 400.5625 209.441406 C 400.5625 203.917969 405.042969 199.441406 410.5625 199.441406 C 416.085938 199.441406 420.5625 203.917969 420.5625 209.441406 "/>
<path fill-rule="nonzero" fill="rgb(100%, 0%, 0%)" fill-opacity="1" stroke-width="1" stroke-linecap="butt" stroke-linejoin="miter" stroke="rgb(0%, 0%, 0%)" stroke-opacity="1" stroke-miterlimit="10" d="M 285.875 66.109375 C 285.875 71.632812 281.394531 76.109375 275.875 76.109375 C 270.351562 76.109375 265.875 71.632812 265.875 66.109375 C 265.875 60.585938 270.351562 56.109375 275.875 56.109375 C 281.394531 56.109375 285.875 60.585938 285.875 66.109375 "/>
<path fill-rule="nonzero" fill="rgb(100%, 0%, 0%)" fill-opacity="1" stroke-width="1" stroke-linecap="butt" stroke-linejoin="miter" stroke="rgb(0%, 0%, 0%)" stroke-opacity="1" stroke-miterlimit="10" d="M 234.238281 391.796875 C 234.238281 397.320312 229.761719 401.796875 224.238281 401.796875 C 218.714844 401.796875 214.238281 397.320312 214.238281 391.796875 C 214.238281 386.273438 218.714844 381.796875 224.238281 381.796875 C 229.761719 381.796875 234.238281 386.273438 234.238281 391.796875 "/>
<path fill-rule="nonzero" fill="rgb(100%, 0%, 0%)" fill-opacity="1" stroke-width="1" stroke-linecap="butt" stroke-linejoin="miter" stroke="rgb(0%, 0%, 0%)" stroke-opacity="1" stroke-miterlimit="10" d="M 565.183594 59.527344 C 565.183594 65.050781 560.707031 69.527344 555.183594 69.527344 C 549.660156 69.527344 545.183594 65.050781 545.183594 59.527344 C 545.183594 54.007812 549.660156 49.527344 555.183594 49.527344 C 560.707031 49.527344 565.183594 54.007812 565.183594 59.527344 "/>
<path fill-rule="nonzero" fill="rgb(100%, 0%, 0%)" fill-opacity="1" stroke-width="1" stroke-linecap="butt" stroke-linejoin="miter" stroke="rgb(0%, 0%, 0%)" stroke-opacity="1" stroke-miterlimit="10" d="M 186.078125 335.902344 C 186.078125 341.421875 181.601562 345.902344 176.078125 345.902344 C 170.554688 345.902344 166.078125 341.421875 166.078125 335.902344 C 166.078125 330.378906 170.554688 325.902344 176.078125 325.902344 C 181.601562 325.902344 186.078125 330.378906 186.078125 335.902344 "/>
<path fill-rule="nonzero" fill="rgb(100%, 0%, 0%)" fill-opacity="1" stroke-width="1" stroke-linecap="butt" stroke-linejoin="miter" stroke="rgb(0%, 0%, 0%)" stroke-opacity="1" stroke-miterlimit="10" d="M 310.117188 226.429688 C 310.117188 231.953125 305.640625 236.429688 300.117188 236.429688 C 294.59375 236.429688 290.117188 231.953125 290.117188 226.429688 C 290.117188 220.90625 294.59375 216.429688 300.117188 216.429688 C 305.640625 216.429688 310.117188 220.90625 310.117188 226.429688 "/>
</svg>