<?xml version="1.0" encoding="UTF-8"?>
<svg xmlns="http://www.w3.org/2000/svg" xmlns:xlink="http://www.w3.org/1999/xlink" width="600" height="600" viewBox="0 0 600 600">
<rect x="-60" y="-60" width="720" height="720" fill="rgb(100%, 100%, 100%)" fill-opacity="1"/>
<path fill="none" stroke-width="3" stroke-linecap="butt" stroke-linejoin="miter" stroke="rgb(26.666667%, 26.666667%, 26.666667%)" stroke-opacity="1" stroke-miterlimit="10" d="M 242.78125 338.660156 L 122.917969 365.496094 "/>
<path fill="none" stroke-width="4" stroke-linecap="butt" stroke-linejoin="miter" stroke="rgb(26.666667%, 26.666667%, 26.666667%)" stroke-opacity="1" stroke-miterlimit="10" d="M 242.78125 338.660156 L 194.566406 270.238281 "/>
<path fill="none" stroke-width="1" stroke-linecap="butt" stroke-linejoin="miter" stroke="rgb(26.666667%, 26.666667%, 26.666667%)" stroke-opacity="1" stroke-miterlimit="10" d="M 242.78125 338.660156 L 341.332031 317.210938 "/>
<path fill="none" stroke-width="4" stroke-linecap="butt" stroke-linejoin="miter" stroke="rgb(26.666667%, 26.666667%, 26.666667%)" stroke-opacity="1" stroke-miterlimit="10" d="M 242.78125 338.660156 L 221.578125 411.40625 "/>
<path fill="none" stroke-width="3" stroke-linecap="butt" stroke-linejoin="miter" stroke="rgb(26.666667%, 26.666667%, 26.666667%)" stroke-opacity="1" stroke-miterlimit="10" d="M 242.78125 338.660156 L 297.199219 306.785156 "/>
<path fill="none" stroke-width="5" stroke-linecap="butt" stroke-linejoin="miter" stroke="rgb(26.666667%, 26.666667%, 26.666667%)" stroke-opacity="1" stroke-miterlimit="10" d="M 242.78125 338.660156 L 285.101562 384.285156 "/>
<path fill="none" stroke-width="9" stroke-linecap="butt" stroke-linejoin="miter" stroke="rgb(26.666667%, 26.666667%, 26.666667%)" stroke-opacity="1" stroke-miterlimit="10" d="M 242.78125 338.660156 L 322.882812 365.304688 "/>
<path fill="none" stroke-width="3" stroke-linecap="butt" stroke-linejoin="miter" stroke="rgb(26.666667%, 26.666667%, 26.666667%)" stroke-opacity="1" stroke-miterlimit="10" d="M 242.78125 338.660156 L 191.222656 373.675781 "/>
<path fill="none" stroke-width="1" stroke-linecap="butt" stroke-linejoin="miter" stroke="rgb(26.666667%, 26.666667%, 26.666667%)" stroke-opacity="1" stroke-miterlimit="10" d="M 242.78125 338.660156 L 163.707031 336.253906 "/>
<path fill="none" stroke-width="5" stroke-linecap="butt" stroke-linejoin="miter" stroke="rgb(26.666667%, 26.666667%, 26.666667%)" stroke-opacity="1" stroke-miterlimit="10" d="M 242.78125 338.660156 L 376.265625 348.285156 "/>
<path fill="none" stroke-width="1" stroke-linecap="butt" stroke-linejoin="miter" stroke="rgb(26.666667%, 26.666667%, 26.666667%)" stroke-opacity="1" stroke-miterlimit="10" d="M 122.917969 365.496094 L 20 391.867188 "/>
<path fill="none" stroke-width="5" stroke-linecap="butt" stroke-linejoin="miter" stroke="rgb(26.666667%, 26.666667%, 26.666667%)" stroke-opacity="1" stroke-miterlimit="10" d="M 194.566406 270.238281 L 284.820312 245.644531 "/>
<path fill="none" stroke-width="2" stroke-linecap="butt" stroke-linejoin="miter" stroke="rgb(26.666667%, 26.666667%, 26.666667%)" stroke-opacity="1" stroke-miterlimit="10" d="M 194.566406 270.238281 L 167.804688 202.558594 "/>
<path fill="none" stroke-width="5" stroke-linecap="butt" stroke-linejoin="miter" stroke="rgb(26.666667%, 26.666667%, 26.666667%)" stroke-opacity="1" stroke-miterlimit="10" d="M 194.566406 270.238281 L 107.207031 266.539062 "/>
<path fill="none" stroke-width="1" stroke-linecap="butt" stroke-linejoin="miter" stroke="rgb(26.666667%, 26.666667%, 26.666667%)" stroke-opacity="1" stroke-miterlimit="10" d="M 194.566406 270.238281 L 72.34375 286.070312 "/>
<path fill="none" stroke-width="1" stroke-linecap="butt" stroke-linejoin="miter" stroke="rgb(26.666667%, 26.666667%, 26.666667%)" stroke-opacity="1" stroke-miterlimit="10" d="M 221.578125 411.40625 L 262.191406 468.335938 "/>
<path fill="none" stroke-width="9" stroke-linecap="butt" stroke-linejoin="miter" stroke="rgb(26.666667%, 26.666667%, 26.666667%)" stroke-opacity="1" stroke-miterlimit="10" d="M 221.578125 411.40625 L 131.40625 449.476562 "/>
<path fill="none" stroke-width="5" stroke-linecap="butt" stroke-linejoin="miter" stroke="rgb(26.666667%, 26.666667%, 26.666667%)" stroke-opacity="1" stroke-miterlimit="10" d="M 273.394531 524.867188 L 262.191406 468.335938 "/>
<path fill="none" stroke-width="2" stroke-linecap="butt" stroke-linejoin="miter" stroke="rgb(26.666667%, 26.666667%, 26.666667%)" stroke-opacity="1" stroke-miterlimit="10" d="M 273.394531 524.867188 L 269.851562 580 "/>
<path fill="none" stroke-width="3" stroke-linecap="butt" stroke-linejoin="miter" stroke="rgb(26.666667%, 26.666667%, 26.666667%)" stroke-opacity="1" stroke-miterlimit="10" d="M 307.496094 146.070312 L 201.082031 135.628906 "/>
<path fill="none" stroke-width="6" stroke-linecap="butt" stroke-linejoin="miter" stroke="rgb(26.666667%, 26.666667%, 26.666667%)" stroke-opacity="1" stroke-miterlimit="10" d="M 145.160156 81.609375 L 201.082031 135.628906 "/>
<path fill="none" stroke-width="2" stroke-linecap="butt" stroke-linejoin="miter" stroke="rgb(26.666667%, 26.666667%, 26.666667%)" stroke-opacity="1" stroke-miterlimit="10" d="M 72.558594 186.761719 L 167.804688 202.558594 "/>
<path fill="none" stroke-width="5" stroke-linecap="butt" stroke-linejoin="miter" stroke="rgb(26.666667%, 26.666667%, 26.666667%)" stroke-opacity="1" stroke-miterlimit="10" d="M 38.769531 205.5625 L 167.804688 202.558594 "/>
<path fill="none" stroke-width="6" stroke-linecap="butt" stroke-linejoin="miter" stroke="rgb(26.666667%, 26.666667%, 26.666667%)" stroke-opacity="1" stroke-miterlimit="10" d="M 288.855469 121.1875 L 201.082031 135.628906 "/>
<path fill="none" stroke-width="2" stroke-linecap="butt" stroke-linejoin="miter" stroke="rgb(26.666667%, 26.666667%, 26.666667%)" stroke-opacity="1" stroke-miterlimit="10" d="M 100.089844 125.800781 L 201.082031 135.628906 "/>
<path fill="none" stroke-width="4" stroke-linecap="butt" stroke-linejoin="miter" stroke="rgb(26.666667%, 26.666667%, 26.666667%)" stroke-opacity="1" stroke-miterlimit="10" d="M 287.910156 81.351562 L 286.632812 20 "/>
<path fill="none" stroke-width="1" stroke-linecap="butt" stroke-linejoin="miter" stroke="rgb(26.666667%, 26.666667%, 26.666667%)" stroke-opacity="1" stroke-miterlimit="10" d="M 287.910156 81.351562 L 201.082031 135.628906 "/>
<path fill="none" stroke-width="1" stroke-linecap="butt" stroke-linejoin="miter" stroke="rgb(26.666667%, 26.666667%, 26.666667%)" stroke-opacity="1" stroke-miterlimit="10" d="M 287.910156 81.351562 L 391.652344 60.386719 "/>
<path fill="none" stroke-width="4" stroke-linecap="butt" stroke-linejoin="miter" stroke="rgb(26.666667%, 26.666667%, 26.666667%)" stroke-opacity="1" stroke-miterlimit="10" d="M 580 371.964844 L 482.371094 358.851562 "/>
<path fill="none" stroke-width="5" stroke-linecap="butt" stroke-linejoin="miter" stroke="rgb(26.666667%, 26.666667%, 26.666667%)" stroke-opacity="1" stroke-miterlimit="10" d="M 482.371094 358.851562 L 376.265625 348.285156 "/>
<path fill="none" stroke-width="4" stroke-linecap="butt" stroke-linejoin="miter" stroke="rgb(26.666667%, 26.666667%, 26.666667%)" stroke-opacity="1" stroke-miterlimit="10" d="M 203.074219 84.195312 L 201.082031 135.628906 "/>
<path fill="none" stroke-width="2" stroke-linecap="butt" stroke-linejoin="miter" stroke="rgb(26.666667%, 26.666667%, 26.666667%)" stroke-opacity="1" stroke-miterlimit="10" d="M 95.492188 98.082031 L 201.082031 135.628906 "/>
<path fill="none" stroke-width="2" stroke-linecap="butt" stroke-linejoin="miter" stroke="rgb(26.666667%, 26.666667%, 26.666667%)" stroke-opacity="1" stroke-miterlimit="10" d="M 167.804688 202.558594 L 201.082031 135.628906 "/>
<path fill-rule="nonzero" fill="rgb(100%, 0%, 0%)" fill-opacity="1" stroke-width="1" stroke-linecap="butt" stroke-linejoin="miter" stroke="rgb(0%, 0%, 0%)" stroke-opacity="1" stroke-miterlimit="10" d="M 252.78125 338.660156 C 252.78125 344.179688 248.304688 348.660156 242.78125 348.660156 C 237.261719 348.660156 232.78125 344.179688 232.78125 338.660156 C 232.78125 333.136719 237.261719 328.660156 242.78125 328.660156 C 248.304688 328.660156 252.78125 333.136719 252.78125 338.660156 "/>
<path fill-rule="nonzero" fill="rgb(100%, 0%, 0%)" fill-opacity="1" stroke-width="1" stroke-linecap="butt" stroke-linejoin="miter" stroke="rgb(0%, 0%, 0%)" stroke-opacity="1" stroke-miterlimit="10" d="M 132.917969 365.496094 C 132.917969 371.019531 128.441406 375.496094 122.917969 375.496094 C 117.394531 375.496094 112.917969 371.019531 112.917969 365.496094 C 112.917969 359.972656 117.394531 355.496094 122.917969 355.496094 C 128.441406 355.496094 132.917969 359.972656 132.917969 365.496094 "/>
<path fill-rule="nonzero" fill="rgb(100%, 0%, 0%)" fill-opacity="1" stroke-width="1" stroke-linecap="butt" stroke-linejoin="miter" stroke="rgb(0%, 0%, 0%)" stroke-opacity="1" stroke-miterlimit="10" d="M 204.566406 270.238281 C 204.566406 275.761719 200.089844 280.238281 194.566406 280.238281 C 189.042969 280.238281 184.566406 275.761719 184.566406 270.238281 C 184.566406 264.714844 189.042969 260.238281 194.566406 260.238281 C 200.089844 260.238281 204.566406 264.714844 204.566406 270.238281 "/>
<path fill-rule="nonzero" fill="rgb(100%, 0%, 0%)" fill-opacity="1" stroke-width="1" stroke-linecap="butt" stroke-linejoin="miter" stroke="rgb(0%, 0%, 0%)" stroke-opacity="1" stroke-miterlimit="10" d="M 351.332031 317.210938 C 351.332031 322.730469 346.855469 327.210938 341.332031 327.210938 C 335.808594 327.210938 331.332031 322.730469 331.332031 317.210938 C 331.332031 311.6875 335.808594 307.210938 341.332031 307.210938 C 346.855469 307.210938 351.332031 311.6875 351.332031 317.210938 "/>
<path fill-rule="nonzero" fill="rgb(100%, 0%, 0%)" fill-opacity="1" stroke-width="1" stroke-linecap="butt" stroke-linejoin="miter" stroke="rgb(0%, 0%, 0%)" stroke-opacity="1" stroke-miterlimit="10" d="M 231.578125 411.40625 C 231.578125 416.925781 227.097656 421.40625 221.578125 421.40625 C 216.054688 421.40625 211.578125 416.925781 211.578125 411.40625 C 211.578125 405.882812 216.054688 401.40625 221.578125 401.40625 C 227.097656 401.40625 231.578125 405.882812 231.578125 411.40625 "/>
<path fill-rule="nonzero" fill="rgb(100%, 0%, 0%)" fill-opacity="1" stroke-width="1" stroke-linecap="butt" stroke-linejoin="miter" stroke="rgb(0%, 0%, 0%)" stroke-opacity="1" stroke-miterlimit="10" d="M 283.394531 524.867188 C 283.394531 530.390625 278.917969 534.867188 273.394531 534.867188 C 267.871094 534.867188 263.394531 530.390625 263.394531 524.867188 C 263.394531 519.34375 267.871094 514.867188 273.394531 514.867188 C 278.917969 514.867188 283.394531 519.34375 283.394531 524.867188 "/>
<path fill-rule="nonzero" fill="rgb(100%, 0%, 0%)" fill-opacity="1" stroke-width="1" stroke-linecap="butt" stroke-linejoin="miter" stroke="rgb(0%, 0%, 0%)" stroke-opacity="1" stroke-miterlimit="10" d="M 272.191406 468.335938 C 272.191406 473.859375 267.710938 478.335938 262.191406 478.335938 C 256.667969 478.335938 252.191406 473.859375 252.191406 468.335938 C 252.191406 462.816406 256.667969 458.335938 262.191406 458.335938 C 267.710938 458.335938 272.191406 462.816406 272.191406 468.335938 "/>
<path fill-rule="nonzero" fill="rgb(100%, 0%, 0%)" fill-opacity="1" stroke-width="1" stroke-linecap="butt" stroke-linejoin="miter" stroke="rgb(0%, 0%, 0%)" stroke-opacity="1" stroke-miterlimit="10" d="M 307.199219 306.785156 C 307.199219 312.308594 302.722656 316.785156 297.199219 316.785156 C 291.675781 316.785156 287.199219 312.308594 287.199219 306.785156 C 287.199219 301.261719 291.675781 296.785156 297.199219 296.785156 C 302.722656 296.785156 307.199219 301.261719 307.199219 306.785156 "/>
<path fill-rule="nonzero" fill="rgb(100%, 0%, 0%)" fill-opacity="1" stroke-width="1" stroke-linecap="butt" stroke-linejoin="miter" stroke="rgb(0%, 0%, 0%)" stroke-opacity="1" stroke-miterlimit="10" d="M 317.496094 146.070312 C 317.496094 151.59375 313.019531 156.070312 307.496094 156.070312 C 301.972656 156.070312 297.496094 151.59375 297.496094 146.070312 C 297.496094 140.550781 301.972656 136.070312 307.496094 136.070312 C 313.019531 136.070312 317.496094 140.550781 317.496094 146.070312 "/>
<path fill-rule="nonzero" fill="rgb(100%, 0%, 0%)" fill-opacity="1" stroke-width="1" stroke-linecap="butt" stroke-linejoin="miter" stroke="rgb(0%, 0%, 0%)" stroke-opacity="1" stroke-miterlimit="10" d="M 117.207031 266.539062 C 117.207031 272.0625 112.730469 276.539062 107.207031 276.539062 C 101.683594 276.539062 97.207031 272.0625 97.207031 266.539062 C 97.207031 261.015625 101.683594 256.539062 107.207031 256.539062 C 112.730469 256.539062 117.207031 261.015625 117.207031 266.539062 "/>
<path fill-rule="nonzero" fill="rgb(100%, 0%, 0%)" fill-opacity="1" stroke-width="1" stroke-linecap="butt" stroke-linejoin="miter" stroke="rgb(0%, 0%, 0%)" stroke-opacity="1" stroke-miterlimit="10" d="M 141.40625 449.476562 C 141.40625 455 136.929688 459.476562 131.40625 459.476562 C 125.886719 459.476562 121.40625 455 121.40625 449.476562 C 121.40625 443.957031 125.886719 439.476562 131.40625 439.476562 C 136.929688 439.476562 141.40625 443.957031 141.40625 449.476562 "/>
<path fill-rule="nonzero" fill="rgb(100%, 0%, 0%)" fill-opacity="1" stroke-width="1" stroke-linecap="butt" stroke-linejoin="miter" stroke="rgb(0%, 0%, 0%)" stroke-opacity="1" stroke-miterlimit="10" d="M 295.101562 384.285156 C 295.101562 389.808594 290.625 394.285156 285.101562 394.285156 C 279.578125 394.285156 275.101562 389.808594 275.101562 384.285156 C 275.101562 378.761719 279.578125 374.285156 285.101562 374.285156 C 290.625 374.285156 295.101562 378.761719 295.101562 384.285156 "/>
<path fill-rule="nonzero" fill="rgb(100%, 0%, 0%)" fill-opacity="1" stroke-width="1" stroke-linecap="butt" stroke-linejoin="miter" stroke="rgb(0%, 0%, 0%)" stroke-opacity="1" stroke-miterlimit="10" d="M 332.882812 365.304688 C 332.882812 370.828125 328.40625 375.304688 322.882812 375.304688 C 317.359375 375.304688 312.882812 370.828125 312.882812 365.304688 C 312.882812 359.785156 317.359375 355.304688 322.882812 355.304688 C 328.40625 355.304688 332.882812 359.785156 332.882812 365.304688 "/>
<path fill-rule="nonzero" fill="rgb(100%, 0%, 0%)" fill-opacity="1" stroke-width="1" stroke-linecap="butt" stroke-linejoin="miter" stroke="rgb(0%, 0%, 0%)" stroke-opacity="1" stroke-miterlimit="10" d="M 82.34375 286.070312 C 82.34375 291.59375 77.867188 296.070312 72.34375 296.070312 C 66.820312 296.070312 62.34375 291.59375 62.34375 286.070312 C 62.34375 280.550781 66.820312 276.070312 72.34375 276.070312 C 77.867188 276.070312 82.34375 280.550781 82.34375 286.070312 "/>
<path fill-rule="nonzero" fill="rgb(100%, 0%, 0%)" fill-opacity="1" stroke-width="1" stroke-linecap="butt" stroke-linejoin="miter" stroke="rgb(0%, 0%, 0%)" stroke-opacity="1" stroke-miterlimit="10" d="M 155.160156 81.609375 C 155.160156 87.132812 150.683594 91.609375 145.160156 91.609375 C 139.640625 91.609375 135.160156 87.132812 135.160156 81.609375 C 135.160156 76.089844 139.640625 71.609375 145.160156 71.609375 C 150.683594 71.609375 155.160156 76.089844 155.160156 81.609375 "/>
<path fill-rule="nonzero" fill="rgb(100%, 0%, 0%)" fill-opacity="1" stroke-width="1" stroke-linecap="butt" stroke-linejoin="miter" stroke="rgb(0%, 0%, 0%)" stroke-opacity="1" stroke-miterlimit="10" d="M 82.558594 186.761719 C 82.558594 192.285156 78.082031 196.761719 72.558594 196.761719 C 67.035156 196.761719 62.558594 192.285156 62.558594 186.761719 C 62.558594 181.238281 67.035156 176.761719 72.558594 176.761719 C 78.082031 176.761719 82.558594 181.238281 82.558594 186.761719 "/>
<path fill-rule="nonzero" fill="rgb(100%, 0%, 0%)" fill-opacity="1" stroke-width="1" stroke-linecap="butt" stroke-linejoin="miter" stroke="rgb(0%, 0%, 0%)" stroke-opacity="1" stroke-miterlimit="10" d="M 279.851562 580 C 279.851562 585.523438 275.375 590 269.851562 590 C 264.328125 590 259.851562 585.523438 259.851562 580 C 259.851562 574.476562 264.328125 570 269.851562 570 C 275.375 570 279.851562 574.476562 279.851562 580 "/>
<path fill-rule="nonzero" fill="rgb(100%, 0%, 0%)" fill-opacity="1" stroke-width="1" stroke-linecap="butt" stroke-linejoin="miter" stroke="rgb(0%, 0%, 0%)" stroke-opacity="1" stroke-miterlimit="10" d="M 201.222656 373.675781 C 201.222656 379.199219 196.746094 383.675781 191.222656 383.675781 C 185.699219 383.675781 181.222656 379.199219 181.222656 373.675781 C 181.222656 368.152344 185.699219 363.675781 191.222656 363.675781 C 196.746094 363.675781 201.222656 368.152344 201.222656 373.675781 "/>
<path fill-rule="nonzero" fill="rgb(100%, 0%, 0%)" fill-opacity="1" stroke-width="1" stroke-linecap="butt" stroke-linejoin="miter" stroke="rgb(0%, 0%, 0%)" stroke-opacity="1" stroke-miterlimit="10" d="M 48.769531 205.5625 C 48.769531 211.082031 44.292969 215.5625 38.769531 215.5625 C 33.25 215.5625 28.769531 211.082031 28.769531 205.5625 C 28.769531 200.039062 33.25 195.5625 38.769531 195.5625 C 44.292969 195.5625 48.769531 200.039062 48.769531 205.5625 "/>
<path fill-rule="nonzero" fill="rgb(100%, 0%, 0%)" fill-opacity="1" stroke-width="1" stroke-linecap="butt" stroke-linejoin="miter" stroke="rgb(0%, 0%, 0%)" stroke-opacity="1" stroke-miterlimit="10" d="M 173.707031 336.253906 C 173.707031 341.777344 169.230469 346.253906 163.707031 346.253906 C 158.183594 346.253906 153.707031 341.777344 153.707031 336.253906 C 153.707031 330.730469 158.183594 326.253906 163.707031 326.253906 C 169.230469 326.253906 173.707031 330.730469 173.707031 336.253906 "/>
<path fill-rule="nonzero" fill="rgb(100%, 0%, 0%)" fill-opacity="1" stroke-width="1" stroke-linecap="butt" stroke-linejoin="miter" stroke="rgb(0%, 0%, 0%)" stroke-opacity="1" stroke-miterlimit="10" d="M 298.855469 121.1875 C 298.855469 126.710938 294.378906 131.1875 288.855469 131.1875 C 283.332031 131.1875 278.855469 126.710938 278.855469 121.1875 C 278.855469 115.664062 283.332031 111.1875 288.855469 111.1875 C 294.378906 111.1875 298.855469 115.664062 298.855469 121.1875 "/>
<path fill-rule="nonzero" fill="rgb(100%, 0%, 0%)" fill-opacity="1" stroke-width="1" stroke-linecap="butt" stroke-linejoin="miter" stroke="rgb(0%, 0%, 0%)" stroke-opacity="1" stroke-miterlimit="10" d="M 30 391.867188 C 30 397.390625 25.523438 401.867188 20 401.867188 C 14.476562 401.867188 10 397.390625 10 391.867188 C 10 386.347656 14.476562 381.867188 20 381.867188 C 25.523438 381.867188 30 386.347656 30 391.867188 "/>
<path fill-rule="nonzero" fill="rgb(100%, 0%, 0%)" fill-opacity="1" stroke-width="1" stroke-linecap="butt" stroke-linejoin="miter" stroke="rgb(0%, 0%, 0%)" stroke-opacity="1" stroke-miterlimit="10" d="M 110.089844 125.800781 C 110.089844 131.324219 105.609375 135.800781 100.089844 135.800781 C 94.566406 135.800781 90.089844 131.324219 90.089844 125.800781 C 90.089844 120.277344 94.566406 115.800781 100.089844 115.800781 C 105.609375 115.800781 110.089844 120.277344 110.089844 125.800781 "/>
<path fill-rule="nonzero" fill="rgb(100%, 0%, 0%)" fill-opacity="1" stroke-width="1" stroke-linecap="butt" stroke-linejoin="miter" stroke="rgb(0%, 0%, 0%)" stroke-opacity="1" stroke-miterlimit="10" d="M 297.910156 81.351562 C 297.910156 86.871094 293.433594 91.351562 287.910156 91.351562 C 282.386719 91.351562 277.910156 86.871094 277.910156 81.351562 C 277.910156 75.828125 282.386719 71.351562 287.910156 71.351562 C 293.433594 71.351562 297.910156 75.828125 297.910156 81.351562 "/>
<path fill-rule="nonzero" fill="rgb(100%, 0%, 0%)" fill-opacity="1" stroke-width="1" stroke-linecap="butt" stroke-linejoin="miter" stroke="rgb(0%, 0%, 0%)" stroke-opacity="1" stroke-miterlimit="10" d="M 590 371.964844 C 590 377.488281 585.523438 381.964844 580 381.964844 C 574.476562 381.964844 570 377.488281 570 371.964844 C 570 366.441406 574.476562 361.964844 580 361.964844 C 585.523438 361.964844 590 366.441406 590 371.964844 "/>
<path fill-rule="nonzero" fill="rgb(100%, 0%, 0%)" fill-opacity="1" stroke-width="1" stroke-linecap="butt" stroke-linejoin="miter" stroke="rgb(0%, 0%, 0%)" stroke-opacity="1" stroke-miterlimit="10" d="M 492.371094 358.851562 C 492.371094 364.375 487.894531 368.851562 482.371094 368.851562 C 476.847656 368.851562 472.371094 364.375 472.371094 358.851562 C 472.371094 353.328125 476.847656 348.851562 482.371094 348.851562 C 487.894531 348.851562 492.371094 353.328125 492.371094 358.851562 "/>
<path fill-rule="nonzero" fill="rgb(100%, 0%, 0%)" fill-opacity="1" stroke-width="1" stroke-linecap="butt" stroke-linejoin="miter" stroke="rgb(0%, 0%, 0%)" stroke-opacity="1" stroke-miterlimit="10" d="M 213.074219 84.195312 C 213.074219 89.71875 208.597656 94.195312 203.074219 94.195312 C 197.550781 94.195312 193.074219 89.71875 193.074219 84.195312 C 193.074219 78.675781 197.550781 74.195312 203.074219 74.195312 C 208.597656 74.195312 213.074219 78.675781 213.074219 84.195312 "/>
<path fill-rule="nonzero" fill="rgb(100%, 0%, 0%)" fill-opacity="1" stroke-width="1" stroke-linecap="butt" stroke-linejoin="miter" stroke="rgb(0%, 0%, 0%)" stroke-opacity="1" stroke-miterlimit="10" d="M 296.632812 20 C 296.632812 25.523438 292.15625 30 286.632812 30 C 281.109375 30 276.632812 25.523438 276.632812 20 C 276.632812 14.476562 281.109375 10 286.632812 10 C 292.15625 10 296.632812 14.476562 296.632812 20 "/>
<path fill-rule="nonzero" fill="rgb(100%, 0%, 0%)" fill-opacity="1" stroke-width="1" stroke-linecap="butt" stroke-linejoin="miter" stroke="rgb(0%, 0%, 0%)" stroke-opacity="1" stroke-miterlimit="10" d="M 294.820312 245.644531 C 294.820312 251.167969 290.34375 255.644531 284.820312 255.644531 C 279.300781 255.644531 274.820312 251.167969 274.820312 245.644531 C 274.820312 240.121094 279.300781 235.644531 284.820312 235.644531 C 290.34375 235.644531 294.820312 240.121094 294.820312 245.644531 "/>
<path fill-rule="nonzero" fill="rgb(100%, 0%, 0%)" fill-opacity="1" stroke-width="1" stroke-linecap="butt" stroke-linejoin="miter" stroke="rgb(0%, 0%, 0%)" stroke-opacity="1" stroke-miterlimit="10" d="M 401.652344 60.386719 C 401.652344 65.90625 397.175781 70.386719 391.652344 70.386719 C 386.128906 70.386719 381.652344 65.90625 381.652344 60.386719 C 381.652344 54.863281 386.128906 50.386719 391.652344 50.386719 C 397.175781 50.386719 401.652344 54.863281 401.652344 60.386719 "/>
<path fill-rule="nonzero" fill="rgb(100%, 0%, 0%)" fill-opacity="1" stroke-width="1" stroke-linecap="butt" stroke-linejoin="miter" stroke="rgb(0%, 0%, 0%)" stroke-opacity="1" stroke-miterlimit="10" d="M 105.492188 98.082031 C 105.492188 103.605469 101.015625 108.082031 95.492188 108.082031 C 89.96875 108.082031 85.492188 103.605469 85.492188 98.082031 C 85.492188 92.558594 89.96875 88.082031 95.492188 88.082031 C 101.015625 88.082031 105.492188 92.558594 105.492188 98.082031 "/>
<path fill-rule="nonzero" fill="rgb(100%, 0%, 0%)" fill-opacity="1" stroke-width="1" stroke-linecap="butt" stroke-linejoin="miter" stroke="rgb(0%, 0%, 0%)" stroke-opacity="1" stroke-miterlimit="10" d="M 386.265625 348.285156 C 386.265625 353.808594 381.789062 358.285156 376.265625 358.285156 C 370.742188 358.285156 366.265625 353.808594 366.265625 348.285156 C 366.265625 342.765625 370.742188 338.285156 376.265625 338.285156 C 381.789062 338.285156 386.265625 342.765625 386.265625 348.285156 "/>
<path fill-rule="nonzero" fill="rgb(100%, 0%, 0%)" fill-opacity="1" stroke-width="1" stroke-linecap="butt" stroke-linejoin="miter" stroke="rgb(0%, 0%, 0%)" stroke-opacity="1" stroke-miterlimit="10" d="M 177.804688 202.558594 C 177.804688 208.078125 173.328125 212.558594 167.804688 212.558594 C 162.28125 212.558594 157.804688 208.078125 157.804688 202.558594 C 157.804688 197.035156 162.28125 192.558594 167.804688 192.558594 C 173.328125 192.558594 177.804688 197.035156 177.804688 202.558594 "/>
<path fill-rule="nonzero" fill="rgb(100%, 0%, 0%)" fill-opacity="1" stroke-width="1" stroke-linecap="butt" stroke-linejoin="miter" stroke="rgb(0%, 0%, 0%)" stroke-opacity="1" stroke-miterlimit="10" d="M 211.082031 135.628906 C 211.082031 141.152344 206.605469 145.628906 201.082031 145.628906 C 195.558594 145.628906 191.082031 141.152344 191.082031 135.628906 C 191.082031 130.105469 195.558594 125.628906 201.082031 125.628906 C 206.605469 125.628906 211.082031 130.105469 211.082031 135.628906 "/>
</svg>