<?xml version="1.0" encoding="UTF-8"?>
<svg xmlns="http://www.w3.org/2000/svg" xmlns:xlink="http://www.w3.org/1999/xlink" width="600pt" height="600pt" viewBox="0 0 600 600" version="1.1">
<g id="surface26">
<rect x="0" y="0" width="600" height="600" style="fill:rgb(100%,100%,100%);fill-opacity:1;stroke:none;"/>
<path style="fill:none;stroke-width:4;stroke-linecap:butt;stroke-linejoin:miter;stroke:rgb(26.666667%,26.666667%,26.666667%);stroke-opacity:1;stroke-miterlimit:10;" d="M 170.429688 467.179688 L 291.542969 466.289062 "/>
<path style="fill:none;stroke-width:9;stroke-linecap:butt;stroke-linejoin:miter;stroke:rgb(26.666667%,26.666667%,26.666667%);stroke-opacity:1;stroke-miterlimit:10;" d="M 170.429688 467.179688 L 237.105469 505 "/>
<path style="fill:none;stroke-width:3;stroke-linecap:butt;stroke-linejoin:miter;stroke:rgb(26.666667%,26.666667%,26.666667%);stroke-opacity:1;stroke-miterlimit:10;" d="M 170.429688 467.179688 L 40.976562 471.382812 "/>
<path style="fill:none;stroke-width:1;stroke-linecap:butt;stroke-linejoin:miter;stroke:rgb(26.666667%,26.666667%,26.666667%);stroke-opacity:1;stroke-miterlimit:10;" d="M 170.429688 467.179688 L 170.5 423.746094 "/>
<path style="fill:none;stroke-width:6;stroke-linecap:butt;stroke-linejoin:miter;stroke:rgb(26.666667%,26.666667%,26.666667%);stroke-opacity:1;stroke-miterlimit:10;" d="M 170.429688 467.179688 L 82.714844 495.851562 "/>
<path style="fill:none;stroke-width:2;stroke-linecap:butt;stroke-linejoin:miter;stroke:rgb(26.666667%,26.666667%,26.666667%);stroke-opacity:1;stroke-miterlimit:10;" d="M 141.257812 338.699219 L 158.234375 382.503906 "/>
<path style="fill:none;stroke-width:3;stroke-linecap:butt;stroke-linejoin:miter;stroke:rgb(26.666667%,26.666667%,26.666667%);stroke-opacity:1;stroke-miterlimit:10;" d="M 141.257812 338.699219 L 255.796875 348.308594 "/>
<path style="fill:none;stroke-width:3;stroke-linecap:butt;stroke-linejoin:miter;stroke:rgb(26.666667%,26.666667%,26.666667%);stroke-opacity:1;stroke-miterlimit:10;" d="M 141.257812 338.699219 L 197.132812 298.460938 "/>
<path style="fill:none;stroke-width:7;stroke-linecap:butt;stroke-linejoin:miter;stroke:rgb(26.666667%,26.666667%,26.666667%);stroke-opacity:1;stroke-miterlimit:10;" d="M 141.257812 338.699219 L 20 348.957031 "/>
<path style="fill:none;stroke-width:3;stroke-linecap:butt;stroke-linejoin:miter;stroke:rgb(26.666667%,26.666667%,26.666667%);stroke-opacity:1;stroke-miterlimit:10;" d="M 141.257812 338.699219 L 23.804688 323.808594 "/>
<path style="fill:none;stroke-width:1;stroke-linecap:butt;stroke-linejoin:miter;stroke:rgb(26.666667%,26.666667%,26.666667%);stroke-opacity:1;stroke-miterlimit:10;" d="M 270.878906 263.121094 L 256.546875 220.835938 "/>
<path style="fill:none;stroke-width:6;stroke-linecap:butt;stroke-linejoin:miter;stroke:rgb(26.666667%,26.666667%,26.666667%);stroke-opacity:1;stroke-miterlimit:10;" d="M 270.878906 263.121094 L 396.847656 272.890625 "/>
<path style="fill:none;stroke-width:3;stroke-linecap:butt;stroke-linejoin:miter;stroke:rgb(26.666667%,26.666667%,26.666667%);stroke-opacity:1;stroke-miterlimit:10;" d="M 270.878906 263.121094 L 197.132812 298.460938 "/>
<path style="fill:none;stroke-width:2;stroke-linecap:butt;stroke-linejoin:miter;stroke:rgb(26.666667%,26.666667%,26.666667%);stroke-opacity:1;stroke-miterlimit:10;" d="M 158.234375 382.503906 L 170.5 423.746094 "/>
<path style="fill:none;stroke-width:1;stroke-linecap:butt;stroke-linejoin:miter;stroke:rgb(26.666667%,26.666667%,26.666667%);stroke-opacity:1;stroke-miterlimit:10;" d="M 297.519531 541.554688 L 410.0625 557.410156 "/>
<path style="fill:none;stroke-width:8;stroke-linecap:butt;stroke-linejoin:miter;stroke:rgb(26.666667%,26.666667%,26.666667%);stroke-opacity:1;stroke-miterlimit:10;" d="M 297.519531 541.554688 L 237.105469 505 "/>
<path style="fill:none;stroke-width:6;stroke-linecap:butt;stroke-linejoin:miter;stroke:rgb(26.666667%,26.666667%,26.666667%);stroke-opacity:1;stroke-miterlimit:10;" d="M 297.519531 541.554688 L 249.449219 580 "/>
<path style="fill:none;stroke-width:2;stroke-linecap:butt;stroke-linejoin:miter;stroke:rgb(26.666667%,26.666667%,26.666667%);stroke-opacity:1;stroke-miterlimit:10;" d="M 169.414062 152.539062 L 235.804688 130.152344 "/>
<path style="fill:none;stroke-width:1;stroke-linecap:butt;stroke-linejoin:miter;stroke:rgb(26.666667%,26.666667%,26.666667%);stroke-opacity:1;stroke-miterlimit:10;" d="M 403.511719 127.46875 L 340.027344 97.671875 "/>
<path style="fill:none;stroke-width:2;stroke-linecap:butt;stroke-linejoin:miter;stroke:rgb(26.666667%,26.666667%,26.666667%);stroke-opacity:1;stroke-miterlimit:10;" d="M 468.289062 117.402344 L 340.027344 97.671875 "/>
<path style="fill:none;stroke-width:3;stroke-linecap:butt;stroke-linejoin:miter;stroke:rgb(26.666667%,26.666667%,26.666667%);stroke-opacity:1;stroke-miterlimit:10;" d="M 105.320312 137.074219 L 235.804688 130.152344 "/>
<path style="fill:none;stroke-width:4;stroke-linecap:butt;stroke-linejoin:miter;stroke:rgb(26.666667%,26.666667%,26.666667%);stroke-opacity:1;stroke-miterlimit:10;" d="M 100.648438 112.429688 L 235.804688 130.152344 "/>
<path style="fill:none;stroke-width:5;stroke-linecap:butt;stroke-linejoin:miter;stroke:rgb(26.666667%,26.666667%,26.666667%);stroke-opacity:1;stroke-miterlimit:10;" d="M 158.847656 100.660156 L 235.804688 130.152344 "/>
<path style="fill:none;stroke-width:1;stroke-linecap:butt;stroke-linejoin:miter;stroke:rgb(26.666667%,26.666667%,26.666667%);stroke-opacity:1;stroke-miterlimit:10;" d="M 449.527344 64.679688 L 479.785156 24.195312 "/>
<path style="fill:none;stroke-width:2;stroke-linecap:butt;stroke-linejoin:miter;stroke:rgb(26.666667%,26.666667%,26.666667%);stroke-opacity:1;stroke-miterlimit:10;" d="M 449.527344 64.679688 L 340.027344 97.671875 "/>
<path style="fill:none;stroke-width:3;stroke-linecap:butt;stroke-linejoin:miter;stroke:rgb(26.666667%,26.666667%,26.666667%);stroke-opacity:1;stroke-miterlimit:10;" d="M 449.527344 64.679688 L 580 62.546875 "/>
<path style="fill:none;stroke-width:8;stroke-linecap:butt;stroke-linejoin:miter;stroke:rgb(26.666667%,26.666667%,26.666667%);stroke-opacity:1;stroke-miterlimit:10;" d="M 200.722656 20 L 256.308594 58.886719 "/>
<path style="fill:none;stroke-width:5;stroke-linecap:butt;stroke-linejoin:miter;stroke:rgb(26.666667%,26.666667%,26.666667%);stroke-opacity:1;stroke-miterlimit:10;" d="M 331.542969 62.066406 L 340.027344 97.671875 "/>
<path style="fill:none;stroke-width:6;stroke-linecap:butt;stroke-linejoin:miter;stroke:rgb(26.666667%,26.666667%,26.666667%);stroke-opacity:1;stroke-miterlimit:10;" d="M 256.308594 58.886719 L 340.027344 97.671875 "/>
<path style="fill:none;stroke-width:3;stroke-linecap:butt;stroke-linejoin:miter;stroke:rgb(26.666667%,26.666667%,26.666667%);stroke-opacity:1;stroke-miterlimit:10;" d="M 256.546875 220.835938 L 261.113281 178.070312 "/>
<path style="fill:none;stroke-width:3;stroke-linecap:butt;stroke-linejoin:miter;stroke:rgb(26.666667%,26.666667%,26.666667%);stroke-opacity:1;stroke-miterlimit:10;" d="M 441.558594 93.597656 L 340.027344 97.671875 "/>
<path style="fill:none;stroke-width:1;stroke-linecap:butt;stroke-linejoin:miter;stroke:rgb(26.666667%,26.666667%,26.666667%);stroke-opacity:1;stroke-miterlimit:10;" d="M 261.113281 178.070312 L 235.804688 130.152344 "/>
<path style="fill:none;stroke-width:2;stroke-linecap:butt;stroke-linejoin:miter;stroke:rgb(26.666667%,26.666667%,26.666667%);stroke-opacity:1;stroke-miterlimit:10;" d="M 235.804688 130.152344 L 340.027344 97.671875 "/>
<path style="fill-rule:nonzero;fill:rgb(100%,0%,0%);fill-opacity:1;stroke-width:1;stroke-linecap:butt;stroke-linejoin:miter;stroke:rgb(0%,0%,0%);stroke-opacity:1;stroke-miterlimit:10;" d="M 180.429688 467.179688 C 180.429688 472.699219 175.953125 477.179688 170.429688 477.179688 C 164.910156 477.179688 160.429688 472.699219 160.429688 467.179688 C 160.429688 461.65625 164.910156 457.179688 170.429688 457.179688 C 175.953125 457.179688 180.429688 461.65625 180.429688 467.179688 "/>
<path style="fill-rule:nonzero;fill:rgb(100%,0%,0%);fill-opacity:1;stroke-width:1;stroke-linecap:butt;stroke-linejoin:miter;stroke:rgb(0%,0%,0%);stroke-opacity:1;stroke-miterlimit:10;" d="M 151.257812 338.699219 C 151.257812 344.222656 146.78125 348.699219 141.257812 348.699219 C 135.734375 348.699219 131.257812 344.222656 131.257812 338.699219 C 131.257812 333.175781 135.734375 328.699219 141.257812 328.699219 C 146.78125 328.699219 151.257812 333.175781 151.257812 338.699219 "/>
<path style="fill-rule:nonzero;fill:rgb(100%,0%,0%);fill-opacity:1;stroke-width:1;stroke-linecap:butt;stroke-linejoin:miter;stroke:rgb(0%,0%,0%);stroke-opacity:1;stroke-miterlimit:10;" d="M 280.878906 263.121094 C 280.878906 268.644531 276.398438 273.121094 270.878906 273.121094 C 265.355469 273.121094 260.878906 268.644531 260.878906 263.121094 C 260.878906 257.597656 265.355469 253.121094 270.878906 253.121094 C 276.398438 253.121094 280.878906 257.597656 280.878906 263.121094 "/>
<path style="fill-rule:nonzero;fill:rgb(100%,0%,0%);fill-opacity:1;stroke-width:1;stroke-linecap:butt;stroke-linejoin:miter;stroke:rgb(0%,0%,0%);stroke-opacity:1;stroke-miterlimit:10;" d="M 168.234375 382.503906 C 168.234375 388.027344 163.757812 392.503906 158.234375 392.503906 C 152.710938 392.503906 148.234375 388.027344 148.234375 382.503906 C 148.234375 376.980469 152.710938 372.503906 158.234375 372.503906 C 163.757812 372.503906 168.234375 376.980469 168.234375 382.503906 "/>
<path style="fill-rule:nonzero;fill:rgb(100%,0%,0%);fill-opacity:1;stroke-width:1;stroke-linecap:butt;stroke-linejoin:miter;stroke:rgb(0%,0%,0%);stroke-opacity:1;stroke-miterlimit:10;" d="M 301.542969 466.289062 C 301.542969 471.8125 297.066406 476.289062 291.542969 476.289062 C 286.023438 476.289062 281.542969 471.8125 281.542969 466.289062 C 281.542969 460.765625 286.023438 456.289062 291.542969 456.289062 C 297.066406 456.289062 301.542969 460.765625 301.542969 466.289062 "/>
<path style="fill-rule:nonzero;fill:rgb(100%,0%,0%);fill-opacity:1;stroke-width:1;stroke-linecap:butt;stroke-linejoin:miter;stroke:rgb(0%,0%,0%);stroke-opacity:1;stroke-miterlimit:10;" d="M 307.519531 541.554688 C 307.519531 547.078125 303.042969 551.554688 297.519531 551.554688 C 291.996094 551.554688 287.519531 547.078125 287.519531 541.554688 C 287.519531 536.03125 291.996094 531.554688 297.519531 531.554688 C 303.042969 531.554688 307.519531 536.03125 307.519531 541.554688 "/>
<path style="fill-rule:nonzero;fill:rgb(100%,0%,0%);fill-opacity:1;stroke-width:1;stroke-linecap:butt;stroke-linejoin:miter;stroke:rgb(0%,0%,0%);stroke-opacity:1;stroke-miterlimit:10;" d="M 420.0625 557.410156 C 420.0625 562.929688 415.585938 567.410156 410.0625 567.410156 C 404.539062 567.410156 400.0625 562.929688 400.0625 557.410156 C 400.0625 551.886719 404.539062 547.410156 410.0625 547.410156 C 415.585938 547.410156 420.0625 551.886719 420.0625 557.410156 "/>
<path style="fill-rule:nonzero;fill:rgb(100%,0%,0%);fill-opacity:1;stroke-width:1;stroke-linecap:butt;stroke-linejoin:miter;stroke:rgb(0%,0%,0%);stroke-opacity:1;stroke-miterlimit:10;" d="M 265.796875 348.308594 C 265.796875 353.832031 261.320312 358.308594 255.796875 358.308594 C 250.273438 358.308594 245.796875 353.832031 245.796875 348.308594 C 245.796875 342.785156 250.273438 338.308594 255.796875 338.308594 C 261.320312 338.308594 265.796875 342.785156 265.796875 348.308594 "/>
<path style="fill-rule:nonzero;fill:rgb(100%,0%,0%);fill-opacity:1;stroke-width:1;stroke-linecap:butt;stroke-linejoin:miter;stroke:rgb(0%,0%,0%);stroke-opacity:1;stroke-miterlimit:10;" d="M 179.414062 152.539062 C 179.414062 158.0625 174.9375 162.539062 169.414062 162.539062 C 163.890625 162.539062 159.414062 158.0625 159.414062 152.539062 C 159.414062 147.015625 163.890625 142.539062 169.414062 142.539062 C 174.9375 142.539062 179.414062 147.015625 179.414062 152.539062 "/>
<path style="fill-rule:nonzero;fill:rgb(100%,0%,0%);fill-opacity:1;stroke-width:1;stroke-linecap:butt;stroke-linejoin:miter;stroke:rgb(0%,0%,0%);stroke-opacity:1;stroke-miterlimit:10;" d="M 406.847656 272.890625 C 406.847656 278.414062 402.371094 282.890625 396.847656 282.890625 C 391.324219 282.890625 386.847656 278.414062 386.847656 272.890625 C 386.847656 267.371094 391.324219 262.890625 396.847656 262.890625 C 402.371094 262.890625 406.847656 267.371094 406.847656 272.890625 "/>
<path style="fill-rule:nonzero;fill:rgb(100%,0%,0%);fill-opacity:1;stroke-width:1;stroke-linecap:butt;stroke-linejoin:miter;stroke:rgb(0%,0%,0%);stroke-opacity:1;stroke-miterlimit:10;" d="M 247.105469 505 C 247.105469 510.523438 242.628906 515 237.105469 515 C 231.585938 515 227.105469 510.523438 227.105469 505 C 227.105469 499.476562 231.585938 495 237.105469 495 C 242.628906 495 247.105469 499.476562 247.105469 505 "/>
<path style="fill-rule:nonzero;fill:rgb(100%,0%,0%);fill-opacity:1;stroke-width:1;stroke-linecap:butt;stroke-linejoin:miter;stroke:rgb(0%,0%,0%);stroke-opacity:1;stroke-miterlimit:10;" d="M 50.976562 471.382812 C 50.976562 476.90625 46.5 481.382812 40.976562 481.382812 C 35.453125 481.382812 30.976562 476.90625 30.976562 471.382812 C 30.976562 465.859375 35.453125 461.382812 40.976562 461.382812 C 46.5 461.382812 50.976562 465.859375 50.976562 471.382812 "/>
<path style="fill-rule:nonzero;fill:rgb(100%,0%,0%);fill-opacity:1;stroke-width:1;stroke-linecap:butt;stroke-linejoin:miter;stroke:rgb(0%,0%,0%);stroke-opacity:1;stroke-miterlimit:10;" d="M 180.5 423.746094 C 180.5 429.269531 176.023438 433.746094 170.5 433.746094 C 164.980469 433.746094 160.5 429.269531 160.5 423.746094 C 160.5 418.222656 164.980469 413.746094 170.5 413.746094 C 176.023438 413.746094 180.5 418.222656 180.5 423.746094 "/>
<path style="fill-rule:nonzero;fill:rgb(100%,0%,0%);fill-opacity:1;stroke-width:1;stroke-linecap:butt;stroke-linejoin:miter;stroke:rgb(0%,0%,0%);stroke-opacity:1;stroke-miterlimit:10;" d="M 207.132812 298.460938 C 207.132812 303.984375 202.65625 308.460938 197.132812 308.460938 C 191.609375 308.460938 187.132812 303.984375 187.132812 298.460938 C 187.132812 292.9375 191.609375 288.460938 197.132812 288.460938 C 202.65625 288.460938 207.132812 292.9375 207.132812 298.460938 "/>
<path style="fill-rule:nonzero;fill:rgb(100%,0%,0%);fill-opacity:1;stroke-width:1;stroke-linecap:butt;stroke-linejoin:miter;stroke:rgb(0%,0%,0%);stroke-opacity:1;stroke-miterlimit:10;" d="M 413.511719 127.46875 C 413.511719 132.992188 409.03125 137.46875 403.511719 137.46875 C 397.988281 137.46875 393.511719 132.992188 393.511719 127.46875 C 393.511719 121.945312 397.988281 117.46875 403.511719 117.46875 C 409.03125 117.46875 413.511719 121.945312 413.511719 127.46875 "/>
<path style="fill-rule:nonzero;fill:rgb(100%,0%,0%);fill-opacity:1;stroke-width:1;stroke-linecap:butt;stroke-linejoin:miter;stroke:rgb(0%,0%,0%);stroke-opacity:1;stroke-miterlimit:10;" d="M 478.289062 117.402344 C 478.289062 122.925781 473.8125 127.402344 468.289062 127.402344 C 462.769531 127.402344 458.289062 122.925781 458.289062 117.402344 C 458.289062 111.878906 462.769531 107.402344 468.289062 107.402344 C 473.8125 107.402344 478.289062 111.878906 478.289062 117.402344 "/>
<path style="fill-rule:nonzero;fill:rgb(100%,0%,0%);fill-opacity:1;stroke-width:1;stroke-linecap:butt;stroke-linejoin:miter;stroke:rgb(0%,0%,0%);stroke-opacity:1;stroke-miterlimit:10;" d="M 259.449219 580 C 259.449219 585.523438 254.96875 590 249.449219 590 C 243.925781 590 239.449219 585.523438 239.449219 580 C 239.449219 574.476562 243.925781 570 249.449219 570 C 254.96875 570 259.449219 574.476562 259.449219 580 "/>
<path style="fill-rule:nonzero;fill:rgb(100%,0%,0%);fill-opacity:1;stroke-width:1;stroke-linecap:butt;stroke-linejoin:miter;stroke:rgb(0%,0%,0%);stroke-opacity:1;stroke-miterlimit:10;" d="M 92.714844 495.851562 C 92.714844 501.375 88.238281 505.851562 82.714844 505.851562 C 77.191406 505.851562 72.714844 501.375 72.714844 495.851562 C 72.714844 490.328125 77.191406 485.851562 82.714844 485.851562 C 88.238281 485.851562 92.714844 490.328125 92.714844 495.851562 "/>
<path style="fill-rule:nonzero;fill:rgb(100%,0%,0%);fill-opacity:1;stroke-width:1;stroke-linecap:butt;stroke-linejoin:miter;stroke:rgb(0%,0%,0%);stroke-opacity:1;stroke-miterlimit:10;" d="M 115.320312 137.074219 C 115.320312 142.59375 110.84375 147.074219 105.320312 147.074219 C 99.796875 147.074219 95.320312 142.59375 95.320312 137.074219 C 95.320312 131.550781 99.796875 127.074219 105.320312 127.074219 C 110.84375 127.074219 115.320312 131.550781 115.320312 137.074219 "/>
<path style="fill-rule:nonzero;fill:rgb(100%,0%,0%);fill-opacity:1;stroke-width:1;stroke-linecap:butt;stroke-linejoin:miter;stroke:rgb(0%,0%,0%);stroke-opacity:1;stroke-miterlimit:10;" d="M 30 348.957031 C 30 354.480469 25.523438 358.957031 20 358.957031 C 14.476562 358.957031 10 354.480469 10 348.957031 C 10 343.433594 14.476562 338.957031 20 338.957031 C 25.523438 338.957031 30 343.433594 30 348.957031 "/>
<path style="fill-rule:nonzero;fill:rgb(100%,0%,0%);fill-opacity:1;stroke-width:1;stroke-linecap:butt;stroke-linejoin:miter;stroke:rgb(0%,0%,0%);stroke-opacity:1;stroke-miterlimit:10;" d="M 110.648438 112.429688 C 110.648438 117.953125 106.171875 122.429688 100.648438 122.429688 C 95.125 122.429688 90.648438 117.953125 90.648438 112.429688 C 90.648438 106.90625 95.125 102.429688 100.648438 102.429688 C 106.171875 102.429688 110.648438 106.90625 110.648438 112.429688 "/>
<path style="fill-rule:nonzero;fill:rgb(100%,0%,0%);fill-opacity:1;stroke-width:1;stroke-linecap:butt;stroke-linejoin:miter;stroke:rgb(0%,0%,0%);stroke-opacity:1;stroke-miterlimit:10;" d="M 33.804688 323.808594 C 33.804688 329.332031 29.328125 333.808594 23.804688 333.808594 C 18.285156 333.808594 13.804688 329.332031 13.804688 323.808594 C 13.804688 318.285156 18.285156 313.808594 23.804688 313.808594 C 29.328125 313.808594 33.804688 318.285156 33.804688 323.808594 "/>
<path style="fill-rule:nonzero;fill:rgb(100%,0%,0%);fill-opacity:1;stroke-width:1;stroke-linecap:butt;stroke-linejoin:miter;stroke:rgb(0%,0%,0%);stroke-opacity:1;stroke-miterlimit:10;" d="M 168.847656 100.660156 C 168.847656 106.179688 164.371094 110.660156 158.847656 110.660156 C 153.324219 110.660156 148.847656 106.179688 148.847656 100.660156 C 148.847656 95.136719 153.324219 90.660156 158.847656 90.660156 C 164.371094 90.660156 168.847656 95.136719 168.847656 100.660156 "/>
<path style="fill-rule:nonzero;fill:rgb(100%,0%,0%);fill-opacity:1;stroke-width:1;stroke-linecap:butt;stroke-linejoin:miter;stroke:rgb(0%,0%,0%);stroke-opacity:1;stroke-miterlimit:10;" d="M 459.527344 64.679688 C 459.527344 70.203125 455.050781 74.679688 449.527344 74.679688 C 444.003906 74.679688 439.527344 70.203125 439.527344 64.679688 C 439.527344 59.15625 444.003906 54.679688 449.527344 54.679688 C 455.050781 54.679688 459.527344 59.15625 459.527344 64.679688 "/>
<path style="fill-rule:nonzero;fill:rgb(100%,0%,0%);fill-opacity:1;stroke-width:1;stroke-linecap:butt;stroke-linejoin:miter;stroke:rgb(0%,0%,0%);stroke-opacity:1;stroke-miterlimit:10;" d="M 210.722656 20 C 210.722656 25.523438 206.246094 30 200.722656 30 C 195.203125 30 190.722656 25.523438 190.722656 20 C 190.722656 14.476562 195.203125 10 200.722656 10 C 206.246094 10 210.722656 14.476562 210.722656 20 "/>
<path style="fill-rule:nonzero;fill:rgb(100%,0%,0%);fill-opacity:1;stroke-width:1;stroke-linecap:butt;stroke-linejoin:miter;stroke:rgb(0%,0%,0%);stroke-opacity:1;stroke-miterlimit:10;" d="M 489.785156 24.195312 C 489.785156 29.71875 485.308594 34.195312 479.785156 34.195312 C 474.265625 34.195312 469.785156 29.71875 469.785156 24.195312 C 469.785156 18.671875 474.265625 14.195312 479.785156 14.195312 C 485.308594 14.195312 489.785156 18.671875 489.785156 24.195312 "/>
<path style="fill-rule:nonzero;fill:rgb(100%,0%,0%);fill-opacity:1;stroke-width:1;stroke-linecap:butt;stroke-linejoin:miter;stroke:rgb(0%,0%,0%);stroke-opacity:1;stroke-miterlimit:10;" d="M 341.542969 62.066406 C 341.542969 67.589844 337.066406 72.066406 331.542969 72.066406 C 326.019531 72.066406 321.542969 67.589844 321.542969 62.066406 C 321.542969 56.542969 326.019531 52.066406 331.542969 52.066406 C 337.066406 52.066406 341.542969 56.542969 341.542969 62.066406 "/>
<path style="fill-rule:nonzero;fill:rgb(100%,0%,0%);fill-opacity:1;stroke-width:1;stroke-linecap:butt;stroke-linejoin:miter;stroke:rgb(0%,0%,0%);stroke-opacity:1;stroke-miterlimit:10;" d="M 266.308594 58.886719 C 266.308594 64.410156 261.832031 68.886719 256.308594 68.886719 C 250.785156 68.886719 246.308594 64.410156 246.308594 58.886719 C 246.308594 53.363281 250.785156 48.886719 256.308594 48.886719 C 261.832031 48.886719 266.308594 53.363281 266.308594 58.886719 "/>
<path style="fill-rule:nonzero;fill:rgb(100%,0%,0%);fill-opacity:1;stroke-width:1;stroke-linecap:butt;stroke-linejoin:miter;stroke:rgb(0%,0%,0%);stroke-opacity:1;stroke-miterlimit:10;" d="M 266.546875 220.835938 C 266.546875 226.359375 262.070312 230.835938 256.546875 230.835938 C 251.023438 230.835938 246.546875 226.359375 246.546875 220.835938 C 246.546875 215.3125 251.023438 210.835938 256.546875 210.835938 C 262.070312 210.835938 266.546875 215.3125 266.546875 220.835938 "/>
<path style="fill-rule:nonzero;fill:rgb(100%,0%,0%);fill-opacity:1;stroke-width:1;stroke-linecap:butt;stroke-linejoin:miter;stroke:rgb(0%,0%,0%);stroke-opacity:1;stroke-miterlimit:10;" d="M 590 62.546875 C 590 68.070312 585.523438 72.546875 580 72.546875 C 574.476562 72.546875 570 68.070312 570 62.546875 C 570 57.023438 574.476562 52.546875 580 52.546875 C 585.523438 52.546875 590 57.023438 590 62.546875 "/>
<path style="fill-rule:nonzero;fill:rgb(100%,0%,0%);fill-opacity:1;stroke-width:1;stroke-linecap:butt;stroke-linejoin:miter;stroke:rgb(0%,0%,0%);stroke-opacity:1;stroke-miterlimit:10;" d="M 451.558594 93.597656 C 451.558594 99.121094 447.082031 103.597656 441.558594 103.597656 C 436.035156 103.597656 431.558594 99.121094 431.558594 93.597656 C 431.558594 88.074219 436.035156 83.597656 441.558594 83.597656 C 447.082031 83.597656 451.558594 88.074219 451.558594 93.597656 "/>
<path style="fill-rule:nonzero;fill:rgb(100%,0%,0%);fill-opacity:1;stroke-width:1;stroke-linecap:butt;stroke-linejoin:miter;stroke:rgb(0%,0%,0%);stroke-opacity:1;stroke-miterlimit:10;" d="M 271.113281 178.070312 C 271.113281 183.59375 266.636719 188.070312 261.113281 188.070312 C 255.589844 188.070312 251.113281 183.59375 251.113281 178.070312 C 251.113281 172.546875 255.589844 168.070312 261.113281 168.070312 C 266.636719 168.070312 271.113281 172.546875 271.113281 178.070312 "/>
<path style="fill-rule:nonzero;fill:rgb(100%,0%,0%);fill-opacity:1;stroke-width:1;stroke-linecap:butt;stroke-linejoin:miter;stroke:rgb(0%,0%,0%);stroke-opacity:1;stroke-miterlimit:10;" d="M 245.804688 130.152344 C 245.804688 135.671875 241.328125 140.152344 235.804688 140.152344 C 230.28125 140.152344 225.804688 135.671875 225.804688 130.152344 C 225.804688 124.628906 230.28125 120.152344 235.804688 120.152344 C 241.328125 120.152344 245.804688 124.628906 245.804688 130.152344 "/>
<path style="fill-rule:nonzero;fill:rgb(100%,0%,0%);fill-opacity:1;stroke-width:1;stroke-linecap:butt;stroke-linejoin:miter;stroke:rgb(0%,0%,0%);stroke-opacity:1;stroke-miterlimit:10;" d="M 350.027344 97.671875 C 350.027344 103.195312 345.550781 107.671875 340.027344 107.671875 C 334.503906 107.671875 330.027344 103.195312 330.027344 97.671875 C 330.027344 92.148438 334.503906 87.671875 340.027344 87.671875 C 345.550781 87.671875 350.027344 92.148438 350.027344 97.671875 "/>
</g>
</svg>
