<?xml version="1.0" encoding="UTF-8" standalone="no"?>
<!-- Created with Inkscape (http://www.inkscape.org/) -->

<svg
   version="1.1"
   id="svg1"
   width="481.58203"
   height="376.85156"
   viewBox="0 0 481.58203 376.85156"
   xmlns="http://www.w3.org/2000/svg"
   xmlns:svg="http://www.w3.org/2000/svg">
  <defs
     id="defs1" />
  <g
     id="g1"
     transform="translate(-5.1601563,-4.4453129)">
    <path
       id="path1"
       d="m 17.00804,102.04868 c 0,9.39338 -7.61465,17.00804 -17.00804,17.00804 -9.39339,0 -17.00804,-7.61466 -17.00804,-17.00804 0,-9.39341 7.61465,-17.00806 17.00804,-17.00806 9.39339,0 17.00804,7.61465 17.00804,17.00806 z"
       style="fill:#ffffff;fill-opacity:1;fill-rule:nonzero;stroke:#000000;stroke-width:0.3985;stroke-linecap:butt;stroke-linejoin:miter;stroke-miterlimit:10;stroke-dasharray:none;stroke-opacity:1"
       transform="matrix(1.3333333,0,0,-1.3333333,246.05067,209.80933)" />
    <path
       id="path2"
       d="m 7.417875,-4.5696953 c 0,-1.3828125 0,-4.8398438 -3.3867187,-4.8398438 -3.39843755,0 -3.39843755,3.4453125 -3.39843755,4.8398438 0,1.3710937 0,4.74609374 3.38671875,4.74609374 3.3867188,0 3.3984375,-3.32812504 3.3984375,-4.74609374 z m -3.3867187,4.26562499 c -0.4570313,0 -0.8085938,-0.1875 -1.0898438,-0.48046875 C 2.5780313,-1.1478203 2.355375,-1.3821953 2.355375,-4.7454766 c 0,-1.0078125 0,-1.921875 0.1171875,-2.671875 0.1992188,-1.4179687 1.2304688,-1.5234375 1.546875,-1.5234375 0.4570313,0 1.3476563,0.2226563 1.546875,1.4296875 0.1289063,0.7265625 0.1289063,1.8867188 0.1289063,2.765625 0,3.3867188 -0.2109375,3.5859375 -0.6445313,4.01953129 -0.2929687,0.28125 -0.6796875,0.421875 -1.0195312,0.421875 z m 0,0"
       style="fill:#000000;fill-opacity:1;fill-rule:nonzero;stroke:none"
       aria-label="0"
       transform="matrix(1.3333333,0,0,1.3333333,240.672,79.909333)" />
    <path
       id="path3"
       d="m -59.52843,25.51215 c 0,9.3934 -7.61465,17.00805 -17.00805,17.00805 -9.39339,0 -17.00805,-7.61465 -17.00805,-17.00805 0,-9.39339 7.61466,-17.00805 17.00805,-17.00805 9.3934,0 17.00805,7.61466 17.00805,17.00805 z"
       style="fill:#ffffff;fill-opacity:1;fill-rule:nonzero;stroke:#000000;stroke-width:0.3985;stroke-linecap:butt;stroke-linejoin:miter;stroke-miterlimit:10;stroke-dasharray:none;stroke-opacity:1"
       transform="matrix(1.3333333,0,0,-1.3333333,246.05067,209.80933)" />
    <path
       id="path4"
       d="m 4.9695,-8.9875078 c 0,-0.421875 -0.035156,-0.421875 -0.4921875,-0.421875 -1.0664063,0.9140625 -2.6601563,0.9140625 -2.9648438,0.9140625 h -0.28125 v 0.6210937 h 0.28125 c 0.4921875,0 1.2539063,-0.082031 1.828125,-0.2695312 v 7.52343749 H 1.3484062 V 7.734375e-4 C 1.9460625,-0.02266406 3.4577812,-0.02266406 4.1374687,-0.02266406 c 0.6679688,0 2.1914063,0 2.7890625,0.0234374975 V -0.62032031 H 4.9695 Z m 0,0"
       style="fill:#000000;fill-opacity:1;fill-rule:nonzero;stroke:none"
       aria-label="1"
       transform="matrix(1.3333333,0,0,1.3333333,138.624,181.956)" />
    <path
       id="path5"
       d="m 93.54453,25.51215 c 0,9.3934 -7.61466,17.00805 -17.00805,17.00805 -9.3934,0 -17.00805,-7.61465 -17.00805,-17.00805 0,-9.39339 7.61465,-17.00805 17.00805,-17.00805 9.39339,0 17.00805,7.61466 17.00805,17.00805 z"
       style="fill:#ffffff;fill-opacity:1;fill-rule:nonzero;stroke:#000000;stroke-width:0.3985;stroke-linecap:butt;stroke-linejoin:miter;stroke-miterlimit:10;stroke-dasharray:none;stroke-opacity:1"
       transform="matrix(1.3333333,0,0,-1.3333333,246.05067,209.80933)" />
    <path
       id="path6"
       d="M 7.24225,-3.0812578 H 6.6445938 C 6.5977188,-2.7765703 6.49225,-1.9328203 6.2813125,-1.7921953 6.164125,-1.6867266 5.0508438,-1.6867266 4.8281875,-1.6867266 H 2.6133438 c 0.5390625,-0.46875 1.8515625,-1.5585937 2.0625,-1.7109375 1.59375,-1.1953125 2.5664062,-1.921875 2.5664062,-3.3046875 0,-1.6875 -1.5351562,-2.7070312 -3.421875,-2.7070312 -1.6289062,0 -3.01171875,0.9140625 -3.01171875,2.2851562 0,0.7617188 0.60937505,0.9726563 0.93750005,0.9726563 0.4453125,0 0.9609375,-0.3046875 0.9609375,-0.9609375 0,-0.609375 -0.4453125,-0.9023438 -0.890625,-0.9609375 0.5742187,-0.65625 1.3359375,-0.7148438 1.640625,-0.7148438 1.3242187,0 1.9453125,1.0664063 1.9453125,2.109375 0,1.1132813 -0.75,2.1445313 -1.3476563,2.765625 l -3.10546875,3.25781254 c -0.140625,0.12890625 -0.140625,0.15234375 -0.140625,0.41015625 V 7.734375e-4 H 6.8320938 Z m 0,0"
       style="fill:#000000;fill-opacity:1;fill-rule:nonzero;stroke:none"
       aria-label="2"
       transform="matrix(1.3333333,0,0,1.3333333,342.71867,181.956)" />
    <path
       id="path7"
       d="m -34.01628,-76.53648 c 0,9.3934 -7.61466,17.00805 -17.00804,17.00805 -9.39339,0 -17.00806,-7.61465 -17.00806,-17.00805 0,-9.39339 7.61467,-17.00805 17.00806,-17.00805 9.39338,0 17.00804,7.61466 17.00804,17.00805 z"
       style="fill:#ffffff;fill-opacity:1;fill-rule:nonzero;stroke:#000000;stroke-width:0.3985;stroke-linecap:butt;stroke-linejoin:miter;stroke-miterlimit:10;stroke-dasharray:none;stroke-opacity:1"
       transform="matrix(1.3333333,0,0,-1.3333333,246.05067,209.80933)" />
    <path
       id="path8"
       d="m 3.73875,-4.7464453 c 1.6171875,0 1.6171875,1.4882812 1.6171875,2.1796875 0,0.6445312 0,2.16796874 -1.5585938,2.16796874 -0.2929687,0 -1.2421875,-0.046875 -1.9335937,-0.5390625 0.6210937,-0.12890624 0.8320312,-0.57421874 0.8320312,-0.99609374 0,-0.5859375 -0.4101562,-1.0078125 -1.0078125,-1.0078125 -0.5976562,0 -1.00781245,0.421875 -1.00781245,1.0195312 0,1.32421879 1.42968745,2.09765629 3.18749995,2.09765629 2.3671875,0 3.5039063,-1.31249999 3.5039063,-2.74218749 0,-0.703125 -0.3515625,-2.0625 -2.578125,-2.4492188 1.265625,-0.3867187 2.1328125,-1.2773437 2.1328125,-2.4140625 0,-1.078125 -1.03125,-1.9804687 -3.0234375,-1.9804687 -1.6054688,0 -2.7890625,0.84375 -2.7890625,2.0039062 0,0.7265625 0.5625,0.9492188 0.9375,0.9492188 0.421875,0 0.9140625,-0.2695313 0.9140625,-0.9257813 0,-0.3398437 -0.140625,-0.8203125 -0.8085938,-0.9257812 0.5976563,-0.5859375 1.5703125,-0.5859375 1.6640625,-0.5859375 1.2773438,0 1.2773438,0.9960937 1.2773438,1.4179687 0,0.4335938 -0.058594,1.0898438 -0.5273438,1.6875 C 4.2075,-5.3089453 3.8325,-5.2737891 3.2817187,-5.2503516 c -0.1640625,0.011719 -0.4570312,0.023437 -0.515625,0.058594 -0.082031,0.046875 -0.082031,0.140625 -0.082031,0.1992187 0,0.2460938 0.082031,0.2460938 0.375,0.2460938 z m 0,0"
       style="fill:#000000;fill-opacity:1;fill-rule:nonzero;stroke:none"
       aria-label="3"
       transform="matrix(1.3333333,0,0,1.3333333,172.64,318.02)" />
    <path
       id="path9"
       d="m 68.03238,-76.53648 c 0,9.3934 -7.61467,17.00805 -17.00806,17.00805 -9.39338,0 -17.00804,-7.61465 -17.00804,-17.00805 0,-9.39339 7.61466,-17.00805 17.00804,-17.00805 9.39339,0 17.00806,7.61466 17.00806,17.00805 z"
       style="fill:#ffffff;fill-opacity:1;fill-rule:nonzero;stroke:#000000;stroke-width:0.3985;stroke-linecap:butt;stroke-linejoin:miter;stroke-miterlimit:10;stroke-dasharray:none;stroke-opacity:1"
       transform="matrix(1.3333333,0,0,-1.3333333,246.05067,209.80933)" />
    <path
       id="path10"
       d="M 6.2112812,-2.2503516 H 7.6058125 V -2.8714453 H 6.2112812 v -6.1523438 c 0,-0.3515625 -0.011719,-0.4101562 -0.375,-0.4101562 -0.2578125,0 -0.28125,0 -0.4570312,0.2109375 l -4.93359375,6.3515625 v 0.6210937 H 4.5237812 v 1.62890629 H 2.9534687 V -3.515625e-4 C 3.3753437,-0.02378906 4.7933125,-0.02378906 5.3089375,-0.02378906 c 0.4804687,0 1.9101562,0 2.296875,0.0234374975 V -0.62144531 H 6.2112812 Z M 4.6526875,-7.4300391 v 4.5585938 H 1.1019062 Z m 0,0"
       style="fill:#000000;fill-opacity:1;fill-rule:nonzero;stroke:none"
       aria-label="4"
       transform="matrix(1.3333333,0,0,1.3333333,308.70267,318.02)" />
    <path
       id="path11"
       d="M -12.17041,89.89587 -64.37952,37.68594"
       style="fill:none;stroke:#000000;stroke-width:0.79701;stroke-linecap:butt;stroke-linejoin:miter;stroke-miterlimit:10;stroke-dasharray:none;stroke-opacity:1"
       transform="matrix(1.3333333,0,0,-1.3333333,246.05067,209.80933)" />
    <path
       id="path12"
       d="M 12.17041,89.89587 64.37952,37.68594"
       style="fill:none;stroke:#000000;stroke-width:0.79701;stroke-linecap:butt;stroke-linejoin:miter;stroke-miterlimit:10;stroke-dasharray:none;stroke-opacity:1"
       transform="matrix(1.3333333,0,0,-1.3333333,246.05067,209.80933)" />
    <path
       id="path13"
       d="M -59.33786,25.51599 H 59.33786"
       style="fill:none;stroke:#000000;stroke-width:0.79701;stroke-linecap:butt;stroke-linejoin:miter;stroke-miterlimit:10;stroke-dasharray:none;stroke-opacity:1"
       transform="matrix(1.3333333,0,0,-1.3333333,246.05067,209.80933)" />
    <path
       id="path14"
       d="m -72.37569,8.81966 17.16935,-68.67171"
       style="fill:none;stroke:#000000;stroke-width:0.79701;stroke-linecap:butt;stroke-linejoin:miter;stroke-miterlimit:10;stroke-dasharray:none;stroke-opacity:1"
       transform="matrix(1.3333333,0,0,-1.3333333,246.05067,209.80933)" />
    <path
       id="path15"
       d="M 72.37569,8.81966 55.20634,-59.85205"
       style="fill:none;stroke:#000000;stroke-width:0.79701;stroke-linecap:butt;stroke-linejoin:miter;stroke-miterlimit:10;stroke-dasharray:none;stroke-opacity:1"
       transform="matrix(1.3333333,0,0,-1.3333333,246.05067,209.80933)" />
    <path
       id="path16"
       d="m -33.82208,-76.54968 67.64416,7.6e-4"
       style="fill:none;stroke:#000000;stroke-width:0.79701;stroke-linecap:butt;stroke-linejoin:miter;stroke-miterlimit:10;stroke-dasharray:none;stroke-opacity:1"
       transform="matrix(1.3333333,0,0,-1.3333333,246.05067,209.80933)" />
    <path
       id="path17"
       d="m 4.981875,-9.8445469 v 0.6210938 c 0.890625,0 0.984375,0 0.984375,0.5625 v 2.8945312 C 5.6498438,-6.0359531 5.0170313,-6.4578281 4.0326563,-6.4578281 c -2.0390625,0 -3.4804688,1.265625 -3.4804688,3.2695312 0,2.0507813 1.4179688,3.26953128 3.3164063,3.26953128 0.796875,0 1.4648437,-0.26953125 2.0273437,-0.73828125 V 0.08123438 L 8.450625,-7.96875e-4 V -0.62189062 c -0.890625,0 -0.9960937,0 -0.9960937,-0.55078128 v -8.7773437 z m 0.9140625,8.390625 C 5.2982813,-0.57501562 4.56,-0.38751562 4.044375,-0.38751562 c -1.78125,0 -1.78125,-1.81640628 -1.78125,-2.76562498 0,-0.6796875 0,-1.3945313 0.3164063,-1.9453125 0.4453125,-0.796875 1.2890625,-0.8789063 1.6289062,-0.8789063 0.5859375,0 1.21875,0.2578125 1.6875,0.8789063 z m 9.5507815,-1.7226562 c 0.328125,0 0.421875,0 0.421875,-0.3515625 0,-0.4335938 -0.105469,-1.5117188 -0.761719,-2.1796875 -0.609375,-0.609375 -1.40625,-0.7851563 -2.238281,-0.7851563 -2.238281,0 -3.4570315,1.453125 -3.4570315,3.2695313 0,2.0039062 1.4765625,3.30468748 3.6445315,3.30468748 2.167969,0 2.8125,-1.51171878 2.8125,-1.75781248 0,-0.2226563 -0.222656,-0.2226563 -0.304688,-0.2226563 -0.234375,0 -0.246093,0.046875 -0.328125,0.234375 -0.375,0.93750003 -1.324218,1.23046878 -2.003906,1.23046878 -2.085937,0 -2.097656,-1.93359378 -2.097656,-2.74218748 z m -4.3125,-0.4101563 c 0.02344,-0.5859375 0.03516,-1.1484375 0.339844,-1.6640625 0.269531,-0.4570312 0.773437,-0.7734375 1.394531,-0.7734375 1.535156,0 1.664062,1.7226563 1.675781,2.4375 z m 7.060547,0.9726563 c 0.691406,0.375 1.488281,0.375 1.710937,0.375 1.980469,0 2.765625,-1.1015625 2.765625,-2.109375 0,-0.7265625 -0.410156,-1.2421875 -0.585937,-1.3945313 0.410156,-0.2226562 0.761718,-0.28125 1.007812,-0.3164062 -0.04687,0.082031 -0.09375,0.1289062 -0.09375,0.3164062 0,0.3046875 0.199219,0.5742188 0.574219,0.5742188 0.375,0 0.574219,-0.2695313 0.574219,-0.5742188 0,-0.3398437 -0.257813,-0.796875 -0.855469,-0.796875 -0.621094,0 -1.207031,0.3046875 -1.511719,0.5625 -0.585937,-0.3515625 -1.148437,-0.4804687 -1.875,-0.4804687 -1.980469,0 -2.765625,1.1015625 -2.765625,2.109375 0,0.4453125 0.140625,1.03125 0.738281,1.5234375 -0.246093,0.2695312 -0.503906,0.7734375 -0.503906,1.2890625 0,0.62109373 0.339844,1.14843748 0.632813,1.38281248 -0.339844,0.08203125 -1.230469,0.41015625 -1.230469,1.23046872 0,0.84375 0.9375,1.8046875 3.574219,1.8046875 2.378906,0 3.585937,-0.7734375 3.585937,-1.8515625 0,-1.26562497 -0.832031,-1.67578122 -1.195312,-1.85156247 -0.691407,-0.33984373 -1.605469,-0.33984373 -2.871094,-0.33984373 -0.351563,0 -0.984375,0 -1.054688,-0.011719 -0.621093,-0.1054687 -0.796875,-0.6445312 -0.796875,-0.9257812 0,-0.1054688 0.02344,-0.328125 0.175782,-0.5156248 z m 1.710937,-0.082031 c -1.253906,0 -1.253906,-0.9960937 -1.253906,-1.6523437 0,-0.65625 0,-1.6523438 1.253906,-1.6523438 1.242188,0 1.242188,0.9960938 1.242188,1.6523438 0,0.65625 0,1.6523437 -1.242188,1.6523437 z m 0.796875,2.84765628 c 1.054688,0 2.050781,0.1875 2.050781,0.93750002 0,0.5039062 -0.492187,1.3359375 -2.390625,1.3359375 -1.898437,0 -2.414062,-0.8085938 -2.414062,-1.3476563 0,-0.92578122 0.902344,-0.92578122 1.125,-0.92578122 z m 6.685547,-3.37499998 c 0,-0.4804688 0.09375,-2.7539063 1.769531,-2.7539063 -0.199218,0.1523438 -0.292968,0.3984375 -0.292968,0.65625 0,0.5859375 0.46875,0.8320313 0.832031,0.8320313 0.351562,0 0.832031,-0.2460938 0.832031,-0.8320313 0,-0.7382812 -0.75,-1.1367187 -1.441406,-1.1367187 -1.125,0 -1.617188,0.9960937 -1.816406,1.59375 h -0.01172 v -1.59375 l -2.355469,0.1171875 v 0.6210937 c 0.890625,0 0.984375,0 0.984375,0.5507813 v 4.54687498 H 24.90375 V -7.96875e-4 C 25.231875,-0.02423437 26.31,-0.02423437 26.708438,-0.02423437 c 0.421875,0 1.582031,0 1.921875,0.023437495 V -0.62189062 h -1.242188 z m 10.083984,0.046875 c 0.328125,0 0.421875,0 0.421875,-0.3515625 0,-0.4335938 -0.105468,-1.5117188 -0.761718,-2.1796875 -0.609375,-0.609375 -1.40625,-0.7851563 -2.238282,-0.7851563 -2.238281,0 -3.457031,1.453125 -3.457031,3.2695313 0,2.0039062 1.476563,3.30468748 3.644531,3.30468748 2.167969,0 2.8125,-1.51171878 2.8125,-1.75781248 0,-0.2226563 -0.222656,-0.2226563 -0.304687,-0.2226563 -0.234375,0 -0.246094,0.046875 -0.328125,0.234375 -0.375,0.93750003 -1.324219,1.23046878 -2.003906,1.23046878 -2.085938,0 -2.097657,-1.93359378 -2.097657,-2.74218748 z m -4.3125,-0.4101563 c 0.02344,-0.5859375 0.03516,-1.1484375 0.339844,-1.6640625 0.269531,-0.4570312 0.773438,-0.7734375 1.394531,-0.7734375 1.535157,0 1.664063,1.7226563 1.675782,2.4375 z m 11.677735,0.4101563 c 0.328125,0 0.421875,0 0.421875,-0.3515625 0,-0.4335938 -0.105469,-1.5117188 -0.761719,-2.1796875 -0.609375,-0.609375 -1.40625,-0.7851563 -2.238281,-0.7851563 -2.238281,0 -3.457031,1.453125 -3.457031,3.2695313 0,2.0039062 1.476562,3.30468748 3.644531,3.30468748 2.167969,0 2.8125,-1.51171878 2.8125,-1.75781248 0,-0.2226563 -0.222656,-0.2226563 -0.304688,-0.2226563 -0.234375,0 -0.246093,0.046875 -0.328125,0.234375 -0.375,0.93750003 -1.324218,1.23046878 -2.003906,1.23046878 -2.085937,0 -2.097656,-1.93359378 -2.097656,-2.74218748 z m -4.3125,-0.4101563 c 0.02344,-0.5859375 0.03516,-1.1484375 0.339844,-1.6640625 0.269531,-0.4570312 0.773437,-0.7734375 1.394531,-0.7734375 1.535156,0 1.664062,1.7226563 1.675781,2.4375 z m 8.463867,-1.7460937 c 0,-0.5976563 -0.46875,-1.03125 -1.03125,-1.03125 -0.5625,0 -1.03125,0.4335937 -1.03125,1.03125 0,0.5859375 0.46875,1.03125 1.03125,1.03125 0.5625,0 1.03125,-0.4453125 1.03125,-1.03125 z m 0,4.3007812 c 0,-0.5859375 -0.46875,-1.03125 -1.03125,-1.03125 -0.5625,0 -1.03125,0.4453125 -1.03125,1.03125 0,0.58593753 0.46875,1.031250025 1.03125,1.031250025 0.5625,0 1.03125,-0.445312495 1.03125,-1.031250025 z m 15.629883,-2.0507812 h -0.597656 c -0.04687,0.3046875 -0.152344,1.1484375 -0.363282,1.2890625 -0.117187,0.1054687 -1.230468,0.1054687 -1.453125,0.1054687 h -2.214843 c 0.539062,-0.46875 1.851562,-1.5585937 2.0625,-1.7109375 1.59375,-1.1953125 2.566406,-1.921875 2.566406,-3.3046875 0,-1.6875 -1.535156,-2.7070312 -3.421875,-2.7070312 -1.628906,0 -3.011719,0.9140625 -3.011719,2.2851562 0,0.7617188 0.609375,0.9726563 0.9375,0.9726563 0.445313,0 0.960938,-0.3046875 0.960938,-0.9609375 0,-0.609375 -0.445313,-0.9023438 -0.890625,-0.9609375 0.574218,-0.65625 1.335937,-0.7148438 1.640625,-0.7148438 1.324218,0 1.945312,1.0664063 1.945312,2.109375 0,1.1132813 -0.75,2.1445313 -1.347656,2.765625 l -3.105469,3.25781253 C 58.185,-0.52814062 58.185,-0.50470312 58.185,-0.24689062 v 0.246093745 h 6.023438 z m 0,0"
       style="fill:#000000;fill-opacity:1;fill-rule:nonzero;stroke:none"
       aria-label="degree:2"
       transform="matrix(1.3333333,0,0,1.3333333,202.42,17.712)" />
    <path
       id="path18"
       d="m 4.9798047,-9.8440859 v 0.6210937 c 0.890625,0 0.984375,0 0.984375,0.5625 v 2.8945313 C 5.6477734,-6.0354922 5.0149609,-6.4573672 4.0305859,-6.4573672 c -2.0390625,0 -3.48046871,1.265625 -3.48046871,3.2695313 0,2.0507812 1.41796871,3.26953121 3.31640621,3.26953121 0.796875,0 1.4648438,-0.26953125 2.0273438,-0.73828125 V 0.08169531 L 8.4485547,-3.359375e-4 V -0.62142969 c -0.890625,0 -0.9960938,0 -0.9960938,-0.55078121 v -8.7773438 z m 0.9140625,8.390625 c -0.5976563,0.87890621 -1.3359375,1.06640621 -1.8515625,1.06640621 -1.78125,0 -1.78125,-1.81640621 -1.78125,-2.76562501 0,-0.6796875 0,-1.3945312 0.3164062,-1.9453125 0.4453125,-0.796875 1.2890625,-0.8789062 1.6289063,-0.8789062 0.5859375,0 1.21875,0.2578125 1.6875,0.8789062 z m 9.5537108,-1.7226563 c 0.328125,0 0.421875,0 0.421875,-0.3515625 0,-0.4335937 -0.105469,-1.5117187 -0.761719,-2.1796875 -0.609375,-0.609375 -1.40625,-0.7851562 -2.238281,-0.7851562 -2.238281,0 -3.4570311,1.453125 -3.4570311,3.2695312 0,2.0039063 1.4765621,3.30468751 3.6445311,3.30468751 2.167969,0 2.8125,-1.51171871 2.8125,-1.75781251 0,-0.2226562 -0.222656,-0.2226562 -0.304687,-0.2226562 -0.234375,0 -0.246094,0.046875 -0.328125,0.234375 -0.375,0.93749996 -1.324219,1.23046871 -2.003907,1.23046871 -2.085937,0 -2.097656,-1.93359371 -2.097656,-2.74218751 z m -4.3125,-0.4101562 c 0.02344,-0.5859375 0.03516,-1.1484375 0.339844,-1.6640625 0.269531,-0.4570313 0.773437,-0.7734375 1.394531,-0.7734375 1.535156,0 1.664063,1.7226562 1.675781,2.4375 z m 7.057617,0.9726562 c 0.691407,0.375 1.488282,0.375 1.710938,0.375 1.980469,0 2.765625,-1.1015625 2.765625,-2.109375 0,-0.7265625 -0.410156,-1.2421875 -0.585938,-1.3945312 0.410157,-0.2226563 0.761719,-0.28125 1.007813,-0.3164063 -0.04687,0.082031 -0.09375,0.1289063 -0.09375,0.3164063 0,0.3046875 0.199219,0.5742187 0.574219,0.5742187 0.375,0 0.574218,-0.2695312 0.574218,-0.5742187 0,-0.3398438 -0.257812,-0.796875 -0.855468,-0.796875 -0.621094,0 -1.207032,0.3046875 -1.511719,0.5625 -0.585938,-0.3515625 -1.148438,-0.4804688 -1.875,-0.4804688 -1.980469,0 -2.765625,1.1015625 -2.765625,2.109375 0,0.4453125 0.140625,1.03125 0.738281,1.5234375 -0.246094,0.2695313 -0.503906,0.7734375 -0.503906,1.2890625 0,0.62109376 0.339844,1.14843751 0.632812,1.38281251 -0.339843,0.08203125 -1.230468,0.41015625 -1.230468,1.23046879 0,0.84375 0.9375,1.8046875 3.574218,1.8046875 2.378907,0 3.585938,-0.7734375 3.585938,-1.8515625 0,-1.26562504 -0.832031,-1.67578129 -1.195313,-1.85156254 -0.691406,-0.33984376 -1.605468,-0.33984376 -2.871093,-0.33984376 -0.351563,0 -0.984375,0 -1.054688,-0.011719 -0.621094,-0.1054688 -0.796875,-0.6445313 -0.796875,-0.9257813 0,-0.1054687 0.02344,-0.328125 0.175781,-0.5156247 z m 1.710938,-0.082031 c -1.253906,0 -1.253906,-0.9960938 -1.253906,-1.6523438 0,-0.65625 0,-1.6523437 1.253906,-1.6523437 1.242187,0 1.242187,0.9960937 1.242187,1.6523437 0,0.65625 0,1.6523438 -1.242187,1.6523438 z m 0.796875,2.84765621 c 1.054687,0 2.050781,0.1875 2.050781,0.93749999 0,0.5039063 -0.492187,1.3359375 -2.390625,1.3359375 -1.898437,0 -2.414062,-0.8085937 -2.414062,-1.3476562 0,-0.92578129 0.902343,-0.92578129 1.125,-0.92578129 z M 27.388984,-3.222992 c 0,-0.4804687 0.09375,-2.7539062 1.769532,-2.7539062 -0.199219,0.1523437 -0.292969,0.3984375 -0.292969,0.65625 0,0.5859375 0.46875,0.8320312 0.832031,0.8320312 0.351563,0 0.832031,-0.2460937 0.832031,-0.8320312 0,-0.7382813 -0.75,-1.1367188 -1.441406,-1.1367188 -1.125,0 -1.617187,0.9960938 -1.816406,1.59375 h -0.01172 v -1.59375 l -2.355469,0.1171875 v 0.6210938 c 0.890625,0 0.984375,0 0.984375,0.5507812 v 4.54687501 h -0.984375 v 0.6210937525 c 0.328125,-0.0234375025 1.40625,-0.0234375025 1.804688,-0.0234375025 0.421875,0 1.582031,0 1.921875,0.0234375025 V -0.62142969 h -1.242188 z m 10.083985,0.046875 c 0.328125,0 0.421875,0 0.421875,-0.3515625 0,-0.4335937 -0.105469,-1.5117187 -0.761719,-2.1796875 -0.609375,-0.609375 -1.40625,-0.7851562 -2.238281,-0.7851562 -2.238282,0 -3.457032,1.453125 -3.457032,3.2695312 0,2.0039063 1.476563,3.30468751 3.644532,3.30468751 2.167968,0 2.8125,-1.51171871 2.8125,-1.75781251 0,-0.2226562 -0.222657,-0.2226562 -0.304688,-0.2226562 -0.234375,0 -0.246094,0.046875 -0.328125,0.234375 -0.375,0.93749996 -1.324219,1.23046871 -2.003906,1.23046871 -2.085938,0 -2.097656,-1.93359371 -2.097656,-2.74218751 z m -4.3125,-0.4101562 c 0.02344,-0.5859375 0.03516,-1.1484375 0.339843,-1.6640625 0.269532,-0.4570313 0.773438,-0.7734375 1.394532,-0.7734375 1.535156,0 1.664062,1.7226562 1.675781,2.4375 z m 11.674804,0.4101562 c 0.328125,0 0.421875,0 0.421875,-0.3515625 0,-0.4335937 -0.105468,-1.5117187 -0.761718,-2.1796875 -0.609375,-0.609375 -1.40625,-0.7851562 -2.238282,-0.7851562 -2.238281,0 -3.457031,1.453125 -3.457031,3.2695312 0,2.0039063 1.476563,3.30468751 3.644531,3.30468751 2.167969,0 2.8125,-1.51171871 2.8125,-1.75781251 0,-0.2226562 -0.222656,-0.2226562 -0.304687,-0.2226562 -0.234375,0 -0.246094,0.046875 -0.328125,0.234375 -0.375,0.93749996 -1.324219,1.23046871 -2.003906,1.23046871 -2.085938,0 -2.097657,-1.93359371 -2.097657,-2.74218751 z m -4.3125,-0.4101562 c 0.02344,-0.5859375 0.03516,-1.1484375 0.339844,-1.6640625 0.269531,-0.4570313 0.773438,-0.7734375 1.394531,-0.7734375 1.535157,0 1.664063,1.7226562 1.675782,2.4375 z M 48.98957,-5.332367 c 0,-0.5976562 -0.46875,-1.03125 -1.03125,-1.03125 -0.5625,0 -1.03125,0.4335938 -1.03125,1.03125 0,0.5859375 0.46875,1.03125 1.03125,1.03125 0.5625,0 1.03125,-0.4453125 1.03125,-1.03125 z m 0,4.3007813 c 0,-0.5859375 -0.46875,-1.03125 -1.03125,-1.03125 -0.5625,0 -1.03125,0.4453125 -1.03125,1.03125 0,0.58593746 0.46875,1.0312499625 1.03125,1.0312499625 0.5625,0 1.03125,-0.4453125025 1.03125,-1.0312499625 z m 12.125977,-3.7148438 c 1.617187,0 1.617187,1.4882813 1.617187,2.1796875 0,0.6445313 0,2.16796876 -1.558593,2.16796876 -0.292969,0 -1.242188,-0.046875 -1.933594,-0.5390625 0.621094,-0.12890626 0.832031,-0.57421876 0.832031,-0.99609376 0,-0.5859375 -0.410156,-1.0078125 -1.007812,-1.0078125 -0.597657,0 -1.007813,0.421875 -1.007813,1.0195313 0,1.32421871 1.429688,2.09765621 3.1875,2.09765621 2.367188,0 3.503906,-1.31250001 3.503906,-2.74218751 0,-0.703125 -0.351562,-2.0625 -2.578125,-2.4492187 1.265625,-0.3867188 2.132813,-1.2773438 2.132813,-2.4140625 0,-1.078125 -1.03125,-1.9804688 -3.023438,-1.9804688 -1.605468,0 -2.789062,0.84375 -2.789062,2.0039063 0,0.7265625 0.5625,0.9492187 0.9375,0.9492187 0.421875,0 0.914062,-0.2695312 0.914062,-0.9257812 0,-0.3398438 -0.140625,-0.8203125 -0.808593,-0.9257813 0.597656,-0.5859375 1.570312,-0.5859375 1.664062,-0.5859375 1.277344,0 1.277344,0.9960938 1.277344,1.4179688 0,0.4335937 -0.05859,1.0898437 -0.527344,1.6875 -0.363281,0.4804687 -0.738281,0.515625 -1.289062,0.5390625 -0.164063,0.011719 -0.457032,0.023437 -0.515625,0.058594 -0.08203,0.046875 -0.08203,0.140625 -0.08203,0.1992188 0,0.2460937 0.08203,0.2460937 0.375,0.2460937 z m 0,0"
       style="fill:#000000;fill-opacity:1;fill-rule:nonzero;stroke:none"
       aria-label="degree:3"
       transform="matrix(1.3333333,0,0,1.3333333,4.4266667,180.57467)" />
    <path
       id="path19"
       d="m 4.9810156,-9.8440859 v 0.6210937 c 0.890625,0 0.984375,0 0.984375,0.5625 v 2.8945313 C 5.6489844,-6.0354922 5.0161719,-6.4573672 4.0317969,-6.4573672 c -2.0390625,0 -3.48046877,1.265625 -3.48046877,3.2695313 0,2.0507812 1.41796877,3.26953121 3.31640627,3.26953121 0.796875,0 1.4648437,-0.26953125 2.0273437,-0.73828125 V 0.08169531 L 8.4497656,-3.359375e-4 V -0.62142969 c -0.890625,0 -0.9960937,0 -0.9960937,-0.55078121 v -8.7773438 z m 0.9140625,8.390625 c -0.5976562,0.87890621 -1.3359375,1.06640621 -1.8515625,1.06640621 -1.78125,0 -1.78125,-1.81640621 -1.78125,-2.76562501 0,-0.6796875 0,-1.3945312 0.3164063,-1.9453125 0.4453125,-0.796875 1.2890625,-0.8789062 1.6289062,-0.8789062 0.5859375,0 1.21875,0.2578125 1.6875,0.8789062 z m 9.5507809,-1.7226563 c 0.328125,0 0.421875,0 0.421875,-0.3515625 0,-0.4335937 -0.105468,-1.5117187 -0.761718,-2.1796875 -0.609375,-0.609375 -1.40625,-0.7851562 -2.238282,-0.7851562 -2.238281,0 -3.4570309,1.453125 -3.4570309,3.2695312 0,2.0039063 1.4765629,3.30468751 3.6445309,3.30468751 2.167969,0 2.8125,-1.51171871 2.8125,-1.75781251 0,-0.2226562 -0.222656,-0.2226562 -0.304687,-0.2226562 -0.234375,0 -0.246094,0.046875 -0.328125,0.234375 -0.375,0.93749996 -1.324219,1.23046871 -2.003906,1.23046871 -2.085938,0 -2.097657,-1.93359371 -2.097657,-2.74218751 z m -4.3125,-0.4101562 c 0.02344,-0.5859375 0.03516,-1.1484375 0.339844,-1.6640625 0.269531,-0.4570313 0.773438,-0.7734375 1.394531,-0.7734375 1.535157,0 1.664063,1.7226562 1.675782,2.4375 z m 7.060547,0.9726562 c 0.691407,0.375 1.488282,0.375 1.710938,0.375 1.980469,0 2.765625,-1.1015625 2.765625,-2.109375 0,-0.7265625 -0.410156,-1.2421875 -0.585938,-1.3945312 0.410157,-0.2226563 0.761719,-0.28125 1.007813,-0.3164063 -0.04687,0.082031 -0.09375,0.1289063 -0.09375,0.3164063 0,0.3046875 0.199219,0.5742187 0.574219,0.5742187 0.375,0 0.574218,-0.2695312 0.574218,-0.5742187 0,-0.3398438 -0.257812,-0.796875 -0.855468,-0.796875 -0.621094,0 -1.207032,0.3046875 -1.511719,0.5625 -0.585938,-0.3515625 -1.148438,-0.4804688 -1.875,-0.4804688 -1.980469,0 -2.765625,1.1015625 -2.765625,2.109375 0,0.4453125 0.140625,1.03125 0.738281,1.5234375 -0.246094,0.2695313 -0.503906,0.7734375 -0.503906,1.2890625 0,0.62109376 0.339844,1.14843751 0.632812,1.38281251 -0.339843,0.08203125 -1.230468,0.41015625 -1.230468,1.23046879 0,0.84375 0.9375,1.8046875 3.574218,1.8046875 2.378907,0 3.585938,-0.7734375 3.585938,-1.8515625 0,-1.26562504 -0.832031,-1.67578129 -1.195313,-1.85156254 -0.691406,-0.33984376 -1.605468,-0.33984376 -2.871093,-0.33984376 -0.351563,0 -0.984375,0 -1.054688,-0.011719 -0.621094,-0.1054688 -0.796875,-0.6445313 -0.796875,-0.9257813 0,-0.1054687 0.02344,-0.328125 0.175781,-0.5156247 z m 1.710938,-0.082031 c -1.253906,0 -1.253906,-0.9960938 -1.253906,-1.6523438 0,-0.65625 0,-1.6523437 1.253906,-1.6523437 1.242187,0 1.242187,0.9960937 1.242187,1.6523437 0,0.65625 0,1.6523438 -1.242187,1.6523438 z m 0.796875,2.84765621 c 1.054687,0 2.050781,0.1875 2.050781,0.93749999 0,0.5039063 -0.492187,1.3359375 -2.390625,1.3359375 -1.898437,0 -2.414062,-0.8085937 -2.414062,-1.3476562 0,-0.92578129 0.902343,-0.92578129 1.125,-0.92578129 z M 27.387266,-3.222992 c 0,-0.4804687 0.09375,-2.7539062 1.769531,-2.7539062 -0.199219,0.1523437 -0.292969,0.3984375 -0.292969,0.65625 0,0.5859375 0.46875,0.8320312 0.832031,0.8320312 0.351563,0 0.832032,-0.2460937 0.832032,-0.8320312 0,-0.7382813 -0.75,-1.1367188 -1.441407,-1.1367188 -1.125,0 -1.617187,0.9960938 -1.816406,1.59375 h -0.01172 v -1.59375 l -2.355468,0.1171875 v 0.6210938 c 0.890625,0 0.984375,0 0.984375,0.5507812 v 4.54687501 H 24.90289 V -3.357375e-4 C 25.231015,-0.02377324 26.30914,-0.02377324 26.707577,-0.02377324 c 0.421875,0 1.582031,0 1.921875,0.0234375025 V -0.62142969 h -1.242187 z m 10.083984,0.046875 c 0.328125,0 0.421875,0 0.421875,-0.3515625 0,-0.4335937 -0.105469,-1.5117187 -0.761719,-2.1796875 -0.609375,-0.609375 -1.40625,-0.7851562 -2.238281,-0.7851562 -2.238281,0 -3.457031,1.453125 -3.457031,3.2695312 0,2.0039063 1.476562,3.30468751 3.644531,3.30468751 2.167969,0 2.8125,-1.51171871 2.8125,-1.75781251 0,-0.2226562 -0.222656,-0.2226562 -0.304687,-0.2226562 -0.234375,0 -0.246094,0.046875 -0.328125,0.234375 -0.375,0.93749996 -1.324219,1.23046871 -2.003907,1.23046871 -2.085937,0 -2.097656,-1.93359371 -2.097656,-2.74218751 z m -4.3125,-0.4101562 c 0.02344,-0.5859375 0.03516,-1.1484375 0.339844,-1.6640625 0.269531,-0.4570313 0.773437,-0.7734375 1.394531,-0.7734375 1.535156,0 1.664063,1.7226562 1.675781,2.4375 z m 11.677734,0.4101562 c 0.328125,0 0.421875,0 0.421875,-0.3515625 0,-0.4335937 -0.105468,-1.5117187 -0.761718,-2.1796875 -0.609375,-0.609375 -1.40625,-0.7851562 -2.238282,-0.7851562 -2.238281,0 -3.457031,1.453125 -3.457031,3.2695312 0,2.0039063 1.476563,3.30468751 3.644531,3.30468751 2.167969,0 2.8125,-1.51171871 2.8125,-1.75781251 0,-0.2226562 -0.222656,-0.2226562 -0.304687,-0.2226562 -0.234375,0 -0.246094,0.046875 -0.328125,0.234375 -0.375,0.93749996 -1.324219,1.23046871 -2.003906,1.23046871 -2.085938,0 -2.097657,-1.93359371 -2.097657,-2.74218751 z m -4.3125,-0.4101562 c 0.02344,-0.5859375 0.03516,-1.1484375 0.339844,-1.6640625 0.269531,-0.4570313 0.773438,-0.7734375 1.394531,-0.7734375 1.535157,0 1.664063,1.7226562 1.675782,2.4375 z m 8.466797,-1.7460938 c 0,-0.5976562 -0.46875,-1.03125 -1.03125,-1.03125 -0.5625,0 -1.03125,0.4335938 -1.03125,1.03125 0,0.5859375 0.46875,1.03125 1.03125,1.03125 0.5625,0 1.03125,-0.4453125 1.03125,-1.03125 z m 0,4.3007813 c 0,-0.5859375 -0.46875,-1.03125 -1.03125,-1.03125 -0.5625,0 -1.03125,0.4453125 -1.03125,1.03125 0,0.58593746 0.46875,1.0312499625 1.03125,1.0312499625 0.5625,0 1.03125,-0.4453125025 1.03125,-1.0312499625 z m 12.123047,-3.7148438 c 1.617188,0 1.617188,1.4882813 1.617188,2.1796875 0,0.6445313 0,2.16796876 -1.558594,2.16796876 -0.292969,0 -1.242188,-0.046875 -1.933594,-0.5390625 0.621094,-0.12890626 0.832031,-0.57421876 0.832031,-0.99609376 0,-0.5859375 -0.410156,-1.0078125 -1.007812,-1.0078125 -0.597656,0 -1.007813,0.421875 -1.007813,1.0195313 0,1.32421871 1.429688,2.09765621 3.1875,2.09765621 2.367188,0 3.503907,-1.31250001 3.503907,-2.74218751 0,-0.703125 -0.351563,-2.0625 -2.578125,-2.4492187 1.265625,-0.3867188 2.132812,-1.2773438 2.132812,-2.4140625 0,-1.078125 -1.03125,-1.9804688 -3.023437,-1.9804688 -1.605469,0 -2.789063,0.84375 -2.789063,2.0039063 0,0.7265625 0.5625,0.9492187 0.9375,0.9492187 0.421875,0 0.914063,-0.2695312 0.914063,-0.9257812 0,-0.3398438 -0.140625,-0.8203125 -0.808594,-0.9257813 0.597656,-0.5859375 1.570312,-0.5859375 1.664062,-0.5859375 1.277344,0 1.277344,0.9960938 1.277344,1.4179688 0,0.4335937 -0.05859,1.0898437 -0.527344,1.6875 -0.363281,0.4804687 -0.738281,0.515625 -1.289062,0.5390625 -0.164063,0.011719 -0.457031,0.023437 -0.515625,0.058594 -0.08203,0.046875 -0.08203,0.140625 -0.08203,0.1992188 0,0.2460937 0.08203,0.2460937 0.375,0.2460937 z m 0,0"
       style="fill:#000000;fill-opacity:1;fill-rule:nonzero;stroke:none"
       aria-label="degree:3"
       transform="matrix(1.3333333,0,0,1.3333333,400.41333,180.57467)" />
    <path
       id="path20"
       d="m 4.9815547,-9.8449063 v 0.6210938 c 0.890625,0 0.984375,0 0.984375,0.5625 v 2.8945312 C 5.6495234,-6.0363125 5.0167109,-6.4581875 4.0323359,-6.4581875 c -2.0390625,0 -3.48046871,1.265625 -3.48046871,3.2695312 0,2.0507813 1.41796871,3.2695313 3.31640621,3.2695313 0.796875,0 1.4648438,-0.26953125 2.0273438,-0.73828125 V 0.080875 L 8.4503047,-0.00115625 V -0.62225 c -0.890625,0 -0.9960938,0 -0.9960938,-0.5507813 V -9.950375 Z m 0.9140625,8.390625 C 5.2979609,-0.575375 4.5596797,-0.387875 4.0440547,-0.387875 c -1.78125,0 -1.78125,-1.8164063 -1.78125,-2.765625 0,-0.6796875 0,-1.3945313 0.3164062,-1.9453125 0.4453125,-0.796875 1.2890625,-0.8789063 1.6289063,-0.8789063 0.5859375,0 1.21875,0.2578125 1.6875,0.8789063 z m 9.5507808,-1.7226562 c 0.328125,0 0.421875,0 0.421875,-0.3515625 0,-0.4335938 -0.105468,-1.5117188 -0.761718,-2.1796875 -0.609375,-0.609375 -1.40625,-0.7851563 -2.238282,-0.7851563 -2.238281,0 -3.4570308,1.453125 -3.4570308,3.2695313 0,2.0039062 1.4765628,3.3046875 3.6445308,3.3046875 2.167969,0 2.8125,-1.5117188 2.8125,-1.7578125 0,-0.2226563 -0.222656,-0.2226563 -0.304687,-0.2226563 -0.234375,0 -0.246094,0.046875 -0.328125,0.234375 -0.375,0.93750005 -1.324219,1.2304688 -2.003906,1.2304688 -2.085938,0 -2.097657,-1.9335938 -2.097657,-2.7421875 z m -4.3125,-0.4101563 c 0.02344,-0.5859375 0.03516,-1.1484375 0.339844,-1.6640625 0.269531,-0.4570312 0.773438,-0.7734375 1.394531,-0.7734375 1.535157,0 1.664063,1.7226563 1.675782,2.4375 z m 7.060547,0.9726563 c 0.691407,0.375 1.488282,0.375 1.710938,0.375 1.980469,0 2.765625,-1.1015625 2.765625,-2.109375 0,-0.7265625 -0.410156,-1.2421875 -0.585938,-1.3945313 0.410157,-0.2226562 0.761719,-0.28125 1.007813,-0.3164062 -0.04687,0.082031 -0.09375,0.1289062 -0.09375,0.3164062 0,0.3046875 0.199219,0.5742188 0.574219,0.5742188 0.375,0 0.574218,-0.2695313 0.574218,-0.5742188 0,-0.3398437 -0.257812,-0.796875 -0.855468,-0.796875 -0.621094,0 -1.207032,0.3046875 -1.511719,0.5625 -0.585938,-0.3515625 -1.148438,-0.4804687 -1.875,-0.4804687 -1.980469,0 -2.765625,1.1015625 -2.765625,2.109375 0,0.4453125 0.140625,1.03125 0.738281,1.5234375 -0.246094,0.2695312 -0.503906,0.7734375 -0.503906,1.2890625 0,0.62109375 0.339844,1.1484375 0.632812,1.3828125 -0.339843,0.08203125 -1.230468,0.41015625 -1.230468,1.2304687 0,0.84375 0.9375,1.8046875 3.574218,1.8046875 2.378907,0 3.585938,-0.7734375 3.585938,-1.8515625 0,-1.26562495 -0.832031,-1.6757812 -1.195313,-1.85156245 -0.691406,-0.33984375 -1.605468,-0.33984375 -2.871093,-0.33984375 -0.351563,0 -0.984375,0 -1.054688,-0.011719 -0.621094,-0.1054687 -0.796875,-0.6445312 -0.796875,-0.9257812 0,-0.1054688 0.02344,-0.328125 0.175781,-0.5156248 z m 1.710938,-0.082031 c -1.253906,0 -1.253906,-0.9960937 -1.253906,-1.6523437 0,-0.65625 0,-1.6523438 1.253906,-1.6523438 1.242187,0 1.242187,0.9960938 1.242187,1.6523438 0,0.65625 0,1.6523437 -1.242187,1.6523437 z m 0.796875,2.8476563 c 1.054687,0 2.050781,0.1875 2.050781,0.9375 0,0.5039062 -0.492187,1.3359375 -2.390625,1.3359375 -1.898437,0 -2.414062,-0.8085938 -2.414062,-1.3476563 0,-0.9257812 0.902343,-0.9257812 1.125,-0.9257812 z m 6.685547,-3.375 c 0,-0.4804688 0.09375,-2.7539063 1.769531,-2.7539063 -0.199219,0.1523438 -0.292969,0.3984375 -0.292969,0.65625 0,0.5859375 0.46875,0.8320313 0.832031,0.8320313 0.351563,0 0.832032,-0.2460938 0.832032,-0.8320313 0,-0.7382812 -0.75,-1.1367187 -1.441407,-1.1367187 -1.125,0 -1.617187,0.9960937 -1.816406,1.59375 h -0.01172 v -1.59375 L 24.90343,-6.341 v 0.6210937 c 0.890625,0 0.984375,0 0.984375,0.5507813 V -0.62225 H 24.90343 v 0.62109375 c 0.328125,-0.0234375 1.40625,-0.0234375 1.804687,-0.0234375 0.421875,0 1.582031,0 1.921875,0.0234375 V -0.62225 h -1.242187 z m 10.083984,0.046875 c 0.328125,0 0.421875,0 0.421875,-0.3515625 0,-0.4335938 -0.105469,-1.5117188 -0.761719,-2.1796875 -0.609375,-0.609375 -1.40625,-0.7851563 -2.238281,-0.7851563 -2.238281,0 -3.457031,1.453125 -3.457031,3.2695313 0,2.0039062 1.476562,3.3046875 3.644531,3.3046875 2.167969,0 2.8125,-1.5117188 2.8125,-1.7578125 0,-0.2226563 -0.222656,-0.2226563 -0.304687,-0.2226563 -0.234375,0 -0.246094,0.046875 -0.328125,0.234375 -0.375,0.93750005 -1.324219,1.2304688 -2.003907,1.2304688 -2.085937,0 -2.097656,-1.9335938 -2.097656,-2.7421875 z m -4.3125,-0.4101563 c 0.02344,-0.5859375 0.03516,-1.1484375 0.339844,-1.6640625 0.269531,-0.4570312 0.773437,-0.7734375 1.394531,-0.7734375 1.535156,0 1.664063,1.7226563 1.675781,2.4375 z m 11.677734,0.4101563 c 0.328125,0 0.421875,0 0.421875,-0.3515625 0,-0.4335938 -0.105468,-1.5117188 -0.761718,-2.1796875 -0.609375,-0.609375 -1.40625,-0.7851563 -2.238282,-0.7851563 -2.238281,0 -3.457031,1.453125 -3.457031,3.2695313 0,2.0039062 1.476563,3.3046875 3.644531,3.3046875 2.167969,0 2.8125,-1.5117188 2.8125,-1.7578125 0,-0.2226563 -0.222656,-0.2226563 -0.304687,-0.2226563 -0.234375,0 -0.246094,0.046875 -0.328125,0.234375 -0.375,0.93750005 -1.324219,1.2304688 -2.003906,1.2304688 -2.085938,0 -2.097657,-1.9335938 -2.097657,-2.7421875 z m -4.3125,-0.4101563 c 0.02344,-0.5859375 0.03516,-1.1484375 0.339844,-1.6640625 0.269531,-0.4570312 0.773438,-0.7734375 1.394531,-0.7734375 1.535157,0 1.664063,1.7226563 1.675782,2.4375 z m 8.463868,-1.7460937 c 0,-0.5976563 -0.46875,-1.03125 -1.03125,-1.03125 -0.5625,0 -1.03125,0.4335937 -1.03125,1.03125 0,0.5859375 0.46875,1.03125 1.03125,1.03125 0.5625,0 1.03125,-0.4453125 1.03125,-1.03125 z m 0,4.3007812 c 0,-0.5859375 -0.46875,-1.03125 -1.03125,-1.03125 -0.5625,0 -1.03125,0.4453125 -1.03125,1.03125 0,0.58593755 0.46875,1.03125005 1.03125,1.03125005 0.5625,0 1.03125,-0.4453125 1.03125,-1.03125005 z m 15.629882,-2.0507812 h -0.597656 c -0.04687,0.3046875 -0.152344,1.1484375 -0.363281,1.2890625 -0.117188,0.1054687 -1.230469,0.1054687 -1.453125,0.1054687 h -2.214844 c 0.539063,-0.46875 1.851563,-1.5585937 2.0625,-1.7109375 1.59375,-1.1953125 2.566406,-1.921875 2.566406,-3.3046875 0,-1.6875 -1.535156,-2.7070312 -3.421875,-2.7070312 -1.628906,0 -3.011718,0.9140625 -3.011718,2.2851562 0,0.7617188 0.609375,0.9726563 0.9375,0.9726563 0.445312,0 0.960937,-0.3046875 0.960937,-0.9609375 0,-0.609375 -0.445312,-0.9023438 -0.890625,-0.9609375 0.574219,-0.65625 1.335938,-0.7148438 1.640625,-0.7148438 1.324219,0 1.945313,1.0664063 1.945313,2.109375 0,1.1132813 -0.75,2.1445313 -1.347657,2.765625 l -3.105468,3.25781255 C 58.18468,-0.5285 58.18468,-0.5050625 58.18468,-0.24725 v 0.24609375 h 6.023437 z m 0,0"
       style="fill:#000000;fill-opacity:1;fill-rule:nonzero;stroke:none"
       aria-label="degree:2"
       transform="matrix(1.3333333,0,0,1.3333333,52.049333,377.45467)" />
    <path
       id="path21"
       d="m 4.9811953,-9.8449063 v 0.6210938 c 0.890625,0 0.984375,0 0.984375,0.5625 v 2.8945312 C 5.6491641,-6.0363125 5.0163516,-6.4581875 4.0319766,-6.4581875 c -2.0390625,0 -3.48046879,1.265625 -3.48046879,3.2695312 0,2.0507813 1.41796879,3.2695313 3.31640629,3.2695313 0.796875,0 1.4648437,-0.26953125 2.0273437,-0.73828125 V 0.080875 L 8.4499453,-0.00115625 V -0.62225 c -0.890625,0 -0.9960937,0 -0.9960937,-0.5507813 V -9.950375 Z m 0.9140625,8.390625 C 5.2976016,-0.575375 4.5593203,-0.387875 4.0436953,-0.387875 c -1.78125,0 -1.78125,-1.8164063 -1.78125,-2.765625 0,-0.6796875 0,-1.3945313 0.3164063,-1.9453125 0.4453125,-0.796875 1.2890625,-0.8789063 1.6289062,-0.8789063 0.5859375,0 1.21875,0.2578125 1.6875,0.8789063 z m 9.5507812,-1.7226562 c 0.328125,0 0.421875,0 0.421875,-0.3515625 0,-0.4335938 -0.105469,-1.5117188 -0.761719,-2.1796875 -0.609375,-0.609375 -1.40625,-0.7851563 -2.238281,-0.7851563 -2.238281,0 -3.4570312,1.453125 -3.4570312,3.2695313 0,2.0039062 1.4765622,3.3046875 3.6445312,3.3046875 2.167969,0 2.8125,-1.5117188 2.8125,-1.7578125 0,-0.2226563 -0.222656,-0.2226563 -0.304687,-0.2226563 -0.234375,0 -0.246094,0.046875 -0.328125,0.234375 -0.375,0.93750005 -1.324219,1.2304688 -2.003907,1.2304688 -2.085937,0 -2.097656,-1.9335938 -2.097656,-2.7421875 z m -4.3125,-0.4101563 c 0.02344,-0.5859375 0.03516,-1.1484375 0.339844,-1.6640625 0.269531,-0.4570312 0.773437,-0.7734375 1.394531,-0.7734375 1.535156,0 1.664063,1.7226563 1.675781,2.4375 z m 7.060547,0.9726563 c 0.691406,0.375 1.488281,0.375 1.710937,0.375 1.980469,0 2.765625,-1.1015625 2.765625,-2.109375 0,-0.7265625 -0.410156,-1.2421875 -0.585937,-1.3945313 0.410156,-0.2226562 0.761719,-0.28125 1.007812,-0.3164062 -0.04687,0.082031 -0.09375,0.1289062 -0.09375,0.3164062 0,0.3046875 0.199219,0.5742188 0.574219,0.5742188 0.375,0 0.574219,-0.2695313 0.574219,-0.5742188 0,-0.3398437 -0.257813,-0.796875 -0.855469,-0.796875 -0.621094,0 -1.207031,0.3046875 -1.511719,0.5625 -0.585937,-0.3515625 -1.148437,-0.4804687 -1.875,-0.4804687 -1.980468,0 -2.765625,1.1015625 -2.765625,2.109375 0,0.4453125 0.140625,1.03125 0.738282,1.5234375 -0.246094,0.2695312 -0.503907,0.7734375 -0.503907,1.2890625 0,0.62109375 0.339844,1.1484375 0.632813,1.3828125 -0.339844,0.08203125 -1.230469,0.41015625 -1.230469,1.2304687 0,0.84375 0.9375,1.8046875 3.574219,1.8046875 2.378906,0 3.585937,-0.7734375 3.585937,-1.8515625 0,-1.26562495 -0.832031,-1.6757812 -1.195312,-1.85156245 -0.691406,-0.33984375 -1.605469,-0.33984375 -2.871094,-0.33984375 -0.351562,0 -0.984375,0 -1.054687,-0.011719 -0.621094,-0.1054687 -0.796875,-0.6445312 -0.796875,-0.9257812 0,-0.1054688 0.02344,-0.328125 0.175781,-0.5156248 z m 1.710937,-0.082031 c -1.253906,0 -1.253906,-0.9960937 -1.253906,-1.6523437 0,-0.65625 0,-1.6523438 1.253906,-1.6523438 1.242188,0 1.242188,0.9960938 1.242188,1.6523438 0,0.65625 0,1.6523437 -1.242188,1.6523437 z m 0.796875,2.8476563 c 1.054688,0 2.050782,0.1875 2.050782,0.9375 0,0.5039062 -0.492188,1.3359375 -2.390625,1.3359375 -1.898438,0 -2.414063,-0.8085938 -2.414063,-1.3476563 0,-0.9257812 0.902344,-0.9257812 1.125,-0.9257812 z m 6.685547,-3.375 c 0,-0.4804688 0.09375,-2.7539063 1.769532,-2.7539063 -0.199219,0.1523438 -0.292969,0.3984375 -0.292969,0.65625 0,0.5859375 0.46875,0.8320313 0.832031,0.8320313 0.351563,0 0.832031,-0.2460938 0.832031,-0.8320313 0,-0.7382812 -0.75,-1.1367187 -1.441406,-1.1367187 -1.125,0 -1.617187,0.9960937 -1.816406,1.59375 h -0.01172 v -1.59375 L 24.90307,-6.341 v 0.6210937 c 0.890625,0 0.984375,0 0.984375,0.5507813 V -0.62225 H 24.90307 v 0.62109375 c 0.328125,-0.0234375 1.40625,-0.0234375 1.804688,-0.0234375 0.421875,0 1.582031,0 1.921875,0.0234375 V -0.62225 h -1.242188 z m 10.083985,0.046875 c 0.328125,0 0.421875,0 0.421875,-0.3515625 0,-0.4335938 -0.105469,-1.5117188 -0.761719,-2.1796875 -0.609375,-0.609375 -1.40625,-0.7851563 -2.238281,-0.7851563 -2.238282,0 -3.457032,1.453125 -3.457032,3.2695313 0,2.0039062 1.476563,3.3046875 3.644532,3.3046875 2.167968,0 2.8125,-1.5117188 2.8125,-1.7578125 0,-0.2226563 -0.222657,-0.2226563 -0.304688,-0.2226563 -0.234375,0 -0.246094,0.046875 -0.328125,0.234375 -0.375,0.93750005 -1.324219,1.2304688 -2.003906,1.2304688 -2.085938,0 -2.097656,-1.9335938 -2.097656,-2.7421875 z m -4.3125,-0.4101563 c 0.02344,-0.5859375 0.03516,-1.1484375 0.339843,-1.6640625 0.269532,-0.4570312 0.773438,-0.7734375 1.394532,-0.7734375 1.535156,0 1.664062,1.7226563 1.675781,2.4375 z m 11.677734,0.4101563 c 0.328125,0 0.421875,0 0.421875,-0.3515625 0,-0.4335938 -0.105469,-1.5117188 -0.761719,-2.1796875 -0.609375,-0.609375 -1.40625,-0.7851563 -2.238281,-0.7851563 -2.238281,0 -3.457031,1.453125 -3.457031,3.2695313 0,2.0039062 1.476562,3.3046875 3.644531,3.3046875 2.167969,0 2.8125,-1.5117188 2.8125,-1.7578125 0,-0.2226563 -0.222656,-0.2226563 -0.304687,-0.2226563 -0.234375,0 -0.246094,0.046875 -0.328125,0.234375 -0.375,0.93750005 -1.324219,1.2304688 -2.003907,1.2304688 -2.085937,0 -2.097656,-1.9335938 -2.097656,-2.7421875 z m -4.3125,-0.4101563 c 0.02344,-0.5859375 0.03516,-1.1484375 0.339844,-1.6640625 0.269531,-0.4570312 0.773437,-0.7734375 1.394531,-0.7734375 1.535156,0 1.664063,1.7226563 1.675781,2.4375 z m 8.463867,-1.7460937 c 0,-0.5976563 -0.46875,-1.03125 -1.03125,-1.03125 -0.5625,0 -1.03125,0.4335937 -1.03125,1.03125 0,0.5859375 0.46875,1.03125 1.03125,1.03125 0.5625,0 1.03125,-0.4453125 1.03125,-1.03125 z m 0,4.3007812 c 0,-0.5859375 -0.46875,-1.03125 -1.03125,-1.03125 -0.5625,0 -1.03125,0.4453125 -1.03125,1.03125 0,0.58593755 0.46875,1.03125005 1.03125,1.03125005 0.5625,0 1.03125,-0.4453125 1.03125,-1.03125005 z m 15.629883,-2.0507812 h -0.597656 c -0.04687,0.3046875 -0.152344,1.1484375 -0.363281,1.2890625 -0.117188,0.1054687 -1.230469,0.1054687 -1.453125,0.1054687 h -2.214844 c 0.539062,-0.46875 1.851562,-1.5585937 2.0625,-1.7109375 1.59375,-1.1953125 2.566406,-1.921875 2.566406,-3.3046875 0,-1.6875 -1.535156,-2.7070312 -3.421875,-2.7070312 -1.628906,0 -3.011719,0.9140625 -3.011719,2.2851562 0,0.7617188 0.609375,0.9726563 0.9375,0.9726563 0.445313,0 0.960938,-0.3046875 0.960938,-0.9609375 0,-0.609375 -0.445313,-0.9023438 -0.890625,-0.9609375 0.574219,-0.65625 1.335937,-0.7148438 1.640625,-0.7148438 1.324219,0 1.945312,1.0664063 1.945312,2.109375 0,1.1132813 -0.75,2.1445313 -1.347656,2.765625 l -3.105469,3.25781255 C 58.18432,-0.5285 58.18432,-0.5050625 58.18432,-0.24725 v 0.24609375 h 6.023438 z m 0,0"
       style="fill:#000000;fill-opacity:1;fill-rule:nonzero;stroke:none"
       aria-label="degree:2"
       transform="matrix(1.3333333,0,0,1.3333333,352.792,377.45467)" />
  </g>
</svg>
