<?xml version="1.0" encoding="UTF-8" standalone="no"?>
<!-- Created with Inkscape (http://www.inkscape.org/) -->

<svg
   version="1.1"
   id="svg1"
   width="386.82812"
   height="339.28906"
   viewBox="0 0 386.82812 339.28907"
   xmlns="http://www.w3.org/2000/svg"
   xmlns:svg="http://www.w3.org/2000/svg">
  <defs
     id="defs1" />
  <g
     id="g1"
     transform="translate(-4.8828125,-4.4335936)">
    <path
       id="path1"
       d="m 11.33876,102.04868 c 0,6.26229 -5.07646,11.33876 -11.33876,11.33876 -6.2623,0 -11.33876,-5.07647 -11.33876,-11.33876 0,-6.26232 5.07646,-11.33876 11.33876,-11.33876 6.2623,0 11.33876,5.07644 11.33876,11.33876 z"
       style="fill:#ccccff;fill-opacity:1;fill-rule:nonzero;stroke:#000000;stroke-width:0.3985;stroke-linecap:butt;stroke-linejoin:miter;stroke-miterlimit:10;stroke-dasharray:none;stroke-opacity:1"
       transform="matrix(1.3333333,0,0,-1.3333333,198.35467,191.008)" />
    <path
       id="path2"
       d="m 4.5833984,-3.1885078 c 0,-0.796875 -0.046875,-1.59375 -0.3984375,-2.3320313 -0.4570312,-0.9609375 -1.2773437,-1.1132812 -1.6875,-1.1132812 -0.5976562,0 -1.3359375,0.2578125 -1.73437496,1.1835937 -0.328125,0.6914063 -0.375,1.4648438 -0.375,2.2617188 0,0.75 0.046875,1.640625 0.4453125,2.40234374 0.43359376,0.80859375 1.16015626,1.0078125 1.65234376,1.0078125 0.5390625,0 1.2890625,-0.2109375 1.734375,-1.16015625 C 4.5365234,-1.6299141 4.5833984,-2.4033516 4.5833984,-3.1885078 Z m -2.0976562,3.18749999 c -0.3867188,0 -0.984375,-0.24609375 -1.1601563,-1.20703129 -0.1054687,-0.5976562 -0.1054687,-1.5117187 -0.1054687,-2.0976562 0,-0.6445313 0,-1.3007813 0.082031,-1.8398438 0.1875,-1.1835937 0.9257813,-1.265625 1.1835938,-1.265625 0.328125,0 0.984375,0.1757813 1.171875,1.1601563 0.09375,0.5625 0.09375,1.3125 0.09375,1.9453125 0,0.75 0,1.4179687 -0.1054688,2.0625 -0.1523437,0.93749999 -0.7148437,1.24218749 -1.160156,1.24218749 z m 0,0"
       style="fill:#000000;fill-opacity:1;fill-rule:nonzero;stroke:none"
       aria-label="0"
       transform="matrix(1.3333333,0,0,1.3333333,195.03333,59.224)" />
    <path
       id="path3"
       d="m -65.19772,25.51215 c 0,6.26231 -5.07647,11.33875 -11.33876,11.33875 -6.2623,0 -11.33876,-5.07644 -11.33876,-11.33875 0,-6.2623 5.07646,-11.33876 11.33876,-11.33876 6.26229,0 11.33876,5.07646 11.33876,11.33876 z"
       style="fill:#ccffcc;fill-opacity:1;fill-rule:nonzero;stroke:#000000;stroke-width:0.3985;stroke-linecap:butt;stroke-linejoin:miter;stroke-miterlimit:10;stroke-dasharray:none;stroke-opacity:1"
       transform="matrix(1.3333333,0,0,-1.3333333,198.35467,191.008)" />
    <path
       id="path4"
       d="m 2.9308984,-6.3739219 c 0,-0.234375 0,-0.2578125 -0.234375,-0.2578125 -0.609375,0.6328125 -1.4882812,0.6328125 -1.80468746,0.6328125 v 0.3164063 c 0.19921876,0 0.78515626,0 1.30078126,-0.2578125 v 5.15624998 c 0,0.3515625 -0.035156,0.48046875 -0.9257813,0.48046875 H 0.95042969 v 0.3046875 C 1.3019922,-0.03407812 2.1574609,-0.03407812 2.5558984,-0.03407812 c 0.3984375,0 1.265625,0 1.6171875,0.03515625 v -0.3046875 H 3.8566797 c -0.9023438,0 -0.9257813,-0.1171875 -0.9257813,-0.48046875 z m 0,0"
       style="fill:#000000;fill-opacity:1;fill-rule:nonzero;stroke:none"
       aria-label="1"
       transform="matrix(1.3333333,0,0,1.3333333,92.986667,161.272)" />
    <path
       id="path5"
       d="m 87.87524,25.51215 c 0,6.26231 -5.07646,11.33875 -11.33876,11.33875 -6.26229,0 -11.33876,-5.07644 -11.33876,-11.33875 0,-6.2623 5.07647,-11.33876 11.33876,-11.33876 6.2623,0 11.33876,5.07646 11.33876,11.33876 z"
       style="fill:#ffcccc;fill-opacity:1;fill-rule:nonzero;stroke:#000000;stroke-width:0.3985;stroke-linecap:butt;stroke-linejoin:miter;stroke-miterlimit:10;stroke-dasharray:none;stroke-opacity:1"
       transform="matrix(1.3333333,0,0,-1.3333333,198.35467,191.008)" />
    <path
       id="path6"
       d="M 1.2661484,-0.76064062 2.3208359,-1.7918906 c 1.5585938,-1.3710938 2.15625,-1.9101563 2.15625,-2.90625 0,-1.1367188 -0.9023437,-1.9335938 -2.1210937,-1.9335938 -1.125,0 -1.85156251,0.9140625 -1.85156251,1.8046875 0,0.5507813 0.4921875,0.5507813 0.52734371,0.5507813 0.1640625,0 0.515625,-0.1171875 0.515625,-0.5273438 0,-0.2578125 -0.1875,-0.515625 -0.5273437,-0.515625 -0.0820313,0 -0.10546876,0 -0.12890626,0.011719 0.22265626,-0.6445313 0.76171876,-1.0195313 1.33593746,-1.0195313 0.9140625,0 1.3359375,0.8085938 1.3359375,1.6289063 0,0.796875 -0.4921875,1.5820312 -1.0429687,2.203125 L 0.60989844,-0.36220312 C 0.50442969,-0.25673437 0.50442969,-0.23329687 0.50442969,0.00107813 H 4.1958359 l 0.28125,-1.73437503 H 4.2192734 c -0.046875,0.3046875 -0.1171875,0.73828128 -0.2109375,0.89062503 -0.070312,0.0820313 -0.7265625,0.0820313 -0.9492187,0.0820313 z m 0,0"
       style="fill:#000000;fill-opacity:1;fill-rule:nonzero;stroke:none"
       aria-label="2"
       transform="matrix(1.3333333,0,0,1.3333333,297.08133,161.272)" />
    <path
       id="path7"
       d="m -39.68556,-76.53648 c 0,6.26229 -5.07646,11.33876 -11.33876,11.33876 -6.2623,0 -11.33876,-5.07647 -11.33876,-11.33876 0,-6.2623 5.07646,-11.33876 11.33876,-11.33876 6.2623,0 11.33876,5.07646 11.33876,11.33876 z"
       style="fill:#ffe6cc;fill-opacity:1;fill-rule:nonzero;stroke:#000000;stroke-width:0.3985;stroke-linecap:butt;stroke-linejoin:miter;stroke-miterlimit:10;stroke-dasharray:none;stroke-opacity:1"
       transform="matrix(1.3333333,0,0,-1.3333333,198.35467,191.008)" />
    <path
       id="path8"
       d="m 2.8954609,-3.5029531 c 0.8085938,-0.2695313 1.3945313,-0.9726563 1.3945313,-1.7578125 0,-0.8203125 -0.8789063,-1.3710938 -1.8398438,-1.3710938 -1.0078125,0 -1.75781246,0.5976563 -1.75781246,1.3476563 0,0.3398437 0.2109375,0.5273437 0.50390626,0.5273437 0.3046875,0 0.5039062,-0.2226562 0.5039062,-0.515625 0,-0.4921875 -0.46875,-0.4921875 -0.609375,-0.4921875 0.3046875,-0.4921875 0.9609375,-0.6210937 1.3242188,-0.6210937 0.4101562,0 0.9492187,0.2226562 0.9492187,1.1132812 0,0.1289063 -0.011719,0.703125 -0.2695312,1.1367188 -0.3046875,0.4804687 -0.6445313,0.515625 -0.890625,0.515625 -0.082031,0.011719 -0.3164063,0.035156 -0.3867188,0.035156 -0.082031,0.011719 -0.1523437,0.023437 -0.1523437,0.1171875 0,0.1171875 0.070312,0.1171875 0.234375,0.1171875 h 0.4453125 c 0.8085937,0 1.1835937,0.6679688 1.1835937,1.6523438 0,1.34765623 -0.6914062,1.64062498 -1.125,1.64062498 -0.4335937,0 -1.171875,-0.17578125 -1.52343746,-0.76171875 0.35156246,0.0585938 0.65624996,-0.1640625 0.65624996,-0.53906253 0,-0.3632812 -0.2695312,-0.5625 -0.56249996,-0.5625 -0.234375,0 -0.55078125,0.140625 -0.55078125,0.5742188 0,0.91406248 0.92578121,1.57031248 2.00390621,1.57031248 1.21875,0 2.1210938,-0.9140625 2.1210938,-1.92187498 0,-0.8203125 -0.6210938,-1.59375 -1.6523438,-1.8046873 z m 0,0"
       style="fill:#000000;fill-opacity:1;fill-rule:nonzero;stroke:none"
       aria-label="3"
       transform="matrix(1.3333333,0,0,1.3333333,127.00267,297.33467)" />
    <path
       id="path9"
       d="m 62.36308,-76.53648 c 0,6.26229 -5.07646,11.33876 -11.33876,11.33876 -6.2623,0 -11.33876,-5.07647 -11.33876,-11.33876 0,-6.2623 5.07646,-11.33876 11.33876,-11.33876 6.2623,0 11.33876,5.07646 11.33876,11.33876 z"
       style="fill:#f2ccd9;fill-opacity:1;fill-rule:nonzero;stroke:#000000;stroke-width:0.3985;stroke-linecap:butt;stroke-linejoin:miter;stroke-miterlimit:10;stroke-dasharray:none;stroke-opacity:1"
       transform="matrix(1.3333333,0,0,-1.3333333,198.35467,191.008)" />
    <path
       id="path10"
       d="m 2.9304922,-1.6396719 v 0.86718753 c 0,0.3515625 -0.023437,0.46875 -0.7617188,0.46875 H 1.9578359 V 9.53125e-4 c 0.4101563,-0.035156245 0.9375,-0.035156245 1.3476563,-0.035156245 0.421875,0 0.9492187,0 1.359375,0.035156245 V -0.30373437 H 4.4539297 c -0.7382813,0 -0.7617188,-0.1171875 -0.7617188,-0.46875 V -1.6396719 H 4.6883047 V -1.9560781 H 3.6922109 v -4.5234375 c 0,-0.1992188 0,-0.2578125 -0.1523437,-0.2578125 -0.09375,0 -0.1171875,0 -0.1992188,0.1171875 l -3.05859371,4.6640625 v 0.3164062 z m 0.058594,-0.3164062 H 0.56330469 L 2.9890859,-5.6709219 Z m 0,0"
       style="fill:#000000;fill-opacity:1;fill-rule:nonzero;stroke:none"
       aria-label="4"
       transform="matrix(1.3333333,0,0,1.3333333,263.06533,297.33467)" />
    <path
       id="path11"
       d="M -8.16063,93.90443 -68.38844,33.67621"
       style="fill:none;stroke:#0000ff;stroke-width:0.79701;stroke-linecap:butt;stroke-linejoin:miter;stroke-miterlimit:10;stroke-dasharray:none;stroke-opacity:1"
       transform="matrix(1.3333333,0,0,-1.3333333,198.35467,191.008)" />
    <path
       id="path12"
       d="M 8.16063,93.90443 68.38844,33.67621"
       style="fill:none;stroke:#0000ff;stroke-width:0.79701;stroke-linecap:butt;stroke-linejoin:miter;stroke-miterlimit:10;stroke-dasharray:none;stroke-opacity:1"
       transform="matrix(1.3333333,0,0,-1.3333333,198.35467,191.008)" />
    <path
       id="path13"
       d="M -65.00787,25.51591 H 65.00787"
       style="fill:none;stroke:#0000ff;stroke-width:0.79701;stroke-linecap:butt;stroke-linejoin:miter;stroke-miterlimit:10;stroke-dasharray:none;stroke-opacity:1"
       transform="matrix(1.3333333,0,0,-1.3333333,198.35467,191.008)" />
    <path
       id="path14"
       d="m -73.75014,14.32051 19.91925,-79.67314"
       style="fill:none;stroke:#0000ff;stroke-width:0.79701;stroke-linecap:butt;stroke-linejoin:miter;stroke-miterlimit:10;stroke-dasharray:none;stroke-opacity:1"
       transform="matrix(1.3333333,0,0,-1.3333333,198.35467,191.008)" />
    <path
       id="path15"
       d="M 73.75014,14.32051 53.83089,-65.35263"
       style="fill:none;stroke:#0000ff;stroke-width:0.79701;stroke-linecap:butt;stroke-linejoin:miter;stroke-miterlimit:10;stroke-dasharray:none;stroke-opacity:1"
       transform="matrix(1.3333333,0,0,-1.3333333,198.35467,191.008)" />
    <path
       id="path16"
       d="m -39.49207,-76.54892 78.98414,5.3e-4"
       style="fill:none;stroke:#0000ff;stroke-width:0.79701;stroke-linecap:butt;stroke-linejoin:miter;stroke-miterlimit:10;stroke-dasharray:none;stroke-opacity:1"
       transform="matrix(1.3333333,0,0,-1.3333333,198.35467,191.008)" />
    <path
       id="path17"
       d="m 3.7853047,-0.55152344 v 0.65625 L 5.2501484,-7.421875e-4 V -0.30542969 c -0.703125,0 -0.7734375,-0.0703125 -0.7734375,-0.5625 V -6.9148047 l -1.4414062,0.1054688 v 0.3164062 c 0.703125,0 0.7851562,0.070312 0.7851562,0.5507813 v 2.15625 c -0.2929687,-0.3632813 -0.7265625,-0.6210938 -1.265625,-0.6210938 -1.171875,0 -2.21484371,0.984375 -2.21484371,2.2617188 0,1.26562496 0.97265621,2.24999996 2.10937501,2.24999996 0.6445312,0 1.0898437,-0.33984375 1.3359375,-0.65625 z m 0,-2.67187496 v 2.0507812 c 0,0.17578126 0,0.19921876 -0.1054688,0.36328126 -0.3046875,0.48046875 -0.75,0.703125 -1.1835937,0.703125 -0.4453125,0 -0.796875,-0.2578125 -1.0429688,-0.64453125 C 1.1954609,-1.1608984 1.1603047,-1.7233984 1.1603047,-2.1335547 c 0,-0.3632812 0.023437,-0.9609375 0.3164062,-1.4179687 0.2109375,-0.3046875 0.5859375,-0.6328125 1.125,-0.6328125 0.3515625,0 0.7617188,0.1523437 1.078125,0.5976562 0.1054688,0.1640625 0.1054688,0.1875 0.1054688,0.3632813 z m 2.8623047,0.7148437 c 0.058594,-1.4882812 0.9023437,-1.734375 1.2421875,-1.734375 1.0195312,0 1.125,1.3476563 1.125,1.734375 z m -0.011719,0.2109375 h 2.7890625 c 0.2109375,0 0.2460938,0 0.2460938,-0.2109375 0,-0.984375 -0.5390625,-1.9570312 -1.78125,-1.9570312 -1.1601563,0 -2.0742188,1.03125 -2.0742188,2.2734375 0,1.33593746 1.0429688,2.29687496 2.1914063,2.29687496 1.21875,0 1.6640625,-1.1015625 1.6640625,-1.28906246 0,-0.1054688 -0.082031,-0.1171875 -0.1289063,-0.1171875 -0.09375,0 -0.1171875,0.058594 -0.1289062,0.140625 -0.3515625,1.01953121 -1.2539063,1.01953121 -1.3476563,1.01953121 -0.5039062,0 -0.9023437,-0.29296875 -1.125,-0.66796875 C 6.6358906,-1.2898047 6.6358906,-1.9460547 6.6358904,-2.2976172 Z m 5.5429686,0.5859375 c -0.867187,0 -0.867187,-0.9960937 -0.867187,-1.2304687 0,-0.2695313 0.01172,-0.5859375 0.152344,-0.8320313 0.08203,-0.1171875 0.316406,-0.3984375 0.714843,-0.3984375 0.867188,0 0.867188,0.9960938 0.867188,1.21875 0,0.2695313 -0.01172,0.5976563 -0.164063,0.84375 -0.08203,0.1171875 -0.304687,0.3984375 -0.703125,0.3984375 z m -1.160156,0.3867188 c 0,-0.035156 0,-0.2695313 0.175781,-0.46875 0.386719,0.28125 0.796875,0.3046875 0.984375,0.3046875 0.925782,0 1.605469,-0.6796875 1.605469,-1.453125 0,-0.3632813 -0.152344,-0.7382813 -0.398437,-0.9609375 0.351562,-0.3398438 0.714843,-0.3867188 0.890625,-0.3867188 0.02344,0 0.07031,0 0.105468,0 -0.117187,0.046875 -0.164062,0.1523438 -0.164062,0.2695313 0,0.1757812 0.128906,0.2929687 0.292969,0.2929687 0.09375,0 0.28125,-0.070312 0.28125,-0.2929687 0,-0.1757813 -0.117188,-0.4921875 -0.503907,-0.4921875 -0.199218,0 -0.632812,0.058594 -1.054687,0.46875 -0.421875,-0.328125 -0.84375,-0.3632813 -1.054688,-0.3632813 -0.925781,0 -1.617187,0.6914063 -1.617187,1.453125 0,0.4453125 0.222656,0.8203125 0.46875,1.03125 -0.128906,0.1523438 -0.304688,0.4804688 -0.304688,0.8203125 0,0.31640626 0.128907,0.69140626 0.433594,0.89062501 -0.597656,0.17578125 -0.914062,0.59765625 -0.914062,0.99609375 0,0.71484374 0.984375,1.26562504 2.203125,1.26562504 1.171875,0 2.203125,-0.5039063 2.203125,-1.28906254 0,-0.33984375 -0.140625,-0.85546875 -0.644532,-1.125 -0.527343,-0.28125 -1.101562,-0.28125 -1.710937,-0.28125 -0.246094,0 -0.679688,0 -0.75,-0.0117188 -0.316406,-0.046875 -0.527344,-0.35156246 -0.527344,-0.66796866 z m 1.441406,3.1523437 c -1.007812,0 -1.699218,-0.515625 -1.699218,-1.04296874 0,-0.45703125 0.375,-0.8203125 0.820312,-0.85546875 h 0.585938 c 0.855468,0 1.96875,0 1.96875,0.85546875 0,0.53906254 -0.703125,1.04296874 -1.675782,1.04296874 z m 4.148438,-5.1328125 v -1.1015625 l -1.382813,0.1171875 v 0.3046875 c 0.691407,0 0.773438,0.070312 0.773438,0.5625 v 2.66015626 c 0,0.45703125 -0.105469,0.45703125 -0.773438,0.45703125 V -7.421875e-4 C 15.612453,-0.01246094 16.081203,-0.03589844 16.362453,-0.03589844 c 0.398438,0 0.867188,0 1.265625,0.0351562525 V -0.30542969 h -0.210937 c -0.738282,0 -0.761719,-0.1171875 -0.761719,-0.46875 V -2.3093359 c 0,-0.984375 0.421875,-1.875 1.183594,-1.875 0.05859,0 0.08203,0 0.105468,0.011719 -0.03516,0.011719 -0.234375,0.1289063 -0.234375,0.3867188 0,0.28125 0.210938,0.4335937 0.433594,0.4335937 0.175781,0 0.421875,-0.1289062 0.421875,-0.4453125 0,-0.3164062 -0.304687,-0.609375 -0.726562,-0.609375 -0.738282,0 -1.089844,0.6679688 -1.230469,1.1015622 z m 3.351562,0.796875 c 0.05859,-1.4882812 0.902344,-1.734375 1.242188,-1.734375 1.019531,0 1.125,1.3476563 1.125,1.734375 z m -0.01172,0.2109375 h 2.789062 c 0.210938,0 0.246094,0 0.246094,-0.2109375 0,-0.984375 -0.539063,-1.9570312 -1.78125,-1.9570312 -1.160156,0 -2.074219,1.03125 -2.074219,2.2734375 0,1.33593746 1.042969,2.29687496 2.191406,2.29687496 1.21875,0 1.664063,-1.1015625 1.664063,-1.28906246 0,-0.1054688 -0.08203,-0.1171875 -0.128906,-0.1171875 -0.09375,0 -0.117188,0.058594 -0.128907,0.140625 -0.351562,1.01953121 -1.253906,1.01953121 -1.347656,1.01953121 -0.503906,0 -0.902344,-0.29296875 -1.125,-0.66796875 C 19.948391,-1.2898047 19.948391,-1.9460547 19.948391,-2.2976172 Z m 4.438476,-0.2109375 c 0.05859,-1.4882812 0.902344,-1.734375 1.242188,-1.734375 1.019531,0 1.125,1.3476563 1.125,1.734375 z m -0.01172,0.2109375 h 2.789063 c 0.210937,0 0.246094,0 0.246094,-0.2109375 0,-0.984375 -0.539063,-1.9570312 -1.78125,-1.9570312 -1.160157,0 -2.074219,1.03125 -2.074219,2.2734375 0,1.33593746 1.042969,2.29687496 2.191406,2.29687496 1.21875,0 1.664063,-1.1015625 1.664063,-1.28906246 0,-0.1054688 -0.08203,-0.1171875 -0.128907,-0.1171875 -0.09375,0 -0.117187,0.058594 -0.128906,0.140625 -0.351562,1.01953121 -1.253906,1.01953121 -1.347656,1.01953121 -0.503906,0 -0.902344,-0.29296875 -1.125,-0.66796875 C 24.375148,-1.2898047 24.375148,-1.9460547 24.375148,-2.2976172 Z M 29.6105,-3.7624609 c 0,-0.2929688 -0.234375,-0.5273438 -0.527344,-0.5273438 -0.28125,0 -0.527343,0.234375 -0.527343,0.5273438 0,0.28125 0.246093,0.5273437 0.527343,0.5273437 0.292969,0 0.527344,-0.2460937 0.527344,-0.5273437 z m 0,3.23437496 c 0,-0.29296875 -0.234375,-0.52734376 -0.527344,-0.52734376 -0.28125,0 -0.527343,0.23437501 -0.527343,0.52734376 0,0.29296875 0.246093,0.5273437525 0.527343,0.5273437525 0.292969,0 0.527344,-0.2343750025 0.527344,-0.5273437525 z m 6.547852,-0.234375 1.054687,-1.03124996 c 1.558594,-1.3710938 2.15625,-1.9101563 2.15625,-2.90625 0,-1.1367188 -0.902344,-1.9335938 -2.121094,-1.9335938 -1.125,0 -1.851562,0.9140625 -1.851562,1.8046875 0,0.5507813 0.492187,0.5507813 0.527344,0.5507813 0.164062,0 0.515625,-0.1171875 0.515625,-0.5273438 0,-0.2578125 -0.1875,-0.515625 -0.527344,-0.515625 -0.08203,0 -0.105469,0 -0.128906,0.011719 0.222656,-0.6445313 0.761718,-1.0195313 1.335937,-1.0195313 0.914063,0 1.335938,0.8085938 1.335938,1.6289063 0,0.796875 -0.492188,1.5820312 -1.042969,2.203125 l -1.910156,2.13281246 c -0.105469,0.10546875 -0.105469,0.12890625 -0.105469,0.3632812525 h 3.691406 L 39.369289,-1.7351172 h -0.257812 c -0.04687,0.3046875 -0.117188,0.73828126 -0.210938,0.89062501 -0.07031,0.0820313 -0.726562,0.0820313 -0.949219,0.0820313 z m 0,0"
       style="fill:#000000;fill-opacity:1;fill-rule:nonzero;stroke:none"
       aria-label="degree:2"
       transform="matrix(1.3333333,0,0,1.3333333,171.76933,13.653333)" />
    <path
       id="path18"
       d="m 3.7864219,-0.55040625 v 0.65625 L 5.2512656,3.75e-4 v -0.3046875 c -0.703125,0 -0.7734375,-0.0703125 -0.7734375,-0.5625 v -6.046875 l -1.4414062,0.1054688 v 0.3164062 c 0.703125,0 0.7851562,0.070312 0.7851562,0.5507813 v 2.15625 C 3.5286094,-4.1480625 3.0950156,-4.405875 2.5559531,-4.405875 c -1.171875,0 -2.21484372,0.984375 -2.21484372,2.2617188 0,1.26562495 0.97265622,2.24999995 2.10937502,2.24999995 0.6445312,0 1.0898437,-0.33984375 1.3359375,-0.65625 z m 0,-2.67187495 V -1.1715 c 0,0.17578125 0,0.19921875 -0.1054688,0.36328125 -0.3046875,0.48046875 -0.75,0.703125 -1.1835937,0.703125 -0.4453125,0 -0.796875,-0.2578125 -1.0429688,-0.64453125 -0.2578125,-0.4101562 -0.2929687,-0.9726562 -0.2929687,-1.3828125 0,-0.3632812 0.023437,-0.9609375 0.3164062,-1.4179687 0.2109375,-0.3046875 0.5859375,-0.6328125 1.125,-0.6328125 0.3515625,0 0.7617188,0.1523437 1.078125,0.5976562 0.1054688,0.1640625 0.1054688,0.1875 0.1054688,0.3632813 z m 2.8623047,0.7148437 c 0.058594,-1.4882812 0.9023437,-1.734375 1.2421875,-1.734375 1.0195312,0 1.125,1.3476563 1.125,1.734375 z M 6.6370078,-2.2965 h 2.7890625 c 0.2109375,0 0.2460938,0 0.2460938,-0.2109375 0,-0.984375 -0.5390625,-1.9570312 -1.78125,-1.9570312 -1.1601563,0 -2.0742188,1.03125 -2.0742188,2.2734375 0,1.33593745 1.0429688,2.29687495 2.1914063,2.29687495 1.21875,0 1.6640625,-1.1015625 1.6640625,-1.28906245 0,-0.1054688 -0.082031,-0.1171875 -0.1289063,-0.1171875 -0.09375,0 -0.1171875,0.058594 -0.1289062,0.140625 C 9.0627891,-0.14025 8.1604453,-0.14025 8.0666953,-0.14025 c -0.5039062,0 -0.9023437,-0.29296875 -1.125,-0.66796875 C 6.6370078,-1.2886875 6.6370078,-1.9449375 6.6370078,-2.2965 Z m 5.5400392,0.5859375 c -0.867188,0 -0.867188,-0.9960937 -0.867188,-1.2304687 0,-0.2695313 0.01172,-0.5859375 0.152344,-0.8320313 0.08203,-0.1171875 0.316406,-0.3984375 0.714844,-0.3984375 0.867187,0 0.867187,0.9960938 0.867187,1.21875 0,0.2695313 -0.01172,0.5976563 -0.164062,0.84375 -0.08203,0.1171875 -0.304688,0.3984375 -0.703125,0.3984375 z m -1.160156,0.3867188 c 0,-0.035156 0,-0.2695313 0.175781,-0.46875 0.386719,0.28125 0.796875,0.3046875 0.984375,0.3046875 0.925781,0 1.605469,-0.6796875 1.605469,-1.453125 0,-0.3632813 -0.152344,-0.7382813 -0.398438,-0.9609375 0.351563,-0.3398438 0.714844,-0.3867188 0.890625,-0.3867188 0.02344,0 0.07031,0 0.105469,0 -0.117188,0.046875 -0.164063,0.1523438 -0.164063,0.2695313 0,0.1757812 0.128907,0.2929687 0.292969,0.2929687 0.09375,0 0.28125,-0.070312 0.28125,-0.2929687 0,-0.1757813 -0.117187,-0.4921875 -0.503906,-0.4921875 -0.199219,0 -0.632813,0.058594 -1.054688,0.46875 -0.421875,-0.328125 -0.84375,-0.3632813 -1.054687,-0.3632813 -0.925781,0 -1.617188,0.6914063 -1.617188,1.453125 0,0.4453125 0.222657,0.8203125 0.46875,1.03125 -0.128906,0.1523438 -0.304687,0.4804688 -0.304687,0.8203125 0,0.31640625 0.128906,0.69140625 0.433594,0.890625 -0.597657,0.17578125 -0.914063,0.59765625 -0.914063,0.99609375 0,0.71484375 0.984375,1.26562505 2.203125,1.26562505 1.171875,0 2.203125,-0.5039063 2.203125,-1.28906255 0,-0.33984375 -0.140625,-0.85546875 -0.644531,-1.125 -0.527344,-0.28125 -1.101563,-0.28125 -1.710938,-0.28125 -0.246093,0 -0.679687,0 -0.75,-0.0117188 -0.316406,-0.046875 -0.527343,-0.35156255 -0.527343,-0.66796865 z M 12.458297,1.8285 c -1.007813,0 -1.699219,-0.515625 -1.699219,-1.04296875 0,-0.45703125 0.375,-0.8203125 0.820313,-0.85546875 h 0.585937 c 0.855469,0 1.96875,0 1.96875,0.85546875 0,0.53906255 -0.703125,1.04296875 -1.675781,1.04296875 z m 4.148437,-5.1328125 V -4.405875 l -1.382812,0.1171875 V -3.984 c 0.691406,0 0.773437,0.070312 0.773437,0.5625 v 2.66015625 c 0,0.45703125 -0.105468,0.45703125 -0.773437,0.45703125 V 3.75e-4 c 0.386719,-0.01171875 0.855469,-0.03515625 1.136719,-0.03515625 0.398437,0 0.867187,0 1.265625,0.03515625 v -0.3046875 h -0.210938 c -0.738281,0 -0.761719,-0.1171875 -0.761719,-0.46875 v -1.5351562 c 0,-0.984375 0.421875,-1.875 1.183594,-1.875 0.05859,0 0.08203,0 0.105469,0.011719 -0.03516,0.011719 -0.234375,0.1289063 -0.234375,0.3867188 0,0.28125 0.210937,0.4335937 0.433594,0.4335937 0.175781,0 0.421875,-0.1289062 0.421875,-0.4453125 0,-0.3164062 -0.304688,-0.609375 -0.726563,-0.609375 -0.738281,0 -1.089844,0.6679688 -1.230469,1.1015622 z m 3.351563,0.796875 c 0.05859,-1.4882812 0.902344,-1.734375 1.242187,-1.734375 1.019532,0 1.125,1.3476563 1.125,1.734375 z M 19.946578,-2.2965 h 2.789063 c 0.210937,0 0.246093,0 0.246093,-0.2109375 0,-0.984375 -0.539062,-1.9570312 -1.78125,-1.9570312 -1.160156,0 -2.074218,1.03125 -2.074218,2.2734375 0,1.33593745 1.042968,2.29687495 2.191406,2.29687495 1.21875,0 1.664062,-1.1015625 1.664062,-1.28906245 0,-0.1054688 -0.08203,-0.1171875 -0.128906,-0.1171875 -0.09375,0 -0.117187,0.058594 -0.128906,0.140625 -0.351563,1.0195312 -1.253906,1.0195312 -1.347656,1.0195312 -0.503907,0 -0.902344,-0.29296875 -1.125,-0.66796875 C 19.946578,-1.2886875 19.946578,-1.9449375 19.946578,-2.2965 Z m 4.441406,-0.2109375 c 0.05859,-1.4882812 0.902344,-1.734375 1.242188,-1.734375 1.019531,0 1.125,1.3476563 1.125,1.734375 z M 24.376266,-2.2965 h 2.789062 c 0.210938,0 0.246094,0 0.246094,-0.2109375 0,-0.984375 -0.539063,-1.9570312 -1.78125,-1.9570312 -1.160156,0 -2.074219,1.03125 -2.074219,2.2734375 0,1.33593745 1.042969,2.29687495 2.191406,2.29687495 1.21875,0 1.664063,-1.1015625 1.664063,-1.28906245 0,-0.1054688 -0.08203,-0.1171875 -0.128906,-0.1171875 -0.09375,0 -0.117188,0.058594 -0.128907,0.140625 -0.351562,1.0195312 -1.253906,1.0195312 -1.347656,1.0195312 -0.503906,0 -0.902344,-0.29296875 -1.125,-0.66796875 C 24.376266,-1.2886875 24.376266,-1.9449375 24.376266,-2.2965 Z m 5.235351,-1.4648437 c 0,-0.2929688 -0.234375,-0.5273438 -0.527344,-0.5273438 -0.28125,0 -0.527343,0.234375 -0.527343,0.5273438 0,0.28125 0.246093,0.5273437 0.527343,0.5273437 0.292969,0 0.527344,-0.2460937 0.527344,-0.5273437 z m 0,3.23437495 c 0,-0.29296875 -0.234375,-0.52734375 -0.527344,-0.52734375 -0.28125,0 -0.527343,0.234375 -0.527343,0.52734375 0,0.29296875 0.246093,0.52734375 0.527343,0.52734375 0.292969,0 0.527344,-0.234375 0.527344,-0.52734375 z m 8.173828,-2.97656245 c 0.808594,-0.2695313 1.394532,-0.9726563 1.394532,-1.7578125 0,-0.8203125 -0.878907,-1.3710938 -1.839844,-1.3710938 -1.007813,0 -1.757813,0.5976563 -1.757813,1.3476563 0,0.3398437 0.210938,0.5273437 0.503907,0.5273437 0.304687,0 0.503906,-0.2226562 0.503906,-0.515625 0,-0.4921875 -0.46875,-0.4921875 -0.609375,-0.4921875 0.304687,-0.4921875 0.960937,-0.6210937 1.324219,-0.6210937 0.410156,0 0.949218,0.2226562 0.949218,1.1132812 0,0.1289063 -0.01172,0.703125 -0.269531,1.1367188 -0.304687,0.4804687 -0.644531,0.515625 -0.890625,0.515625 -0.08203,0.011719 -0.316406,0.035156 -0.386719,0.035156 -0.08203,0.011719 -0.152343,0.023437 -0.152343,0.1171875 0,0.1171875 0.07031,0.1171875 0.234375,0.1171875 h 0.445312 c 0.808594,0 1.183594,0.6679688 1.183594,1.6523438 0,1.3476562 -0.691406,1.64062495 -1.125,1.64062495 -0.433594,0 -1.171875,-0.17578125 -1.523438,-0.76171875 0.351563,0.0585938 0.65625,-0.1640625 0.65625,-0.5390625 0,-0.3632812 -0.269531,-0.5625 -0.5625,-0.5625 -0.234375,0 -0.550781,0.140625 -0.550781,0.5742188 0,0.91406245 0.925781,1.57031245 2.003906,1.57031245 1.21875,0 2.121094,-0.9140625 2.121094,-1.92187495 0,-0.8203125 -0.621094,-1.59375 -1.652344,-1.8046873 z m 0,0"
       style="fill:#000000;fill-opacity:1;fill-rule:nonzero;stroke:none"
       aria-label="degree:3"
       transform="matrix(1.3333333,0,0,1.3333333,4.428,160.312)" />
    <path
       id="path19"
       d="m 3.7841875,-0.55040625 v 0.65625 L 5.2490313,3.75e-4 v -0.3046875 c -0.703125,0 -0.7734375,-0.0703125 -0.7734375,-0.5625 v -6.046875 l -1.4414063,0.1054688 v 0.3164062 c 0.703125,0 0.7851563,0.070312 0.7851563,0.5507813 v 2.15625 C 3.526375,-4.1480625 3.0927813,-4.405875 2.5537188,-4.405875 c -1.171875,0 -2.2148438,0.984375 -2.2148438,2.2617188 0,1.26562495 0.9726563,2.24999995 2.109375,2.24999995 0.6445313,0 1.0898438,-0.33984375 1.3359375,-0.65625 z m 0,-2.67187495 V -1.1715 c 0,0.17578125 0,0.19921875 -0.1054687,0.36328125 -0.3046875,0.48046875 -0.75,0.703125 -1.1835938,0.703125 -0.4453125,0 -0.796875,-0.2578125 -1.0429687,-0.64453125 -0.2578125,-0.4101562 -0.2929688,-0.9726562 -0.2929688,-1.3828125 0,-0.3632812 0.023437,-0.9609375 0.3164063,-1.4179687 0.2109375,-0.3046875 0.5859375,-0.6328125 1.125,-0.6328125 0.3515625,0 0.7617187,0.1523437 1.078125,0.5976562 0.1054687,0.1640625 0.1054687,0.1875 0.1054687,0.3632813 z m 2.8652344,0.7148437 c 0.058594,-1.4882812 0.9023437,-1.734375 1.2421875,-1.734375 1.0195312,0 1.125,1.3476563 1.125,1.734375 z M 6.6377031,-2.2965 h 2.7890625 c 0.2109375,0 0.2460938,0 0.2460938,-0.2109375 0,-0.984375 -0.5390625,-1.9570312 -1.78125,-1.9570312 -1.1601563,0 -2.0742188,1.03125 -2.0742188,2.2734375 0,1.33593745 1.0429688,2.29687495 2.1914063,2.29687495 1.21875,0 1.6640625,-1.1015625 1.6640625,-1.28906245 0,-0.1054688 -0.082031,-0.1171875 -0.1289063,-0.1171875 -0.09375,0 -0.1171875,0.058594 -0.1289062,0.140625 C 9.0634844,-0.14025 8.1611406,-0.14025 8.0673906,-0.14025 c -0.5039062,0 -0.9023437,-0.29296875 -1.125,-0.66796875 C 6.6377031,-1.2886875 6.6377031,-1.9449375 6.6377031,-2.2965 Z m 5.5400389,0.5859375 c -0.867187,0 -0.867187,-0.9960937 -0.867187,-1.2304687 0,-0.2695313 0.01172,-0.5859375 0.152343,-0.8320313 C 11.54493,-3.89025 11.779305,-4.1715 12.177742,-4.1715 c 0.867188,0 0.867188,0.9960938 0.867188,1.21875 0,0.2695313 -0.01172,0.5976563 -0.164063,0.84375 -0.08203,0.1171875 -0.304687,0.3984375 -0.703125,0.3984375 z m -1.160156,0.3867188 c 0,-0.035156 0,-0.2695313 0.175781,-0.46875 0.386719,0.28125 0.796875,0.3046875 0.984375,0.3046875 0.925781,0 1.605469,-0.6796875 1.605469,-1.453125 0,-0.3632813 -0.152344,-0.7382813 -0.398438,-0.9609375 0.351563,-0.3398438 0.714844,-0.3867188 0.890625,-0.3867188 0.02344,0 0.07031,0 0.105469,0 -0.117187,0.046875 -0.164062,0.1523438 -0.164062,0.2695313 0,0.1757812 0.128906,0.2929687 0.292968,0.2929687 0.09375,0 0.28125,-0.070312 0.28125,-0.2929687 0,-0.1757813 -0.117187,-0.4921875 -0.503906,-0.4921875 -0.199219,0 -0.632812,0.058594 -1.054687,0.46875 -0.421875,-0.328125 -0.84375,-0.3632813 -1.054688,-0.3632813 -0.925781,0 -1.617187,0.6914063 -1.617187,1.453125 0,0.4453125 0.222656,0.8203125 0.46875,1.03125 -0.128907,0.1523438 -0.304688,0.4804688 -0.304688,0.8203125 0,0.31640625 0.128906,0.69140625 0.433594,0.890625 -0.597656,0.17578125 -0.914063,0.59765625 -0.914063,0.99609375 0,0.71484375 0.984375,1.26562505 2.203125,1.26562505 1.171875,0 2.203125,-0.5039063 2.203125,-1.28906255 0,-0.33984375 -0.140625,-0.85546875 -0.644531,-1.125 -0.527344,-0.28125 -1.101562,-0.28125 -1.710937,-0.28125 -0.246094,0 -0.679688,0 -0.75,-0.0117188 -0.316407,-0.046875 -0.527344,-0.35156255 -0.527344,-0.66796865 z M 12.458992,1.8285 c -1.007812,0 -1.699219,-0.515625 -1.699219,-1.04296875 0,-0.45703125 0.375,-0.8203125 0.820313,-0.85546875 h 0.585937 c 0.855469,0 1.96875,0 1.96875,0.85546875 0,0.53906255 -0.703125,1.04296875 -1.675781,1.04296875 z M 16.60743,-3.3043125 V -4.405875 l -1.382813,0.1171875 V -3.984 c 0.691406,0 0.773438,0.070312 0.773438,0.5625 v 2.66015625 c 0,0.45703125 -0.105469,0.45703125 -0.773438,0.45703125 V 3.75e-4 c 0.386719,-0.01171875 0.855469,-0.03515625 1.136719,-0.03515625 0.398437,0 0.867187,0 1.265625,0.03515625 v -0.3046875 h -0.210938 c -0.738281,0 -0.761718,-0.1171875 -0.761718,-0.46875 v -1.5351562 c 0,-0.984375 0.421875,-1.875 1.183593,-1.875 0.05859,0 0.08203,0 0.105469,0.011719 -0.03516,0.011719 -0.234375,0.1289063 -0.234375,0.3867188 0,0.28125 0.210938,0.4335937 0.433594,0.4335937 0.175781,0 0.421875,-0.1289062 0.421875,-0.4453125 0,-0.3164062 -0.304688,-0.609375 -0.726563,-0.609375 -0.738281,0 -1.089843,0.6679688 -1.230468,1.1015622 z m 3.351562,0.796875 c 0.05859,-1.4882812 0.902344,-1.734375 1.242188,-1.734375 1.019531,0 1.125,1.3476563 1.125,1.734375 z M 19.947273,-2.2965 h 2.789063 c 0.210937,0 0.246094,0 0.246094,-0.2109375 0,-0.984375 -0.539063,-1.9570312 -1.78125,-1.9570312 -1.160157,0 -2.074219,1.03125 -2.074219,2.2734375 0,1.33593745 1.042969,2.29687495 2.191406,2.29687495 1.21875,0 1.664063,-1.1015625 1.664063,-1.28906245 0,-0.1054688 -0.08203,-0.1171875 -0.128907,-0.1171875 -0.09375,0 -0.117187,0.058594 -0.128906,0.140625 -0.351562,1.0195312 -1.253906,1.0195312 -1.347656,1.0195312 -0.503906,0 -0.902344,-0.29296875 -1.125,-0.66796875 C 19.947273,-1.2886875 19.947273,-1.9449375 19.947273,-2.2965 Z m 4.438477,-0.2109375 c 0.05859,-1.4882812 0.902344,-1.734375 1.242188,-1.734375 1.019531,0 1.125,1.3476563 1.125,1.734375 z M 24.374031,-2.2965 h 2.789063 c 0.210937,0 0.246094,0 0.246094,-0.2109375 0,-0.984375 -0.539063,-1.9570312 -1.78125,-1.9570312 -1.160157,0 -2.074219,1.03125 -2.074219,2.2734375 0,1.33593745 1.042969,2.29687495 2.191406,2.29687495 1.21875,0 1.664063,-1.1015625 1.664063,-1.28906245 0,-0.1054688 -0.08203,-0.1171875 -0.128907,-0.1171875 -0.09375,0 -0.117187,0.058594 -0.128906,0.140625 -0.351562,1.0195312 -1.253906,1.0195312 -1.347656,1.0195312 -0.503906,0 -0.902344,-0.29296875 -1.125,-0.66796875 C 24.374031,-1.2886875 24.374031,-1.9449375 24.374031,-2.2965 Z m 5.238282,-1.4648437 c 0,-0.2929688 -0.234375,-0.5273438 -0.527344,-0.5273438 -0.28125,0 -0.527344,0.234375 -0.527344,0.5273438 0,0.28125 0.246094,0.5273437 0.527344,0.5273437 0.292969,0 0.527344,-0.2460937 0.527344,-0.5273437 z m 0,3.23437495 c 0,-0.29296875 -0.234375,-0.52734375 -0.527344,-0.52734375 -0.28125,0 -0.527344,0.234375 -0.527344,0.52734375 0,0.29296875 0.246094,0.52734375 0.527344,0.52734375 0.292969,0 0.527344,-0.234375 0.527344,-0.52734375 z m 8.185546,-2.97656245 c 0.808594,-0.2695313 1.394532,-0.9726563 1.394532,-1.7578125 0,-0.8203125 -0.878907,-1.3710938 -1.839844,-1.3710938 -1.007813,0 -1.757813,0.5976563 -1.757813,1.3476563 0,0.3398437 0.210938,0.5273437 0.503907,0.5273437 0.304687,0 0.503906,-0.2226562 0.503906,-0.515625 0,-0.4921875 -0.46875,-0.4921875 -0.609375,-0.4921875 0.304687,-0.4921875 0.960937,-0.6210937 1.324219,-0.6210937 0.410156,0 0.949218,0.2226562 0.949218,1.1132812 0,0.1289063 -0.01172,0.703125 -0.269531,1.1367188 -0.304687,0.4804687 -0.644531,0.515625 -0.890625,0.515625 -0.08203,0.011719 -0.316406,0.035156 -0.386719,0.035156 -0.08203,0.011719 -0.152343,0.023437 -0.152343,0.1171875 0,0.1171875 0.07031,0.1171875 0.234375,0.1171875 h 0.445312 c 0.808594,0 1.183594,0.6679688 1.183594,1.6523438 0,1.3476562 -0.691406,1.64062495 -1.125,1.64062495 -0.433594,0 -1.171875,-0.17578125 -1.523438,-0.76171875 0.351563,0.0585938 0.65625,-0.1640625 0.65625,-0.5390625 0,-0.3632812 -0.269531,-0.5625 -0.5625,-0.5625 -0.234375,0 -0.550781,0.140625 -0.550781,0.5742188 0,0.91406245 0.925781,1.57031245 2.003906,1.57031245 1.21875,0 2.121094,-0.9140625 2.121094,-1.92187495 0,-0.8203125 -0.621094,-1.59375 -1.652344,-1.8046873 z m 0,0"
       style="fill:#000000;fill-opacity:1;fill-rule:nonzero;stroke:none"
       aria-label="degree:3"
       transform="matrix(1.3333333,0,0,1.3333333,339.11067,160.312)" />
    <path
       id="path20"
       d="m 3.7862422,-0.55057031 v 0.65625 L 5.2510859,2.109375e-4 V -0.30447656 c -0.703125,0 -0.7734375,-0.0703125 -0.7734375,-0.5625 V -6.9138516 l -1.4414062,0.1054688 v 0.3164062 c 0.703125,0 0.7851562,0.070312 0.7851562,0.5507813 v 2.15625 c -0.2929687,-0.3632813 -0.7265625,-0.6210938 -1.265625,-0.6210938 -1.171875,0 -2.21484371,0.984375 -2.21484371,2.2617188 0,1.26562499 0.97265621,2.24999999 2.10937501,2.24999999 0.6445312,0 1.0898437,-0.33984375 1.3359375,-0.65625 z m 0,-2.67187499 v 2.0507812 c 0,0.17578129 0,0.19921879 -0.1054688,0.36328129 -0.3046875,0.48046875 -0.75,0.703125 -1.1835937,0.703125 -0.4453125,0 -0.796875,-0.2578125 -1.0429688,-0.64453125 C 1.1963984,-1.1599453 1.1612422,-1.7224453 1.1612422,-2.1326016 c 0,-0.3632812 0.023437,-0.9609375 0.3164062,-1.4179687 0.2109375,-0.3046875 0.5859375,-0.6328125 1.125,-0.6328125 0.3515625,0 0.7617188,0.1523437 1.078125,0.5976562 0.1054688,0.1640625 0.1054688,0.1875 0.1054688,0.3632813 z m 2.8623047,0.7148437 c 0.058594,-1.4882812 0.9023437,-1.734375 1.2421875,-1.734375 1.0195312,0 1.125,1.3476563 1.125,1.734375 z m -0.011719,0.2109375 h 2.7890625 c 0.2109375,0 0.2460938,0 0.2460938,-0.2109375 0,-0.984375 -0.5390625,-1.9570312 -1.78125,-1.9570312 -1.1601563,0 -2.0742188,1.03125 -2.0742188,2.2734375 0,1.33593749 1.0429688,2.29687499 2.1914063,2.29687499 1.21875,0 1.6640625,-1.1015625 1.6640625,-1.28906249 0,-0.1054688 -0.082031,-0.1171875 -0.1289063,-0.1171875 -0.09375,0 -0.1171875,0.058594 -0.1289062,0.140625 -0.3515625,1.01953124 -1.2539063,1.01953124 -1.3476563,1.01953124 -0.5039062,0 -0.9023437,-0.29296875 -1.125,-0.66796875 C 6.6368281,-1.2888516 6.6368281,-1.9451016 6.6368279,-2.2966641 Z m 5.5400391,0.5859375 c -0.867187,0 -0.867187,-0.9960937 -0.867187,-1.2304687 0,-0.2695313 0.01172,-0.5859375 0.152343,-0.8320313 0.08203,-0.1171875 0.316407,-0.3984375 0.714844,-0.3984375 0.867188,0 0.867188,0.9960938 0.867188,1.21875 0,0.2695313 -0.01172,0.5976563 -0.164063,0.84375 -0.08203,0.1171875 -0.304687,0.3984375 -0.703125,0.3984375 z m -1.160156,0.3867188 c 0,-0.035156 0,-0.2695313 0.175781,-0.46875 0.386719,0.28125 0.796875,0.3046875 0.984375,0.3046875 0.925781,0 1.605469,-0.6796875 1.605469,-1.453125 0,-0.3632813 -0.152344,-0.7382813 -0.398438,-0.9609375 0.351563,-0.3398438 0.714844,-0.3867188 0.890625,-0.3867188 0.02344,0 0.07031,0 0.105469,0 -0.117187,0.046875 -0.164062,0.1523438 -0.164062,0.2695313 0,0.1757812 0.128906,0.2929687 0.292968,0.2929687 0.09375,0 0.28125,-0.070312 0.28125,-0.2929687 0,-0.1757813 -0.117187,-0.4921875 -0.503906,-0.4921875 -0.199219,0 -0.632812,0.058594 -1.054687,0.46875 -0.421875,-0.328125 -0.84375,-0.3632813 -1.054688,-0.3632813 -0.925781,0 -1.617187,0.6914063 -1.617187,1.453125 0,0.4453125 0.222656,0.8203125 0.46875,1.03125 -0.128907,0.1523438 -0.304688,0.4804688 -0.304688,0.8203125 0,0.31640629 0.128906,0.69140629 0.433594,0.89062504 -0.597656,0.17578125 -0.914063,0.59765625 -0.914063,0.99609375 0,0.71484371 0.984375,1.26562501 2.203125,1.26562501 1.171875,0 2.203125,-0.5039063 2.203125,-1.28906251 0,-0.33984375 -0.140625,-0.85546875 -0.644531,-1.125 -0.527344,-0.28125 -1.101562,-0.28125 -1.710937,-0.28125 -0.246094,0 -0.679688,0 -0.75,-0.0117188 -0.316407,-0.046875 -0.527344,-0.35156259 -0.527344,-0.66796869 z m 1.441406,3.1523437 c -1.007812,0 -1.699219,-0.515625 -1.699219,-1.04296871 0,-0.45703125 0.375,-0.8203125 0.820313,-0.85546875 h 0.585937 c 0.855469,0 1.96875,0 1.96875,0.85546875 0,0.53906251 -0.703125,1.04296871 -1.675781,1.04296871 z m 4.148438,-5.1328125 v -1.1015625 l -1.382813,0.1171875 v 0.3046875 c 0.691406,0 0.773438,0.070312 0.773438,0.5625 v 2.66015629 c 0,0.45703125 -0.105469,0.45703125 -0.773438,0.45703125 V 2.109375e-4 C 15.610461,-0.01150781 16.079211,-0.03494531 16.360461,-0.03494531 c 0.398437,0 0.867187,0 1.265625,0.0351562475 V -0.30447656 h -0.210938 c -0.738281,0 -0.761718,-0.1171875 -0.761718,-0.46875 V -2.3083828 c 0,-0.984375 0.421875,-1.875 1.183593,-1.875 0.05859,0 0.08203,0 0.105469,0.011719 -0.03516,0.011719 -0.234375,0.1289063 -0.234375,0.3867188 0,0.28125 0.210938,0.4335937 0.433594,0.4335937 0.175781,0 0.421875,-0.1289062 0.421875,-0.4453125 0,-0.3164062 -0.304688,-0.609375 -0.726563,-0.609375 -0.738281,0 -1.089843,0.6679688 -1.230468,1.1015622 z m 3.351562,0.796875 c 0.05859,-1.4882812 0.902344,-1.734375 1.242188,-1.734375 1.019531,0 1.125,1.3476563 1.125,1.734375 z m -0.01172,0.2109375 h 2.789063 c 0.210937,0 0.246094,0 0.246094,-0.2109375 0,-0.984375 -0.539063,-1.9570312 -1.78125,-1.9570312 -1.160157,0 -2.074219,1.03125 -2.074219,2.2734375 0,1.33593749 1.042969,2.29687499 2.191406,2.29687499 1.21875,0 1.664063,-1.1015625 1.664063,-1.28906249 0,-0.1054688 -0.08203,-0.1171875 -0.128907,-0.1171875 -0.09375,0 -0.117187,0.058594 -0.128906,0.140625 -0.351562,1.01953124 -1.253906,1.01953124 -1.347656,1.01953124 -0.503906,0 -0.902344,-0.29296875 -1.125,-0.66796875 C 19.946398,-1.2888516 19.946398,-1.9451016 19.946397,-2.2966641 Z m 4.441407,-0.2109375 c 0.05859,-1.4882812 0.902343,-1.734375 1.242187,-1.734375 1.019531,0 1.125,1.3476563 1.125,1.734375 z m -0.01172,0.2109375 h 2.789062 c 0.210938,0 0.246094,0 0.246094,-0.2109375 0,-0.984375 -0.539062,-1.9570312 -1.78125,-1.9570312 -1.160156,0 -2.074219,1.03125 -2.074219,2.2734375 0,1.33593749 1.042969,2.29687499 2.191407,2.29687499 1.21875,0 1.664062,-1.1015625 1.664062,-1.28906249 0,-0.1054688 -0.08203,-0.1171875 -0.128906,-0.1171875 -0.09375,0 -0.117188,0.058594 -0.128906,0.140625 -0.351563,1.01953124 -1.253907,1.01953124 -1.347657,1.01953124 -0.503906,0 -0.902343,-0.29296875 -1.125,-0.66796875 C 24.376086,-1.2888516 24.376086,-1.9451016 24.376086,-2.2966641 Z m 5.235352,-1.4648437 c 0,-0.2929688 -0.234375,-0.5273438 -0.527344,-0.5273438 -0.28125,0 -0.527344,0.234375 -0.527344,0.5273438 0,0.28125 0.246094,0.5273437 0.527344,0.5273437 0.292969,0 0.527344,-0.2460937 0.527344,-0.5273437 z m 0,3.23437499 c 0,-0.29296875 -0.234375,-0.52734379 -0.527344,-0.52734379 -0.28125,0 -0.527344,0.23437504 -0.527344,0.52734379 0,0.29296875 0.246094,0.5273437475 0.527344,0.5273437475 0.292969,0 0.527344,-0.2343749975 0.527344,-0.5273437475 z m 6.544921,-0.234375 1.054688,-1.03124999 c 1.558594,-1.3710938 2.15625,-1.9101563 2.15625,-2.90625 0,-1.1367188 -0.902344,-1.9335938 -2.121094,-1.9335938 -1.125,0 -1.851562,0.9140625 -1.851562,1.8046875 0,0.5507813 0.492187,0.5507813 0.527343,0.5507813 0.164063,0 0.515625,-0.1171875 0.515625,-0.5273438 0,-0.2578125 -0.1875,-0.515625 -0.527343,-0.515625 -0.08203,0 -0.105469,0 -0.128907,0.011719 0.222657,-0.6445313 0.761719,-1.0195313 1.335938,-1.0195313 0.914062,0 1.335937,0.8085938 1.335937,1.6289063 0,0.796875 -0.492187,1.5820312 -1.042968,2.203125 l -1.910157,2.13281249 c -0.105468,0.10546875 -0.105468,0.12890625 -0.105468,0.3632812475 h 3.691406 L 39.367297,-1.7341641 h -0.257813 c -0.04687,0.3046875 -0.117187,0.73828129 -0.210937,0.89062504 -0.07031,0.0820313 -0.726563,0.0820313 -0.949219,0.0820313 z m 0,0"
       style="fill:#000000;fill-opacity:1;fill-rule:nonzero;stroke:none"
       aria-label="degree:2"
       transform="matrix(1.3333333,0,0,1.3333333,52.049333,340.988)" />
    <path
       id="path21"
       d="m 3.7843672,-0.55057031 v 0.65625 L 5.2492109,2.109375e-4 V -0.30447656 c -0.703125,0 -0.7734375,-0.0703125 -0.7734375,-0.5625 V -6.9138516 l -1.4414062,0.1054688 v 0.3164062 c 0.703125,0 0.7851562,0.070312 0.7851562,0.5507813 v 2.15625 c -0.2929687,-0.3632813 -0.7265625,-0.6210938 -1.265625,-0.6210938 -1.171875,0 -2.21484371,0.984375 -2.21484371,2.2617188 0,1.26562499 0.97265621,2.24999999 2.10937501,2.24999999 0.6445312,0 1.0898437,-0.33984375 1.3359375,-0.65625 z m 0,-2.67187499 v 2.0507812 c 0,0.17578129 0,0.19921879 -0.1054688,0.36328129 -0.3046875,0.48046875 -0.75,0.703125 -1.1835937,0.703125 -0.4453125,0 -0.796875,-0.2578125 -1.0429688,-0.64453125 C 1.1945234,-1.1599453 1.1593672,-1.7224453 1.1593672,-2.1326016 c 0,-0.3632812 0.023437,-0.9609375 0.3164062,-1.4179687 0.2109375,-0.3046875 0.5859375,-0.6328125 1.125,-0.6328125 0.3515625,0 0.7617188,0.1523437 1.078125,0.5976562 0.1054688,0.1640625 0.1054688,0.1875 0.1054688,0.3632813 z m 2.8652344,0.7148437 c 0.058594,-1.4882812 0.9023437,-1.734375 1.2421875,-1.734375 1.0195312,0 1.125,1.3476563 1.125,1.734375 z m -0.011719,0.2109375 h 2.7890625 c 0.2109375,0 0.2460938,0 0.2460938,-0.2109375 0,-0.984375 -0.5390625,-1.9570312 -1.78125,-1.9570312 -1.1601563,0 -2.0742188,1.03125 -2.0742188,2.2734375 0,1.33593749 1.0429688,2.29687499 2.1914063,2.29687499 1.21875,0 1.6640625,-1.1015625 1.6640625,-1.28906249 0,-0.1054688 -0.082031,-0.1171875 -0.1289063,-0.1171875 -0.09375,0 -0.1171875,0.058594 -0.1289062,0.140625 -0.3515625,1.01953124 -1.2539063,1.01953124 -1.3476563,1.01953124 -0.5039062,0 -0.9023437,-0.29296875 -1.125,-0.66796875 C 6.6378828,-1.2888516 6.6378828,-1.9451016 6.6378826,-2.2966641 Z m 5.5400394,0.5859375 c -0.867188,0 -0.867188,-0.9960937 -0.867188,-1.2304687 0,-0.2695313 0.01172,-0.5859375 0.152344,-0.8320313 0.08203,-0.1171875 0.316406,-0.3984375 0.714844,-0.3984375 0.867187,0 0.867187,0.9960938 0.867187,1.21875 0,0.2695313 -0.01172,0.5976563 -0.164062,0.84375 -0.08203,0.1171875 -0.304688,0.3984375 -0.703125,0.3984375 z m -1.160156,0.3867188 c 0,-0.035156 0,-0.2695313 0.175781,-0.46875 0.386719,0.28125 0.796875,0.3046875 0.984375,0.3046875 0.925781,0 1.605469,-0.6796875 1.605469,-1.453125 0,-0.3632813 -0.152344,-0.7382813 -0.398438,-0.9609375 0.351563,-0.3398438 0.714844,-0.3867188 0.890625,-0.3867188 0.02344,0 0.07031,0 0.105469,0 -0.117188,0.046875 -0.164063,0.1523438 -0.164063,0.2695313 0,0.1757812 0.128907,0.2929687 0.292969,0.2929687 0.09375,0 0.28125,-0.070312 0.28125,-0.2929687 0,-0.1757813 -0.117187,-0.4921875 -0.503906,-0.4921875 -0.199219,0 -0.632813,0.058594 -1.054688,0.46875 -0.421875,-0.328125 -0.84375,-0.3632813 -1.054687,-0.3632813 -0.925781,0 -1.617188,0.6914063 -1.617188,1.453125 0,0.4453125 0.222657,0.8203125 0.46875,1.03125 -0.128906,0.1523438 -0.304687,0.4804688 -0.304687,0.8203125 0,0.31640629 0.128906,0.69140629 0.433594,0.89062504 -0.597657,0.17578125 -0.914063,0.59765625 -0.914063,0.99609375 0,0.71484371 0.984375,1.26562501 2.203125,1.26562501 1.171875,0 2.203125,-0.5039063 2.203125,-1.28906251 0,-0.33984375 -0.140625,-0.85546875 -0.644531,-1.125 -0.527344,-0.28125 -1.101563,-0.28125 -1.710938,-0.28125 -0.246093,0 -0.679687,0 -0.75,-0.0117188 -0.316406,-0.046875 -0.527343,-0.35156259 -0.527343,-0.66796869 z m 1.441406,3.1523437 c -1.007813,0 -1.699219,-0.515625 -1.699219,-1.04296871 0,-0.45703125 0.375,-0.8203125 0.820313,-0.85546875 h 0.585937 c 0.855469,0 1.96875,0 1.96875,0.85546875 0,0.53906251 -0.703125,1.04296871 -1.675781,1.04296871 z m 4.148437,-5.1328125 v -1.1015625 l -1.382812,0.1171875 v 0.3046875 c 0.691406,0 0.773437,0.070312 0.773437,0.5625 v 2.66015629 c 0,0.45703125 -0.105468,0.45703125 -0.773437,0.45703125 V 2.109375e-4 C 15.611516,-0.01150781 16.080266,-0.03494531 16.361516,-0.03494531 c 0.398437,0 0.867187,0 1.265625,0.0351562475 V -0.30447656 h -0.210938 c -0.738281,0 -0.761719,-0.1171875 -0.761719,-0.46875 V -2.3083828 c 0,-0.984375 0.421875,-1.875 1.183594,-1.875 0.05859,0 0.08203,0 0.105469,0.011719 -0.03516,0.011719 -0.234375,0.1289063 -0.234375,0.3867188 0,0.28125 0.210937,0.4335937 0.433594,0.4335937 0.175781,0 0.421875,-0.1289062 0.421875,-0.4453125 0,-0.3164062 -0.304688,-0.609375 -0.726563,-0.609375 -0.738281,0 -1.089844,0.6679688 -1.230469,1.1015622 z m 3.351563,0.796875 c 0.05859,-1.4882812 0.902344,-1.734375 1.242187,-1.734375 1.019532,0 1.125,1.3476563 1.125,1.734375 z m -0.01172,0.2109375 h 2.789063 c 0.210937,0 0.246093,0 0.246093,-0.2109375 0,-0.984375 -0.539062,-1.9570312 -1.78125,-1.9570312 -1.160156,0 -2.074218,1.03125 -2.074218,2.2734375 0,1.33593749 1.042968,2.29687499 2.191406,2.29687499 1.21875,0 1.664062,-1.1015625 1.664062,-1.28906249 0,-0.1054688 -0.08203,-0.1171875 -0.128906,-0.1171875 -0.09375,0 -0.117187,0.058594 -0.128906,0.140625 -0.351563,1.01953124 -1.253906,1.01953124 -1.347656,1.01953124 -0.503907,0 -0.902344,-0.29296875 -1.125,-0.66796875 C 19.947453,-1.2888516 19.947453,-1.9451016 19.947453,-2.2966641 Z m 4.438477,-0.2109375 c 0.05859,-1.4882812 0.902343,-1.734375 1.242187,-1.734375 1.019531,0 1.125,1.3476563 1.125,1.734375 z m -0.01172,0.2109375 h 2.789062 c 0.210938,0 0.246094,0 0.246094,-0.2109375 0,-0.984375 -0.539062,-1.9570312 -1.78125,-1.9570312 -1.160156,0 -2.074219,1.03125 -2.074219,2.2734375 0,1.33593749 1.042969,2.29687499 2.191407,2.29687499 1.21875,0 1.664062,-1.1015625 1.664062,-1.28906249 0,-0.1054688 -0.08203,-0.1171875 -0.128906,-0.1171875 -0.09375,0 -0.117188,0.058594 -0.128906,0.140625 -0.351563,1.01953124 -1.253907,1.01953124 -1.347657,1.01953124 -0.503906,0 -0.902343,-0.29296875 -1.125,-0.66796875 C 24.374211,-1.2888516 24.374211,-1.9451016 24.374211,-2.2966641 Z m 5.238281,-1.4648437 c 0,-0.2929688 -0.234375,-0.5273438 -0.527344,-0.5273438 -0.28125,0 -0.527343,0.234375 -0.527343,0.5273438 0,0.28125 0.246093,0.5273437 0.527343,0.5273437 0.292969,0 0.527344,-0.2460937 0.527344,-0.5273437 z m 0,3.23437499 c 0,-0.29296875 -0.234375,-0.52734379 -0.527344,-0.52734379 -0.28125,0 -0.527343,0.23437504 -0.527343,0.52734379 0,0.29296875 0.246093,0.5273437475 0.527343,0.5273437475 0.292969,0 0.527344,-0.2343749975 0.527344,-0.5273437475 z m 6.544922,-0.234375 1.054688,-1.03124999 c 1.558593,-1.3710938 2.15625,-1.9101563 2.15625,-2.90625 0,-1.1367188 -0.902344,-1.9335938 -2.121094,-1.9335938 -1.125,0 -1.851563,0.9140625 -1.851563,1.8046875 0,0.5507813 0.492188,0.5507813 0.527344,0.5507813 0.164063,0 0.515625,-0.1171875 0.515625,-0.5273438 0,-0.2578125 -0.1875,-0.515625 -0.527344,-0.515625 -0.08203,0 -0.105468,0 -0.128906,0.011719 0.222656,-0.6445313 0.761719,-1.0195313 1.335938,-1.0195313 0.914062,0 1.335937,0.8085938 1.335937,1.6289063 0,0.796875 -0.492187,1.5820312 -1.042969,2.203125 l -1.910156,2.13281249 c -0.105469,0.10546875 -0.105469,0.12890625 -0.105469,0.3632812475 H 39.0871 L 39.368352,-1.7341641 h -0.257813 c -0.04687,0.3046875 -0.117187,0.73828129 -0.210937,0.89062504 -0.07031,0.0820313 -0.726563,0.0820313 -0.949219,0.0820313 z m 0,0"
       style="fill:#000000;fill-opacity:1;fill-rule:nonzero;stroke:none"
       aria-label="degree:2"
       transform="matrix(1.3333333,0,0,1.3333333,291.48933,340.988)" />
  </g>
</svg>
