<?xml version="1.0" encoding="UTF-8" standalone="no"?>
<!-- Created with Inkscape (http://www.inkscape.org/) -->

<svg
   version="1.1"
   id="svg1"
   width="432.35938"
   height="371.23828"
   viewBox="0 0 432.35938 371.23828"
   xmlns="http://www.w3.org/2000/svg"
   xmlns:svg="http://www.w3.org/2000/svg">
  <defs
     id="defs1" />
  <g
     id="g1"
     transform="translate(-4.9921875,-4.4335937)">
    <path
       id="path1"
       d="m 17.00804,102.04868 c 0,9.39338 -7.61465,17.00804 -17.00804,17.00804 -9.39339,0 -17.00804,-7.61466 -17.00804,-17.00804 0,-9.39341 7.61465,-17.00806 17.00804,-17.00806 9.39339,0 17.00804,7.61465 17.00804,17.00806 z"
       style="fill:#ccccff;fill-opacity:1;fill-rule:nonzero;stroke:#000000;stroke-width:0.3985;stroke-linecap:butt;stroke-linejoin:miter;stroke-miterlimit:10;stroke-dasharray:none;stroke-opacity:1"
       transform="matrix(1.3333333,0,0,-1.3333333,221.22133,206.97467)" />
    <path
       id="path2"
       d="m 7.4168516,-4.5706484 c 0,-1.3828125 0,-4.8398438 -3.3867188,-4.8398438 -3.39843749,0 -3.39843749,3.4453125 -3.39843749,4.8398438 0,1.3710937 0,4.74609371 3.38671879,4.74609371 3.3867187,0 3.3984375,-3.32812501 3.3984375,-4.74609371 z m -3.3867188,4.26562496 c -0.4570312,0 -0.8085937,-0.1875 -1.0898437,-0.48046875 C 2.5770078,-1.1487734 2.3543516,-1.3831484 2.3543516,-4.7464297 c 0,-1.0078125 0,-1.921875 0.1171875,-2.671875 0.1992187,-1.4179687 1.2304687,-1.5234375 1.546875,-1.5234375 0.4570312,0 1.3476562,0.2226563 1.546875,1.4296875 0.1289062,0.7265625 0.1289062,1.8867188 0.1289062,2.765625 0,3.3867188 -0.2109375,3.5859375 -0.6445312,4.01953126 -0.2929688,0.28125 -0.6796875,0.421875 -1.0195313,0.421875 z m 0,0"
       style="fill:#000000;fill-opacity:1;fill-rule:nonzero;stroke:none"
       aria-label="0"
       transform="matrix(1.3333333,0,0,1.3333333,215.84133,77.074667)" />
    <path
       id="path3"
       d="m -59.52843,25.51215 c 0,9.3934 -7.61465,17.00805 -17.00805,17.00805 -9.39339,0 -17.00805,-7.61465 -17.00805,-17.00805 0,-9.39339 7.61466,-17.00805 17.00805,-17.00805 9.3934,0 17.00805,7.61466 17.00805,17.00805 z"
       style="fill:#ccffcc;fill-opacity:1;fill-rule:nonzero;stroke:#000000;stroke-width:0.3985;stroke-linecap:butt;stroke-linejoin:miter;stroke-miterlimit:10;stroke-dasharray:none;stroke-opacity:1"
       transform="matrix(1.3333333,0,0,-1.3333333,221.22133,206.97467)" />
    <path
       id="path4"
       d="m 4.9674766,-8.9894609 c 0,-0.421875 -0.035156,-0.421875 -0.4921875,-0.421875 -1.0664063,0.9140625 -2.6601563,0.9140625 -2.9648438,0.9140625 h -0.28125 v 0.6210937 h 0.28125 c 0.4921875,0 1.2539063,-0.082031 1.828125,-0.2695312 v 7.52343746 H 1.3463828 v 0.62109375 c 0.5976563,-0.0234375 2.109375,-0.0234375 2.7890625,-0.0234375 0.6679688,0 2.1914063,0 2.7890625,0.0234375 V -0.62227344 H 4.9674766 Z m 0,0"
       style="fill:#000000;fill-opacity:1;fill-rule:nonzero;stroke:none"
       aria-label="1"
       transform="matrix(1.3333333,0,0,1.3333333,113.79467,179.12267)" />
    <path
       id="path5"
       d="m 93.54453,25.51215 c 0,9.3934 -7.61466,17.00805 -17.00805,17.00805 -9.3934,0 -17.00805,-7.61465 -17.00805,-17.00805 0,-9.39339 7.61465,-17.00805 17.00805,-17.00805 9.39339,0 17.00805,7.61466 17.00805,17.00805 z"
       style="fill:#ffcccc;fill-opacity:1;fill-rule:nonzero;stroke:#000000;stroke-width:0.3985;stroke-linecap:butt;stroke-linejoin:miter;stroke-miterlimit:10;stroke-dasharray:none;stroke-opacity:1"
       transform="matrix(1.3333333,0,0,-1.3333333,221.22133,206.97467)" />
    <path
       id="path6"
       d="M 7.2431563,-3.0832109 H 6.6455 C 6.598625,-2.7785234 6.4931563,-1.9347734 6.2822188,-1.7941484 6.1650313,-1.6886797 5.05175,-1.6886797 4.8290938,-1.6886797 H 2.61425 c 0.5390625,-0.46875 1.8515625,-1.5585937 2.0625,-1.7109375 1.59375,-1.1953125 2.5664063,-1.921875 2.5664063,-3.3046875 0,-1.6875 -1.5351563,-2.7070312 -3.421875,-2.7070312 -1.6289063,0 -3.0117188,0.9140625 -3.0117188,2.2851562 0,0.7617188 0.609375,0.9726563 0.9375,0.9726563 0.4453125,0 0.9609375,-0.3046875 0.9609375,-0.9609375 0,-0.609375 -0.4453125,-0.9023438 -0.890625,-0.9609375 0.5742188,-0.65625 1.3359375,-0.7148438 1.640625,-0.7148438 1.3242188,0 1.9453125,1.0664063 1.9453125,2.109375 0,1.1132813 -0.75,2.1445313 -1.3476562,2.765625 l -3.1054688,3.25781251 c -0.140625,0.12890625 -0.140625,0.15234375 -0.140625,0.41015625 v 0.24609375 H 6.833 Z m 0,0"
       style="fill:#000000;fill-opacity:1;fill-rule:nonzero;stroke:none"
       aria-label="2"
       transform="matrix(1.3333333,0,0,1.3333333,317.88933,179.12267)" />
    <path
       id="path7"
       d="m -34.01628,-76.53648 c 0,9.3934 -7.61466,17.00805 -17.00804,17.00805 -9.39339,0 -17.00806,-7.61465 -17.00806,-17.00805 0,-9.39339 7.61467,-17.00805 17.00806,-17.00805 9.39338,0 17.00804,7.61466 17.00804,17.00805 z"
       style="fill:#ffe6cc;fill-opacity:1;fill-rule:nonzero;stroke:#000000;stroke-width:0.3985;stroke-linecap:butt;stroke-linejoin:miter;stroke-miterlimit:10;stroke-dasharray:none;stroke-opacity:1"
       transform="matrix(1.3333333,0,0,-1.3333333,221.22133,206.97467)" />
    <path
       id="path8"
       d="m 3.7396562,-4.7473984 c 1.6171875,0 1.6171875,1.4882812 1.6171875,2.1796875 0,0.6445312 0,2.16796871 -1.5585937,2.16796871 -0.2929688,0 -1.2421875,-0.046875 -1.9335938,-0.5390625 C 2.48575,-1.0677109 2.6966875,-1.5130234 2.6966875,-1.9348984 c 0,-0.5859375 -0.4101563,-1.0078125 -1.0078125,-1.0078125 -0.5976563,0 -1.0078125,0.421875 -1.0078125,1.0195312 0,1.32421876 1.4296875,2.09765626 3.1875,2.09765626 2.3671875,0 3.5039062,-1.31249996 3.5039062,-2.74218746 0,-0.703125 -0.3515625,-2.0625 -2.578125,-2.4492188 1.265625,-0.3867187 2.1328125,-1.2773437 2.1328125,-2.4140625 0,-1.078125 -1.03125,-1.9804687 -3.0234375,-1.9804687 -1.6054687,0 -2.7890625,0.84375 -2.7890625,2.0039062 0,0.7265625 0.5625,0.9492188 0.9375,0.9492188 0.421875,0 0.9140625,-0.2695313 0.9140625,-0.9257813 0,-0.3398437 -0.140625,-0.8203125 -0.8085937,-0.9257812 0.5976562,-0.5859375 1.5703125,-0.5859375 1.6640625,-0.5859375 1.2773437,0 1.2773437,0.9960937 1.2773437,1.4179687 0,0.4335938 -0.058594,1.0898438 -0.5273437,1.6875 -0.3632813,0.4804688 -0.7382813,0.515625 -1.2890625,0.5390625 -0.1640625,0.011719 -0.4570313,0.023437 -0.515625,0.058594 -0.082031,0.046875 -0.082031,0.140625 -0.082031,0.1992187 0,0.2460938 0.082031,0.2460938 0.375,0.2460938 z m 0,0"
       style="fill:#000000;fill-opacity:1;fill-rule:nonzero;stroke:none"
       aria-label="3"
       transform="matrix(1.3333333,0,0,1.3333333,147.81067,315.18533)" />
    <path
       id="path9"
       d="m 68.03238,-76.53648 c 0,9.3934 -7.61467,17.00805 -17.00806,17.00805 -9.39338,0 -17.00804,-7.61465 -17.00804,-17.00805 0,-9.39339 7.61466,-17.00805 17.00804,-17.00805 9.39339,0 17.00806,7.61466 17.00806,17.00805 z"
       style="fill:#f2ccd9;fill-opacity:1;fill-rule:nonzero;stroke:#000000;stroke-width:0.3985;stroke-linecap:butt;stroke-linejoin:miter;stroke-miterlimit:10;stroke-dasharray:none;stroke-opacity:1"
       transform="matrix(1.3333333,0,0,-1.3333333,221.22133,206.97467)" />
    <path
       id="path10"
       d="M 6.2121875,-2.2513047 H 7.6067187 V -2.8723984 H 6.2121875 v -6.1523438 c 0,-0.3515625 -0.011719,-0.4101562 -0.375,-0.4101562 -0.2578125,0 -0.28125,0 -0.4570313,0.2109375 l -4.9335937,6.3515625 v 0.6210937 h 4.078125 v 1.62890626 H 2.954375 v 0.62109375 c 0.421875,-0.0234375 1.8398437,-0.0234375 2.3554687,-0.0234375 0.4804688,0 1.9101563,0 2.296875,0.0234375 V -0.62239844 H 6.2121875 Z M 4.6535937,-7.4309922 v 4.5585938 H 1.1028125 Z m 0,0"
       style="fill:#000000;fill-opacity:1;fill-rule:nonzero;stroke:none"
       aria-label="4"
       transform="matrix(1.3333333,0,0,1.3333333,283.87333,315.18533)" />
    <path
       id="path11"
       d="M -12.17041,89.89587 -64.37952,37.68594"
       style="fill:none;stroke:#0000ff;stroke-width:0.79701;stroke-linecap:butt;stroke-linejoin:miter;stroke-miterlimit:10;stroke-dasharray:none;stroke-opacity:1"
       transform="matrix(1.3333333,0,0,-1.3333333,221.22133,206.97467)" />
    <path
       id="path12"
       d="M 12.17041,89.89587 64.37952,37.68594"
       style="fill:none;stroke:#0000ff;stroke-width:0.79701;stroke-linecap:butt;stroke-linejoin:miter;stroke-miterlimit:10;stroke-dasharray:none;stroke-opacity:1"
       transform="matrix(1.3333333,0,0,-1.3333333,221.22133,206.97467)" />
    <path
       id="path13"
       d="M -59.33786,25.51599 H 59.33786"
       style="fill:none;stroke:#0000ff;stroke-width:0.79701;stroke-linecap:butt;stroke-linejoin:miter;stroke-miterlimit:10;stroke-dasharray:none;stroke-opacity:1"
       transform="matrix(1.3333333,0,0,-1.3333333,221.22133,206.97467)" />
    <path
       id="path14"
       d="m -72.37569,8.81966 17.16935,-68.67171"
       style="fill:none;stroke:#0000ff;stroke-width:0.79701;stroke-linecap:butt;stroke-linejoin:miter;stroke-miterlimit:10;stroke-dasharray:none;stroke-opacity:1"
       transform="matrix(1.3333333,0,0,-1.3333333,221.22133,206.97467)" />
    <path
       id="path15"
       d="M 72.37569,8.81966 55.20634,-59.85205"
       style="fill:none;stroke:#0000ff;stroke-width:0.79701;stroke-linecap:butt;stroke-linejoin:miter;stroke-miterlimit:10;stroke-dasharray:none;stroke-opacity:1"
       transform="matrix(1.3333333,0,0,-1.3333333,221.22133,206.97467)" />
    <path
       id="path16"
       d="m -33.82208,-76.54968 67.64416,7.6e-4"
       style="fill:none;stroke:#0000ff;stroke-width:0.79701;stroke-linecap:butt;stroke-linejoin:miter;stroke-miterlimit:10;stroke-dasharray:none;stroke-opacity:1"
       transform="matrix(1.3333333,0,0,-1.3333333,221.22133,206.97467)" />
    <path
       id="path17"
       d="m 3.5848672,-8.1688984 v 0.3515625 c 0.8085937,0 0.9140625,0.082031 0.9140625,0.6679687 v 2.6367188 c -0.2578125,-0.3398438 -0.7734375,-0.7617188 -1.5,-0.7617188 -1.3828125,0 -2.57812501,1.171875 -2.57812501,2.7070313 0,1.5117187 1.13671871,2.68359371 2.44921871,2.68359371 0.9023438,0 1.4296875,-0.59765625 1.59375,-0.8203125 v 0.8203125 l 1.6875,-0.1171874975 V -0.35249219 c -0.8085937,0 -0.9023437,-0.0820313 -0.9023437,-0.66796871 v -7.2773438 z m 0.8789062,6.7734375 c 0,0.2109375 0,0.2460937 -0.1640625,0.51562496 -0.28125,0.41015625 -0.7734375,0.76171875 -1.3710937,0.76171875 -0.3164063,0 -1.6054688,-0.1171875 -1.6054688,-2.43750001 0,-0.8671875 0.140625,-1.3476562 0.4101563,-1.734375 0.234375,-0.375 0.7148437,-0.7382812 1.3125,-0.7382812 0.7382812,0 1.1601562,0.5273437 1.2773437,0.7265625 0.140625,0.1992187 0.140625,0.2226562 0.140625,0.4453125 z m 6.6210936,-1.3828125 c 0.257813,0 0.28125,0 0.28125,-0.2226563 0,-1.2070312 -0.644531,-2.3320312 -2.0859373,-2.3320312 -1.3710938,0 -2.4140625,1.2304687 -2.4140625,2.71875 0,1.5703125 1.21875,2.73046871 2.5429687,2.73046871 1.4179691,0 1.9570311,-1.28906251 1.9570311,-1.53515621 0,-0.082031 -0.05859,-0.1289063 -0.128906,-0.1289063 -0.09375,0 -0.117188,0.070312 -0.140625,0.1289063 -0.316406,0.99609371 -1.1132813,1.27734371 -1.6171876,1.27734371 -0.5039062,0 -1.7109375,-0.33984375 -1.7109375,-2.40234371 v -0.234375 z M 7.7801797,-3.0009297 c 0.09375,-1.875 1.1484375,-2.0976562 1.4882812,-2.0976562 1.2773441,0 1.3476561,1.6875 1.3593751,2.0976562 z m 5.3437503,0.8320313 c 0.5625,0.375 1.042968,0.375 1.171875,0.375 1.078125,0 1.875,-0.8085938 1.875,-1.734375 0,-0.3164063 -0.09375,-0.7734375 -0.46875,-1.1601563 0.457031,-0.4804687 1.019531,-0.4804687 1.089843,-0.4804687 0.04687,0 0.105469,0 0.152344,0.023437 -0.117187,0.046875 -0.1875,0.1757812 -0.1875,0.3046875 0,0.1640625 0.128906,0.3046875 0.316406,0.3046875 0.09375,0 0.316407,-0.058594 0.316407,-0.3164063 0,-0.2109375 -0.175782,-0.5507812 -0.585938,-0.5507812 -0.632812,0 -1.089844,0.3867187 -1.265625,0.5625 -0.351562,-0.28125 -0.773437,-0.4335938 -1.230469,-0.4335938 -1.066406,0 -1.875,0.8203125 -1.875,1.734375 0,0.6796875 0.421875,1.125 0.539063,1.2304688 -0.140625,0.1757812 -0.351563,0.5273437 -0.351563,0.9960937 0,0.69140626 0.410157,0.98437501 0.503907,1.05468751 -0.550782,0.15234375 -1.089844,0.5859375 -1.089844,1.20703125 0,0.82031254 1.113281,1.50000004 2.589844,1.50000004 1.417968,0 2.601562,-0.6328125 2.601562,-1.52343754 0,-0.3046875 -0.08203,-1.0078125 -0.796875,-1.3828125 -0.609375,-0.3046875 -1.207031,-0.3046875 -2.238281,-0.3046875 -0.726563,0 -0.808594,0 -1.03125,-0.234375 C 13.041898,-1.1142109 12.93643,-1.3368672 12.93643,-1.5946797 c 0,-0.1992187 0.07031,-0.3984375 0.1875,-0.5742187 z m 1.183593,0.1289062 c -1.042968,0 -1.042968,-1.2070312 -1.042968,-1.4882812 0,-0.2109375 0,-0.703125 0.199218,-1.03125 0.222657,-0.3398438 0.585938,-0.4570313 0.832032,-0.4570313 1.054687,0 1.054687,1.2070313 1.054687,1.4765625 0,0.2109375 0,0.703125 -0.199219,1.03125 -0.234375,0.3398438 -0.585937,0.46875 -0.84375,0.46875 z m 0.328125,4.2421875 c -1.148437,0 -2.015625,-0.5859375 -2.015625,-1.26562499 0,-0.10546875 0.02344,-0.5625 0.46875,-0.87890625 0.269532,-0.1640625 0.375,-0.1640625 1.207032,-0.1640625 0.996093,0 2.34375,0 2.34375,1.04296875 0,0.70312499 -0.902344,1.26562499 -2.003907,1.26562499 z m 4.916016,-4.9921875 c 0,-1.1601562 0.480469,-2.2382812 1.40625,-2.2382812 0.09375,0 0.117188,0 0.164063,0.011719 -0.09375,0.046875 -0.292969,0.1171875 -0.292969,0.4335938 0,0.3515625 0.28125,0.4804687 0.46875,0.4804687 0.246094,0 0.480469,-0.1523437 0.480469,-0.4804687 0,-0.3515625 -0.316407,-0.6914063 -0.832032,-0.6914063 -1.019531,0 -1.371093,1.1015625 -1.441406,1.3242188 h -0.01172 v -1.3242188 l -1.59375,0.1289063 v 0.3515625 c 0.808594,0 0.902344,0.082031 0.902344,0.6679687 v 3.24609376 c 0,0.52734375 -0.128906,0.52734375 -0.902344,0.52734375 V -9.296875e-4 C 18.227445,-0.02436719 18.883695,-0.02436719 19.246977,-0.02436719 c 0.316406,0 1.171875,0 1.441406,0.0234375025 V -0.35249219 h -0.234375 c -0.878906,0 -0.902344,-0.12890625 -0.902344,-0.5625 z m 7.142578,0.011719 c 0.257813,0 0.28125,0 0.28125,-0.2226563 0,-1.2070312 -0.644531,-2.3320312 -2.085937,-2.3320312 -1.371094,0 -2.414063,1.2304687 -2.414063,2.71875 0,1.5703125 1.21875,2.73046871 2.542969,2.73046871 1.417969,0 1.957031,-1.28906251 1.957031,-1.53515621 0,-0.082031 -0.05859,-0.1289063 -0.128906,-0.1289063 -0.09375,0 -0.117188,0.070312 -0.140625,0.1289063 -0.316406,0.99609371 -1.113281,1.27734371 -1.617188,1.27734371 -0.503906,0 -1.710937,-0.33984375 -1.710937,-2.40234371 v -0.234375 z m -3.304687,-0.2226563 c 0.09375,-1.875 1.148437,-2.0976562 1.488281,-2.0976562 1.277344,0 1.347656,1.6875 1.359375,2.0976562 z m 8.507812,0.2226563 c 0.257813,0 0.28125,0 0.28125,-0.2226563 0,-1.2070312 -0.644531,-2.3320312 -2.085937,-2.3320312 -1.371094,0 -2.414063,1.2304687 -2.414063,2.71875 0,1.5703125 1.21875,2.73046871 2.542969,2.73046871 1.417969,0 1.957031,-1.28906251 1.957031,-1.53515621 0,-0.082031 -0.05859,-0.1289063 -0.128906,-0.1289063 -0.09375,0 -0.117188,0.070312 -0.140625,0.1289063 -0.316406,0.99609371 -1.113281,1.27734371 -1.617188,1.27734371 -0.503906,0 -1.710937,-0.33984375 -1.710937,-2.40234371 v -0.234375 z M 28.59268,-3.0009297 c 0.09375,-1.875 1.148437,-2.0976562 1.488281,-2.0976562 1.277344,0 1.347656,1.6875 1.359375,2.0976562 z m 6.128906,-1.5820312 c 0,-0.3164063 -0.28125,-0.5742188 -0.574219,-0.5742188 -0.351562,0 -0.585937,0.28125 -0.585937,0.5742188 0,0.3632812 0.292968,0.5859375 0.574218,0.5859375 0.316407,0 0.585938,-0.2460938 0.585938,-0.5859375 z m 0,3.99609371 c 0,-0.328125 -0.28125,-0.57421871 -0.574219,-0.57421871 -0.351562,0 -0.585937,0.28124996 -0.585937,0.57421871 0,0.36328125 0.292968,0.5859375025 0.574218,0.5859375025 0.316407,0 0.585938,-0.2460937525 0.585938,-0.5859375025 z M 46.232328,-2.0048359 h -0.269531 c -0.03516,0.1992187 -0.128906,0.8554687 -0.246094,1.04296871 -0.08203,0.1171875 -0.761719,0.1171875 -1.125,0.1171875 h -2.214844 c 0.328125,-0.28125001 1.054688,-1.04296871 1.371094,-1.33593751 1.816406,-1.6640625 2.484375,-2.2851562 2.484375,-3.46875 0,-1.3828125 -1.089844,-2.296875 -2.472656,-2.296875 -1.394531,0 -2.203125,1.1835938 -2.203125,2.203125 0,0.609375 0.527344,0.609375 0.5625,0.609375 0.246094,0 0.5625,-0.1757812 0.5625,-0.5625 0,-0.328125 -0.234375,-0.5507812 -0.5625,-0.5507812 -0.105469,0 -0.128906,0 -0.164063,0.011719 0.222657,-0.8203125 0.867188,-1.3710937 1.640625,-1.3710937 1.019532,0 1.640625,0.8554687 1.640625,1.9570312 0,1.0078125 -0.585937,1.8984375 -1.265625,2.6601563 l -2.414062,2.70703121 v 0.2812500025 h 4.359375 z m 0,0"
       style="fill:#000000;fill-opacity:1;fill-rule:nonzero;stroke:none"
       aria-label="degree:2"
       transform="matrix(1.3333333,0,0,1.3333333,190.00533,15.497333)" />
    <path
       id="path18"
       d="m 3.5872031,-8.1669844 v 0.3515625 c 0.8085938,0 0.9140625,0.082031 0.9140625,0.6679688 v 2.6367187 c -0.2578125,-0.3398437 -0.7734375,-0.7617187 -1.5,-0.7617187 -1.3828125,0 -2.57812497,1.171875 -2.57812497,2.7070312 0,1.5117188 1.13671877,2.68359377 2.44921877,2.68359377 0.9023437,0 1.4296875,-0.59765625 1.59375,-0.8203125 v 0.8203125 l 1.6875,-0.117187495 V -0.35057813 c -0.8085938,0 -0.9023438,-0.0820313 -0.9023438,-0.66796877 v -7.2773437 z m 0.8789063,6.7734375 c 0,0.2109375 0,0.2460938 -0.1640625,0.51562502 -0.28125,0.41015625 -0.7734375,0.76171875 -1.3710938,0.76171875 -0.3164062,0 -1.6054687,-0.1171875 -1.6054687,-2.43749997 0,-0.8671875 0.140625,-1.3476563 0.4101562,-1.734375 0.234375,-0.375 0.7148438,-0.7382813 1.3125,-0.7382813 0.7382813,0 1.1601563,0.5273438 1.2773438,0.7265625 0.140625,0.1992188 0.140625,0.2226563 0.140625,0.4453125 z m 6.6181636,-1.3828125 c 0.257813,0 0.28125,0 0.28125,-0.2226562 0,-1.2070313 -0.644531,-2.3320313 -2.0859371,-2.3320313 -1.3710937,0 -2.4140625,1.2304688 -2.4140625,2.71875 0,1.5703125 1.21875,2.73046877 2.5429688,2.73046877 1.4179688,0 1.9570308,-1.28906247 1.9570308,-1.53515627 0,-0.082031 -0.05859,-0.1289062 -0.128906,-0.1289062 -0.09375,0 -0.117187,0.070312 -0.140625,0.1289062 -0.316406,0.99609377 -1.1132811,1.27734377 -1.6171873,1.27734377 -0.5039063,0 -1.7109375,-0.33984375 -1.7109375,-2.40234377 v -0.234375 z M 7.7795859,-2.9990156 c 0.09375,-1.875 1.1484375,-2.0976563 1.4882813,-2.0976563 1.2773438,0 1.3476558,1.6875 1.3593748,2.0976563 z m 5.3437501,0.8320312 c 0.5625,0.375 1.042969,0.375 1.171875,0.375 1.078125,0 1.875,-0.8085937 1.875,-1.734375 0,-0.3164062 -0.09375,-0.7734375 -0.46875,-1.1601562 0.457031,-0.4804688 1.019531,-0.4804688 1.089844,-0.4804688 0.04687,0 0.105468,0 0.152343,0.023437 -0.117187,0.046875 -0.1875,0.1757813 -0.1875,0.3046875 0,0.1640625 0.128907,0.3046875 0.316407,0.3046875 0.09375,0 0.316406,-0.058594 0.316406,-0.3164062 0,-0.2109375 -0.175781,-0.5507813 -0.585938,-0.5507813 -0.632812,0 -1.089843,0.3867188 -1.265625,0.5625 -0.351562,-0.28125 -0.773437,-0.4335937 -1.230468,-0.4335937 -1.066407,0 -1.875,0.8203125 -1.875,1.734375 0,0.6796875 0.421875,1.125 0.539062,1.2304687 -0.140625,0.1757813 -0.351562,0.5273438 -0.351562,0.9960938 0,0.69140622 0.410156,0.98437497 0.503906,1.05468747 -0.550781,0.15234375 -1.089844,0.5859375 -1.089844,1.20703125 0,0.82031248 1.113281,1.49999998 2.589844,1.49999998 1.417969,0 2.601562,-0.6328125 2.601562,-1.52343748 0,-0.3046875 -0.08203,-1.0078125 -0.796875,-1.3828125 -0.609375,-0.3046875 -1.207031,-0.3046875 -2.238281,-0.3046875 -0.726562,0 -0.808594,0 -1.03125,-0.234375 -0.117187,-0.11718752 -0.222656,-0.33984372 -0.222656,-0.59765622 0,-0.1992188 0.07031,-0.3984375 0.1875,-0.5742183 z m 1.183594,0.1289063 c -1.042969,0 -1.042969,-1.2070313 -1.042969,-1.4882813 0,-0.2109375 0,-0.703125 0.199219,-1.03125 0.222656,-0.3398437 0.585937,-0.4570312 0.832031,-0.4570312 1.054687,0 1.054687,1.2070312 1.054687,1.4765625 0,0.2109375 0,0.703125 -0.199218,1.03125 -0.234375,0.3398437 -0.585938,0.46875 -0.84375,0.46875 z m 0.328125,4.2421875 c -1.148438,0 -2.015625,-0.5859375 -2.015625,-1.26562503 0,-0.10546875 0.02344,-0.5625 0.46875,-0.87890625 0.269531,-0.1640625 0.375,-0.1640625 1.207031,-0.1640625 0.996094,0 2.34375,0 2.34375,1.04296875 0,0.70312503 -0.902344,1.26562503 -2.003906,1.26562503 z m 4.916015,-4.9921875 c 0,-1.1601563 0.480469,-2.2382813 1.40625,-2.2382813 0.09375,0 0.117188,0 0.164063,0.011719 -0.09375,0.046875 -0.292969,0.1171875 -0.292969,0.4335937 0,0.3515625 0.28125,0.4804688 0.46875,0.4804688 0.246094,0 0.480469,-0.1523438 0.480469,-0.4804688 0,-0.3515625 -0.316406,-0.6914062 -0.832031,-0.6914062 -1.019532,0 -1.371094,1.1015625 -1.441407,1.3242187 h -0.01172 v -1.3242187 l -1.59375,0.1289062 v 0.3515625 c 0.808593,0 0.902343,0.082031 0.902343,0.6679688 v 3.24609372 c 0,0.52734375 -0.128906,0.52734375 -0.902343,0.52734375 V 9.84375e-4 C 18.22685,-0.02245313 18.8831,-0.02245313 19.246381,-0.02245313 c 0.316406,0 1.171875,0 1.441406,0.023437505 V -0.35057813 h -0.234375 c -0.878906,0 -0.902344,-0.12890625 -0.902344,-0.5625 z m 7.142578,0.011719 c 0.257813,0 0.28125,0 0.28125,-0.2226562 0,-1.2070313 -0.644531,-2.3320313 -2.085937,-2.3320313 -1.371094,0 -2.414063,1.2304688 -2.414063,2.71875 0,1.5703125 1.21875,2.73046877 2.542969,2.73046877 1.417969,0 1.957031,-1.28906247 1.957031,-1.53515627 0,-0.082031 -0.05859,-0.1289062 -0.128906,-0.1289062 -0.09375,0 -0.117187,0.070312 -0.140625,0.1289062 -0.316406,0.99609377 -1.113281,1.27734377 -1.617187,1.27734377 -0.503907,0 -1.710938,-0.33984375 -1.710938,-2.40234377 v -0.234375 z m -3.304687,-0.2226562 c 0.09375,-1.875 1.148437,-2.0976563 1.488281,-2.0976563 1.277344,0 1.347656,1.6875 1.359375,2.0976563 z m 8.507812,0.2226562 c 0.257813,0 0.28125,0 0.28125,-0.2226562 0,-1.2070313 -0.644531,-2.3320313 -2.085937,-2.3320313 -1.371094,0 -2.414063,1.2304688 -2.414063,2.71875 0,1.5703125 1.21875,2.73046877 2.542969,2.73046877 1.417969,0 1.957031,-1.28906247 1.957031,-1.53515627 0,-0.082031 -0.05859,-0.1289062 -0.128906,-0.1289062 -0.09375,0 -0.117187,0.070312 -0.140625,0.1289062 -0.316406,0.99609377 -1.113281,1.27734377 -1.617187,1.27734377 -0.503907,0 -1.710938,-0.33984375 -1.710938,-2.40234377 v -0.234375 z m -3.304687,-0.2226562 c 0.09375,-1.875 1.148437,-2.0976563 1.488281,-2.0976563 1.277344,0 1.347656,1.6875 1.359375,2.0976563 z m 6.128906,-1.5820313 c 0,-0.3164062 -0.28125,-0.5742187 -0.574219,-0.5742187 -0.351562,0 -0.585937,0.28125 -0.585937,0.5742187 0,0.3632813 0.292969,0.5859375 0.574219,0.5859375 0.316406,0 0.585937,-0.2460937 0.585937,-0.5859375 z m 0,3.99609377 c 0,-0.328125 -0.28125,-0.57421877 -0.574219,-0.57421877 -0.351562,0 -0.585937,0.28125002 -0.585937,0.57421877 0,0.36328125 0.292969,0.585937505 0.574219,0.585937505 0.316406,0 0.585937,-0.246093755 0.585937,-0.585937505 z m 8.452149,-3.70312497 c -0.210938,0.011719 -0.257813,0.023437 -0.257813,0.1289062 0,0.1171875 0.05859,0.1171875 0.28125,0.1171875 h 0.550781 c 1.007813,0 1.464844,0.84375 1.464844,1.9921875 0,1.55859377 -0.808594,1.98046877 -1.394531,1.98046877 -0.574219,0 -1.558594,-0.28125 -1.898438,-1.06640627 0.375,0.058594 0.726563,-0.1523437 0.726563,-0.5859375 0,-0.3398437 -0.257813,-0.5859375 -0.585938,-0.5859375 -0.292968,0 -0.597656,0.1640625 -0.597656,0.6210938 0,1.06640622 1.066406,1.93359372 2.390625,1.93359372 1.417969,0 2.472656,-1.078125 2.472656,-2.28515622 0,-1.1015625 -0.890625,-1.96875 -2.027343,-2.1679688 1.03125,-0.3046875 1.699218,-1.171875 1.699218,-2.109375 0,-0.9375 -0.972656,-1.6289062 -2.132812,-1.6289062 -1.195313,0 -2.085938,0.7265625 -2.085938,1.59375 0,0.4804687 0.375,0.5742187 0.550782,0.5742187 0.257812,0 0.539062,-0.1757812 0.539062,-0.5390625 0,-0.375 -0.28125,-0.5390625 -0.550781,-0.5390625 -0.07031,0 -0.09375,0 -0.128906,0.011719 0.457031,-0.8203125 1.582031,-0.8203125 1.640625,-0.8203125 0.386718,0 1.171875,0.1757812 1.171875,1.3476562 0,0.234375 -0.03516,0.9023438 -0.386719,1.4179688 -0.351563,0.5273437 -0.761719,0.5625 -1.089844,0.5742187 z m 0,0"
       style="fill:#000000;fill-opacity:1;fill-rule:nonzero;stroke:none"
       aria-label="degree:3"
       transform="matrix(1.3333333,0,0,1.3333333,4.428,176.944)" />
    <path
       id="path19"
       d="m 3.5873906,-8.1669844 v 0.3515625 c 0.8085938,0 0.9140625,0.082031 0.9140625,0.6679688 v 2.6367187 c -0.2578125,-0.3398437 -0.7734375,-0.7617187 -1.5,-0.7617187 -1.3828125,0 -2.57812497,1.171875 -2.57812497,2.7070312 0,1.5117188 1.13671877,2.68359377 2.44921877,2.68359377 0.9023437,0 1.4296875,-0.59765625 1.59375,-0.8203125 v 0.8203125 l 1.6875,-0.117187495 V -0.35057813 c -0.8085938,0 -0.9023438,-0.0820313 -0.9023438,-0.66796877 v -7.2773437 z m 0.8789063,6.7734375 c 0,0.2109375 0,0.2460938 -0.1640625,0.51562502 -0.28125,0.41015625 -0.7734375,0.76171875 -1.3710938,0.76171875 -0.3164062,0 -1.6054687,-0.1171875 -1.6054687,-2.43749997 0,-0.8671875 0.140625,-1.3476563 0.4101562,-1.734375 0.234375,-0.375 0.7148438,-0.7382813 1.3125,-0.7382813 0.7382813,0 1.1601563,0.5273438 1.2773438,0.7265625 0.140625,0.1992188 0.140625,0.2226563 0.140625,0.4453125 z m 6.6181641,-1.3828125 c 0.257812,0 0.28125,0 0.28125,-0.2226562 0,-1.2070313 -0.644531,-2.3320313 -2.0859376,-2.3320313 -1.3710937,0 -2.4140625,1.2304688 -2.4140625,2.71875 0,1.5703125 1.21875,2.73046877 2.5429688,2.73046877 1.4179683,0 1.9570313,-1.28906247 1.9570313,-1.53515627 0,-0.082031 -0.05859,-0.1289062 -0.128906,-0.1289062 -0.09375,0 -0.117188,0.070312 -0.140625,0.1289062 -0.316407,0.99609377 -1.1132816,1.27734377 -1.6171878,1.27734377 -0.5039063,0 -1.7109375,-0.33984375 -1.7109375,-2.40234377 v -0.234375 z M 7.7797734,-2.9990156 c 0.09375,-1.875 1.1484375,-2.0976563 1.4882813,-2.0976563 1.2773433,0 1.3476563,1.6875 1.3593753,2.0976563 z m 5.3437496,0.8320312 c 0.5625,0.375 1.042969,0.375 1.171875,0.375 1.078125,0 1.875,-0.8085937 1.875,-1.734375 0,-0.3164062 -0.09375,-0.7734375 -0.46875,-1.1601562 0.457032,-0.4804688 1.019532,-0.4804688 1.089844,-0.4804688 0.04687,0 0.105469,0 0.152344,0.023437 -0.117188,0.046875 -0.1875,0.1757813 -0.1875,0.3046875 0,0.1640625 0.128906,0.3046875 0.316406,0.3046875 0.09375,0 0.316406,-0.058594 0.316406,-0.3164062 0,-0.2109375 -0.175781,-0.5507813 -0.585937,-0.5507813 -0.632813,0 -1.089844,0.3867188 -1.265625,0.5625 -0.351563,-0.28125 -0.773438,-0.4335937 -1.230469,-0.4335937 -1.066406,0 -1.875,0.8203125 -1.875,1.734375 0,0.6796875 0.421875,1.125 0.539063,1.2304687 -0.140625,0.1757813 -0.351563,0.5273438 -0.351563,0.9960938 0,0.69140622 0.410156,0.98437497 0.503906,1.05468747 -0.550781,0.15234375 -1.089843,0.5859375 -1.089843,1.20703125 0,0.82031248 1.113281,1.49999998 2.589843,1.49999998 1.417969,0 2.601563,-0.6328125 2.601563,-1.52343748 0,-0.3046875 -0.08203,-1.0078125 -0.796875,-1.3828125 -0.609375,-0.3046875 -1.207031,-0.3046875 -2.238281,-0.3046875 -0.726563,0 -0.808594,0 -1.03125,-0.234375 -0.117188,-0.11718752 -0.222657,-0.33984372 -0.222657,-0.59765622 0,-0.1992188 0.07031,-0.3984375 0.1875,-0.5742183 z m 1.183594,0.1289063 c -1.042969,0 -1.042969,-1.2070313 -1.042969,-1.4882813 0,-0.2109375 0,-0.703125 0.199219,-1.03125 0.222656,-0.3398437 0.585938,-0.4570312 0.832031,-0.4570312 1.054688,0 1.054688,1.2070312 1.054688,1.4765625 0,0.2109375 0,0.703125 -0.199219,1.03125 -0.234375,0.3398437 -0.585937,0.46875 -0.84375,0.46875 z m 0.328125,4.2421875 c -1.148437,0 -2.015625,-0.5859375 -2.015625,-1.26562503 0,-0.10546875 0.02344,-0.5625 0.46875,-0.87890625 0.269531,-0.1640625 0.375,-0.1640625 1.207031,-0.1640625 0.996094,0 2.34375,0 2.34375,1.04296875 0,0.70312503 -0.902343,1.26562503 -2.003906,1.26562503 z m 4.916016,-4.9921875 c 0,-1.1601563 0.480469,-2.2382813 1.40625,-2.2382813 0.09375,0 0.117187,0 0.164062,0.011719 -0.09375,0.046875 -0.292968,0.1171875 -0.292968,0.4335937 0,0.3515625 0.28125,0.4804688 0.46875,0.4804688 0.246093,0 0.480468,-0.1523438 0.480468,-0.4804688 0,-0.3515625 -0.316406,-0.6914062 -0.832031,-0.6914062 -1.019531,0 -1.371094,1.1015625 -1.441406,1.3242187 h -0.01172 v -1.3242187 l -1.59375,0.1289062 v 0.3515625 c 0.808594,0 0.902344,0.082031 0.902344,0.6679688 v 3.24609372 c 0,0.52734375 -0.128906,0.52734375 -0.902344,0.52734375 V 9.84375e-4 c 0.328125,-0.023437505 0.984375,-0.023437505 1.347656,-0.023437505 0.316407,0 1.171875,0 1.441407,0.023437505 V -0.35057813 h -0.234375 c -0.878907,0 -0.902344,-0.12890625 -0.902344,-0.5625 z m 7.142578,0.011719 c 0.257812,0 0.28125,0 0.28125,-0.2226562 0,-1.2070313 -0.644531,-2.3320313 -2.085938,-2.3320313 -1.371093,0 -2.414062,1.2304688 -2.414062,2.71875 0,1.5703125 1.21875,2.73046877 2.542969,2.73046877 1.417968,0 1.957031,-1.28906247 1.957031,-1.53515627 0,-0.082031 -0.05859,-0.1289062 -0.128906,-0.1289062 -0.09375,0 -0.117188,0.070312 -0.140625,0.1289062 -0.316407,0.99609377 -1.113282,1.27734377 -1.617188,1.27734377 -0.503906,0 -1.710937,-0.33984375 -1.710937,-2.40234377 v -0.234375 z m -3.304688,-0.2226562 c 0.09375,-1.875 1.148438,-2.0976563 1.488282,-2.0976563 1.277343,0 1.347656,1.6875 1.359375,2.0976563 z m 8.507813,0.2226562 c 0.257812,0 0.28125,0 0.28125,-0.2226562 0,-1.2070313 -0.644531,-2.3320313 -2.085938,-2.3320313 -1.371093,0 -2.414062,1.2304688 -2.414062,2.71875 0,1.5703125 1.21875,2.73046877 2.542969,2.73046877 1.417968,0 1.957031,-1.28906247 1.957031,-1.53515627 0,-0.082031 -0.05859,-0.1289062 -0.128906,-0.1289062 -0.09375,0 -0.117188,0.070312 -0.140625,0.1289062 -0.316407,0.99609377 -1.113282,1.27734377 -1.617188,1.27734377 -0.503906,0 -1.710937,-0.33984375 -1.710937,-2.40234377 v -0.234375 z m -3.304688,-0.2226562 c 0.09375,-1.875 1.148438,-2.0976563 1.488282,-2.0976563 1.277343,0 1.347656,1.6875 1.359375,2.0976563 z m 6.128907,-1.5820313 c 0,-0.3164062 -0.28125,-0.5742187 -0.574219,-0.5742187 -0.351563,0 -0.585938,0.28125 -0.585938,0.5742187 0,0.3632813 0.292969,0.5859375 0.574219,0.5859375 0.316406,0 0.585938,-0.2460937 0.585938,-0.5859375 z m 0,3.99609377 c 0,-0.328125 -0.28125,-0.57421877 -0.574219,-0.57421877 -0.351563,0 -0.585938,0.28125002 -0.585938,0.57421877 0,0.36328125 0.292969,0.585937505 0.574219,0.585937505 0.316406,0 0.585938,-0.246093755 0.585938,-0.585937505 z m 8.452148,-3.70312497 c -0.210937,0.011719 -0.257812,0.023437 -0.257812,0.1289062 0,0.1171875 0.05859,0.1171875 0.28125,0.1171875 h 0.550781 c 1.007812,0 1.464844,0.84375 1.464844,1.9921875 0,1.55859377 -0.808594,1.98046877 -1.394532,1.98046877 -0.574218,0 -1.558593,-0.28125 -1.898437,-1.06640627 0.375,0.058594 0.726562,-0.1523437 0.726562,-0.5859375 0,-0.3398437 -0.257812,-0.5859375 -0.585937,-0.5859375 -0.292969,0 -0.597656,0.1640625 -0.597656,0.6210938 0,1.06640622 1.066406,1.93359372 2.390625,1.93359372 1.417968,0 2.472656,-1.078125 2.472656,-2.28515622 0,-1.1015625 -0.890625,-1.96875 -2.027344,-2.1679688 1.03125,-0.3046875 1.699219,-1.171875 1.699219,-2.109375 0,-0.9375 -0.972656,-1.6289062 -2.132813,-1.6289062 -1.195312,0 -2.085937,0.7265625 -2.085937,1.59375 0,0.4804687 0.375,0.5742187 0.550781,0.5742187 0.257813,0 0.539063,-0.1757812 0.539063,-0.5390625 0,-0.375 -0.28125,-0.5390625 -0.550782,-0.5390625 -0.07031,0 -0.09375,0 -0.128906,0.011719 0.457031,-0.8203125 1.582031,-0.8203125 1.640625,-0.8203125 0.386719,0 1.171875,0.1757812 1.171875,1.3476562 0,0.234375 -0.03516,0.9023438 -0.386719,1.4179688 -0.351562,0.5273437 -0.761718,0.5625 -1.089843,0.5742187 z m 0,0"
       style="fill:#000000;fill-opacity:1;fill-rule:nonzero;stroke:none"
       aria-label="degree:3"
       transform="matrix(1.3333333,0,0,1.3333333,375.584,176.944)" />
    <path
       id="path20"
       d="m 3.5870234,-8.1682812 v 0.3515625 c 0.8085938,0 0.9140625,0.082031 0.9140625,0.6679687 v 2.6367188 c -0.2578125,-0.3398438 -0.7734375,-0.7617188 -1.5,-0.7617188 -1.3828125,0 -2.57812496,1.171875 -2.57812496,2.7070313 0,1.5117187 1.13671876,2.6835937 2.44921876,2.6835937 0.9023437,0 1.4296875,-0.59765625 1.59375,-0.8203125 V 0.116875 l 1.6875,-0.1171875 V -0.351875 c -0.8085938,0 -0.9023438,-0.0820313 -0.9023438,-0.6679687 v -7.2773438 z m 0.8789063,6.7734375 c 0,0.2109375 0,0.2460937 -0.1640625,0.51562495 C 4.0206172,-0.4690625 3.5284297,-0.1175 2.9307734,-0.1175 c -0.3164062,0 -1.6054687,-0.1171875 -1.6054687,-2.4375 0,-0.8671875 0.140625,-1.3476562 0.4101562,-1.734375 0.234375,-0.375 0.7148438,-0.7382812 1.3125,-0.7382812 0.7382813,0 1.1601563,0.5273437 1.2773438,0.7265625 0.140625,0.1992187 0.140625,0.2226562 0.140625,0.4453125 z m 6.6210933,-1.3828125 c 0.257813,0 0.28125,0 0.28125,-0.2226563 0,-1.2070312 -0.644531,-2.3320312 -2.0859371,-2.3320312 -1.3710937,0 -2.4140625,1.2304687 -2.4140625,2.71875 0,1.5703125 1.21875,2.7304687 2.5429688,2.7304687 1.4179688,0 1.9570308,-1.2890625 1.9570308,-1.5351562 0,-0.082031 -0.05859,-0.1289063 -0.128906,-0.1289063 -0.09375,0 -0.117187,0.070312 -0.140625,0.1289063 -0.316406,0.9960937 -1.1132811,1.2773437 -1.6171873,1.2773437 -0.5039063,0 -1.7109375,-0.33984375 -1.7109375,-2.4023437 v -0.234375 z M 7.7823359,-3.0003125 c 0.09375,-1.875 1.1484375,-2.0976562 1.4882813,-2.0976562 1.2773438,0 1.3476558,1.6875 1.3593748,2.0976562 z m 5.3408201,0.8320313 c 0.5625,0.375 1.042969,0.375 1.171875,0.375 1.078125,0 1.875,-0.8085938 1.875,-1.734375 0,-0.3164063 -0.09375,-0.7734375 -0.46875,-1.1601563 0.457031,-0.4804687 1.019531,-0.4804687 1.089844,-0.4804687 0.04687,0 0.105469,0 0.152344,0.023437 -0.117188,0.046875 -0.1875,0.1757812 -0.1875,0.3046875 0,0.1640625 0.128906,0.3046875 0.316406,0.3046875 0.09375,0 0.316406,-0.058594 0.316406,-0.3164063 0,-0.2109375 -0.175781,-0.5507812 -0.585937,-0.5507812 -0.632813,0 -1.089844,0.3867187 -1.265625,0.5625 -0.351563,-0.28125 -0.773438,-0.4335938 -1.230469,-0.4335938 -1.066406,0 -1.875,0.8203125 -1.875,1.734375 0,0.6796875 0.421875,1.125 0.539062,1.2304688 -0.140625,0.1757812 -0.351562,0.5273437 -0.351562,0.9960937 0,0.69140625 0.410156,0.984375 0.503906,1.0546875 -0.550781,0.15234375 -1.089844,0.5859375 -1.089844,1.20703125 0,0.82031255 1.113282,1.50000005 2.589844,1.50000005 1.417969,0 2.601563,-0.6328125 2.601563,-1.52343755 0,-0.3046875 -0.08203,-1.0078125 -0.796875,-1.3828125 -0.609375,-0.3046875 -1.207032,-0.3046875 -2.238282,-0.3046875 -0.726562,0 -0.808593,0 -1.03125,-0.234375 C 13.041125,-1.1135937 12.935656,-1.33625 12.935656,-1.5940625 c 0,-0.1992187 0.07031,-0.3984375 0.1875,-0.5742187 z m 1.183594,0.1289062 c -1.042969,0 -1.042969,-1.2070312 -1.042969,-1.4882812 0,-0.2109375 0,-0.703125 0.199219,-1.03125 0.222656,-0.3398438 0.585937,-0.4570313 0.832031,-0.4570313 1.054688,0 1.054688,1.2070313 1.054688,1.4765625 0,0.2109375 0,0.703125 -0.199219,1.03125 -0.234375,0.3398438 -0.585938,0.46875 -0.84375,0.46875 z m 0.328125,4.2421875 c -1.148438,0 -2.015625,-0.5859375 -2.015625,-1.265625 0,-0.10546875 0.02344,-0.5625 0.46875,-0.87890625 0.269531,-0.1640625 0.375,-0.1640625 1.207031,-0.1640625 0.996094,0 2.34375,0 2.34375,1.04296875 0,0.703125 -0.902344,1.265625 -2.003906,1.265625 z m 4.916016,-4.9921875 c 0,-1.1601562 0.480468,-2.2382812 1.40625,-2.2382812 0.09375,0 0.117187,0 0.164062,0.011719 -0.09375,0.046875 -0.292969,0.1171875 -0.292969,0.4335938 0,0.3515625 0.28125,0.4804687 0.46875,0.4804687 0.246094,0 0.480469,-0.1523437 0.480469,-0.4804687 0,-0.3515625 -0.316406,-0.6914063 -0.832031,-0.6914063 -1.019531,0 -1.371094,1.1015625 -1.441406,1.3242188 h -0.01172 V -5.27375 l -1.59375,0.1289063 v 0.3515625 c 0.808594,0 0.902344,0.082031 0.902344,0.6679687 v 3.24609375 c 0,0.52734375 -0.128907,0.52734375 -0.902344,0.52734375 V -3.125e-4 C 18.226672,-0.02375 18.882922,-0.02375 19.246203,-0.02375 c 0.316406,0 1.171875,0 1.441406,0.0234375 V -0.351875 h -0.234375 c -0.878906,0 -0.902343,-0.12890625 -0.902343,-0.5625 z m 7.142578,0.011719 c 0.257812,0 0.28125,0 0.28125,-0.2226563 0,-1.2070312 -0.644532,-2.3320312 -2.085938,-2.3320312 -1.371094,0 -2.414062,1.2304687 -2.414062,2.71875 0,1.5703125 1.21875,2.7304687 2.542968,2.7304687 1.417969,0 1.957032,-1.2890625 1.957032,-1.5351562 0,-0.082031 -0.05859,-0.1289063 -0.128907,-0.1289063 -0.09375,0 -0.117187,0.070312 -0.140625,0.1289063 -0.316406,0.9960937 -1.113281,1.2773437 -1.617187,1.2773437 -0.503906,0 -1.710938,-0.33984375 -1.710938,-2.4023437 v -0.234375 z m -3.304688,-0.2226563 c 0.09375,-1.875 1.148438,-2.0976562 1.488281,-2.0976562 1.277344,0 1.347657,1.6875 1.359375,2.0976562 z m 8.507813,0.2226563 c 0.257812,0 0.28125,0 0.28125,-0.2226563 0,-1.2070312 -0.644532,-2.3320312 -2.085938,-2.3320312 -1.371094,0 -2.414062,1.2304687 -2.414062,2.71875 0,1.5703125 1.21875,2.7304687 2.542968,2.7304687 1.417969,0 1.957032,-1.2890625 1.957032,-1.5351562 0,-0.082031 -0.05859,-0.1289063 -0.128907,-0.1289063 -0.09375,0 -0.117187,0.070312 -0.140625,0.1289063 -0.316406,0.9960937 -1.113281,1.2773437 -1.617187,1.2773437 -0.503906,0 -1.710938,-0.33984375 -1.710938,-2.4023437 v -0.234375 z m -3.304688,-0.2226563 c 0.09375,-1.875 1.148438,-2.0976562 1.488281,-2.0976562 1.277344,0 1.347657,1.6875 1.359375,2.0976562 z m 6.128906,-1.5820312 c 0,-0.3164063 -0.28125,-0.5742188 -0.574218,-0.5742188 -0.351563,0 -0.585938,0.28125 -0.585938,0.5742188 0,0.3632812 0.292969,0.5859375 0.574219,0.5859375 0.316406,0 0.585937,-0.2460938 0.585937,-0.5859375 z m 0,3.9960937 c 0,-0.328125 -0.28125,-0.5742187 -0.574218,-0.5742187 -0.351563,0 -0.585938,0.28124995 -0.585938,0.5742187 0,0.36328125 0.292969,0.5859375 0.574219,0.5859375 0.316406,0 0.585937,-0.24609375 0.585937,-0.5859375 z M 46.231555,-2.0042187 H 45.962023 C 45.926867,-1.805 45.833117,-1.14875 45.71593,-0.96125 c -0.08203,0.1171875 -0.761719,0.1171875 -1.125,0.1171875 h -2.214844 c 0.328125,-0.28125 1.054687,-1.0429687 1.371094,-1.3359375 1.816406,-1.6640625 2.484375,-2.2851562 2.484375,-3.46875 0,-1.3828125 -1.089844,-2.296875 -2.472657,-2.296875 -1.394531,0 -2.203125,1.1835938 -2.203125,2.203125 0,0.609375 0.527344,0.609375 0.5625,0.609375 0.246094,0 0.5625,-0.1757812 0.5625,-0.5625 0,-0.328125 -0.234375,-0.5507812 -0.5625,-0.5507812 -0.105468,0 -0.128906,0 -0.164062,0.011719 0.222656,-0.8203125 0.867187,-1.3710937 1.640625,-1.3710937 1.019531,0 1.640625,0.8554687 1.640625,1.9570312 0,1.0078125 -0.585938,1.8984375 -1.265625,2.6601563 l -2.414063,2.7070312 v 0.28125 h 4.359375 z m 0,0"
       style="fill:#000000;fill-opacity:1;fill-rule:nonzero;stroke:none"
       aria-label="degree:2"
       transform="matrix(1.3333333,0,0,1.3333333,52.049333,372.40667)" />
    <path
       id="path21"
       d="m 3.5856406,-8.1682812 v 0.3515625 c 0.8085938,0 0.9140625,0.082031 0.9140625,0.6679687 v 2.6367188 c -0.2578125,-0.3398438 -0.7734375,-0.7617188 -1.5,-0.7617188 -1.3828125,0 -2.57812497,1.171875 -2.57812497,2.7070313 0,1.5117187 1.13671877,2.6835937 2.44921877,2.6835937 0.9023437,0 1.4296875,-0.59765625 1.59375,-0.8203125 V 0.116875 l 1.6875,-0.1171875 V -0.351875 c -0.8085938,0 -0.9023438,-0.0820313 -0.9023438,-0.6679687 v -7.2773438 z m 0.8789063,6.7734375 c 0,0.2109375 0,0.2460937 -0.1640625,0.51562495 C 4.0192344,-0.4690625 3.5270469,-0.1175 2.9293906,-0.1175 c -0.3164062,0 -1.6054687,-0.1171875 -1.6054687,-2.4375 0,-0.8671875 0.140625,-1.3476562 0.4101562,-1.734375 0.234375,-0.375 0.7148438,-0.7382812 1.3125,-0.7382812 0.7382813,0 1.1601563,0.5273437 1.2773438,0.7265625 0.140625,0.1992187 0.140625,0.2226562 0.140625,0.4453125 z m 6.6210941,-1.3828125 c 0.257812,0 0.28125,0 0.28125,-0.2226563 0,-1.2070312 -0.644532,-2.3320312 -2.0859379,-2.3320312 -1.3710937,0 -2.4140625,1.2304687 -2.4140625,2.71875 0,1.5703125 1.21875,2.7304687 2.5429688,2.7304687 1.4179686,0 1.9570316,-1.2890625 1.9570316,-1.5351562 0,-0.082031 -0.05859,-0.1289063 -0.128907,-0.1289063 -0.09375,0 -0.117187,0.070312 -0.140625,0.1289063 -0.316406,0.9960937 -1.1132809,1.2773437 -1.6171871,1.2773437 -0.5039063,0 -1.7109375,-0.33984375 -1.7109375,-2.4023437 v -0.234375 z M 7.7809531,-3.0003125 c 0.09375,-1.875 1.1484375,-2.0976562 1.4882813,-2.0976562 1.2773436,0 1.3476566,1.6875 1.3593746,2.0976562 z m 5.3437499,0.8320313 c 0.5625,0.375 1.042969,0.375 1.171875,0.375 1.078125,0 1.875,-0.8085938 1.875,-1.734375 0,-0.3164063 -0.09375,-0.7734375 -0.46875,-1.1601563 0.457031,-0.4804687 1.019531,-0.4804687 1.089844,-0.4804687 0.04687,0 0.105469,0 0.152344,0.023437 -0.117188,0.046875 -0.1875,0.1757812 -0.1875,0.3046875 0,0.1640625 0.128906,0.3046875 0.316406,0.3046875 0.09375,0 0.316406,-0.058594 0.316406,-0.3164063 0,-0.2109375 -0.175781,-0.5507812 -0.585937,-0.5507812 -0.632813,0 -1.089844,0.3867187 -1.265625,0.5625 -0.351563,-0.28125 -0.773438,-0.4335938 -1.230469,-0.4335938 -1.066406,0 -1.875,0.8203125 -1.875,1.734375 0,0.6796875 0.421875,1.125 0.539062,1.2304688 -0.140625,0.1757812 -0.351562,0.5273437 -0.351562,0.9960937 0,0.69140625 0.410156,0.984375 0.503906,1.0546875 -0.550781,0.15234375 -1.089844,0.5859375 -1.089844,1.20703125 0,0.82031255 1.113282,1.50000005 2.589844,1.50000005 1.417969,0 2.601563,-0.6328125 2.601563,-1.52343755 0,-0.3046875 -0.08203,-1.0078125 -0.796875,-1.3828125 -0.609375,-0.3046875 -1.207032,-0.3046875 -2.238282,-0.3046875 -0.726562,0 -0.808593,0 -1.03125,-0.234375 C 13.042672,-1.1135937 12.937203,-1.33625 12.937203,-1.5940625 c 0,-0.1992187 0.07031,-0.3984375 0.1875,-0.5742187 z m 1.183594,0.1289062 c -1.042969,0 -1.042969,-1.2070312 -1.042969,-1.4882812 0,-0.2109375 0,-0.703125 0.199219,-1.03125 0.222656,-0.3398438 0.585937,-0.4570313 0.832031,-0.4570313 1.054688,0 1.054688,1.2070313 1.054688,1.4765625 0,0.2109375 0,0.703125 -0.199219,1.03125 -0.234375,0.3398438 -0.585938,0.46875 -0.84375,0.46875 z m 0.328125,4.2421875 c -1.148438,0 -2.015625,-0.5859375 -2.015625,-1.265625 0,-0.10546875 0.02344,-0.5625 0.46875,-0.87890625 0.269531,-0.1640625 0.375,-0.1640625 1.207031,-0.1640625 0.996094,0 2.34375,0 2.34375,1.04296875 0,0.703125 -0.902344,1.265625 -2.003906,1.265625 z m 4.916016,-4.9921875 c 0,-1.1601562 0.480468,-2.2382812 1.40625,-2.2382812 0.09375,0 0.117187,0 0.164062,0.011719 -0.09375,0.046875 -0.292969,0.1171875 -0.292969,0.4335938 0,0.3515625 0.28125,0.4804687 0.46875,0.4804687 0.246094,0 0.480469,-0.1523437 0.480469,-0.4804687 0,-0.3515625 -0.316406,-0.6914063 -0.832031,-0.6914063 -1.019531,0 -1.371094,1.1015625 -1.441406,1.3242188 h -0.01172 V -5.27375 l -1.59375,0.1289063 v 0.3515625 c 0.808594,0 0.902344,0.082031 0.902344,0.6679687 v 3.24609375 c 0,0.52734375 -0.128907,0.52734375 -0.902344,0.52734375 V -3.125e-4 C 18.228219,-0.02375 18.884469,-0.02375 19.24775,-0.02375 c 0.316406,0 1.171875,0 1.441406,0.0234375 V -0.351875 h -0.234375 c -0.878906,0 -0.902343,-0.12890625 -0.902343,-0.5625 z m 7.142578,0.011719 c 0.257812,0 0.28125,0 0.28125,-0.2226563 0,-1.2070312 -0.644532,-2.3320312 -2.085938,-2.3320312 -1.371094,0 -2.414062,1.2304687 -2.414062,2.71875 0,1.5703125 1.21875,2.7304687 2.542968,2.7304687 1.417969,0 1.957032,-1.2890625 1.957032,-1.5351562 0,-0.082031 -0.05859,-0.1289063 -0.128907,-0.1289063 -0.09375,0 -0.117187,0.070312 -0.140625,0.1289063 -0.316406,0.9960937 -1.113281,1.2773437 -1.617187,1.2773437 -0.503906,0 -1.710938,-0.33984375 -1.710938,-2.4023437 v -0.234375 z m -3.304688,-0.2226563 c 0.09375,-1.875 1.148438,-2.0976562 1.488281,-2.0976562 1.277344,0 1.347657,1.6875 1.359375,2.0976562 z m 8.507813,0.2226563 c 0.257812,0 0.28125,0 0.28125,-0.2226563 0,-1.2070312 -0.644532,-2.3320312 -2.085938,-2.3320312 -1.371094,0 -2.414062,1.2304687 -2.414062,2.71875 0,1.5703125 1.21875,2.7304687 2.542968,2.7304687 1.417969,0 1.957032,-1.2890625 1.957032,-1.5351562 0,-0.082031 -0.05859,-0.1289063 -0.128907,-0.1289063 -0.09375,0 -0.117187,0.070312 -0.140625,0.1289063 -0.316406,0.9960937 -1.113281,1.2773437 -1.617187,1.2773437 -0.503906,0 -1.710938,-0.33984375 -1.710938,-2.4023437 v -0.234375 z m -3.304688,-0.2226563 c 0.09375,-1.875 1.148438,-2.0976562 1.488281,-2.0976562 1.277344,0 1.347657,1.6875 1.359375,2.0976562 z m 6.128906,-1.5820312 c 0,-0.3164063 -0.28125,-0.5742188 -0.574218,-0.5742188 -0.351563,0 -0.585938,0.28125 -0.585938,0.5742188 0,0.3632812 0.292969,0.5859375 0.574219,0.5859375 0.316406,0 0.585937,-0.2460938 0.585937,-0.5859375 z m 0,3.9960937 c 0,-0.328125 -0.28125,-0.5742187 -0.574218,-0.5742187 -0.351563,0 -0.585938,0.28124995 -0.585938,0.5742187 0,0.36328125 0.292969,0.5859375 0.574219,0.5859375 0.316406,0 0.585937,-0.24609375 0.585937,-0.5859375 z M 46.233102,-2.0042187 H 45.96357 C 45.928414,-1.805 45.834664,-1.14875 45.717477,-0.96125 c -0.08203,0.1171875 -0.761719,0.1171875 -1.125,0.1171875 h -2.214844 c 0.328125,-0.28125 1.054687,-1.0429687 1.371094,-1.3359375 1.816406,-1.6640625 2.484375,-2.2851562 2.484375,-3.46875 0,-1.3828125 -1.089844,-2.296875 -2.472657,-2.296875 -1.394531,0 -2.203125,1.1835938 -2.203125,2.203125 0,0.609375 0.527344,0.609375 0.5625,0.609375 0.246094,0 0.5625,-0.1757812 0.5625,-0.5625 0,-0.328125 -0.234375,-0.5507812 -0.5625,-0.5507812 -0.105468,0 -0.128906,0 -0.164062,0.011719 0.222656,-0.8203125 0.867187,-1.3710937 1.640625,-1.3710937 1.019531,0 1.640625,0.8554687 1.640625,1.9570312 0,1.0078125 -0.585938,1.8984375 -1.265625,2.6601563 l -2.414063,2.7070312 v 0.28125 h 4.359375 z m 0,0"
       style="fill:#000000;fill-opacity:1;fill-rule:nonzero;stroke:none"
       aria-label="degree:2"
       transform="matrix(1.3333333,0,0,1.3333333,327.96133,372.40667)" />
  </g>
</svg>
