<?xml version="1.0" encoding="UTF-8"?>
<svg xmlns="http://www.w3.org/2000/svg" xmlns:xlink="http://www.w3.org/1999/xlink" width="600pt" height="600pt" viewBox="0 0 600 600" version="1.1">
<g id="surface14">
<rect x="0" y="0" width="600" height="600" style="fill:rgb(100%,100%,100%);fill-opacity:1;stroke:none;"/>
<path style="fill:none;stroke-width:1;stroke-linecap:butt;stroke-linejoin:miter;stroke:rgb(26.666667%,26.666667%,26.666667%);stroke-opacity:1;stroke-miterlimit:10;" d="M 497.253906 381.105469 L 372.347656 484.445312 "/>
<path style="fill:none;stroke-width:1;stroke-linecap:butt;stroke-linejoin:miter;stroke:rgb(26.666667%,26.666667%,26.666667%);stroke-opacity:1;stroke-miterlimit:10;" d="M 497.253906 381.105469 L 580 470.328125 "/>
<path style="fill:none;stroke-width:1;stroke-linecap:butt;stroke-linejoin:miter;stroke:rgb(26.666667%,26.666667%,26.666667%);stroke-opacity:1;stroke-miterlimit:10;" d="M 372.347656 484.445312 L 580 470.328125 "/>
<path style="fill:none;stroke-width:1;stroke-linecap:butt;stroke-linejoin:miter;stroke:rgb(26.666667%,26.666667%,26.666667%);stroke-opacity:1;stroke-miterlimit:10;" d="M 497.253906 381.105469 L 447.4375 580 "/>
<path style="fill:none;stroke-width:1;stroke-linecap:butt;stroke-linejoin:miter;stroke:rgb(26.666667%,26.666667%,26.666667%);stroke-opacity:1;stroke-miterlimit:10;" d="M 372.347656 484.445312 L 447.4375 580 "/>
<path style="fill:none;stroke-width:1;stroke-linecap:butt;stroke-linejoin:miter;stroke:rgb(26.666667%,26.666667%,26.666667%);stroke-opacity:1;stroke-miterlimit:10;" d="M 580 470.328125 L 447.4375 580 "/>
<path style="fill:none;stroke-width:1;stroke-linecap:butt;stroke-linejoin:miter;stroke:rgb(26.666667%,26.666667%,26.666667%);stroke-opacity:1;stroke-miterlimit:10;" d="M 497.253906 381.105469 L 540.949219 557.042969 "/>
<path style="fill:none;stroke-width:1;stroke-linecap:butt;stroke-linejoin:miter;stroke:rgb(26.666667%,26.666667%,26.666667%);stroke-opacity:1;stroke-miterlimit:10;" d="M 372.347656 484.445312 L 540.949219 557.042969 "/>
<path style="fill:none;stroke-width:1;stroke-linecap:butt;stroke-linejoin:miter;stroke:rgb(26.666667%,26.666667%,26.666667%);stroke-opacity:1;stroke-miterlimit:10;" d="M 580 470.328125 L 540.949219 557.042969 "/>
<path style="fill:none;stroke-width:1;stroke-linecap:butt;stroke-linejoin:miter;stroke:rgb(26.666667%,26.666667%,26.666667%);stroke-opacity:1;stroke-miterlimit:10;" d="M 447.4375 580 L 540.949219 557.042969 "/>
<path style="fill:none;stroke-width:1;stroke-linecap:butt;stroke-linejoin:miter;stroke:rgb(26.666667%,26.666667%,26.666667%);stroke-opacity:1;stroke-miterlimit:10;" d="M 372.347656 484.445312 L 196.667969 421.691406 "/>
<path style="fill:none;stroke-width:1;stroke-linecap:butt;stroke-linejoin:miter;stroke:rgb(26.666667%,26.666667%,26.666667%);stroke-opacity:1;stroke-miterlimit:10;" d="M 196.667969 421.691406 L 168.1875 263.5625 "/>
<path style="fill:none;stroke-width:1;stroke-linecap:butt;stroke-linejoin:miter;stroke:rgb(26.666667%,26.666667%,26.666667%);stroke-opacity:1;stroke-miterlimit:10;" d="M 196.667969 421.691406 L 46.554688 279.785156 "/>
<path style="fill:none;stroke-width:1;stroke-linecap:butt;stroke-linejoin:miter;stroke:rgb(26.666667%,26.666667%,26.666667%);stroke-opacity:1;stroke-miterlimit:10;" d="M 168.1875 263.5625 L 46.554688 279.785156 "/>
<path style="fill:none;stroke-width:1;stroke-linecap:butt;stroke-linejoin:miter;stroke:rgb(26.666667%,26.666667%,26.666667%);stroke-opacity:1;stroke-miterlimit:10;" d="M 196.667969 421.691406 L 76.78125 447.605469 "/>
<path style="fill:none;stroke-width:1;stroke-linecap:butt;stroke-linejoin:miter;stroke:rgb(26.666667%,26.666667%,26.666667%);stroke-opacity:1;stroke-miterlimit:10;" d="M 168.1875 263.5625 L 76.78125 447.605469 "/>
<path style="fill:none;stroke-width:1;stroke-linecap:butt;stroke-linejoin:miter;stroke:rgb(26.666667%,26.666667%,26.666667%);stroke-opacity:1;stroke-miterlimit:10;" d="M 46.554688 279.785156 L 76.78125 447.605469 "/>
<path style="fill:none;stroke-width:1;stroke-linecap:butt;stroke-linejoin:miter;stroke:rgb(26.666667%,26.666667%,26.666667%);stroke-opacity:1;stroke-miterlimit:10;" d="M 196.667969 421.691406 L 20 370.964844 "/>
<path style="fill:none;stroke-width:1;stroke-linecap:butt;stroke-linejoin:miter;stroke:rgb(26.666667%,26.666667%,26.666667%);stroke-opacity:1;stroke-miterlimit:10;" d="M 168.1875 263.5625 L 20 370.964844 "/>
<path style="fill:none;stroke-width:1;stroke-linecap:butt;stroke-linejoin:miter;stroke:rgb(26.666667%,26.666667%,26.666667%);stroke-opacity:1;stroke-miterlimit:10;" d="M 46.554688 279.785156 L 20 370.964844 "/>
<path style="fill:none;stroke-width:1;stroke-linecap:butt;stroke-linejoin:miter;stroke:rgb(26.666667%,26.666667%,26.666667%);stroke-opacity:1;stroke-miterlimit:10;" d="M 76.78125 447.605469 L 20 370.964844 "/>
<path style="fill:none;stroke-width:1;stroke-linecap:butt;stroke-linejoin:miter;stroke:rgb(26.666667%,26.666667%,26.666667%);stroke-opacity:1;stroke-miterlimit:10;" d="M 168.1875 263.5625 L 311.246094 145.207031 "/>
<path style="fill:none;stroke-width:1;stroke-linecap:butt;stroke-linejoin:miter;stroke:rgb(26.666667%,26.666667%,26.666667%);stroke-opacity:1;stroke-miterlimit:10;" d="M 497.253906 381.105469 L 464.632812 199.996094 "/>
<path style="fill:none;stroke-width:1;stroke-linecap:butt;stroke-linejoin:miter;stroke:rgb(26.666667%,26.666667%,26.666667%);stroke-opacity:1;stroke-miterlimit:10;" d="M 311.246094 145.207031 L 464.632812 199.996094 "/>
<path style="fill:none;stroke-width:1;stroke-linecap:butt;stroke-linejoin:miter;stroke:rgb(26.666667%,26.666667%,26.666667%);stroke-opacity:1;stroke-miterlimit:10;" d="M 311.246094 145.207031 L 348.386719 30.074219 "/>
<path style="fill:none;stroke-width:1;stroke-linecap:butt;stroke-linejoin:miter;stroke:rgb(26.666667%,26.666667%,26.666667%);stroke-opacity:1;stroke-miterlimit:10;" d="M 464.632812 199.996094 L 348.386719 30.074219 "/>
<path style="fill:none;stroke-width:1;stroke-linecap:butt;stroke-linejoin:miter;stroke:rgb(26.666667%,26.666667%,26.666667%);stroke-opacity:1;stroke-miterlimit:10;" d="M 311.246094 145.207031 L 444.21875 20 "/>
<path style="fill:none;stroke-width:1;stroke-linecap:butt;stroke-linejoin:miter;stroke:rgb(26.666667%,26.666667%,26.666667%);stroke-opacity:1;stroke-miterlimit:10;" d="M 464.632812 199.996094 L 444.21875 20 "/>
<path style="fill:none;stroke-width:1;stroke-linecap:butt;stroke-linejoin:miter;stroke:rgb(26.666667%,26.666667%,26.666667%);stroke-opacity:1;stroke-miterlimit:10;" d="M 348.386719 30.074219 L 444.21875 20 "/>
<path style="fill:none;stroke-width:1;stroke-linecap:butt;stroke-linejoin:miter;stroke:rgb(26.666667%,26.666667%,26.666667%);stroke-opacity:1;stroke-miterlimit:10;" d="M 311.246094 145.207031 L 511.175781 88.222656 "/>
<path style="fill:none;stroke-width:1;stroke-linecap:butt;stroke-linejoin:miter;stroke:rgb(26.666667%,26.666667%,26.666667%);stroke-opacity:1;stroke-miterlimit:10;" d="M 464.632812 199.996094 L 511.175781 88.222656 "/>
<path style="fill:none;stroke-width:1;stroke-linecap:butt;stroke-linejoin:miter;stroke:rgb(26.666667%,26.666667%,26.666667%);stroke-opacity:1;stroke-miterlimit:10;" d="M 348.386719 30.074219 L 511.175781 88.222656 "/>
<path style="fill:none;stroke-width:1;stroke-linecap:butt;stroke-linejoin:miter;stroke:rgb(26.666667%,26.666667%,26.666667%);stroke-opacity:1;stroke-miterlimit:10;" d="M 444.21875 20 L 511.175781 88.222656 "/>
<path style="fill-rule:nonzero;fill:rgb(12.156863%,46.666667%,70.588235%);fill-opacity:1;stroke-width:1;stroke-linecap:butt;stroke-linejoin:miter;stroke:rgb(0%,0%,0%);stroke-opacity:1;stroke-miterlimit:10;" d="M 507.253906 381.105469 C 507.253906 386.628906 502.777344 391.105469 497.253906 391.105469 C 491.730469 391.105469 487.253906 386.628906 487.253906 381.105469 C 487.253906 375.582031 491.730469 371.105469 497.253906 371.105469 C 502.777344 371.105469 507.253906 375.582031 507.253906 381.105469 "/>
<path style="fill-rule:nonzero;fill:rgb(12.156863%,46.666667%,70.588235%);fill-opacity:1;stroke-width:1;stroke-linecap:butt;stroke-linejoin:miter;stroke:rgb(0%,0%,0%);stroke-opacity:1;stroke-miterlimit:10;" d="M 382.347656 484.445312 C 382.347656 489.964844 377.871094 494.445312 372.347656 494.445312 C 366.824219 494.445312 362.347656 489.964844 362.347656 484.445312 C 362.347656 478.921875 366.824219 474.445312 372.347656 474.445312 C 377.871094 474.445312 382.347656 478.921875 382.347656 484.445312 "/>
<path style="fill-rule:nonzero;fill:rgb(12.156863%,46.666667%,70.588235%);fill-opacity:1;stroke-width:1;stroke-linecap:butt;stroke-linejoin:miter;stroke:rgb(0%,0%,0%);stroke-opacity:1;stroke-miterlimit:10;" d="M 590 470.328125 C 590 475.851562 585.523438 480.328125 580 480.328125 C 574.476562 480.328125 570 475.851562 570 470.328125 C 570 464.804688 574.476562 460.328125 580 460.328125 C 585.523438 460.328125 590 464.804688 590 470.328125 "/>
<path style="fill-rule:nonzero;fill:rgb(12.156863%,46.666667%,70.588235%);fill-opacity:1;stroke-width:1;stroke-linecap:butt;stroke-linejoin:miter;stroke:rgb(0%,0%,0%);stroke-opacity:1;stroke-miterlimit:10;" d="M 457.4375 580 C 457.4375 585.523438 452.960938 590 447.4375 590 C 441.914062 590 437.4375 585.523438 437.4375 580 C 437.4375 574.476562 441.914062 570 447.4375 570 C 452.960938 570 457.4375 574.476562 457.4375 580 "/>
<path style="fill-rule:nonzero;fill:rgb(12.156863%,46.666667%,70.588235%);fill-opacity:1;stroke-width:1;stroke-linecap:butt;stroke-linejoin:miter;stroke:rgb(0%,0%,0%);stroke-opacity:1;stroke-miterlimit:10;" d="M 550.949219 557.042969 C 550.949219 562.566406 546.472656 567.042969 540.949219 567.042969 C 535.425781 567.042969 530.949219 562.566406 530.949219 557.042969 C 530.949219 551.519531 535.425781 547.042969 540.949219 547.042969 C 546.472656 547.042969 550.949219 551.519531 550.949219 557.042969 "/>
<path style="fill-rule:nonzero;fill:rgb(100%,49.803922%,5.490196%);fill-opacity:1;stroke-width:1;stroke-linecap:butt;stroke-linejoin:miter;stroke:rgb(0%,0%,0%);stroke-opacity:1;stroke-miterlimit:10;" d="M 206.667969 421.691406 C 206.667969 427.214844 202.191406 431.691406 196.667969 431.691406 C 191.144531 431.691406 186.667969 427.214844 186.667969 421.691406 C 186.667969 416.167969 191.144531 411.691406 196.667969 411.691406 C 202.191406 411.691406 206.667969 416.167969 206.667969 421.691406 "/>
<path style="fill-rule:nonzero;fill:rgb(100%,49.803922%,5.490196%);fill-opacity:1;stroke-width:1;stroke-linecap:butt;stroke-linejoin:miter;stroke:rgb(0%,0%,0%);stroke-opacity:1;stroke-miterlimit:10;" d="M 178.1875 263.5625 C 178.1875 269.085938 173.707031 273.5625 168.1875 273.5625 C 162.664062 273.5625 158.1875 269.085938 158.1875 263.5625 C 158.1875 258.042969 162.664062 253.5625 168.1875 253.5625 C 173.707031 253.5625 178.1875 258.042969 178.1875 263.5625 "/>
<path style="fill-rule:nonzero;fill:rgb(100%,49.803922%,5.490196%);fill-opacity:1;stroke-width:1;stroke-linecap:butt;stroke-linejoin:miter;stroke:rgb(0%,0%,0%);stroke-opacity:1;stroke-miterlimit:10;" d="M 56.554688 279.785156 C 56.554688 285.308594 52.078125 289.785156 46.554688 289.785156 C 41.03125 289.785156 36.554688 285.308594 36.554688 279.785156 C 36.554688 274.261719 41.03125 269.785156 46.554688 269.785156 C 52.078125 269.785156 56.554688 274.261719 56.554688 279.785156 "/>
<path style="fill-rule:nonzero;fill:rgb(100%,49.803922%,5.490196%);fill-opacity:1;stroke-width:1;stroke-linecap:butt;stroke-linejoin:miter;stroke:rgb(0%,0%,0%);stroke-opacity:1;stroke-miterlimit:10;" d="M 86.78125 447.605469 C 86.78125 453.125 82.304688 457.605469 76.78125 457.605469 C 71.257812 457.605469 66.78125 453.125 66.78125 447.605469 C 66.78125 442.082031 71.257812 437.605469 76.78125 437.605469 C 82.304688 437.605469 86.78125 442.082031 86.78125 447.605469 "/>
<path style="fill-rule:nonzero;fill:rgb(100%,49.803922%,5.490196%);fill-opacity:1;stroke-width:1;stroke-linecap:butt;stroke-linejoin:miter;stroke:rgb(0%,0%,0%);stroke-opacity:1;stroke-miterlimit:10;" d="M 30 370.964844 C 30 376.484375 25.523438 380.964844 20 380.964844 C 14.476562 380.964844 10 376.484375 10 370.964844 C 10 365.441406 14.476562 360.964844 20 360.964844 C 25.523438 360.964844 30 365.441406 30 370.964844 "/>
<path style="fill-rule:nonzero;fill:rgb(17.254902%,62.745098%,17.254902%);fill-opacity:1;stroke-width:1;stroke-linecap:butt;stroke-linejoin:miter;stroke:rgb(0%,0%,0%);stroke-opacity:1;stroke-miterlimit:10;" d="M 321.246094 145.207031 C 321.246094 150.730469 316.769531 155.207031 311.246094 155.207031 C 305.722656 155.207031 301.246094 150.730469 301.246094 145.207031 C 301.246094 139.6875 305.722656 135.207031 311.246094 135.207031 C 316.769531 135.207031 321.246094 139.6875 321.246094 145.207031 "/>
<path style="fill-rule:nonzero;fill:rgb(17.254902%,62.745098%,17.254902%);fill-opacity:1;stroke-width:1;stroke-linecap:butt;stroke-linejoin:miter;stroke:rgb(0%,0%,0%);stroke-opacity:1;stroke-miterlimit:10;" d="M 474.632812 199.996094 C 474.632812 205.519531 470.15625 209.996094 464.632812 209.996094 C 459.113281 209.996094 454.632812 205.519531 454.632812 199.996094 C 454.632812 194.476562 459.113281 189.996094 464.632812 189.996094 C 470.15625 189.996094 474.632812 194.476562 474.632812 199.996094 "/>
<path style="fill-rule:nonzero;fill:rgb(17.254902%,62.745098%,17.254902%);fill-opacity:1;stroke-width:1;stroke-linecap:butt;stroke-linejoin:miter;stroke:rgb(0%,0%,0%);stroke-opacity:1;stroke-miterlimit:10;" d="M 358.386719 30.074219 C 358.386719 35.597656 353.910156 40.074219 348.386719 40.074219 C 342.863281 40.074219 338.386719 35.597656 338.386719 30.074219 C 338.386719 24.550781 342.863281 20.074219 348.386719 20.074219 C 353.910156 20.074219 358.386719 24.550781 358.386719 30.074219 "/>
<path style="fill-rule:nonzero;fill:rgb(17.254902%,62.745098%,17.254902%);fill-opacity:1;stroke-width:1;stroke-linecap:butt;stroke-linejoin:miter;stroke:rgb(0%,0%,0%);stroke-opacity:1;stroke-miterlimit:10;" d="M 454.21875 20 C 454.21875 25.523438 449.742188 30 444.21875 30 C 438.695312 30 434.21875 25.523438 434.21875 20 C 434.21875 14.476562 438.695312 10 444.21875 10 C 449.742188 10 454.21875 14.476562 454.21875 20 "/>
<path style="fill-rule:nonzero;fill:rgb(17.254902%,62.745098%,17.254902%);fill-opacity:1;stroke-width:1;stroke-linecap:butt;stroke-linejoin:miter;stroke:rgb(0%,0%,0%);stroke-opacity:1;stroke-miterlimit:10;" d="M 521.175781 88.222656 C 521.175781 93.746094 516.699219 98.222656 511.175781 98.222656 C 505.65625 98.222656 501.175781 93.746094 501.175781 88.222656 C 501.175781 82.699219 505.65625 78.222656 511.175781 78.222656 C 516.699219 78.222656 521.175781 82.699219 521.175781 88.222656 "/>
</g>
</svg>
